<?xml version="1.0" encoding="UTF-8"?>
<!--Generator: Apple Native CoreSVG 341-->
<!DOCTYPE svg
PUBLIC "-//W3C//DTD SVG 1.1//EN"
       "http://www.w3.org/Graphics/SVG/1.1/DTD/svg11.dtd">
<svg version="1.1" xmlns="http://www.w3.org/2000/svg" xmlns:xlink="http://www.w3.org/1999/xlink" viewBox="0 0 20.5381 20.1848">
 <g>
  <rect height="20.1848" opacity="0" width="20.5381" x="0" y="0"/>
  <path d="M10.0875 20.175C15.6576 20.175 20.1767 15.6559 20.1767 10.0875C20.1767 4.51914 15.6576 0 10.0875 0C4.51914 0 0 4.51914 0 10.0875C0 15.6559 4.51914 20.175 10.0875 20.175ZM10.0875 18.1879C5.60839 18.1879 1.9871 14.5666 1.9871 10.0875C1.9871 5.60839 5.60839 1.9871 10.0875 1.9871C14.5666 1.9871 18.1897 5.60839 18.1897 10.0875C18.1897 14.5666 14.5666 18.1879 10.0875 18.1879Z" fill="white" fill-opacity="0.25"/>
  <path d="M10.0795 6.8412C8.71738 6.8412 6.77636 6.6121 5.84491 6.46738C5.75878 6.45585 5.6789 6.43007 5.58652 6.43007C5.34413 6.43007 5.0955 6.62988 5.0955 6.97616C5.0955 7.23632 5.25624 7.45566 5.50038 7.52402C5.81386 7.61816 7.9955 7.86855 8.27343 7.91738C8.54335 7.97421 8.70585 8.20507 8.71738 8.53183C8.7289 9.03261 8.71738 10.6256 8.59218 11.3555C8.47499 12.0756 7.6412 15.5447 7.60214 15.6975C7.49824 16.0713 7.72734 16.398 8.10292 16.398C8.37109 16.398 8.55312 16.2533 8.65703 15.891C8.8248 15.1887 9.42597 12.7877 9.61953 12.2105C9.73671 11.7879 9.84062 11.6432 10.0795 11.6432C10.3103 11.6432 10.416 11.7879 10.551 12.2105C10.7187 12.7859 11.3394 15.1887 11.5019 15.891C11.5961 16.2533 11.7879 16.398 12.0578 16.398C12.4334 16.398 12.6545 16.0713 12.5506 15.6975C12.5195 15.5447 11.6742 12.0756 11.5605 11.3555C11.4531 10.6256 11.4531 9.03261 11.4531 8.53183C11.4531 8.20507 11.6094 7.97421 11.8855 7.91738C12.1555 7.86855 14.3451 7.61992 14.6523 7.52402C14.9027 7.4539 15.0635 7.23632 15.0635 6.97616C15.0635 6.62988 14.8051 6.43007 14.5662 6.43007C14.4801 6.43007 14.3922 6.45585 14.3078 6.46738C13.3844 6.6121 11.4531 6.8412 10.0795 6.8412ZM10.0795 6.20722C10.7721 6.20722 11.3297 5.63984 11.3297 4.95878C11.3297 4.26796 10.7721 3.71034 10.0795 3.71034C9.38867 3.71034 8.83105 4.26796 8.83105 4.95878C8.83105 5.63984 9.38867 6.20722 10.0795 6.20722Z" fill="white" fill-opacity="0.25"/>
 </g>
</svg>
