<?xml version="1.0" encoding="UTF-8"?>
<!--Generator: Apple Native CoreSVG 341-->
<!DOCTYPE svg
PUBLIC "-//W3C//DTD SVG 1.1//EN"
       "http://www.w3.org/Graphics/SVG/1.1/DTD/svg11.dtd">
<svg version="1.1" xmlns="http://www.w3.org/2000/svg" xmlns:xlink="http://www.w3.org/1999/xlink" viewBox="0 0 20.5381 20.1848">
 <g>
  <rect height="20.1848" opacity="0" width="20.5381" x="0" y="0"/>
  <path d="M20.1767 10.0875C20.1767 15.6478 15.6576 20.175 10.0875 20.175C4.52715 20.175 0 15.6478 0 10.0875C0 4.51914 4.52715 0 10.0875 0C15.6576 0 20.1767 4.51914 20.1767 10.0875ZM14.4297 6.36777C13.4822 6.52226 11.4949 6.75937 10.0875 6.75937C8.6916 6.75937 6.69277 6.52226 5.73905 6.36777C5.65292 6.358 5.57304 6.33222 5.47089 6.33222C5.23026 6.33222 4.97362 6.54003 4.97362 6.89433C4.97362 7.16249 5.13437 7.39159 5.38476 7.4582C5.708 7.55234 7.94745 7.81074 8.23339 7.85956C8.50956 7.91816 8.68183 8.15702 8.6916 8.49179C8.70488 9.00683 8.6916 10.6434 8.56015 11.3875C8.44296 12.1334 7.58339 15.6924 7.54433 15.8451C7.44042 16.227 7.66952 16.5697 8.06113 16.5697C8.33105 16.5697 8.52109 16.417 8.62499 16.0467C8.80077 15.3266 9.41796 12.8615 9.61953 12.2666C9.73671 11.8359 9.84062 11.6832 10.0875 11.6832C10.3264 11.6832 10.4338 11.8359 10.5768 12.2666C10.7428 12.8598 11.3795 15.3266 11.5518 16.0467C11.6459 16.417 11.8457 16.5697 12.1156 16.5697C12.5072 16.5697 12.7283 16.227 12.6227 15.8451C12.5934 15.6924 11.724 12.1334 11.6086 11.3875C11.4949 10.6434 11.4949 9.00683 11.4949 8.49179C11.4949 8.15702 11.6574 7.91816 11.9434 7.85956C12.2213 7.81074 14.4687 7.55409 14.784 7.4582C15.0424 7.38808 15.2031 7.16249 15.2031 6.89433C15.2031 6.54003 14.9367 6.33222 14.6979 6.33222C14.6037 6.33222 14.5158 6.358 14.4297 6.36777ZM8.80702 4.82714C8.80702 5.52597 9.38066 6.10937 10.0875 6.10937C10.7961 6.10937 11.3697 5.52597 11.3697 4.82714C11.3697 4.11229 10.7961 3.53866 10.0875 3.53866C9.38066 3.53866 8.80702 4.11229 8.80702 4.82714Z" fill="white" fill-opacity="0.25"/>
 </g>
</svg>
