<?xml version="1.0" encoding="UTF-8"?>
<!--Generator: Apple Native CoreSVG 341-->
<!DOCTYPE svg
PUBLIC "-//W3C//DTD SVG 1.1//EN"
       "http://www.w3.org/Graphics/SVG/1.1/DTD/svg11.dtd">
<svg version="1.1" xmlns="http://www.w3.org/2000/svg" xmlns:xlink="http://www.w3.org/1999/xlink" viewBox="0 0 9.17753 19.5379">
 <g>
  <rect height="19.5379" opacity="0" width="9.17753" x="0" y="0"/>
  <path d="M4.44628 8.20643C6.81581 8.22772 8.84725 6.3623 8.8162 4.08769C8.78339 1.84062 6.81054 0 4.44628 0C2.37304 0 1.0207 1.23906 0.312304 2.27383C0.0984371 2.60215 0 2.97207 0 3.37753L0 4.83242C0 5.23085 0.104687 5.59726 0.310546 5.92909C0.978317 6.95331 2.36601 8.17889 4.44628 8.20643ZM1.92324 5.72753C1.65351 5.72753 1.43613 5.51015 1.43613 5.23066L1.43613 2.96777C1.43613 2.68828 1.65351 2.4709 1.92324 2.4709C2.21249 2.4709 2.42011 2.68828 2.42011 2.96777L2.42011 5.23066C2.42011 5.51015 2.21249 5.72753 1.92324 5.72753ZM4.85117 16.1857L7.83534 16.1857L7.83534 8.11092C6.99179 8.7576 5.95917 9.15526 4.85117 9.22108ZM5.91894 19.5121L6.75956 19.5121C7.4203 19.5121 7.83534 19.1681 7.83534 18.534L7.83534 17.2502L4.85117 17.2502L4.85117 18.534C4.85117 19.1681 5.27773 19.5121 5.91894 19.5121Z" fill="white" fill-opacity="0.25"/>
 </g>
</svg>
