<?xml version="1.0" encoding="UTF-8"?>
<!--Generator: Apple Native CoreSVG 341-->
<!DOCTYPE svg
PUBLIC "-//W3C//DTD SVG 1.1//EN"
       "http://www.w3.org/Graphics/SVG/1.1/DTD/svg11.dtd">
<svg version="1.1" xmlns="http://www.w3.org/2000/svg" xmlns:xlink="http://www.w3.org/1999/xlink" viewBox="0 0 19.158 17.3398">
 <g>
  <rect height="17.3398" opacity="0" width="19.158" x="0" y="0"/>
  <path d="M6.10312 17.3336L12.6953 17.3336C16.7738 17.3336 18.7967 15.3047 18.7967 11.2141L18.7967 6.11952C18.7967 2.0289 16.7738 0 12.6953 0L6.10312 0C2.02285 0 0 2.0289 0 6.11952L0 11.2141C0 15.3047 2.02285 17.3336 6.10312 17.3336ZM6.10312 15.4203C3.24823 15.4203 1.91327 14.0811 1.91327 11.2141L1.91327 6.11952C1.91327 3.25253 3.24823 1.91327 6.10312 1.91327L12.6953 1.91327C15.5484 1.91327 16.8834 3.25253 16.8834 6.11952L16.8834 11.2141C16.8834 14.0811 15.5484 15.4203 12.6953 15.4203ZM0.804093 5.9369L17.7551 5.9369L17.7551 4.90488L0.804093 4.90488ZM6.33164 6.57206L12.425 6.57206C13.0998 6.57206 13.581 6.09882 13.581 5.42401C13.581 4.75097 13.0998 4.27773 12.425 4.27773L6.33164 4.27773C5.67988 4.27773 5.17382 4.75097 5.17382 5.42401C5.17382 6.09882 5.67988 6.57206 6.33164 6.57206ZM9.39921 9.89784C9.93437 9.88007 10.3764 9.43984 10.3764 8.93222C10.3764 8.39531 9.93437 7.96308 9.39921 7.96308C8.86581 7.96308 8.42207 8.39531 8.42207 8.93222C8.42207 9.45585 8.86581 9.90761 9.39921 9.89784Z" fill="white" fill-opacity="0.25"/>
 </g>
</svg>
