<?xml version="1.0" encoding="UTF-8"?>
<!--Generator: Apple Native CoreSVG 341-->
<!DOCTYPE svg
PUBLIC "-//W3C//DTD SVG 1.1//EN"
       "http://www.w3.org/Graphics/SVG/1.1/DTD/svg11.dtd">
<svg version="1.1" xmlns="http://www.w3.org/2000/svg" xmlns:xlink="http://www.w3.org/1999/xlink" viewBox="0 0 15.4789 19.8197">
 <g>
  <rect height="19.8197" opacity="0" width="15.4789" x="0" y="0"/>
  <path d="M7.53958 11.8432C7.57367 11.8808 7.61074 11.915 7.65018 11.9463L7.65018 17.7052C7.65018 18.3722 7.20409 18.7374 6.53007 18.7374L5.75605 18.7374C5.08027 18.7374 4.63769 18.3722 4.63769 17.7052L4.63769 11.2656C5.41757 11.5596 6.34767 11.7658 7.53958 11.8432Z" fill="white" fill-opacity="0.25"/>
  <path d="M9.94765 3.64072C10.0835 3.81649 10.2633 4.09563 10.4371 4.42538C8.11926 4.79464 6.39355 6.86474 6.39355 8.96474C6.39355 9.60836 6.51402 10.1804 6.72894 10.6752C5.53512 10.5124 4.6966 10.1915 3.97793 9.77548C2.31386 8.80556 1.0707 7.25947 1.0707 5.11181C1.0707 2.58818 2.84082 1.1001 5.08515 1.07881C6.80077 1.06104 8.70643 1.89365 9.94765 3.64072ZM3.12324 3.46103C2.93691 3.67568 2.94843 3.9915 3.17109 4.17334L4.56113 5.32978C4.76953 5.51338 5.10039 5.48857 5.28046 5.2624C5.45878 5.03623 5.4375 4.72217 5.20683 4.54209L3.83906 3.38564C3.6164 3.20557 3.29707 3.23135 3.12324 3.46103Z" fill="white" fill-opacity="0.25"/>
  <path d="M10.392 11.897C12.2262 11.897 14.0389 10.4364 14.0389 8.29091C14.0389 6.79053 12.9689 5.38975 11.1848 5.38975C9.09257 5.38975 7.43222 7.19971 7.43222 8.96474C7.43222 10.8839 8.78066 11.897 10.392 11.897ZM10.8406 10.3739C10.5373 10.1185 10.7199 9.61806 11.2889 8.89814C11.8721 8.18271 12.3539 7.92021 12.6767 8.19697C12.9685 8.44716 12.7922 8.95732 12.225 9.66298C11.6373 10.3686 11.1484 10.6392 10.8406 10.3739Z" fill="white" fill-opacity="0.25"/>
 </g>
</svg>
