<?xml version="1.0" encoding="UTF-8"?>
<!--Generator: Apple Native CoreSVG 341-->
<!DOCTYPE svg
PUBLIC "-//W3C//DTD SVG 1.1//EN"
       "http://www.w3.org/Graphics/SVG/1.1/DTD/svg11.dtd">
<svg version="1.1" xmlns="http://www.w3.org/2000/svg" xmlns:xlink="http://www.w3.org/1999/xlink" viewBox="0 0 20.9074 17.5035">
 <g>
  <rect height="17.5035" opacity="0" width="20.9074" x="0" y="0"/>
  <path d="M6.01289 17.4937L14.5314 17.4937C18.5949 17.4937 20.5461 15.5506 20.5461 11.4969L20.5461 6.69726L15.3443 6.69726C15.173 7.13144 14.7558 7.41464 14.2312 7.41464L6.32284 7.41464C5.80976 7.41464 5.3748 7.13144 5.20976 6.69726L0 6.69726L0 11.4969C0 15.5506 1.94941 17.4937 6.01289 17.4937ZM10.273 11.1705C9.76366 11.1883 9.33769 10.7525 9.33769 10.2529C9.33769 9.74179 9.76366 9.31757 10.273 9.31757C10.7842 9.31757 11.2084 9.74179 11.2084 10.2529C11.2084 10.7365 10.7842 11.1607 10.273 11.1705ZM0 5.74882L5.19374 5.74882C5.35878 5.31464 5.79374 5.03144 6.30683 5.03144L14.2215 5.03144C14.7346 5.03144 15.1615 5.31464 15.3283 5.74882L20.5203 5.74882L20.5203 5.46093C20.5203 1.77344 18.4082 0 14.5074 0L6.01289 0C2.11211 0 0 1.77344 0 5.46093Z" fill="white" fill-opacity="0.25"/>
 </g>
</svg>
