<?xml version="1.0" encoding="UTF-8"?>
<!--Generator: Apple Native CoreSVG 341-->
<!DOCTYPE svg
PUBLIC "-//W3C//DTD SVG 1.1//EN"
       "http://www.w3.org/Graphics/SVG/1.1/DTD/svg11.dtd">
<svg version="1.1" xmlns="http://www.w3.org/2000/svg" xmlns:xlink="http://www.w3.org/1999/xlink" viewBox="0 0 13.8703 23.0308">
 <g>
  <rect height="23.0308" opacity="0" width="13.8703" x="0" y="0"/>
  <path d="M9.45586 19.8756C9.94824 19.8756 10.3555 19.4684 10.3555 18.9582C10.3555 18.4658 9.94824 18.0586 9.45586 18.0586C8.94395 18.0586 8.54649 18.4658 8.54649 18.9582C8.54649 19.4684 8.94395 19.8756 9.45586 19.8756ZM0 19.9842C0 21.9846 1.06406 23.0308 3.08223 23.0308L10.4348 23.0308C12.4449 23.0308 13.509 21.9846 13.509 19.9842L13.509 5.16581C13.509 4.29335 13.3289 3.74257 12.8224 3.12968L11.3826 1.37538C10.6715 0.508201 9.97597 0.108007 9.04609 0.108007L4.46288 0.108007C3.533 0.108007 2.8455 0.508201 2.12637 1.37538L0.686521 3.12968C0.180078 3.74257 0 4.29335 0 5.16581ZM1.91327 19.7232L1.91327 6.07752C2.16815 6.20819 2.43202 6.24999 2.75096 6.24999L10.758 6.24999C11.085 6.24999 11.3488 6.20819 11.5957 6.07752L11.5957 19.7232C11.5957 20.6404 11.1025 21.1176 10.2191 21.1176L3.28984 21.1176C2.40643 21.1176 1.91327 20.6404 1.91327 19.7232ZM2.39706 3.72226L3.52733 2.3414C3.92987 1.866 4.16601 1.60741 4.75878 1.60741L8.75194 1.60741C9.35097 1.60741 9.58886 1.866 9.98163 2.3414L11.1119 3.72226C11.2977 3.94531 11.2498 4.35781 10.7787 4.35781L2.73202 4.35781C2.25916 4.35781 2.22108 3.94531 2.39706 3.72226Z" fill="white" fill-opacity="0.25"/>
 </g>
</svg>
