<?xml version="1.0" encoding="UTF-8"?>
<!--Generator: Apple Native CoreSVG 341-->
<!DOCTYPE svg
PUBLIC "-//W3C//DTD SVG 1.1//EN"
       "http://www.w3.org/Graphics/SVG/1.1/DTD/svg11.dtd">
<svg version="1.1" xmlns="http://www.w3.org/2000/svg" xmlns:xlink="http://www.w3.org/1999/xlink" viewBox="0 0 11.3605 17.466">
 <g>
  <rect height="17.466" opacity="0" width="11.3605" x="0" y="0"/>
  <path d="M4.30644 0.0630862C1.98027 0.0808597 0 1.99961 0 4.57285C0 7.23574 3.7541 10.4355 6.53828 10.4453C8.55644 10.4568 10.9992 8.48671 10.9992 6.05273C10.9992 3.10664 7.38007 0.0435549 4.30644 0.0630862ZM7.44668 9.008C6.90703 9.008 6.87949 8.31035 7.41386 7.44492C7.94375 6.56172 8.80742 5.87558 9.35332 5.87558C9.90097 5.87558 9.92851 6.56172 9.39414 7.44492C8.86601 8.31035 8.00234 9.008 7.44668 9.008ZM4.74062 4.64902C4.43261 5.08925 3.83086 5.18867 3.37461 4.85937L2.01367 3.88906C1.56367 3.56152 1.47578 2.98281 1.81308 2.54257C2.11484 2.09609 2.71308 1.98515 3.1498 2.30468L4.5125 3.29277C4.94921 3.60254 5.05214 4.20253 4.74062 4.64902ZM3.82714 17.466C4.50117 17.466 4.94726 17.1025 4.94726 16.4435L4.94726 11.2164C3.73437 10.8674 2.52597 10.1574 1.50918 9.25233L1.50918 16.4435C1.50918 17.1025 1.94551 17.466 2.61953 17.466Z" fill="white" fill-opacity="0.25"/>
 </g>
</svg>
