<?xml version="1.0" encoding="UTF-8"?>
<!--Generator: Apple Native CoreSVG 341-->
<!DOCTYPE svg
PUBLIC "-//W3C//DTD SVG 1.1//EN"
       "http://www.w3.org/Graphics/SVG/1.1/DTD/svg11.dtd">
<svg version="1.1" xmlns="http://www.w3.org/2000/svg" xmlns:xlink="http://www.w3.org/1999/xlink" viewBox="0 0 22.817 17.3398">
 <g>
  <rect height="17.3398" opacity="0" width="22.817" x="0" y="0"/>
  <path d="M6.01289 17.3336L16.4428 17.3336C20.5142 17.3336 22.4556 15.4002 22.4556 11.3447L22.4556 5.98886C22.4556 1.9334 20.5142 0 16.4428 0L6.01289 0C1.94941 0 0 1.9334 0 5.98886L0 11.3447C0 15.4002 1.94941 17.3336 6.01289 17.3336ZM6.01289 15.4203C3.18534 15.4203 1.91327 14.1562 1.91327 11.3447L1.91327 5.98886C1.91327 3.17733 3.18534 1.91327 6.01289 1.91327L16.4428 1.91327C19.2783 1.91327 20.5424 3.17733 20.5424 5.98886L20.5424 11.3447C20.5424 14.1562 19.2783 15.4203 16.4428 15.4203ZM0.961516 6.73905L21.4941 6.73905L21.4941 5.70703L0.961516 5.70703ZM7.27851 7.41464L15.1851 7.41464C15.8828 7.41464 16.3834 6.92734 16.3834 6.21992C16.3834 5.5205 15.8828 5.03144 15.1851 5.03144L7.27851 5.03144C6.60214 5.03144 6.07226 5.5205 6.07226 6.21992C6.07226 6.92734 6.60214 7.41464 7.27851 7.41464ZM11.2287 10.801C11.7639 10.7912 12.2041 10.351 12.2041 9.84335C12.2041 9.3082 11.7639 8.8662 11.2287 8.8662C10.6953 8.8662 10.2596 9.3082 10.2596 9.84335C10.2596 10.3687 10.6953 10.8125 11.2287 10.801Z" fill="white" fill-opacity="0.25"/>
 </g>
</svg>
