<?xml version="1.0" encoding="UTF-8"?>
<!--Generator: Apple Native CoreSVG 341-->
<!DOCTYPE svg
PUBLIC "-//W3C//DTD SVG 1.1//EN"
       "http://www.w3.org/Graphics/SVG/1.1/DTD/svg11.dtd">
<svg version="1.1" xmlns="http://www.w3.org/2000/svg" xmlns:xlink="http://www.w3.org/1999/xlink" viewBox="0 0 23.4861 17.5512">
 <g>
  <rect height="17.5512" opacity="0" width="23.4861" x="0" y="0"/>
  <path d="M4.03867 9.99394C6.99531 9.99394 10.4643 7.24316 10.4643 4.57676C10.4643 1.96269 8.31269 0.072071 6.27734 0.072071C3.64199 0.072071 0 2.84062 0 5.30644C0 7.62578 1.39355 9.99394 4.03867 9.99394ZM2.44101 8.22539C1.78593 7.93984 1.19921 6.34062 1.20722 5.3539C1.20722 4.99433 1.33867 4.75644 1.56328 4.75644C2.26211 4.75644 2.96172 6.75078 2.96172 7.71855C2.96172 8.08261 2.82578 8.40508 2.44101 8.22539ZM4.69844 5.52461C4.39492 5.09414 4.46679 4.50566 4.92656 4.18437L5.52968 3.74531C5.98144 3.42402 6.55663 3.54473 6.85839 3.98496C7.17968 4.41543 7.11933 4.99238 6.65781 5.32344L6.05644 5.74296C5.59492 6.07402 5.00644 5.96484 4.69844 5.52461ZM4.79238 10.9758L4.79238 16.0367C4.79238 17.2641 5.37441 17.5512 6.65976 17.5512C7.91152 17.5512 8.47851 17.2641 8.47851 16.0367L8.47851 9.49511C7.3664 10.2771 6.06875 10.8213 4.79238 10.9758ZM19.0941 9.99394C21.7392 9.99394 23.1248 7.62578 23.1248 5.30644C23.1248 2.84062 19.4828 0.072071 16.8555 0.072071C14.8121 0.072071 12.6686 1.96269 12.6686 4.57676C12.6686 7.24316 16.1295 9.99394 19.0941 9.99394ZM20.6918 8.22539C20.299 8.40508 20.1631 8.08261 20.1631 7.71855C20.1631 6.75078 20.8707 4.75644 21.5695 4.75644C21.7861 4.75644 21.9176 4.99433 21.9176 5.3539C21.9256 6.34062 21.3469 7.93984 20.6918 8.22539ZM18.4264 5.52461C18.1264 5.96484 17.5379 6.07402 17.0684 5.74296L16.475 5.32344C16.0055 4.99238 15.9451 4.41543 16.2744 3.98496C16.5682 3.54473 17.1434 3.42402 17.6031 3.74531L18.2062 4.18437C18.658 4.50566 18.7379 5.09414 18.4264 5.52461ZM18.3324 10.9758C17.0641 10.8213 15.7664 10.2771 14.6463 9.49511L14.6463 16.0367C14.6463 17.2641 15.2133 17.5512 16.465 17.5512C17.7504 17.5512 18.3324 17.2641 18.3324 16.0367Z" fill="white" fill-opacity="0.25"/>
 </g>
</svg>
