<?xml version="1.0" encoding="UTF-8"?>
<!--Generator: Apple Native CoreSVG 341-->
<!DOCTYPE svg
PUBLIC "-//W3C//DTD SVG 1.1//EN"
       "http://www.w3.org/Graphics/SVG/1.1/DTD/svg11.dtd">
<svg version="1.1" xmlns="http://www.w3.org/2000/svg" xmlns:xlink="http://www.w3.org/1999/xlink" viewBox="0 0 20.771 21.9394">
 <g>
  <rect height="21.9394" opacity="0" width="20.771" x="0" y="0"/>
  <path d="M0.708428 12.7068L1.65686 12.7068L1.65686 10.5541L0.708428 10.5541ZM5.29769 21.9394C6.55003 21.9394 7.14632 20.7707 6.45589 19.5336L2.81233 13.0873C2.49456 12.5361 2.0012 12.2709 1.39417 12.2709C0.460383 12.2709-0.058757 12.9545 0.00530612 13.8978C0.165464 15.0846 1.02405 17.1035 2.068 18.7254C3.50237 21.093 4.35921 21.9394 5.29769 21.9394ZM19.7012 12.7068L19.7012 10.5541L18.7528 10.5541L18.7528 12.7068ZM15.1102 21.9394C16.0504 21.9394 16.9072 21.093 18.3416 18.7254C19.3776 17.1035 20.2442 15.0846 20.4043 13.8978C20.4684 12.9545 19.9475 12.2709 19.0155 12.2709C18.4084 12.2709 17.9151 12.5361 17.5973 13.0873L13.9537 19.5336C13.2553 20.7707 13.8596 21.9394 15.1102 21.9394ZM0.281478 10.4566C0.281478 10.9631 0.630695 11.3025 1.1389 11.3025C1.6471 11.3025 1.97502 10.9648 1.97502 10.4566C2.01506 5.25625 5.15862 1.93398 10.2008 1.93398C15.251 1.93398 18.3866 5.25625 18.4266 10.4566C18.4266 10.9648 18.7625 11.3025 19.269 11.3025C19.7789 11.3025 20.1201 10.9631 20.1201 10.4566C20.1201 4.38418 16.3383 0.232425 10.2008 0.232425C4.06331 0.232425 0.281478 4.38418 0.281478 10.4566Z" fill="white" fill-opacity="0.25"/>
  <path d="M8.31253 19.9408C8.97444 19.5654 9.14924 18.7373 8.72776 18L5.47014 12.2352C5.0469 11.4978 4.25335 11.2387 3.59593 11.6193C3.18343 11.842 3.09554 12.2279 3.30491 12.5926L7.32503 19.6773C7.54593 20.0605 7.91682 20.1635 8.31253 19.9408ZM12.0971 19.9408C12.4928 20.1635 12.8637 20.0605 13.0766 19.6773L17.0967 12.5926C17.3141 12.2279 17.2262 11.842 16.8137 11.6193C16.1483 11.2387 15.3627 11.4978 14.9315 12.2352L11.6739 18C11.2524 18.7373 11.4352 19.5654 12.0971 19.9408ZM4.48011 5.47655C6.07288 4.60741 7.95139 4.183 10.2008 4.18475C12.4582 4.183 14.3367 4.60741 15.9215 5.47655C14.6668 3.78847 12.7949 2.92421 10.2008 2.92597C7.61467 2.92421 5.7428 3.78847 4.48011 5.47655Z" fill="white" fill-opacity="0.25"/>
 </g>
</svg>
