<?xml version="1.0" encoding="UTF-8"?>
<!--Generator: Apple Native CoreSVG 341-->
<!DOCTYPE svg
PUBLIC "-//W3C//DTD SVG 1.1//EN"
       "http://www.w3.org/Graphics/SVG/1.1/DTD/svg11.dtd">
<svg version="1.1" xmlns="http://www.w3.org/2000/svg" xmlns:xlink="http://www.w3.org/1999/xlink" viewBox="0 0 20.5381 20.1848">
 <g>
  <rect height="20.1848" opacity="0" width="20.5381" x="0" y="0"/>
  <path d="M20.1767 10.0973C20.1767 15.6656 15.6576 20.1848 10.0875 20.1848C4.52715 20.1848 0 15.6656 0 10.0973C0 4.53691 4.52715 0.00976562 10.0875 0.00976562C15.6576 0.00976562 20.1767 4.53691 20.1767 10.0973ZM9.78398 11.2375L6.91601 14.473C6.68437 14.726 6.86015 15.1111 7.19023 15.1111L12.9865 15.1111C13.3326 15.1111 13.4906 14.726 13.2607 14.473L10.4008 11.2375C10.2455 11.0592 9.95527 11.0627 9.78398 11.2375ZM4.97363 10.099C4.97363 11.4521 5.49394 12.7299 6.43886 13.6746L6.99531 13.0498C6.24394 12.2533 5.81855 11.193 5.81855 10.099C5.81855 7.76035 7.75058 5.82031 10.0875 5.82031C12.4324 5.82031 14.3742 7.76035 14.3742 10.099C14.3742 11.193 13.9373 12.2533 13.1814 13.0498L13.7379 13.6746C14.6828 12.7299 15.2191 11.4521 15.2191 10.099C15.2191 7.29081 12.9072 4.97714 10.0875 4.97714C7.26953 4.97714 4.97363 7.29081 4.97363 10.099ZM6.39062 10.099C6.39062 11.0402 6.73515 11.9291 7.37285 12.6154L7.9373 11.9791C7.48515 11.4516 7.24355 10.7908 7.24355 10.099C7.24355 8.52831 8.5248 7.23906 10.0875 7.23906C11.6519 7.23906 12.9412 8.52831 12.9412 10.099C12.9412 10.7908 12.6898 11.4596 12.2297 11.9711L12.8021 12.6154C13.4416 11.9246 13.7941 11.0402 13.7941 10.099C13.7941 8.06679 12.1215 6.39413 10.0875 6.39413C8.05527 6.39413 6.39062 8.06679 6.39062 10.099ZM7.80585 10.099C7.80585 10.6514 7.99238 11.1336 8.32461 11.5465L8.91035 10.8809C8.74589 10.6508 8.65878 10.3727 8.65878 10.099C8.65878 9.3123 9.30253 8.66054 10.0875 8.66054C10.8742 8.66054 11.526 9.3123 11.526 10.099C11.526 10.3727 11.4309 10.6525 11.2646 10.8746L11.8486 11.5385C12.1844 11.1353 12.3789 10.6416 12.3789 10.099C12.3789 8.84902 11.3375 7.80761 10.0875 7.80761C8.83925 7.80761 7.80585 8.84902 7.80585 10.099Z" fill="white" fill-opacity="0.25"/>
 </g>
</svg>
