<?xml version="1.0" encoding="UTF-8"?>
<!--Generator: Apple Native CoreSVG 341-->
<!DOCTYPE svg
PUBLIC "-//W3C//DTD SVG 1.1//EN"
       "http://www.w3.org/Graphics/SVG/1.1/DTD/svg11.dtd">
<svg version="1.1" xmlns="http://www.w3.org/2000/svg" xmlns:xlink="http://www.w3.org/1999/xlink" viewBox="0 0 21.3228 17.3398">
 <g>
  <rect height="17.3398" opacity="0" width="21.3228" x="0" y="0"/>
  <path d="M6.01289 17.3336L14.9486 17.3336C19.0121 17.3336 20.9615 15.4002 20.9615 11.3447L20.9615 5.98886C20.9615 1.9334 19.0121 0 14.9486 0L6.01289 0C1.94941 0 0 1.9334 0 5.98886L0 11.3447C0 15.4002 1.94941 17.3336 6.01289 17.3336ZM6.01289 15.4203C3.18534 15.4203 1.91327 14.1562 1.91327 11.3447L1.91327 5.98886C1.91327 3.17733 3.18534 1.91327 6.01289 1.91327L14.9486 1.91327C17.7762 1.91327 19.0482 3.17733 19.0482 5.98886L19.0482 11.3447C19.0482 14.1562 17.7762 15.4203 14.9486 15.4203ZM0.961516 6.73905L20 6.73905L20 5.70703L0.961516 5.70703ZM6.52656 7.41464L14.435 7.41464C15.1309 7.41464 15.6314 6.92734 15.6314 6.21992C15.6314 5.5205 15.1309 5.03144 14.435 5.03144L6.52656 5.03144C5.85019 5.03144 5.33007 5.5205 5.33007 6.21992C5.33007 6.92734 5.85019 7.41464 6.52656 7.41464ZM10.4848 10.801C11.0199 10.7912 11.4539 10.351 11.4539 9.84335C11.4539 9.3082 11.0199 8.8662 10.4848 8.8662C9.94335 8.8662 9.50761 9.3082 9.50761 9.84335C9.50761 10.3687 9.94335 10.8125 10.4848 10.801Z" fill="white" fill-opacity="0.25"/>
 </g>
</svg>
