<?xml version="1.0" encoding="UTF-8"?>
<!--Generator: Apple Native CoreSVG 341-->
<!DOCTYPE svg
PUBLIC "-//W3C//DTD SVG 1.1//EN"
       "http://www.w3.org/Graphics/SVG/1.1/DTD/svg11.dtd">
<svg version="1.1" xmlns="http://www.w3.org/2000/svg" xmlns:xlink="http://www.w3.org/1999/xlink" viewBox="0 0 20.5381 20.1848">
 <g>
  <rect height="20.1848" opacity="0" width="20.5381" x="0" y="0"/>
  <path d="M20.1767 10.0973C20.1767 15.6656 15.6576 20.1848 10.0875 20.1848C4.52715 20.1848 0 15.6656 0 10.0973C0 4.53691 4.52715 0.00976562 10.0875 0.00976562C15.6576 0.00976562 20.1767 4.53691 20.1767 10.0973ZM9.77597 11.2562L6.908 14.4918C6.67636 14.7527 6.85214 15.1316 7.18222 15.1316L12.9785 15.1316C13.3228 15.1316 13.4826 14.7527 13.2527 14.4918L10.3928 11.2562C10.2455 11.0877 9.94726 11.0895 9.77597 11.2562ZM5.82909 5.86777C4.98222 5.86777 4.40605 6.44667 4.40605 7.27753L4.40605 12.0525C4.40605 12.8896 4.98046 13.4525 5.82909 13.4525L6.70625 13.4525L7.74374 12.2883L6.04472 12.2883C5.80038 12.2883 5.62264 12.1186 5.62264 11.868L5.62264 7.47187C5.62264 7.21151 5.80038 7.02401 6.04472 7.02401L14.124 7.02401C14.3764 7.02401 14.5541 7.21151 14.5541 7.47187L14.5541 11.868C14.5541 12.1186 14.3764 12.2883 14.124 12.2883L12.433 12.2883L13.4545 13.4525L14.3316 13.4525C15.1785 13.4525 15.7689 12.8896 15.7689 12.0525L15.7689 7.27753C15.7689 6.44667 15.1768 5.86777 14.3316 5.86777Z" fill="white" fill-opacity="0.25"/>
 </g>
</svg>
