<?xml version="1.0" encoding="UTF-8"?>
<!--Generator: Apple Native CoreSVG 341-->
<!DOCTYPE svg
PUBLIC "-//W3C//DTD SVG 1.1//EN"
       "http://www.w3.org/Graphics/SVG/1.1/DTD/svg11.dtd">
<svg version="1.1" xmlns="http://www.w3.org/2000/svg" xmlns:xlink="http://www.w3.org/1999/xlink" viewBox="0 0 24.6447 12.2707">
 <g>
  <rect height="12.2707" opacity="0" width="24.6447" x="0" y="0"/>
  <path d="M19.2186 8.62713C19.9311 8.60936 20.5273 8.01932 20.5273 7.30858C20.5273 6.58456 19.9311 5.97499 19.2186 5.97499C18.5141 5.97499 17.9063 6.58456 17.9063 7.30858C17.9063 8.01932 18.5141 8.63866 19.2186 8.62713ZM3.20351 12.1615L21.0799 12.1615C23.1877 12.1615 24.2834 11.0738 24.2834 8.99002L24.2834 3.16347C24.2834 1.08769 23.1877 0 21.0799 0L3.20351 0C1.08769 0 0 1.07968 0 3.16347L0 8.99002C0 11.0818 1.08769 12.1615 3.20351 12.1615ZM3.31444 10.2482C2.40643 10.2482 1.91327 9.77987 1.91327 8.82928L1.91327 3.33222C1.91327 2.38163 2.40643 1.91327 3.31444 1.91327L20.9689 1.91327C21.8689 1.91327 22.3701 2.38163 22.3701 3.33222L22.3701 8.82928C22.3701 9.77987 21.8689 10.2482 20.9689 10.2482ZM23.1961 4.741L23.1961 3.40194L1.10507 3.40194L1.10507 4.741Z" fill="white" fill-opacity="0.25"/>
 </g>
</svg>
