<?xml version="1.0" encoding="UTF-8"?>
<!--Generator: Apple Native CoreSVG 341-->
<!DOCTYPE svg
PUBLIC "-//W3C//DTD SVG 1.1//EN"
       "http://www.w3.org/Graphics/SVG/1.1/DTD/svg11.dtd">
<svg version="1.1" xmlns="http://www.w3.org/2000/svg" xmlns:xlink="http://www.w3.org/1999/xlink" viewBox="0 0 10.8256 17.5672">
 <g>
  <rect height="17.5672" opacity="0" width="10.8256" x="0" y="0"/>
  <path d="M4.03867 10.01C6.99531 10.01 10.4643 7.25918 10.4643 4.58476C10.4643 1.97871 8.31269 0.0800788 6.27734 0.0800788C3.64199 0.0800788 0 2.84863 0 5.31445C0 7.64179 1.39355 10.01 4.03867 10.01ZM2.44101 8.2334C1.78593 7.94785 1.19921 6.34863 1.20722 5.36992C1.20722 5.00234 1.33867 4.77246 1.56328 4.77246C2.26211 4.77246 2.96172 6.76679 2.96172 7.72656C2.96172 8.09863 2.82578 8.42109 2.44101 8.2334ZM4.69844 5.54062C4.39492 5.11015 4.46679 4.51367 4.92656 4.19238L5.52968 3.76133C5.98144 3.44004 6.55663 3.56074 6.85839 3.99297C7.17968 4.42344 7.11933 5.00039 6.65781 5.33144L6.05644 5.75898C5.59492 6.08203 5.00644 5.97285 4.69844 5.54062ZM4.79238 10.9838L4.79238 16.0447C4.79238 17.2721 5.37441 17.5672 6.65976 17.5672C7.91152 17.5672 8.47851 17.2721 8.47851 16.0447L8.47851 9.51112C7.3664 10.2932 6.06875 10.8293 4.79238 10.9838Z" fill="white" fill-opacity="0.25"/>
 </g>
</svg>
