<?xml version="1.0" encoding="UTF-8"?>
<!--Generator: Apple Native CoreSVG 341-->
<!DOCTYPE svg
PUBLIC "-//W3C//DTD SVG 1.1//EN"
       "http://www.w3.org/Graphics/SVG/1.1/DTD/svg11.dtd">
<svg version="1.1" xmlns="http://www.w3.org/2000/svg" xmlns:xlink="http://www.w3.org/1999/xlink" viewBox="0 0 15.3988 19.8197">
 <g>
  <rect height="19.8197" opacity="0" width="15.3988" x="0" y="0"/>
  <path d="M10.4318 17.7052C10.4318 18.3722 9.99725 18.7374 9.32148 18.7374L8.54745 18.7374C7.86542 18.7374 7.41933 18.3722 7.41933 17.7052L7.41933 11.9471C7.45909 11.9157 7.49644 11.8812 7.53081 11.8433C8.72114 11.7661 9.65181 11.5607 10.4318 11.268Z" fill="white" fill-opacity="0.25"/>
  <path d="M13.9988 5.11181C13.9988 7.25947 12.7556 8.80556 11.0996 9.77548C10.3793 10.1925 9.53852 10.5139 8.34017 10.6763C8.55531 10.1812 8.67596 9.60884 8.67596 8.96474C8.67596 6.86587 6.95865 4.79685 4.63793 4.42598C4.81285 4.09596 4.99397 3.8166 5.12988 3.64072C6.37109 1.89365 8.26874 1.06104 9.99237 1.07881C12.2287 1.1001 13.9988 2.58818 13.9988 5.11181ZM11.2385 3.38564L9.86268 4.54209C9.64003 4.72217 9.61874 5.03623 9.79706 5.2624C9.97714 5.48857 10.3 5.51338 10.5164 5.32978L11.8967 4.17334C12.1211 3.9915 12.1326 3.67568 11.9543 3.46103C11.7805 3.23135 11.4531 3.20557 11.2385 3.38564Z" fill="white" fill-opacity="0.25"/>
  <path d="M4.68554 11.897C6.29686 11.897 7.6453 10.8839 7.6453 8.96474C7.6453 7.19971 5.98495 5.38975 3.88476 5.38975C2.10859 5.38975 1.03066 6.79053 1.03066 8.29091C1.03066 10.4364 2.85136 11.897 4.68554 11.897ZM4.2369 10.3739C3.92909 10.6392 3.44023 10.3686 2.85253 9.66298C2.27734 8.95732 2.10097 8.44716 2.40077 8.19697C2.72363 7.92021 3.19745 8.18271 3.78866 8.89814C4.35761 9.61806 4.54022 10.1185 4.2369 10.3739Z" fill="white" fill-opacity="0.25"/>
 </g>
</svg>
