<?xml version="1.0" encoding="UTF-8"?>
<!--Generator: Apple Native CoreSVG 341-->
<!DOCTYPE svg
PUBLIC "-//W3C//DTD SVG 1.1//EN"
       "http://www.w3.org/Graphics/SVG/1.1/DTD/svg11.dtd">
<svg version="1.1" xmlns="http://www.w3.org/2000/svg" xmlns:xlink="http://www.w3.org/1999/xlink" viewBox="0 0 19.1562 17.3398">
 <g>
  <rect height="17.3398" opacity="0" width="19.1562" x="0" y="0"/>
  <path d="M0.0648439 4.93866L4.98887 4.93866C5.15567 4.50448 5.58262 4.22929 6.0957 4.22929L12.6787 4.22929C13.1998 4.22929 13.6267 4.50448 13.7935 4.93866L18.7398 4.93866C18.3723 1.63379 16.3592 0 12.7033 0L6.10488 0C2.4375 0 0.432422 1.63379 0.0648439 4.93866ZM12.6849 6.60448L6.10996 6.60448C5.59688 6.60448 5.16992 6.32753 4.99512 5.8871L0 5.8871L0 11.2141C0 15.3047 2.02285 17.3336 6.10312 17.3336L12.6935 17.3336C16.7721 17.3336 18.7949 15.3047 18.7949 11.2141L18.7949 5.8871L13.8078 5.8871C13.6285 6.32753 13.2113 6.60448 12.6849 6.60448ZM9.39745 10.3922C8.88808 10.4019 8.4621 9.96795 8.4621 9.46659C8.4621 8.95546 8.88808 8.53925 9.39745 8.53925C9.90859 8.53925 10.3328 8.95546 10.3328 9.46659C10.3328 9.95194 9.90859 10.3744 9.39745 10.3922Z" fill="white" fill-opacity="0.25"/>
 </g>
</svg>
