<?xml version="1.0" encoding="UTF-8"?>
<!--Generator: Apple Native CoreSVG 341-->
<!DOCTYPE svg
PUBLIC "-//W3C//DTD SVG 1.1//EN"
       "http://www.w3.org/Graphics/SVG/1.1/DTD/svg11.dtd">
<svg version="1.1" xmlns="http://www.w3.org/2000/svg" xmlns:xlink="http://www.w3.org/1999/xlink" viewBox="0 0 29.7207 19.8197">
 <g>
  <rect height="19.8197" opacity="0" width="29.7207" x="0" y="0"/>
  <path d="M10.4398 17.7052C10.4398 18.3722 9.99725 18.7374 9.32148 18.7374L8.54745 18.7374C7.86542 18.7374 7.42734 18.3722 7.42734 17.7052L7.42734 11.9463C7.46678 11.915 7.50385 11.8808 7.53795 11.8432C8.72985 11.7658 9.65995 11.5596 10.4398 11.2656ZM21.8223 11.8433C21.8567 11.8811 21.894 11.9156 21.9338 11.947L21.9338 17.7052C21.9338 18.3722 21.4957 18.7374 20.8119 18.7374L20.0379 18.7374C19.3639 18.7374 18.9195 18.3722 18.9195 17.7052L18.9195 11.2653C19.6998 11.5595 20.63 11.7659 21.8223 11.8433Z" fill="white" fill-opacity="0.25"/>
  <path d="M14.0068 5.11181C14.0068 7.25947 12.7556 8.80556 11.0996 9.77548C10.3809 10.1915 9.5424 10.5124 8.34858 10.6752C8.5635 10.1804 8.68397 9.60836 8.68397 8.96474C8.68397 6.86474 6.95826 4.79464 4.64038 4.42538C4.81421 4.09563 4.99405 3.81649 5.12988 3.64072C6.37109 1.89365 8.27675 1.06104 9.99237 1.07881C12.2367 1.1001 14.0068 2.58818 14.0068 5.11181ZM24.2312 3.64072C24.3664 3.81649 24.5458 4.09563 24.7194 4.42538C22.4025 4.79463 20.6754 6.86474 20.6754 8.96474C20.6754 9.60834 20.796 10.1803 21.011 10.6752C19.8168 10.5124 18.9784 10.1915 18.2598 9.77548C16.6055 8.80556 15.3543 7.25947 15.3543 5.11181C15.3543 2.58818 17.1244 1.1001 19.3687 1.07881C21.0844 1.06104 22.9883 1.89365 24.2312 3.64072ZM11.2385 3.38564L9.86268 4.54209C9.64003 4.72217 9.61874 5.03623 9.79706 5.2624C9.97714 5.48857 10.308 5.51338 10.5164 5.32978L11.9047 4.17334C12.1291 3.9915 12.1406 3.67568 11.9543 3.46103C11.7805 3.23135 11.4611 3.20557 11.2385 3.38564ZM17.4051 3.46103C17.2187 3.67568 17.232 3.9915 17.4547 4.17334L18.843 5.32978C19.0514 5.51338 19.384 5.48857 19.5623 5.2624C19.7406 5.03623 19.7211 4.72217 19.4984 4.54209L18.1209 3.38564C17.8982 3.20557 17.5789 3.23135 17.4051 3.46103Z" fill="white" fill-opacity="0.25"/>
  <path d="M4.68554 11.897C6.29686 11.897 7.6453 10.8839 7.6453 8.96474C7.6453 7.19971 5.98495 5.38975 3.89277 5.38975C2.10859 5.38975 1.03867 6.79053 1.03867 8.29091C1.03867 10.4364 2.85136 11.897 4.68554 11.897ZM4.2369 10.3739C3.92909 10.6392 3.44023 10.3686 2.85253 9.66298C2.28535 8.95732 2.10898 8.44716 2.40077 8.19697C2.72363 7.92021 3.19745 8.18271 3.78866 8.89814C4.35761 9.61806 4.54022 10.1185 4.2369 10.3739ZM24.6756 11.897C26.5097 11.897 28.3224 10.4364 28.3224 8.29091C28.3224 6.79053 27.2508 5.38975 25.4666 5.38975C23.3762 5.38975 21.714 7.19971 21.714 8.96474C21.714 10.8839 23.0642 11.897 24.6756 11.897ZM25.1224 10.3739C24.8191 10.1185 25.0017 9.61806 25.5724 8.89814C26.1619 8.18271 26.6357 7.92021 26.9586 8.19697C27.2504 8.44716 27.0758 8.95732 26.5068 9.66298C25.9191 10.3686 25.4303 10.6392 25.1224 10.3739Z" fill="white" fill-opacity="0.25"/>
 </g>
</svg>
