<?xml version="1.0" encoding="UTF-8"?>
<!--Generator: Apple Native CoreSVG 341-->
<!DOCTYPE svg
PUBLIC "-//W3C//DTD SVG 1.1//EN"
       "http://www.w3.org/Graphics/SVG/1.1/DTD/svg11.dtd">
<svg version="1.1" xmlns="http://www.w3.org/2000/svg" xmlns:xlink="http://www.w3.org/1999/xlink" viewBox="0 0 20.5381 20.1848">
 <g>
  <rect height="20.1848" opacity="0" width="20.5381" x="0" y="0"/>
  <path d="M10.0875 20.175C15.6576 20.175 20.1767 15.6559 20.1767 10.0875C20.1767 4.51914 15.6576 0 10.0875 0C4.51914 0 0 4.51914 0 10.0875C0 15.6559 4.51914 20.175 10.0875 20.175ZM10.0875 18.1879C5.60839 18.1879 1.9871 14.5666 1.9871 10.0875C1.9871 5.60839 5.60839 1.9871 10.0875 1.9871C14.5666 1.9871 18.1897 5.60839 18.1897 10.0875C18.1897 14.5666 14.5666 18.1879 10.0875 18.1879Z" fill="white" fill-opacity="0.25"/>
  <path d="M12.8633 14.934C13.1943 14.934 13.3443 14.5701 13.1242 14.3287L10.3715 11.2137C10.2277 11.0389 9.94101 11.0406 9.77949 11.2137L7.01874 14.3287C6.80038 14.5701 6.96464 14.934 7.27968 14.934ZM14.1668 6.01835L5.97616 6.01835C5.16562 6.01835 4.61425 6.57597 4.61425 7.37851L4.61425 11.9684C4.61425 12.7709 5.16386 13.3187 5.97616 13.3187L6.8373 13.3187L7.82167 12.2094L6.18475 12.2094C5.94217 12.2094 5.77245 12.0414 5.77245 11.7926L5.77245 7.55604C5.77245 7.29745 5.94217 7.12772 6.18475 7.12772L13.968 7.12772C14.2186 7.12772 14.3883 7.29745 14.3883 7.55604L14.3883 11.7926C14.3883 12.0414 14.2186 12.2094 13.968 12.2094L12.3311 12.2094L13.3074 13.3187L14.1668 13.3187C14.9809 13.3187 15.5465 12.7709 15.5465 11.9684L15.5465 7.37851C15.5465 6.57597 14.9773 6.01835 14.1668 6.01835Z" fill="white" fill-opacity="0.25"/>
 </g>
</svg>
