<?xml version="1.0" encoding="UTF-8"?>
<!--Generator: Apple Native CoreSVG 341-->
<!DOCTYPE svg
PUBLIC "-//W3C//DTD SVG 1.1//EN"
       "http://www.w3.org/Graphics/SVG/1.1/DTD/svg11.dtd">
<svg version="1.1" xmlns="http://www.w3.org/2000/svg" xmlns:xlink="http://www.w3.org/1999/xlink" viewBox="0 0 16.9217 21.1941">
 <g>
  <rect height="21.1941" opacity="0" width="16.9217" x="0" y="0"/>
  <path d="M3.23691 21.1941L13.3234 21.1941C15.4629 21.1941 16.5603 20.1162 16.5603 18.006L16.5603 3.26757C16.5603 1.15742 15.4629 0.0714827 13.3234 0.0714827L3.23691 0.0714827C1.09746 0.0714827 0 1.15742 0 3.26757L0 18.006C0 20.1162 1.09746 21.1941 3.23691 21.1941ZM3.2582 19.2809C2.39061 19.2809 1.91327 18.8195 1.91327 17.9164L1.91327 3.35898C1.91327 2.45409 2.39061 1.98651 3.2582 1.98651L13.3039 1.98651C14.1617 1.98651 14.6471 2.45409 14.6471 3.35898L14.6471 17.9164C14.6471 18.8195 14.1617 19.2809 13.3039 19.2809ZM0.328901 7.56034L4.07382 7.56034C5.62342 7.56034 6.39901 6.79628 6.39901 5.27597L6.39901 0.571084L5.05917 0.571084L5.05917 5.19257C5.05917 5.85175 4.69218 6.2205 4.04452 6.2205L0.328901 6.2205Z" fill="white" fill-opacity="0.25"/>
 </g>
</svg>
