<?xml version="1.0" encoding="UTF-8"?>
<!--Generator: Apple Native CoreSVG 341-->
<!DOCTYPE svg
PUBLIC "-//W3C//DTD SVG 1.1//EN"
       "http://www.w3.org/Graphics/SVG/1.1/DTD/svg11.dtd">
<svg version="1.1" xmlns="http://www.w3.org/2000/svg" xmlns:xlink="http://www.w3.org/1999/xlink" viewBox="0 0 41.3045 17.3433">
 <g>
  <rect height="17.3433" opacity="0" width="41.3045" x="0" y="0"/>
  <path d="M3.86796 15.3412C4.1998 14.958 4.09687 14.4656 3.72597 14.0459C2.45429 12.6348 1.74296 10.74 1.74296 8.66679C1.74296 6.59531 2.45253 4.69882 3.72597 3.28944C4.09863 2.86972 4.20332 2.37734 3.86796 1.99413C3.52734 1.58789 2.92949 1.57304 2.49863 2.0412C0.910938 3.75507 0 6.13222 0 8.66679C0 11.2049 0.886329 13.5582 2.49863 15.2941C2.93301 15.7605 3.5291 15.7412 3.86796 15.3412ZM37.0752 15.3412C37.4158 15.7412 38.0101 15.7605 38.4525 15.2941C40.0666 13.5582 40.9431 11.2049 40.9431 8.66679C40.9431 6.13222 40.042 3.75507 38.4525 2.0412C38.0154 1.57304 37.4176 1.58789 37.0752 1.99413C36.7416 2.37734 36.8463 2.86972 37.2189 3.28944C38.4941 4.70058 39.2002 6.59531 39.2002 8.66679C39.2002 10.74 38.4888 12.6348 37.2189 14.0459C36.848 14.4656 36.7433 14.958 37.0752 15.3412Z" fill="white" fill-opacity="0.25"/>
  <path d="M6.71659 12.5422C7.03964 12.1625 6.9162 11.6914 6.59316 11.2521C6.05292 10.5689 5.76796 9.63144 5.76796 8.66679C5.76796 7.70214 6.05292 6.75487 6.59316 6.07792C6.91444 5.64042 7.03964 5.17109 6.71659 4.78964C6.37323 4.37988 5.73105 4.37285 5.33476 4.85097C4.49746 5.86699 4.025 7.21894 4.025 8.66679C4.025 10.1146 4.49746 11.4666 5.33476 12.4791C5.73105 12.959 6.37323 12.9439 6.71659 12.5422ZM34.2283 12.5422C34.5699 12.9439 35.2121 12.959 35.6084 12.4791C36.4474 11.4666 36.9261 10.1146 36.9261 8.66679C36.9261 7.21894 36.4474 5.86699 35.6084 4.85097C35.2121 4.37285 34.5699 4.37988 34.2283 4.78964C33.9035 5.17109 34.0287 5.64042 34.35 6.07792C34.8902 6.75487 35.1832 7.70214 35.1832 8.66679C35.1832 9.63144 34.8902 10.5689 34.35 11.2521C34.0269 11.6914 33.9035 12.1625 34.2283 12.5422Z" fill="white" fill-opacity="0.25"/>
  <path d="M15.2615 17.3336L25.6816 17.3336C29.7531 17.3336 31.7043 15.3984 31.7043 11.3447L31.7043 6.69726L25.5469 6.69726C25.3676 7.13144 24.9504 7.41464 24.4258 7.41464L16.5174 7.41464C16.006 7.41464 15.5773 7.13144 15.4123 6.69726L9.24062 6.69726L9.24062 11.3447C9.24062 15.3984 11.19 17.3336 15.2615 17.3336ZM20.4756 11.1705C19.9599 11.1803 19.5402 10.7525 19.5402 10.2529C19.5402 9.74179 19.9599 9.31757 20.4756 9.31757C20.9867 9.31757 21.4029 9.74179 21.4029 10.2529C21.4029 10.7365 20.9867 11.1607 20.4756 11.1705ZM9.24062 5.74882L15.3963 5.74882C15.5613 5.30663 15.9883 5.03144 16.5014 5.03144L24.4178 5.03144C24.9308 5.03144 25.3578 5.30663 25.5308 5.74882L31.6785 5.74882L31.6785 5.46093C31.6785 1.77344 29.5664 0 25.6576 0L15.2615 0C11.3527 0 9.24062 1.77344 9.24062 5.46093Z" fill="white" fill-opacity="0.25"/>
 </g>
</svg>
