<?xml version="1.0" encoding="UTF-8"?>
<!--Generator: Apple Native CoreSVG 341-->
<!DOCTYPE svg
PUBLIC "-//W3C//DTD SVG 1.1//EN"
       "http://www.w3.org/Graphics/SVG/1.1/DTD/svg11.dtd">
<svg version="1.1" xmlns="http://www.w3.org/2000/svg" xmlns:xlink="http://www.w3.org/1999/xlink" viewBox="0 0 9.17823 19.5379">
 <g>
  <rect height="19.5379" opacity="0" width="9.17823" x="0" y="0"/>
  <path d="M4.37027 8.20643C6.44878 8.17889 7.84624 6.95331 8.506 5.92909C8.71186 5.59726 8.81655 5.23085 8.81655 4.83242L8.81655 3.37753C8.81655 2.97207 8.71811 2.60215 8.50425 2.27383C7.80386 1.23906 6.44351 0 4.37027 0C2.00425 0 0.0331638 1.84062 0.000351427 4.08769C-0.0307032 6.3623 2.00074 8.22772 4.37027 8.20643ZM6.89331 5.72753C6.61206 5.72753 6.39644 5.51015 6.39644 5.23066L6.39644 2.96777C6.39644 2.68828 6.61206 2.4709 6.89331 2.4709C7.17105 2.4709 7.37866 2.68828 7.37866 2.96777L7.37866 5.23066C7.37866 5.51015 7.17105 5.72753 6.89331 5.72753ZM3.96538 16.1857L3.96538 9.22108C2.85738 9.15526 1.82476 8.7576 0.98121 8.11092L0.98121 16.1857ZM2.89761 19.5121C3.54683 19.5121 3.96538 19.1681 3.96538 18.534L3.96538 17.2502L0.98121 17.2502L0.98121 18.534C0.98121 19.1681 1.39625 19.5121 2.05699 19.5121Z" fill="white" fill-opacity="0.25"/>
 </g>
</svg>
