<?xml version="1.0" encoding="UTF-8"?>
<!--Generator: Apple Native CoreSVG 341-->
<!DOCTYPE svg
PUBLIC "-//W3C//DTD SVG 1.1//EN"
       "http://www.w3.org/Graphics/SVG/1.1/DTD/svg11.dtd">
<svg version="1.1" xmlns="http://www.w3.org/2000/svg" xmlns:xlink="http://www.w3.org/1999/xlink" viewBox="0 0 22.817 17.3433">
 <g>
  <rect height="17.3433" opacity="0" width="22.817" x="0" y="0"/>
  <path d="M6.01289 17.3336L16.4428 17.3336C20.5142 17.3336 22.4556 15.3984 22.4556 11.3447L22.4556 6.69726L16.3 6.69726C16.1269 7.13144 15.7115 7.41464 15.1851 7.41464L7.27851 7.41464C6.76542 7.41464 6.33046 7.13144 6.16367 6.69726L0 6.69726L0 11.3447C0 15.3984 1.94941 17.3336 6.01289 17.3336ZM11.2287 11.1705C10.7193 11.1803 10.2996 10.7525 10.2996 10.2529C10.2996 9.74179 10.7193 9.31757 11.2287 9.31757C11.7381 9.31757 12.1641 9.74179 12.1641 10.2529C12.1641 10.7365 11.7381 11.1607 11.2287 11.1705ZM0 5.74882L6.14765 5.74882C6.31445 5.30663 6.74941 5.03144 7.26249 5.03144L15.1771 5.03144C15.6902 5.03144 16.1172 5.30663 16.284 5.74882L22.4316 5.74882L22.4316 5.46093C22.4316 1.77344 20.3275 0 16.4187 0L6.01289 0C2.11211 0 0 1.77344 0 5.46093Z" fill="white" fill-opacity="0.25"/>
 </g>
</svg>
