<?xml version="1.0" encoding="UTF-8"?>
<!--Generator: Apple Native CoreSVG 341-->
<!DOCTYPE svg
PUBLIC "-//W3C//DTD SVG 1.1//EN"
       "http://www.w3.org/Graphics/SVG/1.1/DTD/svg11.dtd">
<svg version="1.1" xmlns="http://www.w3.org/2000/svg" xmlns:xlink="http://www.w3.org/1999/xlink" viewBox="0 0 20.257 19.5379">
 <g>
  <rect height="19.5379" opacity="0" width="20.257" x="0" y="0"/>
  <path d="M4.44628 8.20643C6.81581 8.22772 8.84725 6.3623 8.8162 4.08769C8.78339 1.84062 6.81054 0 4.44628 0C2.37304 0 1.0207 1.23906 0.312304 2.27383C0.0984371 2.60215 0 2.97207 0 3.37753L0 4.83242C0 5.23085 0.104687 5.59726 0.310546 5.92909C0.978317 6.95331 2.36601 8.17889 4.44628 8.20643ZM1.92324 5.72753C1.65351 5.72753 1.43613 5.51015 1.43613 5.23066L1.43613 2.96777C1.43613 2.68828 1.65351 2.4709 1.92324 2.4709C2.21249 2.4709 2.42011 2.68828 2.42011 2.96777L2.42011 5.23066C2.42011 5.51015 2.21249 5.72753 1.92324 5.72753ZM4.85117 16.1857L7.83534 16.1857L7.83534 8.11092C6.99179 8.7576 5.95917 9.15526 4.85117 9.22108ZM5.91894 19.5121L6.75956 19.5121C7.4203 19.5121 7.83534 19.1681 7.83534 18.534L7.83534 17.2502L4.85117 17.2502L4.85117 18.534C4.85117 19.1681 5.27773 19.5121 5.91894 19.5121ZM15.4512 8.20643C17.5297 8.17889 18.9271 6.95331 19.5851 5.92909C19.7928 5.59726 19.8957 5.23085 19.8957 4.83242L19.8957 3.37753C19.8957 2.97207 19.799 2.60215 19.5834 2.27383C18.883 1.23906 17.5244 0 15.4512 0C13.0851 0 11.1141 1.84062 11.0812 4.08769C11.0502 6.3623 13.0816 8.22772 15.4512 8.20643ZM17.9724 5.72753C17.6849 5.72753 17.4756 5.51015 17.4756 5.23066L17.4756 2.96777C17.4756 2.68828 17.6849 2.4709 17.9724 2.4709C18.2422 2.4709 18.4596 2.68828 18.4596 2.96777L18.4596 5.23066C18.4596 5.51015 18.2422 5.72753 17.9724 5.72753ZM15.0463 16.1857L15.0463 9.22108C13.9383 9.15526 12.9057 8.7576 12.0603 8.11092L12.0603 16.1857ZM13.9785 19.5121C14.618 19.5121 15.0463 19.1681 15.0463 18.534L15.0463 17.2502L12.0603 17.2502L12.0603 18.534C12.0603 19.1681 12.4771 19.5121 13.1361 19.5121Z" fill="white" fill-opacity="0.25"/>
 </g>
</svg>
