<?xml version="1.0" encoding="UTF-8"?>
<!--Generator: Apple Native CoreSVG 341-->
<!DOCTYPE svg
PUBLIC "-//W3C//DTD SVG 1.1//EN"
       "http://www.w3.org/Graphics/SVG/1.1/DTD/svg11.dtd">
<svg version="1.1" xmlns="http://www.w3.org/2000/svg" xmlns:xlink="http://www.w3.org/1999/xlink" viewBox="0 0 16.6691 19.7453">
 <g>
  <rect height="19.7453" opacity="0" width="16.6691" x="0" y="0"/>
  <path d="M5.03437 19.739L11.2734 19.739C14.6605 19.739 16.3078 18.0935 16.3078 14.7064L16.3078 6.67968L12.0346 6.67968C11.857 7.06327 11.4433 7.33495 10.924 7.33495L5.38203 7.33495C4.88398 7.33495 4.46054 7.06327 4.28124 6.67968L0 6.67968L0 14.7064C0 18.0935 1.64726 19.739 5.03437 19.739ZM0 5.65117L4.28124 5.65117C4.46054 5.25253 4.88398 4.98085 5.38203 4.98085L10.924 4.98085C11.4433 4.98085 11.857 5.25253 12.0346 5.65117L16.3078 5.65117L16.3078 5.03261C16.3078 1.64551 14.6605 0 11.2734 0L5.03437 0C1.64726 0 0 1.64551 0 5.03261Z" fill="white" fill-opacity="0.25"/>
 </g>
</svg>
