<?xml version="1.0" encoding="UTF-8"?>
<!--Generator: Apple Native CoreSVG 341-->
<!DOCTYPE svg
PUBLIC "-//W3C//DTD SVG 1.1//EN"
       "http://www.w3.org/Graphics/SVG/1.1/DTD/svg11.dtd">
<svg version="1.1" xmlns="http://www.w3.org/2000/svg" xmlns:xlink="http://www.w3.org/1999/xlink" viewBox="0 0 20.4949 20.1434">
 <g>
  <rect height="20.1434" opacity="0" width="20.4949" x="0" y="0"/>
  <path d="M0 10.0668C0 12.8434 1.13945 15.3588 2.9627 17.1654C3.1045 17.3143 3.29043 17.3125 3.42598 17.1557L3.88848 16.6408C4.01348 16.4963 4.00547 16.3457 3.87422 16.2074C2.30742 14.635 1.32499 12.4557 1.32499 10.0668C1.32499 5.29902 5.27773 1.33476 10.0668 1.33476C14.8559 1.33476 18.8086 5.29902 18.8086 10.0668C18.8086 12.4521 17.8182 14.635 16.2531 16.2057C16.1201 16.3439 16.1121 16.4928 16.2371 16.6488L16.6996 17.1637C16.8351 17.3187 17.0131 17.3223 17.1549 17.1734C18.9861 15.3668 20.1336 12.8434 20.1336 10.0668C20.1336 4.55137 15.6213 0 10.0668 0C4.5123 0 0 4.55137 0 10.0668Z" fill="white" fill-opacity="0.25"/>
  <path d="M2.8418 10.0668C2.8418 11.992 3.6084 13.7227 4.84747 15.018C4.98926 15.1818 5.18672 15.1703 5.32402 15.0197L5.78203 14.5111C5.91777 14.3684 5.90176 14.215 5.77754 14.0688C4.78515 13.0289 4.17656 11.6158 4.17656 10.0668C4.17656 6.84199 6.83222 4.17656 10.0668 4.17656C13.3014 4.17656 15.957 6.84199 15.957 10.0668C15.957 11.6176 15.3422 13.0369 14.348 14.067C14.2221 14.2133 14.2078 14.3684 14.3435 14.5111L14.8096 15.0277C14.9469 15.1801 15.1363 15.1898 15.2781 15.026C16.5252 13.7307 17.2918 11.992 17.2918 10.0668C17.2918 6.1041 14.049 2.8418 10.0668 2.8418C6.08457 2.8418 2.8418 6.1041 2.8418 10.0668Z" fill="white" fill-opacity="0.25"/>
  <path d="M5.68359 10.0668C5.68359 11.1291 6.08262 12.099 6.73575 12.8449C6.8625 13.0131 7.06602 13.0131 7.21484 12.8475L7.69238 12.3434C7.81484 12.2156 7.80859 12.0711 7.7207 11.9301C7.28242 11.4344 7.01835 10.7715 7.01835 10.0668C7.01835 8.40449 8.40449 7.01835 10.0668 7.01835C11.7291 7.01835 13.1152 8.40449 13.1152 10.0668C13.1152 10.7812 12.8512 11.4424 12.4049 11.9381C12.309 12.0791 12.3027 12.2236 12.4332 12.3514L12.9107 12.8572C13.0596 13.0229 13.2551 13.0211 13.3818 12.8449C14.051 12.107 14.45 11.1371 14.45 10.0668C14.45 7.6666 12.4768 5.68359 10.0668 5.68359C7.65683 5.68359 5.68359 7.6666 5.68359 10.0668Z" fill="white" fill-opacity="0.25"/>
  <path d="M4.01113 19.8016L16.1064 19.8016C16.5848 19.8016 16.7676 19.3037 16.4703 18.9656L10.4963 12.2043C10.2629 11.9416 9.85469 11.9416 9.62129 12.2043L3.65527 18.9656C3.35 19.3117 3.53281 19.8016 4.01113 19.8016Z" fill="white" fill-opacity="0.25"/>
 </g>
</svg>
