<?xml version="1.0" encoding="UTF-8"?>
<!--Generator: Apple Native CoreSVG 341-->
<!DOCTYPE svg
PUBLIC "-//W3C//DTD SVG 1.1//EN"
       "http://www.w3.org/Graphics/SVG/1.1/DTD/svg11.dtd">
<svg version="1.1" xmlns="http://www.w3.org/2000/svg" xmlns:xlink="http://www.w3.org/1999/xlink" viewBox="0 0 16.6691 19.7453">
 <g>
  <rect height="19.7453" opacity="0" width="16.6691" x="0" y="0"/>
  <path d="M5.03437 19.739L11.2734 19.739C14.6605 19.739 16.3078 18.0935 16.3078 14.7064L16.3078 5.03261C16.3078 1.64551 14.6605 0 11.2734 0L5.03437 0C1.64726 0 0 1.64551 0 5.03261L0 14.7064C0 18.0935 1.64726 19.739 5.03437 19.739ZM5.03437 17.8469C2.84979 17.8469 1.89217 16.891 1.89217 14.7064L1.89217 5.03261C1.89217 2.84804 2.84979 1.89217 5.03437 1.89217L11.2734 1.89217C13.458 1.89217 14.4139 2.84804 14.4139 5.03261L14.4139 14.7064C14.4139 16.891 13.458 17.8469 11.2734 17.8469ZM0.95097 6.67792L15.3568 6.67792L15.3568 5.64589L0.95097 5.64589ZM5.38203 7.33495L10.924 7.33495C11.6066 7.33495 12.1117 6.85117 12.1117 6.15878C12.1117 5.46464 11.6066 4.98085 10.924 4.98085L5.38203 4.98085C4.72871 4.98085 4.19433 5.46464 4.19433 6.15878C4.19433 6.85117 4.72871 7.33495 5.38203 7.33495Z" fill="white" fill-opacity="0.25"/>
 </g>
</svg>
