<?xml version="1.0" encoding="UTF-8"?>
<!--Generator: Apple Native CoreSVG 341-->
<!DOCTYPE svg
PUBLIC "-//W3C//DTD SVG 1.1//EN"
       "http://www.w3.org/Graphics/SVG/1.1/DTD/svg11.dtd">
<svg version="1.1" xmlns="http://www.w3.org/2000/svg" xmlns:xlink="http://www.w3.org/1999/xlink" viewBox="0 0 41.3045 17.3398">
 <g>
  <rect height="17.3398" opacity="0" width="41.3045" x="0" y="0"/>
  <path d="M3.86796 15.3394C4.1998 14.9562 4.09687 14.4639 3.72597 14.0441C2.45429 12.633 1.74296 10.7383 1.74296 8.66503C1.74296 6.59355 2.45253 4.69706 3.72597 3.28769C4.09863 2.86796 4.20332 2.37558 3.86796 1.99238C3.52734 1.58613 2.92949 1.57129 2.49863 2.03945C0.910938 3.75332 0 6.13046 0 8.66503C0 11.2031 0.886329 13.5564 2.49863 15.2924C2.93301 15.7588 3.5291 15.7394 3.86796 15.3394ZM37.0752 15.3394C37.4158 15.7394 38.0101 15.7588 38.4525 15.2924C40.0666 13.5564 40.9431 11.2031 40.9431 8.66503C40.9431 6.13046 40.042 3.75332 38.4525 2.03945C38.0154 1.57129 37.4176 1.58613 37.0752 1.99238C36.7416 2.37558 36.8463 2.86796 37.2189 3.28769C38.4941 4.69882 39.2002 6.59355 39.2002 8.66503C39.2002 10.7383 38.4888 12.633 37.2189 14.0441C36.848 14.4639 36.7433 14.9562 37.0752 15.3394Z" fill="white" fill-opacity="0.25"/>
  <path d="M6.71659 12.5404C7.03964 12.1607 6.9162 11.6896 6.59316 11.2504C6.05292 10.5672 5.76796 9.62968 5.76796 8.66503C5.76796 7.70038 6.05292 6.75312 6.59316 6.07616C6.91444 5.63866 7.03964 5.16933 6.71659 4.78788C6.37323 4.37812 5.73105 4.37109 5.33476 4.84921C4.49746 5.86523 4.025 7.21718 4.025 8.66503C4.025 10.1129 4.49746 11.4648 5.33476 12.4773C5.73105 12.9572 6.37323 12.9422 6.71659 12.5404ZM34.2283 12.5404C34.5699 12.9422 35.2121 12.9572 35.6084 12.4773C36.4474 11.4648 36.9261 10.1129 36.9261 8.66503C36.9261 7.21718 36.4474 5.86523 35.6084 4.84921C35.2121 4.37109 34.5699 4.37812 34.2283 4.78788C33.9035 5.16933 34.0287 5.63866 34.35 6.07616C34.8902 6.75312 35.1832 7.70038 35.1832 8.66503C35.1832 9.62968 34.8902 10.5672 34.35 11.2504C34.0269 11.6896 33.9035 12.1607 34.2283 12.5404Z" fill="white" fill-opacity="0.25"/>
  <path d="M15.2615 17.3336L25.6816 17.3336C29.7531 17.3336 31.7043 15.4002 31.7043 11.3447L31.7043 5.98886C31.7043 1.9334 29.7531 0 25.6816 0L15.2615 0C11.19 0 9.24062 1.9334 9.24062 5.98886L9.24062 11.3447C9.24062 15.4002 11.19 17.3336 15.2615 17.3336ZM15.2615 15.4203C12.426 15.4203 11.1539 14.1562 11.1539 11.3447L11.1539 5.98886C11.1539 3.17733 12.426 1.91327 15.2615 1.91327L25.6816 1.91327C28.5189 1.91327 29.791 3.17733 29.791 5.98886L29.791 11.3447C29.791 14.1562 28.5189 15.4203 25.6816 15.4203ZM10.2084 6.73905L30.7348 6.73905L30.7348 5.70703L10.2084 5.70703ZM16.5174 7.41464L24.4258 7.41464C25.1234 7.41464 25.624 6.92734 25.624 6.21992C25.624 5.5205 25.1234 5.03144 24.4258 5.03144L16.5174 5.03144C15.841 5.03144 15.3209 5.5205 15.3209 6.21992C15.3209 6.92734 15.841 7.41464 16.5174 7.41464ZM20.4756 10.801C21.0107 10.7912 21.4447 10.351 21.4447 9.84335C21.4447 9.3082 21.0107 8.8662 20.4756 8.8662C19.9342 8.8662 19.4984 9.3082 19.4984 9.84335C19.4984 10.3687 19.9342 10.8125 20.4756 10.801Z" fill="white" fill-opacity="0.25"/>
 </g>
</svg>
