<?xml version="1.0" encoding="UTF-8"?>
<!--Generator: Apple Native CoreSVG 341-->
<!DOCTYPE svg
PUBLIC "-//W3C//DTD SVG 1.1//EN"
       "http://www.w3.org/Graphics/SVG/1.1/DTD/svg11.dtd">
<svg version="1.1" xmlns="http://www.w3.org/2000/svg" xmlns:xlink="http://www.w3.org/1999/xlink" viewBox="0 0 23.5402 21.5699">
 <g>
  <rect height="21.5699" opacity="0" width="23.5402" x="0" y="0"/>
  <path d="M23.1789 4.06015L23.1789 14.0269C23.1789 15.6992 22.1586 16.7195 20.4863 16.7195L17.5249 16.7195L15.8743 14.8519L20.3762 14.8519C20.9658 14.8519 21.3113 14.5152 21.3113 13.9248L21.3113 4.1703C21.3113 3.57186 20.9658 3.2369 20.3762 3.2369L2.80272 3.2369C2.21307 3.2369 1.86757 3.57186 1.86757 4.1703L1.86757 13.9248C1.86757 14.5152 2.21307 14.8519 2.80272 14.8519L7.31256 14.8519L5.66203 16.7195L2.69257 16.7195C1.02031 16.7195 0 15.6992 0 14.0269L0 4.06015C0 2.38789 1.02031 1.36758 2.69257 1.36758L20.4863 1.36758C22.1586 1.36758 23.1789 2.38789 23.1789 4.06015Z" fill="white" fill-opacity="0.25"/>
  <path d="M17.642 20.1846C18.1203 20.1846 18.3031 19.693 17.9978 19.3469L12.0318 12.5873C11.7984 12.3228 11.3885 12.3228 11.1551 12.5873L5.18906 19.3469C4.88554 19.693 5.0666 20.1846 5.54668 20.1846Z" fill="white" fill-opacity="0.25"/>
 </g>
</svg>
