<?xml version="1.0" encoding="UTF-8"?>
<!--Generator: Apple Native CoreSVG 341-->
<!DOCTYPE svg
PUBLIC "-//W3C//DTD SVG 1.1//EN"
       "http://www.w3.org/Graphics/SVG/1.1/DTD/svg11.dtd">
<svg version="1.1" xmlns="http://www.w3.org/2000/svg" xmlns:xlink="http://www.w3.org/1999/xlink" viewBox="0 0 11.3605 17.466">
 <g>
  <rect height="17.466" opacity="0" width="11.3605" x="0" y="0"/>
  <path d="M6.68476 0.0630862C3.61914 0.0595707 0 3.10664 0 6.05273C0 8.48671 2.44277 10.4568 4.45293 10.4453C7.2371 10.4355 10.9992 7.23574 10.9992 4.57285C10.9992 1.99961 9.01093 0.0648439 6.68476 0.0630862ZM3.54453 9.008C2.98886 9.008 2.1332 8.31035 1.59707 7.44492C1.0707 6.56172 1.09199 5.87558 1.64765 5.87558C2.19179 5.87558 3.05546 6.56172 3.58535 7.44492C4.11171 8.31035 4.09218 9.008 3.54453 9.008ZM6.25859 4.64902C5.93906 4.20253 6.05 3.60254 6.48671 3.29277L7.84941 2.30468C8.27812 1.98515 8.88613 2.09609 9.18613 2.54257C9.52343 2.98281 9.42753 3.56152 8.98554 3.88906L7.62636 4.85937C7.16835 5.18867 6.55859 5.08925 6.25859 4.64902ZM7.17207 17.466L8.37168 17.466C9.0457 17.466 9.49003 17.1025 9.49003 16.4435L9.49003 9.25233C8.47499 10.1574 7.2666 10.8674 6.05195 11.2164L6.05195 16.4435C6.05195 17.1025 6.49004 17.466 7.17207 17.466Z" fill="white" fill-opacity="0.25"/>
 </g>
</svg>
