<?xml version="1.0" encoding="UTF-8"?>
<!--Generator: Apple Native CoreSVG 341-->
<!DOCTYPE svg
PUBLIC "-//W3C//DTD SVG 1.1//EN"
       "http://www.w3.org/Graphics/SVG/1.1/DTD/svg11.dtd">
<svg version="1.1" xmlns="http://www.w3.org/2000/svg" xmlns:xlink="http://www.w3.org/1999/xlink" viewBox="0 0 10.8256 17.5672">
 <g>
  <rect height="17.5672" opacity="0" width="10.8256" x="0" y="0"/>
  <path d="M6.42558 10.01C9.0707 10.01 10.4643 7.64179 10.4643 5.31445C10.4643 2.84863 6.82226 0.0800788 4.18691 0.0800788C2.15156 0.0800788 0 1.97871 0 4.58476C0 7.25918 3.46094 10.01 6.42558 10.01ZM8.02324 8.2334C7.63847 8.42109 7.50253 8.09863 7.50253 7.72656C7.50253 6.76679 8.20214 4.77246 8.90097 4.77246C9.12558 4.77246 9.24902 5.00234 9.24902 5.36992C9.26504 6.34863 8.67832 7.94785 8.02324 8.2334ZM5.76582 5.54062C5.45781 5.97285 4.86933 6.08203 4.40605 5.75898L3.80644 5.33144C3.34492 5.00039 3.27656 4.42344 3.60586 3.99297C3.90762 3.56074 4.4748 3.44004 4.93457 3.76133L5.53769 4.19238C5.99746 4.51367 6.06933 5.11015 5.76582 5.54062ZM5.67187 10.9838C4.3955 10.8293 3.09785 10.2932 1.98574 9.51112L1.98574 16.0447C1.98574 17.2721 2.55273 17.5672 3.80449 17.5672C5.08984 17.5672 5.67187 17.2721 5.67187 16.0447Z" fill="white" fill-opacity="0.25"/>
 </g>
</svg>
