<?xml version="1.0" encoding="UTF-8"?>
<!--Generator: Apple Native CoreSVG 341-->
<!DOCTYPE svg
PUBLIC "-//W3C//DTD SVG 1.1//EN"
       "http://www.w3.org/Graphics/SVG/1.1/DTD/svg11.dtd">
<svg version="1.1" xmlns="http://www.w3.org/2000/svg" xmlns:xlink="http://www.w3.org/1999/xlink" viewBox="0 0 20.5381 20.1848">
 <g>
  <rect height="20.1848" opacity="0" width="20.5381" x="0" y="0"/>
  <path d="M10.0875 20.175C15.6576 20.175 20.1767 15.6559 20.1767 10.0875C20.1767 4.51914 15.6576 0 10.0875 0C4.51914 0 0 4.51914 0 10.0875C0 15.6559 4.51914 20.175 10.0875 20.175ZM10.0875 18.1879C5.60839 18.1879 1.9871 14.5666 1.9871 10.0875C1.9871 5.60839 5.60839 1.9871 10.0875 1.9871C14.5666 1.9871 18.1897 5.60839 18.1897 10.0875C18.1897 14.5666 14.5666 18.1879 10.0875 18.1879Z" fill="white" fill-opacity="0.25"/>
  <path d="M10.0875 5.14902C7.37675 5.14902 5.16679 7.37851 5.16679 10.0875C5.16679 11.391 5.66406 12.6209 6.57617 13.5311L7.11581 12.9311C6.38749 12.1611 5.97362 11.1434 5.97362 10.0875C5.97362 7.82675 7.83476 5.95761 10.0875 5.95761C12.3482 5.95761 14.2174 7.82675 14.2174 10.0875C14.2174 11.1434 13.7937 12.1611 13.0609 12.9311L13.6006 13.5311C14.5127 12.6209 15.026 11.391 15.026 10.0875C15.026 7.37851 12.7982 5.14902 10.0875 5.14902Z" fill="white" fill-opacity="0.25"/>
  <path d="M10.0875 6.5164C8.12792 6.5164 6.53417 8.12792 6.53417 10.0875C6.53417 10.9924 6.86718 11.8404 7.48183 12.51L8.02148 11.8922C7.58261 11.3922 7.35077 10.7562 7.35077 10.0875C7.35077 8.57617 8.58417 7.333 10.0875 7.333C11.5926 7.333 12.834 8.57617 12.834 10.0875C12.834 10.7562 12.5941 11.4002 12.1455 11.8842L12.6949 12.51C13.3176 11.8342 13.6506 10.9924 13.6506 10.0875C13.6506 8.12792 12.0471 6.5164 10.0875 6.5164Z" fill="white" fill-opacity="0.25"/>
  <path d="M10.0875 7.88203C8.8871 7.88203 7.89179 8.8871 7.89179 10.0875C7.89179 10.615 8.07656 11.0875 8.39726 11.4791L8.95644 10.8463C8.79374 10.618 8.70663 10.3496 8.70663 10.0875C8.70663 9.32558 9.32734 8.69863 10.0875 8.69863C10.8494 8.69863 11.4764 9.32558 11.4764 10.0875C11.4764 10.3496 11.3812 10.6197 11.2168 10.84L11.7777 11.4711C12.1002 11.0893 12.293 10.607 12.293 10.0875C12.293 8.8871 11.2879 7.88203 10.0875 7.88203Z" fill="white" fill-opacity="0.25"/>
  <path d="M7.29745 14.902L12.8793 14.902C13.2103 14.902 13.3603 14.5381 13.142 14.2967L10.3893 11.1799C10.2437 11.0068 9.95703 11.0086 9.7955 11.1799L7.03476 14.2967C6.8164 14.5381 6.98241 14.902 7.29745 14.902Z" fill="white" fill-opacity="0.25"/>
 </g>
</svg>
