<?xml version="1.0" encoding="UTF-8"?>
<!--Generator: Apple Native CoreSVG 341-->
<!DOCTYPE svg
PUBLIC "-//W3C//DTD SVG 1.1//EN"
       "http://www.w3.org/Graphics/SVG/1.1/DTD/svg11.dtd">
<svg version="1.1" xmlns="http://www.w3.org/2000/svg" xmlns:xlink="http://www.w3.org/1999/xlink" viewBox="0 0 27.1902 17.7734">
 <g>
  <rect height="17.7734" opacity="0" width="27.1902" x="0" y="0"/>
  <path d="M22.9511 15.5562C23.2998 15.9562 23.8879 15.9756 24.3302 15.5092C25.9425 13.7732 26.8289 11.4199 26.8289 8.88182C26.8289 6.34725 25.9179 3.97011 24.3302 2.25624C23.8914 1.78808 23.3015 1.80292 22.9511 2.20917C22.6176 2.59237 22.7222 3.08475 23.1029 3.50448C24.3781 4.91561 25.0859 6.81034 25.0859 8.88182C25.0859 10.9551 24.3728 12.8498 23.1029 14.2609C22.724 14.6807 22.6193 15.173 22.9511 15.5562Z" fill="white" fill-opacity="0.25"/>
  <path d="M20.1043 12.7572C20.4459 13.159 21.0898 13.174 21.4924 12.6941C22.3314 11.6816 22.8021 10.3297 22.8021 8.88182C22.8021 7.43397 22.3314 6.08202 21.4924 5.066C21.0898 4.58788 20.4459 4.59491 20.1043 5.00467C19.7812 5.38612 19.9127 5.85545 20.226 6.29295C20.7662 6.96991 21.0592 7.91717 21.0592 8.88182C21.0592 9.84647 20.7662 10.784 20.226 11.4672C19.9109 11.9064 19.7812 12.3775 20.1043 12.7572Z" fill="white" fill-opacity="0.25"/>
  <path d="M8.88182 17.7556C13.7806 17.7556 17.7556 13.7887 17.7556 8.88182C17.7556 3.97499 13.7806 0 8.88182 0C3.97499 0 0 3.97499 0 8.88182C0 13.7887 3.97499 17.7556 8.88182 17.7556ZM8.88007 11.8748C8.28534 11.8748 8.06971 12.1943 7.59393 12.1943C7.09686 12.1943 6.76581 11.7621 6.37616 11.2127C5.93417 10.5674 5.56757 9.57772 5.56757 8.62714C5.56757 7.12089 6.54393 6.31229 7.52206 6.31229C8.03241 6.31229 8.45136 6.65936 8.77889 6.65936C9.09217 6.65936 9.55995 6.30253 10.1484 6.30253C10.3765 6.30253 11.1674 6.31229 11.6875 7.06229C11.6449 7.11112 10.8576 7.54784 10.8576 8.55702C10.8576 9.70467 11.865 10.1156 11.8961 10.1334C11.8961 10.1582 11.7478 10.6961 11.3662 11.234C11.0351 11.7017 10.6765 12.1828 10.1484 12.1828C9.61854 12.1828 9.49159 11.8748 8.88007 11.8748ZM9.87772 5.65194C9.61854 5.97323 9.17831 6.21288 8.82323 6.21288C8.77889 6.21288 8.74335 6.20311 8.71229 6.20311C8.71229 6.18183 8.70253 6.12147 8.70253 6.05937C8.70253 5.65194 8.91913 5.2623 9.12948 5.00487C9.41796 4.67558 9.87772 4.42265 10.2771 4.41464C10.2887 4.45546 10.2887 4.5123 10.2887 4.5664C10.2887 4.97206 10.1174 5.35819 9.87772 5.65194Z" fill="white" fill-opacity="0.25"/>
 </g>
</svg>
