<?xml version="1.0" encoding="UTF-8"?>
<!--Generator: Apple Native CoreSVG 341-->
<!DOCTYPE svg
PUBLIC "-//W3C//DTD SVG 1.1//EN"
       "http://www.w3.org/Graphics/SVG/1.1/DTD/svg11.dtd">
<svg version="1.1" xmlns="http://www.w3.org/2000/svg" xmlns:xlink="http://www.w3.org/1999/xlink" viewBox="0 0 20.5381 20.1848">
 <g>
  <rect height="20.1848" opacity="0" width="20.5381" x="0" y="0"/>
  <path d="M10.0875 20.175C15.6576 20.175 20.1767 15.6559 20.1767 10.0875C20.1767 4.51914 15.6576 0 10.0875 0C4.51914 0 0 4.51914 0 10.0875C0 15.6559 4.51914 20.175 10.0875 20.175ZM10.0955 18.2629C5.57324 18.2629 1.92011 14.6098 1.92011 10.0875C1.92011 5.56523 5.57324 1.90234 10.0955 1.90234C14.6195 1.90234 18.2807 5.56523 18.2807 10.0875C18.2807 14.6098 14.6195 18.2629 10.0955 18.2629ZM10.0875 17.1918C14.0121 17.1918 17.1936 14.0023 17.1936 10.0875C17.1936 6.16288 14.0121 2.98319 10.0875 2.98319C6.16464 2.98319 2.98319 6.16288 2.98319 10.0875C2.98319 14.0023 6.16464 17.1918 10.0875 17.1918ZM10.1754 12.7549C9.63456 12.7549 9.43925 13.0506 9.0041 13.0506C8.54765 13.0506 8.24843 12.6492 7.88788 12.1519C7.48476 11.5641 7.14374 10.6557 7.14374 9.78632C7.14374 8.41347 8.04687 7.66933 8.93574 7.66933C9.40371 7.66933 9.79355 7.9828 10.0795 7.9828C10.3689 7.9828 10.8041 7.65956 11.3387 7.65956C11.5482 7.65956 12.2746 7.66933 12.7523 8.35663C12.7115 8.4037 11.9869 8.80331 11.9869 9.71972C11.9869 10.7773 12.9113 11.1512 12.9424 11.1609C12.9424 11.1822 12.8012 11.6777 12.4549 12.1715C12.1494 12.6004 11.8164 13.0408 11.3387 13.0408C10.8529 13.0408 10.7393 12.7549 10.1754 12.7549ZM11.09 7.06816C10.8529 7.36386 10.4516 7.58319 10.1283 7.58319C10.0795 7.58319 10.0537 7.57519 10.0244 7.57519C10.0244 7.5539 10.0146 7.49706 10.0146 7.44648C10.0146 7.06816 10.2127 6.71386 10.4045 6.47675C10.6709 6.17304 11.09 5.95019 11.4541 5.94218C11.4639 5.97948 11.4639 6.02655 11.4639 6.07714C11.4639 6.44745 11.3111 6.79823 11.09 7.06816Z" fill="white" fill-opacity="0.25"/>
 </g>
</svg>
