<?xml version="1.0" encoding="UTF-8"?>
<!--Generator: Apple Native CoreSVG 341-->
<!DOCTYPE svg
PUBLIC "-//W3C//DTD SVG 1.1//EN"
       "http://www.w3.org/Graphics/SVG/1.1/DTD/svg11.dtd">
<svg version="1.1" xmlns="http://www.w3.org/2000/svg" xmlns:xlink="http://www.w3.org/1999/xlink" viewBox="0 0 20.5381 20.1848">
 <g>
  <rect height="20.1848" opacity="0" width="20.5381" x="0" y="0"/>
  <path d="M10.0875 20.175C15.6576 20.175 20.1767 15.6559 20.1767 10.0875C20.1767 4.51914 15.6576 0 10.0875 0C4.51914 0 0 4.51914 0 10.0875C0 15.6559 4.51914 20.175 10.0875 20.175ZM10.0955 18.2348C5.58945 18.2348 1.94823 14.5936 1.94823 10.0875C1.94823 5.58144 5.58945 1.93222 10.0955 1.93222C14.6016 1.93222 18.2508 5.58144 18.2508 10.0875C18.2508 14.5936 14.6016 18.2348 10.0955 18.2348ZM10.0875 17.2727C14.0557 17.2727 17.2727 14.0459 17.2727 10.0875C17.2727 6.12109 14.0557 2.90233 10.0875 2.90233C6.12109 2.90233 2.90409 6.12109 2.90409 10.0875C2.90409 14.0459 6.12109 17.2727 10.0875 17.2727ZM10.0875 16.2434C6.69647 16.2434 3.93338 13.4785 3.93338 10.0875C3.93338 6.68671 6.69647 3.93162 10.0875 3.93162C13.4883 3.93162 16.2434 6.68671 16.2434 10.0875C16.2434 13.4785 13.4883 16.2434 10.0875 16.2434ZM10.1674 12.6609C10.7082 12.6609 10.8201 12.9336 11.2943 12.9336C11.757 12.9336 12.0705 12.5064 12.3645 12.0908C12.6975 11.6184 12.8307 11.1441 12.8307 11.1246C12.7996 11.1148 11.9178 10.7543 11.9178 9.73124C11.9178 8.85116 12.6113 8.46308 12.6486 8.42577C12.1939 7.76151 11.4924 7.75175 11.2943 7.75175C10.773 7.75175 10.3574 8.06347 10.0812 8.06347C9.79706 8.06347 9.42675 7.76151 8.97382 7.76151C8.11952 7.76151 7.24921 8.47284 7.24921 9.79785C7.24921 10.6424 7.58046 11.5127 7.96855 12.0713C8.30956 12.5553 8.60527 12.9434 9.04042 12.9434C9.45605 12.9434 9.64785 12.6609 10.1674 12.6609ZM11.0555 7.18339C11.265 6.92499 11.4178 6.57772 11.4178 6.21893C11.4178 6.17011 11.4178 6.12304 11.4062 6.08573C11.0555 6.09374 10.6398 6.31483 10.3947 6.60702C10.2047 6.84062 10.0164 7.18339 10.0164 7.54218C10.0164 7.59101 10.0262 7.64784 10.0262 7.66737C10.0537 7.66737 10.0812 7.67538 10.1203 7.67538C10.432 7.67538 10.8201 7.46757 11.0555 7.18339Z" fill="white" fill-opacity="0.25"/>
 </g>
</svg>
