<?xml version="1.0" encoding="UTF-8"?>
<!--Generator: Apple Native CoreSVG 341-->
<!DOCTYPE svg
PUBLIC "-//W3C//DTD SVG 1.1//EN"
       "http://www.w3.org/Graphics/SVG/1.1/DTD/svg11.dtd">
<svg version="1.1" xmlns="http://www.w3.org/2000/svg" xmlns:xlink="http://www.w3.org/1999/xlink" viewBox="0 0 27.1902 17.7734">
 <g>
  <rect height="17.7734" opacity="0" width="27.1902" x="0" y="0"/>
  <path d="M22.9511 15.5562C23.2998 15.9562 23.8879 15.9756 24.3302 15.5092C25.9425 13.7732 26.8289 11.4199 26.8289 8.88182C26.8289 6.34725 25.9179 3.97011 24.3302 2.25624C23.8914 1.78808 23.3015 1.80292 22.9511 2.20917C22.6176 2.59237 22.7222 3.08475 23.1029 3.50448C24.3781 4.91561 25.0859 6.81034 25.0859 8.88182C25.0859 10.9551 24.3728 12.8498 23.1029 14.2609C22.724 14.6807 22.6193 15.173 22.9511 15.5562Z" fill="white" fill-opacity="0.25"/>
  <path d="M20.1043 12.7572C20.4459 13.159 21.0898 13.174 21.4924 12.6941C22.3314 11.6816 22.8021 10.3297 22.8021 8.88182C22.8021 7.43397 22.3314 6.08202 21.4924 5.066C21.0898 4.58788 20.4459 4.59491 20.1043 5.00467C19.7812 5.38612 19.9127 5.85545 20.226 6.29295C20.7662 6.96991 21.0592 7.91717 21.0592 8.88182C21.0592 9.84647 20.7662 10.784 20.226 11.4672C19.9109 11.9064 19.7812 12.3775 20.1043 12.7572Z" fill="white" fill-opacity="0.25"/>
  <path d="M8.88182 17.7556C13.7806 17.7556 17.7556 13.7887 17.7556 8.88182C17.7556 3.97499 13.7806 0 8.88182 0C3.97499 0 0 3.97499 0 8.88182C0 13.7887 3.97499 17.7556 8.88182 17.7556ZM8.88182 15.8599C5.02167 15.8599 1.89569 12.742 1.89569 8.88182C1.89569 5.02167 5.02167 1.89393 8.88182 1.89393C12.734 1.89393 15.8617 5.02167 15.8617 8.88182C15.8617 12.742 12.734 15.8599 8.88182 15.8599ZM8.87382 11.7014C9.4535 11.7014 9.58046 11.9943 10.082 11.9943C10.5898 11.9943 10.9236 11.5318 11.2476 11.0826C11.6045 10.5633 11.7492 10.0537 11.7492 10.0324C11.7182 10.0226 10.7558 9.6285 10.7558 8.52948C10.7558 7.57069 11.5131 7.15077 11.5521 7.10995C11.0603 6.39354 10.2969 6.38378 10.082 6.38378C9.52987 6.38378 9.08065 6.71581 8.77616 6.71581C8.47167 6.71581 8.06952 6.39354 7.57948 6.39354C6.64823 6.39354 5.71522 7.16854 5.71522 8.5996C5.71522 9.50507 6.06854 10.4541 6.49022 11.0613C6.85507 11.5842 7.17909 12.0041 7.6496 12.0041C8.09882 12.0041 8.30741 11.7014 8.87382 11.7014ZM9.8246 5.76503C10.051 5.48632 10.2187 5.11874 10.2187 4.72811C10.2187 4.67577 10.2187 4.62694 10.2072 4.58788C9.8246 4.59589 9.38339 4.83554 9.11796 5.14804C8.91288 5.39042 8.7078 5.76503 8.7078 6.15565C8.7078 6.20624 8.71757 6.26659 8.71757 6.28612C8.74686 6.28612 8.77616 6.29589 8.81698 6.29589C9.15878 6.29589 9.58046 6.06952 9.8246 5.76503Z" fill="white" fill-opacity="0.25"/>
 </g>
</svg>
