<?xml version="1.0" encoding="UTF-8"?>
<!--Generator: Apple Native CoreSVG 341-->
<!DOCTYPE svg
PUBLIC "-//W3C//DTD SVG 1.1//EN"
       "http://www.w3.org/Graphics/SVG/1.1/DTD/svg11.dtd">
<svg version="1.1" xmlns="http://www.w3.org/2000/svg" xmlns:xlink="http://www.w3.org/1999/xlink" viewBox="0 0 18.131 17.7875">
 <g>
  <rect height="17.7875" opacity="0" width="18.131" x="0" y="0"/>
  <path d="M1.44316 1.43965C0.704687 2.17988 0.153515 3.30898 0.122461 4.21191C0.112695 4.58613 0.339647 4.85214 0.700583 4.85214C1.03046 4.85214 1.25039 4.66679 1.31601 4.33691C1.46953 3.51914 1.74296 2.86367 2.29531 2.29355C2.93554 1.68613 3.52441 1.49081 4.39453 1.29472C4.6996 1.21757 4.88671 1.0039 4.88671 0.720114C4.88671 0.368944 4.63222 0.122461 4.26777 0.122461C3.4041 0.130469 2.23144 0.654882 1.44316 1.43965ZM11.3723 0L6.39745 0C6.06582 0 5.78652 0.285546 5.78652 0.617185C5.78652 0.948824 6.06582 1.23613 6.39745 1.23613L11.3723 1.23613C11.7039 1.23613 11.9832 0.948824 11.9832 0.617185C11.9832 0.285546 11.7039 0 11.3723 0ZM16.3185 1.43965C15.5418 0.658397 14.3709 0.130469 13.5019 0.122461C13.1295 0.122461 12.883 0.368944 12.883 0.720114C12.883 1.0039 13.0621 1.21757 13.3672 1.29472C14.2045 1.47929 14.8209 1.6746 15.4744 2.29355C16.0268 2.86367 16.2922 3.51914 16.4537 4.33691C16.5193 4.66679 16.7312 4.85214 17.0691 4.85214C17.4221 4.85214 17.657 4.58613 17.6473 4.21191C17.6162 3.30898 17.065 2.17988 16.3185 1.43965ZM17.7697 11.3936L17.7697 6.40722C17.7697 6.07558 17.4824 5.79629 17.1508 5.79629C16.8191 5.79629 16.5416 6.07558 16.5416 6.40722L16.5416 11.3936C16.5416 11.7269 16.8174 12.0107 17.1508 12.0107C17.4824 12.0107 17.7697 11.7252 17.7697 11.3936ZM16.3185 16.3381C17.065 15.5978 17.6162 14.4687 17.6473 13.5658C17.657 13.1818 17.4221 12.9238 17.0691 12.9238C16.7312 12.9238 16.5193 13.1029 16.4537 13.4408C16.2922 14.2586 16.0268 14.9043 15.4744 15.4842C14.8289 16.0871 14.2408 16.2869 13.3672 16.4732C13.0621 16.5521 12.883 16.7721 12.883 17.0576C12.883 17.4088 13.1295 17.6473 13.5019 17.6473C14.3656 17.6473 15.5383 17.1228 16.3185 16.3381ZM6.39745 17.7697L11.3723 17.7697C11.7039 17.7697 11.9832 17.4904 11.9832 17.1588C11.9832 16.8271 11.7039 16.5416 11.3723 16.5416L6.39745 16.5416C6.06582 16.5416 5.78652 16.8271 5.78652 17.1588C5.78652 17.4904 6.06582 17.7697 6.39745 17.7697ZM1.44316 16.3381C2.22793 17.1193 3.39883 17.6473 4.26777 17.6473C4.63222 17.6473 4.88671 17.4088 4.88671 17.0576C4.88671 16.7721 4.6996 16.5521 4.39453 16.4732C3.55898 16.3002 2.94707 16.0934 2.29531 15.4842C1.74296 14.9043 1.46953 14.2586 1.31601 13.4408C1.25039 13.1029 1.03046 12.9238 0.700583 12.9238C0.339647 12.9238 0.112695 13.1818 0.122461 13.5658C0.153515 14.4687 0.704687 15.5978 1.44316 16.3381ZM0 6.40722L0 11.3936C0 11.7252 0.279295 12.0107 0.618942 12.0107C0.952339 12.0107 1.22812 11.7269 1.22812 11.3936L1.22812 6.40722C1.22812 6.07558 0.950581 5.79629 0.618942 5.79629C0.279295 5.79629 0 6.07558 0 6.40722Z" fill="white" fill-opacity="0.25"/>
  <path d="M6.17812 15.4738L11.5916 15.4738C12.8799 15.4738 13.8814 15.332 14.6094 14.6139C15.3418 13.8814 15.4676 12.8816 15.4676 11.5916L15.4676 6.17812C15.4676 4.88808 15.3418 3.89453 14.6094 3.17011C13.8814 2.4457 12.8799 2.30215 11.5916 2.30215L6.1621 2.30215C4.88984 2.30215 3.88652 2.4457 3.16035 3.17011C2.43593 3.89628 2.30215 4.89609 2.30215 6.1621L2.30215 11.5916C2.30215 12.8816 2.43593 13.8814 3.16035 14.6139C3.88828 15.332 4.88984 15.4738 6.17812 15.4738Z" fill="white" fill-opacity="0.25"/>
 </g>
</svg>
