<?xml version="1.0" encoding="UTF-8"?>
<!--Generator: Apple Native CoreSVG 341-->
<!DOCTYPE svg
PUBLIC "-//W3C//DTD SVG 1.1//EN"
       "http://www.w3.org/Graphics/SVG/1.1/DTD/svg11.dtd">
<svg version="1.1" xmlns="http://www.w3.org/2000/svg" xmlns:xlink="http://www.w3.org/1999/xlink" viewBox="0 0 16.2578 24.5465">
 <g>
  <rect height="24.5465" opacity="0" width="16.2578" x="0" y="0"/>
  <path d="M14.7525 16.8129C16.3793 15.1746 16.2781 13.2295 14.432 11.3879L11.2025 8.1539L6.07127 13.2959C5.35721 14.0037 4.26307 13.4174 4.57343 12.4348C4.7119 12.0275 4.74198 11.6033 4.74198 11.1781C4.74198 9.56445 3.71913 8.65019 2.44941 8.65019C0.844529 8.64219 0 9.69414 0 10.8853C0 11.7078 0.405664 12.493 0.993748 13.0748L7.42265 19.5037C8.20234 20.2816 8.75625 21.0273 8.75625 22.1707C8.75625 22.4123 8.72871 22.6609 8.59726 22.9336C8.91328 22.6734 9.17343 22.4178 9.42734 22.1674ZM5.06055 24.5304C6.29512 24.5304 7.30918 23.6017 7.30918 22.3472C7.30918 21.6166 6.97109 21.0228 6.22773 20.2697L4.80645 18.8422C3.56759 19.7724 2.67598 20.773 2.67598 22.232C2.67598 23.6195 3.71661 24.5304 5.06055 24.5304ZM2.4705 7.23496C4.46249 7.23496 5.89725 8.63594 5.89725 10.4775C5.89725 10.5553 5.89725 10.666 5.88045 10.7562C5.86366 11.091 6.2162 11.1529 6.37323 10.9941L11.9668 5.40409C12.5764 4.79276 12.9135 4.01386 12.9267 3.19667C12.9285 1.29687 11.4715 0 9.8332 0C8.64999 0 7.75898 0.530078 6.82441 1.46289L0.483589 7.79043C1.09843 7.425 1.77988 7.23496 2.4705 7.23496Z" fill="white" fill-opacity="0.25"/>
 </g>
</svg>
