<?xml version="1.0" encoding="UTF-8"?>
<!--Generator: Apple Native CoreSVG 341-->
<!DOCTYPE svg
PUBLIC "-//W3C//DTD SVG 1.1//EN"
       "http://www.w3.org/Graphics/SVG/1.1/DTD/svg11.dtd">
<svg version="1.1" xmlns="http://www.w3.org/2000/svg" xmlns:xlink="http://www.w3.org/1999/xlink" viewBox="0 0 19.6922 21.4601">
 <g>
  <rect height="21.4601" opacity="0" width="19.6922" x="0" y="0"/>
  <path d="M4.52772 8.38682L4.52772 14.4664C4.52772 15.8853 5.35097 16.7379 6.74335 16.7379L12.5387 16.7379C12.6532 16.7379 12.7639 16.7321 12.8691 16.7186L14.4145 18.2621C14.0585 18.5306 13.8252 18.868 13.6644 19.368L13.2789 20.5025C13.074 21.1478 12.6252 21.4584 11.925 21.4584L7.35527 21.4584C6.67285 21.4584 6.19824 21.1398 5.99336 20.5025L5.61582 19.368C5.41172 18.7277 5.08691 18.3541 4.5375 18.0498C3.41817 17.4074 2.82949 16.2924 2.82949 14.7717L2.82949 6.69055ZM13.2789 0.955858L13.6644 2.09843C13.8703 2.7289 14.1951 3.10429 14.7428 3.40859C15.8621 4.05898 16.4525 5.16425 16.4525 6.68671L16.4525 6.78222L16.5383 6.78222C17.09 6.78222 17.4572 7.16269 17.4572 7.75976L17.4572 9.09569C17.4572 9.69628 17.09 10.075 16.5383 10.075L16.4525 10.075L16.4525 14.7058L14.756 13.0091L14.756 6.99999C14.756 5.57479 13.931 4.71874 12.5387 4.71874L6.74335 4.71874C6.65232 4.71874 6.56372 4.72239 6.47793 4.73004L4.91463 3.16656C5.24487 2.90589 5.46565 2.56788 5.61582 2.09843L5.99336 0.955858C6.19824 0.318554 6.67285 0 7.35527 0L11.925 0C12.6172 0 13.0918 0.326562 13.2789 0.955858Z" fill="white" fill-opacity="0.25"/>
  <path d="M16.8055 18.9459C17.1072 19.2574 17.6033 19.2574 17.9051 18.9459C18.1971 18.6441 18.2068 18.1578 17.9051 17.8463L2.53515 2.48437C2.23339 2.18085 1.72929 2.17285 1.42578 2.48437C1.13379 2.77812 1.13379 3.29199 1.42578 3.58398Z" fill="white" fill-opacity="0.25"/>
 </g>
</svg>
