<?xml version="1.0" encoding="UTF-8"?>
<!--Generator: Apple Native CoreSVG 341-->
<!DOCTYPE svg
PUBLIC "-//W3C//DTD SVG 1.1//EN"
       "http://www.w3.org/Graphics/SVG/1.1/DTD/svg11.dtd">
<svg version="1.1" xmlns="http://www.w3.org/2000/svg" xmlns:xlink="http://www.w3.org/1999/xlink" viewBox="0 0 21.1293 20.1812">
 <g>
  <rect height="20.1812" opacity="0" width="21.1293" x="0" y="0"/>
  <path d="M9.65078 20.1715C15.6754 20.1715 20.768 15.3381 20.768 8.9371C20.768 3.90664 16.8826 0 11.7297 0C5.86484 0 0 4.93281 0 11.143C0 16.4344 3.98652 20.1715 9.65078 20.1715ZM9.65078 18.2582C5.08378 18.2582 1.91327 15.3291 1.91327 11.143C1.91327 6.07167 6.85018 1.91327 11.7297 1.91327C15.8236 1.91327 18.8547 4.97987 18.8547 8.9371C18.8547 14.2738 14.6074 18.2582 9.65078 18.2582Z" fill="white" fill-opacity="0.25"/>
  <path d="M13.0098 15.6105C13.8691 15.1969 14.091 14.3748 14.1062 13.3043C14.1107 12.6418 14.0353 11.8727 14.1926 11.1727C14.3498 10.4869 14.7352 9.8412 15.0344 9.21327C15.4861 8.283 15.6326 7.42988 15.0432 6.66991C14.4412 5.93398 13.5863 5.89941 12.5549 6.12031C11.8959 6.27656 11.1658 6.49941 10.448 6.49941C9.73476 6.49941 9.00468 6.27656 8.33769 6.12031C7.32402 5.88339 6.45136 5.93398 5.84941 6.66816C5.26796 7.43613 5.42245 8.283 5.86796 9.21152C6.14765 9.8412 6.54101 10.4852 6.69648 11.1824C6.86347 11.8727 6.79784 12.6418 6.80234 13.3043C6.81132 14.3748 7.02968 15.1969 7.90058 15.6105C8.13671 15.7277 8.42617 15.7783 8.6623 15.7783C9.22597 15.7783 9.78964 15.4738 10.3738 15.0363C10.8996 14.6252 11.4752 14.0924 12.1059 13.7895C12.7508 13.4732 13.5039 13.3781 14.1504 13.2146C15.1801 12.9775 15.9471 12.5736 16.1717 11.6344C16.3865 10.7049 15.8672 10.0062 15.0471 9.34843C14.516 8.92031 13.8908 8.49394 13.4324 7.93964C12.9928 7.37558 12.7369 6.67753 12.45 6.07187C11.967 5.1328 11.3953 4.483 10.448 4.483C9.4875 4.483 8.93183 5.13105 8.46484 6.07187C8.16367 6.67753 7.9123 7.37734 7.46191 7.94765C7.01952 8.50195 6.3828 8.92031 5.85976 9.34843C5.03515 10.0062 4.52382 10.7049 4.73066 11.6344C4.95351 12.5719 5.71698 12.9775 6.75019 13.2146C7.39667 13.3781 8.14804 13.4732 8.78671 13.7912C9.42363 14.0924 9.99121 14.6252 10.525 15.0363C11.0887 15.4738 11.6586 15.7783 12.2383 15.7783C12.5002 15.7783 12.7541 15.7277 13.0098 15.6105ZM12.5396 14.6383C12.0662 14.8506 11.6594 14.5275 11.208 14.1811C10.6326 13.7221 9.98163 13.1369 9.25156 12.8057C8.54726 12.4441 7.70546 12.3207 6.97831 12.1475C6.42831 12.007 5.91425 11.9127 5.80233 11.4002C5.69042 10.8859 6.08983 10.5625 6.52694 10.2C7.11737 9.74179 7.82597 9.24355 8.30468 8.61562C8.81894 7.99569 9.12265 7.20097 9.45038 6.55019C9.71249 6.03397 9.93027 5.56971 10.4463 5.56971C10.9748 5.56971 11.1943 6.03221 11.4449 6.55019C11.7744 7.20097 12.0844 7.99745 12.5826 8.61562C13.0773 9.25156 13.7957 9.74179 14.3621 10.2C14.809 10.5625 15.2066 10.8859 15.093 11.4002C14.9828 11.9127 14.4705 12.007 13.9135 12.1475C13.2254 12.3127 12.3498 12.4441 11.6277 12.8092C10.9172 13.1369 10.2644 13.7398 9.68281 14.1811C9.22968 14.5275 8.83261 14.8506 8.34941 14.6365C7.89823 14.4029 7.90331 13.8816 7.88905 13.3006C7.87655 12.5672 7.94042 11.7219 7.76015 10.9207C7.58339 10.1533 7.16698 9.41093 6.84472 8.73964C6.61112 8.22167 6.37421 7.7705 6.70194 7.36366C7.04569 6.95155 7.54569 7.06054 8.09745 7.19022C8.81933 7.35175 9.64609 7.58788 10.4463 7.58788C11.2635 7.58788 12.084 7.35175 12.7961 7.19022C13.3611 7.06054 13.8531 6.95155 14.1791 7.3619C14.5148 7.7705 14.2842 8.22167 14.0461 8.73788C13.7363 9.41093 13.3039 10.1516 13.1352 10.9385C12.9566 11.7219 13.0285 12.5672 13.0178 13.3006C13.0035 13.8816 13.0051 14.4029 12.5396 14.6383Z" fill="white" fill-opacity="0.25"/>
 </g>
</svg>
