<?xml version="1.0" encoding="UTF-8"?>
<!--Generator: Apple Native CoreSVG 341-->
<!DOCTYPE svg
PUBLIC "-//W3C//DTD SVG 1.1//EN"
       "http://www.w3.org/Graphics/SVG/1.1/DTD/svg11.dtd">
<svg version="1.1" xmlns="http://www.w3.org/2000/svg" xmlns:xlink="http://www.w3.org/1999/xlink" viewBox="0 0 24.1535 20.9539">
 <g>
  <rect height="20.9539" opacity="0" width="24.1535" x="0" y="0"/>
  <path d="M2.87051 18.6594C2.87051 20.1084 3.7373 20.9539 5.22694 20.9539L18.5812 20.9539C20.0629 20.9539 20.9297 20.1084 20.9297 18.6594L20.9297 7.63847L19.3074 7.5664L19.3074 18.3146C19.3074 18.9916 18.9603 19.3449 18.2924 19.3449L5.51756 19.3449C4.83983 19.3449 4.49276 18.9916 4.49276 18.3146L4.49276 7.51367L2.87051 7.58574ZM0 9.87948C0 10.3289 0.33242 10.6445 0.813082 10.6445C1.04335 10.6445 1.21698 10.5603 1.37909 10.431L11.5504 1.90389C11.7625 1.71659 12.0314 1.70858 12.2516 1.90389L22.4228 10.431C22.5752 10.5603 22.7506 10.6445 22.9871 10.6445C23.4615 10.6445 23.7922 10.3289 23.7922 9.87948C23.7922 9.58066 23.6734 9.37148 23.4305 9.17109L13.1555 0.536521C12.3871-0.115626 11.4211-0.117384 10.6447 0.536521L0.361717 9.17109C0.118749 9.37148 0 9.58066 0 9.87948ZM18.1709 5.33652L20.9297 7.73123L20.9297 2.78438C20.9297 2.35391 20.6492 2.07344 20.209 2.07344L18.8934 2.07344C18.4611 2.07344 18.1709 2.35391 18.1709 2.78438Z" fill="white" fill-opacity="0.25"/>
  <path d="M6.11504 16.3963C6.11504 17.2646 6.62011 17.7306 7.5621 17.7306L16.2461 17.7306C17.1801 17.7306 17.6931 17.2646 17.6931 16.3963L17.6931 8.63847L12.5779 4.35586C12.1574 4.00898 11.6428 4.00898 11.2303 4.35586L6.11504 8.63847ZM7.73729 15.5861L7.73729 9.42128L11.5726 6.20311C11.7555 6.0496 12.0412 6.03983 12.2275 6.20311L16.0709 9.42929L16.0709 15.5861C16.0709 15.9328 15.8838 16.1199 15.5371 16.1199L8.26483 16.1199C7.92616 16.1199 7.73729 15.9328 7.73729 15.5861Z" fill="white" fill-opacity="0.25"/>
  <path d="M9.35332 13.5254C9.35332 14.1498 9.73496 14.5137 10.3922 14.5137L13.408 14.5137C14.0732 14.5137 14.4486 14.1498 14.4486 13.5254L14.4486 10.216L12.5033 8.57422C12.1246 8.25937 11.6773 8.25761 11.3049 8.57422L9.35332 10.216ZM10.9445 12.7279L10.9445 10.95L11.6807 10.3348C11.8166 10.2183 11.9916 10.2183 12.1195 10.3348L12.8557 10.95L12.8557 12.7279C12.8557 12.8727 12.7891 12.9473 12.6381 12.9473L11.1621 12.9473C11.0191 12.9473 10.9445 12.8727 10.9445 12.7279Z" fill="white" fill-opacity="0.25"/>
 </g>
</svg>
