<?xml version="1.0" encoding="UTF-8"?>
<!--Generator: Apple Native CoreSVG 341-->
<!DOCTYPE svg
PUBLIC "-//W3C//DTD SVG 1.1//EN"
       "http://www.w3.org/Graphics/SVG/1.1/DTD/svg11.dtd">
<svg version="1.1" xmlns="http://www.w3.org/2000/svg" xmlns:xlink="http://www.w3.org/1999/xlink" viewBox="0 0 19.7185 20.7918">
 <g>
  <rect height="20.7918" opacity="0" width="19.7185" x="0" y="0"/>
  <path d="M9.87441 20.782C15.116 20.782 19.3572 16.1324 19.3572 10.391C19.3572 4.64961 15.116 0 9.87441 0C7.10976 0 4.58144 1.3 2.8328 3.4459C2.63066 3.68535 2.54648 3.91855 2.54648 4.14902C2.54648 4.63046 2.9748 4.98495 3.44999 4.98495C3.72831 4.98495 4.01288 4.86445 4.24139 4.59941C5.64432 2.86562 7.6869 1.82186 9.87441 1.82186C14.1 1.82186 17.5256 5.65937 17.5256 10.391C17.5256 15.1227 14.1 18.9584 9.87441 18.9584C7.6869 18.9584 5.64432 17.9084 4.23963 16.1826C4.01639 15.9176 3.73182 15.7953 3.44999 15.7953C2.9748 15.7953 2.54648 16.1498 2.54648 16.6312C2.54648 16.8555 2.63066 17.0967 2.8328 17.3361C4.58144 19.482 7.10976 20.782 9.87441 20.782Z" fill="white" fill-opacity="0.25"/>
  <path d="M0 15.4279C0 16.7807 1.0707 17.8556 2.39374 17.9072C2.03027 17.4779 1.82831 17.0717 1.82831 16.6473C1.82831 15.7717 2.62245 15.0771 3.47577 15.0771C4.15428 15.0771 4.46327 15.3967 4.95955 15.9439C4.9951 15.7752 5.01287 15.6064 5.01287 15.4279L5.01287 5.39179C5.01287 5.19921 4.99334 5.02617 4.95428 4.84511C4.51092 5.35605 4.13339 5.69687 3.48378 5.69687C2.62245 5.69687 1.82831 5.00859 1.82831 4.13301C1.82831 3.74727 1.99687 3.35606 2.34804 2.92227C1.07343 2.98965 0 4.04785 0 5.39179ZM2.51132 9.87264C1.64609 9.87264 0.953901 9.17069 0.953901 8.31522C0.953901 7.45976 1.64609 6.76581 2.51132 6.76581C3.36679 6.76581 4.05897 7.45976 4.05897 8.31522C4.05897 9.17069 3.36679 9.87264 2.51132 9.87264ZM2.51132 9.14159C2.95956 9.14159 3.32968 8.76522 3.32968 8.31522C3.32968 7.86523 2.95956 7.49687 2.51132 7.49687C2.06132 7.49687 1.6832 7.86523 1.6832 8.31522C1.6832 8.76522 2.06132 9.14159 2.51132 9.14159Z" fill="white" fill-opacity="0.25"/>
 </g>
</svg>
