<?xml version="1.0" encoding="UTF-8"?>
<!--Generator: Apple Native CoreSVG 341-->
<!DOCTYPE svg
PUBLIC "-//W3C//DTD SVG 1.1//EN"
       "http://www.w3.org/Graphics/SVG/1.1/DTD/svg11.dtd">
<svg version="1.1" xmlns="http://www.w3.org/2000/svg" xmlns:xlink="http://www.w3.org/1999/xlink" viewBox="0 0 24.3658 21.939">
 <g>
  <rect height="21.939" opacity="0" width="24.3658" x="0" y="0"/>
  <path d="M21.8036 6.02226L22.0338 6.02226C22.6939 6.02226 23.1189 6.48007 23.1189 7.20507L23.1189 8.83768C23.1189 9.55018 22.6939 10.0045 22.0338 10.0045L21.8052 10.0045L21.8052 15.8949C21.8052 18.7793 20.0556 20.5599 17.2236 20.5599L15.6104 20.5599C16.1351 20.0721 16.5408 19.4606 16.8108 18.75L17.2814 18.75C18.9883 18.75 19.9935 17.7119 19.9935 15.951L19.9935 6.04589C19.9935 4.29471 18.9883 3.25839 17.2814 3.25839L14.6699 3.25839C13.8802 2.85428 12.9243 2.6123 11.8484 2.6123L6.38476 2.6123C7.17251 1.83406 8.30171 1.40664 9.69081 1.40664L17.2236 1.40664C20.0417 1.40664 21.788 3.16368 21.8036 6.02226Z" fill="white" fill-opacity="0.25"/>
  <path d="M5.34062 20.5599L11.8484 20.5599C14.29 20.5599 15.8117 19.0152 15.8117 16.5168L15.8117 11.5568L15.9486 11.5568C16.5637 11.5568 16.9603 11.1326 16.9603 10.4767L16.9603 8.95038C16.9603 8.27674 16.5637 7.85077 15.9486 7.85077L15.8117 7.85077C15.7398 5.46425 14.2394 3.99941 11.8484 3.99941L5.34062 3.99941C2.89101 3.99941 1.3791 5.53612 1.3791 8.01854L1.3791 16.5168C1.3791 19.0152 2.89101 20.5599 5.34062 20.5599ZM3.19081 16.5648L3.19081 8.00878C3.19081 6.63358 3.95819 5.84315 5.29081 5.84315L11.8982 5.84315C13.2309 5.84315 13.9982 6.63358 13.9982 8.00878L13.9982 16.5648C13.9982 17.956 13.2309 18.75 11.8982 18.75L5.29081 18.75C3.95819 18.75 3.19081 17.956 3.19081 16.5648Z" fill="white" fill-opacity="0.25"/>
 </g>
</svg>
