<?xml version="1.0" encoding="UTF-8"?>
<!--Generator: Apple Native CoreSVG 341-->
<!DOCTYPE svg
PUBLIC "-//W3C//DTD SVG 1.1//EN"
       "http://www.w3.org/Graphics/SVG/1.1/DTD/svg11.dtd">
<svg version="1.1" xmlns="http://www.w3.org/2000/svg" xmlns:xlink="http://www.w3.org/1999/xlink" viewBox="0 0 22.8784 23.1">
 <g>
  <rect height="23.1" opacity="0" width="22.8784" x="0" y="0"/>
  <path d="M7.72161 22.1049C8.80716 22.1049 9.86341 21.5402 10.9579 20.6881L11.2505 20.4773L11.5529 20.6961C12.6474 21.542 13.7036 22.1049 14.7874 22.1049C15.272 22.1049 15.7583 21.9939 16.2544 21.7508C17.8904 20.9812 18.3267 19.434 18.3587 17.4199L18.3747 17.091L18.6493 17.0057C20.6111 16.5201 22.0163 15.7535 22.4255 13.9951C22.8312 12.2359 21.8786 10.8959 20.3113 9.63105L19.0038 8.60468C18.1142 9.62949 17.0611 11.2285 16.7179 12.7785C16.5038 13.7174 16.463 14.5986 16.4648 15.5684C15.5163 15.7807 14.5296 16.0355 13.6538 16.4672C12.8216 16.8678 12.0152 17.4522 11.2568 18.0516C10.5001 17.4522 9.69993 16.866 8.85793 16.4637C7.9759 16.0355 7.00871 15.7807 6.04875 15.5684C6.05402 14.5986 6.01496 13.6066 5.80715 12.6562C5.59484 11.7512 5.19875 10.8586 4.78762 9.98652C5.55578 9.3746 6.31691 8.71562 6.91379 7.96952C7.52043 7.22167 7.97512 6.34686 8.38098 5.48905C9.2845 5.69159 10.2245 5.8578 11.1531 5.8578C12.8824 5.8578 14.055 5.38085 15.7634 4.53868L15.0536 3.01953C14.1777 1.20976 13.0763 0 11.2585 0C9.45931 0 8.38821 1.20645 7.48372 2.99316L7.33255 3.2875L6.99817 3.22168C5.02064 2.80625 3.40423 2.89121 2.2849 4.30254C1.15677 5.71386 1.42787 7.31855 2.27454 9.11777L2.4097 9.44589L2.19095 9.64687C0.637631 10.9082-0.307877 12.2447 0.0915371 13.9951C0.497201 15.757 1.91302 16.5201 3.86751 17.0074L4.14232 17.0892L4.15833 17.4023C4.19036 19.4252 4.62142 20.9812 6.26439 21.7525C6.75872 21.9939 7.24505 22.1049 7.72161 22.1049ZM13.355 3.75097C12.6716 3.89492 11.9722 4.00605 11.2585 4.00605C10.5448 4.00605 9.84543 3.89492 9.15852 3.75097L9.27766 3.55449C9.7425 2.66484 10.2392 1.87108 11.2585 1.87108C12.2859 1.87108 12.7728 2.66484 13.2359 3.55449ZM6.55775 5.01679C6.24583 5.63085 5.90013 6.2414 5.45931 6.79863C5.00872 7.36035 4.47903 7.84824 3.92981 8.29258L3.8302 8.04981C3.44367 7.14414 3.1093 6.25898 3.73938 5.47694C4.38372 4.68866 5.3054 4.77596 6.29818 4.97323ZM3.27649 11.1381C3.56263 11.7619 3.82571 12.416 3.98392 13.0914C4.14212 13.7855 4.18919 14.4947 4.19095 15.1861L3.80247 15.083C2.90305 14.8475 2.12981 14.509 1.91828 13.5768C1.70676 12.6267 2.29875 11.9754 3.02219 11.3586ZM6.00461 17.459C6.69778 17.6287 7.38743 17.826 8.03978 18.1441C8.66458 18.4428 9.24134 18.8463 9.79056 19.2648L9.56205 19.4355C8.78079 20.0363 7.97923 20.5084 7.06653 20.0818C6.16184 19.6473 6.04465 18.7123 6.02063 17.716ZM12.723 19.2648C13.2757 18.8463 13.8622 18.441 14.4808 18.1424C15.1314 17.8242 15.8273 17.6269 16.5124 17.459L16.4964 17.7C16.4724 18.6963 16.3632 19.6393 15.447 20.0836C14.5361 20.5084 13.7443 20.0168 12.9577 19.432ZM18.3243 15.1861C18.3261 14.4912 18.3812 13.774 18.5331 13.0781C18.6833 12.4062 18.9464 11.7584 19.237 11.1381L19.405 11.2928C20.1738 11.9301 20.8183 12.5867 20.5988 13.5768C20.3695 14.5668 19.4949 14.8973 18.5341 15.1266Z" fill="white" fill-opacity="0.25"/>
  <path d="M11.0601 13.1387L20.4794 5.31524L19.0023 3.57481L9.58918 11.392L8.60187 13.2949C8.47863 13.5385 8.72394 13.8143 8.97921 13.7443ZM21.2484 4.67793L22.1271 3.93282C22.5653 3.55157 22.6425 2.94142 22.2683 2.50411L22.012 2.23009C21.6777 1.85041 21.0782 1.82697 20.6587 2.18693L19.773 2.93751Z" fill="white" fill-opacity="0.25"/>
 </g>
</svg>
