<?xml version="1.0" encoding="UTF-8"?>
<!--Generator: Apple Native CoreSVG 341-->
<!DOCTYPE svg
PUBLIC "-//W3C//DTD SVG 1.1//EN"
       "http://www.w3.org/Graphics/SVG/1.1/DTD/svg11.dtd">
<svg version="1.1" xmlns="http://www.w3.org/2000/svg" xmlns:xlink="http://www.w3.org/1999/xlink" viewBox="0 0 11.4131 21.2222">
 <g>
  <rect height="21.2222" opacity="0" width="11.4131" x="0" y="0"/>
  <path d="M2.79335 0C1.09394 0 0 1.04961 0 2.66914L0 18.5304L1.84296 17.5539L1.84296 2.94062C1.84296 2.24999 2.27128 1.84296 3.00898 1.84296L8.05076 1.84296C8.78045 1.84296 9.20702 2.24999 9.20702 2.94062L9.20702 17.5539L11.0517 18.5304L11.0517 2.66914C11.0517 1.04961 9.95779 0 8.25838 0ZM2.65546 21.1797L8.40428 21.1797C9.95427 21.1797 11.0517 20.0787 11.0517 18.5304C11.0517 16.9742 9.95427 15.875 8.40428 15.875L2.65546 15.875C1.10371 15.875 0 16.9742 0 18.5304C0 20.0787 1.10371 21.1797 2.65546 21.1797ZM2.65546 19.4396C2.11776 19.4396 1.73827 19.0601 1.73827 18.5304C1.73827 17.9945 2.11776 17.615 2.65546 17.615L8.40428 17.615C8.94022 17.615 9.3117 17.9945 9.3117 18.5304C9.3117 19.0601 8.94022 19.4396 8.40428 19.4396ZM5.53299 5.27752C6.21092 5.27752 6.77088 4.72733 6.77088 4.0494C6.77088 3.36698 6.21092 2.81327 5.53299 2.81327C4.84882 2.81327 4.29686 3.36698 4.29686 4.0494C4.29686 4.72733 4.84882 5.27752 5.53299 5.27752Z" fill="white" fill-opacity="0.25"/>
 </g>
</svg>
