<?xml version="1.0" encoding="UTF-8"?>
<!--Generator: Apple Native CoreSVG 341-->
<!DOCTYPE svg
PUBLIC "-//W3C//DTD SVG 1.1//EN"
       "http://www.w3.org/Graphics/SVG/1.1/DTD/svg11.dtd">
<svg version="1.1" xmlns="http://www.w3.org/2000/svg" xmlns:xlink="http://www.w3.org/1999/xlink" viewBox="0 0 10.0394 22.007">
 <g>
  <rect height="22.007" opacity="0" width="10.0394" x="0" y="0"/>
  <path d="M2.67714 21.9572L7.00896 21.9572C8.66716 21.9572 9.6781 20.9773 9.6781 19.4025L9.6781 2.55468C9.6781 0.979882 8.66716 0 7.00896 0L2.67714 0C1.01269 0 0 0.979882 0 2.55468L0 19.4025C0 20.9773 1.01269 21.9572 2.67714 21.9572ZM2.93983 20.1975C2.23417 20.1975 1.78631 19.7691 1.78631 19.106L1.78631 2.86093C1.78631 2.18807 2.23417 1.75975 2.93983 1.75975L6.73826 1.75975C7.44393 1.75975 7.89178 2.18807 7.89178 2.86093L7.89178 19.106C7.89178 19.7691 7.44393 20.1975 6.73826 20.1975ZM4.84393 8.5578C6.34706 8.5578 7.5705 7.35038 7.5705 5.83925C7.5705 4.33437 6.34706 3.1287 4.84393 3.1287C3.33905 3.1287 2.11561 4.33437 2.11561 5.83925C2.11561 7.35038 3.33905 8.5578 4.84393 8.5578ZM3.49354 11.2426C4.04745 11.2426 4.50194 10.7881 4.50194 10.2359C4.50194 9.69003 4.05545 9.2373 3.49354 9.2373C2.93514 9.2373 2.49842 9.69003 2.49842 10.2359C2.49842 10.7881 2.93514 11.2426 3.49354 11.2426ZM6.19882 11.2426C6.7412 11.2426 7.18768 10.7881 7.18768 10.2359C7.18768 9.69003 6.74296 9.2373 6.19882 9.2373C5.6369 9.2373 5.17616 9.69003 5.17616 10.2359C5.17616 10.7881 5.6369 11.2426 6.19882 11.2426ZM3.49354 13.8387C4.05545 13.8387 4.50194 13.3939 4.50194 12.8338C4.50194 12.2799 4.05545 11.8271 3.49354 11.8271C2.93514 11.8271 2.49842 12.2879 2.49842 12.8338C2.49842 13.3939 2.93514 13.8387 3.49354 13.8387ZM3.49354 16.44C4.05545 16.44 4.50194 15.9953 4.50194 15.4414C4.50194 14.8812 4.04745 14.425 3.49354 14.425C2.93514 14.425 2.49842 14.8812 2.49842 15.4414C2.49842 15.9953 2.93514 16.44 3.49354 16.44ZM6.18104 16.44C6.70389 16.44 7.13885 16.0148 7.13885 15.508L7.13885 12.785C7.13885 12.2603 6.70389 11.8271 6.18104 11.8271C5.65819 11.8271 5.25077 12.2523 5.25077 12.785L5.25077 15.508C5.25077 16.0148 5.66796 16.44 6.18104 16.44Z" fill="white" fill-opacity="0.25"/>
 </g>
</svg>
