<?xml version="1.0" encoding="UTF-8"?>
<!--Generator: Apple Native CoreSVG 341-->
<!DOCTYPE svg
PUBLIC "-//W3C//DTD SVG 1.1//EN"
       "http://www.w3.org/Graphics/SVG/1.1/DTD/svg11.dtd">
<svg version="1.1" xmlns="http://www.w3.org/2000/svg" xmlns:xlink="http://www.w3.org/1999/xlink" viewBox="0 0 20.5381 20.1848">
 <g>
  <rect height="20.1848" opacity="0" width="20.5381" x="0" y="0"/>
  <path d="M10.0875 20.175C15.6576 20.175 20.1767 15.6559 20.1767 10.0875C20.1767 4.51914 15.6576 0 10.0875 0C4.51914 0 0 4.51914 0 10.0875C0 15.6559 4.51914 20.175 10.0875 20.175ZM10.0875 18.1879C5.60839 18.1879 1.9871 14.5666 1.9871 10.0875C1.9871 5.60839 5.60839 1.9871 10.0875 1.9871C14.5666 1.9871 18.1897 5.60839 18.1897 10.0875C18.1897 14.5666 14.5666 18.1879 10.0875 18.1879Z" fill="white" fill-opacity="0.25"/>
  <path d="M9.88671 13.4295C10.1787 13.4295 10.4264 13.1766 10.4264 12.8766L10.4264 10.825C13.3441 10.6111 15.2293 8.58573 15.2053 5.61034C15.2053 5.27577 14.9896 5.05566 14.623 5.05566C12.3641 5.03163 10.6299 6.24472 9.81484 8.27929C9.05663 6.89902 7.59394 6.20019 6.06503 6.20019C5.76777 6.20019 5.608 6.39452 5.61327 6.69706C5.66464 8.05917 6.43378 10.5445 9.33203 10.825L9.33203 12.8766C9.33203 13.1766 9.58945 13.4295 9.88671 13.4295ZM9.2416 9.70683C7.85644 9.51152 7.06151 8.54472 6.7953 7.39823C7.88769 7.59257 8.92812 8.32167 9.2416 9.70683ZM10.5559 9.72011C10.9572 7.68593 12.2496 6.37675 14.0773 6.19061C13.9088 8.1207 12.557 9.46093 10.5559 9.72011ZM5.5666 14.9639C5.85234 14.9639 6.12304 14.7047 6.12304 14.4109C6.12304 14.1314 5.85234 13.8705 5.5666 13.8705C5.26484 13.8705 5.01191 14.1314 5.01191 14.4109C5.01191 14.7047 5.26484 14.9639 5.5666 14.9639ZM6.86894 14.1186C7.16269 14.1186 7.42363 13.8701 7.42363 13.5719C7.42363 13.2861 7.16269 13.0172 6.86894 13.0172C6.56367 13.0172 6.3205 13.2861 6.3205 13.5719C6.3205 13.8621 6.57167 14.1186 6.86894 14.1186ZM8.34453 13.624C8.64628 13.624 8.88945 13.3568 8.88945 13.0791C8.88945 12.7756 8.63827 12.5342 8.34453 12.5342C8.04902 12.5342 7.79433 12.7756 7.79433 13.0791C7.79433 13.3568 8.04902 13.624 8.34453 13.624ZM11.4139 13.624C11.7076 13.624 11.9588 13.3568 11.9588 13.0791C11.9588 12.7756 11.7076 12.5342 11.4139 12.5342C11.1166 12.5342 10.8654 12.7756 10.8654 13.0791C10.8654 13.3568 11.1166 13.624 11.4139 13.624ZM12.8762 14.1186C13.1717 14.1186 13.4326 13.8621 13.4326 13.5719C13.4326 13.2861 13.1717 13.0172 12.8762 13.0172C12.5887 13.0172 12.3312 13.2861 12.3312 13.5719C12.3312 13.8701 12.5887 14.1186 12.8762 14.1186ZM14.1963 14.9639C14.482 14.9639 14.7332 14.7047 14.7332 14.4109C14.7332 14.1314 14.482 13.8705 14.1963 13.8705C13.899 13.8705 13.6478 14.1314 13.6478 14.4109C13.6478 14.7047 13.899 14.9639 14.1963 14.9639Z" fill="white" fill-opacity="0.25"/>
 </g>
</svg>
