<?xml version="1.0" encoding="UTF-8"?>
<!--Generator: Apple Native CoreSVG 341-->
<!DOCTYPE svg
PUBLIC "-//W3C//DTD SVG 1.1//EN"
       "http://www.w3.org/Graphics/SVG/1.1/DTD/svg11.dtd">
<svg version="1.1" xmlns="http://www.w3.org/2000/svg" xmlns:xlink="http://www.w3.org/1999/xlink" viewBox="0 0 11.4265 22.007">
 <g>
  <rect height="22.007" opacity="0" width="11.4265" x="0" y="0"/>
  <path d="M0 19.6527C0 21.0701 0.929685 21.9572 2.4287 21.9572L8.63827 21.9572C10.1355 21.9572 11.0652 21.0701 11.0652 19.6527L11.0652 2.30624C11.0652 0.896872 10.1355 0 8.63827 0L2.4287 0C0.929685 0 0 0.896872 0 2.30624ZM1.78631 19.3949L1.78631 2.56229C1.78631 2.06815 2.11425 1.75975 2.64921 1.75975L8.416 1.75975C8.95898 1.75975 9.2789 2.06815 9.2789 2.56229L9.2789 19.3949C9.2789 19.8908 8.95898 20.1975 8.416 20.1975L2.64921 20.1975C2.11425 20.1975 1.78631 19.8908 1.78631 19.3949ZM5.54237 9.51269C7.21171 9.51269 8.56757 8.14882 8.56757 6.48749C8.56757 4.81815 7.21171 3.45429 5.54237 3.45429C3.87303 3.45429 2.50917 4.81815 2.50917 6.48749C2.50917 8.14882 3.87303 9.51269 5.54237 9.51269ZM5.54237 7.68906C4.87011 7.68906 4.3328 7.14999 4.3328 6.48749C4.3328 5.81522 4.87011 5.27792 5.54237 5.27792C6.21288 5.27792 6.74394 5.81522 6.74394 6.48749C6.74394 7.14999 6.21288 7.68906 5.54237 7.68906ZM5.54237 12.8691C6.16386 12.8691 6.66991 12.3631 6.66991 11.7398C6.66991 11.1103 6.16386 10.6043 5.54237 10.6043C4.91112 10.6043 4.39706 11.1103 4.39706 11.7398C4.39706 12.3631 4.91112 12.8691 5.54237 12.8691Z" fill="white" fill-opacity="0.25"/>
 </g>
</svg>
