<?xml version="1.0" encoding="UTF-8"?>
<!--Generator: Apple Native CoreSVG 341-->
<!DOCTYPE svg
PUBLIC "-//W3C//DTD SVG 1.1//EN"
       "http://www.w3.org/Graphics/SVG/1.1/DTD/svg11.dtd">
<svg version="1.1" xmlns="http://www.w3.org/2000/svg" xmlns:xlink="http://www.w3.org/1999/xlink" viewBox="0 0 15.2258 21.4601">
 <g>
  <rect height="21.4601" opacity="0" width="15.2258" x="0" y="0"/>
  <path d="M0.598046 14.7717C0.598046 16.2924 1.18672 17.4074 2.30605 18.0498C2.85547 18.3541 3.18027 18.7277 3.38437 19.368L3.76191 20.5025C3.96679 21.1398 4.4414 21.4584 5.12382 21.4584L9.69354 21.4584C10.3937 21.4584 10.8426 21.1478 11.0474 20.5025L11.433 19.368C11.6371 18.7277 11.9637 18.3541 12.5113 18.0498C13.6289 17.4074 14.2193 16.2941 14.2193 14.7717L14.2193 6.68671C14.2193 5.16425 13.6289 4.05898 12.5113 3.40859C11.9637 3.10429 11.6371 2.7289 11.433 2.09843L11.0474 0.955858C10.8603 0.326562 10.3857 0 9.69354 0L5.12382 0C4.4414 0 3.96679 0.318554 3.76191 0.955858L3.38437 2.09843C3.18301 2.72793 2.85469 3.12109 2.30605 3.40859C1.19473 4.0332 0.598046 5.14823 0.598046 6.68671ZM2.29628 14.4664L2.29628 6.99999C2.29628 5.57303 3.11952 4.71874 4.5119 4.71874L10.3072 4.71874C11.6978 4.71874 12.5246 5.57479 12.5246 6.99999L12.5246 14.4664C12.5246 15.8836 11.6978 16.7379 10.3072 16.7379L4.5119 16.7379C3.11952 16.7379 2.29628 15.8853 2.29628 14.4664ZM13.899 10.075L14.3051 10.075C14.8568 10.075 15.2258 9.69628 15.2258 9.09569L15.2258 7.75976C15.2258 7.16269 14.8568 6.78222 14.3051 6.78222L13.899 6.78222Z" fill="white" fill-opacity="0.25"/>
 </g>
</svg>
