<?xml version="1.0" encoding="UTF-8"?>
<!--Generator: Apple Native CoreSVG 341-->
<!DOCTYPE svg
PUBLIC "-//W3C//DTD SVG 1.1//EN"
       "http://www.w3.org/Graphics/SVG/1.1/DTD/svg11.dtd">
<svg version="1.1" xmlns="http://www.w3.org/2000/svg" xmlns:xlink="http://www.w3.org/1999/xlink" viewBox="0 0 20.8597 16.5835">
 <g>
  <rect height="16.5835" opacity="0" width="20.8597" x="0" y="0"/>
  <path d="M2.1707 15.8677C1.99961 16.1949 2.36738 16.5085 2.64218 16.3587L4.17733 15.5548L2.99687 14.3744ZM3.47597 13.488L5.06991 15.0918L5.69881 14.7591L17.9738 2.53396C18.498 2.0115 18.4945 1.16794 17.972 0.653493C17.4558 0.131034 16.6123 0.131034 16.0996 0.643728L3.81484 12.8752Z" fill="white" fill-opacity="0.25"/>
  <path d="M6.13964 6.12204C7.57967 4.70056 8.366 2.86033 8.45565 0.932596C8.49471 0.41463 8.13006 0.0472474 7.66678 0.0572091C7.21893 0.073421 6.88065 0.395491 6.83007 0.964628C6.75917 2.47947 6.11054 3.87302 5.0037 4.98787C3.88886 6.10271 2.47929 6.74157 0.980467 6.81247C0.408595 6.85505 0.0847673 7.20583 0.06504 7.6484C0.0595707 8.10094 0.433203 8.4611 0.956443 8.44782C2.86992 8.35641 4.70839 7.56208 6.13964 6.12204Z" fill="white" fill-opacity="0.25"/>
  <path d="M3.88534 3.87751C4.69198 3.06462 5.18534 2.03806 5.31659 0.918142C5.38846 0.401933 5.0035-0.0097847 4.51015 0.000177027C4.07636 0.0118965 3.80371 0.287873 3.6955 0.897049C3.60683 1.5697 3.28554 2.1992 2.74941 2.74158C2.22656 3.27146 1.60332 3.59099 0.888864 3.68767C0.307227 3.78787 0.0197273 4.07654 0 4.49431C0.0042963 4.98767 0.424022 5.37263 0.933981 5.307C2.02988 5.18903 3.08847 4.67614 3.88534 3.87751Z" fill="white" fill-opacity="0.25"/>
 </g>
</svg>
