<?xml version="1.0" encoding="UTF-8"?>
<!--Generator: Apple Native CoreSVG 341-->
<!DOCTYPE svg
PUBLIC "-//W3C//DTD SVG 1.1//EN"
       "http://www.w3.org/Graphics/SVG/1.1/DTD/svg11.dtd">
<svg version="1.1" xmlns="http://www.w3.org/2000/svg" xmlns:xlink="http://www.w3.org/1999/xlink" viewBox="0 0 17.4068 16.5005">
 <g>
  <rect height="16.5005" opacity="0" width="17.4068" x="0" y="0"/>
  <path d="M0.445135 15.8262C0.2758 16.1534 0.641813 16.467 0.916616 16.3172L2.45177 15.5133L1.27131 14.3329ZM1.75041 13.4465L3.34435 15.0503L3.97501 14.7176L16.2482 2.49246C16.7725 1.97 16.7707 1.12645 16.2465 0.611997C15.7303 0.0895374 14.8885 0.0895374 14.374 0.602231L2.08927 12.8337Z" fill="white" fill-opacity="0.25"/>
  <path d="M4.55783 6.52038C5.5174 5.5573 6.19377 4.4114 6.54259 3.15534C6.67209 2.66765 6.3715 2.22078 5.90685 2.14539C5.44397 2.07 5.08752 2.34754 4.95627 2.79187C4.68635 3.74812 4.17932 4.62625 3.42463 5.37918C2.63088 6.17468 1.69768 6.69324 0.713888 6.94011C0.236741 7.05007-0.063843 7.42605 0.0115474 7.8907C0.0869377 8.35183 0.507248 8.67546 0.993183 8.54948C2.31838 8.22819 3.54416 7.54206 4.55783 6.52038ZM10.7041 12.1133C9.75255 13.0747 9.07618 14.2223 8.72559 15.4784C8.59786 15.9661 8.89844 16.4112 9.35508 16.4883C9.81797 16.5637 10.1789 16.2827 10.3137 15.8401C10.5783 14.8838 11.0889 14.0075 11.8453 13.2545C12.6391 12.4573 13.5643 11.9387 14.5561 11.6918C15.0332 11.5836 15.3258 11.2077 15.2584 10.7413C15.183 10.2819 14.7627 9.95826 14.275 10.0842C12.9516 10.4055 11.7258 11.0917 10.7041 12.1133Z" fill="white" fill-opacity="0.25"/>
 </g>
</svg>
