<?xml version="1.0" encoding="UTF-8"?>
<!--Generator: Apple Native CoreSVG 341-->
<!DOCTYPE svg
PUBLIC "-//W3C//DTD SVG 1.1//EN"
       "http://www.w3.org/Graphics/SVG/1.1/DTD/svg11.dtd">
<svg version="1.1" xmlns="http://www.w3.org/2000/svg" xmlns:xlink="http://www.w3.org/1999/xlink" viewBox="0 0 11.1072 22.007">
 <g>
  <rect height="22.007" opacity="0" width="11.1072" x="0" y="0"/>
  <path d="M2.67714 21.9572L8.07674 21.9572C9.73318 21.9572 10.7459 20.9773 10.7459 19.4025L10.7459 2.55468C10.7459 0.979882 9.73318 0 8.07674 0L2.67714 0C1.01269 0 0 0.979882 0 2.55468L0 19.4025C0 20.9773 1.01269 21.9572 2.67714 21.9572ZM2.93983 20.1975C2.23065 20.1975 1.78631 19.7727 1.78631 19.106L1.78631 2.86093C1.78631 2.18456 2.23065 1.75975 2.93983 1.75975L7.80604 1.75975C8.51522 1.75975 8.95956 2.18456 8.95956 2.86093L8.95956 19.106C8.95956 19.7727 8.51522 20.1975 7.80604 20.1975ZM3.82128 9.04023C4.45428 9.04023 4.9621 8.52089 4.9621 7.89765C4.9621 7.27089 4.45604 6.75507 3.82128 6.75507C3.19276 6.75507 2.67694 7.26913 2.67694 7.89765C2.67694 8.52441 3.19452 9.04023 3.82128 9.04023ZM6.94764 9.04023C7.57089 9.04023 8.08847 8.52089 8.08847 7.89765C8.08847 7.27089 7.5744 6.75507 6.94764 6.75507C6.31112 6.75507 5.80155 7.26913 5.80155 7.89765C5.80155 8.52441 6.31288 9.04023 6.94764 9.04023ZM3.82128 12.1412C4.45428 12.1412 4.9621 11.6236 4.9621 10.9986C4.9621 10.3639 4.45604 9.85605 3.82128 9.85605C3.19276 9.85605 2.67694 10.3621 2.67694 10.9986C2.67694 11.6254 3.19452 12.1412 3.82128 12.1412ZM3.82128 15.2359C4.45428 15.2359 4.9621 14.7264 4.9621 14.0934C4.9621 13.4666 4.45604 12.9508 3.82128 12.9508C3.19276 12.9508 2.67694 13.4648 2.67694 14.0934C2.67694 14.7281 3.19452 15.2359 3.82128 15.2359ZM6.93964 15.2359C7.54335 15.2359 8.03436 14.7609 8.03436 14.1492L8.03436 10.9348C8.03436 10.3328 7.54159 9.85605 6.93964 9.85605C6.34745 9.85605 5.87069 10.3346 5.87069 10.9348L5.87069 14.1492C5.87069 14.7592 6.34745 15.2359 6.93964 15.2359Z" fill="white" fill-opacity="0.25"/>
 </g>
</svg>
