<?xml version="1.0" encoding="UTF-8"?>
<!--Generator: Apple Native CoreSVG 341-->
<!DOCTYPE svg
PUBLIC "-//W3C//DTD SVG 1.1//EN"
       "http://www.w3.org/Graphics/SVG/1.1/DTD/svg11.dtd">
<svg version="1.1" xmlns="http://www.w3.org/2000/svg" xmlns:xlink="http://www.w3.org/1999/xlink" viewBox="0 0 25.9773 25.4588">
 <g>
  <rect height="25.4588" opacity="0" width="25.9773" x="0" y="0"/>
  <path d="M4.91477 5.4759C3.77346 6.49982 3.05976 7.98788 3.05976 9.65069C3.05976 12.1031 4.6151 14.1811 6.79914 14.9508C5.31347 13.667 4.37734 11.7684 4.37734 9.65069C4.37734 8.30351 4.75685 7.04486 5.4174 5.9779L6.4423 7.00152C6.01977 7.78809 5.78242 8.69024 5.78242 9.65069C5.78242 12.094 7.32017 14.1656 9.48973 14.9419C8.00728 13.6585 7.07246 11.7636 7.07246 9.65069C7.07246 9.03266 7.15254 8.43326 7.30507 7.86321L8.50635 9.06298C8.48321 9.25538 8.47304 9.45178 8.47304 9.65069C8.47304 11.7875 9.64837 13.64 11.3973 14.5937C11.9544 14.2895 12.4539 13.8939 12.875 13.4262L13.8575 14.4074C13.6813 14.599 13.4938 14.7801 13.2968 14.9504C13.5625 14.8573 13.8188 14.7446 14.0637 14.6134L15.8368 16.3842L15.2019 16.528C15.0402 16.5638 14.883 16.6035 14.731 16.6476C14.5273 16.6698 14.32 16.679 14.1105 16.679C13.6475 16.679 13.1948 16.6343 12.7575 16.546C12.3212 16.6343 11.8695 16.679 11.4074 16.679C10.9423 16.679 10.4877 16.6339 10.0487 16.5452C9.61043 16.6339 9.15677 16.679 8.69277 16.679C4.8168 16.679 1.66895 13.5329 1.66895 9.65069C1.66895 7.61167 2.53961 5.77465 3.93475 4.49711ZM20.541 6.84972L19.149 7.15571C18.5137 5.85645 17.3891 4.8466 16.0121 4.36069C16.9418 5.16248 17.654 6.20745 18.0511 7.39754C17.5547 7.5097 17.1242 7.71896 16.7868 8.00929C16.271 6.30156 14.9682 4.94412 13.2966 4.35651C14.7827 5.63955 15.7211 7.53654 15.7211 9.65069C15.7211 9.97532 15.699 10.2948 15.6538 10.6069L14.3107 9.26477C14.1786 7.29149 13.0373 5.60579 11.3967 4.71206C11.0487 4.90144 10.7234 5.12639 10.4268 5.38346L9.44579 4.40309C9.45892 4.38988 9.47295 4.37764 9.48702 4.36546C9.46791 4.37229 9.44884 4.37922 9.43075 4.38806L7.74201 2.70045C8.05127 2.65048 8.36948 2.62862 8.69277 2.62862C9.1564 2.62862 9.60971 2.67367 10.0476 2.76229C10.4864 2.67367 10.9407 2.62862 11.4057 2.62862C11.8677 2.62862 12.3194 2.67332 12.7556 2.7615C13.1929 2.67333 13.6456 2.62862 14.1088 2.62862C16.9841 2.62862 19.4608 4.36549 20.541 6.84972Z" fill="white" fill-opacity="0.25"/>
  <path d="M18.8371 19.3808L18.8371 19.4632C18.8371 22.0321 16.8959 23.146 15.4236 23.146C13.8617 23.146 12.7523 22.1263 12.7523 20.6913C12.7523 19.2616 13.6406 18.3218 15.4939 17.9241L16.925 17.6116C16.9644 17.6036 17.001 17.5934 17.0349 17.5808ZM23.9631 8.56767L23.9631 11.9317C23.9631 12.2784 23.7396 12.5462 23.3805 12.6313L19.2586 13.5395C19.0062 13.5981 18.9006 13.6475 18.8602 13.8112L17.3955 12.3475L17.3898 9.82841C17.3898 9.27041 17.7412 8.92002 18.3728 8.78252L22.985 7.76865C23.5117 7.65869 23.9631 8.03291 23.9631 8.56767Z" fill="white" fill-opacity="0.25"/>
  <path d="M23.4471 22.2903C23.7568 22.5921 24.2529 22.5938 24.5467 22.2903C24.8467 21.9868 24.8564 21.4942 24.5467 21.1907L4.77578 1.4331C4.47402 1.13135 3.96992 1.12334 3.6664 1.4331C3.37441 1.72685 3.37441 2.23271 3.6664 2.53271Z" fill="white" fill-opacity="0.25"/>
 </g>
</svg>
