<?xml version="1.0" encoding="UTF-8"?>
<!--Generator: Apple Native CoreSVG 341-->
<!DOCTYPE svg
PUBLIC "-//W3C//DTD SVG 1.1//EN"
       "http://www.w3.org/Graphics/SVG/1.1/DTD/svg11.dtd">
<svg version="1.1" xmlns="http://www.w3.org/2000/svg" xmlns:xlink="http://www.w3.org/1999/xlink" viewBox="0 0 10.8217 22.007">
 <g>
  <rect height="22.007" opacity="0" width="10.8217" x="0" y="0"/>
  <path d="M0 19.6527C0 21.0701 0.929685 21.9572 2.4287 21.9572L8.03162 21.9572C9.52263 21.9572 10.4603 21.0701 10.4603 19.6527L10.4603 2.30624C10.4603 0.896872 9.52263 0 8.03162 0L2.4287 0C0.929685 0 0 0.896872 0 2.30624ZM1.78631 19.3949L1.78631 2.56229C1.78631 2.06815 2.11425 1.75975 2.64921 1.75975L7.81112 1.75975C8.34608 1.75975 8.67401 2.06815 8.67401 2.56229L8.67401 19.3949C8.67401 19.8908 8.34608 20.1975 7.81112 20.1975L2.64921 20.1975C2.11425 20.1975 1.78631 19.8908 1.78631 19.3949ZM3.67381 11.9512C4.29706 11.9512 4.80311 11.4371 4.80311 10.8139C4.80311 10.1924 4.29706 9.6783 3.67381 9.6783C3.04432 9.6783 2.53026 10.1924 2.53026 10.8139C2.53026 11.4371 3.04432 11.9512 3.67381 11.9512ZM6.80428 11.9512C7.42753 11.9512 7.93358 11.4371 7.93358 10.8139C7.93358 10.1924 7.42753 9.6783 6.80428 9.6783C6.17479 9.6783 5.65897 10.1924 5.65897 10.8139C5.65897 11.4371 6.17479 11.9512 6.80428 11.9512ZM5.23104 8.44706C6.73671 8.44706 7.95292 7.23084 7.95292 5.72518C7.95292 4.21952 6.73671 3.00331 5.23104 3.00331C3.73339 3.00331 2.50917 4.21952 2.50917 5.72518C2.50917 7.23084 3.73339 8.44706 5.23104 8.44706ZM5.23905 6.80663C4.64237 6.80663 4.1496 6.32362 4.1496 5.72518C4.1496 5.1285 4.64237 4.64373 5.23905 4.64373C5.83749 4.64373 6.3205 5.1285 6.3205 5.72518C6.3205 6.32362 5.83749 6.80663 5.23905 6.80663Z" fill="white" fill-opacity="0.25"/>
 </g>
</svg>
