<?xml version="1.0" encoding="UTF-8"?>
<!--Generator: Apple Native CoreSVG 341-->
<!DOCTYPE svg
PUBLIC "-//W3C//DTD SVG 1.1//EN"
       "http://www.w3.org/Graphics/SVG/1.1/DTD/svg11.dtd">
<svg version="1.1" xmlns="http://www.w3.org/2000/svg" xmlns:xlink="http://www.w3.org/1999/xlink" viewBox="0 0 20.9371 26.3187">
 <g>
  <rect height="26.3187" opacity="0" width="20.9371" x="0" y="0"/>
  <path d="M14.8529 2.91914L5.72109 2.91914C5.75771 2.0845 6.28355 1.60762 7.15234 1.60762L13.4234 1.60762C14.2922 1.60762 14.8164 2.0845 14.8529 2.91914Z" fill="white" fill-opacity="0.25"/>
  <path d="M16.8295 5.82369C16.4995 5.77004 16.1499 5.74296 15.7824 5.74296L4.79335 5.74296C4.42598 5.74296 4.07648 5.7699 3.74647 5.82334C3.8542 4.84215 4.52082 4.28418 5.59745 4.28418L14.9863 4.28418C16.0631 4.28418 16.7231 4.84228 16.8295 5.82369Z" fill="white" fill-opacity="0.25"/>
  <path d="M4.79335 24.7306L15.7824 24.7306C17.8902 24.7306 18.9859 23.643 18.9859 21.5592L18.9859 10.5043C18.9859 8.4205 17.8902 7.3328 15.7824 7.3328L4.79335 7.3328C2.68379 7.3328 1.58984 8.41249 1.58984 10.5043L1.58984 21.5592C1.58984 23.643 2.68379 24.7306 4.79335 24.7306ZM4.91229 22.8156C4.00428 22.8156 3.50311 22.3393 3.50311 21.3904L3.50311 10.665C3.50311 9.72244 4.00428 9.24607 4.91229 9.24607L15.6715 9.24607C16.5635 9.24607 17.0727 9.72244 17.0727 10.665L17.0727 21.3904C17.0727 22.3393 16.5635 22.8156 15.6715 22.8156Z" fill="white" fill-opacity="0.25"/>
  <path d="M10.0934 19.4164C10.3871 19.4164 10.6348 19.1617 10.6348 18.8617L10.6348 16.8101C13.5588 16.5963 15.4359 14.5709 15.4199 11.5955C15.4199 11.2609 15.198 11.0408 14.8395 11.0408C12.5787 11.0168 10.8365 12.2299 10.0295 14.2644C9.26503 12.8842 7.80234 12.1853 6.27167 12.1853C5.97616 12.1853 5.8164 12.3797 5.82792 12.6822C5.87304 14.0443 6.65019 16.5297 9.53867 16.8101L9.53867 18.8617C9.53867 19.1617 9.79785 19.4164 10.0934 19.4164ZM9.44824 15.692C8.06483 15.4967 7.26815 14.5299 7.0037 13.3834C8.09433 13.5777 9.14277 14.3068 9.44824 15.692ZM10.7625 15.7053C11.1656 13.6711 12.4562 12.3619 14.292 12.1775C14.1154 14.1058 12.7654 15.4461 10.7625 15.7053ZM5.77499 20.949C6.06073 20.949 6.32968 20.6898 6.32968 20.3961C6.32968 20.1166 6.06073 19.8557 5.77499 19.8557C5.47949 19.8557 5.22831 20.1166 5.22831 20.3961C5.22831 20.6898 5.47949 20.949 5.77499 20.949ZM7.07734 20.1037C7.37109 20.1037 7.63027 19.8553 7.63027 19.557C7.63027 19.2713 7.37109 19.0023 7.07734 19.0023C6.77206 19.0023 6.53691 19.2713 6.53691 19.557C6.53691 19.8473 6.78007 20.1037 7.07734 20.1037ZM8.56093 19.6092C8.85292 19.6092 9.09609 19.342 9.09609 19.066C9.09609 18.7607 8.84491 18.5193 8.56093 18.5193C8.26367 18.5193 8.00273 18.7607 8.00273 19.066C8.00273 19.342 8.26367 19.6092 8.56093 19.6092ZM11.6205 19.6092C11.916 19.6092 12.1752 19.342 12.1752 19.066C12.1752 18.7607 11.916 18.5193 11.6205 18.5193C11.325 18.5193 11.0721 18.7607 11.0721 19.066C11.0721 19.342 11.325 19.6092 11.6205 19.6092ZM13.0926 20.1037C13.3783 20.1037 13.641 19.8473 13.641 19.557C13.641 19.2713 13.3783 19.0023 13.0926 19.0023C12.8033 19.0023 12.5379 19.2713 12.5379 19.557C12.5379 19.8553 12.8033 20.1037 13.0926 20.1037ZM14.4029 20.949C14.6887 20.949 14.9496 20.6898 14.9496 20.3961C14.9496 20.1166 14.6887 19.8557 14.4029 19.8557C14.1074 19.8557 13.8545 20.1166 13.8545 20.3961C13.8545 20.6898 14.1074 20.949 14.4029 20.949Z" fill="white" fill-opacity="0.25"/>
 </g>
</svg>
