<?xml version="1.0" encoding="UTF-8"?>
<!--Generator: Apple Native CoreSVG 341-->
<!DOCTYPE svg
PUBLIC "-//W3C//DTD SVG 1.1//EN"
       "http://www.w3.org/Graphics/SVG/1.1/DTD/svg11.dtd">
<svg version="1.1" xmlns="http://www.w3.org/2000/svg" xmlns:xlink="http://www.w3.org/1999/xlink" viewBox="0 0 20.9371 26.3187">
 <g>
  <rect height="26.3187" opacity="0" width="20.9371" x="0" y="0"/>
  <path d="M14.8533 2.91914L5.72069 2.91914C5.75331 2.07796 6.2799 1.59707 7.15234 1.59707L13.4234 1.59707C14.2959 1.59707 14.8208 2.07796 14.8533 2.91914Z" fill="white" fill-opacity="0.25"/>
  <path d="M16.8295 5.82369C16.4995 5.77004 16.1499 5.74296 15.7824 5.74296L4.79335 5.74296C4.42598 5.74296 4.07648 5.7699 3.74647 5.82334C3.8542 4.84215 4.52082 4.28418 5.59745 4.28418L14.9863 4.28418C16.0631 4.28418 16.7231 4.84228 16.8295 5.82369Z" fill="white" fill-opacity="0.25"/>
  <path d="M18.9859 10.5043L18.9859 21.5592C18.9859 23.643 17.8902 24.7306 15.7824 24.7306L4.79335 24.7306C2.68379 24.7306 1.58984 23.643 1.58984 21.5592L1.58984 10.5043C1.58984 8.41249 2.68379 7.3328 4.79335 7.3328L15.7824 7.3328C17.8902 7.3328 18.9859 8.4205 18.9859 10.5043ZM5.03164 20.5644C5.03164 20.8715 5.28632 21.1422 5.59335 21.1422C5.89238 21.1422 6.1746 20.8715 6.1746 20.5644C6.1746 20.2734 5.89238 19.9992 5.59335 19.9992C5.28632 19.9992 5.03164 20.2734 5.03164 20.5644ZM13.9918 20.5644C13.9918 20.8715 14.2562 21.1422 14.565 21.1422C14.8641 21.1422 15.1365 20.8715 15.1365 20.5644C15.1365 20.2734 14.8641 19.9992 14.565 19.9992C14.2562 19.9992 13.9918 20.2734 13.9918 20.5644ZM6.38984 19.6908C6.38984 19.9926 6.64453 20.2605 6.95507 20.2605C7.2621 20.2605 7.53456 20.0006 7.53456 19.6908C7.53456 19.3918 7.2621 19.1113 6.95507 19.1113C6.63652 19.1113 6.38984 19.3918 6.38984 19.6908ZM12.6238 19.6908C12.6238 20.0006 12.9025 20.2605 13.2033 20.2605C13.5041 20.2605 13.7783 19.9926 13.7783 19.6908C13.7783 19.3918 13.5041 19.1113 13.2033 19.1113C12.9025 19.1113 12.6238 19.3918 12.6238 19.6908ZM7.91679 19.1848C7.91679 19.4723 8.18124 19.7527 8.49003 19.7527C8.79531 19.7527 9.05175 19.4723 9.05175 19.1848C9.05175 18.8644 8.7873 18.6133 8.49003 18.6133C8.18124 18.6133 7.91679 18.8644 7.91679 19.1848ZM11.0986 19.1848C11.0986 19.4723 11.3631 19.7527 11.6719 19.7527C11.9789 19.7527 12.2514 19.4723 12.2514 19.1848C12.2514 18.8644 11.9789 18.6133 11.6719 18.6133C11.3631 18.6133 11.0986 18.8644 11.0986 19.1848ZM10.0197 14.19C9.2287 12.7637 7.70839 12.04 6.11835 12.04C5.80781 12.04 5.64628 12.2361 5.65781 12.5537C5.70468 13.9717 6.50663 16.5545 9.50585 16.8465L9.50585 18.9689C9.50585 19.2822 9.7748 19.5484 10.0853 19.5484C10.3906 19.5484 10.6498 19.2822 10.6498 18.9689L10.6498 16.8465C13.6846 16.6211 15.6326 14.5133 15.6166 11.4271C15.6166 11.0793 15.3894 10.8476 15.0113 10.8476C12.6664 10.8236 10.8613 12.0846 10.0197 14.19ZM10.7908 15.6902C11.2037 13.5904 12.5422 12.2316 14.4391 12.0357C14.259 14.0349 12.8611 15.423 10.7908 15.6902ZM9.41367 15.6787C7.98417 15.4719 7.16444 14.4803 6.88671 13.2894C8.01542 13.4953 9.09492 14.2492 9.41367 15.6787Z" fill="white" fill-opacity="0.25"/>
 </g>
</svg>
