<?xml version="1.0" encoding="UTF-8"?>
<!--Generator: Apple Native CoreSVG 341-->
<!DOCTYPE svg
PUBLIC "-//W3C//DTD SVG 1.1//EN"
       "http://www.w3.org/Graphics/SVG/1.1/DTD/svg11.dtd">
<svg version="1.1" xmlns="http://www.w3.org/2000/svg" xmlns:xlink="http://www.w3.org/1999/xlink" viewBox="0 0 20.0689 19.6613">
 <g>
  <rect height="19.6613" opacity="0" width="20.0689" x="0" y="0"/>
  <path d="M5.35624 19.6613L14.3434 19.6613C16.1205 19.6613 17.5162 19.4664 18.5193 18.4633C19.5242 17.4601 19.7076 16.0777 19.7076 14.2971L19.7076 5.37578C19.7076 3.59336 19.5242 2.21719 18.5193 1.21582C17.5144 0.212694 16.1205 0.0195312 14.3434 0.0195312L5.34023 0.0195312C3.58711 0.0195312 2.1914 0.212694 1.18652 1.21582C0.183397 2.2207 0 3.60137 0 5.35976L0 14.2971C0 16.0777 0.183397 17.4619 1.18652 18.4633C2.19316 19.4664 3.58711 19.6613 5.35624 19.6613ZM5.09081 17.7463C4.07792 17.7463 3.13046 17.6061 2.58221 17.0596C2.04374 16.5193 1.91327 15.5852 1.91327 14.5705L1.91327 5.13437C1.91327 4.09394 2.04374 3.15976 2.58221 2.61151C3.13046 2.07303 4.08593 1.9328 5.11484 1.9328L14.6168 1.9328C15.6297 1.9328 16.5754 2.07303 17.1174 2.61952C17.6639 3.15976 17.7943 4.09394 17.7943 5.11035L17.7943 14.5705C17.7943 15.5852 17.6639 16.5193 17.1174 17.0596C16.5754 17.6061 15.6297 17.7463 14.6168 17.7463Z" fill="white" fill-opacity="0.25"/>
  <path d="M5.57753 7.74081C6.3457 7.82343 6.94863 6.97538 6.89628 6.29784C6.12636 6.3289 5.55448 7.01269 5.57753 7.74081ZM8.20429 11.0353C7.84023 10.8693 7.5996 10.6305 7.46816 10.2877C7.32519 9.91211 7.34472 9.53554 7.46816 9.2123C7.53652 8.99648 7.67949 8.72832 8.0498 8.50898C7.77363 8.0996 7.33495 7.89003 6.82343 7.89003C6.24355 7.89003 5.90527 8.19374 5.61484 8.19374C5.36796 8.19374 5.09179 7.8998 4.62206 7.8998C4.1203 7.8998 3.70565 8.10761 3.43925 8.4539C3.11952 8.85175 2.98456 9.33925 2.98456 9.84101C2.98456 10.6695 3.34686 11.6393 3.8912 12.2502C4.18515 12.5654 4.40448 12.7279 4.66112 12.7279C5.05273 12.7279 5.26054 12.4437 5.72851 12.4437C5.93632 12.4437 6.10683 12.5299 6.23027 12.5654C6.42206 12.6285 6.55527 12.7164 6.77284 12.7164C7.01171 12.7164 7.19999 12.6205 7.32695 12.5068C7.74159 12.1062 8.06933 11.5176 8.20429 11.0353ZM10.808 6.76581L9.8205 6.76581L9.8205 7.89003L9.13671 7.89003L9.13671 8.65195L9.8205 8.65195L9.8205 11.4137C9.8205 12.3719 10.2023 12.7164 11.1738 12.7164C11.3869 12.7164 11.6223 12.6889 11.7049 12.6791L11.7049 11.8719C11.6596 11.8994 11.4908 11.8994 11.3869 11.8994C10.9918 11.8994 10.808 11.7369 10.808 11.3L10.808 8.65195L11.7279 8.65195L11.7279 7.89003L10.808 7.89003ZM14.9559 12.6791L16.6875 7.89003L15.6139 7.89003L14.4471 11.7369L13.2127 7.89003L12.1666 7.89003L13.9258 12.6791Z" fill="white" fill-opacity="0.25"/>
 </g>
</svg>
