<?xml version="1.0" encoding="UTF-8"?>
<!--Generator: Apple Native CoreSVG 341-->
<!DOCTYPE svg
PUBLIC "-//W3C//DTD SVG 1.1//EN"
       "http://www.w3.org/Graphics/SVG/1.1/DTD/svg11.dtd">
<svg version="1.1" xmlns="http://www.w3.org/2000/svg" xmlns:xlink="http://www.w3.org/1999/xlink" viewBox="0 0 20.0013 19.6812">
 <g>
  <rect height="19.6812" opacity="0" width="20.0013" x="0" y="0"/>
  <path d="M9.17147 16.4871C9.62284 16.4871 10.0006 16.1129 10.0006 15.658L10.0006 11.1734C15.9064 10.832 19.6721 6.85898 19.64 0.893942C19.64 0.360936 19.3262 0.0373048 18.7851 0.0373048C14.0971-0.00273466 10.5906 2.61211 9.10858 6.95645C7.68066 3.92109 4.69296 2.36387 1.46991 2.37187C1.02753 2.37187 0.824605 2.60312 0.858198 3.07206C1.10585 5.80253 2.47558 10.7451 8.33261 11.1717L8.33261 15.658C8.33261 16.1129 8.71835 16.4871 9.17147 16.4871ZM8.25917 9.47539C5.02577 9.16582 3.09705 6.93593 2.61639 4.1621C5.21991 4.50975 7.61035 6.28202 8.25917 9.47539ZM10.201 9.47715C10.983 5.0287 13.8896 2.06366 17.9127 1.7787C17.6992 6.03046 14.6295 9.06738 10.201 9.47715Z" fill="white" fill-opacity="0.25"/>
  <path d="M0.918942 19.6812C1.42187 19.6812 1.83788 19.267 1.83788 18.7641C1.83788 18.2514 1.42187 17.8371 0.918942 17.8371C0.416014 17.8371 0 18.2514 0 18.7641C0 19.267 0.416014 19.6812 0.918942 19.6812ZM3.42441 17.9351C3.92734 17.9351 4.34335 17.5209 4.34335 17.01C4.34335 16.5053 3.92734 16.091 3.42441 16.091C2.92148 16.091 2.50547 16.5053 2.50547 17.01C2.50547 17.5209 2.92148 17.9351 3.42441 17.9351ZM6.26112 16.9205C6.76405 16.9205 7.18007 16.5062 7.18007 16.0033C7.18007 15.4986 6.76405 15.0844 6.26112 15.0844C5.7582 15.0844 5.34218 15.4986 5.34218 16.0033C5.34218 16.5062 5.7582 16.9205 6.26112 16.9205ZM12.0721 16.9205C12.5767 16.9205 12.991 16.5062 12.991 16.0033C12.991 15.4986 12.5767 15.0844 12.0721 15.0844C11.5691 15.0844 11.1549 15.4986 11.1549 16.0033C11.1549 16.5062 11.5691 16.9205 12.0721 16.9205ZM14.9088 17.9351C15.4135 17.9351 15.8277 17.5209 15.8277 17.01C15.8277 16.5053 15.4135 16.091 14.9088 16.091C14.4058 16.091 13.9916 16.5053 13.9916 17.01C13.9916 17.5209 14.4058 17.9351 14.9088 17.9351ZM17.416 19.6812C17.9189 19.6812 18.3332 19.267 18.3332 18.7641C18.3332 18.2514 17.9189 17.8371 17.416 17.8371C16.9113 17.8371 16.4971 18.2514 16.4971 18.7641C16.4971 19.267 16.9113 19.6812 17.416 19.6812Z" fill="white" fill-opacity="0.25"/>
 </g>
</svg>
