<?xml version="1.0" encoding="UTF-8"?>
<!--Generator: Apple Native CoreSVG 341-->
<!DOCTYPE svg
PUBLIC "-//W3C//DTD SVG 1.1//EN"
       "http://www.w3.org/Graphics/SVG/1.1/DTD/svg11.dtd">
<svg version="1.1" xmlns="http://www.w3.org/2000/svg" xmlns:xlink="http://www.w3.org/1999/xlink" viewBox="0 0 32.8205 21.4726">
 <g>
  <rect height="21.4726" opacity="0" width="32.8205" x="0" y="0"/>
  <path d="M3.86796 17.4058C4.1998 17.0226 4.09687 16.5303 3.72597 16.1105C2.45429 14.6994 1.74296 12.8047 1.74296 10.7314C1.74296 8.65995 2.45253 6.76346 3.72597 5.35409C4.09863 4.93436 4.20332 4.44198 3.86796 4.05878C3.52734 3.65253 2.92949 3.63769 2.49863 4.10585C0.910938 5.81972 0 8.19686 0 10.7314C0 13.2695 0.886329 15.6228 2.49863 17.3588C2.93301 17.8252 3.5291 17.8058 3.86796 17.4058ZM28.5912 17.4058C28.93 17.8058 29.5261 17.8252 29.9685 17.3588C31.5826 15.6228 32.4591 13.2695 32.4591 10.7314C32.4591 8.19686 31.558 5.81972 29.9685 4.10585C29.5314 3.63769 28.9335 3.65253 28.5912 4.05878C28.2576 4.44198 28.3605 4.93436 28.7332 5.35409C30.0084 6.76522 30.7162 8.65995 30.7162 10.7314C30.7162 12.8047 30.0048 14.6994 28.7332 16.1105C28.364 16.5303 28.2593 17.0226 28.5912 17.4058Z" fill="white" fill-opacity="0.25"/>
  <path d="M6.71659 14.6068C7.03964 14.2271 6.9162 13.756 6.59316 13.3168C6.05292 12.6336 5.76796 11.6961 5.76796 10.7314C5.76796 9.76678 6.05292 8.81952 6.59316 8.14256C6.91444 7.70506 7.03964 7.23573 6.71659 6.85429C6.37323 6.44452 5.73105 6.43749 5.33476 6.91561C4.49746 7.93163 4.025 9.28358 4.025 10.7314C4.025 12.1793 4.49746 13.5312 5.33476 14.5437C5.73105 15.0236 6.37323 15.0086 6.71659 14.6068ZM25.7425 14.6068C26.0859 15.0086 26.7281 15.0236 27.1244 14.5437C27.9634 13.5312 28.4421 12.1793 28.4421 10.7314C28.4421 9.28358 27.9634 7.93163 27.1244 6.91561C26.7281 6.43749 26.0859 6.44452 25.7425 6.85429C25.4195 7.23573 25.5527 7.70506 25.866 8.14256C26.4062 8.81952 26.6992 9.76678 26.6992 10.7314C26.6992 11.6961 26.4062 12.6336 25.866 13.3168C25.5509 13.756 25.4195 14.2271 25.7425 14.6068Z" fill="white" fill-opacity="0.25"/>
  <path d="M9.14549 14.7859C9.14549 16.3066 9.73416 17.4217 10.8615 18.064C11.4029 18.3683 11.7277 18.7437 11.9398 19.3822L12.3174 20.5168C12.5142 21.1541 12.9888 21.4726 13.6713 21.4726L18.241 21.4726C18.9492 21.4726 19.39 21.1621 19.6029 20.5168L19.9804 19.3822C20.1943 18.7437 20.5111 18.3683 21.0588 18.064C22.1781 17.4217 22.7685 16.3084 22.7685 14.7859L22.7685 6.70097C22.7685 5.17851 22.1781 4.07324 21.0588 3.42285C20.5111 3.11855 20.1943 2.74316 19.9804 2.11269L19.6029 0.970116C19.4078 0.34082 18.9412 0.014258 18.241 0.014258L13.6713 0.014258C12.9888 0.014258 12.5142 0.332812 12.3174 0.970116L11.9398 2.11269C11.7305 2.74218 11.4021 3.13535 10.8615 3.42285C9.74217 4.04745 9.14549 5.16425 9.14549 6.70097ZM10.8437 14.4807L10.8437 7.01425C10.8437 5.58729 11.667 4.73299 13.0594 4.73299L18.8627 4.73299C20.247 4.73299 21.072 5.58905 21.072 7.01425L21.072 14.4807C21.072 15.8978 20.247 16.7521 18.8627 16.7521L13.0594 16.7521C11.667 16.7521 10.8437 15.8996 10.8437 14.4807ZM22.4465 10.0892L22.8605 10.0892C23.406 10.0892 23.7732 9.71229 23.7732 9.10995L23.7732 7.77402C23.7732 7.17695 23.406 6.79648 22.8605 6.79648L22.4465 6.79648Z" fill="white" fill-opacity="0.25"/>
 </g>
</svg>
