<?xml version="1.0" encoding="UTF-8"?>
<!--Generator: Apple Native CoreSVG 341-->
<!DOCTYPE svg
PUBLIC "-//W3C//DTD SVG 1.1//EN"
       "http://www.w3.org/Graphics/SVG/1.1/DTD/svg11.dtd">
<svg version="1.1" xmlns="http://www.w3.org/2000/svg" xmlns:xlink="http://www.w3.org/1999/xlink" viewBox="0 0 20.0689 19.6613">
 <g>
  <rect height="19.6613" opacity="0" width="20.0689" x="0" y="0"/>
  <path d="M18.5193 1.21582C19.5242 2.21719 19.7076 3.59336 19.7076 5.37578L19.7076 14.2971C19.7076 16.0777 19.5242 17.4601 18.5193 18.4633C17.5162 19.4664 16.1205 19.6613 14.3434 19.6613L5.35624 19.6613C3.58711 19.6613 2.19316 19.4664 1.18652 18.4633C0.183397 17.4619 0 16.0777 0 14.2971L0 5.35976C0 3.60137 0.183397 2.2207 1.18652 1.21582C2.1914 0.212694 3.58711 0.0195312 5.34023 0.0195312L14.3434 0.0195312C16.1205 0.0195312 17.5144 0.212694 18.5193 1.21582ZM5.44999 8.14765C5.19335 8.14765 4.90741 7.84042 4.42265 7.84042C3.8996 7.84042 3.47167 8.05175 3.19198 8.41582C2.86425 8.82695 2.72753 9.32949 2.72753 9.85429C2.72753 10.7156 3.0996 11.7217 3.66874 12.3539C3.97245 12.6824 4.1953 12.8547 4.46171 12.8547C4.86659 12.8547 5.08417 12.559 5.57519 12.559C5.78476 12.559 5.96503 12.6469 6.09199 12.6824C6.29355 12.7455 6.42851 12.8369 6.65585 12.8369C6.90624 12.8369 7.09628 12.7375 7.233 12.6238C7.65917 12.2037 8.00019 11.5965 8.14492 11.0947C7.76132 10.9189 7.51542 10.6766 7.37597 10.3205C7.22949 9.92539 7.25078 9.53554 7.37597 9.20078C7.45234 8.97343 7.59706 8.6955 7.9789 8.47089C7.69121 8.04374 7.24101 7.83066 6.70644 7.83066C6.10351 7.83066 5.7537 8.14765 5.44999 8.14765ZM9.8205 6.66035L9.8205 7.83066L9.11191 7.83066L9.11191 8.61738L9.8205 8.61738L9.8205 11.4846C9.8205 12.4791 10.2139 12.8369 11.2217 12.8369C11.4463 12.8369 11.6932 12.8076 11.774 12.7978L11.774 11.9641C11.7305 11.9916 11.5502 11.9916 11.4463 11.9916C11.0379 11.9916 10.8443 11.8193 10.8443 11.3709L10.8443 8.61738L11.7988 8.61738L11.7988 7.83066L10.8443 7.83066L10.8443 6.66035ZM12.2588 7.83066L14.0791 12.7978L15.1553 12.7978L16.9445 7.83066L15.8346 7.83066L14.6234 11.8193L13.343 7.83066ZM5.41269 7.67167C6.21367 7.75429 6.84316 6.88144 6.77929 6.17109C5.98456 6.21015 5.3914 6.91874 5.41269 7.67167Z" fill="white" fill-opacity="0.25"/>
 </g>
</svg>
