<?xml version="1.0" encoding="UTF-8"?>
<!--Generator: Apple Native CoreSVG 341-->
<!DOCTYPE svg
PUBLIC "-//W3C//DTD SVG 1.1//EN"
       "http://www.w3.org/Graphics/SVG/1.1/DTD/svg11.dtd">
<svg version="1.1" xmlns="http://www.w3.org/2000/svg" xmlns:xlink="http://www.w3.org/1999/xlink" viewBox="0 0 8.9742 21.9715">
 <g>
  <rect height="21.9715" opacity="0" width="8.9742" x="0" y="0"/>
  <path d="M2.42324 21.9555L6.19764 21.9555C7.72381 21.9555 8.61287 21.0672 8.61287 19.5568L8.61287 2.39863C8.61287 0.88828 7.72381 0 6.19764 0L2.44433 0C0.897849 0 0 0.88828 0 2.39863L0 19.5568C0 21.0672 0.88906 21.9555 2.42324 21.9555ZM4.30956 8.40605C2.60253 8.40605 1.22753 7.03456 1.22753 5.32753C1.22753 3.633 2.60253 2.25976 4.30956 2.25976C6.00858 2.25976 7.39335 3.633 7.39335 5.32753C7.39335 7.03456 6.00858 8.40605 4.30956 8.40605ZM2.78456 11.433C2.16855 11.433 1.66796 10.9244 1.66796 10.3057C1.66796 9.68612 2.15878 9.18905 2.78456 9.18905C3.40683 9.18905 3.90214 9.68437 3.90214 10.3057C3.90214 10.9262 3.3953 11.433 2.78456 11.433ZM5.8496 11.433C5.22909 11.433 4.7205 10.9244 4.7205 10.3057C4.7205 9.68437 5.22558 9.18905 5.8496 9.18905C6.46561 9.18905 6.95468 9.68612 6.95468 10.3057C6.95468 10.9164 6.45409 11.433 5.8496 11.433ZM2.78456 14.3826C2.16679 14.3826 1.66796 13.8793 1.66796 13.2615C1.66796 12.6473 2.16679 12.1404 2.78456 12.1404C3.40507 12.1404 3.90214 12.6392 3.90214 13.2615C3.90214 13.8873 3.40507 14.3826 2.78456 14.3826ZM2.78456 17.3455C2.16679 17.3455 1.66796 16.8387 1.66796 16.2244C1.66796 15.6004 2.16679 15.0935 2.78456 15.0935C3.39706 15.0935 3.90214 15.5986 3.90214 16.2244C3.90214 16.8467 3.40507 17.3455 2.78456 17.3455ZM5.84159 17.3455C5.27167 17.3455 4.79765 16.8697 4.79765 16.298L4.79765 13.1941C4.79765 12.6162 5.26366 12.1404 5.84159 12.1404C6.42206 12.1404 6.89882 12.6189 6.89882 13.1941L6.89882 16.298C6.89882 16.8767 6.42382 17.3455 5.84159 17.3455Z" fill="white" fill-opacity="0.25"/>
 </g>
</svg>
