<?xml version="1.0" encoding="UTF-8"?>
<!--Generator: Apple Native CoreSVG 341-->
<!DOCTYPE svg
PUBLIC "-//W3C//DTD SVG 1.1//EN"
       "http://www.w3.org/Graphics/SVG/1.1/DTD/svg11.dtd">
<svg version="1.1" xmlns="http://www.w3.org/2000/svg" xmlns:xlink="http://www.w3.org/1999/xlink" viewBox="0 0 10.3451 22.007">
 <g>
  <rect height="22.007" opacity="0" width="10.3451" x="0" y="0"/>
  <path d="M0 19.6527C0 21.0701 0.929685 21.9572 2.4287 21.9572L7.55682 21.9572C9.04607 21.9572 9.98377 21.0701 9.98377 19.6527L9.98377 2.30624C9.98377 0.896872 9.04607 0 7.55682 0L2.4287 0C0.929685 0 0 0.896872 0 2.30624ZM3.19003 12.7447C2.49159 12.7447 1.92714 12.1785 1.92714 11.4898C1.92714 10.7914 2.49159 10.2332 3.19003 10.2332C3.88847 10.2332 4.43866 10.7914 4.43866 11.4898C4.43866 12.1785 3.88847 12.7447 3.19003 12.7447ZM6.81327 12.7447C6.10682 12.7447 5.54862 12.1785 5.54862 11.4898C5.54862 10.7914 6.10682 10.2332 6.81327 10.2332C7.50194 10.2332 8.06014 10.7914 8.06014 11.4898C8.06014 12.1785 7.50194 12.7447 6.81327 12.7447ZM4.99276 8.90585C3.20702 8.90585 1.72128 7.43964 1.72128 5.63437C1.72128 3.83085 3.20702 2.36464 4.99276 2.36464C6.78827 2.36464 8.266 3.83085 8.266 5.63437C8.266 7.43964 6.78827 8.90585 4.99276 8.90585ZM5.00077 6.95233C5.73475 6.95233 6.32675 6.36835 6.32675 5.63437C6.32675 4.90214 5.73475 4.31191 5.00077 4.31191C4.26854 4.31191 3.66854 4.90214 3.66854 5.63437C3.66854 6.36835 4.26854 6.95233 5.00077 6.95233Z" fill="white" fill-opacity="0.25"/>
 </g>
</svg>
