<?xml version="1.0" encoding="UTF-8"?>
<!--Generator: Apple Native CoreSVG 341-->
<!DOCTYPE svg
PUBLIC "-//W3C//DTD SVG 1.1//EN"
       "http://www.w3.org/Graphics/SVG/1.1/DTD/svg11.dtd">
<svg version="1.1" xmlns="http://www.w3.org/2000/svg" xmlns:xlink="http://www.w3.org/1999/xlink" viewBox="0 0 25.7356 19.1884">
 <g>
  <rect height="19.1884" opacity="0" width="25.7356" x="0" y="0"/>
  <path d="M0.185021 12.8608C-0.572398 14.71 1.14459 15.6188 2.63794 14.5457C3.72622 13.7459 4.82778 12.9461 6.00922 12.0573L5.43755 11.7854C4.42056 13.1399 3.99458 14.3424 3.99458 15.3114C3.99458 17.6237 6.36001 18.758 8.82641 17.5055C9.53734 17.1448 9.25746 15.4735 7.97973 16.0471C6.51489 16.6969 5.59399 16.3852 5.59399 15.2202C5.59399 14.0998 6.44594 12.1694 8.35844 9.64009C9.03402 8.75435 7.94008 7.60533 7.01352 8.58775C5.39478 10.2436 3.10826 11.9082 1.1649 13.5551L1.6108 13.9082L6.19614 2.73814C6.54008 1.89069 5.01255 1.12018 4.53111 2.27545Z" fill="white" fill-opacity="0.25"/>
  <path d="M9.92954 14.8754C9.75844 15.2026 10.1262 15.5145 10.409 15.3664L11.9362 14.5608L10.7557 13.3803ZM11.2348 12.5038L12.8287 14.0995L13.4577 13.7668L24.9862 2.26685C25.5104 1.75064 25.5086 0.907086 24.9844 0.394392C24.4602-0.129825 23.6184-0.129825 23.1039 0.384626L11.5737 11.8811Z" fill="white" fill-opacity="0.25"/>
 </g>
</svg>
