<?xml version="1.0" encoding="UTF-8"?>
<!--Generator: Apple Native CoreSVG 341-->
<!DOCTYPE svg
PUBLIC "-//W3C//DTD SVG 1.1//EN"
       "http://www.w3.org/Graphics/SVG/1.1/DTD/svg11.dtd">
<svg version="1.1" xmlns="http://www.w3.org/2000/svg" xmlns:xlink="http://www.w3.org/1999/xlink" viewBox="0 0 10.2887 21.9715">
 <g>
  <rect height="21.9715" opacity="0" width="10.2887" x="0" y="0"/>
  <path d="M2.42324 21.9555L7.55213 21.9555C9.0783 21.9555 9.97537 21.0672 9.97537 19.5568L9.97537 2.39863C9.97537 0.88828 9.0783 0 7.55213 0L2.44433 0C0.905857 0 0 0.88828 0 2.39863L0 19.5568C0 21.0672 0.897068 21.9555 2.42324 21.9555ZM3.19667 8.58515C2.47773 8.58515 1.91152 8.00644 1.91152 7.30527C1.91152 6.59257 2.47597 6.02011 3.19667 6.02011C3.89609 6.02011 4.46679 6.59257 4.46679 7.30527C4.46679 8.00644 3.89433 8.58515 3.19667 8.58515ZM6.76971 8.58515C6.05878 8.58515 5.48456 8.00644 5.48456 7.30527C5.48456 6.59257 6.05702 6.02011 6.76971 6.02011C7.47714 6.02011 8.04784 6.59257 8.04784 7.30527C8.04784 8.00644 7.47538 8.58515 6.76971 8.58515ZM3.19667 12.2607C2.47597 12.2607 1.91152 11.6838 1.91152 10.9809C1.91152 10.2682 2.47597 9.6957 3.19667 9.6957C3.89609 9.6957 4.46679 10.2682 4.46679 10.9809C4.46679 11.6803 3.89609 12.2607 3.19667 12.2607ZM3.19667 15.9283C2.47597 15.9283 1.91152 15.3674 1.91152 14.6484C1.91152 13.9437 2.47597 13.3633 3.19667 13.3633C3.89609 13.3633 4.46679 13.9455 4.46679 14.6484C4.46679 15.3639 3.89609 15.9283 3.19667 15.9283ZM6.76171 15.9283C6.09862 15.9283 5.5705 15.4002 5.5705 14.7176L5.5705 10.9064C5.5705 10.2353 6.10038 9.6957 6.76171 9.6957C7.43983 9.6957 7.99022 10.2318 7.99022 10.9064L7.99022 14.7176C7.99022 15.4055 7.44159 15.9283 6.76171 15.9283Z" fill="white" fill-opacity="0.25"/>
 </g>
</svg>
