<?xml version="1.0" encoding="UTF-8"?>
<!--Generator: Apple Native CoreSVG 341-->
<!DOCTYPE svg
PUBLIC "-//W3C//DTD SVG 1.1//EN"
       "http://www.w3.org/Graphics/SVG/1.1/DTD/svg11.dtd">
<svg version="1.1" xmlns="http://www.w3.org/2000/svg" xmlns:xlink="http://www.w3.org/1999/xlink" viewBox="0 0 10.5586 22.007">
 <g>
  <rect height="22.007" opacity="0" width="10.5586" x="0" y="0"/>
  <path d="M0 19.6527C0 21.0701 0.929685 21.9572 2.4287 21.9572L7.76854 21.9572C9.2658 21.9572 10.1972 21.0701 10.1972 19.6527L10.1972 2.30624C10.1972 0.896872 9.2658 0 7.76854 0L2.4287 0C0.929685 0 0 0.896872 0 2.30624ZM5.10663 13.7398C4.38417 13.7398 3.81171 13.1674 3.81171 12.4592C3.81171 11.7367 4.38417 11.1723 5.10663 11.1723C5.81483 11.1723 6.38729 11.7367 6.38729 12.4592C6.38729 13.1674 5.81483 13.7398 5.10663 13.7398ZM5.10663 9.75331C3.24706 9.75331 1.72128 8.23105 1.72128 6.36796C1.72128 4.5084 3.24706 2.98437 5.10663 2.98437C6.96796 2.98437 8.48573 4.5084 8.48573 6.36796C8.48573 8.23105 6.96796 9.75331 5.10663 9.75331ZM5.10663 7.73398C5.86464 7.73398 6.4744 7.12597 6.4744 6.36796C6.4744 5.60996 5.86464 4.9957 5.10663 4.9957C4.35038 4.9957 3.73261 5.60996 3.73261 6.36796C3.73261 7.12597 4.35038 7.73398 5.10663 7.73398Z" fill="white" fill-opacity="0.25"/>
 </g>
</svg>
