<?xml version="1.0" encoding="UTF-8"?>
<!--Generator: Apple Native CoreSVG 341-->
<!DOCTYPE svg
PUBLIC "-//W3C//DTD SVG 1.1//EN"
       "http://www.w3.org/Graphics/SVG/1.1/DTD/svg11.dtd">
<svg version="1.1" xmlns="http://www.w3.org/2000/svg" xmlns:xlink="http://www.w3.org/1999/xlink" viewBox="0 0 17.5602 24.5594">
 <g>
  <rect height="24.5594" opacity="0" width="17.5602" x="0" y="0"/>
  <path d="M0.000526894 10.5916C-0.0172466 11.6574 0.414979 12.6336 1.24564 13.4625L5.35463 17.5812C3.7515 18.6699 3.0767 19.7377 3.0767 21.1189C3.0767 23.1851 4.71967 24.5008 6.53314 24.5318C7.54486 24.5514 8.46868 24.1715 9.1013 23.5344L16.0234 16.5892C17.6909 14.9199 17.5755 12.9127 15.7224 11.0658L11.9296 7.2748L13.1656 6.03085C13.8542 5.34042 14.2589 4.44413 14.2527 3.55761C14.282 1.55918 12.7406 0.00800788 10.7243 0C9.60345 0 8.72494 0.408202 7.76732 1.37832L1.03803 8.08633C0.374159 8.7457 0.0102925 9.62871 0.000526894 10.5916ZM4.45383 7.31718L9.08001 2.69101C9.69817 2.07108 10.1025 1.86581 10.7243 1.86581C11.6956 1.86581 12.4011 2.57128 12.4011 3.53456C12.4011 3.94589 12.2029 4.36015 11.8511 4.71816L6.83431 9.72872C6.63841 8.45156 5.78079 7.57441 4.45383 7.31718ZM1.91966 10.7125C1.91966 9.6869 2.56556 8.98495 3.50755 8.98495C4.48334 8.98495 5.16928 9.70468 5.16928 10.7703C5.16928 10.9492 5.16752 11.2978 5.01635 11.7139C4.72006 12.7381 5.97806 13.2326 6.62825 12.5699L10.6072 8.59549L14.4079 12.3803C15.5449 13.5119 15.6195 14.3598 14.7107 15.2748L9.83958 20.1477C9.66497 19.4022 9.197 18.8018 8.28099 17.8822L2.92141 12.4934C2.14798 11.7217 1.91966 11.2978 1.91966 10.7125ZM4.94426 21.1928C4.94426 20.3396 5.4472 19.699 6.70638 18.9295L7.00873 19.2318C7.92475 20.1594 8.18236 20.5742 8.19037 21.1945C8.19389 22.0066 7.46517 22.6545 6.5349 22.6545C5.69349 22.6545 4.94426 22.0627 4.94426 21.1928Z" fill="white" fill-opacity="0.25"/>
 </g>
</svg>
