<?xml version="1.0" encoding="UTF-8"?>
<!--Generator: Apple Native CoreSVG 341-->
<!DOCTYPE svg
PUBLIC "-//W3C//DTD SVG 1.1//EN"
       "http://www.w3.org/Graphics/SVG/1.1/DTD/svg11.dtd">
<svg version="1.1" xmlns="http://www.w3.org/2000/svg" xmlns:xlink="http://www.w3.org/1999/xlink" viewBox="0 0 20.6605 21.4601">
 <g>
  <rect height="21.4601" opacity="0" width="20.6605" x="0" y="0"/>
  <path d="M13.7648 0.955858L14.1504 2.09843C14.3545 2.7289 14.681 3.10429 15.2287 3.40859C16.3463 4.05898 16.9367 5.16425 16.9367 6.68671L16.9367 6.78222L17.0224 6.78222C17.5742 6.78222 17.9431 7.16269 17.9431 7.75976L17.9431 9.09569C17.9431 9.69628 17.5742 10.075 17.0224 10.075L16.9367 10.075L16.9367 14.7717C16.9367 16.2941 16.3463 17.4074 15.2287 18.0498C14.681 18.3541 14.3545 18.7277 14.1504 19.368L13.7648 20.5025C13.5599 21.1478 13.1111 21.4584 12.4109 21.4584L7.8412 21.4584C7.15878 21.4584 6.68417 21.1398 6.47929 20.5025L6.10175 19.368C5.89765 18.7277 5.57285 18.3541 5.02343 18.0498C3.9041 17.4074 3.31542 16.2924 3.31542 14.7717L3.31542 13.4099L5.01366 13.4099L5.01366 14.4664C5.01366 15.8853 5.8369 16.7379 7.22928 16.7379L13.0246 16.7379C14.4152 16.7379 15.242 15.8836 15.242 14.4664L15.242 6.99999C15.242 5.57479 14.4152 4.71874 13.0246 4.71874L7.22928 4.71874C5.8369 4.71874 5.01366 5.57303 5.01366 6.99999L5.01366 8.03866L3.31542 8.03866L3.31542 6.68671C3.31542 5.14823 3.9121 4.0332 5.02343 3.40859C5.57206 3.12109 5.90038 2.72793 6.10175 2.09843L6.47929 0.955858C6.68417 0.318554 7.15878 0 7.8412 0L12.4109 0C13.1031 0 13.5777 0.326562 13.7648 0.955858Z" fill="white" fill-opacity="0.25"/>
  <path d="M7.67401 14.8654C7.91698 14.8654 8.09959 14.7803 8.2619 14.618L11.3515 11.4322C11.5873 11.1965 11.6705 10.9715 11.6705 10.7252C11.6705 10.4709 11.5873 10.2539 11.3515 10.0182L8.2619 6.83241C8.09959 6.67011 7.91698 6.5832 7.67401 6.5832C7.20858 6.5832 6.87792 6.92988 6.87792 7.40155C6.87792 7.61698 6.97186 7.84842 7.14042 8.00272L8.5584 9.33437L10.1195 10.7252L8.5584 12.1142L7.14042 13.4459C6.97362 13.6002 6.87792 13.8414 6.87792 14.0568C6.87792 14.5285 7.20858 14.8654 7.67401 14.8654ZM1.12635 11.6074L7.86034 11.6074L10.01 11.5338C10.4506 11.5223 10.8185 11.1738 10.8185 10.7252C10.8185 10.2766 10.4506 9.92812 10.01 9.91659L7.86034 9.8412L1.12635 9.8332C0.652917 9.8332 0.265419 10.2402 0.265419 10.7252C0.265419 11.2101 0.652917 11.6074 1.12635 11.6074Z" fill="white" fill-opacity="0.25"/>
 </g>
</svg>
