<?xml version="1.0" encoding="UTF-8"?>
<!--Generator: Apple Native CoreSVG 341-->
<!DOCTYPE svg
PUBLIC "-//W3C//DTD SVG 1.1//EN"
       "http://www.w3.org/Graphics/SVG/1.1/DTD/svg11.dtd">
<svg version="1.1" xmlns="http://www.w3.org/2000/svg" xmlns:xlink="http://www.w3.org/1999/xlink" viewBox="0 0 20.5381 20.1848">
 <g>
  <rect height="20.1848" opacity="0" width="20.5381" x="0" y="0"/>
  <path d="M20.1767 10.0875C20.1767 15.6478 15.6576 20.175 10.0875 20.175C4.52715 20.175 0 15.6478 0 10.0875C0 4.51914 4.52715 0 10.0875 0C15.6576 0 20.1767 4.51914 20.1767 10.0875ZM4.82324 14.5793C4.82324 14.8846 5.07968 15.157 5.39472 15.157C5.69374 15.157 5.97597 14.8846 5.97597 14.5793C5.97597 14.2883 5.69374 14.0141 5.39472 14.0141C5.07968 14.0141 4.82324 14.2883 4.82324 14.5793ZM13.7932 14.5793C13.7932 14.8846 14.0576 15.157 14.3664 15.157C14.6637 15.157 14.9281 14.8846 14.9281 14.5793C14.9281 14.2883 14.6637 14.0141 14.3664 14.0141C14.0576 14.0141 13.7932 14.2883 13.7932 14.5793ZM6.18144 13.7057C6.18144 14.0074 6.44589 14.2754 6.75644 14.2754C7.06347 14.2754 7.33593 14.0154 7.33593 13.7057C7.33593 13.4066 7.06347 13.1262 6.75644 13.1262C6.43789 13.1262 6.18144 13.4066 6.18144 13.7057ZM12.4252 13.7057C12.4252 14.0154 12.6959 14.2754 12.9949 14.2754C13.3055 14.2754 13.5779 14.0074 13.5779 13.7057C13.5779 13.4066 13.3055 13.1262 12.9949 13.1262C12.6959 13.1262 12.4252 13.4066 12.4252 13.7057ZM7.7164 13.1996C7.7164 13.4871 7.9746 13.7676 8.28339 13.7676C8.59667 13.7676 8.85136 13.4871 8.85136 13.1996C8.85136 12.8793 8.58867 12.6281 8.28339 12.6281C7.9746 12.6281 7.7164 12.8793 7.7164 13.1996ZM10.9 13.1996C10.9 13.4871 11.1644 13.7676 11.4732 13.7676C11.7803 13.7676 12.043 13.4871 12.043 13.1996C12.043 12.8793 11.7803 12.6281 11.4732 12.6281C11.1644 12.6281 10.9 12.8793 10.9 13.1996ZM9.81308 8.20488C9.02831 6.77851 7.508 6.05488 5.91972 6.05488C5.60742 6.05488 5.44589 6.25097 5.45117 6.56855C5.50429 7.98652 6.29824 10.5693 9.30722 10.8613L9.30722 12.9838C9.30722 13.2971 9.57441 13.5633 9.88671 13.5633C10.1902 13.5633 10.4512 13.2971 10.4512 12.9838L10.4512 10.8613C13.4779 10.6359 15.434 8.52812 15.41 5.44198C15.41 5.09413 15.1908 4.86249 14.8047 4.86249C12.4598 4.83847 10.6627 6.09941 9.81308 8.20488ZM10.5904 9.70507C11.0051 7.60526 12.3436 6.24647 14.2307 6.05058C14.0604 8.04804 12.6625 9.43613 10.5904 9.70507ZM9.21503 9.69179C7.78554 9.48671 6.96405 8.49511 6.68632 7.30253C7.81503 7.51015 8.88828 8.26405 9.21503 9.69179Z" fill="white" fill-opacity="0.25"/>
 </g>
</svg>
