<?xml version="1.0" encoding="UTF-8"?>
<!--Generator: Apple Native CoreSVG 341-->
<!DOCTYPE svg
PUBLIC "-//W3C//DTD SVG 1.1//EN"
       "http://www.w3.org/Graphics/SVG/1.1/DTD/svg11.dtd">
<svg version="1.1" xmlns="http://www.w3.org/2000/svg" xmlns:xlink="http://www.w3.org/1999/xlink" viewBox="0 0 24.7951 23.6875">
 <g>
  <rect height="23.6875" opacity="0" width="24.7951" x="0" y="0"/>
  <path d="M19.9459 5.96408L18.5539 6.27006C17.9186 4.97081 16.794 3.96096 15.417 3.47505C16.3467 4.27683 17.0589 5.32181 17.456 6.51189C16.9596 6.62405 16.5291 6.83332 16.1916 7.12364C15.6759 5.41591 14.3731 4.05848 12.7015 3.47086C14.1876 4.7539 15.126 6.6509 15.126 8.76504C15.126 10.8825 14.1876 12.781 12.7016 14.0647C13.7889 13.684 14.7192 12.9741 15.3752 12.0524L15.3836 15.4664L14.6068 15.6424C14.4451 15.6782 14.2878 15.7179 14.1359 15.7619C13.9322 15.7841 13.7249 15.7934 13.5154 15.7934C13.0524 15.7934 12.5997 15.7486 12.1624 15.6604C11.7261 15.7486 11.2744 15.7934 10.8123 15.7934C10.3471 15.7934 9.89256 15.7482 9.45359 15.6595C9.01531 15.7482 8.56165 15.7934 8.09765 15.7934C4.22168 15.7934 1.07383 12.6473 1.07383 8.76504C1.07383 4.88906 4.21992 1.74297 8.09765 1.74297C8.56128 1.74297 9.01459 1.78802 9.45253 1.87664C9.89125 1.78803 10.3456 1.74297 10.8105 1.74297C11.2726 1.74297 11.7243 1.78768 12.1605 1.87585C12.5978 1.78768 13.0505 1.74297 13.5137 1.74297C16.3889 1.74297 18.8657 3.47984 19.9459 5.96408ZM2.46464 8.76504C2.46464 11.2175 4.01998 13.2955 6.20402 14.0651C4.71834 12.7814 3.78222 10.8827 3.78222 8.76504C3.78222 6.65013 4.71753 4.75338 6.20236 3.47063C4.01843 4.23852 2.46464 6.31157 2.46464 8.76504ZM5.1873 8.76504C5.1873 11.2083 6.72505 13.2799 8.89461 14.0562C7.41216 12.7729 6.47734 10.878 6.47734 8.76504C6.47734 6.65504 7.41069 4.76218 8.8919 3.47981C6.72416 4.25458 5.1873 6.32107 5.1873 8.76504ZM7.87792 8.76504C7.87792 10.9018 9.05325 12.7543 10.8021 13.7081C12.5495 12.754 13.7301 10.9009 13.7289 8.76504C13.7289 6.62703 12.5482 4.7779 10.8016 3.82641C9.05325 4.7779 7.87792 6.62703 7.87792 8.76504Z" fill="white" fill-opacity="0.25"/>
  <path d="M23.368 11.0461L23.368 7.68202C23.368 7.14726 22.9166 6.77304 22.3898 6.883L17.7777 7.89687C17.1461 8.03437 16.7947 8.38476 16.7947 8.94277L16.8107 16.0336C16.8107 16.4246 16.6703 16.6566 16.3299 16.726L14.8988 17.0385C13.0455 17.4361 12.1572 18.376 12.1572 19.8057C12.1572 21.2406 13.2666 22.2603 14.8285 22.2603C16.3008 22.2603 18.242 21.1465 18.242 18.5775L18.242 13.206C18.242 12.8023 18.3033 12.7375 18.6635 12.6539L22.7853 11.7457C23.1445 11.6605 23.368 11.3928 23.368 11.0461Z" fill="white" fill-opacity="0.25"/>
 </g>
</svg>
