<?xml version="1.0" encoding="UTF-8"?>
<!--Generator: Apple Native CoreSVG 341-->
<!DOCTYPE svg
PUBLIC "-//W3C//DTD SVG 1.1//EN"
       "http://www.w3.org/Graphics/SVG/1.1/DTD/svg11.dtd">
<svg version="1.1" xmlns="http://www.w3.org/2000/svg" xmlns:xlink="http://www.w3.org/1999/xlink" viewBox="0 0 22.8752 23.1">
 <g>
  <rect height="23.1" opacity="0" width="22.8752" x="0" y="0"/>
  <path d="M16.2537 21.7508C17.9231 20.9672 18.3418 19.3725 18.3545 17.2916C18.368 15.9855 18.219 14.4769 18.5307 13.0781C18.8326 11.7193 19.6352 10.4228 20.1891 9.21972C21.0727 7.37656 21.3772 5.74199 20.2412 4.30605C19.0813 2.86484 17.4307 2.80195 15.4137 3.2498C14.1244 3.54805 12.6744 4.00605 11.2578 4.00605C9.83772 4.00605 8.39299 3.54805 7.10998 3.2498C5.08323 2.79395 3.42288 2.86484 2.28245 4.30254C1.13499 5.74023 1.44124 7.37304 2.32307 9.21444C2.87874 10.4211 3.67151 11.7158 3.98323 13.0914C4.29495 14.4769 4.14593 15.9873 4.1594 17.2916C4.1721 19.3725 4.59085 20.9672 6.2637 21.7525C6.75803 21.9939 7.24436 22.1049 7.72092 22.1049C8.83459 22.1049 9.91721 21.5121 11.0416 20.6178C12.0965 19.8135 13.2137 18.7543 14.4801 18.1424C15.7653 17.5207 17.2481 17.335 18.5221 17.032C20.5489 16.5535 22.0069 15.7904 22.4248 13.9951C22.8375 12.2113 21.8498 10.8607 20.2403 9.57832C19.2006 8.73828 17.9416 7.90527 17.049 6.79863C16.1725 5.69472 15.6725 4.29277 15.0881 3.10038C14.1703 1.2539 13.0967 0 11.2578 0C9.42346 0 8.34358 1.25215 7.4303 3.10214C6.84769 4.29277 6.33968 5.68847 5.45686 6.79863C4.57229 7.91328 3.31331 8.73828 2.27991 9.57832C0.672099 10.8607-0.313837 12.2113 0.0908501 13.9951C0.503545 15.7887 1.95979 16.5535 3.97756 17.032C5.27385 17.335 6.75041 17.5207 8.03733 18.1441C9.29222 18.7543 10.4174 19.8055 11.4643 20.6258C12.5922 21.5121 13.6731 22.1049 14.785 22.1049C15.2696 22.1049 15.7559 21.9939 16.2537 21.7508ZM15.4463 20.0836C14.3983 20.5686 13.5278 19.8408 12.6447 19.1676C11.4711 18.2658 10.2184 17.1189 8.85725 16.4637C7.45783 15.7906 5.81467 15.5375 4.38205 15.208C3.2965 14.9396 2.17873 14.7109 1.9176 13.5768C1.66447 12.4523 2.56896 11.7611 3.42697 11.0486C4.57111 10.1244 5.96213 9.17089 6.91135 7.96952C7.88537 6.7744 8.46955 5.22714 9.12307 3.90546C9.6215 2.89901 10.1024 1.87108 11.2578 1.87108C12.4178 1.87108 12.8924 2.89725 13.3909 3.90722C14.0381 5.22714 14.6321 6.76815 15.5946 7.96952C16.5535 9.1789 17.9348 10.1244 19.0807 11.0486C19.953 11.7611 20.8494 12.4523 20.5963 13.5768C20.3352 14.7092 19.2174 14.9396 18.1248 15.208C16.7571 15.5197 15.0561 15.7906 13.6532 16.4672C12.2955 17.1189 11.0108 18.2818 9.86917 19.1756C8.98616 19.8408 8.10412 20.5686 7.06584 20.0818C6.03732 19.5773 6.04924 18.4301 6.03049 17.3082C6.01701 15.8436 6.1465 14.1746 5.80646 12.6562C5.46545 11.1965 4.64357 9.74492 4.00275 8.38671C3.54806 7.38202 3.02287 6.36777 3.73693 5.47694C4.46877 4.57284 5.56194 4.83866 6.65901 5.06952C8.08909 5.38807 9.70217 5.87889 11.2578 5.87889C12.81 5.87889 14.4231 5.38807 15.8532 5.06952C16.952 4.83065 18.0451 4.57284 18.7655 5.47343C19.4893 6.36601 18.9659 7.38027 18.5129 8.3832C17.8703 9.74316 17.0422 11.1947 16.7119 12.6695C16.3674 14.1746 16.4969 15.8453 16.4834 17.3082C16.4647 18.4301 16.4846 19.5773 15.4463 20.0836Z" fill="white" fill-opacity="0.25"/>
 </g>
</svg>
