<?xml version="1.0" encoding="UTF-8"?>
<!--Generator: Apple Native CoreSVG 341-->
<!DOCTYPE svg
PUBLIC "-//W3C//DTD SVG 1.1//EN"
       "http://www.w3.org/Graphics/SVG/1.1/DTD/svg11.dtd">
<svg version="1.1" xmlns="http://www.w3.org/2000/svg" xmlns:xlink="http://www.w3.org/1999/xlink" viewBox="0 0 21.1293 20.1812">
 <g>
  <rect height="20.1812" opacity="0" width="21.1293" x="0" y="0"/>
  <path d="M20.768 8.9371C20.768 15.3381 15.6754 20.1715 9.65078 20.1715C3.98652 20.1715 0 16.4344 0 11.143C0 4.93281 5.86484 0 11.7297 0C16.8826 0 20.768 3.90664 20.768 8.9371ZM8.29492 5.96015C7.08632 5.67597 6.20292 5.78515 5.62851 6.51757C5.03105 7.28554 5.15097 8.15468 5.67577 9.25937C4.7078 10.023 4.25507 10.7652 4.4539 11.6769C4.683 12.6545 5.47148 13.0752 6.59824 13.3416C6.61425 14.6391 6.91699 15.4141 7.7541 15.81C7.99199 15.9307 8.29296 15.9875 8.54238 15.9875C9.12656 15.9875 9.70722 15.6803 10.3955 15.159C11.1016 15.7061 11.6822 15.9875 12.2566 15.9875C12.5336 15.9875 12.799 15.9307 13.0564 15.81C13.8803 15.4141 14.1928 14.6711 14.207 13.3416C15.316 13.0734 16.1062 12.6562 16.3469 11.6769C16.5537 10.767 16.101 10.0328 15.133 9.24511C15.6961 8.06484 15.7439 7.24726 15.1705 6.5291C14.5801 5.76913 13.6727 5.69374 12.5184 5.96015C11.9758 4.87324 11.3268 4.24999 10.3973 4.24999C9.43222 4.24999 8.83749 4.86171 8.29492 5.96015ZM8.68281 13.918C8.96542 14.0566 9.23027 14.2264 9.48086 14.4121C9.05957 14.7365 8.66855 14.9961 8.21796 14.7926C7.82167 14.6016 7.75683 14.1607 7.7328 13.5865C8.06249 13.6656 8.37441 13.766 8.68281 13.918ZM12.5678 14.7943C12.1492 14.9801 11.76 14.7605 11.3066 14.4219C11.5572 14.2344 11.8318 14.0566 12.1162 13.9162C12.4148 13.766 12.741 13.6576 13.0689 13.5865C13.0529 14.1447 12.9801 14.5855 12.5678 14.7943ZM10.8068 7.74256C11.2181 7.80056 11.6232 7.79451 12.0201 7.76091C12.1937 8.18454 12.3939 8.62946 12.6652 9.03611C12.868 9.39353 13.1418 9.69666 13.4227 10.0006C13.2 10.4006 12.9774 10.8369 12.8303 11.3008C12.6895 11.6838 12.6145 12.0685 12.5697 12.4594C12.0953 12.5309 11.6006 12.6369 11.1361 12.8248C10.7563 12.9297 10.4014 13.1199 10.0537 13.3252C9.70606 13.0092 9.30606 12.6977 8.90254 12.468C8.56386 12.2256 8.18964 12.0678 7.80135 11.9162C7.8285 11.4569 7.84413 10.9674 7.77264 10.4699C7.74607 10.0766 7.64744 9.69747 7.53552 9.31407C7.92536 9.04629 8.32048 8.74043 8.64528 8.38301C8.94919 8.10917 9.18279 7.78202 9.4074 7.46033C9.84998 7.59412 10.3226 7.70037 10.8068 7.74256ZM15.2168 11.4393C15.1199 11.8951 14.7111 12.0311 14.1787 12.1715C14.1867 11.84 14.216 11.5103 14.2871 11.1939C14.3644 10.8838 14.4711 10.5799 14.5955 10.2875C15.0248 10.6457 15.3154 10.9674 15.2168 11.4393ZM6.50214 11.2037C6.57949 11.5121 6.60878 11.84 6.60878 12.1715C6.09237 12.0408 5.67558 11.8951 5.5787 11.4393C5.48007 10.9576 5.77069 10.6439 6.18222 10.2857C6.31015 10.5799 6.43105 10.8838 6.50214 11.2037ZM7.81582 7.02109C7.66386 7.29745 7.50214 7.58359 7.29238 7.84843C7.08085 8.10351 6.84179 8.33632 6.58944 8.55761C6.3619 8.02695 6.21522 7.60839 6.51288 7.24316C6.83105 6.85839 7.29941 6.89843 7.81582 7.02109ZM14.2764 7.2414C14.5785 7.60488 14.4336 8.00742 14.1963 8.53808C13.9492 8.31504 13.7102 8.09375 13.5084 7.84042C13.3031 7.58183 13.1334 7.29745 12.9894 7.02109C13.5219 6.89843 13.9645 6.85839 14.2764 7.2414ZM11.3615 6.24042C11.0416 6.29374 10.7234 6.33906 10.3973 6.33906C10.0756 6.33906 9.74765 6.29374 9.43398 6.24042C9.70331 5.72753 9.92812 5.38183 10.3955 5.38183C10.8834 5.38183 11.1002 5.73554 11.3615 6.24042Z" fill="white" fill-opacity="0.25"/>
 </g>
</svg>
