<?xml version="1.0" encoding="UTF-8"?>
<!--Generator: Apple Native CoreSVG 341-->
<!DOCTYPE svg
PUBLIC "-//W3C//DTD SVG 1.1//EN"
       "http://www.w3.org/Graphics/SVG/1.1/DTD/svg11.dtd">
<svg version="1.1" xmlns="http://www.w3.org/2000/svg" xmlns:xlink="http://www.w3.org/1999/xlink" viewBox="0 0 27.3422 20.5289">
 <g>
  <rect height="20.5289" opacity="0" width="27.3422" x="0" y="0"/>
  <path d="M19.8903 5.00329C19.602 4.91726 19.3006 4.87344 18.9947 4.87344C18.7923 4.87344 18.5909 4.89275 18.3936 4.9311C17.8028 3.43922 16.5915 2.26817 15.0744 1.73208C16.1564 2.66664 16.945 3.92933 17.2853 5.36657C16.8478 5.63804 16.4716 6.0183 16.201 6.49043L16.077 6.70743C15.9558 4.39168 14.4435 2.46242 12.3589 1.72789C13.845 3.01093 14.7834 4.90793 14.7834 7.02207C14.7834 9.13955 13.8451 11.038 12.3591 12.3218C12.5949 12.2447 12.8208 12.1466 13.036 12.0307L11.9471 13.9368L11.8198 13.9174C11.3835 14.0056 10.9318 14.0504 10.4697 14.0504C10.0046 14.0504 9.54998 14.0053 9.11101 13.9165C8.67273 14.0053 8.21907 14.0504 7.75508 14.0504C3.8791 14.0504 0.731249 10.9043 0.731249 7.02207C0.731249 3.14609 3.87734 0 7.75508 0C8.2187 0 8.67201 0.0450539 9.10995 0.133671C9.54867 0.0450586 10.003 0 10.468 0C10.93 0 11.3817 0.0447064 11.8179 0.132884C12.2552 0.044711 12.7079 0 13.1711 0C16.3399 0 19.0246 2.1096 19.8903 5.00329ZM2.12206 7.02207C2.12206 9.47452 3.67741 11.5525 5.86145 12.3221C4.37577 11.0384 3.43965 9.13975 3.43965 7.02207C3.43965 4.90716 4.37496 3.01041 5.85978 1.72766C3.67585 2.49555 2.12206 4.5686 2.12206 7.02207ZM4.84472 7.02207C4.84472 9.46536 6.38247 11.537 8.55203 12.3133C7.06958 11.0299 6.13476 9.135 6.13476 7.02207C6.13476 4.91207 7.06811 3.01921 8.54932 1.73684C6.38158 2.51161 4.84472 4.5781 4.84472 7.02207ZM7.53534 7.02207C7.53534 9.15887 8.71067 11.0114 10.4596 11.9651C12.2069 11.011 13.3875 9.15791 13.3863 7.02207C13.3863 4.88406 12.2056 3.03493 10.459 2.08344C8.71067 3.03493 7.53534 4.88406 7.53534 7.02207Z" fill="white" fill-opacity="0.25"/>
  <path d="M20.6133 7.16855L25.7365 16.0967C25.9158 16.4082 26.0055 16.7445 26.0055 17.0658C26.0055 18.1006 25.2762 18.9426 24.1082 18.9426L13.875 18.9426C12.715 18.9426 11.984 18.1006 11.984 17.0658C11.984 16.7445 12.0799 16.4162 12.2529 16.0984L17.3682 7.16855C17.7258 6.53496 18.3594 6.21816 18.9947 6.21816C19.6221 6.21816 20.2539 6.5332 20.6133 7.16855ZM18.1867 15.9279C18.1867 16.3545 18.5549 16.6758 18.9965 16.6758C19.4398 16.6758 19.8045 16.3625 19.8045 15.9279C19.8045 15.4871 19.4478 15.1578 18.9965 15.1578C18.5469 15.1578 18.1867 15.4871 18.1867 15.9279ZM18.2801 10.4469L18.375 13.784C18.3883 14.1795 18.6152 14.3914 18.9965 14.3914C19.3777 14.3914 19.5932 14.1795 19.5984 13.7805L19.7111 10.4549C19.7279 10.0471 19.4113 9.758 18.9867 9.758C18.5656 9.758 18.265 10.0391 18.2801 10.4469Z" fill="white" fill-opacity="0.25"/>
 </g>
</svg>
