<?xml version="1.0" encoding="UTF-8"?>
<!--Generator: Apple Native CoreSVG 341-->
<!DOCTYPE svg
PUBLIC "-//W3C//DTD SVG 1.1//EN"
       "http://www.w3.org/Graphics/SVG/1.1/DTD/svg11.dtd">
<svg version="1.1" xmlns="http://www.w3.org/2000/svg" xmlns:xlink="http://www.w3.org/1999/xlink" viewBox="0 0 20.381 19.4797">
 <g>
  <rect height="19.4797" opacity="0" width="20.381" x="0" y="0"/>
  <path d="M3.04862 19.4797C4.71971 19.4797 6.07947 18.9343 6.07947 18.2515C6.07947 17.582 4.71971 17.0367 3.04862 17.0367C1.358 17.0367 0 17.582 0 18.2515C0 18.9343 1.358 19.4797 3.04862 19.4797Z" fill="white" fill-opacity="0.25"/>
  <path d="M4.49452 15.0693C4.32518 15.3965 4.69119 15.7101 4.966 15.5603L6.49314 14.7564L5.32244 13.576ZM5.79979 12.6896L7.39373 14.2871L8.02439 13.9527L19.6347 2.39667C20.1492 1.87245 20.1474 1.0289 19.6312 0.516209C19.1088 0 18.2652 0 17.7525 0.504686L6.13865 12.0768Z" fill="white" fill-opacity="0.25"/>
 </g>
</svg>
