<?xml version="1.0" encoding="UTF-8"?>
<!--Generator: Apple Native CoreSVG 341-->
<!DOCTYPE svg
PUBLIC "-//W3C//DTD SVG 1.1//EN"
       "http://www.w3.org/Graphics/SVG/1.1/DTD/svg11.dtd">
<svg version="1.1" xmlns="http://www.w3.org/2000/svg" xmlns:xlink="http://www.w3.org/1999/xlink" viewBox="0 0 11.4131 21.2578">
 <g>
  <rect height="21.2578" opacity="0" width="11.4131" x="0" y="0"/>
  <path d="M1.95996 15.916L9.09002 15.916C9.82283 15.916 10.506 16.1484 11.0517 16.5556L11.0517 2.67089C11.0517 1.05136 9.95779 0 8.25838 0L2.79335 0C1.09394 0 0 1.05136 0 2.67089L0 16.5556C0.543944 16.1484 1.22715 15.916 1.95996 15.916ZM5.53299 4.78671C4.84882 4.78671 4.29686 4.23476 4.29686 3.55858C4.29686 2.87616 4.84882 2.32245 5.53299 2.32245C6.21092 2.32245 6.77088 2.87616 6.77088 3.55858C6.77088 4.23476 6.21092 4.78671 5.53299 4.78671ZM1.95996 21.1974L9.09002 21.1974C10.183 21.1974 11.0517 20.3269 11.0517 19.2375C11.0517 18.1445 10.183 17.274 9.09002 17.274L1.95996 17.274C0.868748 17.274 0 18.1445 0 19.2375C0 20.3269 0.868748 21.1974 1.95996 21.1974Z" fill="white" fill-opacity="0.25"/>
 </g>
</svg>
