<?xml version="1.0" encoding="UTF-8"?>
<!--Generator: Apple Native CoreSVG 341-->
<!DOCTYPE svg
PUBLIC "-//W3C//DTD SVG 1.1//EN"
       "http://www.w3.org/Graphics/SVG/1.1/DTD/svg11.dtd">
<svg version="1.1" xmlns="http://www.w3.org/2000/svg" xmlns:xlink="http://www.w3.org/1999/xlink" viewBox="0 0 10.4675 19.6476">
 <g>
  <rect height="19.6476" opacity="0" width="10.4675" x="0" y="0"/>
  <path d="M0.901016 19.6414C1.38871 19.6414 1.76644 19.2947 1.79125 18.7467L2.03011 14.1289L3.19945 9.1824L2.19105 9.98475L7.96078 9.98475L6.91371 9.21053L8.08402 14.1289L8.31488 18.7467C8.34769 19.2947 8.71742 19.6414 9.21312 19.6414C9.69905 19.6414 10.1379 19.2734 10.1051 18.6775L9.88401 14.042C9.87425 13.9133 9.86448 13.8033 9.82542 13.6791L8.56663 8.76991C8.49573 8.48182 8.25374 8.29745 7.96566 8.29745L2.14047 8.29745C1.85239 8.29745 1.6184 8.48182 1.5395 8.76991L0.280708 13.6791C0.241646 13.8033 0.23188 13.9133 0.230123 14.042L0.00102075 18.6775C-0.0237837 19.2734 0.407073 19.6414 0.901016 19.6414Z" fill="white" fill-opacity="0.25"/>
  <path d="M1.96625 6.91034L8.10608 6.91034L5.95257 0.677928C5.80355 0.246679 5.50375 0 5.05394 0C4.58461 0 4.25453 0.246679 4.10726 0.677928Z" fill="white" fill-opacity="0.25"/>
 </g>
</svg>
