<?xml version="1.0" encoding="UTF-8"?>
<!--Generator: Apple Native CoreSVG 341-->
<!DOCTYPE svg
PUBLIC "-//W3C//DTD SVG 1.1//EN"
       "http://www.w3.org/Graphics/SVG/1.1/DTD/svg11.dtd">
<svg version="1.1" xmlns="http://www.w3.org/2000/svg" xmlns:xlink="http://www.w3.org/1999/xlink" viewBox="0 0 22.0884 26.8531">
 <g>
  <rect height="26.8531" opacity="0" width="22.0884" x="0" y="0"/>
  <path d="M2.63846 17.8391C2.63846 18.4244 3.01776 18.7894 3.62889 18.7894L4.96679 18.7894L4.96679 20.5383L3.41366 20.5383C1.8789 20.5383 0.887887 19.581 0.887887 18.0961L0.887887 16.5674L2.63846 16.5674ZM2.63846 15.3439L0.887887 15.3439L0.887887 11.532L2.63846 11.532ZM2.63846 10.3086L0.887887 10.3086L0.887887 6.49316L2.63846 6.49316ZM7.4539 3.13417L3.62889 3.13417C3.01776 3.13417 2.63846 3.49921 2.63846 4.08456L2.63846 5.26972L0.887887 5.26972L0.887887 3.82577C0.887887 2.34257 1.8789 1.37734 3.41366 1.37734L7.4539 1.37734ZM15.2531 3.82577L15.2531 4.91621L13.5025 4.91621L13.5025 4.08456C13.5025 3.49921 13.1215 3.13417 12.5121 3.13417L8.67909 3.13417L8.67909 1.37734L12.7273 1.37734C14.2541 1.37734 15.2531 2.34257 15.2531 3.82577Z" fill="white" fill-opacity="0.25"/>
  <path d="M8.87167 25.466L18.1693 25.466C19.7023 25.466 20.7013 24.507 20.7013 23.0238L20.7013 8.7535C20.7013 7.2703 19.7023 6.30331 18.1693 6.30331L8.87167 6.30331C7.3369 6.30331 6.34589 7.2703 6.34589 8.7535L6.34589 23.0238C6.34589 24.507 7.3369 25.466 8.87167 25.466ZM9.0869 23.7172C8.47576 23.7172 8.09471 23.3521 8.09471 22.7748L8.09471 9.0203C8.09471 8.42518 8.47576 8.0619 9.0869 8.0619L17.9541 8.0619C18.5635 8.0619 18.9445 8.42518 18.9445 9.0203L18.9445 22.7748C18.9445 23.3521 18.5635 23.7172 17.9541 23.7172ZM9.80545 10.9035L10.5209 10.9035C10.7525 10.9035 10.9123 10.7455 10.9123 10.5449L10.9123 9.79842C10.9123 9.58807 10.7525 9.43631 10.5209 9.43631L9.80545 9.43631C9.61112 9.43631 9.45135 9.58807 9.45135 9.79842L9.45135 10.5449C9.45135 10.7357 9.61112 10.9035 9.80545 10.9035ZM12.0461 10.9035L12.7775 10.9035C13.0012 10.9035 13.1512 10.7455 13.1512 10.5449L13.1512 9.79842C13.1512 9.58807 13.0012 9.43631 12.7775 9.43631L12.0461 9.43631C11.8517 9.43631 11.7 9.58807 11.7 9.79842L11.7 10.5449C11.7 10.7357 11.85 10.9035 12.0461 10.9035ZM14.2947 10.9035L15.0164 10.9035C15.2222 10.9035 15.3918 10.7455 15.3918 10.5449L15.3918 9.79842C15.3918 9.58807 15.2222 9.43631 15.0164 9.43631L14.2947 9.43631C14.0844 9.43631 13.9406 9.58807 13.9406 9.79842L13.9406 10.5449C13.9406 10.7357 14.0844 10.9035 14.2947 10.9035ZM16.5238 10.9035L17.2508 10.9035C17.4789 10.9035 17.6342 10.7455 17.6342 10.5449L17.6342 9.79842C17.6342 9.58807 17.4789 9.43631 17.2508 9.43631L16.5238 9.43631C16.3312 9.43631 16.1812 9.58807 16.1812 9.79842L16.1812 10.5449C16.1812 10.7357 16.3312 10.9035 16.5238 10.9035ZM9.80545 13.1533L10.5209 13.1533C10.7525 13.1533 10.9123 13.0015 10.9123 12.7992L10.9123 12.05C10.9123 11.8441 10.7525 11.7004 10.5209 11.7004L9.80545 11.7004C9.61112 11.7004 9.45135 11.8539 9.45135 12.05L9.45135 12.7992C9.45135 13.0015 9.61112 13.1533 9.80545 13.1533ZM12.0461 13.1533L12.7775 13.1533C13.0012 13.1533 13.1512 13.0015 13.1512 12.7992L13.1512 12.05C13.1512 11.8441 13.0012 11.7004 12.7775 11.7004L12.0461 11.7004C11.8517 11.7004 11.684 11.8539 11.684 12.05L11.684 12.7992C11.684 13.0015 11.85 13.1533 12.0461 13.1533ZM14.2947 13.1533L15.0164 13.1533C15.2222 13.1533 15.3918 13.0015 15.3918 12.809L15.3918 12.05C15.3918 11.8441 15.2222 11.7004 15.0164 11.7004L14.2947 11.7004C14.0844 11.7004 13.9406 11.8539 13.9406 12.05L13.9406 12.809C13.9406 13.0015 14.0844 13.1533 14.2947 13.1533ZM16.5238 13.1533L17.2508 13.1533C17.4789 13.1533 17.6342 13.0015 17.6342 12.809L17.6342 12.05C17.6342 11.8441 17.4789 11.7004 17.2508 11.7004L16.5238 11.7004C16.3312 11.7004 16.1812 11.8539 16.1812 12.05L16.1812 12.809C16.1812 13.0015 16.3312 13.1533 16.5238 13.1533ZM9.80545 15.4174L10.5209 15.4174C10.7525 15.4174 10.9123 15.2656 10.9123 15.065L10.9123 14.3203C10.9123 14.1179 10.7525 13.9484 10.5209 13.9484L9.80545 13.9484C9.61112 13.9484 9.45135 14.1179 9.45135 14.3203L9.45135 15.065C9.45135 15.2656 9.61112 15.4174 9.80545 15.4174ZM12.0461 15.4174L12.7775 15.4174C13.0012 15.4174 13.1512 15.2656 13.1512 15.065L13.1512 14.3203C13.1512 14.1179 13.0012 13.9484 12.7775 13.9484L12.0461 13.9484C11.8517 13.9484 11.684 14.1179 11.684 14.3203L11.684 15.065C11.684 15.2656 11.85 15.4174 12.0461 15.4174ZM9.80545 22.3392L10.5209 22.3392C10.7525 22.3392 10.9123 22.1892 10.9123 21.9806L10.9123 21.2342C10.9123 21.0318 10.7525 20.8801 10.5209 20.8801L9.80545 20.8801C9.61112 20.8801 9.45135 21.0398 9.45135 21.2342L9.45135 21.9806C9.45135 22.1892 9.61112 22.3392 9.80545 22.3392ZM12.0461 22.3392L12.7775 22.3392C13.0012 22.3392 13.1512 22.1892 13.1512 21.9806L13.1512 21.2342C13.1512 21.0318 13.0012 20.8801 12.7775 20.8801L12.0461 20.8801C11.8517 20.8801 11.684 21.0398 11.684 21.2342L11.684 21.9806C11.684 22.1892 11.85 22.3392 12.0461 22.3392ZM14.2947 22.3392L15.0164 22.3392C15.2222 22.3392 15.3918 22.1892 15.3918 21.9806L15.3918 21.2342C15.3918 21.0318 15.2222 20.8801 15.0164 20.8801L14.2947 20.8801C14.0844 20.8801 13.9406 21.0398 13.9406 21.2342L13.9406 21.9806C13.9406 22.1892 14.0844 22.3392 14.2947 22.3392ZM16.5238 22.3392L17.2508 22.3392C17.4789 22.3392 17.6342 22.1892 17.6342 21.9806L17.6342 21.2342C17.6342 21.0318 17.4789 20.8801 17.2508 20.8801L16.5238 20.8801C16.3312 20.8801 16.1892 21.0398 16.1892 21.2342L16.1892 21.9806C16.1892 22.1892 16.3312 22.3392 16.5238 22.3392Z" fill="white" fill-opacity="0.25"/>
 </g>
</svg>
