<?xml version="1.0" encoding="UTF-8"?>
<!--Generator: Apple Native CoreSVG 341-->
<!DOCTYPE svg
PUBLIC "-//W3C//DTD SVG 1.1//EN"
       "http://www.w3.org/Graphics/SVG/1.1/DTD/svg11.dtd">
<svg version="1.1" xmlns="http://www.w3.org/2000/svg" xmlns:xlink="http://www.w3.org/1999/xlink" viewBox="0 0 13.6115 21.3859">
 <g>
  <rect height="21.3859" opacity="0" width="13.6115" x="0" y="0"/>
  <path d="M0 18.6674C0 20.2804 1.12597 21.3593 2.80917 21.3593L10.4832 21.3593C12.1418 21.3593 13.2502 20.2804 13.2502 18.6656L13.2502 2.69374C13.2502 1.07715 12.1418 0 10.4832 0L2.80917 0C1.12597 0 0 1.07715 0 2.69199ZM1.91327 18.2271L1.91327 3.13221C1.91327 2.38788 2.35643 1.96776 3.13729 1.96776L10.1226 1.96776C10.8937 1.96776 11.3369 2.39139 11.3369 3.13397L11.3369 18.2254C11.3369 18.968 10.8937 19.3916 10.1226 19.3916L3.13729 19.3916C2.35643 19.3916 1.91327 18.9715 1.91327 18.2271Z" fill="white" fill-opacity="0.25"/>
  <path d="M3.60604 18.1197L4.53807 18.1197C4.75819 18.1197 4.92421 17.9715 4.92421 17.7646L4.92421 16.8015C4.92421 16.593 4.75819 16.4465 4.53807 16.4465L3.60604 16.4465C3.3912 16.4465 3.24296 16.593 3.24296 16.8015L3.24296 17.7646C3.24296 17.9715 3.3912 18.1197 3.60604 18.1197ZM6.1453 18.1197L7.08358 18.1197C7.30545 18.1197 7.46971 17.9715 7.46971 17.7646L7.46971 16.8015C7.46971 16.593 7.30545 16.4465 7.08358 16.4465L6.1453 16.4465C5.9367 16.4465 5.79022 16.593 5.79022 16.8015L5.79022 17.7646C5.79022 17.9715 5.9367 18.1197 6.1453 18.1197ZM8.68905 18.1197L9.62108 18.1197C9.8492 18.1197 10.0072 17.9715 10.0072 17.7646L10.0072 16.8015C10.0072 16.593 9.8492 16.4465 9.62108 16.4465L8.68905 16.4465C8.48045 16.4465 8.33397 16.593 8.33397 16.8015L8.33397 17.7646C8.33397 17.9715 8.48045 18.1197 8.68905 18.1197ZM3.60604 10.3156L4.53807 10.3156C4.75819 10.3156 4.92421 10.1674 4.92421 9.95077L4.92421 8.99745C4.92421 8.78084 4.75819 8.63436 4.53807 8.63436L3.60604 8.63436C3.3912 8.63436 3.24296 8.78084 3.24296 8.99745L3.24296 9.95077C3.24296 10.1674 3.3912 10.3156 3.60604 10.3156ZM6.1453 10.3156L7.08358 10.3156C7.30545 10.3156 7.46971 10.1674 7.46971 9.95077L7.46971 8.99745C7.46971 8.78084 7.30545 8.63436 7.08358 8.63436L6.1453 8.63436C5.9367 8.63436 5.79022 8.78084 5.79022 8.99745L5.79022 9.95077C5.79022 10.1674 5.9367 10.3156 6.1453 10.3156ZM3.60604 7.63827L4.53807 7.63827C4.75819 7.63827 4.92421 7.49002 4.92421 7.28143L4.92421 6.3201C4.92421 6.1035 4.75819 5.95702 4.53807 5.95702L3.60604 5.95702C3.3912 5.95702 3.24296 6.1035 3.24296 6.3201L3.24296 7.28143C3.24296 7.49002 3.3912 7.63827 3.60604 7.63827ZM6.1453 7.63827L7.08358 7.63827C7.30545 7.63827 7.46971 7.49002 7.46971 7.28143L7.46971 6.3201C7.46971 6.1035 7.30545 5.95702 7.08358 5.95702L6.1453 5.95702C5.9367 5.95702 5.79022 6.1035 5.79022 6.3201L5.79022 7.28143C5.79022 7.49002 5.9367 7.63827 6.1453 7.63827ZM8.68905 7.63827L9.62108 7.63827C9.8492 7.63827 10.0072 7.49002 10.0072 7.28143L10.0072 6.3201C10.0072 6.1035 9.8492 5.95702 9.62108 5.95702L8.68905 5.95702C8.48045 5.95702 8.33397 6.1035 8.33397 6.3201L8.33397 7.28143C8.33397 7.49002 8.48045 7.63827 8.68905 7.63827ZM3.60604 4.96893L4.53807 4.96893C4.75819 4.96893 4.92421 4.82069 4.92421 4.60585L4.92421 3.65077C4.92421 3.43417 4.75819 3.28768 4.53807 3.28768L3.60604 3.28768C3.3912 3.28768 3.24296 3.43417 3.24296 3.65077L3.24296 4.60585C3.24296 4.82069 3.3912 4.96893 3.60604 4.96893ZM6.1453 4.96893L7.08358 4.96893C7.30545 4.96893 7.46971 4.82069 7.46971 4.60585L7.46971 3.65077C7.46971 3.43417 7.30545 3.28768 7.08358 3.28768L6.1453 3.28768C5.9367 3.28768 5.79022 3.43417 5.79022 3.65077L5.79022 4.60585C5.79022 4.82069 5.9367 4.96893 6.1453 4.96893ZM8.68905 4.96893L9.62108 4.96893C9.8492 4.96893 10.0072 4.82069 10.0072 4.60585L10.0072 3.65077C10.0072 3.43417 9.8492 3.28768 9.62108 3.28768L8.68905 3.28768C8.48045 3.28768 8.33397 3.43417 8.33397 3.65077L8.33397 4.60585C8.33397 4.82069 8.48045 4.96893 8.68905 4.96893Z" fill="white" fill-opacity="0.25"/>
 </g>
</svg>
