<?xml version="1.0" encoding="UTF-8"?>
<!--Generator: Apple Native CoreSVG 341-->
<!DOCTYPE svg
PUBLIC "-//W3C//DTD SVG 1.1//EN"
       "http://www.w3.org/Graphics/SVG/1.1/DTD/svg11.dtd">
<svg version="1.1" xmlns="http://www.w3.org/2000/svg" xmlns:xlink="http://www.w3.org/1999/xlink" viewBox="0 0 17.142 22.468">
 <g>
  <rect height="22.468" opacity="0" width="17.142" x="0" y="0"/>
  <path d="M0 19.6523C0 21.343 1.14375 22.4467 2.90019 22.4467L13.8805 22.4467C15.6369 22.4467 16.7806 21.343 16.7806 19.6523L16.7806 2.80234C16.7806 1.11172 15.6369 0 13.8805 0L2.90019 0C1.14375 0 0 1.11172 0 2.80234ZM1.91327 19.3377L1.91327 3.11874C1.91327 2.35663 2.35761 1.91327 3.15878 1.91327L13.6219 1.91327C14.415 1.91327 14.8674 2.35663 14.8674 3.11874L14.8674 19.3377C14.8674 20.098 14.415 20.5334 13.6219 20.5334L3.15878 20.5334C2.35761 20.5334 1.91327 20.098 1.91327 19.3377Z" fill="white" fill-opacity="0.25"/>
  <path d="M3.94296 5.30565L4.7996 5.30565C5.06054 5.30565 5.26737 5.12636 5.26737 4.88671L5.26737 3.99101C5.26737 3.74159 5.06054 3.56054 4.7996 3.56054L3.94296 3.56054C3.70155 3.56054 3.52226 3.7496 3.52226 3.99101L3.52226 4.88671C3.52226 5.11659 3.70155 5.30565 3.94296 5.30565ZM6.62323 5.30565L7.47987 5.30565C7.74257 5.30565 7.93163 5.12636 7.93163 4.88671L7.93163 3.99101C7.93163 3.74159 7.74257 3.56054 7.47987 3.56054L6.62323 3.56054C6.38183 3.56054 6.19276 3.7496 6.19276 3.99101L6.19276 4.88671C6.19276 5.11659 6.38007 5.30565 6.62323 5.30565ZM9.28925 5.30565L10.1521 5.30565C10.4131 5.30565 10.6119 5.12636 10.6119 4.88671L10.6119 3.99101C10.6119 3.74159 10.4131 3.56054 10.1521 3.56054L9.28925 3.56054C9.04784 3.56054 8.86503 3.7496 8.86503 3.99101L8.86503 4.88671C8.86503 5.11659 9.04608 5.30565 9.28925 5.30565ZM11.958 5.30565L12.8244 5.30565C13.0933 5.30565 13.2762 5.12636 13.2762 4.88671L13.2762 3.99101C13.2762 3.74159 13.0933 3.56054 12.8244 3.56054L11.958 3.56054C11.7184 3.56054 11.5391 3.7496 11.5391 3.99101L11.5391 4.88671C11.5391 5.11659 11.7184 5.30565 11.958 5.30565ZM3.94296 8.00214L4.7996 8.00214C5.06054 8.00214 5.26737 7.81307 5.26737 7.56718L5.26737 6.67948C5.26737 6.43007 5.06054 6.25702 4.7996 6.25702L3.94296 6.25702C3.70155 6.25702 3.52226 6.43807 3.52226 6.67948L3.52226 7.56718C3.52226 7.81307 3.70155 8.00214 3.94296 8.00214ZM6.62323 8.00214L7.47987 8.00214C7.74257 8.00214 7.93163 7.81307 7.93163 7.56718L7.93163 6.67948C7.93163 6.43007 7.74257 6.25702 7.47987 6.25702L6.62323 6.25702C6.38183 6.25702 6.18476 6.43807 6.18476 6.67948L6.18476 7.56718C6.18476 7.81307 6.38007 8.00214 6.62323 8.00214ZM9.28925 8.00214L10.1521 8.00214C10.4131 8.00214 10.6119 7.81307 10.6119 7.57518L10.6119 6.67948C10.6119 6.43007 10.4131 6.25702 10.1521 6.25702L9.28925 6.25702C9.04784 6.25702 8.86503 6.43807 8.86503 6.67948L8.86503 7.57518C8.86503 7.81307 9.04608 8.00214 9.28925 8.00214ZM11.958 8.00214L12.8244 8.00214C13.0933 8.00214 13.2762 7.81307 13.2762 7.57518L13.2762 6.67948C13.2762 6.43007 13.0933 6.25702 12.8244 6.25702L11.958 6.25702C11.7184 6.25702 11.5391 6.43807 11.5391 6.67948L11.5391 7.57518C11.5391 7.81307 11.7184 8.00214 11.958 8.00214ZM3.94296 10.6906L4.7996 10.6906C5.06054 10.6906 5.26737 10.5193 5.26737 10.2717L5.26737 9.38397C5.26737 9.13456 5.06054 8.94549 4.7996 8.94549L3.94296 8.94549C3.70155 8.94549 3.52226 9.13456 3.52226 9.38397L3.52226 10.2717C3.52226 10.5113 3.70155 10.6906 3.94296 10.6906ZM6.62323 10.6906L7.47987 10.6906C7.74257 10.6906 7.93163 10.5193 7.93163 10.2717L7.93163 9.38397C7.93163 9.13456 7.74257 8.94549 7.47987 8.94549L6.62323 8.94549C6.38183 8.94549 6.18476 9.13456 6.18476 9.38397L6.18476 10.2717C6.18476 10.5113 6.38007 10.6906 6.62323 10.6906ZM3.94296 18.8844L4.7996 18.8844C5.06054 18.8844 5.26737 18.7113 5.26737 18.4654L5.26737 17.5697C5.26737 17.3203 5.06054 17.1455 4.7996 17.1455L3.94296 17.1455C3.70155 17.1455 3.52226 17.3283 3.52226 17.5697L3.52226 18.4654C3.52226 18.7033 3.70155 18.8844 3.94296 18.8844ZM6.62323 18.8844L7.47987 18.8844C7.74257 18.8844 7.93163 18.7113 7.93163 18.4654L7.93163 17.5697C7.93163 17.3203 7.74257 17.1455 7.47987 17.1455L6.62323 17.1455C6.38183 17.1455 6.18476 17.3283 6.18476 17.5697L6.18476 18.4654C6.18476 18.7033 6.38007 18.8844 6.62323 18.8844ZM9.28925 18.8844L10.1601 18.8844C10.4131 18.8844 10.6119 18.7113 10.6119 18.4654L10.6119 17.5697C10.6119 17.3203 10.4131 17.1455 10.1601 17.1455L9.28925 17.1455C9.04784 17.1455 8.86503 17.3283 8.86503 17.5697L8.86503 18.4654C8.86503 18.7033 9.04608 18.8844 9.28925 18.8844ZM11.958 18.8844L12.8244 18.8844C13.0933 18.8844 13.2762 18.7113 13.2762 18.4654L13.2762 17.5697C13.2762 17.3203 13.0933 17.1455 12.8244 17.1455L11.958 17.1455C11.7184 17.1455 11.5471 17.3283 11.5471 17.5697L11.5471 18.4654C11.5471 18.7033 11.7184 18.8844 11.958 18.8844Z" fill="white" fill-opacity="0.25"/>
 </g>
</svg>
