<?xml version="1.0" encoding="UTF-8"?>
<!--Generator: Apple Native CoreSVG 341-->
<!DOCTYPE svg
PUBLIC "-//W3C//DTD SVG 1.1//EN"
       "http://www.w3.org/Graphics/SVG/1.1/DTD/svg11.dtd">
<svg version="1.1" xmlns="http://www.w3.org/2000/svg" xmlns:xlink="http://www.w3.org/1999/xlink" viewBox="0 0 21.7269 13.2875">
 <g>
  <rect height="13.2875" opacity="0" width="21.7269" x="0" y="0"/>
  <path d="M2.69199 13.2662L18.6656 13.2662C20.2804 13.2662 21.3656 12.1498 21.3656 10.4912L21.3656 2.80917C21.3656 1.12597 20.2885 0 18.6754 0L2.69824 0C1.08515 0 0 1.12597 0 2.80917L0 10.4912C0 12.1498 1.07715 13.2662 2.69199 13.2662ZM3.13397 11.3529C2.39139 11.3529 1.966 10.9017 1.966 10.1306L1.966 3.13729C1.966 2.36268 2.38612 1.91327 3.13221 1.91327L18.2334 1.91327C18.9795 1.91327 19.3996 2.36268 19.3996 3.13729L19.3996 10.1306C19.3996 10.9017 18.9742 11.3529 18.2236 11.3529Z" fill="white" fill-opacity="0.25"/>
  <path d="M3.65077 4.93221L4.6121 4.93221C4.82069 4.93221 4.96717 4.78397 4.96717 4.56737L4.96717 3.6371C4.96717 3.40722 4.82069 3.25097 4.6121 3.25097L3.65077 3.25097C3.44217 3.25097 3.29569 3.40722 3.29569 3.6371L3.29569 4.56737C3.29569 4.78397 3.44217 4.93221 3.65077 4.93221ZM6.34393 4.93221L7.29725 4.93221C7.50584 4.93221 7.66209 4.78397 7.66209 4.56737L7.66209 3.6371C7.66209 3.40722 7.51385 3.25097 7.29725 3.25097L6.34393 3.25097C6.12733 3.25097 5.98084 3.40722 5.98084 3.6371L5.98084 4.56737C5.98084 4.78397 6.12733 4.93221 6.34393 4.93221ZM9.02909 4.93221L9.98416 4.93221C10.2008 4.93221 10.3472 4.78397 10.3472 4.56737L10.3472 3.6371C10.3472 3.40722 10.2008 3.25097 9.98416 3.25097L9.02909 3.25097C8.81424 3.25097 8.666 3.40722 8.666 3.6371L8.666 4.56737C8.666 4.78397 8.81424 4.93221 9.02909 4.93221ZM11.716 4.93221L12.6773 4.93221C12.8859 4.93221 13.0324 4.78397 13.0324 4.56737L13.0324 3.6371C13.0324 3.40722 12.8859 3.25097 12.6773 3.25097L11.716 3.25097C11.5074 3.25097 11.3592 3.40722 11.3592 3.6371L11.3592 4.56737C11.3592 4.78397 11.5074 4.93221 11.716 4.93221ZM3.65077 7.47772L4.6121 7.47772C4.82069 7.47772 4.96717 7.33124 4.96717 7.11463L4.96717 6.1826C4.96717 5.95448 4.82069 5.79647 4.6121 5.79647L3.65077 5.79647C3.44217 5.79647 3.29569 5.95448 3.29569 6.1826L3.29569 7.11463C3.29569 7.33124 3.44217 7.47772 3.65077 7.47772ZM6.34393 7.47772L7.29725 7.47772C7.50584 7.47772 7.66209 7.33124 7.66209 7.11463L7.66209 6.1826C7.66209 5.95448 7.51385 5.79647 7.29725 5.79647L6.34393 5.79647C6.12733 5.79647 5.98084 5.95448 5.98084 6.1826L5.98084 7.11463C5.98084 7.33124 6.12733 7.47772 6.34393 7.47772ZM9.03709 7.47772L9.98416 7.47772C10.2088 7.47772 10.3553 7.33124 10.3553 7.11463L10.3553 6.1826C10.3553 5.95448 10.2088 5.79647 9.98416 5.79647L9.03709 5.79647C8.81424 5.79647 8.666 5.95448 8.666 6.1826L8.666 7.11463C8.666 7.33124 8.81424 7.47772 9.03709 7.47772ZM16.8096 4.93221L17.7629 4.93221C17.9795 4.93221 18.126 4.78397 18.126 4.56737L18.126 3.6371C18.126 3.40722 17.9795 3.25097 17.7709 3.25097L16.8096 3.25097C16.601 3.25097 16.4545 3.40722 16.4545 3.6371L16.4545 4.56737C16.4545 4.78397 16.593 4.93221 16.8096 4.93221ZM16.8096 7.47772L17.7709 7.47772C17.9795 7.47772 18.126 7.33124 18.126 7.11463L18.126 6.1826C18.126 5.95448 17.9795 5.79647 17.7709 5.79647L16.8096 5.79647C16.601 5.79647 16.4545 5.95448 16.4545 6.1826L16.4545 7.11463C16.4545 7.33124 16.601 7.47772 16.8096 7.47772ZM16.8096 10.0135L17.7629 10.0135C17.9795 10.0135 18.126 9.86697 18.126 9.65838L18.126 8.72811C18.126 8.49823 17.9795 8.34198 17.7709 8.34198L16.8096 8.34198C16.601 8.34198 16.4545 8.49823 16.4545 8.72811L16.4545 9.65838C16.4545 9.86697 16.601 10.0135 16.8096 10.0135Z" fill="white" fill-opacity="0.25"/>
 </g>
</svg>
