<?xml version="1.0" encoding="UTF-8"?>
<!--Generator: Apple Native CoreSVG 341-->
<!DOCTYPE svg
PUBLIC "-//W3C//DTD SVG 1.1//EN"
       "http://www.w3.org/Graphics/SVG/1.1/DTD/svg11.dtd">
<svg version="1.1" xmlns="http://www.w3.org/2000/svg" xmlns:xlink="http://www.w3.org/1999/xlink" viewBox="0 0 20.3322 21.8954">
 <g>
  <rect height="21.8954" opacity="0" width="20.3322" x="0" y="0"/>
  <path d="M9.13554 21.5223C9.72676 21.8463 10.2504 21.8463 10.8434 21.5223L13.5695 19.9952C14.0963 19.6971 14.2381 19.1563 13.9853 18.6713C13.7389 18.1961 13.1447 18.0624 12.6225 18.3577L10.9283 19.3239L10.9283 17.4997C10.9283 16.9055 10.532 16.4692 9.98945 16.4692C9.43887 16.4692 9.04258 16.9055 9.04258 17.4997L9.04258 19.3239L7.34667 18.3577C6.83418 18.0624 6.24004 18.1961 5.98555 18.6713C5.73106 19.1563 5.87461 19.6971 6.40937 19.9952ZM2.62031 17.8797C3.16992 18.1856 3.7666 18.0493 4.02109 17.5731C4.25878 17.1243 4.09804 16.5725 3.66659 16.2985L2.80877 15.8022L4.14569 15.0315C4.68222 14.7362 4.87909 14.1508 4.59354 13.6899C4.30175 13.221 3.75995 13.0686 3.24394 13.3497L1.82636 14.1487L1.80878 13.1024C1.77714 12.5522 1.40019 12.1528 0.908784 12.1528C0.37324 12.1528 0 12.5891 0 13.1832L0 14.727C0 16.1459 0.466211 16.6756 1.42988 17.2143ZM0.908784 10.1893C1.44609 10.1893 1.81933 9.75122 1.81933 9.15708L1.81933 7.50902L3.48007 8.45629C3.9748 8.73207 4.52812 8.59301 4.82968 8.12407C5.11522 7.66313 4.91034 7.07778 4.36581 6.78247L2.84686 5.91587L4.30038 5.09438C4.85644 4.78305 5.02675 4.14048 4.6955 3.69087C4.36503 3.25982 3.78887 3.2063 3.27325 3.49341L1.28672 4.61294C0.433203 5.09126 0 5.73638 0 6.83442L0 9.15884C0 9.75297 0.391014 10.1893 0.908784 10.1893ZM9.98945 5.03695C10.532 5.03695 10.9283 4.60864 10.9283 4.0145L10.9283 2.40375L12.0732 3.04184C12.5355 3.27993 13.0912 3.18754 13.3377 2.77387C13.6379 2.30923 13.5057 1.70415 12.9262 1.3815L11.0408 0.319188C10.275-0.106396 9.69414-0.106396 8.92832 0.319188L7.04472 1.3815C6.46523 1.70415 6.33926 2.30923 6.6332 2.77387C6.87968 3.18754 7.43359 3.27993 7.89589 3.04184L9.04258 2.40199L9.04258 4.0145C9.04258 4.60864 9.43887 5.03695 9.98945 5.03695ZM19.0604 10.1893C19.5879 10.1893 19.9709 9.75297 19.9709 9.15884L19.9709 6.83442C19.9709 5.65454 19.6355 5.14107 18.6904 4.61294L16.6976 3.49341C16.182 3.2063 15.6059 3.25982 15.2834 3.69087C14.9441 4.14048 15.1225 4.78305 15.6785 5.09438L17.1303 5.91587L15.6051 6.78247C15.0686 7.07778 14.8557 7.66313 15.1492 8.12407C15.441 8.59301 16.0023 8.73207 16.4908 8.45629L18.1516 7.50902L18.1516 9.15708C18.1516 9.75122 18.5328 10.1893 19.0604 10.1893ZM17.3488 17.8797L18.541 17.2143C19.5029 16.6756 19.9709 16.1459 19.9709 14.727L19.9709 13.1832C19.9709 12.5891 19.5977 12.1528 19.0604 12.1528C18.5689 12.1528 18.192 12.5522 18.1621 13.1024L18.1375 14.1532L16.7252 13.3497C16.2172 13.0686 15.6691 13.221 15.3836 13.6899C15.0918 14.1508 15.2967 14.7362 15.8252 15.0315L17.1576 15.804L16.3043 16.2985C15.8809 16.5725 15.7104 17.1243 15.9561 17.5731C16.2043 18.0493 16.809 18.1856 17.3488 17.8797ZM9.98945 14.6086C10.532 14.6086 10.9283 14.1723 10.9283 13.5782L10.9283 11.5852L12.7449 10.5541C13.277 10.2623 13.465 9.66997 13.175 9.20903C12.893 8.74185 12.3512 8.59302 11.8432 8.87232L9.98945 9.91744L8.13573 8.87232C7.62773 8.59302 7.08593 8.74185 6.79589 9.20903C6.5041 9.66997 6.69218 10.2623 7.23398 10.5541L9.04258 11.5852L9.04258 13.5782C9.04258 14.1723 9.43887 14.6086 9.98945 14.6086Z" fill="white" fill-opacity="0.25"/>
 </g>
</svg>
