<?xml version="1.0" encoding="UTF-8"?>
<!--Generator: Apple Native CoreSVG 341-->
<!DOCTYPE svg
PUBLIC "-//W3C//DTD SVG 1.1//EN"
       "http://www.w3.org/Graphics/SVG/1.1/DTD/svg11.dtd">
<svg version="1.1" xmlns="http://www.w3.org/2000/svg" xmlns:xlink="http://www.w3.org/1999/xlink" viewBox="0 0 25.2865 19.1164">
 <g>
  <rect height="19.1164" opacity="0" width="25.2865" x="0" y="0"/>
  <path d="M19.4973 17.326C22.5344 17.326 24.9252 15.0957 24.9252 12.3152C24.9252 10.2363 23.74 8.40273 21.8076 7.59316C21.8201 3.18144 18.6361 0 14.5523 0C11.948 0 10.0053 1.34746 8.78066 3.1127C6.31152 2.44824 3.70664 4.29199 3.61562 7.04394C1.38398 7.43593 0 9.44726 0 11.881C0 14.8488 2.59238 17.326 6.00429 17.326ZM19.499 15.4127L6.00781 15.4127C3.66991 15.4127 1.93436 13.7818 1.93436 11.881C1.93436 9.93671 3.13709 8.47538 5.1371 8.47538C5.27909 8.47538 5.33495 8.40175 5.33143 8.266C5.27343 5.34432 7.36933 4.37128 9.45741 5.03085C9.57811 5.06815 9.6535 5.03886 9.71561 4.92792C10.6787 3.23143 12.1039 1.91327 14.54 1.91327C17.6289 1.91327 19.8088 4.35565 19.9643 7.20155C19.9953 7.71405 19.959 8.28182 19.9129 8.75311C19.9014 8.88885 19.9537 8.95897 20.0814 8.98651C21.8553 9.33319 22.9908 10.5863 22.9908 12.3152C22.9908 14.035 21.4684 15.4127 19.499 15.4127Z" fill="white" fill-opacity="0.25"/>
  <path d="M7.75526 10.4363L10.5336 10.4363C10.9107 10.4363 11.0162 10.0637 10.7953 9.77089L9.54511 8.05429C9.32948 7.76405 8.95585 7.73827 8.72421 8.05429L7.49354 9.77089C7.28065 10.0637 7.38612 10.4363 7.75526 10.4363ZM12.7713 13.9764C13.7484 13.9764 14.6465 13.6449 15.301 13.1367C15.71 12.8402 15.733 12.4107 15.5324 12.1455C15.3416 11.8918 14.9707 11.7846 14.5527 12.073C14.0703 12.4445 13.4635 12.6836 12.7713 12.6836C11.1314 12.6836 9.80428 11.3467 9.80428 9.70683C9.80428 9.35546 9.50526 9.05644 9.1539 9.05644C8.79101 9.05644 8.50175 9.35546 8.50175 9.70683C8.50175 12.0689 10.4154 13.9764 12.7713 13.9764ZM17.7873 8.98534L15.0107 8.98534C14.6318 8.98534 14.5281 9.35175 14.749 9.65077L15.9992 11.3594C16.2131 11.6594 16.5885 11.6754 16.8184 11.3594L18.049 9.65077C18.2619 9.35175 18.1582 8.98534 17.7873 8.98534ZM12.7713 5.43729C11.7941 5.43729 10.8961 5.77675 10.2416 6.2787C9.83437 6.57519 9.81132 7.00292 10.0101 7.27792C10.2027 7.52362 10.5719 7.62909 10.9898 7.34862C11.4723 6.97713 12.0791 6.73983 12.7713 6.73983C14.4111 6.73983 15.74 8.06698 15.74 9.70683C15.74 10.0697 16.0373 10.359 16.3922 10.359C16.7516 10.359 17.0426 10.0697 17.0426 9.70683C17.0426 7.35097 15.1271 5.43729 12.7713 5.43729Z" fill="white" fill-opacity="0.25"/>
 </g>
</svg>
