<?xml version="1.0" encoding="UTF-8"?>
<!--Generator: Apple Native CoreSVG 341-->
<!DOCTYPE svg
PUBLIC "-//W3C//DTD SVG 1.1//EN"
       "http://www.w3.org/Graphics/SVG/1.1/DTD/svg11.dtd">
<svg version="1.1" xmlns="http://www.w3.org/2000/svg" xmlns:xlink="http://www.w3.org/1999/xlink" viewBox="0 0 23.459 20.8304">
 <g>
  <rect height="20.8304" opacity="0" width="23.459" x="0" y="0"/>
  <path d="M23.0976 9.64061C23.0976 15.2224 18.2355 19.2847 11.5439 19.2847C9.34277 19.2847 7.35351 18.8826 5.64296 18.1058C4.61249 18.8471 3.21621 19.2847 1.84746 19.2847C1.13437 19.2847 0.86836 18.7359 1.35176 18.2996C1.94297 17.7527 2.17656 17.2599 2.17656 16.5017C2.17656 14.7642 0 13.6709 0 9.64061C0 4.04375 4.86914 0 11.5439 0C18.2187 0 23.0976 4.04375 23.0976 9.64061ZM10.8752 4.81347L7.52148 8.04472C7.34414 8.21405 7.24394 8.40116 7.24394 8.65917C7.24394 9.12811 7.62675 9.47479 8.08613 9.47479C8.32987 9.47479 8.56933 9.37733 8.73065 9.19198L10.1699 7.66834L10.7 7.05959L10.64 8.51483L10.64 13.9336C10.64 14.4441 11.0744 14.8678 11.6 14.8678C12.1291 14.8678 12.5537 14.4441 12.5537 13.9336L12.5537 8.51483L12.4924 7.05595L13.0221 7.66834L14.4613 9.19198C14.6226 9.37733 14.8541 9.47479 15.0978 9.47479C15.5572 9.47479 15.948 9.12811 15.948 8.65917C15.948 8.40116 15.8478 8.21405 15.6722 8.04472L12.3168 4.81347C12.0695 4.56972 11.8508 4.48554 11.6 4.48554C11.343 4.48554 11.1225 4.56972 10.8752 4.81347Z" fill="white" fill-opacity="0.25"/>
 </g>
</svg>
