<?xml version="1.0" encoding="UTF-8"?>
<!--Generator: Apple Native CoreSVG 341-->
<!DOCTYPE svg
PUBLIC "-//W3C//DTD SVG 1.1//EN"
       "http://www.w3.org/Graphics/SVG/1.1/DTD/svg11.dtd">
<svg version="1.1" xmlns="http://www.w3.org/2000/svg" xmlns:xlink="http://www.w3.org/1999/xlink" viewBox="0 0 23.5648 20.9441">
 <g>
  <rect height="20.9441" opacity="0" width="23.5648" x="0" y="0"/>
  <path d="M11.6 19.4707C18.2996 19.4707 23.2035 15.3683 23.2035 9.7287C23.2035 4.06777 18.2828 0 11.6 0C4.90918 0 0 4.06777 0 9.7287C0 11.7183 0.586326 13.3701 1.47988 14.7066C1.93535 15.4025 2.13652 15.9074 2.13652 16.3781C2.13652 16.9308 1.975 17.3508 1.49941 17.7748C0.738476 18.4308 1.14238 19.4707 2.1668 19.4707C3.42968 19.4707 4.80996 19.049 5.83867 18.3416C7.51718 19.0765 9.47265 19.4707 11.6 19.4707ZM11.6 17.5768C9.74882 17.5768 8.09296 17.2305 6.68573 16.6045C6.02733 16.3135 5.53944 16.3828 4.93144 16.7186C4.57479 16.9418 4.16385 17.1295 3.72381 17.2352C3.89374 16.918 4.00585 16.5906 4.00585 16.1637C4.00585 15.4305 3.71053 14.6236 3.08729 13.6896C2.31483 12.5726 1.89217 11.2133 1.89217 9.7287C1.89217 5.20487 5.89296 1.89217 11.6 1.89217C17.3123 1.89217 21.3096 5.20663 21.3096 9.7287C21.3096 14.2525 17.3123 17.5768 11.6 17.5768Z" fill="white" fill-opacity="0.25"/>
  <path d="M11.608 4.7373C11.1107 4.7373 10.6932 5.15038 10.6932 5.6326L10.6932 10.8607L10.7809 12.951C10.8057 13.4387 11.1861 13.7478 11.608 13.7478C12.0219 13.7478 12.4121 13.4387 12.4271 12.951L12.5166 10.8607L12.5166 5.6326C12.5166 5.15038 12.1088 4.7373 11.608 4.7373ZM11.608 14.7139C11.8437 14.7139 12.0572 14.6394 12.2912 14.4027L15.5209 11.3017C15.6849 11.1359 15.7816 10.9541 15.7816 10.7174C15.7816 10.2572 15.4094 9.93711 14.9668 9.93711C14.7381 9.93711 14.5182 10.0311 14.3603 10.2049L12.9734 11.6744L11.8312 12.9941L11.3865 12.9941L10.2363 11.6744L8.84765 10.2049C8.68983 10.0311 8.46366 9.93711 8.2332 9.93711C7.79062 9.93711 7.42636 10.2572 7.42636 10.7174C7.42636 10.9541 7.5248 11.1359 7.68886 11.3017L10.9185 14.4027C11.1525 14.6394 11.3642 14.7139 11.608 14.7139Z" fill="white" fill-opacity="0.25"/>
 </g>
</svg>
