<?xml version="1.0" encoding="UTF-8"?>
<!--Generator: Apple Native CoreSVG 341-->
<!DOCTYPE svg
PUBLIC "-//W3C//DTD SVG 1.1//EN"
       "http://www.w3.org/Graphics/SVG/1.1/DTD/svg11.dtd">
<svg version="1.1" xmlns="http://www.w3.org/2000/svg" xmlns:xlink="http://www.w3.org/1999/xlink" viewBox="0 0 25.5059 16.3246">
 <g>
  <rect height="16.3246" opacity="0" width="25.5059" x="0" y="0"/>
  <path d="M4.99258 16.3148L15.152 16.3148C17.6455 16.3148 19.0994 14.893 19.0994 12.4363L19.0994 3.86875C19.0994 1.42187 17.6455 0 15.152 0L4.99258 0C2.58712 0 1.04513 1.42187 1.04513 3.87226L1.04513 12.4961C1.04513 14.9492 2.49727 16.3148 4.99258 16.3148ZM5.31172 14.573C3.77519 14.573 2.9039 13.757 2.9039 12.1643L2.9039 4.15058C2.9039 2.5287 3.77519 1.73202 5.31172 1.73202L14.8328 1.73202C16.3596 1.73202 17.2389 2.54804 17.2389 4.15058L17.2389 12.1643C17.2389 13.757 16.3508 14.573 14.8275 14.573ZM18.7764 5.37558L18.7764 7.44901L23.3598 3.69549C23.4424 3.63065 23.4992 3.58534 23.5836 3.58534C23.692 3.58534 23.7426 3.6742 23.7426 3.80389L23.7426 12.5566C23.7426 12.6846 23.692 12.7672 23.5836 12.7672C23.4992 12.7672 23.4424 12.7201 23.3598 12.6633L18.7764 8.91152L18.7764 10.9752L22.6256 14.2445C23.0795 14.623 23.5479 14.8828 24.0062 14.8828C24.9008 14.8828 25.5059 14.234 25.5059 13.2766L25.5059 3.08398C25.5059 2.1248 24.9008 1.47597 24.0062 1.47597C23.5461 1.47597 23.0795 1.73574 22.6256 2.11425Z" fill="white" fill-opacity="0.25"/>
  <path d="M13.2887 11.1832C13.7383 11.1832 14.0957 10.8603 14.0957 10.416L14.0957 5.11815C14.0957 4.51015 13.7785 4.1832 13.1705 4.1832L7.81973 4.1832C7.37715 4.1832 7.04903 4.54238 7.04903 4.99198C7.04903 5.42733 7.39669 5.75097 7.82325 5.75097L9.19981 5.75097L12.816 5.48319L12.5297 9.08359L12.5297 10.4143C12.5297 10.8391 12.8533 11.1832 13.2887 11.1832ZM6.86465 12.1728C7.09707 12.1809 7.27168 12.0939 7.4375 11.9334L11.351 8.07362L13.1641 6.10956C13.4238 5.83475 13.4336 5.40116 13.1641 5.13964C12.891 4.86659 12.4592 4.87987 12.1746 5.13788L10.207 6.93769L6.30782 10.8072C6.12598 10.9775 6.04708 11.1717 6.04083 11.4146C6.04883 11.8482 6.39825 12.1844 6.86465 12.1728Z" fill="white" fill-opacity="0.25"/>
 </g>
</svg>
