<?xml version="1.0" encoding="UTF-8"?>
<!--Generator: Apple Native CoreSVG 341-->
<!DOCTYPE svg
PUBLIC "-//W3C//DTD SVG 1.1//EN"
       "http://www.w3.org/Graphics/SVG/1.1/DTD/svg11.dtd">
<svg version="1.1" xmlns="http://www.w3.org/2000/svg" xmlns:xlink="http://www.w3.org/1999/xlink" viewBox="0 0 25.5059 16.3246">
 <g>
  <rect height="16.3246" opacity="0" width="25.5059" x="0" y="0"/>
  <path d="M4.99258 16.3148L15.152 16.3148C17.6455 16.3148 19.0994 14.893 19.0994 12.4363L19.0994 3.86875C19.0994 1.42187 17.6455 0 15.152 0L4.99258 0C2.58712 0 1.04513 1.42187 1.04513 3.87226L1.04513 12.4961C1.04513 14.9492 2.49727 16.3148 4.99258 16.3148ZM5.31172 14.573C3.77519 14.573 2.9039 13.757 2.9039 12.1643L2.9039 4.15058C2.9039 2.5287 3.77519 1.73202 5.31172 1.73202L14.8328 1.73202C16.3596 1.73202 17.2389 2.54804 17.2389 4.15058L17.2389 12.1643C17.2389 13.757 16.3508 14.573 14.8275 14.573ZM18.7764 5.37558L18.7764 7.44901L23.3598 3.69549C23.4424 3.63065 23.4992 3.58534 23.5836 3.58534C23.692 3.58534 23.7426 3.6742 23.7426 3.80389L23.7426 12.5566C23.7426 12.6846 23.692 12.7672 23.5836 12.7672C23.4992 12.7672 23.4424 12.7201 23.3598 12.6633L18.7764 8.91152L18.7764 10.9752L22.6256 14.2445C23.0795 14.623 23.5479 14.8828 24.0062 14.8828C24.9008 14.8828 25.5059 14.234 25.5059 13.2766L25.5059 3.08398C25.5059 2.1248 24.9008 1.47597 24.0062 1.47597C23.5461 1.47597 23.0795 1.73574 22.6256 2.11425Z" fill="white" fill-opacity="0.25"/>
  <path d="M6.85586 5.13164C6.41426 5.13164 6.04883 5.45449 6.04883 5.89882L6.04883 11.1949C6.04883 11.8047 6.36602 12.1316 6.98379 12.1316L12.3248 12.1316C12.7674 12.1316 13.1035 11.7707 13.1035 11.3228C13.1035 10.8795 12.7576 10.5639 12.3213 10.5639L10.9447 10.5639L7.33652 10.8316L7.62461 7.22949L7.62461 5.90058C7.62461 5.47578 7.30098 5.13164 6.85586 5.13164ZM13.2879 4.14023C13.0555 4.13222 12.8729 4.22089 12.707 4.38144L8.80332 8.23945L6.98223 10.1955C6.72871 10.4783 6.71895 10.9137 6.98223 11.1752C7.25351 11.4482 7.68535 11.435 7.96992 11.177L9.9375 9.36913L13.8465 5.50761C14.0203 5.32929 14.1055 5.13515 14.1117 4.89843C14.1037 4.45859 13.748 4.13046 13.2879 4.14023Z" fill="white" fill-opacity="0.25"/>
 </g>
</svg>
