<?xml version="1.0" encoding="UTF-8"?>
<!--Generator: Apple Native CoreSVG 341-->
<!DOCTYPE svg
PUBLIC "-//W3C//DTD SVG 1.1//EN"
       "http://www.w3.org/Graphics/SVG/1.1/DTD/svg11.dtd">
<svg version="1.1" xmlns="http://www.w3.org/2000/svg" xmlns:xlink="http://www.w3.org/1999/xlink" viewBox="0 0 23.459 20.8304">
 <g>
  <rect height="20.8304" opacity="0" width="23.459" x="0" y="0"/>
  <path d="M23.0976 9.64061C23.0976 15.2224 18.2355 19.2847 11.5439 19.2847C9.34277 19.2847 7.35351 18.8826 5.64296 18.1058C4.61249 18.8471 3.21621 19.2847 1.84746 19.2847C1.13437 19.2847 0.86836 18.7359 1.35176 18.2996C1.94297 17.7527 2.17656 17.2599 2.17656 16.5017C2.17656 14.7642 0 13.6709 0 9.64061C0 4.04375 4.86914 0 11.5439 0C18.2187 0 23.0976 4.04375 23.0976 9.64061ZM10.64 5.42772L10.64 10.8385L10.6999 12.298L10.1699 11.685L8.73065 10.1711C8.56933 9.98398 8.32987 9.88828 8.08613 9.88828C7.62675 9.88828 7.24394 10.2252 7.24394 10.7021C7.24394 10.9521 7.34414 11.1473 7.52148 11.3166L10.8752 14.5416C11.1225 14.7933 11.343 14.8678 11.6 14.8678C11.8508 14.8678 12.0695 14.7933 12.3168 14.5416L15.6722 11.3166C15.8478 11.1473 15.948 10.9521 15.948 10.7021C15.948 10.2252 15.5572 9.88828 15.0978 9.88828C14.8541 9.88828 14.6226 9.98398 14.4613 10.1711L13.0221 11.685L12.4925 12.3016L12.5537 10.8385L12.5537 5.42772C12.5537 4.91718 12.1291 4.48554 11.6 4.48554C11.0744 4.48554 10.64 4.91718 10.64 5.42772Z" fill="white" fill-opacity="0.25"/>
 </g>
</svg>
