<?xml version="1.0" encoding="UTF-8"?>
<!--Generator: Apple Native CoreSVG 341-->
<!DOCTYPE svg
PUBLIC "-//W3C//DTD SVG 1.1//EN"
       "http://www.w3.org/Graphics/SVG/1.1/DTD/svg11.dtd">
<svg version="1.1" xmlns="http://www.w3.org/2000/svg" xmlns:xlink="http://www.w3.org/1999/xlink" viewBox="0 0 25.2865 19.1234">
 <g>
  <rect height="19.1234" opacity="0" width="25.2865" x="0" y="0"/>
  <path d="M21.8076 7.59316C23.74 8.40097 24.9252 10.2363 24.9252 12.3152C24.9252 15.0957 22.5344 17.3242 19.4973 17.3242L6.00429 17.3242C2.59238 17.3242 0 14.8488 0 11.881C0 9.4455 1.38398 7.43593 3.61562 7.04219C3.70664 4.29199 6.31152 2.44824 8.78066 3.1127C10.0053 1.34571 11.948 0 14.5523 0C18.6361 0 21.8201 3.18144 21.8076 7.59316ZM12.1699 4.97538L12.1699 5.87376C10.306 6.23119 8.90136 7.87949 8.90136 9.87226C8.90136 12.1496 10.7027 13.9492 12.9348 13.9492C15.1748 13.9492 16.9762 12.1496 16.9762 9.89804C16.9762 9.53085 16.6586 9.22304 16.2932 9.22304C15.91 9.22304 15.6004 9.53085 15.6004 9.89804C15.6004 11.385 14.4199 12.5797 12.9348 12.5797C11.4558 12.5797 10.2771 11.3814 10.2771 9.87226C10.2771 8.64457 11.0692 7.62229 12.1699 7.29487L12.1699 8.46093C12.1699 8.92577 12.6721 9.11386 13.042 8.79979L14.9125 7.19725C15.2461 6.90976 15.2266 6.47148 14.9125 6.208L13.042 4.62499C12.6703 4.33046 12.1699 4.50429 12.1699 4.97538Z" fill="white" fill-opacity="0.25"/>
 </g>
</svg>
