<?xml version="1.0" encoding="UTF-8"?>
<!--Generator: Apple Native CoreSVG 341-->
<!DOCTYPE svg
PUBLIC "-//W3C//DTD SVG 1.1//EN"
       "http://www.w3.org/Graphics/SVG/1.1/DTD/svg11.dtd">
<svg version="1.1" xmlns="http://www.w3.org/2000/svg" xmlns:xlink="http://www.w3.org/1999/xlink" viewBox="0 0 25.2865 19.1164">
 <g>
  <rect height="19.1164" opacity="0" width="25.2865" x="0" y="0"/>
  <path d="M19.4973 17.326C22.5344 17.326 24.9252 15.0957 24.9252 12.3152C24.9252 10.2363 23.74 8.40273 21.8076 7.59316C21.8201 3.18144 18.6361 0 14.5523 0C11.948 0 10.0053 1.34746 8.78066 3.1127C6.31152 2.44824 3.70664 4.29199 3.61562 7.04394C1.38398 7.43593 0 9.44726 0 11.881C0 14.8488 2.59238 17.326 6.00429 17.326ZM19.499 15.4127L6.00781 15.4127C3.66991 15.4127 1.93436 13.7818 1.93436 11.881C1.93436 9.93671 3.13709 8.47538 5.1371 8.47538C5.27909 8.47538 5.33495 8.40175 5.33143 8.266C5.27343 5.34432 7.36933 4.37128 9.45741 5.03085C9.57811 5.06815 9.6535 5.03886 9.71561 4.92792C10.6787 3.23143 12.1039 1.91327 14.54 1.91327C17.6289 1.91327 19.8088 4.35565 19.9643 7.20155C19.9953 7.71405 19.959 8.28182 19.9129 8.75311C19.9014 8.88885 19.9537 8.95897 20.0814 8.98651C21.8553 9.33319 22.9908 10.5863 22.9908 12.3152C22.9908 14.035 21.4684 15.4127 19.499 15.4127Z" fill="white" fill-opacity="0.25"/>
  <path d="M13.6055 5.21327C13.6055 4.76698 13.1219 4.59491 12.7732 4.87792L10.9691 6.3998C10.6666 6.658 10.6471 7.07323 10.9691 7.34921L12.7732 8.89062C13.1201 9.1914 13.6055 9.01483 13.6055 8.56679ZM12.8707 13.8539C15.0185 13.8539 16.749 12.1154 16.749 9.93378C16.749 7.75839 15.0168 6.01191 12.8707 6.01191C12.5105 6.01191 12.216 6.31444 12.216 6.66659C12.216 7.03026 12.5105 7.3328 12.8707 7.3328C14.2937 7.3328 15.4379 8.48671 15.4379 9.93378C15.4379 11.3871 14.2937 12.541 12.8707 12.541C11.4414 12.541 10.2955 11.3889 10.2955 9.95781C10.2955 9.60566 9.9992 9.31113 9.63905 9.31113C9.27889 9.31113 8.98436 9.60566 8.98436 9.95781C8.98436 12.1154 10.7148 13.8539 12.8707 13.8539Z" fill="white" fill-opacity="0.25"/>
 </g>
</svg>
