<?xml version="1.0" encoding="UTF-8"?>
<!--Generator: Apple Native CoreSVG 341-->
<!DOCTYPE svg
PUBLIC "-//W3C//DTD SVG 1.1//EN"
       "http://www.w3.org/Graphics/SVG/1.1/DTD/svg11.dtd">
<svg version="1.1" xmlns="http://www.w3.org/2000/svg" xmlns:xlink="http://www.w3.org/1999/xlink" viewBox="0 0 25.2865 19.1234">
 <g>
  <rect height="19.1234" opacity="0" width="25.2865" x="0" y="0"/>
  <path d="M21.8076 7.59316C23.74 8.40097 24.9252 10.2363 24.9252 12.3152C24.9252 15.0957 22.5344 17.3242 19.4973 17.3242L6.00429 17.3242C2.59238 17.3242 0 14.8488 0 11.881C0 9.4455 1.38398 7.43593 3.61562 7.04219C3.70664 4.29199 6.31152 2.44824 8.78066 3.1127C10.0053 1.34571 11.948 0 14.5523 0C18.6361 0 21.8201 3.18144 21.8076 7.59316ZM12.8338 4.62499L10.957 6.208C10.6412 6.47148 10.6314 6.90976 10.957 7.19725L12.8338 8.79979C13.1975 9.11386 13.6978 8.92577 13.6978 8.46093L13.6978 7.2935C14.8058 7.61904 15.6004 8.64263 15.6004 9.87226C15.6004 11.3814 14.4217 12.5797 12.9348 12.5797C11.4576 12.5797 10.2771 11.385 10.2771 9.89804C10.2771 9.53085 9.96757 9.22304 9.58436 9.22304C9.20917 9.22304 8.90136 9.53085 8.90136 9.89804C8.90136 12.1496 10.7027 13.9492 12.9348 13.9492C15.1668 13.9492 16.9762 12.1496 16.9762 9.87226C16.9762 7.87876 15.5643 6.22998 13.6978 5.87344L13.6978 4.97538C13.6978 4.50429 13.1992 4.33046 12.8338 4.62499Z" fill="white" fill-opacity="0.25"/>
 </g>
</svg>
