<?xml version="1.0" encoding="UTF-8"?>
<!--Generator: Apple Native CoreSVG 341-->
<!DOCTYPE svg
PUBLIC "-//W3C//DTD SVG 1.1//EN"
       "http://www.w3.org/Graphics/SVG/1.1/DTD/svg11.dtd">
<svg version="1.1" xmlns="http://www.w3.org/2000/svg" xmlns:xlink="http://www.w3.org/1999/xlink" viewBox="0 0 25.2865 19.1234">
 <g>
  <rect height="19.1234" opacity="0" width="25.2865" x="0" y="0"/>
  <path d="M21.8076 7.59316C23.74 8.40097 24.9252 10.2363 24.9252 12.3152C24.9252 15.0957 22.5344 17.3242 19.4973 17.3242L6.00429 17.3242C2.59238 17.3242 0 14.8488 0 11.881C0 9.4455 1.38398 7.43593 3.61562 7.04219C3.70664 4.29199 6.31152 2.44824 8.78066 3.1127C10.0053 1.34571 11.948 0 14.5523 0C18.6361 0 21.8201 3.18144 21.8076 7.59316ZM8.54062 8.06503L7.23749 9.87616C7.00429 10.1892 7.11679 10.5875 7.51777 10.5875L8.36541 10.5875C8.72891 12.7207 10.5825 14.3389 12.8148 14.3389C13.8424 14.3389 14.7953 13.9906 15.4789 13.4541C15.9215 13.1391 15.9463 12.676 15.7289 12.3887C15.5391 12.1226 15.1363 12.0084 14.6848 12.3074C14.174 12.6939 13.5451 12.9445 12.8148 12.9445C11.3603 12.9445 10.1326 11.9428 9.78985 10.5875L10.4676 10.5875C10.8641 10.5875 10.981 10.1892 10.7433 9.87616L9.41894 8.06503C9.18827 7.74472 8.78906 7.72069 8.54062 8.06503ZM10.157 6.17636C9.71445 6.4914 9.6914 6.95448 9.90703 7.24179C10.0969 7.5078 10.4996 7.62206 10.9512 7.32304C11.4637 6.93475 12.0908 6.68592 12.8148 6.68592C14.2754 6.68592 15.5024 7.68665 15.8456 9.03495L15.1684 9.03495C14.7656 9.03495 14.6549 9.4412 14.8926 9.75429L16.217 11.5654C16.4477 11.8857 16.8486 11.9098 17.0953 11.5654L18.3984 9.75429C18.6316 9.4412 18.5191 9.03495 18.1182 9.03495L17.2704 9.03495C16.9066 6.90807 15.0526 5.29159 12.8148 5.29159C11.7855 5.29159 10.8406 5.63984 10.157 6.17636Z" fill="white" fill-opacity="0.25"/>
 </g>
</svg>
