<?xml version="1.0" encoding="UTF-8"?>
<!--Generator: Apple Native CoreSVG 341-->
<!DOCTYPE svg
PUBLIC "-//W3C//DTD SVG 1.1//EN"
       "http://www.w3.org/Graphics/SVG/1.1/DTD/svg11.dtd">
<svg version="1.1" xmlns="http://www.w3.org/2000/svg" xmlns:xlink="http://www.w3.org/1999/xlink" viewBox="0 0 25.2949 16.0871">
 <g>
  <rect height="16.0871" opacity="0" width="25.2949" x="0" y="0"/>
  <path d="M17.9586 3.23007L17.9586 12.8393C17.9586 14.8953 16.7445 16.0773 14.6551 16.0773L4.36367 16.0773C2.27247 16.0773 1.06016 14.9498 1.06016 12.8937L1.06016 3.23183C1.06016 1.18203 2.3463 0 4.36367 0L14.7369 0C16.8264 0 17.9586 1.18203 17.9586 3.23007ZM25.2949 2.92363L25.2949 13.1976C25.2949 14.0459 24.7582 14.6166 23.9631 14.6166C23.5588 14.6166 23.1348 14.3959 22.7412 14.0537L19.3781 11.1533L19.3781 4.95996L22.7412 2.06757C23.1365 1.72539 23.557 1.50469 23.9631 1.50469C24.7582 1.50469 25.2949 2.07539 25.2949 2.92363ZM12.235 4.11386L8.18419 8.11367L6.76015 9.64695L6.96641 7.0664L6.96641 5.69414C6.96641 5.25078 6.62949 4.88535 6.16582 4.88535C5.69942 4.88535 5.31895 5.23125 5.31895 5.69238L5.31895 11.1896C5.31895 11.8312 5.65293 12.175 6.30078 12.175L11.8465 12.175C12.3076 12.175 12.657 11.799 12.657 11.3246C12.657 10.8627 12.2961 10.532 11.843 10.532L10.4213 10.532L7.81902 10.7281L9.37676 9.29824L13.4293 5.29667C13.6147 5.11659 13.7033 4.89941 13.7096 4.65917C13.7016 4.19277 13.3291 3.84961 12.8424 3.86113C12.5967 3.85136 12.4106 3.94179 12.235 4.11386Z" fill="white" fill-opacity="0.25"/>
 </g>
</svg>
