<?xml version="1.0" encoding="UTF-8"?>
<!--Generator: Apple Native CoreSVG 341-->
<!DOCTYPE svg
PUBLIC "-//W3C//DTD SVG 1.1//EN"
       "http://www.w3.org/Graphics/SVG/1.1/DTD/svg11.dtd">
<svg version="1.1" xmlns="http://www.w3.org/2000/svg" xmlns:xlink="http://www.w3.org/1999/xlink" viewBox="0 0 25.2949 16.0871">
 <g>
  <rect height="16.0871" opacity="0" width="25.2949" x="0" y="0"/>
  <path d="M17.9586 3.23007L17.9586 12.8393C17.9586 14.8953 16.7445 16.0773 14.6551 16.0773L4.36367 16.0773C2.27247 16.0773 1.06016 14.9498 1.06016 12.8937L1.06016 3.23183C1.06016 1.18203 2.3463 0 4.36367 0L14.7369 0C16.8264 0 17.9586 1.18203 17.9586 3.23007ZM25.2949 2.92363L25.2949 13.1976C25.2949 14.0459 24.7582 14.6166 23.9631 14.6166C23.5588 14.6166 23.1348 14.3959 22.7412 14.0537L19.3781 11.1533L19.3781 4.95996L22.7412 2.06757C23.1365 1.72539 23.557 1.50469 23.9631 1.50469C24.7582 1.50469 25.2949 2.07539 25.2949 2.92363ZM7.17227 3.90234C6.7129 3.90234 6.36974 4.27832 6.36974 4.75097C6.36974 5.20663 6.73067 5.54354 7.17755 5.54354L8.59747 5.54354L11.1975 5.34942L9.64376 6.76933L5.59923 10.7807C5.40411 10.9607 5.3252 11.1699 5.31895 11.4182C5.32696 11.8766 5.69141 12.226 6.18438 12.2162C6.43008 12.2242 6.6082 12.1355 6.79356 11.9635L10.8426 7.96366L12.2691 6.41514L12.0604 9.01093L12.0604 10.3832C12.0604 10.8248 12.399 11.192 12.8529 11.192C13.3273 11.192 13.7016 10.8461 13.7016 10.385L13.7016 4.88769C13.7016 4.24609 13.3676 3.90234 12.726 3.90234Z" fill="white" fill-opacity="0.25"/>
 </g>
</svg>
