<?xml version="1.0" encoding="UTF-8"?>
<!--Generator: Apple Native CoreSVG 341-->
<!DOCTYPE svg
PUBLIC "-//W3C//DTD SVG 1.1//EN"
       "http://www.w3.org/Graphics/SVG/1.1/DTD/svg11.dtd">
<svg version="1.1" xmlns="http://www.w3.org/2000/svg" xmlns:xlink="http://www.w3.org/1999/xlink" viewBox="0 0 27.4254 18.1648">
 <g>
  <rect height="18.1648" opacity="0" width="27.4254" x="0" y="0"/>
  <path d="M8.38593 0.00976562C3.78594 0.00976562 0 5.2914 0 11.7381C0 14.7926 0.819336 18.1648 1.84687 18.1648C2.61992 18.1648 3.25273 17.1527 3.35546 16.1908C1.76113 15.7725 0.604884 14.326 0.604884 12.6178C0.604884 11.5709 1.04023 10.642 1.82148 9.93379C2.19394 5.56094 5.03593 1.76132 8.29004 1.76132C10.2451 1.76132 11.1295 3.20957 11.1295 5.94121L3.2418 10.0586C2.08691 10.6613 1.55078 11.6129 1.55078 12.6178C1.55078 14.1205 2.7582 15.356 4.275 15.356C4.99492 15.356 5.47695 15.1768 6.51465 14.6131L10.5109 12.417C12.2588 11.4574 12.881 10.291 12.881 7.82148L12.881 5.61933C12.881 2.17402 11.3613 0.00976562 8.38593 0.00976562ZM4.21543 14.3318C3.26562 14.3318 2.49687 13.5596 2.49687 12.6178C2.49687 11.6795 3.26562 10.9072 4.21543 10.9072C5.15371 10.9072 5.92597 11.6795 5.92597 12.6178C5.92597 13.5596 5.15371 14.3318 4.21543 14.3318ZM4.21543 13.6266C4.76777 13.6266 5.21445 13.1719 5.21445 12.6178C5.21445 12.0672 4.76777 11.6125 4.21543 11.6125C3.65332 11.6125 3.20664 12.0672 3.20664 12.6178C3.20664 13.1719 3.65332 13.6266 4.21543 13.6266ZM18.6764 0.00976562C15.7027 0.00976562 14.183 2.17402 14.183 5.61933L14.183 7.82148C14.183 10.291 14.8035 11.4574 16.5451 12.417L20.5476 14.6131C21.5871 15.1768 22.0691 15.356 22.7891 15.356C24.2848 15.356 25.5133 14.1205 25.5133 12.6178C25.5133 11.6129 24.9754 10.6613 23.8142 10.0586L15.9328 5.94121C15.9328 3.20957 16.8189 1.76132 18.774 1.76132C22.0281 1.76132 24.8684 5.56094 25.2426 9.93379C26.0238 10.642 26.4592 11.5709 26.4592 12.6178C26.4592 14.326 25.2738 15.7742 23.6988 16.1908C23.8016 17.1527 24.4441 18.1648 25.2154 18.1648C26.243 18.1648 27.064 14.7926 27.064 11.7381C27.064 5.2914 23.2764 0.00976562 18.6764 0.00976562ZM22.8486 14.3318C21.9086 14.3318 21.1381 13.5596 21.1381 12.6178C21.1381 11.6795 21.9086 10.9072 22.8486 10.9072C23.7984 10.9072 24.5672 11.6795 24.5672 12.6178C24.5672 13.5596 23.7984 14.3318 22.8486 14.3318ZM22.8486 13.6266C23.409 13.6266 23.8574 13.1719 23.8574 12.6178C23.8574 12.0672 23.409 11.6125 22.8486 11.6125C22.2963 11.6125 21.8416 12.0672 21.8416 12.6178C21.8416 13.1719 22.2963 13.6266 22.8486 13.6266Z" fill="white" fill-opacity="0.25"/>
 </g>
</svg>
