<?xml version="1.0" encoding="UTF-8"?>
<!--Generator: Apple Native CoreSVG 341-->
<!DOCTYPE svg
PUBLIC "-//W3C//DTD SVG 1.1//EN"
       "http://www.w3.org/Graphics/SVG/1.1/DTD/svg11.dtd">
<svg version="1.1" xmlns="http://www.w3.org/2000/svg" xmlns:xlink="http://www.w3.org/1999/xlink" viewBox="0 0 13.927 20.0078">
 <g>
  <rect height="20.0078" opacity="0" width="13.927" x="0" y="0"/>
  <path d="M8.84905 15.3578C10.2346 15.3578 11.3494 14.243 11.3494 12.8609C11.3494 11.4674 10.2346 10.341 8.84905 10.341L0.859203 10.341C0.321509 10.341-0.0421618 10.734 0.00393171 11.2699L0.327955 14.6365C0.378541 15.081 0.708618 15.3578 1.13889 15.3578ZM8.84905 13.7543C9.35256 13.7543 9.75393 13.3627 9.75393 12.8574C9.75393 12.3504 9.35256 11.9428 8.84905 11.9428C8.33576 11.9428 7.9344 12.3504 7.9344 12.8574C7.9344 13.3627 8.33576 13.7543 8.84905 13.7543ZM3.22658 19.998L2.87776 16.6271L1.87444 16.6271L2.22151 19.998ZM8.84905 14.4986C7.92678 14.4986 7.19182 13.7717 7.19182 12.8574C7.19182 11.9414 7.92678 11.1984 8.84905 11.1984C9.7633 11.1984 10.4983 11.9432 10.4983 12.8574C10.4983 13.7717 9.76155 14.4986 8.84905 14.4986ZM4.73713 0C1.64358 0 0.0599869 2.10723 0.436354 5.84804L1.5717 17.099C1.67463 18.099 3.3633 18.0955 3.24885 16.9668L2.09573 5.91465C1.81252 3.27695 2.83889 1.71347 4.84455 1.71347C8.17151 1.71347 11.8403 5.40136 11.8403 9.84707C11.8403 10.1645 11.8162 10.5717 11.7602 10.9469C12.1279 11.4979 12.3379 12.1506 12.3379 12.8609C12.3379 14.5914 11.0797 16.0308 9.42834 16.3045C9.35901 16.7648 9.34123 17.058 9.34123 17.3707C9.34123 18.5318 9.7176 19.0783 10.2508 19.0783C12.3207 19.0623 13.5635 13.8252 13.5635 9.92871C13.5635 4.17402 9.35979 0 4.73713 0Z" fill="white" fill-opacity="0.25"/>
 </g>
</svg>
