<?xml version="1.0" encoding="UTF-8"?>
<!--Generator: Apple Native CoreSVG 341-->
<!DOCTYPE svg
PUBLIC "-//W3C//DTD SVG 1.1//EN"
       "http://www.w3.org/Graphics/SVG/1.1/DTD/svg11.dtd">
<svg version="1.1" xmlns="http://www.w3.org/2000/svg" xmlns:xlink="http://www.w3.org/1999/xlink" viewBox="0 0 35.9881 17.5621">
 <g>
  <rect height="17.5621" opacity="0" width="35.9881" x="0" y="0"/>
  <path d="M5.29687 17.5488C5.93417 17.5488 6.47558 17.3598 7.04726 16.9328L15.0156 10.8502C16.6721 9.58964 17.2162 8.41797 17.2162 5.92441C17.2162 3.57383 15.3396 0 11.282 0C4.2043 0 0 10.2004 0 13.35C0 13.941 0.32207 14.3678 0.910349 14.3678C1.51914 14.3678 2.86386 13.5299 2.9748 12.0711C3.09375 10.5031 3.18769 9.56816 3.68593 8.15605C4.61367 5.48828 7.72011 1.71152 11.1861 1.71152C13.5922 1.71152 15.233 3.62226 15.233 5.16093C15.233 5.81445 14.9381 6.29062 13.924 6.38828C12.8605 6.4957 12.2801 6.675 11.3711 7.36738L3.86699 13.1162C3.24746 13.5938 2.8498 14.2541 2.8498 15.092C2.8498 16.4793 3.93886 17.5488 5.29687 17.5488ZM5.29687 16.5484C4.49453 16.5484 3.85195 15.9041 3.85195 15.092C3.85195 14.2914 4.49453 13.6471 5.29687 13.6471C6.11523 13.6471 6.75956 14.2914 6.75956 15.092C6.75956 15.9041 6.11523 16.5484 5.29687 16.5484ZM5.29687 15.891C5.75234 15.891 6.10214 15.5314 6.10214 15.092C6.10214 14.6561 5.75234 14.3045 5.29687 14.3045C4.86718 14.3045 4.51386 14.6561 4.51386 15.092C4.51386 15.5314 4.86718 15.891 5.29687 15.891ZM30.3281 17.5488C31.6861 17.5488 32.7752 16.4793 32.7752 15.092C32.7752 14.2541 32.3873 13.5938 31.7678 13.1162L24.2637 7.36738C23.3547 6.675 22.7662 6.4957 21.7107 6.38828C20.6869 6.29062 20.3937 5.81445 20.3937 5.16093C20.3937 3.62226 22.0426 1.71152 24.4406 1.71152C27.9066 1.71152 31.0113 5.48828 31.9471 8.15605C32.4391 9.56816 32.541 10.5031 32.6502 12.0711C32.7611 13.5299 34.1076 14.3678 34.7164 14.3678C35.3047 14.3678 35.6267 13.941 35.6267 13.35C35.6267 10.2004 31.4305 0 24.3527 0C20.2951 0 18.4185 3.57383 18.4185 5.92441C18.4185 8.41797 18.9627 9.58964 20.6111 10.8502L28.5857 16.9328C29.1512 17.3598 29.6908 17.5488 30.3281 17.5488ZM30.3281 16.5484C29.5195 16.5484 28.8752 15.9041 28.8752 15.092C28.8752 14.2914 29.5195 13.6471 30.3281 13.6471C31.1322 13.6471 31.7748 14.2914 31.7748 15.092C31.7748 15.9041 31.1322 16.5484 30.3281 16.5484ZM30.3281 15.891C30.7676 15.891 31.1111 15.5314 31.1111 15.092C31.1111 14.6561 30.7676 14.3045 30.3281 14.3045C29.8824 14.3045 29.5228 14.6561 29.5228 15.092C29.5228 15.5314 29.8824 15.891 30.3281 15.891Z" fill="white" fill-opacity="0.25"/>
 </g>
</svg>
