<?xml version="1.0" encoding="UTF-8"?>
<!--Generator: Apple Native CoreSVG 341-->
<!DOCTYPE svg
PUBLIC "-//W3C//DTD SVG 1.1//EN"
       "http://www.w3.org/Graphics/SVG/1.1/DTD/svg11.dtd">
<svg version="1.1" xmlns="http://www.w3.org/2000/svg" xmlns:xlink="http://www.w3.org/1999/xlink" viewBox="0 0 27.191 16.4129">
 <g>
  <rect height="16.4129" opacity="0" width="27.191" x="0" y="0"/>
  <path d="M0 8.20156C0 13.4232 3.7125 16.4031 10.2619 16.4031L16.574 16.4031C23.1172 16.4031 26.8297 13.4232 26.8297 8.20156C26.8297 2.97988 23.1172 0 16.574 0L10.2619 0C3.7125 0 0 2.97988 0 8.20156ZM1.89217 8.20156C1.89217 4.16483 4.90546 1.89217 10.2619 1.89217L16.574 1.89217C21.9305 1.89217 24.9357 4.16483 24.9357 8.20156C24.9357 12.2365 21.9305 14.5092 16.574 14.5092L10.2619 14.5092C4.90546 14.5092 1.89217 12.2365 1.89217 8.20156ZM0.977336 8.22089L25.8523 8.22089L25.8523 7.21172L0.977336 7.21172ZM8.3584 8.86562L18.4793 8.86562C19.1549 8.86562 19.6449 8.38711 19.6449 7.71152C19.6449 7.02617 19.1549 6.55566 18.4793 6.55566L8.3584 6.55566C7.69434 6.55566 7.18477 7.02617 7.18477 7.71152C7.18477 8.38711 7.69434 8.86562 8.3584 8.86562ZM13.4148 11.7059C13.9617 11.6943 14.4029 11.2353 14.4029 10.7373C14.4029 10.1887 13.9617 9.74922 13.4148 9.74922C12.8777 9.74922 12.4348 10.1887 12.4348 10.7373C12.4348 11.2646 12.8777 11.7156 13.4148 11.7059Z" fill="white" fill-opacity="0.25"/>
 </g>
</svg>
