<?xml version="1.0" encoding="UTF-8"?>
<!--Generator: Apple Native CoreSVG 341-->
<!DOCTYPE svg
PUBLIC "-//W3C//DTD SVG 1.1//EN"
       "http://www.w3.org/Graphics/SVG/1.1/DTD/svg11.dtd">
<svg version="1.1" xmlns="http://www.w3.org/2000/svg" xmlns:xlink="http://www.w3.org/1999/xlink" viewBox="0 0 18.4439 18.4535">
 <g>
  <rect height="18.4535" opacity="0" width="18.4439" x="0" y="0"/>
  <path d="M12.5168 18.4312C13.9432 18.4312 15.0828 17.3031 15.0828 15.8537C15.0828 14.9768 14.6754 14.2756 14.0248 13.7768L6.14336 7.73848C5.18554 7.00879 4.57402 6.81797 3.46172 6.71055C2.38906 6.60312 2.07812 6.10742 2.07812 5.4166C2.07812 3.80781 3.80507 1.79316 6.32832 1.79316C9.97011 1.79316 13.2311 5.76523 14.2156 8.56797C14.7334 10.0467 14.8371 11.0305 14.9561 12.6846C15.0687 14.2152 16.4836 15.0922 17.1234 15.0922C17.7428 15.0922 18.0826 14.6459 18.0826 14.0158C18.0826 10.7082 13.6732 0 6.23066 0C1.97422 0 0 3.75137 0 6.21914C0 8.83964 0.573437 10.0717 2.30976 11.4006L10.6848 17.7842C11.2777 18.2324 11.8484 18.4312 12.5168 18.4312ZM12.5168 17.382C11.6576 17.382 10.9822 16.7049 10.9822 15.8537C10.9822 15.0123 11.6576 14.3369 12.5168 14.3369C13.3582 14.3369 14.0336 15.0123 14.0336 15.8537C14.0336 16.7049 13.3582 17.382 12.5168 17.382ZM12.5168 16.6918C12.974 16.6918 13.3371 16.3127 13.3371 15.8537C13.3371 15.3982 12.974 15.0254 12.5168 15.0254C12.04 15.0254 11.6707 15.3982 11.6707 15.8537C11.6707 16.3127 12.04 16.6918 12.5168 16.6918Z" fill="white" fill-opacity="0.25"/>
 </g>
</svg>
