<?xml version="1.0" encoding="UTF-8"?>
<!--Generator: Apple Native CoreSVG 341-->
<!DOCTYPE svg
PUBLIC "-//W3C//DTD SVG 1.1//EN"
       "http://www.w3.org/Graphics/SVG/1.1/DTD/svg11.dtd">
<svg version="1.1" xmlns="http://www.w3.org/2000/svg" xmlns:xlink="http://www.w3.org/1999/xlink" viewBox="0 0 17.365 16.1816">
 <g>
  <rect height="16.1816" opacity="0" width="17.365" x="0" y="0"/>
  <path d="M7.26035 10.1736C8.64511 10.7648 10.2535 10.0875 10.858 8.71699L12.8482 4.18613C13.4527 2.80937 12.7896 1.17969 11.3996 0.576953C10.0033-0.0160158 8.39668 0.639062 7.78242 2.04336L5.80195 6.57246C5.18594 7.96074 5.85879 9.56738 7.26035 10.1736ZM8.27304 9.36406C7.31972 9.36406 6.56972 8.60429 6.56972 7.65273C6.56972 6.70742 7.32949 5.9414 8.27304 5.9414C9.23437 5.9414 9.99238 6.70742 9.99238 7.65273C9.99238 8.60429 9.23437 9.36406 8.27304 9.36406ZM8.27304 8.61972C8.83339 8.61972 9.24004 8.1873 9.24004 7.65273C9.24004 7.12441 8.83339 6.68574 8.27304 6.68574C7.73046 6.68574 7.31406 7.12441 7.31406 7.65273C7.31406 8.1873 7.73046 8.61972 8.27304 8.61972ZM16.7871 7.25507C16.2846 5.59296 15.0609 4.78339 14.007 3.89902C13.9502 4.1414 13.8801 4.36425 13.7744 4.59511L11.7842 9.12597C10.949 11.0279 8.75156 11.9039 6.85312 11.1078C5.05351 10.3203 4.15976 8.33476 4.76172 6.53788C3.93008 7.61562 3.76719 9.18417 4.42344 10.9887C5.63887 14.4006 8.75508 15.1312 11.9217 13.8932L13.7832 13.1572C16.3228 12.1603 17.5283 9.80273 16.7871 7.25507Z" fill="white" fill-opacity="0.25"/>
  <path d="M3.46973 11.3355C3.00547 10.0803 2.88926 8.86035 3.15117 7.61425C1.31524 8.13339 0 9.79902 0 11.7992C0 14.2234 1.9582 16.1816 4.36289 16.1816C5.45742 16.1816 6.41133 15.8103 7.1457 15.1506C5.47949 14.5941 4.17012 13.292 3.46973 11.3355Z" fill="white" fill-opacity="0.25"/>
 </g>
</svg>
