<?xml version="1.0" encoding="UTF-8"?>
<!--Generator: Apple Native CoreSVG 341-->
<!DOCTYPE svg
PUBLIC "-//W3C//DTD SVG 1.1//EN"
       "http://www.w3.org/Graphics/SVG/1.1/DTD/svg11.dtd">
<svg version="1.1" xmlns="http://www.w3.org/2000/svg" xmlns:xlink="http://www.w3.org/1999/xlink" viewBox="0 0 20.0689 19.6223">
 <g>
  <rect height="19.6223" opacity="0" width="20.0689" x="0" y="0"/>
  <path d="M6.09003 19.6125L13.5918 19.6125C17.6119 19.6125 19.7076 17.5248 19.7076 13.5225L19.7076 6.09003C19.7076 2.08769 17.6119 0 13.5918 0L6.09003 0C2.08769 0 0 2.08769 0 6.09003L0 13.5225C0 17.5248 2.08769 19.6125 6.09003 19.6125ZM9.84804 14.535C7.24042 14.535 5.1291 12.4316 5.1291 9.80625C5.1291 8.05449 6.0791 6.50253 7.58046 5.65996L7.58046 9.80625C7.58046 11.0652 8.57753 12.0543 9.84804 12.0543C11.0973 12.0543 12.1219 11.0457 12.1219 9.80625C12.1219 8.56679 11.076 7.51113 9.84804 7.51113C9.40859 7.51113 8.96464 7.65761 8.59707 7.92753L8.59707 5.25156C8.96464 5.13613 9.39082 5.09706 9.84804 5.09706C12.4131 5.09706 14.5732 7.20039 14.5732 9.80625C14.5732 12.3828 12.4619 14.535 9.84804 14.535ZM9.84804 11.0555C9.17773 11.0555 8.6166 10.4943 8.6166 9.80625C8.6166 9.13769 9.19902 8.57656 9.84804 8.57656C10.4971 8.57656 11.0875 9.16699 11.0875 9.80625C11.0875 10.465 10.5148 11.0555 9.84804 11.0555Z" fill="white" fill-opacity="0.25"/>
 </g>
</svg>
