<?xml version="1.0" encoding="UTF-8"?>
<!--Generator: Apple Native CoreSVG 341-->
<!DOCTYPE svg
PUBLIC "-//W3C//DTD SVG 1.1//EN"
       "http://www.w3.org/Graphics/SVG/1.1/DTD/svg11.dtd">
<svg version="1.1" xmlns="http://www.w3.org/2000/svg" xmlns:xlink="http://www.w3.org/1999/xlink" viewBox="0 0 32.1693 15.5004">
 <g>
  <rect height="15.5004" opacity="0" width="32.1693" x="0" y="0"/>
  <path d="M2.23047 8.73593C2.23047 8.37734 2.26777 8.02499 2.31386 7.67441C0.934569 8.34902 0 9.75761 0 11.3748C0 13.6328 1.81953 15.5004 4.12558 15.5004C5.11347 15.5004 6.02324 15.1435 6.73417 14.5711C4.11484 13.7074 2.23047 11.5266 2.23047 8.73593ZM29.5775 8.73593C29.5775 11.5266 27.6931 13.7074 25.0773 14.5711C25.7847 15.1435 26.6945 15.5004 27.6824 15.5004C29.9787 15.5004 31.808 13.6328 31.808 11.3748C31.808 9.75761 30.8752 8.34902 29.4861 7.67441C29.5482 8.02499 29.5775 8.37734 29.5775 8.73593Z" fill="white" fill-opacity="0.25"/>
  <path d="M12.7256 5.85566C13.7117 4.14883 13.1348 2.02832 11.4314 1.04043C9.74589 0.072071 7.59433 0.639258 6.61445 2.33457L4.92441 5.25742C3.95605 6.95273 4.52324 9.10605 6.22656 10.0726C7.92011 11.0685 10.0654 10.4881 11.0435 8.77499ZM7.8162 8.94277C6.83984 8.94277 6.07207 8.16171 6.07207 7.19062C6.07207 6.22226 6.8496 5.43847 7.8162 5.43847C8.79081 5.43847 9.56835 6.22226 9.56835 7.19062C9.56835 8.16171 8.79081 8.94277 7.8162 8.94277ZM7.8162 8.17714C8.38007 8.17714 8.80273 7.73496 8.80273 7.19062C8.80273 6.64277 8.38007 6.20234 7.8162 6.20234C7.26386 6.20234 6.83417 6.64277 6.83417 7.19062C6.83417 7.73496 7.26386 8.17714 7.8162 8.17714ZM9.19648 14.05C12.5062 14.05 15.2588 11.7707 15.2588 8.31699C15.2588 6.85625 14.8037 5.86562 14.073 4.73203C13.9932 5.26367 13.8139 5.79355 13.5201 6.30214L11.8381 9.22773C10.6141 11.3775 7.90058 12.0885 5.77382 10.8529C4.21172 9.96093 3.40488 8.25781 3.58222 6.575C3.2832 7.28496 3.1457 8.0082 3.1457 8.7457C3.1457 11.8426 5.88222 14.05 9.19648 14.05ZM19.0744 5.85566L20.7564 8.77499C21.7346 10.4881 23.8879 11.0685 25.5814 10.0726C27.2847 9.10605 27.8439 6.95273 26.8676 5.25742L25.1935 2.33457C24.2217 0.639258 22.0621 0.072071 20.3765 1.04043C18.6732 2.02832 18.0945 4.14883 19.0744 5.85566ZM23.9918 8.94277C23.0172 8.94277 22.2414 8.16171 22.2414 7.19062C22.2414 6.22226 23.0172 5.43847 23.9918 5.43847C24.9584 5.43847 25.7279 6.22226 25.7279 7.19062C25.7279 8.16171 24.9681 8.94277 23.9918 8.94277ZM23.9918 8.17714C24.5361 8.17714 24.9721 7.73496 24.9721 7.19062C24.9721 6.64277 24.5361 6.20234 23.9918 6.20234C23.4234 6.20234 23.0053 6.64277 23.0053 7.19062C23.0053 7.73496 23.4234 8.17714 23.9918 8.17714ZM22.6035 14.05C25.9258 14.05 28.6623 11.8426 28.6623 8.7457C28.6623 8.0082 28.507 7.28496 28.2258 6.575C28.4031 8.25781 27.59 9.96093 26.0342 10.8529C23.9074 12.0885 21.1939 11.3775 19.9699 9.22773L18.2861 6.30214C17.9941 5.79355 17.8148 5.26367 17.7349 4.73203C16.9963 5.86562 16.5492 6.85625 16.5492 8.31699C16.5492 11.7707 19.2937 14.05 22.6035 14.05Z" fill="white" fill-opacity="0.25"/>
 </g>
</svg>
