<?xml version="1.0" encoding="UTF-8"?>
<!--Generator: Apple Native CoreSVG 341-->
<!DOCTYPE svg
PUBLIC "-//W3C//DTD SVG 1.1//EN"
       "http://www.w3.org/Graphics/SVG/1.1/DTD/svg11.dtd">
<svg version="1.1" xmlns="http://www.w3.org/2000/svg" xmlns:xlink="http://www.w3.org/1999/xlink" viewBox="0 0 31.9576 16.2383">
 <g>
  <rect height="16.2383" opacity="0" width="31.9576" x="0" y="0"/>
  <path d="M11.7158 11.8111C12.9176 11.8111 14.2187 11.0922 14.5072 9.56112L14.983 6.94433C15.4916 4.19472 13.4086 2.14883 10.0668 0.999413C8.0955 0.309765 6.15527 0 4.20175 0C3.60976 0 3.41445 0.210351 3.41445 0.596484C3.41445 1.53555 3.9 2.25 4.85234 2.38672C6.40292 2.6166 7.62636 2.94668 8.82851 3.52363C9.3203 3.75527 9.4996 4.10664 9.41444 4.63007L8.82499 8.17831C8.48593 10.2232 9.86522 11.8111 11.7158 11.8111ZM11.7105 10.4394C10.8461 10.4394 10.1689 9.76054 10.1689 8.90585C10.1689 8.04316 10.8461 7.358 11.7105 7.358C12.5652 7.358 13.2486 8.04316 13.2486 8.90585C13.2486 9.76855 12.5652 10.4394 11.7105 10.4394ZM11.7105 9.75194C12.1935 9.75194 12.5611 9.37909 12.5611 8.90585C12.5611 8.42284 12.1935 8.04374 11.7105 8.04374C11.2258 8.04374 10.8564 8.42284 10.8564 8.90585C10.8564 9.37909 11.2258 9.75194 11.7105 9.75194ZM11.7158 12.7443C9.22382 12.7443 7.46757 10.5834 7.90331 8.02128L8.25488 5.90839C6.34609 6.40195 4.94882 7.22577 4.33203 8.4748C4.86894 10.824 5.71562 12.9939 6.90839 15.0822C7.47655 15.3584 8.07226 15.4525 8.87655 15.4525C11.9736 15.4525 14.734 13.9523 14.9564 10.965C14.2998 12.0678 13.1006 12.7443 11.7158 12.7443ZM19.8822 11.8111C21.731 11.8111 23.1041 10.2232 22.7713 8.17831L22.1818 4.63007C22.0886 4.10664 22.2777 3.75527 22.7615 3.52363C23.9699 2.94668 25.1933 2.6166 26.7439 2.38672C27.6963 2.25 28.1756 1.53555 28.1756 0.596484C28.1756 0.210351 27.9865 0 27.3963 0C25.4427 0 23.5025 0.309765 21.5232 0.999413C18.1877 2.14883 16.1047 4.19472 16.615 6.94433L17.0908 9.56112C17.3695 11.0922 18.6787 11.8111 19.8822 11.8111ZM19.8875 10.4394C19.023 10.4394 18.3476 9.76855 18.3476 8.90585C18.3476 8.04316 19.023 7.358 19.8875 7.358C20.7422 7.358 21.4273 8.04316 21.4273 8.90585C21.4273 9.76054 20.7422 10.4394 19.8875 10.4394ZM19.8875 9.75194C20.3705 9.75194 20.7416 9.37909 20.7416 8.90585C20.7416 8.42284 20.3705 8.04374 19.8875 8.04374C19.4027 8.04374 19.0351 8.42284 19.0351 8.90585C19.0351 9.37909 19.4027 9.75194 19.8875 9.75194ZM19.8822 12.7443C18.4877 12.7443 17.2902 12.0678 16.6398 10.965C16.8623 13.9523 19.6244 15.4525 22.7215 15.4525C23.524 15.4525 24.1197 15.3584 24.6816 15.0822C25.8806 12.9939 26.7211 10.824 27.2562 8.4748C26.6474 7.22577 25.2502 6.40195 23.3414 5.90839L23.6947 8.02128C24.1287 10.5834 22.3662 12.7443 19.8822 12.7443Z" fill="white" fill-opacity="0.25"/>
  <path d="M0 12.3197C0 14.6496 1.5664 16.2338 3.89277 16.2338C4.83261 16.2338 5.62558 15.9363 6.13066 15.5953C4.86054 13.4111 3.95351 11.0734 3.39082 8.58124C1.65215 8.75429 0 10.1726 0 12.3197ZM31.5963 12.3197C31.5963 10.1726 29.9441 8.75429 28.2054 8.58124C27.6347 11.0734 26.7375 13.4111 25.4576 15.5953C25.9627 15.9363 26.7636 16.2338 27.7035 16.2338C30.0316 16.2338 31.5963 14.6496 31.5963 12.3197Z" fill="white" fill-opacity="0.25"/>
 </g>
</svg>
