<?xml version="1.0" encoding="UTF-8"?>
<!--Generator: Apple Native CoreSVG 341-->
<!DOCTYPE svg
PUBLIC "-//W3C//DTD SVG 1.1//EN"
       "http://www.w3.org/Graphics/SVG/1.1/DTD/svg11.dtd">
<svg version="1.1" xmlns="http://www.w3.org/2000/svg" xmlns:xlink="http://www.w3.org/1999/xlink" viewBox="0 0 12.6379 20.5457">
 <g>
  <rect height="20.5457" opacity="0" width="12.6379" x="0" y="0"/>
  <path d="M7.98379 0C3.6084 0 0 5.03398 0 11.1762C0 14.0842 0.772265 17.2967 1.75722 17.2967C2.49746 17.2967 3.10273 16.3414 3.20371 15.4185C1.69883 15.0197 0.575587 13.6434 0.575587 12.0248C0.575587 11.0223 0.989648 10.1342 1.72832 9.44727C2.09101 5.29551 4.79453 1.66816 7.89414 1.66816C9.75507 1.66816 10.6004 3.05156 10.6004 5.65449L3.0918 9.57656C1.98926 10.1482 1.48066 11.059 1.48066 12.0248C1.48066 13.4494 2.64883 14.6246 4.0664 14.6246C4.75703 14.6246 5.21777 14.4471 6.20039 13.9207L10.0236 11.8258C11.6853 10.9053 12.2766 9.79121 12.2766 7.44687L12.2766 5.34414C12.2766 2.07461 10.8269 0 7.98379 0ZM4.01484 13.651C3.10762 13.651 2.37793 12.9098 2.37793 12.0168C2.37793 11.1176 3.10762 10.3844 4.01484 10.3844C4.90781 10.3844 5.63925 11.1176 5.63925 12.0168C5.63925 12.9098 4.90781 13.651 4.01484 13.651ZM4.01484 12.9768C4.5334 12.9768 4.96855 12.5416 4.96855 12.0168C4.96855 11.4937 4.5334 11.0586 4.01484 11.0586C3.48379 11.0586 3.05488 11.4937 3.05488 12.0168C3.05488 12.5416 3.48379 12.9768 4.01484 12.9768ZM1.3375 20.5359L2.35019 20.5359L2.35019 16.8939L1.3375 16.8939Z" fill="white" fill-opacity="0.25"/>
 </g>
</svg>
