<?xml version="1.0" encoding="UTF-8"?>
<!--Generator: Apple Native CoreSVG 341-->
<!DOCTYPE svg
PUBLIC "-//W3C//DTD SVG 1.1//EN"
       "http://www.w3.org/Graphics/SVG/1.1/DTD/svg11.dtd">
<svg version="1.1" xmlns="http://www.w3.org/2000/svg" xmlns:xlink="http://www.w3.org/1999/xlink" viewBox="0 0 27.183 16.3777">
 <g>
  <rect height="16.3777" opacity="0" width="27.183" x="0" y="0"/>
  <path d="M0.0505859 7.3L7.26582 7.3C7.44512 6.89609 7.84727 6.64043 8.3293 6.64043L18.4906 6.64043C18.9859 6.64043 19.3766 6.89609 19.5541 7.3L26.7773 7.3C26.275 2.49297 22.8369 0 16.5818 0L10.2398 0C3.99903 0 0.554687 2.4877 0.0505859 7.3ZM16.5818 16.3662C23.1482 16.3662 26.7453 13.582 26.8217 8.31094L19.5435 8.31094C19.366 8.7043 18.9754 8.95117 18.4906 8.95117L8.3293 8.95117C7.85605 8.95117 7.45742 8.7043 7.27637 8.31094L0 8.31094C0.0683594 13.4369 3.86914 16.3662 10.2398 16.3662ZM13.4148 12.142C12.876 12.1518 12.4312 11.699 12.4312 11.1699C12.4312 10.6275 12.876 10.1881 13.4148 10.1881C13.9555 10.1881 14.3967 10.6275 14.3967 11.1699C14.3967 11.6777 13.9555 12.1322 13.4148 12.142Z" fill="white" fill-opacity="0.25"/>
 </g>
</svg>
