<?xml version="1.0" encoding="UTF-8"?>
<!--Generator: Apple Native CoreSVG 341-->
<!DOCTYPE svg
PUBLIC "-//W3C//DTD SVG 1.1//EN"
       "http://www.w3.org/Graphics/SVG/1.1/DTD/svg11.dtd">
<svg version="1.1" xmlns="http://www.w3.org/2000/svg" xmlns:xlink="http://www.w3.org/1999/xlink" viewBox="0 0 24.9427 19.4863">
 <g>
  <rect height="19.4863" opacity="0" width="24.9427" x="0" y="0"/>
  <path d="M7.30976 8.86757C9.76561 8.86757 11.7467 6.8537 11.7467 4.43867C11.7467 1.99433 9.71503 0.0132811 7.30976 0.0132811C6.87929 0.0132811 6.48964 0.0523436 6.14531 0.161523L6.14531 2.66621C6.48964 2.41679 6.88905 2.27656 7.30976 2.27656C8.45917 2.27656 9.44257 3.26621 9.44257 4.43867C9.44257 5.5916 8.48222 6.54394 7.30976 6.54394C6.11777 6.54394 5.18496 5.62265 5.18496 4.43867L5.18496 0.533398C3.7746 1.33398 2.88086 2.78691 2.88086 4.43867C2.88086 6.90429 4.8539 8.86757 7.30976 8.86757ZM7.30976 5.61113C7.93905 5.61113 8.47245 5.05996 8.47245 4.43867C8.47245 3.83867 7.92128 3.27773 7.30976 3.27773C6.69999 3.27773 6.15507 3.81914 6.15507 4.43867C6.15507 5.07148 6.6787 5.61113 7.30976 5.61113ZM5.6291 7.90878L5.6291 10.1447C5.6291 10.7789 6.05742 11.1228 6.69687 11.1228L7.92265 11.1228C8.58339 11.1228 8.99843 10.7789 8.99843 10.1447L8.99843 7.90878ZM6.51054 19.4863L8.11698 19.4863L8.11698 10.0695L6.51054 10.0695ZM17.2637 8.86757C19.7195 8.86757 21.7006 6.8537 21.7006 4.43867C21.7006 1.99433 19.6689 0.0132811 17.2637 0.0132811C16.8332 0.0132811 16.4435 0.0523436 16.0992 0.161523L16.0992 2.66621C16.4435 2.41679 16.843 2.27656 17.2637 2.27656C18.4131 2.27656 19.3965 3.26621 19.3965 4.43867C19.3965 5.5916 18.4361 6.54394 17.2637 6.54394C16.0717 6.54394 15.1389 5.62265 15.1389 4.43867L15.1389 0.533398C13.7285 1.33398 12.8348 2.78691 12.8348 4.43867C12.8348 6.90429 14.8096 8.86757 17.2637 8.86757ZM17.2637 5.61113C17.8929 5.61113 18.4263 5.05996 18.4263 4.43867C18.4263 3.83867 17.8752 3.27773 17.2637 3.27773C16.6539 3.27773 16.109 3.81914 16.109 4.43867C16.109 5.07148 16.6326 5.61113 17.2637 5.61113ZM18.9523 7.90878L15.583 7.90878L15.583 10.1447C15.583 10.7789 15.9918 11.1228 16.6508 11.1228L17.8846 11.1228C18.524 11.1228 18.9523 10.7789 18.9523 10.1447ZM18.0709 19.4863L18.0709 10.0695L16.4644 10.0695L16.4644 19.4863Z" fill="white" fill-opacity="0.25"/>
  <path d="M2.04805 4.44843C2.04805 2.70429 2.89941 1.16699 4.19902 0.210351C1.81894 0.286326 0 2.10586 0 4.45019C0 6.77851 1.79668 8.60956 4.20605 8.68827C2.90117 7.73339 2.04805 6.19257 2.04805 4.44843ZM22.5334 4.44843C22.5334 6.19257 21.6802 7.73339 20.3771 8.68827C22.7527 8.60956 24.5814 6.79453 24.5814 4.45019C24.5814 2.12187 22.7802 0.286326 20.3824 0.210351C21.682 1.16699 22.5334 2.70429 22.5334 4.44843Z" fill="white" fill-opacity="0.25"/>
 </g>
</svg>
