<?xml version="1.0" encoding="UTF-8"?>
<!--Generator: Apple Native CoreSVG 341-->
<!DOCTYPE svg
PUBLIC "-//W3C//DTD SVG 1.1//EN"
       "http://www.w3.org/Graphics/SVG/1.1/DTD/svg11.dtd">
<svg version="1.1" xmlns="http://www.w3.org/2000/svg" xmlns:xlink="http://www.w3.org/1999/xlink" viewBox="0 0 16.6801 17.6027">
 <g>
  <rect height="17.6027" opacity="0" width="16.6801" x="0" y="0"/>
  <path d="M3.63216 12.7963C5.63021 12.7963 7.12142 11.0787 6.75306 8.85878L6.11829 5.01738C6.02337 4.44863 6.2222 4.06797 6.7513 3.81855C8.06009 3.18828 9.38743 2.83691 11.0579 2.58125C12.0947 2.43476 12.6158 1.66348 12.6158 0.643554C12.6158 0.228125 12.4107 0 11.7654 0C9.64661 0 7.54739 0.337304 5.40287 1.08203C1.79193 2.33183-0.466076 4.54472 0.0815799 7.52617L0.602674 10.3535C0.908923 12.0223 2.32025 12.7963 3.63216 12.7963ZM3.63744 11.3144C2.70013 11.3144 1.96166 10.5787 1.96166 9.64491C1.96166 8.70761 2.70013 7.97363 3.63744 7.97363C4.56673 7.97363 5.30072 8.71562 5.30072 9.64491C5.30072 10.5707 4.56673 11.3144 3.63744 11.3144ZM3.63744 10.5701C4.14974 10.5701 4.55638 10.1617 4.55638 9.64491C4.55638 9.13261 4.14974 8.71796 3.63744 8.71796C3.10912 8.71796 2.70599 9.13261 2.70599 9.64491C2.70599 10.1617 3.10912 10.5701 3.63744 10.5701ZM3.63216 13.8139C2.11947 13.8139 0.821618 13.0662 0.11615 11.8826C0.358141 15.1223 3.35033 16.7521 6.70325 16.7521C7.57865 16.7521 8.21966 16.6385 8.8349 16.3365C10.1281 14.0812 11.0413 11.7266 11.6236 9.18281C10.9597 7.82539 9.44427 6.93671 7.37376 6.39785L7.76087 8.69199C8.22415 11.4682 6.32044 13.8139 3.63216 13.8139Z" fill="white" fill-opacity="0.25"/>
  <path d="M16.3171 13.3422C16.3171 11.0281 14.5273 9.48984 12.6411 9.29902C12.0331 11.9955 11.0515 14.5357 9.67122 16.9029C10.2216 17.2715 11.0857 17.5867 12.1001 17.5867C14.621 17.5867 16.3171 15.8728 16.3171 13.3422Z" fill="white" fill-opacity="0.25"/>
 </g>
</svg>
