<?xml version="1.0" encoding="UTF-8"?>
<!--Generator: Apple Native CoreSVG 341-->
<!DOCTYPE svg
PUBLIC "-//W3C//DTD SVG 1.1//EN"
       "http://www.w3.org/Graphics/SVG/1.1/DTD/svg11.dtd">
<svg version="1.1" xmlns="http://www.w3.org/2000/svg" xmlns:xlink="http://www.w3.org/1999/xlink" viewBox="0 0 26.9432 13.1586">
 <g>
  <rect height="13.1586" opacity="0" width="26.9432" x="0" y="0"/>
  <path d="M11.9723 13.1408L14.6096 13.1408C17.8551 13.1408 20.1998 13.0937 22.3037 12.3933C25.0508 11.4641 26.5818 9.37382 26.5818 6.57441C26.5818 3.775 25.0508 1.68476 22.3037 0.755469C20.1998 0.0470704 17.8551 0 14.6096 0L11.9723 0C8.72676 0 6.38203 0.0470704 4.27812 0.755469C1.53105 1.68476 0 3.775 0 6.57441C0 9.37382 1.53105 11.4641 4.27812 12.3933C6.38203 13.0937 8.72676 13.1408 11.9723 13.1408ZM11.9723 11.2486C8.75781 11.2486 6.69843 11.198 4.88612 10.5969C2.99237 9.96445 1.88592 8.48418 1.88592 6.57441C1.88592 4.65663 2.99237 3.17636 4.88612 2.55194C6.69843 1.94901 8.75781 1.89217 11.9723 1.89217L14.6096 1.89217C17.824 1.89217 19.8834 1.94901 21.6957 2.55194C23.5895 3.18436 24.6941 4.66464 24.6941 6.57441C24.6941 8.47617 23.5895 9.95645 21.6957 10.5969C19.8834 11.198 17.824 11.2486 14.6096 11.2486ZM13.29 8.95273C14.3873 8.95273 15.2955 8.0623 15.2955 6.99785C15.2955 5.87128 14.3775 4.96132 13.29 4.96132C12.8994 4.96132 12.5381 5.06874 12.2043 5.31464L12.2043 3.72734L11.3041 4.11972L11.3041 6.99785C11.3041 8.08359 12.1652 8.95273 13.29 8.95273ZM13.29 8.0623C12.6943 8.0623 12.2043 7.56425 12.2043 6.99785C12.2043 6.39062 12.7121 5.90058 13.29 5.90058C13.8875 5.90058 14.3775 6.40038 14.3775 6.99785C14.3775 7.56425 13.8875 8.0623 13.29 8.0623Z" fill="white" fill-opacity="0.25"/>
 </g>
</svg>
