<?xml version="1.0" encoding="UTF-8"?>
<!--Generator: Apple Native CoreSVG 341-->
<!DOCTYPE svg
PUBLIC "-//W3C//DTD SVG 1.1//EN"
       "http://www.w3.org/Graphics/SVG/1.1/DTD/svg11.dtd">
<svg version="1.1" xmlns="http://www.w3.org/2000/svg" xmlns:xlink="http://www.w3.org/1999/xlink" viewBox="0 0 22.6465 19.6223">
 <g>
  <rect height="19.6223" opacity="0" width="22.6465" x="0" y="0"/>
  <path d="M7.53964 19.6125L14.7666 19.6125C19.5914 19.6125 22.2851 17.0394 22.2851 12.4232L22.2851 7.18749C22.2851 2.57304 19.5914 0 14.7666 0L7.53964 0C2.71054 0 0 2.57304 0 7.18749L0 12.4232C0 17.0394 2.71054 19.6125 7.53964 19.6125ZM11.1457 12.4471C9.86562 12.4471 8.89628 11.4697 8.89628 10.2269L8.89628 6.97539L9.91269 6.53242L9.91269 8.33261C10.2775 8.04589 10.7027 7.93496 11.1457 7.93496C12.3689 7.93496 13.4066 8.97265 13.4066 10.2269C13.4066 11.4387 12.3902 12.4471 11.1457 12.4471ZM11.1457 11.4387C11.8105 11.4387 12.3689 10.8883 12.3689 10.2269C12.3689 9.55585 11.8105 8.98593 11.1457 8.98593C10.4844 8.98593 9.91269 9.54433 9.91269 10.2269C9.91269 10.8883 10.4666 11.4387 11.1457 11.4387Z" fill="white" fill-opacity="0.25"/>
 </g>
</svg>
