<?xml version="1.0" encoding="UTF-8"?>
<!--Generator: Apple Native CoreSVG 341-->
<!DOCTYPE svg
PUBLIC "-//W3C//DTD SVG 1.1//EN"
       "http://www.w3.org/Graphics/SVG/1.1/DTD/svg11.dtd">
<svg version="1.1" xmlns="http://www.w3.org/2000/svg" xmlns:xlink="http://www.w3.org/1999/xlink" viewBox="0 0 20.0974 21.0828">
 <g>
  <rect height="21.0828" opacity="0" width="20.0974" x="0" y="0"/>
  <path d="M0 9.96035C0 11.6719 0.42793 13.4455 1.23223 15.109C0.965039 15.4256 0.916992 15.9926 1.19922 16.5588L3.07617 20.3748C3.26504 20.7605 3.68203 20.9619 4.09101 20.9619C4.57324 20.9619 5.0412 20.6705 5.08925 20.0853L2.94706 15.7096C2.23105 14.2562 1.69784 12.1773 1.69784 9.97011C1.69784 5.14628 4.98925 1.89569 9.86718 1.89569C14.7371 1.89569 18.0365 5.14628 18.0365 9.97011C18.0365 12.1791 17.5051 14.258 16.7891 15.7096L14.6371 20.0853C14.6949 20.6705 15.1611 20.9619 15.6451 20.9619C16.0461 20.9619 16.4631 20.7605 16.6582 20.3748L18.5271 16.5588C18.8094 15.9926 18.7711 15.4256 18.5039 15.109C19.3064 13.4455 19.7361 11.6719 19.7361 9.96035C19.7361 4.37031 15.8594 0 9.86718 0C3.875 0 0 4.37031 0 9.96035Z" fill="white" fill-opacity="0.25"/>
  <path d="M5.34296 13.5801C4.97909 12.831 4.28866 12.6713 3.76327 12.8869C3.17655 13.1238 2.77089 13.825 3.21112 14.7232L5.64511 19.6773C6.04003 20.4787 6.75175 20.7609 7.43866 20.4096C8.02538 20.1203 8.23495 19.4519 7.89589 18.7463ZM14.3834 13.5801L11.8385 18.7463C11.4994 19.4519 11.709 20.1203 12.2877 20.4096C12.9764 20.7609 13.6943 20.4787 14.0893 19.6773L16.525 14.7232C16.9635 13.825 16.5516 13.1238 15.9729 12.8869C15.4377 12.6713 14.757 12.831 14.3834 13.5801Z" fill="white" fill-opacity="0.25"/>
 </g>
</svg>
