<?xml version="1.0" encoding="UTF-8"?>
<!--Generator: Apple Native CoreSVG 341-->
<!DOCTYPE svg
PUBLIC "-//W3C//DTD SVG 1.1//EN"
       "http://www.w3.org/Graphics/SVG/1.1/DTD/svg11.dtd">
<svg version="1.1" xmlns="http://www.w3.org/2000/svg" xmlns:xlink="http://www.w3.org/1999/xlink" viewBox="0 0 17.364 16.1816">
 <g>
  <rect height="16.1816" opacity="0" width="17.364" x="0" y="0"/>
  <path d="M9.74459 10.1736C11.1462 9.56738 11.8092 7.96074 11.203 6.57246L9.22076 2.04336C8.5985 0.639062 7.00162-0.0160158 5.60358 0.576953C4.2153 1.17969 3.55046 2.80937 4.15495 4.18613L6.14518 8.71699C6.74967 10.0875 8.35983 10.7648 9.74459 10.1736ZM8.7319 9.36406C7.77057 9.36406 7.01256 8.60429 7.01256 7.65273C7.01256 6.70742 7.77057 5.9414 8.7319 5.9414C9.67369 5.9414 10.4335 6.70742 10.4335 7.65273C10.4335 8.60429 9.68522 9.36406 8.7319 9.36406ZM8.7319 8.61972C9.27448 8.61972 9.68913 8.1873 9.68913 7.65273C9.68913 7.12441 9.27448 6.68574 8.7319 6.68574C8.16979 6.68574 7.7569 7.12441 7.7569 7.65273C7.7569 8.1873 8.16979 8.61972 8.7319 8.61972ZM0.216081 7.25507C-0.52513 9.80273 0.680338 12.1603 3.22174 13.1572L5.08151 13.8932C8.24811 15.1312 11.3563 14.4006 12.5797 10.9887C13.2378 9.18417 13.0749 7.61562 12.2432 6.53788C12.8434 8.33476 11.9434 10.3203 10.1501 11.1078C8.25338 11.9039 6.05417 11.0279 5.21901 9.12597L3.23054 4.59511C3.12311 4.36425 3.04675 4.1414 2.99792 3.89902C1.936 4.78339 0.710612 5.59296 0.216081 7.25507Z" fill="white" fill-opacity="0.25"/>
  <path d="M13.5352 11.3355C12.8348 13.292 11.5254 14.5941 9.85748 15.1506C10.5936 15.8103 11.5378 16.1816 12.6323 16.1816C15.045 16.1816 17.0032 14.2234 17.0032 11.7992C17.0032 9.79902 15.6897 8.13339 13.8538 7.61425C14.1059 8.86035 13.9977 10.0803 13.5352 11.3355Z" fill="white" fill-opacity="0.25"/>
 </g>
</svg>
