<?xml version="1.0" encoding="UTF-8"?>
<!--Generator: Apple Native CoreSVG 341-->
<!DOCTYPE svg
PUBLIC "-//W3C//DTD SVG 1.1//EN"
       "http://www.w3.org/Graphics/SVG/1.1/DTD/svg11.dtd">
<svg version="1.1" xmlns="http://www.w3.org/2000/svg" xmlns:xlink="http://www.w3.org/1999/xlink" viewBox="0 0 34.0017 15.4289">
 <g>
  <rect height="15.4289" opacity="0" width="34.0017" x="0" y="0"/>
  <path d="M6.90527 9.70761C8.22968 10.2695 9.75996 9.62949 10.3352 8.31933L12.234 4.00683C12.8092 2.69844 12.1754 1.14062 10.8475 0.567187C9.51953 0.00976562 8.00078 0.627539 7.40781 1.96348L5.51699 6.27597C4.94004 7.6039 5.57383 9.13066 6.90527 9.70761ZM7.87714 8.9371C6.97265 8.9371 6.25371 8.2164 6.25371 7.30566C6.25371 6.40117 6.98242 5.67597 7.87714 5.67597C8.78964 5.67597 9.50683 6.40117 9.50683 7.30566C9.50683 8.2164 8.78964 8.9371 7.87714 8.9371ZM7.87714 8.22558C8.40996 8.22558 8.79531 7.8207 8.79531 7.30566C8.79531 6.80664 8.40996 6.3875 7.87714 6.3875C7.3621 6.3875 6.96523 6.80664 6.96523 7.30566C6.96523 7.8207 7.3621 8.22558 7.87714 8.22558ZM15.9793 6.92754C15.5043 5.34355 14.3375 4.57304 13.3324 3.72949C13.2836 3.96035 13.2152 4.17343 13.1176 4.39453L11.2187 8.70878C10.4226 10.5113 8.32636 11.3545 6.51933 10.5975C4.81386 9.84277 3.96269 7.95136 4.53086 6.24237C3.74277 7.27128 3.58789 8.76523 4.20859 10.4836C5.37344 13.7312 8.33516 14.4256 11.35 13.2478L13.1219 12.5527C15.5346 11.5967 16.6894 9.34824 15.9793 6.92754ZM26.7351 9.70761C28.0586 9.13066 28.7004 7.6039 28.1234 6.27597L26.2326 1.96348C25.6396 0.627539 24.1209 0.00976562 22.793 0.567187C21.465 1.14062 20.8312 2.69844 21.4064 4.00683L23.3053 8.31933C23.8805 9.62949 25.4107 10.2695 26.7351 9.70761ZM25.7633 8.9371C24.8508 8.9371 24.1336 8.2164 24.1336 7.30566C24.1336 6.40117 24.8508 5.67597 25.7633 5.67597C26.658 5.67597 27.3867 6.40117 27.3867 7.30566C27.3867 8.2164 26.6678 8.9371 25.7633 8.9371ZM25.7633 8.22558C26.2783 8.22558 26.6752 7.8207 26.6752 7.30566C26.6752 6.80664 26.2783 6.3875 25.7633 6.3875C25.2322 6.3875 24.8371 6.80664 24.8371 7.30566C24.8371 7.8207 25.2322 8.22558 25.7633 8.22558ZM17.6531 6.92754C16.951 9.34824 18.0978 11.5967 20.5185 12.5527L22.2904 13.2478C25.3053 14.4256 28.267 13.7312 29.4238 10.4836C30.0525 8.76523 29.8976 7.27128 29.1096 6.24237C29.6777 7.95136 28.8265 9.84277 27.1131 10.5975C25.3141 11.3545 23.2178 10.5113 22.4217 8.70878L20.5228 4.39453C20.4252 4.17343 20.3568 3.96035 20.308 3.72949C19.2949 4.57304 18.1361 5.34355 17.6531 6.92754Z" fill="white" fill-opacity="0.25"/>
  <path d="M3.30371 10.8109C2.86074 9.61249 2.7543 8.45292 2.99668 7.26718C1.25664 7.76328 0 9.35253 0 11.2471C0 13.5603 1.86055 15.4289 4.15429 15.4289C5.2 15.4289 6.09883 15.0691 6.80391 14.4467C5.21582 13.9098 3.9668 12.6697 3.30371 10.8109ZM30.3367 10.8109C29.6656 12.6697 28.4246 13.9098 26.8365 14.4467C27.5416 15.0691 28.4404 15.4289 29.4861 15.4289C31.7799 15.4289 33.6404 13.5603 33.6404 11.2471C33.6404 9.35253 32.3838 7.76328 30.6437 7.26718C30.8861 8.45292 30.7717 9.61249 30.3367 10.8109Z" fill="white" fill-opacity="0.25"/>
 </g>
</svg>
