<?xml version="1.0" encoding="UTF-8"?>
<!--Generator: Apple Native CoreSVG 341-->
<!DOCTYPE svg
PUBLIC "-//W3C//DTD SVG 1.1//EN"
       "http://www.w3.org/Graphics/SVG/1.1/DTD/svg11.dtd">
<svg version="1.1" xmlns="http://www.w3.org/2000/svg" xmlns:xlink="http://www.w3.org/1999/xlink" viewBox="0 0 16.4189 16.3863">
 <g>
  <rect height="16.3863" opacity="0" width="16.4189" x="0" y="0"/>
  <path d="M13.7144 9.25527C13.7144 12.2021 11.7324 14.5117 8.9746 15.4064C9.7246 16.0162 10.6814 16.3863 11.7217 16.3863C14.1449 16.3863 16.0576 14.4176 16.0576 12.0504C16.0576 10.3435 15.0724 8.85507 13.623 8.14941C13.6771 8.51328 13.7144 8.88515 13.7144 9.25527Z" fill="white" fill-opacity="0.25"/>
  <path d="M2.66367 6.23476L4.42734 9.32011C5.46406 11.1148 7.72656 11.7148 9.50976 10.6781C11.2947 9.65292 11.893 7.39843 10.874 5.61347L9.10058 2.53262C8.07363 0.739649 5.80312 0.141407 4.03593 1.16836C2.23496 2.20684 1.62519 4.43652 2.66367 6.23476ZM7.83222 9.47988C6.80703 9.47988 5.99042 8.66777 5.99042 7.63632C5.99042 6.62089 6.80703 5.79453 7.83222 5.79453C8.84765 5.79453 9.66601 6.62089 9.66601 7.63632C9.66601 8.66777 8.85741 9.47988 7.83222 9.47988ZM7.83222 8.67343C8.41386 8.67343 8.86132 8.21796 8.86132 7.63632C8.86132 7.0707 8.41386 6.60097 7.83222 6.60097C7.24081 6.60097 6.79687 7.0707 6.79687 7.63632C6.79687 8.21796 7.24081 8.67343 7.83222 8.67343ZM6.38007 14.856C9.86737 14.856 12.7584 12.5394 12.7584 9.26503C12.7584 8.50273 12.5951 7.74043 12.2943 6.9914C12.4814 8.76386 11.6275 10.5566 9.98378 11.4975C7.74609 12.8031 4.88437 12.0434 3.6 9.79413L1.82832 6.69902C1.5248 6.17089 1.33574 5.61172 1.25586 5.05078C0.478123 6.25097 0 7.28242 0 8.82304C0 12.4641 2.89453 14.856 6.38007 14.856Z" fill="white" fill-opacity="0.25"/>
 </g>
</svg>
