<?xml version="1.0" encoding="UTF-8"?>
<!--Generator: Apple Native CoreSVG 341-->
<!DOCTYPE svg
PUBLIC "-//W3C//DTD SVG 1.1//EN"
       "http://www.w3.org/Graphics/SVG/1.1/DTD/svg11.dtd">
<svg version="1.1" xmlns="http://www.w3.org/2000/svg" xmlns:xlink="http://www.w3.org/1999/xlink" viewBox="0 0 16.4189 16.3863">
 <g>
  <rect height="16.3863" opacity="0" width="16.4189" x="0" y="0"/>
  <path d="M2.3414 9.25527C2.3414 8.88515 2.38047 8.51328 2.44258 8.14941C0.985155 8.85507 0 10.3435 0 12.0504C0 14.4176 1.9207 16.3863 4.33593 16.3863C5.37617 16.3863 6.34101 16.0162 7.083 15.4064C4.3332 14.5117 2.3414 12.2021 2.3414 9.25527Z" fill="white" fill-opacity="0.25"/>
  <path d="M13.4019 6.23476C14.4404 4.43652 13.8226 2.20684 12.0297 1.16836C10.2545 0.141407 7.99199 0.739649 6.96503 2.53262L5.1916 5.61347C4.16465 7.39843 4.76289 9.65292 6.54785 10.6781C8.33906 11.7148 10.5935 11.1148 11.6285 9.32011ZM8.22538 9.47988C7.20019 9.47988 6.3916 8.66777 6.3916 7.63632C6.3916 6.62089 7.20995 5.79453 8.22538 5.79453C9.25859 5.79453 10.0672 6.62089 10.0672 7.63632C10.0672 8.66777 9.25859 9.47988 8.22538 9.47988ZM8.22538 8.67343C8.8248 8.67343 9.26074 8.21796 9.26074 7.63632C9.26074 7.0707 8.8248 6.60097 8.22538 6.60097C7.64374 6.60097 7.19628 7.0707 7.19628 7.63632C7.19628 8.21796 7.64374 8.67343 8.22538 8.67343ZM9.68554 14.856C13.1631 14.856 16.0576 12.4641 16.0576 8.82304C16.0576 7.28242 15.5795 6.25097 14.8098 5.05078C14.7219 5.61172 14.5408 6.17089 14.2293 6.69902L12.4656 9.79413C11.1715 12.0434 8.30976 12.8031 6.07382 11.4975C4.43007 10.5566 3.57617 8.76386 3.77129 6.9914C3.4625 7.74043 3.30722 8.50273 3.30722 9.26503C3.30722 12.5394 6.19023 14.856 9.68554 14.856Z" fill="white" fill-opacity="0.25"/>
 </g>
</svg>
