<?xml version="1.0" encoding="UTF-8"?>
<!--Generator: Apple Native CoreSVG 341-->
<!DOCTYPE svg
PUBLIC "-//W3C//DTD SVG 1.1//EN"
       "http://www.w3.org/Graphics/SVG/1.1/DTD/svg11.dtd">
<svg version="1.1" xmlns="http://www.w3.org/2000/svg" xmlns:xlink="http://www.w3.org/1999/xlink" viewBox="0 0 25.7463 18.3476">
 <g>
  <rect height="18.3476" opacity="0" width="25.7463" x="0" y="0"/>
  <path d="M0 9.16894C0 12.5707 1.63633 15.6678 4.91015 17.2443C6.47246 18.0068 8.48827 18.3476 11.2641 18.3476L14.1209 18.3476C16.8967 18.3476 18.9125 18.0068 20.4748 17.2443C23.7486 15.6678 25.3849 12.5707 25.3849 9.16894C25.3849 6.11172 23.7203 3.02617 20.4748 1.46465C18.9125 0.702148 16.8967 0.361328 14.1209 0.361328L11.2641 0.361328C8.48827 0.361328 6.47246 0.702148 4.91015 1.46465C1.65664 3.02617 0 6.11172 0 9.16894ZM1.91327 9.16894C1.91327 6.06815 4.02928 3.42186 7.28026 2.65018C8.33593 2.39803 9.63222 2.2746 11.2641 2.2746L14.1209 2.2746C16.6601 2.2746 18.3623 2.56053 19.6435 3.18651C22.0127 4.33202 23.4717 6.61151 23.4717 9.16894C23.4717 12.9246 21.0021 15.6774 16.9758 16.1379C16.1855 16.2986 15.2662 16.3729 14.1209 16.3729L11.2641 16.3729C8.86542 16.3729 7.21951 16.1098 5.96814 15.54C3.41815 14.4268 1.91327 12.082 1.91327 9.16894ZM2.06503 5.66073L23.3297 5.66073L23.3297 4.63046L2.06503 4.63046ZM12.7014 12.6105C13.8057 12.6105 14.7146 11.7131 14.7146 10.6461C14.7146 9.52402 13.7861 8.60527 12.7014 8.60527C12.2992 8.60527 11.9424 8.71093 11.6068 8.95859L11.6068 7.35898L10.6978 7.75312L10.6978 10.6461C10.6978 11.7406 11.5678 12.6105 12.7014 12.6105ZM12.7014 11.7131C12.0986 11.7131 11.6068 11.223 11.6068 10.6461C11.6068 10.0451 12.1101 9.54179 12.7014 9.54179C13.2961 9.54179 13.7861 10.0549 13.7861 10.6461C13.7861 11.223 13.2961 11.7131 12.7014 11.7131Z" fill="white" fill-opacity="0.25"/>
 </g>
</svg>
