<?xml version="1.0" encoding="UTF-8"?>
<!--Generator: Apple Native CoreSVG 341-->
<!DOCTYPE svg
PUBLIC "-//W3C//DTD SVG 1.1//EN"
       "http://www.w3.org/Graphics/SVG/1.1/DTD/svg11.dtd">
<svg version="1.1" xmlns="http://www.w3.org/2000/svg" xmlns:xlink="http://www.w3.org/1999/xlink" viewBox="0 0 25.7463 18.3512">
 <g>
  <rect height="18.3512" opacity="0" width="25.7463" x="0" y="0"/>
  <path d="M11.2641 18.3494L14.1209 18.3494C16.8967 18.3494 18.9125 18.0086 20.4748 17.2461C23.7486 15.6695 25.3849 12.5724 25.3849 9.1707C25.3849 7.85937 25.1381 6.59062 24.6478 5.4373L0.73711 5.4373C0.246875 6.59062 0 7.85937 0 9.1707C0 12.5724 1.63633 15.6695 4.91015 17.2461C6.47246 18.0086 8.48827 18.3494 11.2641 18.3494ZM12.7014 12.9709C11.5217 12.9709 10.6199 12.0691 10.6199 10.925L10.6199 7.92128L11.5572 7.5121L11.5572 9.1746C11.9158 8.91717 12.2842 8.80624 12.7014 8.80624C13.8295 8.80624 14.7926 9.76131 14.7926 10.925C14.7926 12.0433 13.8553 12.9709 12.7014 12.9709ZM12.7014 12.0433C13.3209 12.0433 13.8295 11.5267 13.8295 10.925C13.8295 10.3107 13.3209 9.77909 12.7014 9.77909C12.0853 9.77909 11.5572 10.2957 11.5572 10.925C11.5572 11.5267 12.0738 12.0433 12.7014 12.0433ZM1.25996 4.40702L24.125 4.40702C23.3111 3.02636 22.0918 1.87187 20.4748 1.10156C18.9125 0.332812 16.8967 0 14.1209 0L11.2641 0C8.48827 0 6.47246 0.332812 4.91015 1.10156C3.29316 1.87187 2.07383 3.02636 1.25996 4.40702Z" fill="white" fill-opacity="0.25"/>
 </g>
</svg>
