<?xml version="1.0" encoding="UTF-8"?>
<!--Generator: Apple Native CoreSVG 341-->
<!DOCTYPE svg
PUBLIC "-//W3C//DTD SVG 1.1//EN"
       "http://www.w3.org/Graphics/SVG/1.1/DTD/svg11.dtd">
<svg version="1.1" xmlns="http://www.w3.org/2000/svg" xmlns:xlink="http://www.w3.org/1999/xlink" viewBox="0 0 28.6131 20.0078">
 <g>
  <rect height="20.0078" opacity="0" width="28.6131" x="0" y="0"/>
  <path d="M4.71445 15.3578L12.4246 15.3578C12.8549 15.3578 13.185 15.081 13.2355 14.6365L13.5596 11.2699C13.6039 10.734 13.234 10.341 12.7043 10.341L4.71445 10.341C3.32891 10.341 2.21406 11.4674 2.21406 12.8609C2.21406 14.243 3.32891 15.3578 4.71445 15.3578ZM4.71445 13.7543C5.21972 13.7543 5.62734 13.3627 5.62734 12.8574C5.62734 12.3504 5.21972 11.9428 4.71445 11.9428C4.21093 11.9428 3.80781 12.3504 3.80781 12.8574C3.80781 13.3627 4.21093 13.7543 4.71445 13.7543ZM10.3369 19.998L11.342 19.998L11.6891 16.6271L10.6777 16.6271ZM4.71445 14.4986C3.80195 14.4986 3.06348 13.7717 3.06348 12.8574C3.06348 11.9432 3.79844 11.1984 4.71445 11.1984C5.63672 11.1984 6.37168 11.9414 6.37168 12.8574C6.37168 13.7717 5.63672 14.4986 4.71445 14.4986ZM8.82636 0C4.20371 0 0 4.17402 0 9.92871C0 13.8252 1.24102 19.0623 3.30469 19.0783C3.84589 19.0783 4.22226 18.5318 4.22226 17.3707C4.22226 17.058 4.20449 16.7648 4.13515 16.3045C2.48379 16.0308 1.21582 14.5914 1.21582 12.8609C1.21582 12.1506 1.43555 11.4979 1.80332 10.9469C1.74726 10.5717 1.71347 10.1645 1.71347 9.84707C1.71347 5.40136 5.38398 1.71347 8.71894 1.71347C10.7246 1.71347 11.7412 3.27695 11.4678 5.91465L10.3146 16.9668C10.2002 18.0955 11.8889 18.099 11.9918 17.099L13.1271 5.84804C13.5035 2.10723 11.9199 0 8.82636 0ZM23.5293 15.3578C24.9228 15.3578 26.0377 14.243 26.0377 12.8609C26.0377 11.4674 24.9228 10.341 23.5293 10.341L15.5475 10.341C15.0098 10.341 14.6381 10.734 14.6922 11.2699L15.0162 14.6365C15.0668 15.081 15.3969 15.3578 15.8191 15.3578ZM23.5293 13.7543C24.0408 13.7543 24.4359 13.3627 24.4359 12.8574C24.4359 12.3504 24.0408 11.9428 23.5293 11.9428C23.024 11.9428 22.6244 12.3504 22.6244 12.8574C22.6244 13.3627 23.024 13.7543 23.5293 13.7543ZM17.9148 19.998L17.566 16.6271L16.5627 16.6271L16.9098 19.998ZM23.5293 14.4986C22.615 14.4986 21.8721 13.7717 21.8721 12.8574C21.8721 11.9414 22.615 11.1984 23.5293 11.1984C24.4533 11.1984 25.1803 11.9432 25.1803 12.8574C25.1803 13.7717 24.4498 14.4986 23.5293 14.4986ZM19.4254 0C16.3238 0 14.7402 2.10723 15.1246 5.84804L16.26 17.099C16.3629 18.099 18.0516 18.0955 17.9291 16.9668L16.784 5.91465C16.5025 3.27695 17.5271 1.71347 19.5328 1.71347C22.8598 1.71347 26.5285 5.40136 26.5285 9.84707C26.5285 10.1645 26.4965 10.5717 26.4484 10.9469C26.8082 11.4979 27.0279 12.1506 27.0279 12.8609C27.0279 14.5914 25.768 16.0308 24.1166 16.3045C24.0473 16.7648 24.0215 17.058 24.0215 17.3707C24.0215 18.5318 24.3978 19.0783 24.9391 19.0783C27.0107 19.0623 28.2517 13.8252 28.2517 9.92871C28.2517 4.17402 24.04 0 19.4254 0Z" fill="white" fill-opacity="0.25"/>
 </g>
</svg>
