<?xml version="1.0" encoding="UTF-8"?>
<!--Generator: Apple Native CoreSVG 341-->
<!DOCTYPE svg
PUBLIC "-//W3C//DTD SVG 1.1//EN"
       "http://www.w3.org/Graphics/SVG/1.1/DTD/svg11.dtd">
<svg version="1.1" xmlns="http://www.w3.org/2000/svg" xmlns:xlink="http://www.w3.org/1999/xlink" viewBox="0 0 26.9432 13.1586">
 <g>
  <rect height="13.1586" opacity="0" width="26.9432" x="0" y="0"/>
  <path d="M11.9723 13.1408L14.6096 13.1408C17.8551 13.1408 20.1998 13.0937 22.3037 12.3933C25.0508 11.4641 26.5818 9.37382 26.5818 6.57441C26.5818 3.775 25.0508 1.68476 22.3037 0.755469C20.1998 0.0470704 17.8551 0 14.6096 0L11.9723 0C8.72676 0 6.38203 0.0470704 4.27812 0.755469C1.53105 1.68476 0 3.775 0 6.57441C0 9.37382 1.53105 11.4641 4.27812 12.3933C6.38203 13.0937 8.72676 13.1408 11.9723 13.1408ZM13.29 9.06601C12.1103 9.06601 11.2103 8.158 11.2103 7.01386L11.2103 4.00039L12.1477 3.59297L12.1477 5.25546C12.5045 4.99804 12.8826 4.88535 13.29 4.88535C14.4342 4.88535 15.391 5.83242 15.391 7.01386C15.391 8.13847 14.4439 9.06601 13.29 9.06601ZM13.29 8.13847C13.9176 8.13847 14.4342 7.61386 14.4342 7.01386C14.4342 6.38984 13.9176 5.86796 13.29 5.86796C12.682 5.86796 12.1477 6.37656 12.1477 7.01386C12.1477 7.61386 12.6643 8.13847 13.29 8.13847Z" fill="white" fill-opacity="0.25"/>
 </g>
</svg>
