<?xml version="1.0" encoding="UTF-8"?>
<!--Generator: Apple Native CoreSVG 341-->
<!DOCTYPE svg
PUBLIC "-//W3C//DTD SVG 1.1//EN"
       "http://www.w3.org/Graphics/SVG/1.1/DTD/svg11.dtd">
<svg version="1.1" xmlns="http://www.w3.org/2000/svg" xmlns:xlink="http://www.w3.org/1999/xlink" viewBox="0 0 27.1426 12.1902">
 <g>
  <rect height="12.1902" opacity="0" width="27.1426" x="0" y="0"/>
  <path d="M6.08222 0C2.70488 0 0 2.71464 0 6.09022C0 9.4658 2.70488 12.1707 6.08222 12.1707L20.6973 12.1707C24.0648 12.1707 26.7812 9.4658 26.7812 6.09022C26.7812 2.71464 24.0648 0 20.6973 0ZM6.08222 1.89569L20.6973 1.89569C23.0867 1.89569 24.8838 3.69276 24.8838 6.09022C24.8838 8.48593 23.0867 10.2767 20.6973 10.2767L6.08222 10.2767C3.68475 10.2767 1.89569 8.48593 1.89569 6.09022C1.89569 3.69276 3.68475 1.89569 6.08222 1.89569ZM13.3889 8.63534C14.4949 8.63534 15.4039 7.74413 15.4039 6.67089C15.4039 5.55507 14.4816 4.62831 13.3889 4.62831C12.9947 4.62831 12.6299 4.73397 12.2943 4.98964L12.2943 3.38202L11.3871 3.78417L11.3871 6.67089C11.3871 7.76542 12.265 8.63534 13.3889 8.63534ZM13.3889 7.74413C12.7959 7.74413 12.2943 7.25409 12.2943 6.67089C12.2943 6.06815 12.8057 5.57284 13.3889 5.57284C13.9916 5.57284 14.4816 6.07792 14.4816 6.67089C14.4816 7.25409 13.9916 7.74413 13.3889 7.74413Z" fill="white" fill-opacity="0.25"/>
 </g>
</svg>
