<?xml version="1.0" encoding="UTF-8"?>
<!--Generator: Apple Native CoreSVG 341-->
<!DOCTYPE svg
PUBLIC "-//W3C//DTD SVG 1.1//EN"
       "http://www.w3.org/Graphics/SVG/1.1/DTD/svg11.dtd">
<svg version="1.1" xmlns="http://www.w3.org/2000/svg" xmlns:xlink="http://www.w3.org/1999/xlink" viewBox="0 0 13.9227 20.0078">
 <g>
  <rect height="20.0078" opacity="0" width="13.9227" x="0" y="0"/>
  <path d="M4.71445 15.3578L12.4246 15.3578C12.8549 15.3578 13.185 15.081 13.2355 14.6365L13.5596 11.2699C13.6039 10.734 13.234 10.341 12.7043 10.341L4.71445 10.341C3.32891 10.341 2.21406 11.4674 2.21406 12.8609C2.21406 14.243 3.32891 15.3578 4.71445 15.3578ZM4.71445 13.7543C5.21972 13.7543 5.62734 13.3627 5.62734 12.8574C5.62734 12.3504 5.21972 11.9428 4.71445 11.9428C4.21093 11.9428 3.80781 12.3504 3.80781 12.8574C3.80781 13.3627 4.21093 13.7543 4.71445 13.7543ZM10.3369 19.998L11.342 19.998L11.6891 16.6271L10.6777 16.6271ZM4.71445 14.4986C3.80195 14.4986 3.06348 13.7717 3.06348 12.8574C3.06348 11.9432 3.79844 11.1984 4.71445 11.1984C5.63672 11.1984 6.37168 11.9414 6.37168 12.8574C6.37168 13.7717 5.63672 14.4986 4.71445 14.4986ZM8.82636 0C4.20371 0 0 4.17402 0 9.92871C0 13.8252 1.24102 19.0623 3.30469 19.0783C3.84589 19.0783 4.22226 18.5318 4.22226 17.3707C4.22226 17.058 4.20449 16.7648 4.13515 16.3045C2.48379 16.0308 1.21582 14.5914 1.21582 12.8609C1.21582 12.1506 1.43555 11.4979 1.80332 10.9469C1.74726 10.5717 1.71347 10.1645 1.71347 9.84707C1.71347 5.40136 5.38398 1.71347 8.71894 1.71347C10.7246 1.71347 11.7412 3.27695 11.4678 5.91465L10.3146 16.9668C10.2002 18.0955 11.8889 18.099 11.9918 17.099L13.1271 5.84804C13.5035 2.10723 11.9199 0 8.82636 0Z" fill="white" fill-opacity="0.25"/>
 </g>
</svg>
