<?xml version="1.0" encoding="UTF-8"?>
<!--Generator: Apple Native CoreSVG 341-->
<!DOCTYPE svg
PUBLIC "-//W3C//DTD SVG 1.1//EN"
       "http://www.w3.org/Graphics/SVG/1.1/DTD/svg11.dtd">
<svg version="1.1" xmlns="http://www.w3.org/2000/svg" xmlns:xlink="http://www.w3.org/1999/xlink" viewBox="0 0 13.8939 19.0898">
 <g>
  <rect height="19.0898" opacity="0" width="13.8939" x="0" y="0"/>
  <path d="M4.72148 0C1.59961 0 0 2.28144 0 5.89453L0 8.21386C0 10.8041 0.651562 12.0291 2.48906 13.0393L6.69043 15.3508C7.77871 15.9375 8.28203 16.1328 9.04101 16.1328C10.6166 16.1328 11.9037 14.8307 11.9037 13.256C11.9037 12.1926 11.3383 11.2002 10.1248 10.5602L1.84296 6.23769C1.84296 3.36758 2.76816 1.85097 4.8209 1.85097C8.24726 1.85097 11.2242 5.84238 11.618 10.4283C12.4418 11.1756 12.9002 12.1568 12.9002 13.256C12.9002 15.0459 11.6545 16.566 10.0059 17.0021C10.1103 18.0191 10.7822 19.0721 11.5943 19.0721C12.6725 19.0721 13.5326 15.532 13.5326 12.3275C13.5326 5.55683 9.5496 0 4.72148 0ZM9.10058 15.05C8.12148 15.05 7.31015 14.2387 7.31015 13.248C7.31015 12.2609 8.12148 11.4496 9.10058 11.4496C10.0992 11.4496 10.9088 12.2609 10.9088 13.248C10.9088 14.2387 10.0992 15.05 9.10058 15.05ZM9.10058 14.3057C9.69023 14.3057 10.1662 13.8297 10.1662 13.248C10.1662 12.6779 9.69023 12.1939 9.10058 12.1939C8.52695 12.1939 8.05449 12.6779 8.05449 13.248C8.05449 13.8297 8.52695 14.3057 9.10058 14.3057Z" fill="white" fill-opacity="0.25"/>
 </g>
</svg>
