<?xml version="1.0" encoding="UTF-8"?>
<!--Generator: Apple Native CoreSVG 341-->
<!DOCTYPE svg
PUBLIC "-//W3C//DTD SVG 1.1//EN"
       "http://www.w3.org/Graphics/SVG/1.1/DTD/svg11.dtd">
<svg version="1.1" xmlns="http://www.w3.org/2000/svg" xmlns:xlink="http://www.w3.org/1999/xlink" viewBox="0 0 26.1383 20.5457">
 <g>
  <rect height="20.5457" opacity="0" width="26.1383" x="0" y="0"/>
  <path d="M7.98379 0C3.6084 0 0 5.03398 0 11.1762C0 14.0842 0.772265 17.2967 1.75722 17.2967C2.49746 17.2967 3.10273 16.3414 3.20371 15.4185C1.69883 15.0197 0.575587 13.6434 0.575587 12.0248C0.575587 11.0223 0.989648 10.1342 1.72832 9.44727C2.09101 5.29551 4.79453 1.66816 7.89414 1.66816C9.75507 1.66816 10.6004 3.05156 10.6004 5.65449L3.0918 9.57656C1.98926 10.1482 1.48066 11.059 1.48066 12.0248C1.48066 13.4494 2.64883 14.6246 4.0664 14.6246C4.75703 14.6246 5.21777 14.4471 6.20039 13.9207L10.0236 11.8258C11.6853 10.9053 12.2766 9.79121 12.2766 7.44687L12.2766 5.34414C12.2766 2.07461 10.8269 0 7.98379 0ZM4.01484 13.651C3.10762 13.651 2.37793 12.9098 2.37793 12.0168C2.37793 11.1176 3.10762 10.3844 4.01484 10.3844C4.90781 10.3844 5.63925 11.1176 5.63925 12.0168C5.63925 12.9098 4.90781 13.651 4.01484 13.651ZM4.01484 12.9768C4.5334 12.9768 4.96855 12.5416 4.96855 12.0168C4.96855 11.4937 4.5334 11.0586 4.01484 11.0586C3.48379 11.0586 3.05488 11.4937 3.05488 12.0168C3.05488 12.5416 3.48379 12.9768 4.01484 12.9768ZM1.3375 20.5359L2.35019 20.5359L2.35019 16.8939L1.3375 16.8939ZM17.7932 0C14.95 0 13.5004 2.07461 13.5004 5.34414L13.5004 7.44687C13.5004 9.79121 14.0916 10.9053 15.7533 11.8258L19.5766 13.9207C20.5592 14.4471 21.0199 14.6246 21.7105 14.6246C23.1281 14.6246 24.2963 13.4494 24.2963 12.0248C24.2963 11.059 23.7877 10.1482 22.6851 9.57656L15.1766 5.65449C15.1766 3.05156 16.0219 1.66816 17.8828 1.66816C20.9744 1.66816 23.6859 5.29551 24.0486 9.44727C24.7873 10.1342 25.2014 11.0223 25.2014 12.0248C25.2014 13.6434 24.0781 15.0197 22.575 15.4185C22.6662 16.3414 23.2795 17.2967 24.0197 17.2967C24.9967 17.2967 25.7769 14.0842 25.7769 11.1762C25.7769 5.03398 22.1685 0 17.7932 0ZM21.7621 13.651C20.8691 13.651 20.1297 12.9098 20.1297 12.0168C20.1297 11.1176 20.8691 10.3844 21.7621 10.3844C22.6711 10.3844 23.399 11.1176 23.399 12.0168C23.399 12.9098 22.6711 13.651 21.7621 13.651ZM21.7621 12.9768C22.2949 12.9768 22.7221 12.5416 22.7221 12.0168C22.7221 11.4937 22.2949 11.0586 21.7621 11.0586C21.2355 11.0586 20.8004 11.4937 20.8004 12.0168C20.8004 12.5416 21.2355 12.9768 21.7621 12.9768ZM24.4394 20.5359L24.4394 16.8939L23.4268 16.8939L23.4268 20.5359Z" fill="white" fill-opacity="0.25"/>
 </g>
</svg>
