<?xml version="1.0" encoding="UTF-8"?>
<!--Generator: Apple Native CoreSVG 341-->
<!DOCTYPE svg
PUBLIC "-//W3C//DTD SVG 1.1//EN"
       "http://www.w3.org/Graphics/SVG/1.1/DTD/svg11.dtd">
<svg version="1.1" xmlns="http://www.w3.org/2000/svg" xmlns:xlink="http://www.w3.org/1999/xlink" viewBox="0 0 16.6767 17.6027">
 <g>
  <rect height="17.6027" opacity="0" width="16.6767" x="0" y="0"/>
  <path d="M12.693 12.7963C13.9969 12.7963 15.4082 12.0223 15.7144 10.3535L16.2355 7.52617C16.7832 4.54472 14.5234 2.33183 10.9125 1.08203C8.76796 0.337304 6.6705 0 4.55175 0C3.91445 0 3.69961 0.228125 3.69961 0.643554C3.69961 1.66348 4.23047 2.43476 5.25918 2.58125C6.93769 2.83691 8.26503 3.18828 9.56581 3.81855C10.0949 4.06797 10.3 4.44863 10.1988 5.01738L9.5623 8.85878C9.1957 11.0787 10.6869 12.7963 12.693 12.7963ZM12.6859 11.3144C11.7566 11.3144 11.0164 10.5707 11.0164 9.64491C11.0164 8.71562 11.7566 7.97363 12.6859 7.97363C13.6152 7.97363 14.3555 8.70761 14.3555 9.64491C14.3555 10.5787 13.6152 11.3144 12.6859 11.3144ZM12.6859 10.5701C13.2062 10.5701 13.6111 10.1617 13.6111 9.64491C13.6111 9.13261 13.2062 8.71796 12.6859 8.71796C12.1656 8.71796 11.7607 9.13261 11.7607 9.64491C11.7607 10.1617 12.1656 10.5701 12.6859 10.5701ZM12.693 13.8139C9.99492 13.8139 8.09121 11.4682 8.56425 8.69199L8.94336 6.39785C6.87285 6.93671 5.35742 7.82539 4.70156 9.18281C5.27578 11.7266 6.19706 14.0812 7.49023 16.3365C8.1037 16.6385 8.74648 16.7521 9.61386 16.7521C12.9748 16.7521 15.967 15.1223 16.209 11.8826C15.4955 13.0662 14.1959 13.8139 12.693 13.8139Z" fill="white" fill-opacity="0.25"/>
  <path d="M0 13.3422C0 15.8728 1.69609 17.5867 4.21699 17.5867C5.23144 17.5867 6.10351 17.2715 6.64589 16.9029C5.27187 14.5357 4.29199 11.9955 3.67422 9.29902C1.78984 9.48984 0 11.0281 0 13.3422Z" fill="white" fill-opacity="0.25"/>
 </g>
</svg>
