<?xml version="1.0" encoding="UTF-8"?>
<!--Generator: Apple Native CoreSVG 341-->
<!DOCTYPE svg
PUBLIC "-//W3C//DTD SVG 1.1//EN"
       "http://www.w3.org/Graphics/SVG/1.1/DTD/svg11.dtd">
<svg version="1.1" xmlns="http://www.w3.org/2000/svg" xmlns:xlink="http://www.w3.org/1999/xlink" viewBox="0 0 27.1426 12.1902">
 <g>
  <rect height="12.1902" opacity="0" width="27.1426" x="0" y="0"/>
  <path d="M6.08222 0C2.70488 0 0 2.71464 0 6.09022C0 9.4658 2.70488 12.1707 6.08222 12.1707L20.6973 12.1707C24.0648 12.1707 26.7812 9.4658 26.7812 6.09022C26.7812 2.71464 24.0648 0 20.6973 0ZM13.3924 8.79159C12.2172 8.79159 11.3109 7.89335 11.3109 6.75272L11.3109 3.75175L12.2482 3.33456L12.2482 5.00507C12.6051 4.73788 12.9832 4.63222 13.3924 4.63222C14.5232 4.63222 15.4836 5.5953 15.4836 6.75272C15.4836 7.87382 14.5463 8.79159 13.3924 8.79159ZM13.3924 7.87382C14.0182 7.87382 14.5232 7.36073 14.5232 6.75272C14.5232 6.13319 14.0182 5.61484 13.3924 5.61484C12.7826 5.61484 12.2482 6.12343 12.2482 6.75272C12.2482 7.36073 12.7728 7.87382 13.3924 7.87382Z" fill="white" fill-opacity="0.25"/>
 </g>
</svg>
