<?xml version="1.0" encoding="UTF-8"?>
<!--Generator: Apple Native CoreSVG 341-->
<!DOCTYPE svg
PUBLIC "-//W3C//DTD SVG 1.1//EN"
       "http://www.w3.org/Graphics/SVG/1.1/DTD/svg11.dtd">
<svg version="1.1" xmlns="http://www.w3.org/2000/svg" xmlns:xlink="http://www.w3.org/1999/xlink" viewBox="0 0 12.6379 20.5457">
 <g>
  <rect height="20.5457" opacity="0" width="12.6379" x="0" y="0"/>
  <path d="M4.28476 0C1.44961 0 0 2.07461 0 5.34414L0 7.44687C0 9.79121 0.592968 10.9053 2.25293 11.8258L6.07617 13.9207C7.05078 14.4471 7.51953 14.6246 8.21015 14.6246C9.62773 14.6246 10.7959 13.4494 10.7959 12.0248C10.7959 11.059 10.2873 10.1482 9.18476 9.57656L1.67793 5.65449C1.67793 3.05156 2.51523 1.66816 4.38242 1.66816C7.47402 1.66816 10.1873 5.29551 10.5402 9.44727C11.2869 10.1342 11.701 11.0223 11.701 12.0248C11.701 13.6434 10.5777 15.0197 9.07461 15.4185C9.16582 16.3414 9.7791 17.2967 10.5193 17.2967C11.4963 17.2967 12.2766 14.0842 12.2766 11.1762C12.2766 5.03398 8.66816 0 4.28476 0ZM8.26172 13.651C7.36875 13.651 6.62929 12.9098 6.62929 12.0168C6.62929 11.1176 7.36875 10.3844 8.26172 10.3844C9.1707 10.3844 9.89863 11.1176 9.89863 12.0168C9.89863 12.9098 9.1707 13.651 8.26172 13.651ZM8.26172 12.9768C8.79453 12.9768 9.22168 12.5416 9.22168 12.0168C9.22168 11.4937 8.79453 11.0586 8.26172 11.0586C7.73515 11.0586 7.3 11.4937 7.3 12.0168C7.3 12.5416 7.73515 12.9768 8.26172 12.9768ZM10.9391 20.5359L10.9391 16.8939L9.92637 16.8939L9.92637 20.5359Z" fill="white" fill-opacity="0.25"/>
 </g>
</svg>
