<?xml version="1.0" encoding="UTF-8"?>
<!--Generator: Apple Native CoreSVG 341-->
<!DOCTYPE svg
PUBLIC "-//W3C//DTD SVG 1.1//EN"
       "http://www.w3.org/Graphics/SVG/1.1/DTD/svg11.dtd">
<svg version="1.1" xmlns="http://www.w3.org/2000/svg" xmlns:xlink="http://www.w3.org/1999/xlink" viewBox="0 0 20.0689 19.6223">
 <g>
  <rect height="19.6223" opacity="0" width="20.0689" x="0" y="0"/>
  <path d="M6.09003 19.6125L13.5918 19.6125C17.6119 19.6125 19.7076 17.5248 19.7076 13.5225L19.7076 6.09003C19.7076 2.08769 17.6119 0 13.5918 0L6.09003 0C2.08769 0 0 2.08769 0 6.09003L0 13.5225C0 17.5248 2.08769 19.6125 6.09003 19.6125ZM5.86464 17.6992C3.26444 17.6992 1.91327 16.3383 1.91327 13.7478L1.91327 5.86464C1.91327 3.26444 3.26444 1.91327 5.86464 1.91327L13.867 1.91327C16.4414 1.91327 17.7943 3.25643 17.7943 5.8166L17.7943 13.7959C17.7943 16.3543 16.4414 17.6992 13.867 17.6992ZM9.84804 14.3568C12.3662 14.3568 14.3951 12.2853 14.3951 9.80625C14.3951 7.29785 12.3174 5.27695 9.84804 5.27695C9.4041 5.27695 9.00097 5.31425 8.64492 5.42167L8.64492 8.00019C9.00097 7.74003 9.42187 7.59531 9.84804 7.59531C11.0299 7.59531 12.0377 8.61464 12.0377 9.80625C12.0377 10.9978 11.0494 11.9701 9.84804 11.9701C8.62539 11.9701 7.66464 11.0191 7.66464 9.80625L7.66464 5.81503C6.22265 6.62304 5.30722 8.12363 5.30722 9.80625C5.30722 12.3359 7.33613 14.3568 9.84804 14.3568ZM9.84804 11.0076C10.49 11.0076 11.0396 10.4402 11.0396 9.80625C11.0396 9.19179 10.4723 8.62441 9.84804 8.62441C9.22207 8.62441 8.66269 9.1625 8.66269 9.80625C8.66269 10.4695 9.20253 11.0076 9.84804 11.0076Z" fill="white" fill-opacity="0.25"/>
 </g>
</svg>
