<?xml version="1.0" encoding="UTF-8"?>
<!--Generator: Apple Native CoreSVG 341-->
<!DOCTYPE svg
PUBLIC "-//W3C//DTD SVG 1.1//EN"
       "http://www.w3.org/Graphics/SVG/1.1/DTD/svg11.dtd">
<svg version="1.1" xmlns="http://www.w3.org/2000/svg" xmlns:xlink="http://www.w3.org/1999/xlink" viewBox="0 0 22.6465 19.6223">
 <g>
  <rect height="19.6223" opacity="0" width="22.6465" x="0" y="0"/>
  <path d="M7.53964 19.6125L14.7666 19.6125C19.5914 19.6125 22.2851 17.0394 22.2851 12.4232L22.2851 7.18749C22.2851 2.57304 19.5914 0 14.7666 0L7.53964 0C2.71054 0 0 2.57304 0 7.18749L0 12.4232C0 17.0394 2.71054 19.6125 7.53964 19.6125ZM7.52187 17.6992C3.92636 17.6992 1.91327 15.8139 1.91327 12.4393L1.91327 7.17148C1.91327 3.79862 3.92636 1.91327 7.52187 1.91327L14.7826 1.91327C18.3658 1.91327 20.3719 3.79862 20.3719 7.17148L20.3719 12.4393C20.3719 15.8139 18.3658 17.6992 14.7826 17.6992ZM11.1457 12.3346C12.3406 12.3346 13.3207 11.3643 13.3207 10.2004C13.3207 8.9957 12.3211 7.99785 11.1457 7.99785C10.7178 7.99785 10.3156 8.10527 9.9623 8.37871L9.9623 6.64492L8.98222 7.07461L8.98222 10.2004C8.98222 11.3936 9.91523 12.3346 11.1457 12.3346ZM11.1457 11.3643C10.4914 11.3643 9.9623 10.8369 9.9623 10.2004C9.9623 9.54433 10.5092 9.00722 11.1457 9.00722C11.7857 9.00722 12.3211 9.55585 12.3211 10.2004C12.3211 10.8369 11.7857 11.3643 11.1457 11.3643Z" fill="white" fill-opacity="0.25"/>
 </g>
</svg>
