<?xml version="1.0" encoding="UTF-8"?>
<!--Generator: Apple Native CoreSVG 341-->
<!DOCTYPE svg
PUBLIC "-//W3C//DTD SVG 1.1//EN"
       "http://www.w3.org/Graphics/SVG/1.1/DTD/svg11.dtd">
<svg version="1.1" xmlns="http://www.w3.org/2000/svg" xmlns:xlink="http://www.w3.org/1999/xlink" viewBox="0 0 13.8939 19.0898">
 <g>
  <rect height="19.0898" opacity="0" width="13.8939" x="0" y="0"/>
  <path d="M8.81113 0C3.98301 0 0 5.55683 0 12.3275C0 15.532 0.860156 19.0721 1.93828 19.0721C2.75039 19.0721 3.42226 18.0191 3.52851 17.0021C1.85078 16.5642 0.632423 15.0459 0.632423 13.256C0.632423 12.1568 1.09082 11.1756 1.91464 10.4283C2.30839 5.84238 5.2871 1.85097 8.70546 1.85097C10.7564 1.85097 11.6896 3.36758 11.6896 6.23769L3.40957 10.5602C2.19609 11.2002 1.62891 12.1926 1.62891 13.256C1.62891 14.8307 2.89668 16.1328 4.48359 16.1328C5.25058 16.1328 5.7539 15.9375 6.84218 15.3508L11.0435 13.0393C12.881 12.0291 13.5326 10.8041 13.5326 8.21386L13.5326 5.89453C13.5326 2.28144 11.933 0 8.81113 0ZM4.42402 15.05C3.42539 15.05 2.62558 14.2387 2.62558 13.248C2.62558 12.2609 3.42539 11.4496 4.42402 11.4496C5.41289 11.4496 6.22246 12.2609 6.22246 13.248C6.22246 14.2387 5.41289 15.05 4.42402 15.05ZM4.42402 14.3057C5.00566 14.3057 5.47812 13.8297 5.47812 13.248C5.47812 12.6779 5.00566 12.1939 4.42402 12.1939C3.83437 12.1939 3.3664 12.6779 3.3664 13.248C3.3664 13.8297 3.83437 14.3057 4.42402 14.3057Z" fill="white" fill-opacity="0.25"/>
 </g>
</svg>
