<?xml version="1.0" encoding="UTF-8"?>
<!--Generator: Apple Native CoreSVG 341-->
<!DOCTYPE svg
PUBLIC "-//W3C//DTD SVG 1.1//EN"
       "http://www.w3.org/Graphics/SVG/1.1/DTD/svg11.dtd">
<svg version="1.1" xmlns="http://www.w3.org/2000/svg" xmlns:xlink="http://www.w3.org/1999/xlink" viewBox="0 0 18.4439 18.4535">
 <g>
  <rect height="18.4535" opacity="0" width="18.4439" x="0" y="0"/>
  <path d="M5.56757 18.4312C6.23593 18.4312 6.80488 18.2324 7.3996 17.7842L15.7746 11.4006C17.5092 10.0717 18.0826 8.83964 18.0826 6.21914C18.0826 3.75137 16.1084 0 11.8519 0C4.41113 0 0 10.7082 0 14.0158C0 14.6459 0.341601 15.0922 0.960935 15.0922C1.59902 15.0922 3.01386 14.2152 3.12656 12.6846C3.2455 11.0305 3.34921 10.0467 3.86875 8.56797C4.85332 5.76523 8.11425 1.79316 11.7543 1.79316C14.2713 1.79316 16.0062 3.80781 16.0062 5.4166C16.0062 6.10742 15.6936 6.60312 14.6227 6.71055C13.5086 6.81797 12.8988 7.00879 11.941 7.73848L4.05781 13.7768C3.40898 14.2756 2.9998 14.9768 2.9998 15.8537C2.9998 17.3031 4.13945 18.4312 5.56757 18.4312ZM5.56757 17.382C4.72441 17.382 4.05078 16.7049 4.05078 15.8537C4.05078 15.0123 4.72441 14.3369 5.56757 14.3369C6.42499 14.3369 7.09238 15.0123 7.09238 15.8537C7.09238 16.7049 6.42499 17.382 5.56757 17.382ZM5.56757 16.6918C6.03456 16.6918 6.41191 16.3127 6.41191 15.8537C6.41191 15.3982 6.03456 15.0254 5.56757 15.0254C5.10859 15.0254 4.7455 15.3982 4.7455 15.8537C4.7455 16.3127 5.10859 16.6918 5.56757 16.6918Z" fill="white" fill-opacity="0.25"/>
 </g>
</svg>
