<?xml version="1.0" encoding="UTF-8"?>
<!--Generator: Apple Native CoreSVG 341-->
<!DOCTYPE svg
PUBLIC "-//W3C//DTD SVG 1.1//EN"
       "http://www.w3.org/Graphics/SVG/1.1/DTD/svg11.dtd">
<svg version="1.1" xmlns="http://www.w3.org/2000/svg" xmlns:xlink="http://www.w3.org/1999/xlink" viewBox="0 0 25.2865 19.1234">
 <g>
  <rect height="19.1234" opacity="0" width="25.2865" x="0" y="0"/>
  <path d="M21.8076 7.59316C23.74 8.40097 24.9252 10.2363 24.9252 12.3152C24.9252 15.0957 22.5344 17.3242 19.4973 17.3242L6.00429 17.3242C2.59238 17.3242 0 14.8488 0 11.881C0 9.4455 1.38398 7.43593 3.61562 7.04219C3.70664 4.29199 6.31152 2.44824 8.78066 3.1127C10.0053 1.34571 11.948 0 14.5523 0C18.6361 0 21.8201 3.18144 21.8076 7.59316ZM9.3578 7.08163L6.04472 11.3328C5.54354 11.9742 6.16561 12.5939 6.82088 12.256L10.0912 10.5057L14.251 12.7545C14.4666 12.8707 14.6547 12.9373 14.8365 12.9373C15.0893 12.9373 15.3367 12.8043 15.5594 12.531L18.8885 8.2621C19.3559 7.65448 18.7818 7.00273 18.1141 7.35487L14.826 9.10351L10.6662 6.85194C10.4586 6.74198 10.2723 6.66561 10.0726 6.66561C9.82968 6.66561 9.59023 6.79686 9.3578 7.08163Z" fill="white" fill-opacity="0.25"/>
 </g>
</svg>
