<?xml version="1.0" encoding="UTF-8"?>
<!--Generator: Apple Native CoreSVG 341-->
<!DOCTYPE svg
PUBLIC "-//W3C//DTD SVG 1.1//EN"
       "http://www.w3.org/Graphics/SVG/1.1/DTD/svg11.dtd">
<svg version="1.1" xmlns="http://www.w3.org/2000/svg" xmlns:xlink="http://www.w3.org/1999/xlink" viewBox="0 0 23.9377 22.825">
 <g>
  <rect height="22.825" opacity="0" width="23.9377" x="0" y="0"/>
  <path d="M22.374 5.44493C21.9657 5.22675 21.499 5.1039 21.0031 5.1039C20.4011 5.1039 19.8411 5.2846 19.3752 5.59549C18.9582 4.76578 18.0561 4.2418 16.7629 4.2418C15.3192 4.2418 13.8676 4.90398 12.5844 5.96137C13.9834 7.47916 15.1605 9.28053 15.9458 11.0606C17.0089 10.6374 17.8279 10.0703 18.4143 9.44771C18.7377 10.0413 19.2603 10.5105 19.8932 10.7657C19.0034 11.4827 17.8676 12.0872 16.4942 12.512C16.8291 13.5224 17.0076 14.4955 17.0076 15.3766C17.0076 18.7103 14.7266 21.1166 11.517 21.1166C11.3292 21.1166 11.1447 21.1085 10.9643 21.0908C11.3941 20.5814 11.652 19.9223 11.652 19.2014C11.652 18.8856 11.6021 18.5817 11.5086 18.2976C11.5113 18.298 11.5141 18.298 11.517 18.298C13.485 18.298 14.8361 16.6734 14.8361 14.3939C14.8361 13.9245 14.7877 13.4402 14.6866 12.9481C13.7283 13.1289 12.6718 13.2228 11.5285 13.2228C10.3891 13.2228 9.32521 13.1261 8.35104 12.9417C8.24871 13.436 8.19961 13.9224 8.19961 14.3939C8.19961 15.0918 8.32625 15.7283 8.55964 16.2746C7.65274 16.3178 6.85883 16.7688 6.3551 17.4486C6.14005 16.8187 6.02813 16.1216 6.02813 15.3766C6.02813 14.4922 6.20865 13.5151 6.54682 12.5008C2.75833 11.3201 0.60118 8.82794 0.60118 6.37774C0.60118 4.90016 1.15187 3.67578 2.20723 2.90158C2.20572 2.91173 2.20566 2.92227 2.20566 2.93282C2.20566 4.04317 2.81743 5.00969 3.72379 5.50999C3.5184 5.87363 3.41172 6.30201 3.41172 6.7752C3.41172 8.11792 4.47649 10.0213 7.0926 11.0632C7.88121 9.28126 9.06361 7.47788 10.4681 5.95876C9.59637 5.23443 8.64373 4.69943 7.66756 4.44401C7.93365 4.00462 8.08458 3.48741 8.08458 2.93282C8.08458 2.81908 8.07814 2.70691 8.06408 2.59712C9.26789 3.08685 10.4437 3.89589 11.5265 4.89155C13.4163 3.15923 15.5862 1.99044 17.6852 1.99044C20.4677 1.99044 22.0776 3.55911 22.374 5.44493ZM8.72287 11.5464C9.5434 11.7232 10.4776 11.8219 11.5285 11.8219C12.5644 11.8219 13.4928 11.7229 14.3159 11.5465C13.7576 9.88344 12.7594 8.23931 11.5258 6.93361C10.2875 8.23926 9.28413 9.88333 8.72287 11.5464Z" fill="white" fill-opacity="0.25"/>
  <path d="M5.142 5.1123C6.34883 5.1123 7.31972 4.14141 7.31972 2.93282C7.31972 1.73224 6.35234 0.755094 5.142 0.755094C3.93966 0.755094 2.96251 1.73224 2.96251 2.93282C2.96251 4.14141 3.94142 5.1123 5.142 5.1123ZM21.0031 10.226C22.2099 10.226 23.1808 9.24707 23.1808 8.04649C23.1808 6.8379 22.2019 5.859 21.0031 5.859C19.7945 5.859 18.8236 6.8379 18.8236 8.04649C18.8236 9.24707 19.7945 10.226 21.0031 10.226ZM8.71563 21.3808C9.91621 21.3808 10.8951 20.4099 10.8951 19.2014C10.8951 17.9945 9.91621 17.0236 8.71563 17.0236C7.50704 17.0236 6.52814 17.9945 6.52814 19.2014C6.52814 20.4099 7.50704 21.3808 8.71563 21.3808Z" fill="white" fill-opacity="0.25"/>
 </g>
</svg>
