<?xml version="1.0" encoding="UTF-8"?>
<!--Generator: Apple Native CoreSVG 341-->
<!DOCTYPE svg
PUBLIC "-//W3C//DTD SVG 1.1//EN"
       "http://www.w3.org/Graphics/SVG/1.1/DTD/svg11.dtd">
<svg version="1.1" xmlns="http://www.w3.org/2000/svg" xmlns:xlink="http://www.w3.org/1999/xlink" viewBox="0 0 25.2865 19.1234">
 <g>
  <rect height="19.1234" opacity="0" width="25.2865" x="0" y="0"/>
  <path d="M21.8076 7.59316C23.74 8.40097 24.9252 10.2363 24.9252 12.3152C24.9252 15.0957 22.5344 17.3242 19.4973 17.3242L6.00429 17.3242C2.59238 17.3242 0 14.8488 0 11.881C0 9.4455 1.38398 7.43593 3.61562 7.04219C3.70664 4.29199 6.31152 2.44824 8.78066 3.1127C10.0053 1.34571 11.948 0 14.5523 0C18.6361 0 21.8201 3.18144 21.8076 7.59316ZM14.9936 5.73144L11.7223 11.1687L10.0619 9.04179C9.86757 8.78437 9.6164 8.64589 9.31288 8.64589C8.83476 8.64589 8.44804 9.02558 8.44804 9.51972C8.44804 9.74062 8.52968 9.94472 8.69375 10.1559L10.8812 12.8693C11.1262 13.1791 11.4092 13.3316 11.756 13.3316C12.0976 13.3316 12.3957 13.1613 12.5935 12.8543L16.4189 6.69862C16.5307 6.52655 16.6488 6.29667 16.6488 6.06855C16.6488 5.60195 16.2408 5.25156 15.7519 5.25156C15.4486 5.25156 15.1727 5.4246 14.9936 5.73144Z" fill="white" fill-opacity="0.25"/>
 </g>
</svg>
