<?xml version="1.0" encoding="UTF-8"?>
<!--Generator: Apple Native CoreSVG 341-->
<!DOCTYPE svg
PUBLIC "-//W3C//DTD SVG 1.1//EN"
       "http://www.w3.org/Graphics/SVG/1.1/DTD/svg11.dtd">
<svg version="1.1" xmlns="http://www.w3.org/2000/svg" xmlns:xlink="http://www.w3.org/1999/xlink" viewBox="0 0 23.459 20.8304">
 <g>
  <rect height="20.8304" opacity="0" width="23.459" x="0" y="0"/>
  <path d="M23.0976 9.64061C23.0976 15.2224 18.2355 19.2847 11.5439 19.2847C9.34277 19.2847 7.35351 18.8826 5.64296 18.1058C4.61249 18.8471 3.21621 19.2847 1.84746 19.2847C1.13437 19.2847 0.86836 18.7359 1.35176 18.2996C1.94297 17.7527 2.17656 17.2599 2.17656 16.5017C2.17656 14.7642 0 13.6709 0 9.64061C0 4.04375 4.86914 0 11.5439 0C18.2187 0 23.0976 4.04375 23.0976 9.64061ZM14.5078 5.83358L10.4635 12.299L8.58124 9.90741C8.33807 9.58691 8.09588 9.47343 7.79432 9.47343C7.29061 9.47343 6.90409 9.88495 6.90409 10.3824C6.90409 10.6299 6.98573 10.8553 7.16034 11.0787L9.55351 13.9898C9.83476 14.3439 10.1266 14.5035 10.5035 14.5035C10.8689 14.5035 11.1855 14.3182 11.4002 13.9828L15.9707 6.85721C16.1152 6.64256 16.2254 6.40214 16.2254 6.17675C16.2254 5.66503 15.7838 5.32284 15.2978 5.32284C14.9902 5.32284 14.7135 5.49843 14.5078 5.83358Z" fill="white" fill-opacity="0.25"/>
 </g>
</svg>
