<?xml version="1.0" encoding="UTF-8"?>
<!--Generator: Apple Native CoreSVG 341-->
<!DOCTYPE svg
PUBLIC "-//W3C//DTD SVG 1.1//EN"
       "http://www.w3.org/Graphics/SVG/1.1/DTD/svg11.dtd">
<svg version="1.1" xmlns="http://www.w3.org/2000/svg" xmlns:xlink="http://www.w3.org/1999/xlink" viewBox="0 0 20.8226 24.0883">
 <g>
  <rect height="24.0883" opacity="0" width="20.8226" x="0" y="0"/>
  <path d="M0.967767 24.0418L19.4775 24.0418C20.0262 24.0418 20.4613 23.6066 20.4613 23.066C20.4613 22.5174 20.0262 22.0885 19.4775 22.0885L0.967767 22.0885C0.427145 22.0885 0 22.5174 0 23.066C0 23.6066 0.427145 24.0418 0.967767 24.0418Z" fill="white" fill-opacity="0.25"/>
  <path d="M6.73378 11.4775L13.7275 11.4775C15.1926 11.4775 16.0623 10.6496 16.0623 9.1582L16.0623 2.38515C16.0623 0.917773 15.1926 0 13.7275 0L6.69687 0C5.2416 0 4.39902 0.85996 4.39902 2.38515L4.39902 9.10215C4.39902 10.6016 5.27851 11.4775 6.73378 11.4775ZM6.37734 16.9598L14.0857 16.9598C14.6873 16.9598 15.0867 16.5623 15.0867 15.9926C15.0867 15.7062 14.9449 15.3859 14.7109 15.0996L12.6109 12.6719L7.84238 12.6719L5.78593 15.0996C5.53769 15.3939 5.37636 15.708 5.37636 15.9926C5.37636 16.5623 5.77753 16.9598 6.37734 16.9598Z" fill="white" fill-opacity="0.25"/>
 </g>
</svg>
