<?xml version="1.0" encoding="UTF-8"?>
<!--Generator: Apple Native CoreSVG 341-->
<!DOCTYPE svg
PUBLIC "-//W3C//DTD SVG 1.1//EN"
       "http://www.w3.org/Graphics/SVG/1.1/DTD/svg11.dtd">
<svg version="1.1" xmlns="http://www.w3.org/2000/svg" xmlns:xlink="http://www.w3.org/1999/xlink" viewBox="0 0 20.8226 24.0883">
 <g>
  <rect height="24.0883" opacity="0" width="20.8226" x="0" y="0"/>
  <path d="M0.967767 24.0418L19.4775 24.0418C20.0262 24.0418 20.4613 23.6066 20.4613 23.066C20.4613 22.5174 20.0262 22.0885 19.4775 22.0885L0.967767 22.0885C0.427145 22.0885 0 22.5174 0 23.066C0 23.6066 0.427145 24.0418 0.967767 24.0418Z" fill="white" fill-opacity="0.25"/>
  <path d="M7.41269 12.3746L13.0326 12.3746C14.9256 12.3746 16.0623 11.2068 16.0623 9.31386L16.0623 3.06074C16.0623 1.27597 14.9504 0 13.0326 0L7.41269 0C5.53749 0 4.383 1.17754 4.383 3.06074L4.383 9.31386C4.383 11.2068 5.53749 12.3746 7.41269 12.3746ZM7.58222 10.5844C6.53651 10.5844 6.09159 10.1012 6.09159 9.12304L6.09159 3.27109C6.09159 2.27343 6.53651 1.79023 7.58222 1.79023L12.8631 1.79023C13.9088 1.79023 14.3617 2.27343 14.3617 3.27109L14.3617 9.12304C14.3617 10.1012 13.9088 10.5844 12.8631 10.5844ZM6.59355 16.9598L13.8517 16.9598C14.683 16.9598 15.2773 16.3832 15.2773 15.5777C15.2773 15.2459 15.0795 14.8121 14.8035 14.4953L12.7861 12.1172L10.6287 12.1172L12.9809 14.935C13.0715 15.0514 13.0004 15.1695 12.8742 15.1695L7.61952 15.1695C7.48534 15.1695 7.41424 15.0514 7.51112 14.935L9.85624 12.1172L7.65742 12.1172L5.6498 14.4953C5.36582 14.8219 5.17597 15.2557 5.17597 15.5777C5.17597 16.3832 5.7623 16.9598 6.59355 16.9598Z" fill="white" fill-opacity="0.25"/>
 </g>
</svg>
