<?xml version="1.0" encoding="UTF-8"?>
<!--Generator: Apple Native CoreSVG 341-->
<!DOCTYPE svg
PUBLIC "-//W3C//DTD SVG 1.1//EN"
       "http://www.w3.org/Graphics/SVG/1.1/DTD/svg11.dtd">
<svg version="1.1" xmlns="http://www.w3.org/2000/svg" xmlns:xlink="http://www.w3.org/1999/xlink" viewBox="0 0 37.3787 23.5097">
 <g>
  <rect height="23.5097" opacity="0" width="37.3787" x="0" y="0"/>
  <path d="M24.7271 4.39492L24.7271 8.27871L22.8543 8.27871L22.8543 4.51034C22.8543 4.08671 22.5932 3.83358 22.1793 3.83358L3.57186 3.83358C3.15799 3.83358 2.89686 4.08671 2.89686 4.51034L2.89686 13.6719C2.89686 13.9756 3.02381 14.0812 3.30624 14.0812L15.2072 14.0812L15.2072 18.9752L15.0295 18.9752C13.783 18.9752 12.7644 20.0025 12.7644 21.2385C12.7644 21.5557 12.8299 21.8581 12.9483 22.1324L9.64316 22.1324C9.15722 22.1324 8.76523 21.7299 8.76523 21.2465C8.76523 20.7631 9.15722 20.3623 9.64316 20.3623L9.6912 20.3623L9.6912 18.6023L3.4662 18.6023C1.94043 18.6023 1.02402 17.6859 1.02402 16.1601L1.02402 4.39492C1.02402 2.8709 1.94043 1.9625 3.4662 1.9625L22.2947 1.9625C23.8107 1.9625 24.7271 2.8709 24.7271 4.39492Z" fill="white" fill-opacity="0.25"/>
  <path d="M14.1515 21.2385C14.1515 21.7299 14.5453 22.1324 15.0295 22.1324L35.1056 22.1226C35.5996 22.1226 35.9916 21.7219 35.9916 21.2305C35.9916 20.7551 35.5996 20.3543 35.1056 20.3543L33.6142 20.3543L33.6142 11.9892C33.6142 10.4744 32.7834 9.66582 31.2748 9.66582L18.9338 9.66582C17.483 9.66582 16.5943 10.4744 16.5943 11.9892L16.5943 20.3623L15.0295 20.3623C14.5453 20.3623 14.1515 20.7631 14.1515 21.2385ZM18.4672 20.3623L18.4672 12.4498C18.4672 11.8336 18.7691 11.5387 19.3845 11.5387L30.824 11.5387C31.4314 11.5387 31.7431 11.8336 31.7431 12.4498L31.7431 20.3543Z" fill="white" fill-opacity="0.25"/>
 </g>
</svg>
