<?xml version="1.0" encoding="UTF-8"?>
<!--Generator: Apple Native CoreSVG 341-->
<!DOCTYPE svg
PUBLIC "-//W3C//DTD SVG 1.1//EN"
       "http://www.w3.org/Graphics/SVG/1.1/DTD/svg11.dtd">
<svg version="1.1" xmlns="http://www.w3.org/2000/svg" xmlns:xlink="http://www.w3.org/1999/xlink" viewBox="0 0 23.1151 20.125">
 <g>
  <rect height="20.125" opacity="0" width="23.1151" x="0" y="0"/>
  <path d="M12.9624 10.0576C12.9624 16.132 14.8816 20.1152 17.8544 20.1152C20.8273 20.1152 22.7544 16.132 22.7544 10.0576C22.7544 3.97519 20.8273 0 17.8544 0C14.8816 0 12.9624 3.97519 12.9624 10.0576ZM14.8353 10.0576C14.8353 5.15272 16.0513 1.91327 17.8544 1.91327C19.6575 1.91327 20.8816 5.15272 20.8816 10.0576C20.8816 14.9545 19.6575 18.2002 17.8544 18.2002C16.0513 18.2002 14.8353 14.9545 14.8353 10.0576ZM7.86986 10.0576C7.86986 16.3232 9.67552 20.1152 13.8904 20.1152L17.8544 20.1152L17.8544 18.2002L13.8904 18.2002C10.9114 18.2002 9.78312 15.1199 9.78312 10.0576C9.78312 4.9953 10.9114 1.91327 13.8904 1.91327L17.8544 1.91327L17.8544 0L13.8904 0C9.67552 0 7.86986 3.78398 7.86986 10.0576ZM12.7247 4.61893L14.514 4.61893L14.514 3.27284L12.7247 3.27284C12.3556 3.27284 12.0468 3.58162 12.0468 3.95076C12.0468 4.3199 12.3538 4.61893 12.7247 4.61893ZM12.0888 7.51151L13.8798 7.51151L13.8798 6.1619L12.0888 6.1619C11.7179 6.1619 11.4189 6.46093 11.4189 6.83182C11.4189 7.20272 11.7179 7.51151 12.0888 7.51151ZM11.8517 10.6279L13.6427 10.6279L13.6427 9.28183L11.8517 9.28183C11.4808 9.28183 11.1755 9.58886 11.1755 9.95976C11.1755 10.3289 11.4808 10.6279 11.8517 10.6279ZM12.0888 13.7559L13.8798 13.7559L13.8798 12.4062L12.0888 12.4062C11.7179 12.4062 11.4189 12.715 11.4189 13.0859C11.4189 13.4568 11.7179 13.7559 12.0888 13.7559ZM12.7247 16.6449L14.514 16.6449L14.514 15.2988L12.7247 15.2988C12.3538 15.2988 12.0468 15.5979 12.0468 15.9688C12.0468 16.3361 12.3556 16.6449 12.7247 16.6449Z" fill="white" fill-opacity="0.25"/>
  <path d="M3.21576 1.78847C2.87358 1.78847 2.51362 1.95156 2.37358 2.36289C1.72202 4.30449 1.35268 6.48496 1.35268 8.72851C1.35268 11.0248 1.7183 13.2475 2.41928 15.2101C2.85795 16.3814 4.52727 15.9244 4.07064 14.6385C3.45736 12.8346 3.09447 10.8387 3.09447 8.72851C3.09447 6.66406 3.41947 4.69355 4.02318 2.93456C4.27669 2.24316 3.75111 1.78847 3.21576 1.78847ZM0.566549 14.0824C-0.152196 14.3219-0.156688 15.1988 0.381591 15.5428L3.53686 17.5498C4.03061 17.8635 4.60306 17.6781 4.79173 17.1506L6.04681 13.6254C6.25599 13.0471 5.75736 12.3018 5.00658 12.5492Z" fill="white" fill-opacity="0.25"/>
 </g>
</svg>
