<?xml version="1.0" encoding="UTF-8"?>
<!--Generator: Apple Native CoreSVG 341-->
<!DOCTYPE svg
PUBLIC "-//W3C//DTD SVG 1.1//EN"
       "http://www.w3.org/Graphics/SVG/1.1/DTD/svg11.dtd">
<svg version="1.1" xmlns="http://www.w3.org/2000/svg" xmlns:xlink="http://www.w3.org/1999/xlink" viewBox="0 0 14.9086 20.125">
 <g>
  <rect height="20.125" opacity="0" width="14.9086" x="0" y="0"/>
  <path d="M5.43788 10.0576C5.43788 15.9433 7.26405 19.7682 9.99257 19.7682C12.7228 19.7682 14.5473 15.9433 14.5473 10.0576C14.5473 4.17011 12.7228 0.337301 9.99257 0.337301C7.26405 0.337301 5.43788 4.17011 5.43788 10.0576ZM0 10.0576C0 16.3232 1.81367 20.1152 6.0205 20.1152L7.13905 20.1152C6.28964 19.389 5.59374 18.3256 5.08339 16.9736L3.7457 16.9736C3.37656 16.9736 3.06777 16.6648 3.06777 16.2974C3.06777 15.9266 3.3748 15.6275 3.7457 15.6275L4.65038 15.6275C4.50742 15.0699 4.38222 14.4732 4.29257 13.9193L3.10976 13.9193C2.73886 13.9193 2.43984 13.6203 2.43984 13.2494C2.43984 12.8803 2.73886 12.5715 3.10976 12.5715L4.12753 12.5715C4.06269 11.9437 4.02363 11.2404 4.0121 10.6279L2.87265 10.6279C2.50175 10.6279 2.19648 10.3289 2.19648 9.95976C2.19648 9.58886 2.50175 9.28183 2.87265 9.28183L4.02187 9.28183C4.03163 8.6373 4.0707 7.97577 4.14355 7.34804L3.10976 7.34804C2.73886 7.34804 2.43984 7.03749 2.43984 6.66835C2.43984 6.29746 2.73886 5.99843 3.10976 5.99843L4.32636 5.99843C4.43202 5.39648 4.54745 4.83359 4.7082 4.29023L3.7457 4.29023C3.3748 4.29023 3.06777 3.99121 3.06777 3.62207C3.06777 3.25293 3.37656 2.94414 3.7457 2.94414L5.15722 2.94414C5.65956 1.68203 6.33144 0.684375 7.13905 0L6.0205 0C1.81367 0 0 3.78398 0 10.0576Z" fill="white" fill-opacity="0.25"/>
 </g>
</svg>
