<?xml version="1.0" encoding="UTF-8"?>
<!--Generator: Apple Native CoreSVG 341-->
<!DOCTYPE svg
PUBLIC "-//W3C//DTD SVG 1.1//EN"
       "http://www.w3.org/Graphics/SVG/1.1/DTD/svg11.dtd">
<svg version="1.1" xmlns="http://www.w3.org/2000/svg" xmlns:xlink="http://www.w3.org/1999/xlink" viewBox="0 0 25.6939 20.125">
 <g>
  <rect height="20.125" opacity="0" width="25.6939" x="0" y="0"/>
  <path d="M1.01601 10.0576C1.01601 3.78398 2.83144 0 7.03651 0L11.0103 2.06912e-08C13.2321 0 14.8653 2.22028 15.548 5.88236L13.8888 7.34885C13.5235 3.9941 12.4555 1.91327 11.0103 1.91327C9.20545 1.91327 7.98142 5.15272 7.98142 10.0576C7.98142 14.9545 9.20545 18.2002 11.0103 18.2002C12.4563 18.2002 13.5247 16.113 13.8894 12.7576L15.5485 14.227C14.8661 17.8894 13.2326 20.1152 11.0103 20.1152L7.03651 20.1152C2.83144 20.1152 1.01601 16.3232 1.01601 10.0576ZM7.92616 1.91327L7.03651 1.91327C4.0576 1.91327 2.92928 4.9953 2.92928 10.0576C2.92928 15.1199 4.0576 18.2002 7.03651 18.2002L7.9266 18.2002C7.62598 17.7594 7.36169 17.2362 7.13345 16.6449L5.87089 16.6449C5.50351 16.6449 5.20272 16.3361 5.20272 15.9688C5.20272 15.5979 5.50175 15.2988 5.87089 15.2988L6.70764 15.2988C6.57793 14.8217 6.47085 14.3069 6.38885 13.7559L5.24296 13.7559C4.87206 13.7559 4.56503 13.4568 4.56503 13.0859C4.56503 12.715 4.87206 12.4062 5.24296 12.4062L6.2175 12.4062C6.162 11.8427 6.12891 11.2501 6.12179 10.6279L4.99784 10.6279C4.6287 10.6279 4.33143 10.3289 4.33143 9.95976C4.33143 9.58886 4.6287 9.28183 4.99784 9.28183L6.12589 9.28183C6.13848 8.66144 6.1763 8.07026 6.23853 7.51151L5.24296 7.51151C4.87206 7.51151 4.56503 7.20272 4.56503 6.83182C4.56503 6.46093 4.87206 6.1619 5.24296 6.1619L6.4195 6.1619C6.50905 5.60987 6.62305 5.09391 6.76125 4.61893L5.87089 4.61893C5.50175 4.61893 5.20272 4.3199 5.20272 3.95076C5.20272 3.58162 5.50351 3.27284 5.87089 3.27284L7.21587 3.27284C7.42234 2.75776 7.65959 2.30222 7.92616 1.91327Z" fill="white" fill-opacity="0.25"/>
  <path d="M23.3625 9.11152L16.6943 9.11152C16.1402 9.11152 15.742 9.52558 15.742 10.0656C15.742 10.5896 16.1402 11.0117 16.6943 11.0117L23.3625 11.0117C23.9103 11.0117 24.3068 10.5896 24.3068 10.0656C24.3068 9.52558 23.9103 9.11152 23.3625 9.11152ZM18.197 12.7599L18.197 7.34023C18.197 6.49726 17.339 6.13789 16.7117 6.69336L13.6359 9.4205C13.2117 9.78788 13.2117 10.3096 13.6359 10.6832L16.7117 13.4058C17.3185 13.9551 18.197 13.6357 18.197 12.7599Z" fill="white" fill-opacity="0.25"/>
 </g>
</svg>
