<?xml version="1.0" encoding="UTF-8"?>
<!--Generator: Apple Native CoreSVG 341-->
<!DOCTYPE svg
PUBLIC "-//W3C//DTD SVG 1.1//EN"
       "http://www.w3.org/Graphics/SVG/1.1/DTD/svg11.dtd">
<svg version="1.1" xmlns="http://www.w3.org/2000/svg" xmlns:xlink="http://www.w3.org/1999/xlink" viewBox="0 0 20.4748 14.8863">
 <g>
  <rect height="14.8863" opacity="0" width="20.4748" x="0" y="0"/>
  <path d="M10.0576 9.79198C16.132 9.79198 20.1135 7.87284 20.1135 4.89999C20.1135 1.92715 16.132 0 10.0576 0C3.97519 0 0 1.92715 0 4.89999C0 7.87284 3.97519 9.79198 10.0576 9.79198ZM10.0576 7.91914C5.15272 7.91914 1.91327 6.70312 1.91327 4.89999C1.91327 3.09511 5.15272 1.87108 10.0576 1.87108C14.9625 1.87108 18.2002 3.09511 18.2002 4.89999C18.2002 6.70312 14.9625 7.91914 10.0576 7.91914ZM10.0576 14.8846C16.3215 14.8846 20.1135 13.0789 20.1135 8.86405L20.1135 4.89999L18.2002 4.89999L18.2002 8.86405C18.2002 11.843 15.1199 12.9713 10.0576 12.9713C4.9953 12.9713 1.91327 11.843 1.91327 8.86405L1.91327 4.89999L0 4.89999L0 8.86405C0 13.0789 3.78398 14.8846 10.0576 14.8846ZM4.61893 10.0297L4.61893 8.24042L3.27284 8.24042L3.27284 10.0297C3.27284 10.3988 3.58162 10.7076 3.94901 10.7076C4.3199 10.7076 4.61893 10.4006 4.61893 10.0297ZM7.51151 10.6656L7.51151 8.8746L6.1619 8.8746L6.1619 10.6656C6.1619 11.0365 6.46093 11.3435 6.83182 11.3435C7.20272 11.3435 7.51151 11.0365 7.51151 10.6656ZM10.6279 10.9107L10.6279 9.11972L9.28183 9.11972L9.28183 10.9107C9.28183 11.2816 9.58886 11.5789 9.958 11.5789C10.3289 11.5789 10.6279 11.2816 10.6279 10.9107ZM13.7559 10.6656L13.7559 8.8746L12.4062 8.8746L12.4062 10.6656C12.4062 11.0365 12.715 11.3435 13.0859 11.3435C13.4568 11.3435 13.7559 11.0365 13.7559 10.6656ZM16.6449 10.0297L16.6449 8.24042L15.2988 8.24042L15.2988 10.0297C15.2988 10.4006 15.5979 10.7076 15.967 10.7076C16.3361 10.7076 16.6449 10.3988 16.6449 10.0297Z" fill="white" fill-opacity="0.25"/>
 </g>
</svg>
