<?xml version="1.0" encoding="UTF-8"?>
<!--Generator: Apple Native CoreSVG 341-->
<!DOCTYPE svg
PUBLIC "-//W3C//DTD SVG 1.1//EN"
       "http://www.w3.org/Graphics/SVG/1.1/DTD/svg11.dtd">
<svg version="1.1" xmlns="http://www.w3.org/2000/svg" xmlns:xlink="http://www.w3.org/1999/xlink" viewBox="0 0 20.4748 22.7342">
 <g>
  <rect height="22.7342" opacity="0" width="20.4748" x="0" y="0"/>
  <path d="M10.0576 9.26362C15.9433 9.26362 19.7682 7.4392 19.7682 4.70893C19.7682 1.97866 15.9433 0.154247 10.0576 0.154247C4.17011 0.154247 0.345309 1.97866 0.345309 4.70893C0.345309 7.4392 4.17011 9.26362 10.0576 9.26362ZM10.0576 14.7015C16.3215 14.7015 20.1135 12.8878 20.1135 8.681L20.1135 7.56244C19.389 8.41186 18.3256 9.09975 16.9736 9.6101L16.9736 10.9558C16.9736 11.3249 16.6648 11.6257 16.2957 11.6257C15.9266 11.6257 15.6275 11.3267 15.6275 10.9558L15.6275 10.0511C15.0682 10.1958 14.4732 10.3113 13.9193 10.4009L13.9193 11.5935C13.9193 11.9626 13.6203 12.2617 13.2494 12.2617C12.8803 12.2617 12.5697 11.9626 12.5697 11.5935L12.5697 10.5757C11.942 10.6326 11.2404 10.6779 10.6279 10.6894L10.6279 11.8288C10.6279 12.1997 10.3289 12.505 9.958 12.505C9.58886 12.505 9.28183 12.1997 9.28183 11.8288L9.28183 10.6814C8.6373 10.6699 7.97402 10.6228 7.34628 10.5579L7.34628 11.5935C7.34628 11.9626 7.03749 12.2617 6.6666 12.2617C6.29746 12.2617 5.99843 11.9626 5.99843 11.5935L5.99843 10.3689C5.39648 10.2695 4.83183 10.146 4.29023 9.9933L4.29023 10.9558C4.29023 11.3267 3.99121 11.6257 3.62031 11.6257C3.25293 11.6257 2.94414 11.3249 2.94414 10.9558L2.94414 9.53627C1.68203 9.03393 0.684375 8.37006 0 7.56244L0 8.681C0 12.8878 3.78398 14.7015 10.0576 14.7015Z" fill="white" fill-opacity="0.25"/>
  <path d="M1.78672 19.5185C1.78672 19.8607 1.95156 20.2206 2.36289 20.3607C4.30449 21.0122 6.4832 21.3833 8.72675 21.3833C11.0248 21.3833 13.2457 21.0177 15.2084 20.315C16.3797 19.8763 15.9244 18.207 14.6367 18.6654C12.8346 19.2786 10.8387 19.6398 8.72675 19.6398C6.66406 19.6398 4.69179 19.3148 2.93456 18.7128C2.2414 18.4576 1.78672 18.9849 1.78672 19.5185ZM14.0807 22.1677C14.3201 22.8864 15.1988 22.8909 15.5428 22.3527L17.548 19.1991C17.8635 18.7054 17.6781 18.1329 17.1506 17.9443L13.6254 16.6892C13.0471 16.48 12.3018 16.9769 12.5492 17.7277Z" fill="white" fill-opacity="0.25"/>
 </g>
</svg>
