<?xml version="1.0" encoding="UTF-8"?>
<!--Generator: Apple Native CoreSVG 341-->
<!DOCTYPE svg
PUBLIC "-//W3C//DTD SVG 1.1//EN"
       "http://www.w3.org/Graphics/SVG/1.1/DTD/svg11.dtd">
<svg version="1.1" xmlns="http://www.w3.org/2000/svg" xmlns:xlink="http://www.w3.org/1999/xlink" viewBox="0 0 15.2459 20.125">
 <g>
  <rect height="20.125" opacity="0" width="15.2459" x="0" y="0"/>
  <path d="M5.09257 10.0576C5.09257 16.132 7.01972 20.1152 9.99257 20.1152C12.9672 20.1152 14.8846 16.132 14.8846 10.0576C14.8846 3.97519 12.9672 0 9.99257 0C7.01972 0 5.09257 3.97519 5.09257 10.0576ZM6.96541 10.0576C6.96541 5.15272 8.18944 1.91327 9.99257 1.91327C11.7975 1.91327 13.0135 5.15272 13.0135 10.0576C13.0135 14.9545 11.7975 18.2002 9.99257 18.2002C8.18944 18.2002 6.96541 14.9545 6.96541 10.0576ZM0 10.0576C0 16.3232 1.81367 20.1152 6.0205 20.1152L9.99257 20.1152L9.99257 18.2002L6.0205 18.2002C3.04159 18.2002 1.91327 15.1199 1.91327 10.0576C1.91327 4.9953 3.04159 1.91327 6.0205 1.91327L9.99257 1.91327L9.99257 0L6.0205 0C1.81367 0 0 3.78398 0 10.0576ZM4.85487 4.61893L6.64413 4.61893L6.64413 3.27284L4.85487 3.27284C4.48749 3.27284 4.18495 3.58162 4.18495 3.95076C4.18495 4.3199 4.48398 4.61893 4.85487 4.61893ZM4.21894 7.51151L6.00995 7.51151L6.00995 6.1619L4.21894 6.1619C3.84804 6.1619 3.54901 6.46093 3.54901 6.83182C3.54901 7.20272 3.84804 7.51151 4.21894 7.51151ZM3.98183 10.6279L5.77284 10.6279L5.77284 9.28183L3.98183 9.28183C3.61093 9.28183 3.30741 9.58886 3.30741 9.95976C3.30741 10.3289 3.61093 10.6279 3.98183 10.6279ZM4.21894 13.7559L6.00995 13.7559L6.00995 12.4062L4.21894 12.4062C3.84804 12.4062 3.54901 12.715 3.54901 13.0859C3.54901 13.4568 3.84804 13.7559 4.21894 13.7559ZM4.85487 16.6449L6.64413 16.6449L6.64413 15.2988L4.85487 15.2988C4.48398 15.2988 4.18495 15.5979 4.18495 15.9688C4.18495 16.3361 4.48749 16.6449 4.85487 16.6449Z" fill="white" fill-opacity="0.25"/>
 </g>
</svg>
