<?xml version="1.0" encoding="UTF-8"?>
<!--Generator: Apple Native CoreSVG 341-->
<!DOCTYPE svg
PUBLIC "-//W3C//DTD SVG 1.1//EN"
       "http://www.w3.org/Graphics/SVG/1.1/DTD/svg11.dtd">
<svg version="1.1" xmlns="http://www.w3.org/2000/svg" xmlns:xlink="http://www.w3.org/1999/xlink" viewBox="0 0 20.4748 14.557">
 <g>
  <rect height="14.557" opacity="0" width="20.4748" x="0" y="0"/>
  <path d="M10.0576 9.11738C15.9433 9.11738 19.7682 7.29296 19.7682 4.56269C19.7682 1.83242 15.9433 0.00800788 10.0576 0.00800788C4.17011 0.00800788 0.345309 1.83242 0.345309 4.56269C0.345309 7.29296 4.17011 9.11738 10.0576 9.11738ZM10.0576 14.557C16.3215 14.557 20.1135 12.7416 20.1135 8.53652L20.1135 7.41621C19.389 8.26562 18.3256 8.95527 16.9736 9.46562L16.9736 10.8113C16.9736 11.1787 16.6648 11.4812 16.2957 11.4812C15.9266 11.4812 15.6275 11.1822 15.6275 10.8113L15.6275 9.90488C15.0682 10.0496 14.4732 10.165 13.9193 10.2564L13.9193 11.4473C13.9193 11.8182 13.6203 12.1172 13.2494 12.1172C12.8803 12.1172 12.5697 11.8182 12.5697 11.4473L12.5697 10.4295C11.942 10.4863 11.2404 10.5334 10.6279 10.5432L10.6279 11.6844C10.6279 12.0553 10.3289 12.3588 9.958 12.3588C9.58886 12.3588 9.28183 12.0553 9.28183 11.6844L9.28183 10.5351C8.6373 10.5254 7.97402 10.4783 7.34628 10.4135L7.34628 11.4473C7.34628 11.8182 7.03749 12.1172 6.6666 12.1172C6.29746 12.1172 5.99843 11.8182 5.99843 11.4473L5.99843 10.2226C5.39648 10.125 4.83183 10.0016 4.29023 9.84706L4.29023 10.8113C4.29023 11.1822 3.99121 11.4812 3.62031 11.4812C3.25293 11.4812 2.94414 11.1787 2.94414 10.8113L2.94414 9.39179C1.68203 8.88945 0.684375 8.22558 0 7.41621L0 8.53652C0 12.7416 3.78398 14.557 10.0576 14.557Z" fill="white" fill-opacity="0.25"/>
 </g>
</svg>
