<?xml version="1.0" encoding="UTF-8"?>
<!--Generator: Apple Native CoreSVG 341-->
<!DOCTYPE svg
PUBLIC "-//W3C//DTD SVG 1.1//EN"
       "http://www.w3.org/Graphics/SVG/1.1/DTD/svg11.dtd">
<svg version="1.1" xmlns="http://www.w3.org/2000/svg" xmlns:xlink="http://www.w3.org/1999/xlink" viewBox="0 0 20.4748 27.5707">
 <g>
  <rect height="27.5707" opacity="0" width="20.4748" x="0" y="0"/>
  <path d="M20.1135 14.6853L20.1135 18.6574C20.1135 22.8642 16.3215 24.6779 10.0576 24.6779C3.78398 24.6779 0 22.8642 0 18.6574L2.06912e-08 14.6853C0 12.4636 2.22028 10.8303 5.88236 10.1477L7.34885 11.8069C3.9941 12.1722 1.91327 13.2402 1.91327 14.6853C1.91327 16.4885 5.15272 17.7125 10.0576 17.7125C14.9625 17.7125 18.2002 16.4885 18.2002 14.6853C18.2002 13.2389 16.1168 12.1703 12.7574 11.8058L14.2258 10.147C17.8883 10.8293 20.1135 12.4629 20.1135 14.6853ZM16.6449 18.5614L16.6449 19.815C16.6449 20.1842 16.3361 20.493 15.967 20.493C15.5979 20.493 15.2988 20.1859 15.2988 19.815L15.2988 18.9875C14.8217 19.1173 14.3069 19.2245 13.7559 19.3066L13.7559 20.451C13.7559 20.8219 13.4568 21.1289 13.0859 21.1289C12.715 21.1289 12.4062 20.8219 12.4062 20.451L12.4062 19.4781C11.8428 19.5336 11.2501 19.5667 10.6279 19.5739L10.6279 20.6961C10.6279 21.067 10.3289 21.3642 9.958 21.3642C9.58886 21.3642 9.28183 21.067 9.28183 20.6961L9.28183 19.5698C8.66144 19.5572 8.07026 19.5193 7.51151 19.457L7.51151 20.451C7.51151 20.8219 7.20272 21.1289 6.83182 21.1289C6.46093 21.1289 6.1619 20.8219 6.1619 20.451L6.1619 19.2759C5.60987 19.1863 5.09391 19.0723 4.61893 18.934L4.61893 19.815C4.61893 20.1859 4.3199 20.493 3.94901 20.493C3.58162 20.493 3.27284 20.1842 3.27284 19.815L3.27284 18.4792C2.75776 18.2727 2.30222 18.0354 1.91327 17.7688L1.91327 18.6574C1.91327 21.6363 4.9953 22.7646 10.0576 22.7646C15.1199 22.7646 18.2002 21.6363 18.2002 18.6574L18.2002 17.7676C17.7595 18.0684 17.2362 18.3329 16.6449 18.5614Z" fill="white" fill-opacity="0.25"/>
  <path d="M9.11152 2.33144L9.11152 9.11172C9.11152 9.66758 9.52382 10.0641 10.0656 10.0641C10.5896 10.0641 11.0117 9.66758 11.0117 9.11172L11.0117 2.33144C11.0117 1.78535 10.5896 1.38711 10.0656 1.38711C9.52382 1.38711 9.11152 1.78535 9.11152 2.33144ZM12.7599 7.49863L7.34023 7.49863C6.49726 7.49863 6.13789 8.34687 6.69336 8.98398L9.4205 12.058C9.78788 12.484 10.3096 12.484 10.6832 12.058L13.4058 8.98398C13.9551 8.36738 13.6357 7.49863 12.7599 7.49863Z" fill="white" fill-opacity="0.25"/>
 </g>
</svg>
