<?xml version="1.0" encoding="UTF-8"?>
<!--Generator: Apple Native CoreSVG 341-->
<!DOCTYPE svg
PUBLIC "-//W3C//DTD SVG 1.1//EN"
       "http://www.w3.org/Graphics/SVG/1.1/DTD/svg11.dtd">
<svg version="1.1" xmlns="http://www.w3.org/2000/svg" xmlns:xlink="http://www.w3.org/1999/xlink" viewBox="0 0 20.4748 27.5707">
 <g>
  <rect height="27.5707" opacity="0" width="20.4748" x="0" y="0"/>
  <path d="M20.1135 18.6574C20.1135 22.8642 16.3215 24.6779 10.0576 24.6779C3.78398 24.6779 0 22.8642 0 18.6574L0 17.5389C0.684375 18.3482 1.68203 19.0121 2.94414 19.5144L2.94414 20.934C2.94414 21.3013 3.25293 21.6021 3.62031 21.6021C3.99121 21.6021 4.29023 21.3031 4.29023 20.934L4.29023 19.9697C4.83183 20.1224 5.39648 20.2476 5.99843 20.3453L5.99843 21.5699C5.99843 21.9408 6.29746 22.2398 6.6666 22.2398C7.03749 22.2398 7.34628 21.9408 7.34628 21.5699L7.34628 20.5361C7.97402 20.601 8.6373 20.648 9.28183 20.6578L9.28183 21.807C9.28183 22.1762 9.58886 22.4814 9.958 22.4814C10.3289 22.4814 10.6279 22.1762 10.6279 21.807L10.6279 20.6658C11.2404 20.656 11.942 20.609 12.5697 20.5521L12.5697 21.5699C12.5697 21.9408 12.8803 22.2398 13.2494 22.2398C13.6203 22.2398 13.9193 21.9408 13.9193 21.5699L13.9193 20.3773C14.4732 20.2877 15.0682 20.1722 15.6275 20.0275L15.6275 20.934C15.6275 21.3031 15.9266 21.6021 16.2957 21.6021C16.6648 21.6021 16.9736 21.3013 16.9736 20.934L16.9736 19.5883C18.3256 19.0762 19.389 18.3883 20.1135 17.5389ZM19.7682 14.6853C19.7682 17.4156 15.9433 19.24 10.0576 19.24C4.17011 19.24 0.345309 17.4156 0.345309 14.6853C0.345309 12.6212 2.53149 11.0748 6.1449 10.4447L8.38574 12.9801C9.29179 14.0166 10.8039 14.0246 11.718 12.9801L13.9631 10.4438C17.5795 11.073 19.7682 12.62 19.7682 14.6853Z" fill="white" fill-opacity="0.25"/>
  <path d="M9.11152 2.33144L9.11152 9.11172C9.11152 9.66758 9.52382 10.0641 10.0656 10.0641C10.5896 10.0641 11.0117 9.66758 11.0117 9.11172L11.0117 2.33144C11.0117 1.78535 10.5896 1.38711 10.0656 1.38711C9.52382 1.38711 9.11152 1.78535 9.11152 2.33144ZM12.7599 7.49863L7.34023 7.49863C6.49726 7.49863 6.13789 8.34687 6.69336 8.98398L9.4205 12.058C9.78788 12.484 10.3096 12.484 10.6832 12.058L13.4058 8.98398C13.9551 8.36738 13.6357 7.49863 12.7599 7.49863Z" fill="white" fill-opacity="0.25"/>
 </g>
</svg>
