<?xml version="1.0" encoding="UTF-8"?>
<!--Generator: Apple Native CoreSVG 341-->
<!DOCTYPE svg
PUBLIC "-//W3C//DTD SVG 1.1//EN"
       "http://www.w3.org/Graphics/SVG/1.1/DTD/svg11.dtd">
<svg version="1.1" xmlns="http://www.w3.org/2000/svg" xmlns:xlink="http://www.w3.org/1999/xlink" viewBox="0 0 22.7698 20.125">
 <g>
  <rect height="20.125" opacity="0" width="22.7698" x="0" y="0"/>
  <path d="M13.2997 10.0576C13.2997 15.9433 15.1241 19.7682 17.8544 19.7682C20.5847 19.7682 22.4091 15.9433 22.4091 10.0576C22.4091 4.17011 20.5847 0.337301 17.8544 0.337301C15.1241 0.337301 13.2997 4.17011 13.2997 10.0576ZM7.86986 10.0576C7.86986 16.3232 9.67552 20.1152 13.8904 20.1152L15.0009 20.1152C14.1595 19.389 13.4636 18.3256 12.9532 16.9736L11.6156 16.9736C11.2464 16.9736 10.9376 16.6648 10.9376 16.2974C10.9376 15.9266 11.2447 15.6275 11.6156 15.6275L12.5202 15.6275C12.3675 15.0699 12.2521 14.4732 12.1624 13.9193L10.9779 13.9193C10.6087 13.9193 10.3017 13.6203 10.3017 13.2494C10.3017 12.8803 10.6087 12.5715 10.9779 12.5715L11.9956 12.5715C11.9308 11.9437 11.8935 11.2404 11.882 10.6279L10.7345 10.6279C10.3636 10.6279 10.0663 10.3289 10.0663 9.95976C10.0663 9.58886 10.3636 9.28183 10.7345 9.28183L11.89 9.28183C11.9015 8.6373 11.9388 7.97577 12.0134 7.34804L10.9779 7.34804C10.6087 7.34804 10.3017 7.03749 10.3017 6.66835C10.3017 6.29746 10.6087 5.99843 10.9779 5.99843L12.1945 5.99843C12.2921 5.39648 12.4173 4.83359 12.5781 4.29023L11.6156 4.29023C11.2447 4.29023 10.9376 3.99121 10.9376 3.62207C10.9376 3.25293 11.2464 2.94414 11.6156 2.94414L13.0271 2.94414C13.5294 1.68203 14.2013 0.684375 15.0009 0L13.8904 0C9.67552 0 7.86986 3.78398 7.86986 10.0576Z" fill="white" fill-opacity="0.25"/>
  <path d="M3.21576 17.8635C3.75111 17.8635 4.27669 17.4088 4.02318 16.7174C3.41947 14.9584 3.09447 12.9879 3.09447 10.9234C3.09447 8.81328 3.45736 6.81738 4.07064 5.01347C4.52727 3.72754 2.85795 3.27051 2.41928 4.44179C1.7183 6.40449 1.35268 8.62714 1.35268 10.9234C1.35268 13.1687 1.72202 15.3475 2.37358 17.2891C2.51362 17.7084 2.87358 17.8635 3.21576 17.8635ZM0.566549 5.57752L5.00658 7.10272C5.75736 7.35819 6.25599 6.60487 6.04681 6.02655L4.79173 2.50136C4.60306 1.97383 4.03061 1.78847 3.53686 2.10214L0.381591 4.10917C-0.156688 4.46112-0.152196 5.33006 0.566549 5.57752Z" fill="white" fill-opacity="0.25"/>
 </g>
</svg>
