<?xml version="1.0" encoding="UTF-8"?>
<!--Generator: Apple Native CoreSVG 341-->
<!DOCTYPE svg
PUBLIC "-//W3C//DTD SVG 1.1//EN"
       "http://www.w3.org/Graphics/SVG/1.1/DTD/svg11.dtd">
<svg version="1.1" xmlns="http://www.w3.org/2000/svg" xmlns:xlink="http://www.w3.org/1999/xlink" viewBox="0 0 20.4748 22.7746">
 <g>
  <rect height="22.7746" opacity="0" width="20.4748" x="0" y="0"/>
  <path d="M10.0576 9.79198C16.132 9.79198 20.1135 7.8746 20.1135 4.89999C20.1135 1.92715 16.132 0 10.0576 0C3.97519 0 0 1.92715 0 4.89999C0 7.8746 3.97519 9.79198 10.0576 9.79198ZM10.0576 7.9209C5.15272 7.9209 1.91327 6.70488 1.91327 4.89999C1.91327 3.09687 5.15272 1.87284 10.0576 1.87284C14.9625 1.87284 18.2002 3.09687 18.2002 4.89999C18.2002 6.70488 14.9625 7.9209 10.0576 7.9209ZM10.0576 14.8863C16.3215 14.8863 20.1135 13.0789 20.1135 8.86581L20.1135 4.89999L18.2002 4.89999L18.2002 8.86581C18.2002 11.8447 15.1199 12.973 10.0576 12.973C4.9953 12.973 1.91327 11.8447 1.91327 8.86581L1.91327 4.89999L0 4.89999L0 8.86581C0 13.0789 3.78398 14.8863 10.0576 14.8863ZM4.61893 10.0297L4.61893 8.24218L3.27284 8.24218L3.27284 10.0297C3.27284 10.3988 3.58162 10.7076 3.94901 10.7076C4.3199 10.7076 4.61893 10.4006 4.61893 10.0297ZM7.51151 10.6674L7.51151 8.87636L6.1619 8.87636L6.1619 10.6674C6.1619 11.0365 6.46093 11.3435 6.83182 11.3435C7.20272 11.3435 7.51151 11.0365 7.51151 10.6674ZM10.6279 10.9125L10.6279 9.12148L9.28183 9.12148L9.28183 10.9125C9.28183 11.2816 9.58886 11.5789 9.958 11.5789C10.3289 11.5789 10.6279 11.2816 10.6279 10.9125ZM13.7559 10.6674L13.7559 8.87636L12.4062 8.87636L12.4062 10.6674C12.4062 11.0365 12.715 11.3435 13.0859 11.3435C13.4568 11.3435 13.7559 11.0365 13.7559 10.6674ZM16.6449 10.0297L16.6449 8.24218L15.2988 8.24218L15.2988 10.0297C15.2988 10.4006 15.5979 10.7076 15.967 10.7076C16.3361 10.7076 16.6449 10.3988 16.6449 10.0297Z" fill="white" fill-opacity="0.25"/>
  <path d="M17.8635 19.5386C17.8635 19.0051 17.4088 18.4777 16.7174 18.733C14.9584 19.3349 12.9879 19.6599 10.9234 19.6599C8.81328 19.6599 6.81738 19.2988 5.02148 18.6855C3.72754 18.2271 3.27051 19.8965 4.44179 20.3351C6.40449 21.0379 8.62714 21.4035 10.9234 21.4035C13.167 21.4035 15.3457 21.0324 17.2891 20.3808C17.7084 20.2408 17.8635 19.8808 17.8635 19.5386ZM5.57752 22.1879L7.10272 17.7478C7.35819 16.9971 6.60487 16.5002 6.0248 16.7094L2.50136 17.9644C1.97383 18.1531 1.78672 18.7256 2.10214 19.2193L4.10917 22.3728C4.46112 22.9111 5.33006 22.9066 5.57752 22.1879Z" fill="white" fill-opacity="0.25"/>
 </g>
</svg>
