<?xml version="1.0" encoding="UTF-8"?>
<!--Generator: Apple Native CoreSVG 341-->
<!DOCTYPE svg
PUBLIC "-//W3C//DTD SVG 1.1//EN"
       "http://www.w3.org/Graphics/SVG/1.1/DTD/svg11.dtd">
<svg version="1.1" xmlns="http://www.w3.org/2000/svg" xmlns:xlink="http://www.w3.org/1999/xlink" viewBox="0 0 25.6939 20.125">
 <g>
  <rect height="20.125" opacity="0" width="25.6939" x="0" y="0"/>
  <path d="M6.17323 2.94414L4.76171 2.94414C4.39433 2.94414 4.09179 3.25293 4.09179 3.62207C4.09179 3.99121 4.39081 4.29023 4.76171 4.29023L5.72421 4.29023C5.57148 4.83359 5.44804 5.39648 5.35038 5.99843L4.12577 5.99843C3.75487 5.99843 3.45585 6.29746 3.45585 6.66835C3.45585 7.03749 3.75487 7.34804 4.12577 7.34804L5.15956 7.34804C5.09472 7.97577 5.04765 8.6373 5.03788 9.28183L3.88866 9.28183C3.51776 9.28183 3.21249 9.58886 3.21249 9.95976C3.21249 10.3289 3.51776 10.6279 3.88866 10.6279L5.02987 10.6279C5.03964 11.2404 5.08671 11.9437 5.14355 12.5715L4.12577 12.5715C3.75487 12.5715 3.45585 12.8803 3.45585 13.2494C3.45585 13.6203 3.75487 13.9193 4.12577 13.9193L5.31659 13.9193C5.408 14.4732 5.52343 15.0699 5.66816 15.6275L4.76171 15.6275C4.39081 15.6275 4.09179 15.9266 4.09179 16.2974C4.09179 16.6648 4.39433 16.9736 4.76171 16.9736L6.0994 16.9736C6.61776 18.3256 7.30741 19.389 8.15682 20.1152L7.03651 20.1152C2.83144 20.1152 1.01601 16.3232 1.01601 10.0576C1.01601 3.78398 2.83144 0 7.03651 0L8.15682 0C7.34745 0.684375 6.68358 1.68203 6.17323 2.94414ZM15.2509 6.14494L12.7156 8.38574C11.6791 9.29179 11.6711 10.8039 12.7156 11.718L15.2515 13.964C14.6217 17.5799 13.0742 19.7682 11.0103 19.7682C8.28007 19.7682 6.45565 15.9433 6.45565 10.0576C6.45565 4.17011 8.28007 0.337301 11.0103 0.337301C13.0734 0.337301 14.6206 2.52855 15.2509 6.14494Z" fill="white" fill-opacity="0.25"/>
  <path d="M23.3625 9.11152L16.6943 9.11152C16.1402 9.11152 15.742 9.52558 15.742 10.0656C15.742 10.5896 16.1402 11.0117 16.6943 11.0117L23.3625 11.0117C23.9103 11.0117 24.3068 10.5896 24.3068 10.0656C24.3068 9.52558 23.9103 9.11152 23.3625 9.11152ZM18.197 12.7599L18.197 7.34023C18.197 6.49726 17.339 6.13789 16.7117 6.69336L13.6359 9.4205C13.2117 9.78788 13.2117 10.3096 13.6359 10.6832L16.7117 13.4058C17.3185 13.9551 18.197 13.6357 18.197 12.7599Z" fill="white" fill-opacity="0.25"/>
 </g>
</svg>
