<?xml version="1.0" encoding="UTF-8"?>
<!--Generator: Apple Native CoreSVG 341-->
<!DOCTYPE svg
PUBLIC "-//W3C//DTD SVG 1.1//EN"
       "http://www.w3.org/Graphics/SVG/1.1/DTD/svg11.dtd">
<svg version="1.1" xmlns="http://www.w3.org/2000/svg" xmlns:xlink="http://www.w3.org/1999/xlink" viewBox="0 0 23.1151 20.125">
 <g>
  <rect height="20.125" opacity="0" width="23.1151" x="0" y="0"/>
  <path d="M12.9624 10.0576C12.9624 16.132 14.8816 20.1152 17.8544 20.1152C20.8273 20.1152 22.7544 16.132 22.7544 10.0576C22.7544 3.97519 20.8273 0 17.8544 0C14.8816 0 12.9624 3.97519 12.9624 10.0576ZM14.8353 10.0576C14.8353 5.15272 16.0513 1.91327 17.8544 1.91327C19.6593 1.91327 20.8816 5.15272 20.8816 10.0576C20.8816 14.9545 19.6593 18.2002 17.8544 18.2002C16.0513 18.2002 14.8353 14.9545 14.8353 10.0576ZM7.86986 10.0576C7.86986 16.3232 9.67552 20.1152 13.8904 20.1152L17.8544 20.1152L17.8544 18.2002L13.8904 18.2002C10.9114 18.2002 9.78312 15.1199 9.78312 10.0576C9.78312 4.9953 10.9114 1.91327 13.8904 1.91327L17.8544 1.91327L17.8544 0L13.8904 0C9.67552 0 7.86986 3.78398 7.86986 10.0576ZM12.7247 4.61893L14.514 4.61893L14.514 3.27284L12.7247 3.27284C12.3556 3.27284 12.0468 3.58162 12.0468 3.95076C12.0468 4.3199 12.3538 4.61893 12.7247 4.61893ZM12.0888 7.51151L13.8798 7.51151L13.8798 6.1619L12.0888 6.1619C11.7179 6.1619 11.4109 6.46093 11.4109 6.83182C11.4109 7.20272 11.7179 7.51151 12.0888 7.51151ZM11.8437 10.6279L13.6347 10.6279L13.6347 9.28183L11.8437 9.28183C11.4728 9.28183 11.1755 9.58886 11.1755 9.95976C11.1755 10.3289 11.4728 10.6279 11.8437 10.6279ZM12.0888 13.7559L13.8798 13.7559L13.8798 12.4062L12.0888 12.4062C11.7179 12.4062 11.4109 12.715 11.4109 13.0859C11.4109 13.4568 11.7179 13.7559 12.0888 13.7559ZM12.7247 16.6449L14.514 16.6449L14.514 15.2988L12.7247 15.2988C12.3538 15.2988 12.0468 15.5979 12.0468 15.9688C12.0468 16.3361 12.3556 16.6449 12.7247 16.6449Z" fill="white" fill-opacity="0.25"/>
  <path d="M3.21576 17.8635C3.75111 17.8635 4.27669 17.4088 4.02318 16.7174C3.41947 14.9584 3.09447 12.9879 3.09447 10.9234C3.09447 8.81328 3.45736 6.81738 4.07064 5.01347C4.52727 3.72754 2.85795 3.27051 2.41928 4.44179C1.7183 6.40449 1.35268 8.62714 1.35268 10.9234C1.35268 13.1687 1.72202 15.3475 2.37358 17.2891C2.51362 17.7084 2.87358 17.8635 3.21576 17.8635ZM0.566549 5.57752L5.00658 7.10272C5.75736 7.35819 6.25599 6.60487 6.04681 6.02655L4.79173 2.50136C4.60306 1.97383 4.03061 1.78847 3.53686 2.10214L0.381591 4.10917C-0.156688 4.46112-0.152196 5.33006 0.566549 5.57752Z" fill="white" fill-opacity="0.25"/>
 </g>
</svg>
