<?xml version="1.0" encoding="UTF-8"?>
<!--Generator: Apple Native CoreSVG 341-->
<!DOCTYPE svg
PUBLIC "-//W3C//DTD SVG 1.1//EN"
       "http://www.w3.org/Graphics/SVG/1.1/DTD/svg11.dtd">
<svg version="1.1" xmlns="http://www.w3.org/2000/svg" xmlns:xlink="http://www.w3.org/1999/xlink" viewBox="0 0 20.257 19.5379">
 <g>
  <rect height="19.5379" opacity="0" width="20.257" x="0" y="0"/>
  <path d="M4.44628 8.20643C6.81581 8.22772 8.84725 6.3623 8.84022 4.08769C8.83143 1.84062 6.81054 0 4.44628 0C2.37304 0 1.0207 1.23906 0.312304 2.27383C0.0984371 2.60215 0 2.97207 0 3.37753L0 4.83242C0 5.23085 0.104687 5.59726 0.310546 5.92909C0.978317 6.95331 2.36601 8.17889 4.44628 8.20643ZM1.92324 5.72753C1.66152 5.72753 1.4539 5.51816 1.4539 5.24667L1.4539 2.95175C1.4539 2.68027 1.66152 2.4709 1.92324 2.4709C2.20273 2.4709 2.40409 2.68027 2.40409 2.95175L2.40409 5.24667C2.40409 5.51816 2.20273 5.72753 1.92324 5.72753ZM5.91894 15.7767L6.75956 15.7767C7.4203 15.7767 7.83534 15.4328 7.83534 14.7906L7.83534 8.11092C6.99179 8.7576 5.95566 9.16053 4.85117 9.22108L4.85117 14.7906C4.85117 15.4328 5.27773 15.7767 5.91894 15.7767ZM5.78281 19.5121L6.89569 19.5121L6.89569 14.6974L5.78281 14.6974ZM15.4512 8.20643C17.5297 8.17889 18.9191 6.95331 19.5851 5.92909C19.7928 5.59726 19.8957 5.23085 19.8957 4.83242L19.8957 3.37753C19.8957 2.97207 19.799 2.60215 19.5834 2.27383C18.875 1.23906 17.5244 0 15.4512 0C13.0851 0 11.0642 1.84062 11.0555 4.08769C11.0502 6.3623 13.0816 8.22772 15.4512 8.20643ZM17.9644 5.72753C17.693 5.72753 17.4916 5.51816 17.4916 5.24667L17.4916 2.95175C17.4916 2.68027 17.693 2.4709 17.9644 2.4709C18.2342 2.4709 18.4435 2.68027 18.4435 2.95175L18.4435 5.24667C18.4435 5.51816 18.2342 5.72753 17.9644 5.72753ZM13.1361 15.7767L13.9785 15.7767C14.618 15.7767 15.0463 15.4328 15.0463 14.7906L15.0463 9.22108C13.94 9.16053 12.9057 8.7576 12.0603 8.11092L12.0603 14.7906C12.0603 15.4328 12.4771 15.7767 13.1361 15.7767ZM14.1146 19.5121L14.1146 14.6974L13 14.6974L13 19.5121Z" fill="white" fill-opacity="0.25"/>
 </g>
</svg>
