<?xml version="1.0" encoding="UTF-8"?>
<!--Generator: Apple Native CoreSVG 341-->
<!DOCTYPE svg
PUBLIC "-//W3C//DTD SVG 1.1//EN"
       "http://www.w3.org/Graphics/SVG/1.1/DTD/svg11.dtd">
<svg version="1.1" xmlns="http://www.w3.org/2000/svg" xmlns:xlink="http://www.w3.org/1999/xlink" viewBox="0 0 23.459 20.8304">
 <g>
  <rect height="20.8304" opacity="0" width="23.459" x="0" y="0"/>
  <path d="M23.0976 9.64061C23.0976 15.2224 18.2355 19.2847 11.5439 19.2847C9.34277 19.2847 7.35351 18.8826 5.64296 18.1058C4.61249 18.8471 3.21621 19.2847 1.84746 19.2847C1.13437 19.2847 0.86836 18.7359 1.35176 18.2996C1.94297 17.7527 2.17656 17.2599 2.17656 16.5017C2.17656 14.7642 0 13.6709 0 9.64061C0 4.04375 4.86914 0 11.5439 0C18.2187 0 23.0976 4.04375 23.0976 9.64061ZM14.8244 9.67265C14.8244 10.5183 15.5086 11.2043 16.3543 11.2043C17.192 11.2043 17.8859 10.5183 17.8859 9.67265C17.8859 8.82694 17.192 8.14277 16.3543 8.14277C15.5086 8.14277 14.8244 8.82694 14.8244 9.67265ZM10.0621 9.67265C10.0621 10.5183 10.7463 11.2043 11.592 11.2043C12.4297 11.2043 13.1156 10.5183 13.1156 9.67265C13.1156 8.82694 12.4297 8.14277 11.592 8.14277C10.7463 8.14277 10.0621 8.82694 10.0621 9.67265ZM5.29003 9.67265C5.29003 10.5183 5.98398 11.2043 6.82167 11.2043C7.66737 11.2043 8.35331 10.5183 8.35331 9.67265C8.35331 8.82694 7.65937 8.14277 6.82167 8.14277C5.98398 8.14277 5.29003 8.82694 5.29003 9.67265Z" fill="white" fill-opacity="0.25"/>
 </g>
</svg>
