<?xml version="1.0" encoding="UTF-8"?>
<!--Generator: Apple Native CoreSVG 341-->
<!DOCTYPE svg
PUBLIC "-//W3C//DTD SVG 1.1//EN"
       "http://www.w3.org/Graphics/SVG/1.1/DTD/svg11.dtd">
<svg version="1.1" xmlns="http://www.w3.org/2000/svg" xmlns:xlink="http://www.w3.org/1999/xlink" viewBox="0 0 23.5648 20.9441">
 <g>
  <rect height="20.9441" opacity="0" width="23.5648" x="0" y="0"/>
  <path d="M11.6 19.4707C18.2996 19.4707 23.2035 15.3683 23.2035 9.7287C23.2035 4.06777 18.2828 0 11.6 0C4.90918 0 0 4.06777 0 9.7287C0 11.7183 0.586326 13.3701 1.47988 14.7066C1.93535 15.4025 2.13652 15.9074 2.13652 16.3781C2.13652 16.9308 1.975 17.3508 1.49941 17.7748C0.738476 18.4308 1.14238 19.4707 2.1668 19.4707C3.42968 19.4707 4.80996 19.049 5.83867 18.3416C7.51718 19.0765 9.47265 19.4707 11.6 19.4707ZM11.6 17.5768C9.74882 17.5768 8.09296 17.2305 6.68573 16.6045C6.02733 16.3135 5.53944 16.3828 4.93144 16.7186C4.57479 16.9418 4.16385 17.1295 3.72381 17.2352C3.89374 16.918 4.00585 16.5906 4.00585 16.1637C4.00585 15.4305 3.71053 14.6236 3.08729 13.6896C2.31483 12.5726 1.89217 11.2133 1.89217 9.7287C1.89217 5.20487 5.89296 1.89217 11.6 1.89217C17.3123 1.89217 21.3096 5.20663 21.3096 9.7287C21.3096 14.2525 17.3123 17.5768 11.6 17.5768Z" fill="white" fill-opacity="0.25"/>
  <path d="M16.1771 11.1894C16.9848 11.1894 17.6441 10.5301 17.6441 9.72069C17.6441 8.91308 16.9848 8.2537 16.1771 8.2537C15.3678 8.2537 14.7084 8.91308 14.7084 9.72069C14.7084 10.5301 15.3678 11.1894 16.1771 11.1894Z" fill="white" fill-opacity="0.25"/>
  <path d="M11.6 11.1894C12.4014 11.1894 13.059 10.5301 13.059 9.72069C13.059 8.91308 12.4014 8.2537 11.6 8.2537C10.7906 8.2537 10.133 8.91308 10.133 9.72069C10.133 10.5301 10.7906 11.1894 11.6 11.1894Z" fill="white" fill-opacity="0.25"/>
  <path d="M7.01659 11.1894C7.82597 11.1894 8.48358 10.5301 8.48358 9.72069C8.48358 8.91308 7.81796 8.2537 7.01659 8.2537C6.20722 8.2537 5.5496 8.91308 5.5496 9.72069C5.5496 10.5301 6.20722 11.1894 7.01659 11.1894Z" fill="white" fill-opacity="0.25"/>
 </g>
</svg>
