<?xml version="1.0" encoding="UTF-8"?>
<!--Generator: Apple Native CoreSVG 341-->
<!DOCTYPE svg
PUBLIC "-//W3C//DTD SVG 1.1//EN"
       "http://www.w3.org/Graphics/SVG/1.1/DTD/svg11.dtd">
<svg version="1.1" xmlns="http://www.w3.org/2000/svg" xmlns:xlink="http://www.w3.org/1999/xlink" viewBox="0 0 32.9636 28.5771">
 <g>
  <rect height="28.5771" opacity="0" width="32.9636" x="0" y="0"/>
  <path d="M14.4101 1.68718C14.7599 4.00925 15.0449 4.42292 17.4583 4.7612C17.682 4.7905 17.8595 4.95554 17.8595 5.17741C17.8595 5.38952 17.698 5.55905 17.4583 5.60788C15.4126 5.87955 14.9759 6.20413 14.6097 7.73736L11.4778 4.59343C12.9942 4.25282 13.1783 3.65975 13.5652 1.68542C13.6078 1.46354 13.7773 1.31354 13.9876 1.31354C14.19 1.31354 14.3693 1.46354 14.4101 1.68718Z" fill="white" fill-opacity="0.25"/>
  <path d="M10.4462 9.80436L14.5301 14.5555L13.3357 15.9816L9.098 11.0465C8.92417 10.8532 8.72456 10.8532 8.5605 11.0465L2.45775 18.1514C2.30248 18.336 2.39291 18.6343 2.67963 18.6343L11.114 18.6343L10.2097 19.7139C10.0038 19.9592 9.85644 20.2131 9.76589 20.4649L1.70737 20.4649C0.109916 20.4649-0.522892 18.8042 0.488629 17.6266L7.21051 9.80436C7.72828 9.20945 8.23882 8.91707 8.82925 8.91707C9.41792 8.91707 9.93022 9.20945 10.4462 9.80436Z" fill="white" fill-opacity="0.25"/>
  <path d="M16.416 15.1539L12.0501 20.3675C11.8806 20.5698 11.9693 20.9223 12.3138 20.9223L22.1665 20.9223L23.9915 22.753L11.5222 22.753C9.74565 22.753 9.04995 21.0956 10.2097 19.7139L15.1188 13.8526ZM22.7904 8.69616L32.0152 19.7139C33.1749 21.0956 32.481 22.753 30.7107 22.753L29.5681 22.753L27.7444 20.9223L29.9111 20.9223C30.2539 20.9223 30.3443 20.5698 30.173 20.3675L21.4244 9.90104C21.2255 9.68092 21.0029 9.68268 20.8103 9.90631L18.9653 12.1096L17.6687 10.8081L19.4345 8.69968C19.9523 8.08972 20.5126 7.76882 21.1208 7.76882C21.7238 7.76882 22.2859 8.08972 22.7904 8.69616Z" fill="white" fill-opacity="0.25"/>
  <path d="M30.0701 27.154C30.3753 27.4575 30.8714 27.454 31.1697 27.154C31.4669 26.8407 31.4732 26.3596 31.1697 26.0596L7.23648 2.02859C6.9312 1.72508 6.42886 1.72508 6.1271 2.02508C5.8271 2.32683 5.8271 2.83269 6.1271 3.12468Z" fill="white" fill-opacity="0.25"/>
 </g>
</svg>
