<?xml version="1.0" encoding="UTF-8"?>
<!--Generator: Apple Native CoreSVG 341-->
<!DOCTYPE svg
PUBLIC "-//W3C//DTD SVG 1.1//EN"
       "http://www.w3.org/Graphics/SVG/1.1/DTD/svg11.dtd">
<svg version="1.1" xmlns="http://www.w3.org/2000/svg" xmlns:xlink="http://www.w3.org/1999/xlink" viewBox="0 0 20.5381 20.1848">
 <g>
  <rect height="20.1848" opacity="0" width="20.5381" x="0" y="0"/>
  <path d="M20.1767 10.0875C20.1767 15.6559 15.6576 20.175 10.0875 20.175C4.51914 20.175 0 15.6559 0 10.0875C0 4.51914 4.51914 0 10.0875 0C15.6576 0 20.1767 4.51914 20.1767 10.0875ZM1.9871 10.0875C1.9871 14.5666 5.60839 18.1879 10.0875 18.1879C14.5666 18.1879 18.1897 14.5666 18.1897 10.0875C18.1897 5.60839 14.5666 1.9871 10.0875 1.9871C5.60839 1.9871 1.9871 5.60839 1.9871 10.0875Z" fill="white" fill-opacity="0.25"/>
  <path d="M11.7939 13.4648L7.94042 13.4648C7.19687 13.4648 6.90214 12.7729 7.39394 12.1977L8.82376 10.4947ZM12.698 7.52577L16.6016 12.1977C17.0871 12.7729 16.8164 13.4648 16.0711 13.4648L15.1499 13.4648L10.3534 8.67279L11.3135 7.52929C11.5201 7.28183 11.7543 7.14081 12.0018 7.14081C12.2492 7.14081 12.4852 7.28183 12.698 7.52577ZM8.37565 10.0465L6.91015 11.792C6.71952 12.0154 6.60058 12.2672 6.57382 12.5057L3.81014 12.5057C3.13632 12.5057 2.88007 11.8072 3.30526 11.3217L6.14179 7.99472C6.17061 7.96018 6.1995 7.92838 6.22852 7.89941ZM9.17245 4.57128C9.33945 5.54296 9.4371 5.71347 10.4576 5.84843C10.5615 5.85819 10.6396 5.94433 10.6396 6.04823C10.6396 6.13612 10.5695 6.20448 10.4576 6.23378C9.4396 6.36562 9.3718 6.52617 9.1784 7.49889L8.71879 7.0397C8.61511 6.59822 8.4509 6.42214 7.99358 6.31517L7.52443 5.84646C8.53921 5.71188 8.61575 5.54619 8.80312 4.56151C8.82265 4.46737 8.89902 4.39901 8.99667 4.39901C9.08456 4.39901 9.15116 4.46737 9.17245 4.57128Z" fill="white" fill-opacity="0.25"/>
  <path d="M14.065 14.7355C14.2486 14.9174 14.568 14.9271 14.7516 14.7355C14.9449 14.5439 14.9449 14.2406 14.7516 14.0473L6.14549 5.43319C5.94413 5.23983 5.63905 5.23983 5.44745 5.43319C5.25409 5.62479 5.25409 5.93612 5.44745 6.11971Z" fill="white" fill-opacity="0.25"/>
 </g>
</svg>
