<?xml version="1.0" encoding="UTF-8"?>
<!--Generator: Apple Native CoreSVG 341-->
<!DOCTYPE svg
PUBLIC "-//W3C//DTD SVG 1.1//EN"
       "http://www.w3.org/Graphics/SVG/1.1/DTD/svg11.dtd">
<svg version="1.1" xmlns="http://www.w3.org/2000/svg" xmlns:xlink="http://www.w3.org/1999/xlink" viewBox="0 0 20.5381 20.1848">
 <g>
  <rect height="20.1848" opacity="0" width="20.5381" x="0" y="0"/>
  <path d="M10.0875 20.175C15.6576 20.175 20.1767 15.6559 20.1767 10.0875C20.1767 4.51914 15.6576 0 10.0875 0C4.51914 0 0 4.51914 0 10.0875C0 15.6559 4.51914 20.175 10.0875 20.175ZM10.0875 18.1879C5.60839 18.1879 1.9871 14.5666 1.9871 10.0875C1.9871 5.60839 5.60839 1.9871 10.0875 1.9871C14.5666 1.9871 18.1897 5.60839 18.1897 10.0875C18.1897 14.5666 14.5666 18.1879 10.0875 18.1879Z" fill="white" fill-opacity="0.25"/>
  <path d="M8.99667 7.68144C9.08456 7.68144 9.15116 7.6246 9.17245 7.52871C9.3705 6.52948 9.42909 6.36698 10.4576 6.23378C10.5695 6.20448 10.6396 6.13612 10.6396 6.04823C10.6396 5.94433 10.5615 5.85819 10.4576 5.84843C9.4371 5.71347 9.33945 5.54296 9.17245 4.57128C9.15116 4.46737 9.08456 4.39901 8.99667 4.39901C8.89902 4.39901 8.82265 4.46737 8.80312 4.56151C8.61484 5.55097 8.53847 5.71347 7.50995 5.84843C7.42206 5.85819 7.33944 5.94433 7.33944 6.04823C7.33944 6.13612 7.42206 6.20624 7.50995 6.23378C8.54648 6.36698 8.66191 6.52948 8.80312 7.5207C8.82265 7.6166 8.89101 7.68144 8.99667 7.68144ZM7.94042 13.4648L16.0711 13.4648C16.8164 13.4648 17.0871 12.7729 16.6016 12.1977L12.698 7.52577C12.4852 7.28183 12.2492 7.14081 12.0018 7.14081C11.7543 7.14081 11.5201 7.28183 11.3135 7.52929L7.39394 12.1977C6.90214 12.7729 7.19687 13.4648 7.94042 13.4648ZM6.91015 11.792L8.80683 9.53301L7.47655 7.99472C7.26815 7.73749 7.06151 7.63203 6.8203 7.63203C6.5746 7.63203 6.35644 7.73749 6.14179 7.99472L3.30526 11.3217C2.88007 11.8072 3.13632 12.5057 3.81014 12.5057L6.57382 12.5057C6.60058 12.2672 6.71952 12.0154 6.91015 11.792Z" fill="white" fill-opacity="0.25"/>
 </g>
</svg>
