<?xml version="1.0" encoding="UTF-8"?>
<!--Generator: Apple Native CoreSVG 341-->
<!DOCTYPE svg
PUBLIC "-//W3C//DTD SVG 1.1//EN"
       "http://www.w3.org/Graphics/SVG/1.1/DTD/svg11.dtd">
<svg version="1.1" xmlns="http://www.w3.org/2000/svg" xmlns:xlink="http://www.w3.org/1999/xlink" viewBox="0 0 20.5381 20.1848">
 <g>
  <rect height="20.1848" opacity="0" width="20.5381" x="0" y="0"/>
  <path d="M20.1767 10.0973C20.1767 15.6656 15.6576 20.1848 10.0875 20.1848C4.52715 20.1848 0 15.6656 0 10.0973C0 4.53691 4.52715 0.00976562 10.0875 0.00976562C15.6576 0.00976562 20.1767 4.53691 20.1767 10.0973ZM5.2498 5.26308C5.05644 5.45819 5.06269 5.78632 5.2498 5.98143L14.2148 14.935C14.4002 15.1283 14.7363 15.1283 14.9332 14.935C15.1266 14.7301 15.1283 14.4215 14.9332 14.2166L5.97968 5.26308C5.7828 5.05819 5.45468 5.05995 5.2498 5.26308ZM7.29999 12.3307C6.7914 12.9307 7.09941 13.6607 7.87128 13.6607L11.9103 13.6607L8.79446 10.5477ZM11.3578 7.48945L10.3889 8.64538L15.4043 13.6607L16.3033 13.6607C17.0787 13.6607 17.3609 12.9307 16.8621 12.3307L12.8088 7.48769C12.5924 7.23847 12.3449 7.07617 12.0922 7.07617C11.8234 7.07617 11.576 7.23847 11.3578 7.48945ZM5.99296 7.9664L3.04472 11.4236C2.60448 11.9225 2.87226 12.6572 3.5744 12.6572L6.44179 12.6572C6.47656 12.4037 6.58925 12.1369 6.80116 11.902L8.32567 10.0793L6.09823 7.85384C6.06274 7.88757 6.02768 7.92519 5.99296 7.9664ZM8.75878 4.40468C8.5683 5.42203 8.49302 5.60504 7.47678 5.73323L7.98545 6.2419C8.38491 6.35046 8.54963 6.52408 8.65314 6.90959L9.16249 7.41894C9.35316 6.44471 9.44221 6.27747 10.4709 6.13808C10.5926 6.11503 10.6627 6.04843 10.6627 5.95878C10.6627 5.84511 10.5926 5.75722 10.4709 5.73945C9.41581 5.61073 9.31464 5.43046 9.14765 4.41444C9.12636 4.30253 9.04999 4.23417 8.96835 4.23417C8.85644 4.23417 8.78456 4.30253 8.75878 4.40468Z" fill="white" fill-opacity="0.25"/>
 </g>
</svg>
