<?xml version="1.0" encoding="UTF-8"?>
<!--Generator: Apple Native CoreSVG 341-->
<!DOCTYPE svg
PUBLIC "-//W3C//DTD SVG 1.1//EN"
       "http://www.w3.org/Graphics/SVG/1.1/DTD/svg11.dtd">
<svg version="1.1" xmlns="http://www.w3.org/2000/svg" xmlns:xlink="http://www.w3.org/1999/xlink" viewBox="0 0 34.9308 28.5831">
 <g>
  <rect height="28.5831" opacity="0" width="34.9308" x="0" y="0"/>
  <path d="M15.328 1.6902C15.6841 4.01227 15.969 4.42595 18.3825 4.76423C18.6061 4.79352 18.7837 4.95856 18.7837 5.18044C18.7837 5.39255 18.6141 5.56208 18.3825 5.61091C16.3397 5.88219 15.8955 6.20623 15.529 7.73372L12.4034 4.59618C13.9182 4.25552 14.0976 3.66224 14.4911 1.68844C14.5319 1.46657 14.7015 1.31657 14.9118 1.31657C15.1159 1.31657 15.2952 1.46657 15.328 1.6902Z" fill="white" fill-opacity="0.25"/>
  <path d="M11.3721 9.80739L14.5112 13.4603L10.0417 18.7978C9.59404 19.3316 9.32209 19.9036 9.21217 20.4679L2.63153 20.4679C1.03408 20.4679 0.403025 18.8072 1.40478 17.6297L8.13466 9.80739C8.64443 9.21247 9.16474 8.92009 9.7454 8.92009C10.3341 8.92009 10.8544 9.21247 11.3721 9.80739Z" fill="white" fill-opacity="0.25"/>
  <path d="M24.916 22.756L12.4384 22.756C10.6698 22.756 9.9661 21.0986 11.1339 19.717L16.0439 13.8556ZM23.7163 8.69919L32.9393 19.717C34.0991 21.1066 33.4069 22.756 31.6268 22.756L30.494 22.756L18.5944 10.8109L20.3604 8.7027C20.8702 8.09274 21.4306 7.77185 22.037 7.77185C22.6399 7.77185 23.21 8.09274 23.7163 8.69919Z" fill="white" fill-opacity="0.25"/>
  <path d="M30.988 27.157C31.2932 27.4605 31.7973 27.457 32.0876 27.157C32.3929 26.8437 32.3911 26.3627 32.0876 26.0627L8.15439 2.03162C7.84911 1.7281 7.35302 1.7281 7.04501 2.0281C6.75126 2.32986 6.75126 2.83572 7.04501 3.12771Z" fill="white" fill-opacity="0.25"/>
 </g>
</svg>
