<?xml version="1.0" encoding="UTF-8"?>
<!--Generator: Apple Native CoreSVG 341-->
<!DOCTYPE svg
PUBLIC "-//W3C//DTD SVG 1.1//EN"
       "http://www.w3.org/Graphics/SVG/1.1/DTD/svg11.dtd">
<svg version="1.1" xmlns="http://www.w3.org/2000/svg" xmlns:xlink="http://www.w3.org/1999/xlink" viewBox="0 0 32.9476 25.95">
 <g>
  <rect height="25.95" opacity="0" width="32.9476" x="0" y="0"/>
  <path d="M14.4101 0.373632C14.7599 2.6957 15.0449 3.10938 17.4583 3.44766C17.682 3.47695 17.8595 3.64199 17.8595 3.86387C17.8595 4.07598 17.698 4.24551 17.4583 4.29434C15.0449 4.61484 14.8708 5.00898 14.4101 7.37364C14.3693 7.58399 14.19 7.72422 13.9876 7.72422C13.7693 7.72422 13.5962 7.57598 13.5652 7.35235C13.2269 5.02051 12.9339 4.55879 10.5089 4.29434C10.2693 4.25527 10.1175 4.08399 10.1175 3.86387C10.1175 3.64199 10.2773 3.47695 10.5089 3.44766C12.9339 3.10938 13.108 2.70547 13.5652 0.371875C13.6078 0.15 13.7773 0 13.9876 0C14.19 0 14.3693 0.15 14.4101 0.373632Z" fill="white" fill-opacity="0.25"/>
  <path d="M10.4462 8.49082L14.5301 13.242L13.3357 14.668L9.098 9.733C8.92417 9.53964 8.72456 9.53964 8.5605 9.733L2.45775 16.8379C2.30248 17.0225 2.39291 17.3207 2.67963 17.3207L11.114 17.3207L10.2097 18.4004C10.0038 18.6457 9.85644 18.8996 9.76589 19.1514L1.70737 19.1514C0.109916 19.1514-0.522892 17.4906 0.488629 16.3131L7.21051 8.49082C7.72828 7.8959 8.23882 7.60352 8.82925 7.60352C9.41792 7.60352 9.93022 7.8959 10.4462 8.49082Z" fill="white" fill-opacity="0.25"/>
  <path d="M11.5222 21.4395L30.7107 21.4395C32.481 21.4395 33.1749 19.782 32.0152 18.4004L22.7904 7.38262C22.2859 6.77617 21.7238 6.45528 21.1208 6.45528C20.5126 6.45528 19.9523 6.77617 19.4345 7.38613L10.2097 18.4004C9.04995 19.782 9.74565 21.4395 11.5222 21.4395ZM12.3138 19.6088C11.9693 19.6088 11.8806 19.2563 12.0501 19.0539L20.8103 8.59277C21.0029 8.36913 21.2255 8.36738 21.4244 8.58749L30.173 19.0539C30.3443 19.2563 30.2539 19.6088 29.9111 19.6088Z" fill="white" fill-opacity="0.25"/>
 </g>
</svg>
