<?xml version="1.0" encoding="UTF-8"?>
<!--Generator: Apple Native CoreSVG 341-->
<!DOCTYPE svg
PUBLIC "-//W3C//DTD SVG 1.1//EN"
       "http://www.w3.org/Graphics/SVG/1.1/DTD/svg11.dtd">
<svg version="1.1" xmlns="http://www.w3.org/2000/svg" xmlns:xlink="http://www.w3.org/1999/xlink" viewBox="0 0 23.459 20.8304">
 <g>
  <rect height="20.8304" opacity="0" width="23.459" x="0" y="0"/>
  <path d="M23.0976 9.64061C23.0976 15.2224 18.2355 19.2847 11.5439 19.2847C9.34277 19.2847 7.35351 18.8826 5.64296 18.1058C4.61249 18.8471 3.21621 19.2847 1.84746 19.2847C1.13437 19.2847 0.86836 18.7359 1.35176 18.2996C1.94297 17.7527 2.17656 17.2599 2.17656 16.5017C2.17656 14.7642 0 13.6709 0 9.64061C0 4.04375 4.86914 0 11.5439 0C18.2187 0 23.0976 4.04375 23.0976 9.64061ZM10.3945 13.6199C10.3945 14.2559 10.9393 14.7334 11.5937 14.7334C12.2402 14.7334 12.7814 14.2639 12.7814 13.6199C12.7814 12.9795 12.2482 12.4984 11.5937 12.4984C10.9312 12.4984 10.3945 12.9857 10.3945 13.6199ZM10.5394 5.54451L10.6769 10.473C10.6955 11.0521 11.0209 11.3687 11.5937 11.3687C12.1408 11.3687 12.4644 11.0602 12.483 10.4678L12.6365 5.55252C12.6551 4.9576 12.2072 4.53104 11.584 4.53104C10.9527 4.53104 10.5209 4.9496 10.5394 5.54451Z" fill="white" fill-opacity="0.25"/>
 </g>
</svg>
