<?xml version="1.0" encoding="UTF-8"?>
<!--Generator: Apple Native CoreSVG 341-->
<!DOCTYPE svg
PUBLIC "-//W3C//DTD SVG 1.1//EN"
       "http://www.w3.org/Graphics/SVG/1.1/DTD/svg11.dtd">
<svg version="1.1" xmlns="http://www.w3.org/2000/svg" xmlns:xlink="http://www.w3.org/1999/xlink" viewBox="0 0 25.2865 19.1234">
 <g>
  <rect height="19.1234" opacity="0" width="25.2865" x="0" y="0"/>
  <path d="M21.8076 7.59316C23.74 8.40097 24.9252 10.2363 24.9252 12.3152C24.9252 15.0957 22.5344 17.3242 19.4973 17.3242L6.00429 17.3242C2.59238 17.3242 0 14.8488 0 11.881C0 9.4455 1.38398 7.43593 3.61562 7.04219C3.70664 4.29199 6.31152 2.44824 8.78066 3.1127C10.0053 1.34571 11.948 0 14.5523 0C18.6361 0 21.8201 3.18144 21.8076 7.59316ZM11.3012 12.6836C11.3012 13.2967 11.8125 13.7752 12.4652 13.7752C13.1127 13.7752 13.624 13.3047 13.624 12.6836C13.624 12.0607 13.1172 11.592 12.4652 11.592C11.8045 11.592 11.3012 12.0687 11.3012 12.6836ZM11.4576 6.20702L11.5961 9.64882C11.6244 10.2103 11.918 10.5226 12.4732 10.5226C13.009 10.5226 13.307 10.2201 13.3371 9.64706L13.4756 6.21502C13.5004 5.61092 13.0603 5.19042 12.4617 5.19042C11.8568 5.19042 11.4328 5.60292 11.4576 6.20702Z" fill="white" fill-opacity="0.25"/>
 </g>
</svg>
