<?xml version="1.0" encoding="UTF-8"?>
<!--Generator: Apple Native CoreSVG 341-->
<!DOCTYPE svg
PUBLIC "-//W3C//DTD SVG 1.1//EN"
       "http://www.w3.org/Graphics/SVG/1.1/DTD/svg11.dtd">
<svg version="1.1" xmlns="http://www.w3.org/2000/svg" xmlns:xlink="http://www.w3.org/1999/xlink" viewBox="0 0 23.5648 20.9441">
 <g>
  <rect height="20.9441" opacity="0" width="23.5648" x="0" y="0"/>
  <path d="M11.6 19.4707C18.2996 19.4707 23.2035 15.3683 23.2035 9.7287C23.2035 4.06777 18.2828 0 11.6 0C4.90918 0 0 4.06777 0 9.7287C0 11.7183 0.586326 13.3701 1.47988 14.7066C1.93535 15.4025 2.13652 15.9074 2.13652 16.3781C2.13652 16.9308 1.975 17.3508 1.49941 17.7748C0.738476 18.4308 1.14238 19.4707 2.1668 19.4707C3.42968 19.4707 4.80996 19.049 5.83867 18.3416C7.51718 19.0765 9.47265 19.4707 11.6 19.4707ZM11.6 17.5768C9.74882 17.5768 8.09296 17.2305 6.68573 16.6045C6.02733 16.3135 5.53944 16.3828 4.93144 16.7186C4.57479 16.9418 4.16385 17.1295 3.72381 17.2352C3.89374 16.918 4.00585 16.5906 4.00585 16.1637C4.00585 15.4305 3.71053 14.6236 3.08729 13.6896C2.31483 12.5726 1.89217 11.2133 1.89217 9.7287C1.89217 5.20487 5.89296 1.89217 11.6 1.89217C17.3123 1.89217 21.3096 5.20663 21.3096 9.7287C21.3096 14.2525 17.3123 17.5768 11.6 17.5768Z" fill="white" fill-opacity="0.25"/>
  <path d="M11.5937 11.3564C12.1223 11.3564 12.4326 11.0611 12.4476 10.4971L12.5914 5.74686C12.6099 5.18026 12.1771 4.7705 11.584 4.7705C10.9828 4.7705 10.566 5.17225 10.5846 5.73885L10.7203 10.5006C10.7371 11.0531 11.0475 11.3564 11.5937 11.3564ZM11.5937 14.5918C12.2199 14.5918 12.7363 14.1355 12.7363 13.5199C12.7363 12.9061 12.2279 12.448 11.5937 12.448C10.9596 12.448 10.4494 12.9123 10.4494 13.5199C10.4494 14.1275 10.9693 14.5918 11.5937 14.5918Z" fill="white" fill-opacity="0.25"/>
 </g>
</svg>
