<?xml version="1.0" encoding="UTF-8"?>
<!--Generator: Apple Native CoreSVG 341-->
<!DOCTYPE svg
PUBLIC "-//W3C//DTD SVG 1.1//EN"
       "http://www.w3.org/Graphics/SVG/1.1/DTD/svg11.dtd">
<svg version="1.1" xmlns="http://www.w3.org/2000/svg" xmlns:xlink="http://www.w3.org/1999/xlink" viewBox="0 0 19.7092 19.3629">
 <g>
  <rect height="19.3629" opacity="0" width="19.7092" x="0" y="0"/>
  <path d="M0 5.56328C0 6.07733 0.418357 6.49569 0.932416 6.49569C1.45448 6.49569 1.87284 6.07733 1.87284 5.56328L1.87284 3.72109C1.87284 2.57753 2.54647 1.89237 3.70156 1.89237L5.58281 1.89237C6.10038 1.89237 6.52323 1.46952 6.52323 0.951947C6.52323 0.43613 6.10038 0.021289 5.58281 0.021289L3.70156 0.021289C1.41269 0.021289 0 1.44199 0 3.72109ZM19.3478 5.56328L19.3478 3.72109C19.3478 1.44199 17.9369 0.021289 15.6463 0.021289L13.757 0.021289C13.2412 0.021289 12.8246 0.43613 12.8246 0.951947C12.8246 1.46952 13.2412 1.89237 13.757 1.89237L15.6463 1.89237C16.8014 1.89237 17.4768 2.57753 17.4768 3.72109L17.4768 5.56328C17.4768 6.07733 17.8934 6.49569 18.4074 6.49569C18.9215 6.49569 19.3478 6.07733 19.3478 5.56328ZM0 13.8209L0 15.6613C0 17.9404 1.41269 19.3629 3.70156 19.3629L5.58281 19.3629C6.10038 19.3629 6.52323 18.9463 6.52323 18.4305C6.52323 17.9146 6.10038 17.49 5.58281 17.49L3.70156 17.49C2.54647 17.49 1.87284 16.8066 1.87284 15.6613L1.87284 13.8209C1.87284 13.3068 1.45448 12.8805 0.932416 12.8805C0.418357 12.8805 0 13.3068 0 13.8209ZM19.3478 13.8209C19.3478 13.3068 18.9215 12.8805 18.4074 12.8805C17.8934 12.8805 17.4768 13.3068 17.4768 13.8209L17.4768 15.6613C17.4768 16.8066 16.8014 17.49 15.6463 17.49L13.757 17.49C13.2412 17.49 12.8246 17.9146 12.8246 18.4305C12.8246 18.9463 13.2412 19.3629 13.757 19.3629L15.6463 19.3629C17.9369 19.3629 19.3478 17.9404 19.3478 15.6613Z" fill="white" fill-opacity="0.25"/>
  <path d="M6.00507 9.0373C6.47089 9.0373 6.80273 8.69746 6.80273 8.23164L6.80273 6.85273C6.80273 6.38867 6.47089 6.04883 6.00507 6.04883C5.55078 6.04883 5.21093 6.39043 5.21093 6.85273L5.21093 8.23164C5.21093 8.69746 5.55078 9.0373 6.00507 9.0373ZM8.89082 11.3217C8.92011 11.3217 8.95117 11.3217 8.97871 11.3217C9.98437 11.3217 10.5373 10.7687 10.5373 9.77285L10.5373 6.71074C10.5373 6.31679 10.2578 6.0373 9.86386 6.0373C9.46015 6.0373 9.19043 6.31679 9.19043 6.71074L9.19043 9.82734C9.19043 9.90996 9.13535 9.96504 9.04472 9.96504L8.74609 9.96504C8.37168 9.96504 8.08066 10.2463 8.08066 10.6189C8.08066 11.0617 8.38496 11.3217 8.89082 11.3217ZM13.3125 9.0373C13.7668 9.0373 14.1066 8.69746 14.1066 8.23164L14.1066 6.85273C14.1066 6.39043 13.7668 6.04883 13.3125 6.04883C12.8467 6.04883 12.5166 6.38867 12.5166 6.85273L12.5166 8.23164C12.5166 8.69746 12.8467 9.0373 13.3125 9.0373ZM9.61972 14.5512C10.7969 14.5512 11.9953 14.0398 12.8582 13.1885C12.9727 13.0625 13.041 12.8975 13.041 12.6818C13.041 12.2994 12.7437 12.0164 12.3596 12.0164C12.1697 12.0164 12.0242 12.0855 11.8254 12.2941C11.3086 12.8322 10.473 13.2123 9.61972 13.2123C8.80546 13.2123 7.97343 12.85 7.41581 12.2906C7.24726 12.1238 7.10351 12.0164 6.86386 12.0164C6.48769 12.0164 6.18867 12.2994 6.18867 12.6818C6.18867 12.8646 6.25703 13.0199 6.383 13.1752C7.16797 14.0701 8.41172 14.5512 9.61972 14.5512Z" fill="white" fill-opacity="0.25"/>
 </g>
</svg>
