<?xml version="1.0" encoding="UTF-8"?>
<!--Generator: Apple Native CoreSVG 341-->
<!DOCTYPE svg
PUBLIC "-//W3C//DTD SVG 1.1//EN"
       "http://www.w3.org/Graphics/SVG/1.1/DTD/svg11.dtd">
<svg version="1.1" xmlns="http://www.w3.org/2000/svg" xmlns:xlink="http://www.w3.org/1999/xlink" viewBox="0 0 19.7252 19.3754">
 <g>
  <rect height="19.3754" opacity="0" width="19.7252" x="0" y="0"/>
  <path d="M11.9187 18.7299L11.9187 17.4621C11.3627 17.4621 10.8432 17.1209 10.8432 16.2939L10.8432 10.6105L8.8162 10.6105C8.43749 10.6105 8.26151 10.3492 8.36464 9.975L10.3316 2.93104C10.5182 2.25253 10.8221 1.92479 11.4152 1.92479L11.4365 0.492763C10.1316 0.492763 9.44374 1.15936 9.03984 2.59745L7.07558 9.49921C6.60331 11.1344 7.4873 11.9725 8.66991 11.9725L9.483 11.9725L9.483 16.2025C9.483 17.8397 10.3549 18.7299 11.9187 18.7299ZM5.26073 7.93378C5.59432 7.93378 5.84628 7.68183 5.84628 7.35624L5.84628 5.58534C5.84628 5.25976 5.59432 4.99804 5.26073 4.99804C4.9369 4.99804 4.68319 5.25976 4.68319 5.58534L4.68319 7.35624C4.68319 7.68183 4.9369 7.93378 5.26073 7.93378ZM13.7609 7.93378C14.0865 7.93378 14.3402 7.68183 14.3402 7.35624L14.3402 5.58534C14.3402 5.25976 14.0865 4.99804 13.7609 4.99804C13.4371 4.99804 13.1754 5.25976 13.1754 5.58534L13.1754 7.35624C13.1754 7.68183 13.4371 7.93378 13.7609 7.93378ZM9.73281 15.6098C11.7449 15.6098 13.7623 14.9793 14.9486 13.7344C15.2344 13.4416 15.1803 13.108 14.9957 12.8986C14.7863 12.6715 14.4102 12.5961 14.0979 12.8854C12.9619 13.9209 11.3678 14.4502 9.75409 14.4502C8.1662 14.4502 6.55604 13.9342 5.3953 12.8854C5.06698 12.6059 4.6953 12.6848 4.50097 12.8871C4.31464 13.0965 4.25077 13.4318 4.54003 13.7344C5.72284 14.9793 7.74023 15.6098 9.73281 15.6098ZM5.34238 19.3754L14.0232 19.3754C15.7322 19.3754 17.0834 18.8801 17.9711 17.9906C18.8863 17.0851 19.3639 15.742 19.3639 14.033L19.3639 5.35215C19.3639 3.64316 18.8863 2.3 17.9711 1.39453C17.0754 0.49707 15.7322 0.0115234 14.0232 0.0115234L5.34238 0.0115234C3.6334 0.0115234 2.28047 0.513086 1.39277 1.39453C0.485547 2.3 0 3.64316 0 5.35215L0 14.033C0 15.742 0.477539 17.0851 1.39277 17.9906C2.28848 18.8801 3.6334 19.3754 5.34238 19.3754ZM5.39863 17.4621C4.2457 17.4621 3.36347 17.1652 2.79393 16.5975C2.20839 16.0199 1.91327 15.1475 1.91327 13.975L1.91327 5.41015C1.91327 4.2457 2.20839 3.37323 2.79393 2.79569C3.3537 2.22792 4.2457 1.92479 5.39863 1.92479L13.9652 1.92479C15.1262 1.92479 16.0021 2.21991 16.5779 2.79569C17.1635 3.37323 17.4586 4.2457 17.4586 5.41015L17.4586 13.975C17.4586 15.1475 17.1635 16.0199 16.5779 16.5975C16.0102 17.1572 15.1262 17.4621 13.9652 17.4621Z" fill="white" fill-opacity="0.25"/>
 </g>
</svg>
