<?xml version="1.0" encoding="UTF-8"?>
<!--Generator: Apple Native CoreSVG 341-->
<!DOCTYPE svg
PUBLIC "-//W3C//DTD SVG 1.1//EN"
       "http://www.w3.org/Graphics/SVG/1.1/DTD/svg11.dtd">
<svg version="1.1" xmlns="http://www.w3.org/2000/svg" xmlns:xlink="http://www.w3.org/1999/xlink" viewBox="0 0 26.6902 25.7918">
 <g>
  <rect height="25.7918" opacity="0" width="26.6902" x="0" y="0"/>
  <path d="M14.532 2.66183C13.7982 2.77112 13.1306 2.93232 12.5254 3.1505C12.3366 3.03952 12.094 2.98202 11.7988 2.98202L4.066 2.98202C3.25311 2.98202 2.82831 3.42011 2.82831 4.1957L2.82831 15.5615C2.82831 16.3371 3.25311 16.7752 4.066 16.7752L7.733 16.7752L7.733 17.9551C7.733 18.1558 7.73759 18.3525 7.75582 18.5373L3.91132 18.5373C2.05019 18.5373 1.06621 17.5453 1.06621 15.6682L1.06621 4.08906C1.06621 2.21992 2.05019 1.21992 3.91132 1.21992L11.9455 1.21992C13.2551 1.21992 14.1304 1.71508 14.532 2.66183ZM7.733 10.3916L7.733 10.91C7.04701 11.0036 6.52264 11.5891 6.52264 12.3016C6.52264 13.0057 7.04117 13.5922 7.733 13.6853L7.733 15.7809C5.89489 15.6832 4.43827 14.1642 4.43827 12.3016C4.43827 10.3914 5.95748 8.8458 7.8503 8.80651C7.77139 9.30155 7.733 9.83142 7.733 10.3916ZM9.60628 5.01953C9.42524 5.20625 9.25573 5.40769 9.09453 5.6207C9.00481 5.74108 8.91922 5.86591 8.84068 5.99809C8.83738 5.49988 8.42995 5.09471 7.92128 5.09471C7.41659 5.09471 6.99979 5.50351 6.99979 6.00468C6.99979 6.51386 7.41659 6.92441 7.92128 6.92441C8.11001 6.92441 8.2848 6.86839 8.43 6.77179C8.26036 7.13583 8.12338 7.53181 8.0211 7.95916C7.98843 7.96338 7.95495 7.96425 7.92128 7.96425C6.84784 7.96425 5.96171 7.08613 5.96171 6.00468C5.96171 4.93476 6.84784 4.05663 7.92128 4.05663C8.63868 4.05663 9.2671 4.44432 9.60628 5.01953Z" fill="white" fill-opacity="0.25"/>
  <path d="M17.2107 24.3723C22.741 24.3723 25.2627 22.4037 25.2627 17.9551L25.2627 10.3916C25.2627 8.66288 24.8636 7.36464 24.1826 6.45937C23.9218 6.11015 23.4787 6.05547 23.0838 6.31972C22.0365 7.12773 19.6697 7.77285 17.2107 7.77285C14.7517 7.77285 12.3867 7.12773 11.3394 6.31972C10.9445 6.05547 10.4916 6.11015 10.2326 6.45937C9.55781 7.36464 9.15253 8.66288 9.15253 10.3916L9.15253 17.9551C9.15253 22.4037 11.6805 24.3723 17.2107 24.3723ZM17.2107 22.4713C12.7877 22.4713 11.0535 21.0314 11.0535 17.8041L11.0535 10.4654C11.0535 9.74316 11.1754 9.06717 11.4832 8.48279C12.7261 9.3119 14.8609 9.69842 17.2107 9.69842C19.5605 9.69842 21.6971 9.3119 22.94 8.48279C23.2398 9.06717 23.3617 9.74316 23.3617 10.4654L23.3617 17.8041C23.3617 21.0314 21.6275 22.4713 17.2107 22.4713Z" fill="white" fill-opacity="0.25"/>
  <path d="M17.2037 6.43145C19.7459 6.43145 21.7629 5.90391 21.7629 5.1709C21.7629 4.41836 19.7476 3.90059 17.2037 3.90059C14.6676 3.90059 12.6523 4.41836 12.6523 5.1709C12.6523 5.90391 14.6693 6.43145 17.2037 6.43145Z" fill="white" fill-opacity="0.25"/>
 </g>
</svg>
