<?xml version="1.0" encoding="UTF-8"?>
<!--Generator: Apple Native CoreSVG 341-->
<!DOCTYPE svg
PUBLIC "-//W3C//DTD SVG 1.1//EN"
       "http://www.w3.org/Graphics/SVG/1.1/DTD/svg11.dtd">
<svg version="1.1" xmlns="http://www.w3.org/2000/svg" xmlns:xlink="http://www.w3.org/1999/xlink" viewBox="0 0 28.6371 25.091">
 <g>
  <rect height="25.091" opacity="0" width="28.6371" x="0" y="0"/>
  <path d="M14.7826 3.73866L14.7826 5.98555C14.1447 6.1058 13.5571 6.26532 13.0205 6.46666L13.0205 3.8453C13.0205 3.06971 12.6055 2.63162 11.7908 2.63162L4.058 2.63162C3.2451 2.63162 2.8203 3.06971 2.8203 3.8453L2.8203 15.2111C2.8203 15.9867 3.2451 16.4248 4.058 16.4248L7.69198 16.4248C7.75654 17.0262 7.87779 17.6163 8.0555 18.1869L3.90331 18.1869C2.04218 18.1869 1.0582 17.1949 1.0582 15.3178L1.0582 3.73866C1.0582 1.86952 2.04218 0.869526 3.90331 0.869526L11.9375 0.869526C13.7986 0.869526 14.7826 1.86952 14.7826 3.73866ZM9.68658 8.93174C9.24939 9.47519 8.88309 10.0741 8.58687 10.7115C8.38901 10.6048 8.16237 10.5445 7.92128 10.5445C7.14198 10.5445 6.51463 11.1719 6.51463 11.9512C6.51463 12.6672 7.05089 13.2617 7.75998 13.3402C7.65946 13.9283 7.6082 14.5301 7.6082 15.1385C7.6082 15.2347 7.60948 15.3309 7.62308 15.4254C5.83356 15.2765 4.43026 13.7794 4.43026 11.9512C4.43026 10.0142 5.99237 8.45213 7.92128 8.45213C8.56683 8.45213 9.17054 8.62565 9.68658 8.93174ZM9.87109 5.65428C9.87109 6.73573 8.98495 7.61385 7.91327 7.61385C6.83983 7.61385 5.9537 6.73573 5.9537 5.65428C5.9537 4.58436 6.83983 3.70623 7.91327 3.70623C8.99296 3.70623 9.87109 4.58436 9.87109 5.65428ZM6.99178 5.65428C6.99178 6.16346 7.40858 6.57401 7.91327 6.57401C8.42421 6.57401 8.833 6.16346 8.833 5.65428C8.833 5.15311 8.42421 4.74432 7.91327 4.74432C7.40858 4.74432 6.99178 5.15311 6.99178 5.65428Z" fill="white" fill-opacity="0.25"/>
  <path d="M18.1244 23.6715C21.4558 23.6715 22.8908 23.233 24.2273 21.9781C26.1107 20.2678 27.2176 17.7648 27.2176 15.1385C27.2176 13.0232 26.4976 10.9986 25.2008 9.48475C24.7724 8.93144 24.0883 8.82675 23.4613 9.20448C22.3264 10.0176 20.889 10.5584 18.1244 10.5584C15.3642 10.5584 13.9189 10.0176 12.784 9.20448C12.157 8.82675 11.4808 8.92343 11.0445 9.48475C9.74765 10.9986 9.02773 13.0135 9.02773 15.1385C9.02773 17.7648 10.1266 20.2678 12.01 21.9781C13.3545 23.233 14.7974 23.6715 18.1244 23.6715ZM18.1244 21.6904C15.3633 21.6904 14.3252 21.4355 13.3599 20.5191C11.8541 19.1465 11.015 17.2099 11.015 15.1385C11.015 13.4281 11.5951 11.7842 12.9816 10.2088L11.4408 10.7967C12.8498 11.9215 15.0935 12.5394 18.1244 12.5394C21.1597 12.5394 23.4035 11.9215 24.8125 10.7886L23.2557 10.2088C24.6599 11.7761 25.2383 13.4201 25.2383 15.1385C25.2383 17.2099 24.3832 19.1465 22.8853 20.5191C21.9121 21.4355 20.882 21.6904 18.1244 21.6904Z" fill="white" fill-opacity="0.25"/>
  <path d="M18.1244 9.42226C20.5728 9.42226 22.3322 8.94979 22.3322 8.27714C22.3322 7.59648 20.5746 7.13378 18.1244 7.13378C15.6767 7.13378 13.9271 7.59648 13.9271 8.27714C13.9271 8.94979 15.6785 9.42226 18.1244 9.42226Z" fill="white" fill-opacity="0.25"/>
 </g>
</svg>
