<?xml version="1.0" encoding="UTF-8"?>
<!--Generator: Apple Native CoreSVG 341-->
<!DOCTYPE svg
PUBLIC "-//W3C//DTD SVG 1.1//EN"
       "http://www.w3.org/Graphics/SVG/1.1/DTD/svg11.dtd">
<svg version="1.1" xmlns="http://www.w3.org/2000/svg" xmlns:xlink="http://www.w3.org/1999/xlink" viewBox="0 0 28.7103 25.0418">
 <g>
  <rect height="25.0418" opacity="0" width="28.7103" x="0" y="0"/>
  <path d="M14.7898 3.24237L14.7898 5.98981C12.6784 6.41191 11.1113 7.27761 10.059 8.59491C9.93529 8.73939 9.81629 8.88759 9.70964 9.04483C9.19241 8.7612 8.5991 8.60018 7.96894 8.60018C5.9621 8.60018 4.32909 10.2332 4.32909 12.248C4.32909 14.1887 5.85465 15.7733 7.77001 15.8726C7.81246 16.6558 7.95177 17.4241 8.17882 18.1623L3.53573 18.1623C1.9873 18.1623 1.15605 17.323 1.15605 15.7648L1.15605 3.24237C1.15605 1.68593 1.9873 0.844917 3.53573 0.844917L12.4102 0.844917C13.9586 0.844917 14.7898 1.68593 14.7898 3.24237ZM8.60502 10.9241C8.21704 11.7906 7.95692 12.7204 7.83591 13.6815C7.09683 13.6146 6.52597 12.9894 6.52597 12.232C6.52597 11.4279 7.16659 10.7758 7.96894 10.7758C8.19774 10.7758 8.41381 10.8286 8.60502 10.9241ZM5.92343 5.19237C5.92343 6.31542 6.83964 7.23788 7.96894 7.23788C9.09824 7.23788 10.0242 6.31542 10.0242 5.19237C10.0242 4.06483 9.09824 3.14686 7.96894 3.14686C6.83964 3.14686 5.92343 4.06483 5.92343 5.19237ZM8.93125 5.19237C8.93125 5.71308 8.50117 6.15116 7.96894 6.15116C7.43671 6.15116 7.0164 5.71308 7.0164 5.19237C7.0164 4.6619 7.43671 4.23983 7.96894 4.23983C8.50117 4.23983 8.93125 4.6619 8.93125 5.19237Z" fill="white" fill-opacity="0.25"/>
  <path d="M18.2222 23.5244C21.4986 23.5244 22.9185 23.1037 24.2435 21.8621C26.0976 20.1713 27.1929 17.7074 27.1929 15.1139C27.1929 13.0082 26.4756 11.0191 25.0801 9.3746C24.7015 8.88534 24.2894 8.87108 23.8508 9.15917C22.5148 10.1492 20.9984 10.6562 18.2222 10.6562C15.4426 10.6562 13.9181 10.1492 12.5902 9.15917C12.1596 8.87108 11.7394 8.88534 11.3529 9.3746C9.96718 11.0191 9.2498 13.0082 9.2498 15.1139C9.2498 17.7074 10.3353 20.1713 12.1894 21.8621C13.5224 23.1037 14.9504 23.5244 18.2222 23.5244Z" fill="white" fill-opacity="0.25"/>
  <path d="M18.2222 9.39765C20.6707 9.39765 22.4301 8.92519 22.4301 8.25253C22.4301 7.57187 20.6724 7.10917 18.2222 7.10917C15.7746 7.10917 14.025 7.57187 14.025 8.25253C14.025 8.92519 15.7764 9.39765 18.2222 9.39765Z" fill="white" fill-opacity="0.25"/>
 </g>
</svg>
