<?xml version="1.0" encoding="UTF-8"?>
<!--Generator: Apple Native CoreSVG 341-->
<!DOCTYPE svg
PUBLIC "-//W3C//DTD SVG 1.1//EN"
       "http://www.w3.org/Graphics/SVG/1.1/DTD/svg11.dtd">
<svg version="1.1" xmlns="http://www.w3.org/2000/svg" xmlns:xlink="http://www.w3.org/1999/xlink" viewBox="0 0 26.6965 25.7988">
 <g>
  <rect height="25.7988" opacity="0" width="26.6965" x="0" y="0"/>
  <path d="M14.5683 2.66711C12.5167 2.97451 10.9634 3.68499 9.79607 4.8406C9.50083 4.07195 8.75049 3.52538 7.87909 3.52538C6.7498 3.52538 5.83359 4.44335 5.83359 5.57089C5.83359 6.69394 6.7498 7.6164 7.87909 7.6164C7.96321 7.6164 8.04619 7.61128 8.12726 7.59979C7.99136 8.02825 7.89172 8.49002 7.82691 8.98135C5.84371 9.0074 4.23925 10.6294 4.23925 12.6266C4.23925 14.5866 5.7954 16.1834 7.73749 16.254L7.73749 17.9603C7.73749 18.1605 7.74205 18.3566 7.76024 18.5408L3.44589 18.5408C1.89745 18.5408 1.06621 17.7016 1.06621 16.1434L1.06621 3.62089C1.06621 2.06445 1.89745 1.22344 3.44589 1.22344L12.3203 1.22344C13.5139 1.22344 14.2814 1.72319 14.5683 2.66711ZM7.73749 14.0596C7.00263 13.9883 6.43612 13.365 6.43612 12.6105C6.43612 11.8544 7.00263 11.2326 7.73749 11.1615ZM8.8414 5.57089C8.8414 6.0916 8.41132 6.52968 7.87909 6.52968C7.34687 6.52968 6.92655 6.0916 6.92655 5.57089C6.92655 5.04042 7.34687 4.61835 7.87909 4.61835C8.41132 4.61835 8.8414 5.04042 8.8414 5.57089Z" fill="white" fill-opacity="0.25"/>
  <path d="M17.217 24.3775C22.7472 24.3775 25.2689 22.409 25.2689 17.9603L25.2689 10.3986C25.2689 8.66816 24.8699 7.37167 24.1871 6.46464C23.9281 6.11543 23.4849 6.06074 23.09 6.325C22.0498 7.13125 19.6549 7.7834 17.217 7.7834C14.7808 7.7834 12.3842 7.13125 11.3457 6.325C10.9508 6.06074 10.4978 6.11543 10.2389 6.46464C9.56406 7.37167 9.15878 8.66816 9.15878 10.3986L9.15878 17.9603C9.15878 22.409 11.6867 24.3775 17.217 24.3775Z" fill="white" fill-opacity="0.25"/>
  <path d="M17.2099 6.43672C19.7521 6.43672 21.7691 5.91094 21.7691 5.17617C21.7691 4.42364 19.7539 3.90762 17.2099 3.90762C14.6738 3.90762 12.6568 4.42364 12.6568 5.17617C12.6568 5.91094 14.6756 6.43672 17.2099 6.43672Z" fill="white" fill-opacity="0.25"/>
 </g>
</svg>
