<?xml version="1.0" encoding="UTF-8"?>
<!--Generator: Apple Native CoreSVG 341-->
<!DOCTYPE svg
PUBLIC "-//W3C//DTD SVG 1.1//EN"
       "http://www.w3.org/Graphics/SVG/1.1/DTD/svg11.dtd">
<svg version="1.1" xmlns="http://www.w3.org/2000/svg" xmlns:xlink="http://www.w3.org/1999/xlink" viewBox="0 0 26.3803 25.8554">
 <g>
  <rect height="25.8554" opacity="0" width="26.3803" x="0" y="0"/>
  <path d="M14.7328 3.94823L14.7328 7.02928L13.2717 7.02928C13.1735 7.02928 13.0763 7.03011 12.9805 7.03223L12.9805 4.06288C12.9805 3.4367 12.6455 3.10448 12.0123 3.10448L3.78846 3.10448C3.1535 3.10448 2.81229 3.4367 2.81229 4.06288L2.81229 16.6254C2.81229 17.2533 3.1535 17.5855 3.78846 17.5855L7.50429 17.5855L7.50429 19.3396L3.64003 19.3396C1.96835 19.3396 1.0582 18.4295 1.0582 16.732L1.0582 3.94823C1.0582 2.26054 1.96835 1.35039 3.64003 1.35039L12.151 1.35039C13.8244 1.35039 14.7328 2.26054 14.7328 3.94823ZM8.12695 9.47104C7.79198 10.1117 7.62456 10.8319 7.55276 11.6295C6.96672 11.7761 6.55194 12.2974 6.55194 12.931C6.55194 13.5407 6.94415 14.0494 7.50429 14.2124L7.50429 16.3714C5.77048 16.1808 4.43202 14.7268 4.43202 12.931C4.43202 10.9941 5.97636 9.45956 7.8955 9.45956C7.97369 9.45956 8.05125 9.46208 8.12695 9.47104ZM9.86308 6.30683C9.86308 7.39628 8.99296 8.2744 7.8955 8.2744C6.7998 8.2744 5.92167 7.40429 5.92167 6.30683C5.92167 5.22089 6.8078 4.34276 7.8955 4.34276C8.99296 4.34276 9.86308 5.22089 9.86308 6.30683ZM7.02382 6.30683C7.02382 6.78398 7.41659 7.17675 7.8955 7.17675C8.38241 7.17675 8.76718 6.78398 8.76718 6.30683C8.76718 5.83143 8.37441 5.42889 7.8955 5.42889C7.40858 5.42889 7.02382 5.81366 7.02382 6.30683Z" fill="white" fill-opacity="0.25"/>
  <path d="M13.2877 24.4359L20.6129 24.4359C22.0416 24.4359 23.1889 24.2808 24.0021 23.4676C24.8154 22.6365 24.959 21.5185 24.959 20.0783L24.959 12.8109C24.959 11.3707 24.8154 10.2447 24.0021 9.43318C23.1773 8.61814 22.0416 8.45682 20.6129 8.45682L13.2717 8.45682C11.851 8.45682 10.7135 8.61814 9.89842 9.43318C9.08514 10.2545 8.93182 11.3707 8.93182 12.7949L8.93182 20.0783C8.93182 21.5185 9.08514 22.6445 9.89842 23.4676C10.7135 24.2808 11.851 24.4359 13.2877 24.4359ZM13.3353 14.6836C13.3158 14.0806 13.806 13.498 14.449 13.459C14.4996 14.0451 13.9926 14.7547 13.3353 14.6836ZM15.5599 17.473C15.4428 17.8834 15.1719 18.3762 14.8096 18.7262C14.7039 18.8203 14.5449 18.8984 14.3469 18.8984C14.1666 18.8984 14.0529 18.8283 13.8824 18.7732C13.7847 18.7474 13.6435 18.6711 13.4668 18.6711C13.0689 18.6711 12.8904 18.9064 12.5672 18.9064C12.3416 18.9064 12.1613 18.7732 11.9162 18.5006C11.4517 17.9873 11.1418 17.1738 11.1418 16.4678C11.1418 16.0344 11.2554 15.633 11.5263 15.2937C11.7519 14.9998 12.1045 14.8293 12.5299 14.8293C12.9215 14.8293 13.1568 15.0664 13.3629 15.0664C13.608 15.0664 13.8939 14.8195 14.3939 14.8195C14.8256 14.8195 15.1959 14.9918 15.433 15.3408C15.1133 15.5228 14.9978 15.7484 14.933 15.9367C14.8291 16.2014 14.8096 16.5211 14.933 16.8426C15.0529 17.1365 15.2465 17.3363 15.5599 17.473ZM17.758 13.8568L17.758 14.8195L18.5377 14.8195L18.5377 15.4545L17.758 15.4545L17.758 17.6986C17.758 18.0654 17.9205 18.2146 18.2553 18.2146C18.3316 18.2146 18.4808 18.2146 18.5226 18.1871L18.5226 18.8674C18.4516 18.8771 18.2553 18.8984 18.0715 18.8984C17.2402 18.8984 16.9205 18.6027 16.9205 17.8008L16.9205 15.4545L16.3584 15.4545L16.3584 14.8195L16.9205 14.8195L16.9205 13.8568ZM21.2801 18.8674L20.3982 18.8674L18.9142 14.8195L19.7961 14.8195L20.8432 18.0654L21.8289 14.8195L22.7365 14.8195Z" fill="white" fill-opacity="0.25"/>
 </g>
</svg>
