<?xml version="1.0" encoding="UTF-8"?>
<!--Generator: Apple Native CoreSVG 341-->
<!DOCTYPE svg
PUBLIC "-//W3C//DTD SVG 1.1//EN"
       "http://www.w3.org/Graphics/SVG/1.1/DTD/svg11.dtd">
<svg version="1.1" xmlns="http://www.w3.org/2000/svg" xmlns:xlink="http://www.w3.org/1999/xlink" viewBox="0 0 16.4715 20.4867">
 <g>
  <rect height="20.4867" opacity="0" width="16.4715" x="0" y="0"/>
  <path d="M8.05194 20.4867C13.5822 20.4867 16.1101 18.5181 16.1101 14.0695L16.1101 6.50605C16.1101 4.77558 15.7129 3.47909 15.0301 2.57382C14.7693 2.22285 14.3181 2.16992 13.9312 2.43242C12.8848 3.23867 10.4881 3.89082 8.05194 3.89082C5.61405 3.89082 3.21737 3.23867 2.1789 2.43242C1.78398 2.16992 1.34082 2.22285 1.08008 2.57382C0.397267 3.47909 0 4.77558 0 6.50605L0 14.0695C0 18.5181 2.51992 20.4867 8.05194 20.4867Z" fill="white" fill-opacity="0.25"/>
  <path d="M8.04316 2.54414C10.6574 2.54414 12.6103 2.01836 12.6103 1.28359C12.6103 0.531055 10.6592 0.0150388 8.04316 0.0150388C5.44296 0.0150388 3.4998 0.531055 3.4998 1.28359C3.4998 2.01836 5.44472 2.54414 8.04316 2.54414Z" fill="white" fill-opacity="0.25"/>
 </g>
</svg>
