<?xml version="1.0" encoding="UTF-8"?>
<!--Generator: Apple Native CoreSVG 341-->
<!DOCTYPE svg
PUBLIC "-//W3C//DTD SVG 1.1//EN"
       "http://www.w3.org/Graphics/SVG/1.1/DTD/svg11.dtd">
<svg version="1.1" xmlns="http://www.w3.org/2000/svg" xmlns:xlink="http://www.w3.org/1999/xlink" viewBox="0 0 28.5517 24.7179">
 <g>
  <rect height="24.7179" opacity="0" width="28.5517" x="0" y="0"/>
  <path d="M4.41092 3.5371C5.74686 4.51913 7.26854 5.02792 10.0385 5.02792C10.2037 5.02792 10.3644 5.02604 10.5205 5.02217C9.73608 5.56527 9.05874 6.2333 8.44121 7.01815C6.91875 8.85272 6.00156 11.3594 6.00156 14.0625C6.00156 15.29 6.19577 16.4935 6.56569 17.6303C5.49897 17.3763 4.74783 16.9391 4.01015 16.2523C2.15429 14.5482 1.06699 12.0941 1.06699 9.4953C1.06699 7.38964 1.78437 5.39882 3.17011 3.75253C3.55663 3.26152 3.97226 3.23125 4.41092 3.5371Z" fill="white" fill-opacity="0.25"/>
  <path d="M14.2613 2.62246C14.2613 3.29511 12.5082 3.77382 10.0385 3.77382C7.59881 3.77382 5.84745 3.29511 5.84745 2.62246C5.84745 1.94629 7.59881 1.47734 10.0385 1.47734C12.5099 1.47734 14.2613 1.94629 14.2613 2.62246Z" fill="white" fill-opacity="0.25"/>
  <path d="M17.2687 23.2904C20.8664 23.2904 22.4283 22.8289 23.8918 21.4666C25.9269 19.6045 27.1234 16.9072 27.1234 14.0625C27.1234 11.782 26.3599 9.57811 24.8135 7.75428C24.3924 7.21718 23.9324 7.19491 23.4574 7.51757C21.9928 8.5955 20.2473 9.14511 17.2687 9.14511C14.2885 9.14511 12.5447 8.5955 11.0801 7.51757C10.6033 7.19491 10.1514 7.21718 9.73027 7.75428C8.17577 9.57811 7.42206 11.782 7.42206 14.0625C7.42206 16.9072 8.60878 19.6045 10.6519 21.4666C12.1172 22.8289 13.6711 23.2904 17.2687 23.2904Z" fill="white" fill-opacity="0.25"/>
  <path d="M17.2687 7.7703C19.9889 7.7703 21.9178 7.24276 21.9178 6.508C21.9178 5.77148 19.9906 5.25546 17.2687 5.25546C14.5627 5.25546 12.6355 5.77148 12.6355 6.508C12.6355 7.24276 14.5644 7.7703 17.2687 7.7703Z" fill="white" fill-opacity="0.25"/>
 </g>
</svg>
