<?xml version="1.0" encoding="UTF-8"?>
<!--Generator: Apple Native CoreSVG 341-->
<!DOCTYPE svg
PUBLIC "-//W3C//DTD SVG 1.1//EN"
       "http://www.w3.org/Graphics/SVG/1.1/DTD/svg11.dtd">
<svg version="1.1" xmlns="http://www.w3.org/2000/svg" xmlns:xlink="http://www.w3.org/1999/xlink" viewBox="0 0 20.0627 18.1531">
 <g>
  <rect height="18.1531" opacity="0" width="20.0627" x="0" y="0"/>
  <path d="M9.85468 18.1531C13.4523 18.1531 15.0062 17.6916 16.4715 16.3293C18.5129 14.4672 19.7013 11.7717 19.7013 8.91718C19.7013 6.63671 18.9476 4.44081 17.3931 2.61699C16.9721 2.07988 16.5183 2.04961 16.0433 2.38027C14.5787 3.4582 12.835 3.9998 9.85468 3.9998C6.86639 3.9998 5.12265 3.4582 3.66601 2.38027C3.19101 2.04961 2.73105 2.07988 2.30996 2.61699C0.761719 4.44081 0 6.63671 0 8.91718C0 11.7717 1.18848 14.4672 3.22988 16.3293C4.69511 17.6916 6.24902 18.1531 9.85468 18.1531Z" fill="white" fill-opacity="0.25"/>
  <path d="M9.85468 2.63301C12.5748 2.63301 14.4974 2.10547 14.4974 1.3707C14.4974 0.626173 12.5766 0.118164 9.85468 0.118164C7.14061 0.118164 5.22148 0.626173 5.22148 1.3707C5.22148 2.10547 7.14237 2.63301 9.85468 2.63301Z" fill="white" fill-opacity="0.25"/>
 </g>
</svg>
