<?xml version="1.0" encoding="UTF-8"?>
<!--Generator: Apple Native CoreSVG 341-->
<!DOCTYPE svg
PUBLIC "-//W3C//DTD SVG 1.1//EN"
       "http://www.w3.org/Graphics/SVG/1.1/DTD/svg11.dtd">
<svg version="1.1" xmlns="http://www.w3.org/2000/svg" xmlns:xlink="http://www.w3.org/1999/xlink" viewBox="0 0 16.4715 20.4832">
 <g>
  <rect height="20.4832" opacity="0" width="16.4715" x="0" y="0"/>
  <path d="M8.05194 20.4832C13.5822 20.4832 16.1101 18.5129 16.1101 14.0642L16.1101 6.50253C16.1101 4.77206 15.7129 3.47558 15.0301 2.56855C14.7693 2.21933 14.3181 2.1664 13.9312 2.4289C12.876 3.23691 10.5109 3.88203 8.05194 3.88203C5.5912 3.88203 3.22616 3.23691 2.1789 2.4289C1.78398 2.1664 1.34082 2.21933 1.08008 2.56855C0.397267 3.47558 0 4.77206 0 6.50253L0 14.0642C0 18.5129 2.51992 20.4832 8.05194 20.4832ZM8.05194 18.5822C3.63514 18.5822 1.90096 17.1406 1.90096 13.9133L1.90096 6.57636C1.90096 5.85409 2.02284 5.17811 2.32265 4.59373C3.56561 5.42108 5.71015 5.80936 8.05194 5.80936C10.4 5.80936 12.5445 5.42108 13.7795 4.59373C14.0873 5.17811 14.2092 5.85409 14.2092 6.57636L14.2092 13.9133C14.2092 17.1406 12.475 18.5822 8.05194 18.5822Z" fill="white" fill-opacity="0.25"/>
  <path d="M8.04316 2.54062C10.6574 2.54062 12.6103 2.01484 12.6103 1.28008C12.6103 0.52754 10.6592 0.0115234 8.04316 0.0115234C5.44296 0.0115234 3.4998 0.52754 3.4998 1.28008C3.4998 2.01484 5.44472 2.54062 8.04316 2.54062Z" fill="white" fill-opacity="0.25"/>
 </g>
</svg>
