<?xml version="1.0" encoding="UTF-8"?>
<!--Generator: Apple Native CoreSVG 341-->
<!DOCTYPE svg
PUBLIC "-//W3C//DTD SVG 1.1//EN"
       "http://www.w3.org/Graphics/SVG/1.1/DTD/svg11.dtd">
<svg version="1.1" xmlns="http://www.w3.org/2000/svg" xmlns:xlink="http://www.w3.org/1999/xlink" viewBox="0 0 26.2861 20.4832">
 <g>
  <rect height="20.4832" opacity="0" width="26.2861" x="0" y="0"/>
  <path d="M19.9365 2.56855C20.6193 3.47558 21.0166 4.77206 21.0166 6.50253L21.0166 14.0642C21.0166 18.5129 18.4967 20.4832 12.9664 20.4832C7.42812 20.4832 4.90644 18.5129 4.90644 14.0642L4.90644 13.7832L6.80741 13.7832L6.80741 13.9133C6.80741 17.1406 8.54159 18.5822 12.9664 18.5822C17.3814 18.5822 19.1156 17.1406 19.1156 13.9133L19.1156 6.57636C19.1156 5.85409 18.9937 5.17811 18.6939 4.59373C17.451 5.42108 15.3082 5.80936 12.9664 5.80936C10.6166 5.80936 8.47206 5.42108 7.22909 4.59373C6.92928 5.17811 6.80741 5.85409 6.80741 6.57636L6.80741 9.29667L4.90644 9.29667L4.90644 6.50253C4.90644 4.77206 5.30547 3.47558 5.98828 2.56855C6.24727 2.21933 6.69043 2.1664 7.08534 2.4289C8.14061 3.23691 10.4994 3.88203 12.9664 3.88203C15.4254 3.88203 17.7904 3.23691 18.8377 2.4289C19.2326 2.1664 19.6775 2.21933 19.9365 2.56855ZM17.5185 1.28008C17.5185 2.01484 15.5639 2.54062 12.9576 2.54062C10.3609 2.54062 8.40624 2.01484 8.40624 1.28008C8.40624 0.52754 10.3574 0.0115234 12.9576 0.0115234C15.5656 0.0115234 17.5185 0.52754 17.5185 1.28008Z" fill="white" fill-opacity="0.25"/>
  <path d="M12.5699 11.5391L11.0871 12.826L9.92675 13.892C9.76171 14.041 9.67753 14.2689 9.67753 14.4773C9.67753 14.9367 9.9994 15.2746 10.4525 15.2746C10.6822 15.2746 10.8578 15.1877 11.0183 15.0226L13.7359 12.225C13.9584 11.9945 14.0541 11.7783 14.0541 11.5391C14.0541 11.3016 13.9584 11.0853 13.7359 10.8549L11.0183 8.04921C10.8578 7.89042 10.6822 7.80526 10.4525 7.80526C9.9994 7.80526 9.67753 8.14315 9.67753 8.60252C9.67753 8.81092 9.75995 9.03534 9.92675 9.18787L11.0871 10.2539ZM1.39902 11.5391C1.39902 12.0135 1.78574 12.4082 2.24336 12.4082L10.3283 12.4002L12.3195 12.3248C12.7541 12.3098 13.1035 11.9736 13.1035 11.5391C13.1035 11.1062 12.7541 10.7701 12.3195 10.7551L10.3283 10.6797L2.24336 10.6797C1.78574 10.6797 1.39902 11.0664 1.39902 11.5391Z" fill="white" fill-opacity="0.25"/>
 </g>
</svg>
