<?xml version="1.0" encoding="UTF-8"?>
<!--Generator: Apple Native CoreSVG 341-->
<!DOCTYPE svg
PUBLIC "-//W3C//DTD SVG 1.1//EN"
       "http://www.w3.org/Graphics/SVG/1.1/DTD/svg11.dtd">
<svg version="1.1" xmlns="http://www.w3.org/2000/svg" xmlns:xlink="http://www.w3.org/1999/xlink" viewBox="0 0 27.9361 25.8715">
 <g>
  <rect height="25.8715" opacity="0" width="27.9361" x="0" y="0"/>
  <path d="M16.7275 3.66777C17.54 4.62247 18.1168 5.78323 18.4145 7.0453L16.3916 7.0453C16.2023 6.47368 15.9241 5.92696 15.558 5.40584C14.2178 6.20526 12.2937 6.61385 9.86054 6.61385C7.43358 6.61385 5.50155 6.20526 4.17108 5.40584C3.37948 6.5326 2.991 7.77909 2.991 9.12694C2.991 11.1303 3.80975 12.9986 5.25272 14.3262C6.09893 15.1233 7.01078 15.3919 9.0619 15.4403L9.0619 17.3828C6.42999 17.3151 5.142 16.8753 3.94765 15.7465C2.12168 14.0883 1.05644 11.6693 1.05644 9.12694C1.05644 7.0789 1.74804 5.13124 3.00156 3.66777C3.41933 3.11875 4.08144 3.02382 4.69433 3.39453C5.80644 4.16953 7.18358 4.6873 9.86054 4.6873C12.5375 4.6873 13.9227 4.16953 15.0268 3.39453C15.6396 3.02382 16.3098 3.11875 16.7275 3.66777Z" fill="white" fill-opacity="0.25"/>
  <path d="M13.9295 2.49101C13.9295 3.12734 12.2303 3.59277 9.86054 3.59277C7.50136 3.59277 5.80038 3.12734 5.80038 2.49101C5.80038 1.83066 7.49784 1.383 9.86054 1.383C12.232 1.383 13.9295 1.83066 13.9295 2.49101Z" fill="white" fill-opacity="0.25"/>
  <path d="M14.8355 24.4439L22.1625 24.4439C23.5992 24.4439 24.7367 24.2889 25.5517 23.4756C26.365 22.6525 26.5086 21.5265 26.5086 20.0863L26.5086 12.8269C26.5086 11.3787 26.365 10.2527 25.5517 9.44119C24.7349 8.62615 23.5992 8.46483 22.1625 8.46483L14.8195 8.46483C13.4086 8.46483 12.2711 8.62615 11.448 9.4492C10.6347 10.2625 10.4814 11.3867 10.4814 12.8029L10.4814 20.0863C10.4814 21.5265 10.6347 22.6525 11.448 23.4756C12.2711 24.2889 13.4086 24.4439 14.8355 24.4439ZM14.8929 14.6996C14.8654 14.0887 15.3556 13.514 16.0066 13.467C16.0572 14.0531 15.5422 14.7627 14.8929 14.6996ZM17.1158 17.481C16.9924 17.8914 16.7197 18.3922 16.3672 18.7342C16.2535 18.8283 16.1025 18.9064 15.9045 18.9064C15.7162 18.9064 15.6105 18.8363 15.44 18.7892C15.3344 18.7555 15.1931 18.6791 15.0244 18.6791C14.6265 18.6791 14.448 18.9224 14.115 18.9224C13.8912 18.9224 13.7172 18.7892 13.472 18.5166C13.0013 17.9953 12.6994 17.1818 12.6994 16.4758C12.6994 16.0424 12.8051 15.641 13.0822 15.3017C13.3095 15.0078 13.6621 14.8373 14.0795 14.8373C14.4711 14.8373 14.7064 15.0824 14.9205 15.0824C15.1656 15.0824 15.4418 14.8275 15.9515 14.8275C16.3752 14.8275 16.7535 15.0078 16.9808 15.3568C16.6709 15.5308 16.5555 15.7564 16.4888 15.9447C16.3849 16.2094 16.3672 16.5291 16.4888 16.8586C16.6105 17.1445 16.8041 17.3443 17.1158 17.481ZM19.3139 13.8648L19.3139 14.8275L20.0855 14.8275L20.0855 15.4625L19.3139 15.4625L19.3139 17.7066C19.3139 18.0814 19.4781 18.2226 19.8049 18.2226C19.8875 18.2226 20.0367 18.2226 20.0803 18.1951L20.0803 18.8754C20.0092 18.8851 19.8049 18.9064 19.6291 18.9064C18.7978 18.9064 18.4781 18.6187 18.4781 17.8088L18.4781 15.4625L17.908 15.4625L17.908 14.8275L18.4781 14.8275L18.4781 13.8648ZM22.8377 18.8754L21.9558 18.8754L20.4719 14.8275L21.3457 14.8275L22.3928 18.0814L23.3865 14.8275L24.2924 14.8275Z" fill="white" fill-opacity="0.25"/>
 </g>
</svg>
