<?xml version="1.0" encoding="UTF-8"?>
<!--Generator: Apple Native CoreSVG 341-->
<!DOCTYPE svg
PUBLIC "-//W3C//DTD SVG 1.1//EN"
       "http://www.w3.org/Graphics/SVG/1.1/DTD/svg11.dtd">
<svg version="1.1" xmlns="http://www.w3.org/2000/svg" xmlns:xlink="http://www.w3.org/1999/xlink" viewBox="0 0 28.7103 26.5297">
 <g>
  <rect height="26.5297" opacity="0" width="28.7103" x="0" y="0"/>
  <path d="M15.9066 3.99667C16.4886 4.7613 16.8632 5.82325 16.9521 7.20747C13.72 7.39614 11.4438 8.3411 10.059 10.073C8.54121 11.8459 7.73066 14.1873 7.73066 16.6C7.73066 18.3664 8.16512 20.0949 8.97772 21.6158C3.95691 21.5973 1.15605 19.9602 1.15605 15.2998L1.15605 7.87265C1.15605 6.15976 1.55332 4.87987 2.22559 3.99667C2.47754 3.64824 2.91015 3.59882 3.29277 3.86406C4.32167 4.65976 6.65058 5.2916 9.07011 5.2916C11.4816 5.2916 13.8186 4.65976 14.8395 3.86406C15.2221 3.59882 15.6529 3.64824 15.9066 3.99667Z" fill="white" fill-opacity="0.25"/>
  <path d="M13.5555 2.73008C13.5555 3.46054 11.5701 3.97754 9.07011 3.97754C6.57792 3.97754 4.59081 3.46054 4.59081 2.73008C4.59081 1.99961 6.57441 1.48886 9.07011 1.48886C11.5736 1.48886 13.5555 1.99961 13.5555 2.73008Z" fill="white" fill-opacity="0.25"/>
  <path d="M18.2222 25.0025C21.4986 25.0025 22.9185 24.5836 24.2435 23.3402C26.0976 21.6494 27.1929 19.1953 27.1929 16.6C27.1929 14.4943 26.4756 12.499 25.0801 10.8545C24.7015 10.3732 24.2894 10.351 23.8508 10.6471C22.5148 11.6291 20.9984 12.1361 18.2222 12.1361C15.4426 12.1361 13.9181 11.6291 12.5902 10.6471C12.1596 10.351 11.7394 10.3732 11.3529 10.8545C9.96718 12.499 9.2498 14.4943 9.2498 16.6C9.2498 19.1953 10.3353 21.6494 12.1894 23.3402C13.5224 24.5836 14.9504 25.0025 18.2222 25.0025Z" fill="white" fill-opacity="0.25"/>
  <path d="M18.2222 10.8838C20.6707 10.8838 22.4301 10.4051 22.4301 9.73866C22.4301 9.058 20.6724 8.58905 18.2222 8.58905C15.7746 8.58905 14.025 9.058 14.025 9.73866C14.025 10.4051 15.7764 10.8838 18.2222 10.8838Z" fill="white" fill-opacity="0.25"/>
 </g>
</svg>
