<?xml version="1.0" encoding="UTF-8"?>
<!--Generator: Apple Native CoreSVG 341-->
<!DOCTYPE svg
PUBLIC "-//W3C//DTD SVG 1.1//EN"
       "http://www.w3.org/Graphics/SVG/1.1/DTD/svg11.dtd">
<svg version="1.1" xmlns="http://www.w3.org/2000/svg" xmlns:xlink="http://www.w3.org/1999/xlink" viewBox="0 0 26.4367 25.8519">
 <g>
  <rect height="25.8519" opacity="0" width="26.4367" x="0" y="0"/>
  <path d="M14.6746 3.68183C15.2683 4.46094 15.6334 5.56833 15.6636 7.02577L13.9246 7.02577C13.8929 6.48311 13.7768 5.97725 13.548 5.52888C12.507 6.23104 10.6715 6.61483 8.35936 6.61483C6.05702 6.61483 4.22147 6.23104 3.17245 5.52888C2.90467 6.06951 2.7908 6.69374 2.7908 7.36425L2.7908 13.9631C2.7908 16.6502 4.11007 17.9907 7.56073 18.1613L7.56073 19.9056C3.06843 19.72 1.0582 17.8946 1.0582 14.1043L1.0582 7.24823C1.0582 5.68299 1.42969 4.50097 2.0459 3.68183C2.28183 3.35917 2.69042 3.30976 3.04726 3.55097C3.99432 4.28886 6.14354 4.87089 8.35936 4.87089C10.5849 4.87089 12.7262 4.28886 13.6812 3.55097C14.0381 3.30976 14.4467 3.35917 14.6746 3.68183Z" fill="white" fill-opacity="0.25"/>
  <path d="M12.5031 2.51308C12.5031 3.17949 10.7375 3.65644 8.35936 3.65644C6.00683 3.65644 4.23944 3.17949 4.23944 2.51308C4.23944 1.83242 6.00507 1.37148 8.35936 1.37148C10.7392 1.37148 12.5031 1.83242 12.5031 2.51308Z" fill="white" fill-opacity="0.25"/>
  <path d="M13.3361 24.4306L20.6631 24.4306C22.098 24.4306 23.2373 24.2756 24.0506 23.4543C24.8719 22.641 25.0172 21.515 25.0172 20.0748L25.0172 12.8074C25.0172 11.3672 24.8719 10.2412 24.0506 9.42967C23.2355 8.60662 22.098 8.4533 20.6631 8.4533L13.3201 8.4533C11.9074 8.4533 10.7717 8.61463 9.94685 9.42967C9.13357 10.2429 8.99002 11.3672 8.99002 12.7914L8.99002 20.0748C8.99002 21.515 9.13357 22.641 9.94685 23.4543C10.7717 24.2756 11.8994 24.4306 13.3361 24.4306ZM13.3935 14.6801C13.3642 14.0771 13.8625 13.4928 14.5054 13.4554C14.556 14.0398 14.0428 14.7512 13.3935 14.6801ZM13.5232 18.6676C13.1254 18.6676 12.9486 18.9029 12.6156 18.9029C12.3918 18.9029 12.2177 18.7697 11.9726 18.4971C11.5019 17.9838 11.1982 17.1703 11.1982 16.4642C11.1982 16.0308 11.3056 15.6277 11.5828 15.2902C11.8101 14.9963 12.1627 14.8258 12.5863 14.8258C12.9797 14.8258 13.2133 15.0629 13.4193 15.0629C13.6644 15.0629 13.9424 14.816 14.4504 14.816C14.8758 14.816 15.2523 14.9883 15.4814 15.3373C15.1715 15.5176 15.0543 15.7449 14.9894 15.9332C14.8855 16.1978 14.8678 16.5158 14.9894 16.839C15.1094 17.133 15.3047 17.3328 15.6164 17.4695C15.4912 17.8799 15.2203 18.3726 14.8678 18.7226C14.7523 18.8168 14.6013 18.8949 14.4033 18.8949C14.2168 18.8949 14.1094 18.8248 13.9406 18.7697C13.8349 18.7439 13.6937 18.6676 13.5232 18.6676ZM18.1297 18.8949C17.2984 18.8949 16.9769 18.5992 16.9769 17.7955L16.9769 15.451L16.4086 15.451L16.4086 14.816L16.9769 14.816L16.9769 13.8533L17.8144 13.8533L17.8144 14.816L18.5861 14.816L18.5861 15.451L17.8144 15.451L17.8144 17.6933C17.8144 18.0619 17.9769 18.2111 18.3037 18.2111C18.3881 18.2111 18.5373 18.2111 18.5808 18.1836L18.5808 18.8639C18.508 18.8736 18.3037 18.8949 18.1297 18.8949ZM20.4564 18.8639L18.9724 14.816L19.8463 14.816L20.8933 18.0619L21.8871 14.816L22.793 14.816L21.3383 18.8639Z" fill="white" fill-opacity="0.25"/>
 </g>
</svg>
