<?xml version="1.0" encoding="UTF-8"?>
<!--Generator: Apple Native CoreSVG 341-->
<!DOCTYPE svg
PUBLIC "-//W3C//DTD SVG 1.1//EN"
       "http://www.w3.org/Graphics/SVG/1.1/DTD/svg11.dtd">
<svg version="1.1" xmlns="http://www.w3.org/2000/svg" xmlns:xlink="http://www.w3.org/1999/xlink" viewBox="0 0 28.5429 24.7179">
 <g>
  <rect height="24.7179" opacity="0" width="28.5429" x="0" y="0"/>
  <path d="M4.63163 3.66347C5.78163 4.48535 7.28963 5.02617 10.0297 5.02617C10.1962 5.02617 10.3581 5.02413 10.5152 5.01987C9.82874 5.49415 9.22465 6.06447 8.67239 6.72772C6.88865 6.60722 5.30315 6.21921 4.12167 5.47791C3.20135 6.70389 2.79784 8.08533 2.79784 9.50585C2.79784 11.6039 3.67245 13.5812 5.1951 14.985C5.48489 15.2596 5.78128 15.4765 6.11456 15.6448C6.19388 16.3185 6.34434 16.9758 6.55007 17.6122C5.48723 17.3548 4.72993 16.9181 3.9996 16.2471C2.14726 14.5447 1.0582 12.0889 1.0582 9.49003C1.0582 7.38612 1.77558 5.39706 3.04746 3.89667C3.45175 3.37363 4.07909 3.30957 4.63163 3.66347Z" fill="white" fill-opacity="0.25"/>
  <path d="M14.249 2.61894C14.249 3.29335 12.4959 3.77207 10.0297 3.77207C7.5953 3.77207 5.84218 3.29335 5.84218 2.61894C5.84218 1.94629 7.59178 1.47734 10.0297 1.47734C12.4994 1.47734 14.249 1.94629 14.249 2.61894Z" fill="white" fill-opacity="0.25"/>
  <path d="M17.267 23.2904C20.8664 23.2904 22.4265 22.8289 23.8918 21.4666C25.9269 19.6045 27.1234 16.9072 27.1234 14.0625C27.1234 11.782 26.3599 9.57811 24.9291 7.91796C24.4982 7.34882 23.8088 7.28476 23.2021 7.65722C21.943 8.55546 20.2473 9.14511 17.267 9.14511C14.2885 9.14511 12.5928 8.55546 11.3336 7.65722C10.7269 7.28476 10.0455 7.34882 9.60663 7.91796C8.17577 9.57811 7.42031 11.782 7.42031 14.0625C7.42031 16.9072 8.60878 19.6045 10.6519 21.4666C12.1172 22.8289 13.6693 23.2904 17.267 23.2904ZM17.267 21.3877C14.1853 21.3877 13.0203 21.0857 11.9396 20.0717C10.266 18.533 9.32127 16.3719 9.32127 14.0625C9.32127 12.2553 9.88983 10.5429 11.2322 8.92108L10.2408 9.31931C11.8764 10.526 14.3867 11.0461 17.267 11.0461C20.149 11.0461 22.6594 10.526 24.3029 9.31931L23.3035 8.92108C24.6459 10.5429 25.2207 12.2553 25.2207 14.0625C25.2207 16.3719 24.268 18.533 22.5961 20.0717C21.5137 21.0857 20.3566 21.3877 17.267 21.3877Z" fill="white" fill-opacity="0.25"/>
  <path d="M17.267 7.7703C19.9871 7.7703 21.9178 7.24276 21.9178 6.508C21.9178 5.77148 19.9906 5.25546 17.267 5.25546C14.5627 5.25546 12.6338 5.77148 12.6338 6.508C12.6338 7.24276 14.5644 7.7703 17.267 7.7703Z" fill="white" fill-opacity="0.25"/>
 </g>
</svg>
