<?xml version="1.0" encoding="UTF-8"?>
<!--Generator: Apple Native CoreSVG 341-->
<!DOCTYPE svg
PUBLIC "-//W3C//DTD SVG 1.1//EN"
       "http://www.w3.org/Graphics/SVG/1.1/DTD/svg11.dtd">
<svg version="1.1" xmlns="http://www.w3.org/2000/svg" xmlns:xlink="http://www.w3.org/1999/xlink" viewBox="0 0 26.53 25.7918">
 <g>
  <rect height="25.7918" opacity="0" width="26.53" x="0" y="0"/>
  <path d="M3.05351 3.40488C4.01132 4.10898 6.16288 4.73008 8.37518 4.73008C8.87605 4.73008 9.37447 4.69772 9.85628 4.63847C9.55527 4.90714 9.28449 5.20262 9.04159 5.52168C8.04843 6.80508 7.57284 8.40546 7.57284 10.3916L7.57284 17.9551C7.57284 18.5998 7.62016 19.2032 7.7167 19.7638C3.15361 19.614 1.06621 17.8258 1.06621 13.9582L1.06621 7.10214C1.06621 5.53866 1.41992 4.34687 2.04414 3.5375C2.28808 3.21933 2.68867 3.16367 3.05351 3.40488Z" fill="white" fill-opacity="0.25"/>
  <path d="M12.5031 2.36875C12.5031 3.0334 10.7357 3.51211 8.37518 3.51211C6.00507 3.51211 4.23144 3.0334 4.23144 2.36875C4.23144 1.68809 6.00331 1.22539 8.37518 1.22539C10.7375 1.22539 12.5031 1.68809 12.5031 2.36875Z" fill="white" fill-opacity="0.25"/>
  <path d="M17.0506 24.374C22.5808 24.374 25.1025 22.4055 25.1025 17.9568L25.1025 10.3951C25.1025 8.66464 24.7035 7.36816 24.0224 6.46113C23.7617 6.11191 23.3185 6.05723 22.9236 6.32148C21.8851 7.12773 19.4885 7.77988 17.0506 7.77988C14.6064 7.77988 12.2178 7.12773 11.1713 6.32148C10.7764 6.05723 10.3314 6.11191 10.0725 6.46113C9.38964 7.36816 8.99237 8.66464 8.99237 10.3951L8.99237 17.9568C8.99237 22.4055 11.5123 24.374 17.0506 24.374Z" fill="white" fill-opacity="0.25"/>
  <path d="M17.0435 6.4332C19.5857 6.4332 21.6027 5.90742 21.6027 5.17266C21.6027 4.42012 19.5875 3.9041 17.0435 3.9041C14.5074 3.9041 12.4922 4.42012 12.4922 5.17266C12.4922 5.90742 14.5092 6.4332 17.0435 6.4332Z" fill="white" fill-opacity="0.25"/>
 </g>
</svg>
