<?xml version="1.0" encoding="UTF-8"?>
<!--Generator: Apple Native CoreSVG 341-->
<!DOCTYPE svg
PUBLIC "-//W3C//DTD SVG 1.1//EN"
       "http://www.w3.org/Graphics/SVG/1.1/DTD/svg11.dtd">
<svg version="1.1" xmlns="http://www.w3.org/2000/svg" xmlns:xlink="http://www.w3.org/1999/xlink" viewBox="0 0 29.0127 18.1531">
 <g>
  <rect height="18.1531" opacity="0" width="29.0127" x="0" y="0"/>
  <path d="M21.9869 2.78066C23.4178 4.44081 24.1732 6.63671 24.1732 8.91718C24.1732 11.7717 22.9848 14.4672 20.9416 16.3293C19.4764 17.6916 17.9242 18.1531 14.3248 18.1531C10.7271 18.1531 9.16699 17.6916 7.70176 16.3293C6.62953 15.3482 5.7901 14.1358 5.24397 12.7871L7.33948 12.7871C7.75781 13.5867 8.31737 14.3121 8.99745 14.9344C10.0799 15.9484 11.2352 16.2504 14.3248 16.2504C17.4064 16.2504 18.5715 15.9484 19.6539 14.9344C21.3258 13.3957 22.2723 11.2266 22.2723 8.91718C22.2723 7.37395 21.854 5.89466 20.8838 4.48203C19.2637 5.46979 16.9483 5.90077 14.3248 5.90077C11.7051 5.90077 9.39149 5.47051 7.76547 4.48458C6.92397 5.70761 6.49407 6.98074 6.3962 8.30234L4.49585 8.30234C4.61352 6.24414 5.3622 4.29076 6.65645 2.78066C7.09531 2.21152 7.78476 2.13945 8.3914 2.51992C9.65058 3.41816 11.3463 3.9998 14.3248 3.9998C17.3051 3.9998 19.0008 3.41816 20.26 2.51992C20.8666 2.13945 21.548 2.21152 21.9869 2.78066ZM18.9756 1.3707C18.9756 2.10547 17.0449 2.63301 14.3248 2.63301C11.6223 2.63301 9.6916 2.10547 9.6916 1.3707C9.6916 0.626173 11.6205 0.118164 14.3248 0.118164C17.0484 0.118164 18.9756 0.626173 18.9756 1.3707Z" fill="white" fill-opacity="0.25"/>
  <path d="M12.5699 10.5447L11.0871 11.8299L9.93476 12.8976C9.76347 13.0467 9.67929 13.2746 9.67929 13.483C9.67929 13.9424 10.0012 14.2803 10.4525 14.2803C10.6822 14.2803 10.8578 14.1853 11.0183 14.0283L13.7377 11.2289C13.9584 11.0002 14.0541 10.7822 14.0541 10.5447C14.0541 10.3072 13.9584 10.091 13.7377 9.86054L11.0183 7.05487C10.8578 6.89608 10.6822 6.81093 10.4525 6.81093C10.0012 6.81093 9.67929 7.14882 9.67929 7.60643C9.67929 7.81659 9.75995 8.041 9.93476 8.19178L11.0871 9.25956ZM1.39902 10.5447C1.39902 11.0174 1.78574 11.4139 2.24511 11.4139L10.3203 11.4058L12.3195 11.3287C12.7541 11.3154 13.1115 10.9793 13.1115 10.5447C13.1115 10.1101 12.7541 9.77577 12.3195 9.76073L10.3203 9.68534L2.24511 9.68534C1.78574 9.68534 1.39902 10.0721 1.39902 10.5447Z" fill="white" fill-opacity="0.25"/>
 </g>
</svg>
