<?xml version="1.0" encoding="UTF-8"?>
<!--Generator: Apple Native CoreSVG 341-->
<!DOCTYPE svg
PUBLIC "-//W3C//DTD SVG 1.1//EN"
       "http://www.w3.org/Graphics/SVG/1.1/DTD/svg11.dtd">
<svg version="1.1" xmlns="http://www.w3.org/2000/svg" xmlns:xlink="http://www.w3.org/1999/xlink" viewBox="0 0 28.6371 26.4707">
 <g>
  <rect height="26.4707" opacity="0" width="28.6371" x="0" y="0"/>
  <path d="M15.8088 3.95487C16.3846 4.71137 16.7574 5.7589 16.8503 7.1228C16.1904 7.15843 15.5742 7.2262 15.0011 7.32728C14.9509 6.82228 14.8269 6.34966 14.6084 5.92381C13.3584 6.75291 11.2068 7.1244 8.97226 7.1244C6.72967 7.1244 4.57635 6.75291 3.32811 5.92381C3.02831 6.50819 2.90643 7.18065 2.90643 7.90293L2.90643 15.1168C2.90643 18.1056 4.4179 19.5201 8.09282 19.7044C8.28766 20.3549 8.54747 20.9825 8.87307 21.5739C3.86432 21.554 1.0582 19.9162 1.0582 15.258L1.0582 7.83085C1.0582 6.11796 1.45547 4.83808 2.12773 3.95487C2.37969 3.60644 2.8123 3.55703 3.19491 3.82226C4.22382 4.61796 6.55273 5.2498 8.97226 5.2498C11.3838 5.2498 13.7207 4.61796 14.7416 3.82226C15.1242 3.55703 15.5551 3.60644 15.8088 3.95487Z" fill="white" fill-opacity="0.25"/>
  <path d="M13.4576 2.68828C13.4576 3.41875 11.4723 3.93574 8.97226 3.93574C6.48007 3.93574 4.49296 3.41875 4.49296 2.68828C4.49296 1.95781 6.47656 1.44707 8.97226 1.44707C11.4758 1.44707 13.4576 1.95781 13.4576 2.68828Z" fill="white" fill-opacity="0.25"/>
  <path d="M18.1244 25.0431C21.4558 25.0431 22.8908 24.6047 24.2273 23.3498C26.1107 21.6394 27.2176 19.1445 27.2176 16.5164C27.2176 14.4012 26.4976 12.3703 25.2008 10.8547C24.7724 10.3111 24.0883 10.1984 23.4613 10.5842C22.3264 11.3892 20.889 11.9301 18.1244 11.9301C15.3642 11.9301 13.9189 11.3892 12.784 10.5842C12.157 10.1984 11.4808 10.3031 11.0445 10.8547C9.74765 12.3703 9.02773 14.3931 9.02773 16.5164C9.02773 19.1445 10.1266 21.6394 12.01 23.3498C13.3545 24.6047 14.7974 25.0431 18.1244 25.0431ZM18.1244 23.0621C15.3633 23.0621 14.3252 22.8072 13.3599 21.8988C11.8541 20.5181 11.015 18.5816 11.015 16.5164C11.015 14.7998 11.5951 13.1558 12.9816 11.5805L11.4408 12.1683C12.8498 13.2931 15.0935 13.9111 18.1244 13.9111C21.1597 13.9111 23.4035 13.2931 24.8125 12.1603L23.2557 11.5805C24.6599 13.1478 25.2383 14.7918 25.2383 16.5164C25.2383 18.5816 24.3832 20.5181 22.8853 21.8988C21.9121 22.8072 20.882 23.0621 18.1244 23.0621Z" fill="white" fill-opacity="0.25"/>
  <path d="M18.1244 10.8019C20.5728 10.8019 22.3322 10.3215 22.3322 9.65683C22.3322 8.97441 20.5746 8.50546 18.1244 8.50546C15.6767 8.50546 13.9271 8.97441 13.9271 9.65683C13.9271 10.3215 15.6785 10.8019 18.1244 10.8019Z" fill="white" fill-opacity="0.25"/>
 </g>
</svg>
