<?xml version="1.0" encoding="UTF-8"?>
<!--Generator: Apple Native CoreSVG 341-->
<!DOCTYPE svg
PUBLIC "-//W3C//DTD SVG 1.1//EN"
       "http://www.w3.org/Graphics/SVG/1.1/DTD/svg11.dtd">
<svg version="1.1" xmlns="http://www.w3.org/2000/svg" xmlns:xlink="http://www.w3.org/1999/xlink" viewBox="0 0 23.4881 20.4867">
 <g>
  <rect height="20.4867" opacity="0" width="23.4881" x="0" y="0"/>
  <path d="M0.844333 12.4099C0.386717 12.4099 0 12.0152 0 11.5408C0 11.0682 0.386717 10.6814 0.844333 10.6814L8.97734 10.6814L10.2246 10.7453L9.68808 10.2557L8.52773 9.18963C8.36093 9.03709 8.27851 8.81268 8.27851 8.60428C8.27851 8.14491 8.60038 7.80702 9.0535 7.80702C9.28319 7.80702 9.45878 7.89218 9.61932 8.05096L12.3369 10.8566C12.5594 11.0871 12.6551 11.3033 12.6551 11.5408C12.6551 11.7801 12.5594 11.9963 12.3369 12.2267L9.61932 15.0244C9.45878 15.1894 9.28319 15.2764 9.0535 15.2764C8.60038 15.2764 8.27851 14.9385 8.27851 14.4791C8.27851 14.2707 8.36269 14.0428 8.52773 13.8937L9.68808 12.8277L10.2166 12.3381L8.97734 12.4019ZM11.5674 20.4867C17.0976 20.4867 19.6176 18.5181 19.6176 14.0695L19.6176 6.50605C19.6176 4.77558 19.2203 3.47909 18.5375 2.57382C18.2785 2.22285 17.8336 2.16992 17.4387 2.43242C16.4002 3.23867 14.0035 3.89082 11.5674 3.89082C9.12148 3.89082 6.73456 3.23867 5.68632 2.43242C5.2914 2.16992 4.84824 2.22285 4.58926 2.57382C3.90645 3.47909 3.50742 4.77558 3.50742 6.50605L3.50742 14.0695C3.50742 18.5181 6.0291 20.4867 11.5674 20.4867ZM11.5586 2.54414C14.1648 2.54414 16.1195 2.01836 16.1195 1.28359C16.1195 0.531055 14.1666 0.0150388 11.5586 0.0150388C8.95839 0.0150388 7.00722 0.531055 7.00722 1.28359C7.00722 2.01836 8.96191 2.54414 11.5586 2.54414Z" fill="white" fill-opacity="0.25"/>
 </g>
</svg>
