<?xml version="1.0" encoding="UTF-8"?>
<!--Generator: Apple Native CoreSVG 341-->
<!DOCTYPE svg
PUBLIC "-//W3C//DTD SVG 1.1//EN"
       "http://www.w3.org/Graphics/SVG/1.1/DTD/svg11.dtd">
<svg version="1.1" xmlns="http://www.w3.org/2000/svg" xmlns:xlink="http://www.w3.org/1999/xlink" viewBox="0 0 26.4607 18.1531">
 <g>
  <rect height="18.1531" opacity="0" width="26.4607" x="0" y="0"/>
  <path d="M0.84609 11.4058C0.386717 11.4058 0 11.0174 0 10.5447C0 10.0721 0.386717 9.68534 0.84609 9.68534L9.10038 9.68534L10.3477 9.74745L9.81113 9.25956L8.65878 8.19178C8.48397 8.041 8.40331 7.81659 8.40331 7.60643C8.40331 7.14882 8.72518 6.81093 9.17655 6.81093C9.40623 6.81093 9.58182 6.89608 9.74236 7.05487L12.4617 9.86054C12.6824 10.091 12.7781 10.3072 12.7781 10.5447C12.7781 10.7822 12.6824 11.0002 12.4617 11.2289L9.74236 14.0283C9.58182 14.1853 9.40623 14.2803 9.17655 14.2803C8.72518 14.2803 8.40331 13.9424 8.40331 13.483C8.40331 13.2746 8.48749 13.0467 8.65878 12.8976L9.81113 11.8299L10.3477 11.342L9.10038 11.4058ZM13.0488 18.1531C16.6482 18.1531 18.2004 17.6916 19.6656 16.3293C21.7088 14.4672 22.8972 11.7717 22.8972 8.91718C22.8972 6.63671 22.1418 4.44081 20.5873 2.61699C20.1662 2.07988 19.7142 2.04961 19.2375 2.38027C17.7728 3.4582 16.0291 3.9998 13.0488 3.9998C10.0703 3.9998 8.32479 3.4582 6.86015 2.38027C6.38515 2.04961 5.92519 2.07988 5.5041 2.61699C3.95762 4.44081 3.19414 6.63671 3.19414 8.91718C3.19414 11.7717 4.39062 14.4672 6.42578 16.3293C7.89101 17.6916 9.45116 18.1531 13.0488 18.1531ZM13.0488 2.63301C15.7689 2.63301 17.6996 2.10547 17.6996 1.3707C17.6996 0.626173 15.7725 0.118164 13.0488 0.118164C10.3445 0.118164 8.41562 0.626173 8.41562 1.3707C8.41562 2.10547 10.3463 2.63301 13.0488 2.63301Z" fill="white" fill-opacity="0.25"/>
 </g>
</svg>
