<?xml version="1.0" encoding="UTF-8"?>
<!--Generator: Apple Native CoreSVG 341-->
<!DOCTYPE svg
PUBLIC "-//W3C//DTD SVG 1.1//EN"
       "http://www.w3.org/Graphics/SVG/1.1/DTD/svg11.dtd">
<svg version="1.1" xmlns="http://www.w3.org/2000/svg" xmlns:xlink="http://www.w3.org/1999/xlink" viewBox="0 0 20.0627 18.1531">
 <g>
  <rect height="18.1531" opacity="0" width="20.0627" x="0" y="0"/>
  <path d="M9.85468 18.1531C13.4523 18.1531 15.0062 17.6916 16.4715 16.3293C18.5129 14.4672 19.7013 11.7717 19.7013 8.91718C19.7013 6.63671 18.9476 4.44081 17.515 2.78066C17.0779 2.21152 16.3965 2.13945 15.7898 2.51992C14.5307 3.41816 12.835 3.9998 9.85468 3.9998C6.86639 3.9998 5.17245 3.41816 3.92128 2.51992C3.31289 2.13945 2.62343 2.21152 2.18633 2.78066C0.761719 4.44081 0 6.63671 0 8.91718C0 11.7717 1.18848 14.4672 3.22988 16.3293C4.69511 17.6916 6.24902 18.1531 9.85468 18.1531ZM9.85468 16.2504C6.76503 16.2504 5.608 15.9484 4.51932 14.9344C2.84569 13.3957 1.90096 11.2266 1.90096 8.91718C1.90096 7.11796 2.46952 5.40565 3.81991 3.78378L2.81875 4.18202C4.45605 5.38065 6.97441 5.90077 9.85468 5.90077C12.7269 5.90077 15.2453 5.38065 16.8826 4.18202L15.8832 3.78378C17.2318 5.40565 17.8004 7.11796 17.8004 8.91718C17.8004 11.2266 16.8557 13.3957 15.182 14.9344C14.1014 15.9484 12.9363 16.2504 9.85468 16.2504Z" fill="white" fill-opacity="0.25"/>
  <path d="M9.85468 2.63301C12.5748 2.63301 14.4974 2.10547 14.4974 1.3707C14.4974 0.626173 12.5766 0.118164 9.85468 0.118164C7.14061 0.118164 5.22148 0.626173 5.22148 1.3707C5.22148 2.10547 7.14237 2.63301 9.85468 2.63301Z" fill="white" fill-opacity="0.25"/>
 </g>
</svg>
