<?xml version="1.0" encoding="UTF-8"?>
<!--Generator: Apple Native CoreSVG 341-->
<!DOCTYPE svg
PUBLIC "-//W3C//DTD SVG 1.1//EN"
       "http://www.w3.org/Graphics/SVG/1.1/DTD/svg11.dtd">
<svg version="1.1" xmlns="http://www.w3.org/2000/svg" xmlns:xlink="http://www.w3.org/1999/xlink" viewBox="0 0 26.53 25.7918">
 <g>
  <rect height="25.7918" opacity="0" width="26.53" x="0" y="0"/>
  <path d="M3.05526 3.40488C4.00233 4.14453 6.15155 4.72656 8.36737 4.72656C8.87091 4.72656 9.37167 4.69609 9.85533 4.63934C9.5547 4.90777 9.28423 5.20296 9.04159 5.52168C8.8084 5.82302 8.60374 6.14183 8.42962 6.48067C8.40961 6.48198 8.3885 6.48202 8.36737 6.48202C6.17987 6.48202 4.27869 6.10702 3.18046 5.3828C2.91268 5.91112 2.79881 6.51952 2.79881 7.17597L2.79881 13.8187C2.79881 16.5428 4.17303 17.8596 7.57569 18.0276C7.5766 18.6496 7.62428 19.2307 7.71773 19.7719C3.16762 19.6236 1.06621 17.8352 1.06621 13.9582L1.06621 7.10214C1.06621 5.53866 1.43769 4.35488 2.0539 3.5375C2.28984 3.21308 2.69843 3.16367 3.05526 3.40488Z" fill="white" fill-opacity="0.25"/>
  <path d="M12.5129 2.36875C12.5129 3.04141 10.6814 3.51211 8.36913 3.51211C6.0789 3.51211 4.24745 3.04141 4.24745 2.36875C4.24745 1.68809 6.07714 1.21914 8.36913 1.21914C10.6832 1.21914 12.5129 1.68809 12.5129 2.36875Z" fill="white" fill-opacity="0.25"/>
  <path d="M17.0506 24.3723C22.5808 24.3723 25.1025 22.4037 25.1025 17.9551L25.1025 10.3916C25.1025 8.66288 24.7035 7.36464 24.0224 6.45937C23.7617 6.11015 23.3185 6.05547 22.9236 6.31972C21.8764 7.12773 19.5096 7.77285 17.0506 7.77285C14.5916 7.77285 12.2265 7.12773 11.1793 6.31972C10.7844 6.05547 10.3314 6.11015 10.0725 6.45937C9.39765 7.36464 9.00038 8.66288 9.00038 10.3916L9.00038 17.9551C9.00038 22.4037 11.5203 24.3723 17.0506 24.3723ZM17.0506 22.4713C12.6275 22.4713 10.8933 21.0314 10.8933 17.8041L10.8933 10.4654C10.8933 9.74316 11.0152 9.06717 11.323 8.48279C12.566 9.3119 14.7008 9.69842 17.0506 9.69842C19.4004 9.69842 21.5369 9.3119 22.7799 8.48279C23.0877 9.06717 23.2015 9.74316 23.2015 10.4654L23.2015 17.8041C23.2015 21.0314 21.4674 22.4713 17.0506 22.4713Z" fill="white" fill-opacity="0.25"/>
  <path d="M17.0435 6.43145C19.5857 6.43145 21.6107 5.90391 21.6107 5.1709C21.6107 4.41836 19.5875 3.90059 17.0435 3.90059C14.5074 3.90059 12.4922 4.41836 12.4922 5.1709C12.4922 5.90391 14.5092 6.43145 17.0435 6.43145Z" fill="white" fill-opacity="0.25"/>
 </g>
</svg>
