<?xml version="1.0" encoding="UTF-8"?>
<!--Generator: Apple Native CoreSVG 341-->
<!DOCTYPE svg
PUBLIC "-//W3C//DTD SVG 1.1//EN"
       "http://www.w3.org/Graphics/SVG/1.1/DTD/svg11.dtd">
<svg version="1.1" xmlns="http://www.w3.org/2000/svg" xmlns:xlink="http://www.w3.org/1999/xlink" viewBox="0 0 20.5381 20.1848">
 <g>
  <rect height="20.1848" opacity="0" width="20.5381" x="0" y="0"/>
  <path d="M10.0875 20.175C15.6576 20.175 20.1767 15.6559 20.1767 10.0875C20.1767 4.51914 15.6576 0 10.0875 0C4.51914 0 0 4.51914 0 10.0875C0 15.6559 4.51914 20.175 10.0875 20.175ZM10.0875 18.1879C5.60839 18.1879 1.9871 14.5666 1.9871 10.0875C1.9871 5.60839 5.60839 1.9871 10.0875 1.9871C14.5666 1.9871 18.1897 5.60839 18.1897 10.0875C18.1897 14.5666 14.5666 18.1879 10.0875 18.1879Z" fill="white" fill-opacity="0.25"/>
  <path d="M6.61777 13.6504L13.9623 13.6504C15.1244 13.6504 16.0273 12.7227 16.0273 11.5758C16.0273 10.5957 15.3748 9.81152 14.5268 9.5791C14.5348 9.46035 14.533 9.34511 14.5242 9.23437C14.4768 7.31347 12.9361 5.76542 10.9471 5.76542C9.78203 5.76542 8.73261 6.31601 8.08535 7.1916C7.925 7.16406 7.75214 7.15331 7.60683 7.16738C6.65722 7.2078 5.86562 7.90859 5.71562 8.87226C4.80566 9.23535 4.14765 10.1152 4.14765 11.2043C4.14765 12.7682 5.21757 13.6504 6.61777 13.6504Z" fill="white" fill-opacity="0.25"/>
 </g>
</svg>
