<?xml version="1.0" encoding="UTF-8"?>
<!--Generator: Apple Native CoreSVG 341-->
<!DOCTYPE svg
PUBLIC "-//W3C//DTD SVG 1.1//EN"
       "http://www.w3.org/Graphics/SVG/1.1/DTD/svg11.dtd">
<svg version="1.1" xmlns="http://www.w3.org/2000/svg" xmlns:xlink="http://www.w3.org/1999/xlink" viewBox="0 0 25.2865 23.1313">
 <g>
  <rect height="23.1313" opacity="0" width="25.2865" x="0" y="0"/>
  <path d="M16.0536 19.3282L6.00429 19.3282C2.59238 19.3282 0 16.8528 0 13.885C0 11.4495 1.38398 9.4399 3.61562 9.04615C3.63634 8.42014 3.78731 7.8411 4.04246 7.33131ZM21.8076 9.59713C23.74 10.4049 24.9252 12.2403 24.9252 14.3192C24.9252 16.5 23.4544 18.3413 21.3516 19.0286L7.32226 5.00765C7.79962 4.95201 8.29279 4.98537 8.78066 5.11666C10.0053 3.34967 11.948 2.00396 14.5523 2.00396C18.6361 2.00396 21.8201 5.18541 21.8076 9.59713Z" fill="white" fill-opacity="0.25"/>
  <path d="M20.1236 21.7049C20.4351 22.0084 20.925 22.0084 21.2232 21.7049C21.5267 21.4067 21.5348 20.9088 21.2232 20.6053L4.79003 4.17388C4.47675 3.8606 3.97265 3.88189 3.68066 4.17388C3.38691 4.46763 3.39843 4.99127 3.68066 5.27349Z" fill="white" fill-opacity="0.25"/>
 </g>
</svg>
