<?xml version="1.0" encoding="UTF-8"?>
<!--Generator: Apple Native CoreSVG 341-->
<!DOCTYPE svg
PUBLIC "-//W3C//DTD SVG 1.1//EN"
       "http://www.w3.org/Graphics/SVG/1.1/DTD/svg11.dtd">
<svg version="1.1" xmlns="http://www.w3.org/2000/svg" xmlns:xlink="http://www.w3.org/1999/xlink" viewBox="0 0 25.2014 19.0578">
 <g>
  <rect height="19.0578" opacity="0" width="25.2014" x="0" y="0"/>
  <path d="M0.021289 12.6131C0.290234 14.426 1.5627 15.9787 3.34844 16.7543L4.16171 15.015C3.05175 14.5504 2.24491 13.6617 1.99276 12.6131ZM4.81445 17.1851C5.17265 17.2533 5.56543 17.2914 5.96347 17.2914L9.33242 17.2914L9.33242 15.3781L6.05663 15.3781C5.92948 15.3781 5.79882 15.3701 5.68593 15.3621ZM10.8418 17.2914L14.7098 17.2914L14.7098 15.3781L10.8418 15.3781ZM16.2271 17.2914L19.4564 17.2914C19.9025 17.2914 20.3291 17.2435 20.7406 17.1576L19.8807 15.3461C19.71 15.3701 19.5393 15.3781 19.3703 15.3781L16.2271 15.3781ZM22.1658 16.6308C23.5615 15.8916 24.5648 14.6 24.8223 13.0775L22.8295 13.0775C22.6199 13.8437 22.076 14.4943 21.3463 14.8854ZM22.8836 11.5619L24.84 11.5619C24.6412 10.0713 23.8074 8.74589 22.5119 7.95058L20.7328 9.14647C21.874 9.56405 22.652 10.4275 22.8836 11.5619ZM19.9234 7.85448L21.726 6.66289C21.5892 5.28847 21.1355 4.06328 20.443 3.04941L18.9934 4.308C19.5299 5.14374 19.8604 6.13319 19.9234 7.16698C19.9332 7.39316 19.9332 7.62558 19.9234 7.85448ZM17.9871 3.17479L19.4668 1.89414C18.3457 0.841405 16.8935 0.155273 15.2603 0L15.2603 1.93182C16.3213 2.07655 17.2551 2.51991 17.9871 3.17479ZM10.0635 4.2578C10.882 3.01366 12.0553 2.1201 13.7482 1.91503L13.7482 0C11.8303 0.191797 10.2848 1.13594 9.22245 2.44453ZM5.33514 7.39882C5.61952 5.40858 7.07968 4.61522 8.67929 4.82225L7.783 2.93145C5.8916 2.88945 4.09121 4.22265 3.66973 6.18261ZM0 11.0957L1.96092 11.0957C2.18729 9.79882 3.02928 8.80819 4.32811 8.52675L2.62559 7.29648C1.15781 7.93886 0.216601 9.37167 0 11.0957Z" fill="white" fill-opacity="0.25"/>
 </g>
</svg>
