<?xml version="1.0" encoding="UTF-8"?>
<!--Generator: Apple Native CoreSVG 341-->
<!DOCTYPE svg
PUBLIC "-//W3C//DTD SVG 1.1//EN"
       "http://www.w3.org/Graphics/SVG/1.1/DTD/svg11.dtd">
<svg version="1.1" xmlns="http://www.w3.org/2000/svg" xmlns:xlink="http://www.w3.org/1999/xlink" viewBox="0 0 18.5894 18.2316">
 <g>
  <rect height="18.2316" opacity="0" width="18.5894" x="0" y="0"/>
  <path d="M18.2281 3.17148L18.2281 15.0646C18.2281 17.1502 17.1404 18.2281 15.0246 18.2281L3.20351 18.2281C1.0957 18.2281 0 17.1502 0 15.0646L0 3.17148C0 1.08769 1.0957 0 3.20351 0L15.0246 0C17.1404 0 18.2281 1.08769 18.2281 3.17148ZM7.07148 6.11582C6.89609 6.08652 6.71797 6.07753 6.56914 6.09335C5.58046 6.13378 4.75605 6.86113 4.60429 7.85937C3.658 8.24375 2.97695 9.15195 2.97695 10.2889C2.97695 11.9103 4.0832 12.8307 5.54277 12.8307L13.1699 12.8307C14.3799 12.8307 15.3191 11.8666 15.3191 10.6701C15.3191 9.65195 14.6418 8.83496 13.7592 8.59726C13.7672 8.46699 13.7717 8.35 13.7611 8.2375C13.7119 6.24394 12.1057 4.63203 10.0422 4.63203C8.82929 4.63203 7.74355 5.2039 7.07148 6.11582Z" fill="white" fill-opacity="0.25"/>
 </g>
</svg>
