<?xml version="1.0" encoding="UTF-8"?>
<!--Generator: Apple Native CoreSVG 341-->
<!DOCTYPE svg
PUBLIC "-//W3C//DTD SVG 1.1//EN"
       "http://www.w3.org/Graphics/SVG/1.1/DTD/svg11.dtd">
<svg version="1.1" xmlns="http://www.w3.org/2000/svg" xmlns:xlink="http://www.w3.org/1999/xlink" viewBox="0 0 25.2865 23.1313">
 <g>
  <rect height="23.1313" opacity="0" width="25.2865" x="0" y="0"/>
  <path d="M5.52051 8.8076C5.38822 9.22582 5.32032 9.71391 5.33143 10.2735C5.33495 10.4092 5.27909 10.4829 5.1371 10.4829C3.13709 10.4829 1.93436 11.9442 1.93436 13.8885C1.93436 15.7893 3.66991 17.4202 6.00781 17.4202L14.1433 17.4202L16.0589 19.3334L6.00429 19.3334C2.59238 19.3334 0 16.8563 0 13.8885C0 11.4547 1.38398 9.44341 3.61562 9.05142C3.63638 8.42383 3.78788 7.84346 4.04384 7.33269ZM21.8076 9.60064C23.74 10.4102 24.9252 12.2438 24.9252 14.3227C24.9252 16.5022 23.4562 18.3437 21.3554 19.0324L19.732 17.41C21.5878 17.3093 22.9908 15.9736 22.9908 14.3227C22.9908 12.5938 21.8553 11.3407 20.0814 10.994C19.9537 10.9665 19.9014 10.8963 19.9129 10.7606C19.959 10.2893 19.9953 9.72153 19.9643 9.20904C19.8088 6.36313 17.6289 3.92075 14.54 3.92075C12.1039 3.92075 10.6787 5.23891 9.71561 6.9354C9.6535 7.04634 9.57811 7.07563 9.45741 7.03833C9.40881 7.02298 9.3602 7.00851 9.31163 6.99584L7.32533 5.01072C7.80175 4.95567 8.29384 4.98917 8.78066 5.12018C10.0053 3.35494 11.948 2.00748 14.5523 2.00748C18.6361 2.00748 21.8201 5.18892 21.8076 9.60064Z" fill="white" fill-opacity="0.25"/>
  <path d="M20.1236 21.7049C20.4351 22.0084 20.925 22.0084 21.2232 21.7049C21.5267 21.4067 21.5348 20.9088 21.2232 20.6053L4.79003 4.17388C4.47675 3.8606 3.97265 3.88189 3.68066 4.17388C3.38691 4.46763 3.39843 4.99127 3.68066 5.27349Z" fill="white" fill-opacity="0.25"/>
 </g>
</svg>
