<?xml version="1.0" encoding="UTF-8"?>
<!--Generator: Apple Native CoreSVG 341-->
<!DOCTYPE svg
PUBLIC "-//W3C//DTD SVG 1.1//EN"
       "http://www.w3.org/Graphics/SVG/1.1/DTD/svg11.dtd">
<svg version="1.1" xmlns="http://www.w3.org/2000/svg" xmlns:xlink="http://www.w3.org/1999/xlink" viewBox="0 0 25.2865 25.7617">
 <g>
  <rect height="25.7617" opacity="0" width="25.2865" x="0" y="0"/>
  <path d="M21.8076 10.2262C23.74 10.9977 24.9252 12.668 24.9252 14.7285C24.9252 17.1955 23.051 19.0109 20.0019 19.0109L15.2006 19.0109L15.2006 17.0977L19.9553 17.0977C21.9832 17.0977 22.9908 16.0795 22.9908 14.6476C22.9908 13.0092 21.8693 11.968 20.0814 11.6195C19.9537 11.6017 19.9014 11.5219 19.9129 11.3861C19.959 10.9148 19.9953 10.3471 19.9643 9.84257C19.8088 6.98866 17.6289 4.54627 14.54 4.54627C12.1039 4.54627 10.6506 5.86893 9.71561 7.56893C9.65702 7.67987 9.57811 7.70292 9.45741 7.66385C7.36132 7.06034 5.27343 7.98534 5.33143 10.899C5.33495 11.0348 5.27909 11.1164 5.1371 11.1164C3.13709 11.1164 1.93436 12.4047 1.93436 14.2365C1.93436 15.8213 3.09257 17.0977 5.23652 17.0977L9.70527 17.0977L9.70527 19.0109L5.23925 19.0109C1.99218 19.0109 0 16.8916 0 14.2699C0 11.9213 1.38398 10.0654 3.61562 9.68496C3.70664 6.925 6.46719 5.17109 8.78066 5.7457C10.0053 3.98047 11.948 2.63301 14.5523 2.63301C18.6361 2.63301 21.8201 5.81445 21.8076 10.2262Z" fill="white" fill-opacity="0.25"/>
  <path d="M9.09882 14.6262C9.32578 14.6262 9.5537 14.534 9.708 14.3601L11.1074 12.8719L12.456 11.2447L13.7967 12.8719L15.1881 14.3601C15.3521 14.534 15.5721 14.6262 15.799 14.6262C16.2398 14.6262 16.6086 14.2998 16.6086 13.8512C16.6086 13.6082 16.5119 13.4344 16.3478 13.2703L13.1322 10.1771C12.9017 9.94668 12.69 9.87402 12.456 9.87402C12.2158 9.87402 12.0041 9.94668 11.7719 10.1771L8.55801 13.2703C8.39395 13.4344 8.29727 13.6082 8.29727 13.8512C8.29727 14.2998 8.65 14.6262 9.09882 14.6262ZM12.456 23.9748C12.9516 23.9748 13.3558 23.5697 13.3558 23.0928L13.3558 13.6963L13.1982 10.8971C13.1717 10.4865 12.8586 10.1549 12.456 10.1549C12.0473 10.1549 11.7342 10.4865 11.7076 10.8971L11.55 13.6963L11.55 23.0928C11.55 23.5697 11.9605 23.9748 12.456 23.9748Z" fill="white" fill-opacity="0.25"/>
 </g>
</svg>
