<?xml version="1.0" encoding="UTF-8"?>
<!--Generator: Apple Native CoreSVG 341-->
<!DOCTYPE svg
PUBLIC "-//W3C//DTD SVG 1.1//EN"
       "http://www.w3.org/Graphics/SVG/1.1/DTD/svg11.dtd">
<svg version="1.1" xmlns="http://www.w3.org/2000/svg" xmlns:xlink="http://www.w3.org/1999/xlink" viewBox="0 0 20.5381 20.1848">
 <g>
  <rect height="20.1848" opacity="0" width="20.5381" x="0" y="0"/>
  <path d="M20.1767 10.0973C20.1767 15.6656 15.6576 20.1848 10.0875 20.1848C4.52715 20.1848 0 15.6656 0 10.0973C0 4.53691 4.52715 0.00976562 10.0875 0.00976562C15.6576 0.00976562 20.1767 4.53691 20.1767 10.0973ZM8.0207 7.10214C7.84531 7.07285 7.66719 7.07187 7.51836 7.08769C6.52793 7.12988 5.70527 7.85546 5.55351 8.8457C4.60546 9.23808 3.92441 10.1383 3.92441 11.2832C3.92441 12.9064 5.03242 13.8187 6.49023 13.8187L14.1174 13.8187C15.3291 13.8187 16.2684 12.8627 16.2684 11.6564C16.2684 10.6383 15.591 9.82929 14.7066 9.59336C14.7146 9.46133 14.7129 9.33633 14.7023 9.22383C14.6531 7.23203 13.0531 5.61835 10.9896 5.61835C9.77851 5.61835 8.69277 6.19824 8.0207 7.10214Z" fill="white" fill-opacity="0.25"/>
 </g>
</svg>
