<?xml version="1.0" encoding="UTF-8"?>
<!--Generator: Apple Native CoreSVG 341-->
<!DOCTYPE svg
PUBLIC "-//W3C//DTD SVG 1.1//EN"
       "http://www.w3.org/Graphics/SVG/1.1/DTD/svg11.dtd">
<svg version="1.1" xmlns="http://www.w3.org/2000/svg" xmlns:xlink="http://www.w3.org/1999/xlink" viewBox="0 0 25.2865 24.1781">
 <g>
  <rect height="24.1781" opacity="0" width="25.2865" x="0" y="0"/>
  <path d="M0 13.4781C0 16.0998 1.99218 18.2191 5.23925 18.2191L20.0019 18.2191C23.051 18.2191 24.9252 16.4037 24.9252 13.9367C24.9252 11.8762 23.74 10.2058 21.8076 9.43436C21.8201 5.02264 18.6361 1.8412 14.5523 1.8412C11.948 1.8412 10.0053 3.18866 8.78066 4.9539C6.46719 4.37929 3.70664 6.13319 3.61562 8.89315C1.38398 9.27362 0 11.1295 0 13.4781ZM9.09882 19.4242C9.32578 19.4242 9.5537 19.5084 9.708 19.684L11.1074 21.1722L12.456 22.7976L13.7967 21.1722L15.1881 19.684C15.3521 19.5084 15.5721 19.4242 15.799 19.4242C16.2398 19.4242 16.6086 19.7443 16.6086 20.2009C16.6086 20.4342 16.5119 20.608 16.3478 20.772L13.1322 23.867C12.9017 24.0957 12.69 24.1781 12.456 24.1781C12.2158 24.1781 12.0041 24.0957 11.7719 23.867L8.55801 20.772C8.39395 20.608 8.29727 20.4342 8.29727 20.2009C8.29727 19.7443 8.65 19.4242 9.09882 19.4242ZM12.456 11.0912C12.9516 11.0912 13.3558 11.4945 13.3558 11.9715L13.3558 20.3461L13.1982 23.147C13.1717 23.5558 12.8586 23.8955 12.456 23.8955C12.0473 23.8955 11.7342 23.5558 11.7076 23.147L11.55 20.3461L11.55 11.9715C11.55 11.4945 11.9605 11.0912 12.456 11.0912Z" fill="white" fill-opacity="0.25"/>
 </g>
</svg>
