<?xml version="1.0" encoding="UTF-8"?>
<!--Generator: Apple Native CoreSVG 341-->
<!DOCTYPE svg
PUBLIC "-//W3C//DTD SVG 1.1//EN"
       "http://www.w3.org/Graphics/SVG/1.1/DTD/svg11.dtd">
<svg version="1.1" xmlns="http://www.w3.org/2000/svg" xmlns:xlink="http://www.w3.org/1999/xlink" viewBox="0 0 25.2865 22.0598">
 <g>
  <rect height="22.0598" opacity="0" width="25.2865" x="0" y="0"/>
  <path d="M0 12.4189C0 15.0406 1.99218 17.1599 5.23925 17.1599L20.0019 17.1599C23.051 17.1599 24.9252 15.3445 24.9252 12.8775C24.9252 10.817 23.74 9.14668 21.8076 8.37519C21.8201 3.96347 18.6361 0.782031 14.5523 0.782031C11.948 0.782031 10.0053 2.12949 8.78066 3.89473C6.46719 3.32012 3.70664 5.07402 3.61562 7.83398C1.38398 8.21445 0 10.0703 0 12.4189ZM12.456 22.0598C11.9605 22.0598 11.55 21.6547 11.55 21.1777L11.55 11.8664L11.642 10.4201L11.1074 11.0402L9.708 12.5303C9.5537 12.7041 9.32578 12.7963 9.09882 12.7963C8.65 12.7963 8.29727 12.4682 8.29727 12.0195C8.29727 11.7783 8.39395 11.6045 8.55801 11.4404L11.7719 8.3455C12.0041 8.11679 12.2158 8.04238 12.456 8.04238C12.69 8.04238 12.9017 8.11679 13.1322 8.3455L16.3478 11.4404C16.5119 11.6045 16.6086 11.7783 16.6086 12.0195C16.6086 12.4682 16.2398 12.7963 15.799 12.7963C15.5721 12.7963 15.3521 12.7041 15.1881 12.5303L13.7967 11.0402L13.2639 10.4201L13.3558 11.8664L13.3558 21.1777C13.3558 21.6547 12.9516 22.0598 12.456 22.0598Z" fill="white" fill-opacity="0.25"/>
 </g>
</svg>
