<?xml version="1.0" encoding="UTF-8"?>
<!--Generator: Apple Native CoreSVG 341-->
<!DOCTYPE svg
PUBLIC "-//W3C//DTD SVG 1.1//EN"
       "http://www.w3.org/Graphics/SVG/1.1/DTD/svg11.dtd">
<svg version="1.1" xmlns="http://www.w3.org/2000/svg" xmlns:xlink="http://www.w3.org/1999/xlink" viewBox="0 0 25.2865 27.832">
 <g>
  <rect height="27.832" opacity="0" width="25.2865" x="0" y="0"/>
  <path d="M21.8076 11.2613C23.74 12.0328 24.9252 13.7031 24.9252 15.7637C24.9252 18.2306 23.051 20.0461 20.0019 20.0461L15.2006 20.0461L15.2006 18.1328L19.9553 18.1328C21.9832 18.1328 22.9908 17.1146 22.9908 15.6828C22.9908 14.0443 21.8693 13.0031 20.0814 12.6547C19.9537 12.6369 19.9014 12.557 19.9129 12.4213C19.959 11.95 19.9953 11.3822 19.9643 10.8777C19.8088 8.02381 17.6289 5.58142 14.54 5.58142C12.1039 5.58142 10.6506 6.90408 9.71561 8.60408C9.65702 8.71502 9.57811 8.73806 9.45741 8.699C7.36132 8.09549 5.27343 9.02048 5.33143 11.9342C5.33495 12.0699 5.27909 12.1515 5.1371 12.1515C3.13709 12.1515 1.93436 13.4398 1.93436 15.2717C1.93436 16.8564 3.09257 18.1328 5.23652 18.1328L9.70527 18.1328L9.70527 20.0461L5.23925 20.0461C1.99218 20.0461 0 17.9267 0 15.3051C0 12.9564 1.38398 11.1006 3.61562 10.7201C3.70664 7.96014 6.46719 6.20624 8.78066 6.78085C10.0053 5.01562 11.948 3.66815 14.5523 3.66815C18.6361 3.66815 21.8201 6.8496 21.8076 11.2613Z" fill="white" fill-opacity="0.25"/>
  <path d="M9.09882 21.2511C8.65 21.2511 8.29727 21.5713 8.29727 22.0279C8.29727 22.2611 8.39395 22.4349 8.55801 22.599L11.7719 25.6939C12.0041 25.9226 12.2158 26.005 12.456 26.005C12.69 26.005 12.9017 25.9226 13.1322 25.6939L16.3478 22.599C16.5119 22.4349 16.6086 22.2611 16.6086 22.0279C16.6086 21.5713 16.2398 21.2511 15.799 21.2511C15.5721 21.2511 15.3521 21.3353 15.1881 21.5109L13.7967 22.9992L12.456 24.6246L11.1074 22.9992L9.708 21.5109C9.5537 21.3353 9.32578 21.2511 9.09882 21.2511ZM12.456 12.9181C11.9605 12.9181 11.55 13.3215 11.55 13.7984L11.55 22.173L11.7076 24.974C11.7342 25.3828 12.0473 25.7224 12.456 25.7224C12.8586 25.7224 13.1717 25.3828 13.1982 24.974L13.3558 22.173L13.3558 13.7984C13.3558 13.3215 12.9516 12.9181 12.456 12.9181Z" fill="white" fill-opacity="0.25"/>
 </g>
</svg>
