<?xml version="1.0" encoding="UTF-8"?>
<!--Generator: Apple Native CoreSVG 341-->
<!DOCTYPE svg
PUBLIC "-//W3C//DTD SVG 1.1//EN"
       "http://www.w3.org/Graphics/SVG/1.1/DTD/svg11.dtd">
<svg version="1.1" xmlns="http://www.w3.org/2000/svg" xmlns:xlink="http://www.w3.org/1999/xlink" viewBox="0 0 18.5894 18.2316">
 <g>
  <rect height="18.2316" opacity="0" width="18.5894" x="0" y="0"/>
  <path d="M3.20351 18.2281L15.0246 18.2281C17.1404 18.2281 18.2281 17.1502 18.2281 15.0646L18.2281 3.17148C18.2281 1.08769 17.1404 0 15.0246 0L3.20351 0C1.0957 0 0 1.08769 0 3.17148L0 15.0646C0 17.1502 1.0957 18.2281 3.20351 18.2281ZM3.31444 16.3148C2.40643 16.3148 1.91327 15.8465 1.91327 14.8977L1.91327 3.34023C1.91327 2.39139 2.40643 1.91503 3.31444 1.91503L14.9137 1.91503C15.8137 1.91503 16.3148 2.39139 16.3148 3.34023L16.3148 14.8977C16.3148 15.8465 15.8137 16.3148 14.9137 16.3148Z" fill="white" fill-opacity="0.25"/>
  <path d="M5.68534 12.6457L12.9736 12.6457C14.127 12.6457 15.0229 11.725 15.0229 10.5869C15.0229 9.61562 14.3756 8.83671 13.5328 8.60605C13.5408 8.48906 13.5471 8.37558 13.5383 8.2666C13.4926 6.35976 11.9562 4.82226 9.98125 4.82226C8.82324 4.82226 7.78261 5.36757 7.14062 6.23788C6.98203 6.21035 6.81093 6.1996 6.66914 6.21367C5.7248 6.25058 4.93671 6.94784 4.78847 7.90449C3.88554 8.26582 3.2328 9.13867 3.2328 10.2172C3.2328 11.7723 4.29569 12.6457 5.68534 12.6457Z" fill="white" fill-opacity="0.25"/>
 </g>
</svg>
