<?xml version="1.0" encoding="UTF-8"?>
<!--Generator: Apple Native CoreSVG 341-->
<!DOCTYPE svg
PUBLIC "-//W3C//DTD SVG 1.1//EN"
       "http://www.w3.org/Graphics/SVG/1.1/DTD/svg11.dtd">
<svg version="1.1" xmlns="http://www.w3.org/2000/svg" xmlns:xlink="http://www.w3.org/1999/xlink" viewBox="0 0 22.3902 24.7879">
 <g>
  <rect height="24.7879" opacity="0" width="22.3902" x="0" y="0"/>
  <path d="M17.5514 3.36952L9.55896 3.36952C8.28124 3.36952 7.22227 3.88858 6.57463 4.758L2.73319 4.758L2.73319 20.0184L5.86835 20.0184L5.86835 21.1773C5.86835 22.1508 6.18723 22.9872 6.74142 23.6066L3.72187 23.6066C1.97343 23.6066 0.81992 22.5029 0.81992 20.8123L0.81992 3.96229C0.81992 2.27168 1.97343 1.15996 3.72187 1.15996L14.7004 1.15996C16.2421 1.15996 17.3131 2.01648 17.5514 3.36952Z" fill="white" fill-opacity="0.25"/>
  <path d="M9.55896 23.6049L18.6978 23.6049C20.2168 23.6049 21.209 22.6465 21.209 21.1773L21.209 6.98182C21.209 5.51268 20.2168 4.55077 18.6978 4.55077L9.55896 4.55077C8.04178 4.55077 7.05135 5.51268 7.05135 6.98182L7.05135 21.1773C7.05135 22.6465 8.04178 23.6049 9.55896 23.6049ZM13.9176 6.7035C13.6478 6.7035 13.426 6.48338 13.426 6.20389C13.426 5.93592 13.6478 5.70252 13.9176 5.70252C14.1855 5.70252 14.4189 5.93592 14.4189 6.20389C14.4189 6.48338 14.1855 6.7035 13.9176 6.7035ZM8.86091 20.3447L8.86091 7.80662L19.3896 7.80662L19.3896 20.3447ZM13.9256 22.7096C13.4943 22.7096 13.1385 22.3537 13.1385 21.9207C13.1385 21.493 13.4943 21.1336 13.9256 21.1336C14.3551 21.1336 14.7127 21.493 14.7127 21.9207C14.7127 22.3537 14.3551 22.7096 13.9256 22.7096Z" fill="white" fill-opacity="0.25"/>
 </g>
</svg>
