<?xml version="1.0" encoding="UTF-8"?>
<!--Generator: Apple Native CoreSVG 341-->
<!DOCTYPE svg
PUBLIC "-//W3C//DTD SVG 1.1//EN"
       "http://www.w3.org/Graphics/SVG/1.1/DTD/svg11.dtd">
<svg version="1.1" xmlns="http://www.w3.org/2000/svg" xmlns:xlink="http://www.w3.org/1999/xlink" viewBox="0 0 33.732 21.2324">
 <g>
  <rect height="21.2324" opacity="0" width="33.732" x="0" y="0"/>
  <path d="M28.3392 4.68339L28.3392 5.46444L26.426 5.46444L26.426 4.84237C26.426 3.89354 25.9168 3.42517 25.0168 3.42517L8.35389 3.42517C7.44412 3.42517 6.94646 3.89354 6.94646 4.84237L6.94646 16.4078C6.94646 17.3566 7.44764 17.8268 8.35565 17.8268L22.1972 17.8268C22.494 18.3167 22.9089 18.7108 23.4156 19.0012L23.6301 19.6594C23.6385 19.687 23.6473 19.7144 23.658 19.74L8.23671 19.74C6.13515 19.74 5.02968 18.6586 5.02968 16.565L5.02968 4.68339C5.02968 2.58983 6.13339 1.51191 8.23495 1.51191L25.1357 1.51191C27.2453 1.51191 28.3392 2.59784 28.3392 4.68339ZM20.9459 16.5711C20.9459 16.8621 20.748 17.0484 20.4685 17.0484L12.9021 17.0484C12.6244 17.0484 12.4185 16.8621 12.4185 16.5711C12.4185 16.2801 12.6244 16.084 12.9021 16.084L20.4685 16.084C20.748 16.084 20.9459 16.2801 20.9459 16.5711Z" fill="white" fill-opacity="0.25"/>
  <path d="M25.7955 19.847L28.575 19.847C28.9637 19.847 29.2724 19.6847 29.4162 19.2408L29.6467 18.5648C29.7594 18.2088 29.9394 17.9691 30.2732 17.7828C30.8945 17.4404 31.3324 16.8039 31.3324 15.7943L31.3324 10.9105C31.3324 9.90897 30.9025 9.27069 30.2732 8.91405C29.9394 8.71795 29.7594 8.49608 29.6467 8.14803L29.4162 7.44803C29.2805 7.0201 28.9637 6.84979 28.575 6.84979L25.7955 6.84979C25.4051 6.84979 25.066 7.0201 24.9383 7.44803L24.7221 8.14803C24.6156 8.52186 24.3937 8.73924 24.0715 8.91405C23.4662 9.25467 23.0443 9.90897 23.0443 10.9105L23.0443 15.7943C23.0443 16.8039 23.4582 17.4324 24.0715 17.7828C24.4088 17.9691 24.6156 18.2008 24.7221 18.5648L24.9383 19.2408C25.074 19.6928 25.4051 19.847 25.7955 19.847ZM25.4625 16.6332C24.7494 16.6332 24.4234 16.2957 24.4234 15.5533L24.4234 11.1355C24.4234 10.3976 24.7494 10.0601 25.4625 10.0601L28.908 10.0601C29.6308 10.0601 29.9426 10.4012 29.9426 11.1355L29.9426 15.5533C29.9426 16.2939 29.6131 16.6332 28.908 16.6332ZM31.0291 12.9527L31.3744 12.9527C31.7178 12.9527 31.9342 12.7123 31.9342 12.3476L31.9342 11.5238C31.9342 11.1707 31.7178 10.933 31.3744 10.933L31.0291 10.933Z" fill="white" fill-opacity="0.25"/>
 </g>
</svg>
