<?xml version="1.0" encoding="UTF-8"?>
<!--Generator: Apple Native CoreSVG 341-->
<!DOCTYPE svg
PUBLIC "-//W3C//DTD SVG 1.1//EN"
       "http://www.w3.org/Graphics/SVG/1.1/DTD/svg11.dtd">
<svg version="1.1" xmlns="http://www.w3.org/2000/svg" xmlns:xlink="http://www.w3.org/1999/xlink" viewBox="0 0 17.142 22.468">
 <g>
  <rect height="22.468" opacity="0" width="17.142" x="0" y="0"/>
  <path d="M0 19.6523C0 21.343 1.14375 22.4467 2.90019 22.4467L13.8805 22.4467C15.6369 22.4467 16.7806 21.343 16.7806 19.6523L16.7806 2.80234C16.7806 1.11172 15.6369 0 13.8805 0L2.90019 0C1.14375 0 0 1.11172 0 2.80234ZM7.04921 19.3125C6.65371 19.3125 6.32832 18.9808 6.32832 18.5836L6.32832 3.87108C6.32832 3.47382 6.65371 3.14218 7.04921 3.14218C7.44999 3.14218 7.77812 3.47382 7.77812 3.87108L7.77812 18.5836C7.77812 18.9808 7.44999 19.3125 7.04921 19.3125ZM12.1967 19.3125C11.7959 19.3125 11.4678 18.9808 11.4678 18.5836L11.4678 3.87108C11.4678 3.47382 11.7959 3.14218 12.1967 3.14218C12.5922 3.14218 12.9176 3.47382 12.9176 3.87108L12.9176 18.5836C12.9176 18.9808 12.5922 19.3125 12.1967 19.3125Z" fill="white" fill-opacity="0.25"/>
 </g>
</svg>
