<?xml version="1.0" encoding="UTF-8"?>
<!--Generator: Apple Native CoreSVG 341-->
<!DOCTYPE svg
PUBLIC "-//W3C//DTD SVG 1.1//EN"
       "http://www.w3.org/Graphics/SVG/1.1/DTD/svg11.dtd">
<svg version="1.1" xmlns="http://www.w3.org/2000/svg" xmlns:xlink="http://www.w3.org/1999/xlink" viewBox="0 0 30.2312 21.0183">
 <g>
  <rect height="21.0183" opacity="0" width="30.2312" x="0" y="0"/>
  <path d="M26.5889 4.57636L26.5889 4.82304L24.6756 4.82304L24.6756 4.73534C24.6756 3.78651 24.1664 3.31815 23.2664 3.31815L6.6035 3.31815C5.69373 3.31815 5.19608 3.78651 5.19608 4.73534L5.19608 16.3008C5.19608 17.2496 5.69725 17.7197 6.60526 17.7197L18.748 17.7197L18.748 17.9422C18.748 18.5812 18.9184 19.1579 19.2237 19.633L6.48632 19.633C4.38476 19.633 3.27929 18.5516 3.27929 16.458L3.27929 4.57636C3.27929 2.48281 4.383 1.40488 6.48456 1.40488L23.3853 1.40488C25.4949 1.40488 26.5889 2.49082 26.5889 4.57636ZM18.748 15.9783L18.748 16.9402C18.7383 16.9412 18.7283 16.9414 18.7182 16.9414L11.1517 16.9414C10.874 16.9414 10.6682 16.7551 10.6682 16.4641C10.6682 16.1731 10.874 15.977 11.1517 15.977L18.7182 15.977C18.7283 15.977 18.7383 15.9772 18.748 15.9783Z" fill="white" fill-opacity="0.25"/>
  <path d="M20.1271 17.9422C20.1271 18.9514 20.8301 19.633 21.8961 19.633L26.6844 19.633C27.7363 19.633 28.4349 18.9514 28.4349 17.9387L28.4349 7.88671C28.4349 6.89003 27.7363 6.20214 26.6844 6.20214L21.8961 6.20214C20.8301 6.20214 20.1271 6.89003 20.1271 7.88671ZM21.5638 17.081L21.5638 8.75057L27 8.75057L27 17.081ZM24.2908 18.9463C23.9678 18.9463 23.7086 18.6756 23.7086 18.3605C23.7086 18.041 23.9678 17.7783 24.2908 17.7783C24.6121 17.7783 24.8633 18.041 24.8633 18.3605C24.8633 18.6756 24.6121 18.9463 24.2908 18.9463ZM24.2908 7.87147C24.0627 7.87147 23.8994 7.70018 23.8994 7.46854C23.8994 7.24843 24.0627 7.0869 24.2908 7.0869C24.5127 7.0869 24.676 7.24843 24.676 7.46854C24.676 7.70018 24.5127 7.87147 24.2908 7.87147Z" fill="white" fill-opacity="0.25"/>
 </g>
</svg>
