<?xml version="1.0" encoding="UTF-8"?>
<!--Generator: Apple Native CoreSVG 341-->
<!DOCTYPE svg
PUBLIC "-//W3C//DTD SVG 1.1//EN"
       "http://www.w3.org/Graphics/SVG/1.1/DTD/svg11.dtd">
<svg version="1.1" xmlns="http://www.w3.org/2000/svg" xmlns:xlink="http://www.w3.org/1999/xlink" viewBox="0 0 23.6629 23.0804">
 <g>
  <rect height="23.0804" opacity="0" width="23.6629" x="0" y="0"/>
  <path d="M0.712894 3.40505L3.58827 6.28137L3.58827 18.7508L16.0536 18.7508L17.9662 20.664L3.20527 20.664C1.09746 20.664 0 19.5826 0 17.489L0 5.60739C0 4.64683 0.230657 3.90008 0.686681 3.3759ZM23.3016 5.60739L23.3016 17.489C23.3016 18.4441 23.0735 19.1902 22.6203 19.7159C22.6175 19.7121 22.6142 19.7088 22.6109 19.7054L19.7098 16.8033L19.7098 4.34918L7.25969 4.34918L5.34705 2.43591L20.098 2.43591C22.2139 2.43591 23.3016 3.52184 23.3016 5.60739ZM20.4519 11.5353C20.4519 12.0375 20.8432 12.4447 21.3435 12.4447C21.8537 12.4447 22.2529 12.0375 22.2529 11.5353C22.2529 11.0429 21.8537 10.6357 21.3516 10.6357C20.8512 10.6357 20.4519 11.0429 20.4519 11.5353ZM1.34218 11.5353C1.35195 11.8591 1.61015 12.1271 1.92597 12.1191C2.23378 12.1111 2.49374 11.8591 2.49374 11.5353C2.49374 11.2293 2.24179 10.9693 1.91796 10.9693C1.60214 10.9693 1.33418 11.2293 1.34218 11.5353Z" fill="white" fill-opacity="0.25"/>
  <path d="M20.6506 21.6515C20.9523 21.955 21.4564 21.9515 21.7502 21.6498C22.0519 21.348 22.0599 20.8537 21.7582 20.5502L2.675 1.46072C2.37324 1.1572 1.87715 1.14919 1.56563 1.46072C1.27364 1.75271 1.27364 2.26657 1.56563 2.56032Z" fill="white" fill-opacity="0.25"/>
 </g>
</svg>
