<?xml version="1.0" encoding="UTF-8"?>
<!--Generator: Apple Native CoreSVG 341-->
<!DOCTYPE svg
PUBLIC "-//W3C//DTD SVG 1.1//EN"
       "http://www.w3.org/Graphics/SVG/1.1/DTD/svg11.dtd">
<svg version="1.1" xmlns="http://www.w3.org/2000/svg" xmlns:xlink="http://www.w3.org/1999/xlink" viewBox="0 0 20.5381 20.1848">
 <g>
  <rect height="20.1848" opacity="0" width="20.5381" x="0" y="0"/>
  <path d="M10.107 12.8156C9.66132 12.8156 9.2955 12.4596 9.2955 12.0139C9.2955 11.5779 9.66132 11.2299 10.107 11.2299C10.5332 11.2299 10.891 11.5779 10.891 12.0139C10.891 12.4596 10.5332 12.8156 10.107 12.8156ZM16.6244 3.68027L15.1381 2.52167L15.1381 10.6078L5.03866 10.6078L5.03866 2.55351L3.55058 3.79003L3.55058 11.3012C3.55058 12.6084 4.43651 13.4668 5.78827 13.4668L14.3867 13.4668C15.7402 13.4668 16.6244 12.6084 16.6244 11.3012ZM10.0875 20.175C15.6576 20.175 20.1767 15.6559 20.1767 10.0875C20.1767 4.51914 15.6576 0 10.0875 0C4.51914 0 0 4.51914 0 10.0875C0 15.6559 4.51914 20.175 10.0875 20.175ZM10.0875 18.1879C5.60839 18.1879 1.9871 14.5666 1.9871 10.0875C1.9871 5.60839 5.60839 1.9871 10.0875 1.9871C14.5666 1.9871 18.1897 5.60839 18.1897 10.0875C18.1897 14.5666 14.5666 18.1879 10.0875 18.1879Z" fill="white" fill-opacity="0.25"/>
 </g>
</svg>
