<?xml version="1.0" encoding="UTF-8"?>
<!--Generator: Apple Native CoreSVG 341-->
<!DOCTYPE svg
PUBLIC "-//W3C//DTD SVG 1.1//EN"
       "http://www.w3.org/Graphics/SVG/1.1/DTD/svg11.dtd">
<svg version="1.1" xmlns="http://www.w3.org/2000/svg" xmlns:xlink="http://www.w3.org/1999/xlink" viewBox="0 0 29.6336 24.7441">
 <g>
  <rect height="24.7441" opacity="0" width="29.6336" x="0" y="0"/>
  <path d="M5.7057 5.26768C5.17881 5.44266 4.89725 5.88451 4.89725 6.59821L4.89725 18.1636C4.89725 19.1125 5.39842 19.5826 6.30643 19.5826L18.4492 19.5826L18.4492 19.6451C18.4492 20.3582 18.6323 20.9872 18.9643 21.4959L6.18749 21.4959C4.08593 21.4959 2.98046 20.4144 2.98046 18.3209L2.98046 6.43923C2.98046 5.16 3.39254 4.25997 4.19467 3.75548ZM18.4492 18.021L18.4492 18.803C18.4395 18.804 18.4295 18.8043 18.4193 18.8043L10.8529 18.8043C10.5752 18.8043 10.3693 18.6179 10.3693 18.3269C10.3693 18.0359 10.5752 17.8398 10.8529 17.8398L18.2682 17.8398ZM26.29 6.43923L26.29 6.68591L24.3768 6.68591L24.3768 6.59821C24.3768 5.64938 23.8676 5.18102 22.9676 5.18102L11.2209 5.18102L9.30906 3.26775L23.0865 3.26775C25.1961 3.26775 26.29 4.35368 26.29 6.43923Z" fill="white" fill-opacity="0.25"/>
  <path d="M21.9214 21.4959L21.7617 21.4959C20.5508 21.4959 19.8283 20.809 19.8283 19.6451L19.8283 19.4012ZM28.2465 9.92555L28.2465 19.6433C28.2465 20.441 27.9168 21.0145 27.3242 21.2968L26.0639 20.0355L26.2224 20.0355C26.617 20.0355 26.8178 19.8232 26.8178 19.4127L26.8178 10.1545C26.8178 9.74391 26.617 9.52535 26.2224 9.52535L21.8621 9.52535C21.4658 9.52535 21.257 9.74039 21.257 10.1527L21.257 15.2249L19.8283 13.7951L19.8283 9.92379C19.8283 8.75993 20.5508 8.06501 21.7617 8.06501L26.3439 8.06501C27.5426 8.06501 28.2465 8.75993 28.2465 9.92555ZM25.7135 19.1676C25.7135 19.3185 25.633 19.4324 25.5132 19.4844L24.8525 18.8232L25.3566 18.8232C25.5572 18.8232 25.7135 18.9732 25.7135 19.1676ZM25.2597 10.4611C25.2597 10.73 25.0512 10.9306 24.7849 10.9306L23.264 10.9306C22.9978 10.9306 22.7972 10.73 22.7972 10.4611C22.7972 10.2029 22.9996 10.0023 23.264 10.0023L24.7849 10.0023C25.0459 10.0023 25.2597 10.2029 25.2597 10.4611Z" fill="white" fill-opacity="0.25"/>
  <path d="M25.4441 23.3152C25.7476 23.6187 26.242 23.6134 26.5437 23.3134C26.8375 23.0099 26.8553 22.5174 26.5517 22.2138L5.78632 1.44841C5.4828 1.14665 4.98847 1.13865 4.67694 1.44841C4.38319 1.74216 4.38319 2.24802 4.67694 2.54802Z" fill="white" fill-opacity="0.25"/>
 </g>
</svg>
