<?xml version="1.0" encoding="UTF-8"?>
<!--Generator: Apple Native CoreSVG 341-->
<!DOCTYPE svg
PUBLIC "-//W3C//DTD SVG 1.1//EN"
       "http://www.w3.org/Graphics/SVG/1.1/DTD/svg11.dtd">
<svg version="1.1" xmlns="http://www.w3.org/2000/svg" xmlns:xlink="http://www.w3.org/1999/xlink" viewBox="0 0 29.6336 21.0183">
 <g>
  <rect height="21.0183" opacity="0" width="29.6336" x="0" y="0"/>
  <path d="M26.29 4.57636L26.29 4.82304L24.3768 4.82304L24.3768 4.73534C24.3768 3.78651 23.8676 3.31815 22.9676 3.31815L6.30467 3.31815C5.3949 3.31815 4.89725 3.78651 4.89725 4.73534L4.89725 16.3008C4.89725 17.2496 5.39842 17.7197 6.30643 17.7197L18.4492 17.7197L18.4492 17.7822C18.4492 18.4954 18.6323 19.1244 18.9643 19.633L6.18749 19.633C4.08593 19.633 2.98046 18.5516 2.98046 16.458L2.98046 4.57636C2.98046 2.48281 4.08417 1.40488 6.18573 1.40488L23.0865 1.40488C25.1961 1.40488 26.29 2.49082 26.29 4.57636ZM18.4492 15.9783L18.4492 16.9402C18.4395 16.9412 18.4295 16.9414 18.4193 16.9414L10.8529 16.9414C10.5752 16.9414 10.3693 16.7551 10.3693 16.4641C10.3693 16.1731 10.5752 15.977 10.8529 15.977L18.4193 15.977C18.4295 15.977 18.4395 15.9772 18.4492 15.9783Z" fill="white" fill-opacity="0.25"/>
  <path d="M21.7617 19.633L26.3439 19.633C27.5426 19.633 28.2465 18.9461 28.2465 17.7805L28.2465 8.06268C28.2465 6.89706 27.5426 6.20214 26.3439 6.20214L21.7617 6.20214C20.5508 6.20214 19.8283 6.89706 19.8283 8.06093L19.8283 17.7822C19.8283 18.9461 20.5508 19.633 21.7617 19.633ZM21.8621 18.1727C21.4658 18.1727 21.257 17.9639 21.257 17.5516L21.257 8.28983C21.257 7.87752 21.4658 7.66248 21.8621 7.66248L26.2224 7.66248C26.617 7.66248 26.8178 7.88104 26.8178 8.29159L26.8178 17.5498C26.8178 17.9603 26.617 18.1727 26.2224 18.1727ZM22.7154 17.6535L25.3566 17.6535C25.5572 17.6535 25.7135 17.515 25.7135 17.3047C25.7135 17.1103 25.5572 16.9603 25.3566 16.9603L22.7154 16.9603C22.5148 16.9603 22.3711 17.1103 22.3711 17.3047C22.3711 17.523 22.4988 17.6535 22.7154 17.6535ZM23.264 9.06776L24.7849 9.06776C25.0512 9.06776 25.2597 8.86717 25.2597 8.59822C25.2597 8.34002 25.0459 8.13944 24.7849 8.13944L23.264 8.13944C22.9996 8.13944 22.7972 8.34002 22.7972 8.59822C22.7972 8.86717 22.9978 9.06776 23.264 9.06776Z" fill="white" fill-opacity="0.25"/>
 </g>
</svg>
