<?xml version="1.0" encoding="UTF-8"?>
<!--Generator: Apple Native CoreSVG 341-->
<!DOCTYPE svg
PUBLIC "-//W3C//DTD SVG 1.1//EN"
       "http://www.w3.org/Graphics/SVG/1.1/DTD/svg11.dtd">
<svg version="1.1" xmlns="http://www.w3.org/2000/svg" xmlns:xlink="http://www.w3.org/1999/xlink" viewBox="0 0 17.142 22.468">
 <g>
  <rect height="22.468" opacity="0" width="17.142" x="0" y="0"/>
  <path d="M2.90019 22.4467L13.8805 22.4467C15.6369 22.4467 16.7806 21.343 16.7806 19.6523L16.7806 2.80234C16.7806 1.11172 15.6369 0 13.8805 0L2.90019 0C1.14375 0 0 1.11172 0 2.80234L0 19.6523C0 21.343 1.14375 22.4467 2.90019 22.4467ZM1.91327 18.8584L1.91327 3.59804L14.8674 3.59804L14.8674 18.8584ZM8.40409 21.4096C7.89394 21.4096 7.49472 21.0023 7.49472 20.5002C7.49472 20.006 7.89394 19.6006 8.40409 19.6006C8.89823 19.6006 9.3037 20.006 9.3037 20.5002C9.3037 21.0023 8.89823 21.4096 8.40409 21.4096ZM8.38808 2.50175C8.07226 2.50175 7.8203 2.24355 7.8203 1.92597C7.8203 1.61992 8.07226 1.35195 8.38808 1.35195C8.7039 1.35195 8.9621 1.61992 8.9621 1.92597C8.9621 2.24355 8.7039 2.50175 8.38808 2.50175Z" fill="white" fill-opacity="0.25"/>
 </g>
</svg>
