<?xml version="1.0" encoding="UTF-8"?>
<!--Generator: Apple Native CoreSVG 341-->
<!DOCTYPE svg
PUBLIC "-//W3C//DTD SVG 1.1//EN"
       "http://www.w3.org/Graphics/SVG/1.1/DTD/svg11.dtd">
<svg version="1.1" xmlns="http://www.w3.org/2000/svg" xmlns:xlink="http://www.w3.org/1999/xlink" viewBox="0 0 23.6629 23.0804">
 <g>
  <rect height="23.0804" opacity="0" width="23.6629" x="0" y="0"/>
  <path d="M0.704886 3.40505L2.15162 4.85286C1.99508 5.0787 1.91503 5.3834 1.91503 5.76637L1.91503 17.3318C1.91503 18.2806 2.40819 18.7508 3.31796 18.7508L16.0391 18.7508L17.951 20.664L3.20703 20.664C1.09746 20.664 0 19.5826 0 17.489L0 5.60739C0 4.64967 0.229296 3.9045 0.682578 3.38049ZM23.3016 5.60739L23.3016 17.489C23.3016 18.4496 23.0708 19.1989 22.6123 19.7248C22.6072 19.7179 22.6011 19.7117 22.5949 19.7054L21.1437 18.2532C21.3049 18.0262 21.3883 17.7188 21.3883 17.3318L21.3883 5.76637C21.3883 4.81754 20.8871 4.34918 19.9871 4.34918L7.25012 4.34918L5.33828 2.43591L20.098 2.43591C22.2139 2.43591 23.3016 3.52184 23.3016 5.60739ZM15.2614 17.9724L7.87246 17.9724C7.59472 17.9724 7.38886 17.7861 7.38886 17.4951C7.38886 17.2041 7.59472 17.008 7.87246 17.008L14.2977 17.008Z" fill="white" fill-opacity="0.25"/>
  <path d="M20.6346 21.6515C20.9443 21.955 21.4404 21.9515 21.7342 21.6498C22.0359 21.348 22.0519 20.8537 21.7422 20.5502L2.65898 1.46072C2.35723 1.1572 1.86113 1.14919 1.54961 1.46072C1.25762 1.75271 1.25762 2.26657 1.54961 2.56032Z" fill="white" fill-opacity="0.25"/>
 </g>
</svg>
