<?xml version="1.0" encoding="UTF-8"?>
<!--Generator: Apple Native CoreSVG 341-->
<!DOCTYPE svg
PUBLIC "-//W3C//DTD SVG 1.1//EN"
       "http://www.w3.org/Graphics/SVG/1.1/DTD/svg11.dtd">
<svg version="1.1" xmlns="http://www.w3.org/2000/svg" xmlns:xlink="http://www.w3.org/1999/xlink" viewBox="0 0 23.183 22.8622">
 <g>
  <rect height="22.8622" opacity="0" width="23.183" x="0" y="0"/>
  <path d="M4.94178 7.77824L4.94178 19.5348C4.94178 20.2952 5.38612 20.7305 6.18729 20.7305L16.6424 20.7305C17.0454 20.7305 17.3601 20.6204 17.5732 20.4139L19.0267 21.8678C18.5203 22.3633 17.7905 22.6438 16.909 22.6438L5.92069 22.6438C4.17226 22.6438 3.02851 21.5401 3.02851 19.8495L3.02851 5.86434ZM14.7773 19.4309C14.7773 19.7272 14.5662 19.9268 14.2832 19.9268L8.558 19.9268C8.27324 19.9268 8.07011 19.7272 8.07011 19.4309C8.07011 19.1346 8.27324 18.9413 8.558 18.9413L14.2832 18.9413C14.5662 18.9413 14.7773 19.1346 14.7773 19.4309ZM19.8092 2.99946L19.8092 17.0457L17.8959 15.1318L17.8959 3.31587C17.8959 2.55376 17.4435 2.1104 16.6424 2.1104L6.18729 2.1104C5.76475 2.1104 5.44147 2.23372 5.23144 2.46317L3.77767 1.00892C4.28183 0.491326 5.02125 0.197128 5.92069 0.197128L16.909 0.197128C18.6574 0.197128 19.8092 1.30884 19.8092 2.99946Z" fill="white" fill-opacity="0.25"/>
  <path d="M20.2865 21.4303C20.5883 21.7418 21.0924 21.7383 21.3861 21.4286C21.6879 21.1268 21.6959 20.6405 21.3941 20.3289L2.53515 1.46373C2.23339 1.16021 1.72929 1.15221 1.42578 1.46373C1.13379 1.75572 1.13379 2.26158 1.42578 2.56334Z" fill="white" fill-opacity="0.25"/>
 </g>
</svg>
