<?xml version="1.0" encoding="UTF-8"?>
<!--Generator: Apple Native CoreSVG 341-->
<!DOCTYPE svg
PUBLIC "-//W3C//DTD SVG 1.1//EN"
       "http://www.w3.org/Graphics/SVG/1.1/DTD/svg11.dtd">
<svg version="1.1" xmlns="http://www.w3.org/2000/svg" xmlns:xlink="http://www.w3.org/1999/xlink" viewBox="0 0 23.183 22.8622">
 <g>
  <rect height="22.8622" opacity="0" width="23.183" x="0" y="0"/>
  <path d="M4.94178 7.77824L4.94178 19.0555L16.2153 19.0555L19.0267 21.8678C18.5203 22.3633 17.7905 22.6438 16.909 22.6438L5.92069 22.6438C4.17226 22.6438 3.02851 21.5401 3.02851 19.8495L3.02851 5.86434ZM10.5152 20.6973C10.5152 21.1995 10.9225 21.6067 11.4246 21.6067C11.9267 21.6067 12.3242 21.1995 12.3242 20.6973C12.3242 20.2032 11.9267 19.7977 11.4246 19.7977C10.9225 19.7977 10.5152 20.2032 10.5152 20.6973ZM19.8092 2.99946L19.8092 17.0457L17.8959 15.1318L17.8959 3.79516L6.56299 3.79516L3.77767 1.00892C4.28183 0.491326 5.02125 0.197128 5.92069 0.197128L16.909 0.197128C18.6574 0.197128 19.8092 1.30884 19.8092 2.99946ZM10.8408 2.1231C10.8408 2.44068 11.1008 2.69888 11.4166 2.69888C11.7244 2.69888 11.9906 2.44068 11.9906 2.1231C11.9906 1.81704 11.7244 1.54908 11.4166 1.54908C11.1008 1.54908 10.8408 1.81704 10.8408 2.1231Z" fill="white" fill-opacity="0.25"/>
  <path d="M20.2865 21.4303C20.5883 21.7418 21.0924 21.7383 21.3861 21.4286C21.6879 21.1268 21.6959 20.6405 21.3941 20.3289L2.53515 1.46373C2.23339 1.16021 1.72929 1.15221 1.42578 1.46373C1.13379 1.75572 1.13379 2.26158 1.42578 2.56334Z" fill="white" fill-opacity="0.25"/>
 </g>
</svg>
