<?xml version="1.0" encoding="UTF-8"?>
<!--Generator: Apple Native CoreSVG 341-->
<!DOCTYPE svg
PUBLIC "-//W3C//DTD SVG 1.1//EN"
       "http://www.w3.org/Graphics/SVG/1.1/DTD/svg11.dtd">
<svg version="1.1" xmlns="http://www.w3.org/2000/svg" xmlns:xlink="http://www.w3.org/1999/xlink" viewBox="0 0 23.6629 18.2476">
 <g>
  <rect height="18.2476" opacity="0" width="23.6629" x="0" y="0"/>
  <path d="M3.20703 18.2476L20.098 18.2476C22.2139 18.2476 23.3016 17.1582 23.3016 15.0727L23.3016 3.19101C23.3016 1.10547 22.2139 0.0195312 20.098 0.0195312L3.20351 0.0195312C1.0957 0.0195312 0 1.09746 0 3.19101L0 15.0727C0 17.1662 1.09746 18.2476 3.20703 18.2476ZM1.92597 9.70273C1.61191 9.71074 1.35195 9.44277 1.34394 9.11894C1.33593 8.81289 1.60214 8.55293 1.91796 8.55293C2.24355 8.55293 2.49374 8.81289 2.49374 9.11894C2.49374 9.44277 2.23378 9.69472 1.92597 9.70273ZM3.59003 16.3344L3.59003 1.9328L19.7098 1.9328L19.7098 16.3344ZM21.3435 10.0283C20.8432 10.0283 20.4519 9.62109 20.4519 9.11894C20.4519 8.62656 20.8512 8.21933 21.3516 8.21933C21.8555 8.21933 22.2529 8.62656 22.2529 9.11894C22.2529 9.62109 21.8555 10.0283 21.3435 10.0283Z" fill="white" fill-opacity="0.25"/>
 </g>
</svg>
