<?xml version="1.0" encoding="UTF-8"?>
<!--Generator: Apple Native CoreSVG 341-->
<!DOCTYPE svg
PUBLIC "-//W3C//DTD SVG 1.1//EN"
       "http://www.w3.org/Graphics/SVG/1.1/DTD/svg11.dtd">
<svg version="1.1" xmlns="http://www.w3.org/2000/svg" xmlns:xlink="http://www.w3.org/1999/xlink" viewBox="0 0 22.7933 24.6918">
 <g>
  <rect height="24.6918" opacity="0" width="22.7933" x="0" y="0"/>
  <path d="M19.6072 3.91425L19.6072 8.68144L15.7424 8.68144L15.7424 4.983C15.7424 4.58573 15.417 4.25409 15.0215 4.25409C14.6207 4.25409 14.2926 4.58573 14.2926 4.983L14.2926 8.74406C12.7712 9.02072 11.866 10.2023 11.866 11.7531L11.866 21.6263C11.866 22.3782 12.0798 23.0433 12.4763 23.5586L5.72674 23.5586C3.97831 23.5586 2.8248 22.4549 2.8248 20.7642L2.8248 3.91425C2.8248 2.22363 3.97831 1.11191 5.72674 1.11191L16.7053 1.11191C18.4617 1.11191 19.6072 2.22363 19.6072 3.91425ZM9.15311 4.983L9.15311 19.6955C9.15311 20.0928 9.4785 20.4244 9.87401 20.4244C10.2748 20.4244 10.6029 20.0928 10.6029 19.6955L10.6029 4.983C10.6029 4.58573 10.2748 4.25409 9.87401 4.25409C9.4785 4.25409 9.15311 4.58573 9.15311 4.983Z" fill="white" fill-opacity="0.25"/>
  <path d="M15.0015 23.5105L19.6779 23.5105C20.8941 23.5105 21.6121 22.8113 21.6121 21.6246L21.6121 11.7549C21.6121 10.5699 20.8861 9.86444 19.6779 9.86444L15.0015 9.86444C13.7695 9.86444 13.041 10.5699 13.041 11.7531L13.041 21.6263C13.041 22.8113 13.7695 23.5105 15.0015 23.5105ZM15.0162 13.959C14.5429 13.959 14.2758 13.7015 14.2758 13.2576L14.2758 11.8865C14.2758 11.4666 14.5429 11.1869 15.0162 11.1869L16.2941 11.1869C16.7611 11.1869 17.0381 11.4666 17.0381 11.8865L17.0381 13.2576C17.0381 13.7015 16.7611 13.959 16.2941 13.959Z" fill="white" fill-opacity="0.25"/>
 </g>
</svg>
