<?xml version="1.0" encoding="UTF-8"?>
<!--Generator: Apple Native CoreSVG 341-->
<!DOCTYPE svg
PUBLIC "-//W3C//DTD SVG 1.1//EN"
       "http://www.w3.org/Graphics/SVG/1.1/DTD/svg11.dtd">
<svg version="1.1" xmlns="http://www.w3.org/2000/svg" xmlns:xlink="http://www.w3.org/1999/xlink" viewBox="0 0 22.7906 24.7879">
 <g>
  <rect height="24.7879" opacity="0" width="22.7906" x="0" y="0"/>
  <path d="M17.9518 3.36952L15.7431 3.36952C15.5332 3.17634 15.2294 3.07323 14.8422 3.07323L4.38886 3.07323C3.58593 3.07323 3.13358 3.51659 3.13358 4.2787L3.13358 20.4976C3.13358 21.258 3.58593 21.6934 4.38886 21.6934L6.30373 21.6934C6.39265 22.4484 6.6881 23.1005 7.14182 23.6066L4.12226 23.6066C2.37383 23.6066 1.22031 22.5029 1.22031 20.8123L1.22031 3.96229C1.22031 2.27168 2.37383 1.15996 4.12226 1.15996L15.1008 1.15996C16.6425 1.15996 17.7135 2.01648 17.9518 3.36952Z" fill="white" fill-opacity="0.25"/>
  <path d="M7.45175 21.1773C7.45175 22.6465 8.44217 23.6049 9.95936 23.6049L19.0982 23.6049C20.6172 23.6049 21.6094 22.6465 21.6094 21.1773L21.6094 6.98182C21.6094 5.51268 20.6172 4.55077 19.0982 4.55077L9.95936 4.55077C8.44217 4.55077 7.45175 5.51268 7.45175 6.98182ZM9.30349 20.7154L9.30349 7.44197C9.30349 6.80408 9.70506 6.40251 10.3812 6.40251L18.6861 6.40251C19.348 6.40251 19.7576 6.80408 19.7576 7.44197L19.7576 20.7154C19.7576 21.3596 19.348 21.7531 18.6861 21.7531L10.3812 21.7531C9.70506 21.7531 9.30349 21.3596 9.30349 20.7154Z" fill="white" fill-opacity="0.25"/>
 </g>
</svg>
