<?xml version="1.0" encoding="UTF-8"?>
<!--Generator: Apple Native CoreSVG 341-->
<!DOCTYPE svg
PUBLIC "-//W3C//DTD SVG 1.1//EN"
       "http://www.w3.org/Graphics/SVG/1.1/DTD/svg11.dtd">
<svg version="1.1" xmlns="http://www.w3.org/2000/svg" xmlns:xlink="http://www.w3.org/1999/xlink" viewBox="0 0 23.6629 18.2476">
 <g>
  <rect height="18.2476" opacity="0" width="23.6629" x="0" y="0"/>
  <path d="M7.87246 15.5561L15.4389 15.5561C15.7166 15.5561 15.9162 15.3697 15.9162 15.0787C15.9162 14.7877 15.7166 14.5916 15.4389 14.5916L7.87246 14.5916C7.59472 14.5916 7.38886 14.7877 7.38886 15.0787C7.38886 15.3697 7.59472 15.5561 7.87246 15.5561ZM3.20703 18.2476L20.098 18.2476C22.2139 18.2476 23.3016 17.1582 23.3016 15.0727L23.3016 3.19101C23.3016 1.10547 22.2139 0.0195312 20.098 0.0195312L3.20351 0.0195312C1.0957 0.0195312 0 1.09746 0 3.19101L0 15.0727C0 17.1662 1.09746 18.2476 3.20703 18.2476ZM3.31796 16.3344C2.40819 16.3344 1.91503 15.8643 1.91503 14.9154L1.91503 3.34999C1.91503 2.40116 2.40643 1.9328 3.31444 1.9328L19.9871 1.9328C20.8871 1.9328 21.3883 2.40116 21.3883 3.34999L21.3883 14.9154C21.3883 15.8643 20.8871 16.3344 19.9871 16.3344Z" fill="white" fill-opacity="0.25"/>
 </g>
</svg>
