<?xml version="1.0" encoding="UTF-8"?>
<!--Generator: Apple Native CoreSVG 341-->
<!DOCTYPE svg
PUBLIC "-//W3C//DTD SVG 1.1//EN"
       "http://www.w3.org/Graphics/SVG/1.1/DTD/svg11.dtd">
<svg version="1.1" xmlns="http://www.w3.org/2000/svg" xmlns:xlink="http://www.w3.org/1999/xlink" viewBox="0 0 22.3902 24.7879">
 <g>
  <rect height="24.7879" opacity="0" width="22.3902" x="0" y="0"/>
  <path d="M17.5514 3.36952L15.3427 3.36952C15.1328 3.17634 14.829 3.07323 14.4418 3.07323L3.98846 3.07323C3.18553 3.07323 2.73319 3.51659 2.73319 4.2787L2.73319 20.4976C2.73319 21.258 3.18553 21.6934 3.98846 21.6934L5.90333 21.6934C5.99226 22.4484 6.2877 23.1005 6.74142 23.6066L3.72187 23.6066C1.97343 23.6066 0.81992 22.5029 0.81992 20.8123L0.81992 3.96229C0.81992 2.27168 1.97343 1.15996 3.72187 1.15996L14.7004 1.15996C16.2421 1.15996 17.3131 2.01648 17.5514 3.36952Z" fill="white" fill-opacity="0.25"/>
  <path d="M7.05135 21.1773C7.05135 22.6465 8.04178 23.6049 9.55896 23.6049L18.6978 23.6049C20.2168 23.6049 21.209 22.6465 21.209 21.1773L21.209 6.98182C21.209 5.51268 20.2168 4.55077 18.6978 4.55077L9.55896 4.55077C8.04178 4.55077 7.05135 5.51268 7.05135 6.98182ZM8.9031 20.7154L8.9031 7.44197C8.9031 6.80408 9.30466 6.40251 9.98084 6.40251L18.2857 6.40251C18.9476 6.40251 19.3572 6.80408 19.3572 7.44197L19.3572 20.7154C19.3572 21.3596 18.9476 21.7531 18.2857 21.7531L9.98084 21.7531C9.30466 21.7531 8.9031 21.3596 8.9031 20.7154ZM11.7635 20.9494L16.5609 20.9494C16.8076 20.9494 16.9939 20.7924 16.9939 20.5262C16.9939 20.268 16.8076 20.0994 16.5609 20.0994L11.7635 20.0994C11.515 20.0994 11.3322 20.268 11.3322 20.5262C11.3322 20.7924 11.515 20.9494 11.7635 20.9494Z" fill="white" fill-opacity="0.25"/>
 </g>
</svg>
