<?xml version="1.0" encoding="UTF-8"?>
<!--Generator: Apple Native CoreSVG 341-->
<!DOCTYPE svg
PUBLIC "-//W3C//DTD SVG 1.1//EN"
       "http://www.w3.org/Graphics/SVG/1.1/DTD/svg11.dtd">
<svg version="1.1" xmlns="http://www.w3.org/2000/svg" xmlns:xlink="http://www.w3.org/1999/xlink" viewBox="0 0 20.5381 20.1848">
 <g>
  <rect height="20.1848" opacity="0" width="20.5381" x="0" y="0"/>
  <path d="M10.0875 20.175C15.6576 20.175 20.1767 15.6559 20.1767 10.0875C20.1767 4.51914 15.6576 0 10.0875 0C4.51914 0 0 4.51914 0 10.0875C0 15.6559 4.51914 20.175 10.0875 20.175ZM10.0875 18.1879C5.60839 18.1879 1.9871 14.5666 1.9871 10.0875C1.9871 5.60839 5.60839 1.9871 10.0875 1.9871C14.5666 1.9871 18.1897 5.60839 18.1897 10.0875C18.1897 14.5666 14.5666 18.1879 10.0875 18.1879Z" fill="white" fill-opacity="0.25"/>
  <path d="M7.96015 16.2004L12.1908 16.2004C13.1531 16.2004 13.81 15.5728 13.81 14.6434L13.81 5.52363C13.81 4.59238 13.1531 3.9746 12.1908 3.9746L7.96015 3.9746C7.00761 3.9746 6.34902 4.59238 6.34902 5.52363L6.34902 14.6434C6.34902 15.5728 7.00761 16.2004 7.96015 16.2004ZM8.09765 15.1098C7.64179 15.1098 7.38944 14.8734 7.38944 14.4416L7.38944 5.72362C7.38944 5.29354 7.64179 5.05721 8.09765 5.05721L8.79804 5.05721C8.89042 5.05721 8.91972 5.09628 8.91972 5.18241L8.91972 5.31464C8.91972 5.56053 9.07597 5.72928 9.32636 5.72928L10.8326 5.72928C11.0768 5.72928 11.2393 5.56053 11.2393 5.31464L11.2393 5.18241C11.2393 5.09628 11.2783 5.05721 11.3627 5.05721L12.0648 5.05721C12.5189 5.05721 12.7713 5.2953 12.7713 5.72714L12.7713 14.4398C12.7713 14.8717 12.5189 15.1098 12.0648 15.1098ZM8.87285 14.6846L11.2861 14.6846C11.4521 14.6846 11.5728 14.5754 11.5728 14.4094C11.5728 14.2301 11.4521 14.1129 11.2861 14.1129L8.87285 14.1129C8.70859 14.1129 8.58788 14.2301 8.58788 14.4094C8.58788 14.5754 8.70859 14.6846 8.87285 14.6846Z" fill="white" fill-opacity="0.25"/>
 </g>
</svg>
