<?xml version="1.0" encoding="UTF-8"?>
<!--Generator: Apple Native CoreSVG 341-->
<!DOCTYPE svg
PUBLIC "-//W3C//DTD SVG 1.1//EN"
       "http://www.w3.org/Graphics/SVG/1.1/DTD/svg11.dtd">
<svg version="1.1" xmlns="http://www.w3.org/2000/svg" xmlns:xlink="http://www.w3.org/1999/xlink" viewBox="0 0 20.4643 22.2199">
 <g>
  <rect height="22.2199" opacity="0" width="20.4643" x="0" y="0"/>
  <path d="M0 4.58964C0 5.1037 0.418357 5.53006 0.932416 5.53006C1.45448 5.53006 1.87284 5.1037 1.87284 4.58964L1.87284 3.70781C1.87284 2.56249 2.54647 1.87909 3.70156 1.87909L4.62421 1.87909C5.14003 1.87909 5.56463 1.45448 5.56463 0.938666C5.56463 0.422849 5.14003 0.00625014 4.62421 0.00625014L3.70156 0.00625014C1.41269 0.00625014 0 1.42871 0 3.70781ZM20.1029 4.58964L20.1029 3.70781C20.1029 1.42871 18.6902 0.00625014 16.4014 0.00625014L15.4707 0.00625014C14.9531 0.00625014 14.5383 0.422849 14.5383 0.938666C14.5383 1.45448 14.9531 1.87909 15.4707 1.87909L16.4014 1.87909C17.5564 1.87909 18.2301 2.56249 18.2301 3.70781L18.2301 4.58964C18.2301 5.1037 18.6484 5.53006 19.1625 5.53006C19.6766 5.53006 20.1029 5.1037 20.1029 4.58964ZM0 10.1814L0 11.0713C0 13.3424 1.41269 14.7728 3.70156 14.7728L4.62421 14.7728C5.14003 14.7728 5.56463 14.3482 5.56463 13.8324C5.56463 13.3166 5.14003 12.9 4.62421 12.9L3.70156 12.9C2.54647 12.9 1.87284 12.2086 1.87284 11.0713L1.87284 10.1814C1.87284 9.66738 1.45448 9.24902 0.932416 9.24902C0.418357 9.24902 0 9.66738 0 10.1814ZM20.1029 10.1814C20.1029 9.66738 19.6766 9.24902 19.1625 9.24902C18.6484 9.24902 18.2301 9.66738 18.2301 10.1814L18.2301 11.0713C18.2301 12.2086 17.5564 12.9 16.4014 12.9L15.4707 12.9C14.9531 12.9 14.5383 13.3166 14.5383 13.8324C14.5383 14.3482 14.9531 14.7728 15.4707 14.7728L16.4014 14.7728C18.6902 14.7728 20.1029 13.3424 20.1029 11.0713Z" fill="white" fill-opacity="0.25"/>
  <path d="M9.21289 17.8594L10.8918 17.8594L10.8918 11.8023L9.21289 11.8023ZM7.04551 22.2199L13.0512 22.2199C14.2039 22.2199 14.9465 21.4889 14.9465 20.3717L14.9465 18.7971C14.9465 17.6719 14.2039 16.9426 13.0512 16.9426L7.04551 16.9426C5.90078 16.9426 5.15821 17.6719 5.15821 18.7971L5.15821 20.3717C5.15821 21.4889 5.90078 22.2199 7.04551 22.2199ZM7.35351 20.5646C7.03632 20.5646 6.80371 20.3303 6.80371 19.9953L6.80371 19.1672C6.80371 18.8322 7.03632 18.5801 7.35351 18.5801L12.7352 18.5801C13.0506 18.5801 13.301 18.8322 13.301 19.1672L13.301 19.9953C13.301 20.3303 13.0506 20.5646 12.7352 20.5646ZM10.0814 12.2871C12.7928 12.2871 14.96 10.1084 14.96 7.39355C14.96 4.69199 12.7928 2.51679 10.0814 2.51679C7.37636 2.51679 5.18789 4.69199 5.18789 7.39355C5.18789 10.1084 7.2207 12.2871 10.0814 12.2871ZM10.0814 10.6711C8.14979 10.6711 6.80389 9.21933 6.80389 7.39355C6.80389 5.58905 8.26542 4.1328 10.0814 4.1328C11.8957 4.1328 13.344 5.58905 13.344 7.39355C13.344 9.21933 11.8957 10.6711 10.0814 10.6711Z" fill="white" fill-opacity="0.25"/>
 </g>
</svg>
