<?xml version="1.0" encoding="UTF-8"?>
<!--Generator: Apple Native CoreSVG 341-->
<!DOCTYPE svg
PUBLIC "-//W3C//DTD SVG 1.1//EN"
       "http://www.w3.org/Graphics/SVG/1.1/DTD/svg11.dtd">
<svg version="1.1" xmlns="http://www.w3.org/2000/svg" xmlns:xlink="http://www.w3.org/1999/xlink" viewBox="0 0 20.5381 20.1848">
 <g>
  <rect height="20.1848" opacity="0" width="20.5381" x="0" y="0"/>
  <path d="M5.92967 2.06835L4.34394 2.74648L4.34394 11.6441C4.34394 13.0434 5.30468 13.9693 6.74316 13.9693L13.3557 13.9693C14.8117 13.9693 15.7848 13.0434 15.7848 11.6459L15.7848 2.69843L14.199 2.04433L14.199 10.8373L5.92967 10.8373ZM10.0555 11.4898C10.5746 11.4898 10.9713 11.8963 10.9713 12.4057C10.9713 12.8955 10.5746 13.2939 10.0555 13.2939C9.56562 13.2939 9.16718 12.8955 9.16718 12.4057C9.16718 11.8963 9.56562 11.4898 10.0555 11.4898ZM10.0875 20.175C15.6576 20.175 20.1767 15.6559 20.1767 10.0875C20.1767 4.51914 15.6576 0 10.0875 0C4.51914 0 0 4.51914 0 10.0875C0 15.6559 4.51914 20.175 10.0875 20.175ZM10.0875 18.1879C5.60839 18.1879 1.9871 14.5666 1.9871 10.0875C1.9871 5.60839 5.60839 1.9871 10.0875 1.9871C14.5666 1.9871 18.1897 5.60839 18.1897 10.0875C18.1897 14.5666 14.5666 18.1879 10.0875 18.1879Z" fill="white" fill-opacity="0.25"/>
 </g>
</svg>
