<?xml version="1.0" encoding="UTF-8"?>
<!--Generator: Apple Native CoreSVG 341-->
<!DOCTYPE svg
PUBLIC "-//W3C//DTD SVG 1.1//EN"
       "http://www.w3.org/Graphics/SVG/1.1/DTD/svg11.dtd">
<svg version="1.1" xmlns="http://www.w3.org/2000/svg" xmlns:xlink="http://www.w3.org/1999/xlink" viewBox="0 0 20.5381 20.2699">
 <g>
  <rect height="20.2699" opacity="0" width="20.5381" x="0" y="0"/>
  <path d="M10.0875 20.1767C15.6576 20.1767 20.1767 15.6576 20.1767 10.0893C20.1767 4.51914 15.6576 0 10.0875 0C4.51914 0 0 4.51914 0 10.0893C0 15.6576 4.51914 20.1767 10.0875 20.1767ZM10.0875 18.1897C5.60839 18.1897 1.9871 14.5684 1.9871 10.0893C1.9871 5.61015 5.60839 1.9871 10.0875 1.9871C14.5666 1.9871 18.1897 5.61015 18.1897 10.0893C18.1897 14.5684 14.5666 18.1897 10.0875 18.1897Z" fill="white" fill-opacity="0.25"/>
  <path d="M4.53475 12.8701C4.67323 12.7041 4.63768 12.5018 4.47792 12.3127C3.93514 11.7051 3.64823 10.9269 3.64823 10.0893C3.64823 9.2498 3.93514 8.47343 4.47792 7.86581C4.63768 7.67499 4.67323 7.46464 4.53475 7.30663C4.40604 7.12909 4.14335 7.12909 3.95604 7.31464C3.27655 8.05624 2.90975 9.03945 2.90975 10.0893C2.90975 11.1293 3.27655 12.1125 3.95604 12.8621C4.14335 13.0477 4.40604 13.0477 4.53475 12.8701ZM15.6338 12.8701C15.7705 13.0477 16.0314 13.0477 16.2125 12.8621C16.892 12.1125 17.2668 11.1293 17.2668 10.0893C17.2668 9.03945 16.892 8.05624 16.2125 7.31464C16.0314 7.12909 15.7705 7.12909 15.6338 7.30663C15.4936 7.46464 15.5309 7.67499 15.6986 7.86581C16.2334 8.47343 16.5283 9.2498 16.5283 10.0893C16.5283 10.9269 16.2334 11.7051 15.6986 12.3127C15.5309 12.5018 15.4936 12.7041 15.6338 12.8701Z" fill="white" fill-opacity="0.25"/>
  <path d="M5.89706 11.7234C6.03378 11.5574 5.99023 11.3701 5.84374 11.1678C5.61718 10.8781 5.50526 10.5041 5.50526 10.0893C5.50526 9.67265 5.61718 9.29238 5.84374 9.01073C5.99023 8.80839 6.03378 8.61933 5.89706 8.45331C5.74706 8.2705 5.47284 8.27402 5.30683 8.47636C4.95331 8.92753 4.74901 9.48261 4.74901 10.0893C4.74901 10.6861 4.95331 11.2492 5.30683 11.6924C5.47284 11.8947 5.74706 11.908 5.89706 11.7234ZM14.2715 11.7234C14.4215 11.908 14.7037 11.8947 14.86 11.6924C15.2152 11.2492 15.4275 10.6861 15.4275 10.0893C15.4275 9.48261 15.2152 8.92753 14.86 8.47636C14.7037 8.27402 14.4215 8.2705 14.2715 8.45331C14.1348 8.61933 14.1783 8.80839 14.3248 9.01073C14.5514 9.29238 14.6713 9.67265 14.6713 10.0893C14.6713 10.5041 14.5514 10.8781 14.3248 11.1678C14.1783 11.3701 14.1348 11.5574 14.2715 11.7234Z" fill="white" fill-opacity="0.25"/>
  <path d="M8.1996 15.5803L11.9982 15.5803C12.8621 15.5803 13.4551 15.0201 13.4551 14.1855L13.4551 5.98495C13.4551 5.15038 12.8621 4.58847 11.9982 4.58847L8.1996 4.58847C7.33398 4.58847 6.74277 5.15038 6.74277 5.98495L6.74277 14.1855C6.74277 15.0201 7.33398 15.5803 8.1996 15.5803ZM8.31581 14.6057C7.90702 14.6057 7.68046 14.3889 7.68046 14.0041L7.68046 6.16464C7.68046 5.77987 7.90702 5.56483 8.31581 5.56483L11.882 5.56483C12.2891 5.56483 12.5156 5.78339 12.5156 6.16639L12.5156 14.0023C12.5156 14.3871 12.2891 14.6057 11.882 14.6057ZM9.46132 6.74296L10.717 6.74296C10.9336 6.74296 11.1014 6.56893 11.1014 6.36034C11.1014 6.14999 10.9336 5.97596 10.717 5.97596L9.46132 5.97596C9.24472 5.97596 9.08495 6.14999 9.08495 6.36034C9.08495 6.56893 9.24472 6.74296 9.46132 6.74296ZM9.01738 14.2311L11.1885 14.2311C11.3412 14.2311 11.4424 14.1254 11.4424 13.9772C11.4424 13.8147 11.3412 13.7055 11.1885 13.7055L9.01738 13.7055C8.86288 13.7055 8.75546 13.8147 8.75546 13.9772C8.75546 14.1254 8.86288 14.2311 9.01738 14.2311Z" fill="white" fill-opacity="0.25"/>
 </g>
</svg>
