<?xml version="1.0" encoding="UTF-8"?>
<!--Generator: Apple Native CoreSVG 341-->
<!DOCTYPE svg
PUBLIC "-//W3C//DTD SVG 1.1//EN"
       "http://www.w3.org/Graphics/SVG/1.1/DTD/svg11.dtd">
<svg version="1.1" xmlns="http://www.w3.org/2000/svg" xmlns:xlink="http://www.w3.org/1999/xlink" viewBox="0 0 20.5381 20.1848">
 <g>
  <rect height="20.1848" opacity="0" width="20.5381" x="0" y="0"/>
  <path d="M20.1767 10.0973C20.1767 15.6656 15.6576 20.1848 10.0875 20.1848C4.52715 20.1848 0 15.6656 0 10.0973C0 4.53691 4.52715 0.00976562 10.0875 0.00976562C15.6576 0.00976562 20.1767 4.53691 20.1767 10.0973ZM6.21796 14.833C6.21796 15.8006 6.90136 16.4529 7.89199 16.4529L12.2928 16.4529C13.0147 16.4529 13.5718 16.112 13.8235 15.5564C13.7817 15.5257 13.7421 15.491 13.7045 15.4533L12.8901 14.6396C12.8807 15.0677 12.6199 15.3137 12.1633 15.3137L8.03124 15.3137C7.56386 15.3137 7.30175 15.0596 7.30175 14.6162L7.30175 9.05629L6.21796 7.97347ZM5.2498 5.26308C5.05644 5.45819 5.06269 5.78632 5.2498 5.98143L14.2148 14.935C14.4002 15.1283 14.7363 15.1283 14.9332 14.935C15.1266 14.7301 15.1283 14.4215 14.9332 14.2166L5.97968 5.26308C5.7828 5.05819 5.45468 5.05995 5.2498 5.26308ZM8.84277 14.2707C8.67499 14.2707 8.54453 14.3914 8.54453 14.5787C8.54453 14.7482 8.67499 14.8672 8.84277 14.8672L11.35 14.8672C11.5178 14.8672 11.6482 14.7482 11.6482 14.5787C11.6482 14.3914 11.5178 14.2707 11.35 14.2707ZM7.89199 3.7416C7.17341 3.7416 6.61649 4.08063 6.36641 4.64037C6.41165 4.67357 6.45486 4.71145 6.49628 4.75273L7.30248 5.55893C7.30964 5.1274 7.57086 4.88085 8.03124 4.88085L12.1633 4.88085C12.6289 4.88085 12.891 5.13671 12.891 5.58007L12.891 11.1475L13.9748 12.2312L13.9748 5.36152C13.9748 4.38593 13.2914 3.7416 12.2928 3.7416ZM9.37363 5.35507C9.12246 5.35507 8.92187 5.5539 8.92187 5.79882C8.92187 6.04823 9.1207 6.23905 9.37363 6.23905L10.8129 6.23905C11.0658 6.23905 11.2646 6.04823 11.2646 5.79882C11.2646 5.5539 11.0641 5.35507 10.8129 5.35507Z" fill="white" fill-opacity="0.25"/>
 </g>
</svg>
