<?xml version="1.0" encoding="UTF-8"?>
<!--Generator: Apple Native CoreSVG 341-->
<!DOCTYPE svg
PUBLIC "-//W3C//DTD SVG 1.1//EN"
       "http://www.w3.org/Graphics/SVG/1.1/DTD/svg11.dtd">
<svg version="1.1" xmlns="http://www.w3.org/2000/svg" xmlns:xlink="http://www.w3.org/1999/xlink" viewBox="0 0 19.6404 23.7304">
 <g>
  <rect height="23.7304" opacity="0" width="19.6404" x="0" y="0"/>
  <path d="M14.0781 3.86601L14.0781 4.41424L12.1648 4.41424L12.1648 4.30623C12.1648 3.56365 11.7137 3.14002 10.9426 3.14002L9.66444 3.14002C9.51444 3.14002 9.42654 3.2199 9.42654 3.36815L9.42654 3.62088C9.42654 4.04861 9.15057 4.33435 8.7326 4.33435L6.17518 4.33435C5.75545 4.33435 5.47948 4.04861 5.47948 3.62088L5.47948 3.36815C5.47948 3.2199 5.39159 3.14002 5.24335 3.14002L3.95721 3.14002C3.18436 3.14002 2.73319 3.56014 2.73319 4.30448L2.73319 19.3994C2.73319 20.1437 3.18436 20.5639 3.95721 20.5639L6.86354 20.5639C6.91445 21.3364 7.18986 22.008 7.63168 22.5316L3.63085 22.5316C1.94765 22.5316 0.81992 21.4527 0.81992 19.8396L0.81992 3.86425C0.81992 2.24941 1.94765 1.17226 3.63085 1.17226L11.3111 1.17226C12.9697 1.17226 14.0781 2.24941 14.0781 3.86601Z" fill="white" fill-opacity="0.25"/>
  <path d="M10.3961 22.5492L16.1283 22.5492C17.5334 22.5492 18.4591 21.6467 18.4591 20.2808L18.4591 7.86033C18.4591 6.49803 17.5334 5.59725 16.1283 5.59725L10.3961 5.59725C8.97517 5.59725 8.03181 6.49803 8.03181 7.85681L8.03181 20.2826C8.03181 21.6467 8.97517 22.5492 10.3961 22.5492ZM10.7865 20.8267C10.1291 20.8267 9.75954 20.4652 9.75954 19.8416L9.75954 8.30661C9.75954 7.67946 10.1291 7.32146 10.7865 7.32146L11.3822 7.32146C11.5092 7.32146 11.5758 7.38806 11.5758 7.50876L11.5758 7.71989C11.5758 8.082 11.8074 8.31989 12.159 8.31989L14.3863 8.31989C14.7431 8.31989 14.9845 8.082 14.9845 7.71989L14.9845 7.50876C14.9845 7.38806 15.0511 7.32146 15.1781 7.32146L15.708 7.32146C16.3476 7.32146 16.7367 7.68474 16.7367 8.30837L16.7367 19.8398C16.7367 20.4617 16.3476 20.8267 15.708 20.8267Z" fill="white" fill-opacity="0.25"/>
 </g>
</svg>
