<?xml version="1.0" encoding="UTF-8"?>
<!--Generator: Apple Native CoreSVG 341-->
<!DOCTYPE svg
PUBLIC "-//W3C//DTD SVG 1.1//EN"
       "http://www.w3.org/Graphics/SVG/1.1/DTD/svg11.dtd">
<svg version="1.1" xmlns="http://www.w3.org/2000/svg" xmlns:xlink="http://www.w3.org/1999/xlink" viewBox="0 0 20.5381 20.1848">
 <g>
  <rect height="20.1848" opacity="0" width="20.5381" x="0" y="0"/>
  <path d="M20.1767 10.0973C20.1767 15.6656 15.6576 20.1848 10.0875 20.1848C4.52715 20.1848 0 15.6656 0 10.0973C0 4.53691 4.52715 0.00976562 10.0875 0.00976562C15.6576 0.00976562 20.1767 4.53691 20.1767 10.0973ZM8.11816 4.39003C7.21621 4.39003 6.60644 4.97675 6.60644 5.83788L6.60644 14.3664C6.60644 15.2275 7.21621 15.8125 8.11816 15.8125L12.0746 15.8125C12.9766 15.8125 13.5863 15.2275 13.5863 14.3664L13.5863 5.83788C13.5863 4.97675 12.9766 4.39003 12.0746 4.39003ZM10.543 14.7545C10.543 15.0066 10.3557 15.2197 10.107 15.2197C9.85488 15.2197 9.64804 15.0066 9.64804 14.7545C9.64804 14.5103 9.85488 14.307 10.107 14.307C10.3557 14.307 10.543 14.5103 10.543 14.7545ZM12.5955 13.8945L7.59726 13.8945L7.59726 6.308L12.5955 6.308ZM3.7246 7.22245C3.02031 7.99511 2.64023 9.02089 2.64023 10.0973C2.64023 11.1816 3.02031 12.2074 3.7246 12.9738C3.92167 13.1709 4.19589 13.1709 4.32636 12.9818C4.47636 12.8221 4.44081 12.602 4.26952 12.3979C3.70546 11.7707 3.40702 10.9678 3.40702 10.0973C3.40702 9.22675 3.70546 8.42382 4.26952 7.79667C4.44081 7.59433 4.47636 7.38046 4.32636 7.21269C4.19589 7.02362 3.92167 7.02362 3.7246 7.22245ZM15.8744 7.21269C15.7244 7.38046 15.7617 7.59433 15.9393 7.79667C16.4953 8.42382 16.8018 9.22675 16.8018 10.0973C16.8018 10.9678 16.4953 11.7707 15.9393 12.3979C15.7617 12.602 15.7244 12.8221 15.8744 12.9818C16.0129 13.1709 16.2871 13.1709 16.4762 12.9738C17.1805 12.2074 17.5686 11.1816 17.5686 10.0973C17.5686 9.02089 17.1805 7.99511 16.4762 7.22245C16.2871 7.02362 16.0129 7.02362 15.8744 7.21269ZM5.14179 8.43652C4.77324 8.8912 4.55917 9.47734 4.55917 10.0973C4.55917 10.7252 4.77324 11.3033 5.14179 11.7678C5.30957 11.9816 5.59531 11.9852 5.75507 11.7926C5.89355 11.6248 5.84999 11.4242 5.70175 11.2103C5.46542 10.9109 5.3455 10.5254 5.3455 10.0973C5.3455 9.66913 5.46542 9.26757 5.70175 8.98417C5.84999 8.77206 5.89355 8.57148 5.75507 8.4037C5.59531 8.20937 5.30957 8.22089 5.14179 8.43652ZM14.4457 8.4037C14.3072 8.57148 14.3508 8.77206 14.499 8.98417C14.7353 9.26757 14.8633 9.66913 14.8633 10.0973C14.8633 10.5254 14.7353 10.9109 14.499 11.2103C14.3508 11.4242 14.3072 11.6248 14.4457 11.7926C14.6055 11.9852 14.901 11.9816 15.059 11.7678C15.4275 11.3033 15.6496 10.7252 15.6496 10.0973C15.6496 9.47734 15.4275 8.8912 15.059 8.43652C14.901 8.22089 14.6055 8.20937 14.4457 8.4037ZM11.143 5.39296C11.143 5.51991 11.0568 5.59628 10.9379 5.59628L9.25488 5.59628C9.1457 5.59628 9.0498 5.51991 9.0498 5.39296C9.0498 5.258 9.1457 5.17362 9.25488 5.17362L10.9379 5.17362C11.0568 5.17362 11.143 5.258 11.143 5.39296Z" fill="white" fill-opacity="0.25"/>
 </g>
</svg>
