<?xml version="1.0" encoding="UTF-8"?>
<!--Generator: Apple Native CoreSVG 341-->
<!DOCTYPE svg
PUBLIC "-//W3C//DTD SVG 1.1//EN"
       "http://www.w3.org/Graphics/SVG/1.1/DTD/svg11.dtd">
<svg version="1.1" xmlns="http://www.w3.org/2000/svg" xmlns:xlink="http://www.w3.org/1999/xlink" viewBox="0 0 21.7349 20.7112">
 <g>
  <rect height="20.7112" opacity="0" width="21.7349" x="0" y="0"/>
  <path d="M3.12987 5.62415C2.39165 5.63166 1.97577 6.07989 1.97577 6.84564L1.97577 8.12377C1.97577 8.27201 2.06366 8.3599 2.2119 8.3599L2.46463 8.3599C2.8826 8.3599 3.17811 8.63588 3.17811 9.0556L3.17811 11.613C3.17811 12.031 2.8826 12.307 2.46463 12.307L2.2119 12.307C2.06366 12.307 1.97577 12.3949 1.97577 12.5449L1.97577 13.8292C1.97577 14.6038 2.39588 15.0533 3.14823 15.0533L12.5675 15.0533L14.4825 16.9665L2.70624 16.9665C1.09316 16.9665 0 15.8325 0 14.1493L0 6.47534C0 5.28837 0.559868 4.38408 1.47277 3.96854ZM21.3736 6.47534L21.3736 14.1493C21.3736 15.3846 20.7935 16.3241 19.8456 16.7345L18.1642 15.0533L18.2414 15.0533C18.9875 15.0533 19.4076 14.6038 19.4076 13.8292L19.4076 6.84564C19.4076 6.07279 18.984 5.62338 18.2396 5.62338L8.73332 5.62338L6.81985 3.71011L18.6816 3.71011C20.2965 3.71011 21.3736 4.81675 21.3736 6.47534ZM11.7984 14.2849L8.10721 14.2849C7.82245 14.2849 7.61932 14.087 7.61932 13.7908C7.61932 13.4945 7.82245 13.3011 8.10721 13.3011L10.8138 13.3011Z" fill="white" fill-opacity="0.25"/>
  <path d="M18.5043 19.2818C18.8078 19.5915 19.3039 19.5853 19.6039 19.2818C19.8959 18.9863 19.9074 18.4937 19.6039 18.1822L2.91152 1.50757C2.608 1.20405 2.11191 1.19604 1.80039 1.50757C1.5084 1.79956 1.5084 2.31342 1.80039 2.60717Z" fill="white" fill-opacity="0.25"/>
 </g>
</svg>
