<?xml version="1.0" encoding="UTF-8"?>
<!--Generator: Apple Native CoreSVG 341-->
<!DOCTYPE svg
PUBLIC "-//W3C//DTD SVG 1.1//EN"
       "http://www.w3.org/Graphics/SVG/1.1/DTD/svg11.dtd">
<svg version="1.1" xmlns="http://www.w3.org/2000/svg" xmlns:xlink="http://www.w3.org/1999/xlink" viewBox="0 0 32.8205 21.3859">
 <g>
  <rect height="21.3859" opacity="0" width="32.8205" x="0" y="0"/>
  <path d="M3.86796 17.3625C4.1998 16.9793 4.09687 16.4869 3.72597 16.0672C2.45429 14.656 1.74296 12.7613 1.74296 10.6881C1.74296 8.61659 2.45253 6.7201 3.72597 5.31072C4.09863 4.891 4.20332 4.39862 3.86796 4.01542C3.52734 3.60917 2.92949 3.59432 2.49863 4.06249C0.910938 5.77635 0 8.1535 0 10.6881C0 13.2262 0.886329 15.5795 2.49863 17.3154C2.93301 17.7818 3.5291 17.7625 3.86796 17.3625ZM28.5912 17.3625C28.93 17.7625 29.5261 17.7818 29.9685 17.3154C31.5826 15.5795 32.4591 13.2262 32.4591 10.6881C32.4591 8.1535 31.558 5.77635 29.9685 4.06249C29.5314 3.59432 28.9335 3.60917 28.5912 4.01542C28.2576 4.39862 28.3605 4.891 28.7332 5.31072C30.0084 6.72186 30.7162 8.61659 30.7162 10.6881C30.7162 12.7613 30.0048 14.656 28.7332 16.0672C28.364 16.4869 28.2593 16.9793 28.5912 17.3625Z" fill="white" fill-opacity="0.25"/>
  <path d="M6.71659 14.5635C7.03964 14.1838 6.9162 13.7127 6.59316 13.2734C6.05292 12.5902 5.76796 11.6527 5.76796 10.6881C5.76796 9.72342 6.05292 8.77616 6.59316 8.0992C6.91444 7.6617 7.03964 7.19237 6.71659 6.81092C6.37323 6.40116 5.73105 6.39413 5.33476 6.87225C4.49746 7.88827 4.025 9.24022 4.025 10.6881C4.025 12.1359 4.49746 13.4879 5.33476 14.5004C5.73105 14.9803 6.37323 14.9652 6.71659 14.5635ZM25.7425 14.5635C26.0859 14.9652 26.7281 14.9803 27.1244 14.5004C27.9634 13.4879 28.4421 12.1359 28.4421 10.6881C28.4421 9.24022 27.9634 7.88827 27.1244 6.87225C26.7281 6.39413 26.0859 6.40116 25.7425 6.81092C25.4195 7.19237 25.5527 7.6617 25.866 8.0992C26.4062 8.77616 26.6992 9.72342 26.6992 10.6881C26.6992 11.6527 26.4062 12.5902 25.866 13.2734C25.5509 13.7127 25.4195 14.1838 25.7425 14.5635Z" fill="white" fill-opacity="0.25"/>
  <path d="M9.60761 18.6754C9.60761 20.2902 10.7336 21.3674 12.4168 21.3674L20.0908 21.3674C21.7494 21.3674 22.8578 20.2902 22.8578 18.6736L22.8578 2.69374C22.8578 1.07715 21.7494 0 20.0908 0L12.4168 0C10.7336 0 9.60761 1.07715 9.60761 2.69199ZM11.5209 17.6947L11.5209 3.67264L20.9445 3.67264L20.9445 17.6947ZM16.2465 20.2881C15.7443 20.2881 15.3371 19.8808 15.3371 19.3769C15.3371 18.8846 15.7443 18.4791 16.2465 18.4791C16.7388 18.4791 17.1461 18.8846 17.1461 19.3769C17.1461 19.8808 16.7388 20.2881 16.2465 20.2881ZM14.2529 1.8953C14.2529 1.64433 14.4285 1.47851 14.6697 1.47851L17.8019 1.47851C18.0529 1.47851 18.2205 1.64433 18.2205 1.8953C18.2205 2.14804 18.0529 2.30233 17.8019 2.30233L14.6697 2.30233C14.4285 2.30233 14.2529 2.14804 14.2529 1.8953Z" fill="white" fill-opacity="0.25"/>
 </g>
</svg>
