<?xml version="1.0" encoding="UTF-8"?>
<!--Generator: Apple Native CoreSVG 341-->
<!DOCTYPE svg
PUBLIC "-//W3C//DTD SVG 1.1//EN"
       "http://www.w3.org/Graphics/SVG/1.1/DTD/svg11.dtd">
<svg version="1.1" xmlns="http://www.w3.org/2000/svg" xmlns:xlink="http://www.w3.org/1999/xlink" viewBox="0 0 20.5381 20.1848">
 <g>
  <rect height="20.1848" opacity="0" width="20.5381" x="0" y="0"/>
  <path d="M10.0875 20.175C15.6576 20.175 20.1767 15.6559 20.1767 10.0875C20.1767 4.51914 15.6576 0 10.0875 0C4.51914 0 0 4.51914 0 10.0875C0 15.6559 4.51914 20.175 10.0875 20.175ZM10.0875 18.1879C5.60839 18.1879 1.9871 14.5666 1.9871 10.0875C1.9871 5.60839 5.60839 1.9871 10.0875 1.9871C14.5666 1.9871 18.1897 5.60839 18.1897 10.0875C18.1897 14.5666 14.5666 18.1879 10.0875 18.1879Z" fill="white" fill-opacity="0.25"/>
  <path d="M4.58378 12.8684C4.72226 12.7041 4.68671 12.5 4.52694 12.3109C3.98417 11.7033 3.69725 10.9252 3.69725 10.0875C3.69725 9.2498 3.98417 8.47167 4.52694 7.86405C4.68671 7.67323 4.72226 7.46288 4.58378 7.30487C4.45507 7.12733 4.19237 7.12733 4.00507 7.31464C3.32557 8.05448 2.95878 9.03769 2.95878 10.0875C2.95878 11.1275 3.32557 12.1125 4.00507 12.8604C4.19237 13.0459 4.45507 13.0459 4.58378 12.8684ZM15.601 12.8684C15.7377 13.0459 15.9986 13.0459 16.1797 12.8604C16.8592 12.1125 17.234 11.1275 17.234 10.0875C17.234 9.03769 16.8592 8.05448 16.1797 7.31464C15.9986 7.12733 15.7377 7.12733 15.601 7.30487C15.4607 7.46288 15.498 7.67323 15.6658 7.86405C16.2006 8.47167 16.4955 9.2498 16.4955 10.0875C16.4955 10.9252 16.2006 11.7033 15.6658 12.3109C15.498 12.5 15.4607 12.7041 15.601 12.8684Z" fill="white" fill-opacity="0.25"/>
  <path d="M5.94609 11.7217C6.0828 11.5557 6.03925 11.3684 5.89276 11.166C5.6662 10.8764 5.55429 10.5023 5.55429 10.0875C5.55429 9.67089 5.6662 9.29062 5.89276 9.00898C6.03925 8.80663 6.0828 8.61757 5.94609 8.45331C5.79609 8.26874 5.51386 8.27226 5.35585 8.4746C5.00234 8.92577 4.79804 9.48085 4.79804 10.0875C4.79804 10.6844 5.00234 11.2492 5.35585 11.6906C5.51386 11.8947 5.79609 11.9062 5.94609 11.7217ZM14.2387 11.7217C14.3887 11.9062 14.6709 11.8947 14.8271 11.6906C15.1824 11.2492 15.3947 10.6844 15.3947 10.0875C15.3947 9.48085 15.1824 8.92577 14.8271 8.4746C14.6709 8.27226 14.3887 8.26874 14.2387 8.45331C14.102 8.61757 14.1455 8.80663 14.292 9.00898C14.5186 9.29062 14.6385 9.67089 14.6385 10.0875C14.6385 10.5023 14.5186 10.8764 14.292 11.166C14.1455 11.3684 14.102 11.5557 14.2387 11.7217Z" fill="white" fill-opacity="0.25"/>
  <path d="M6.73222 14.1918C6.73222 15.0184 7.31542 15.5883 8.18105 15.5883L11.9957 15.5883C12.8596 15.5883 13.4445 15.0184 13.4445 14.1918L13.4445 5.98319C13.4445 5.15663 12.8596 4.58671 11.9957 4.58671L8.18105 4.58671C7.31542 4.58671 6.73222 5.15663 6.73222 5.98319ZM7.67968 13.7465L7.67968 6.42851L12.4971 6.42851L12.4971 13.7465ZM10.099 15.0203C9.85664 15.0203 9.65507 14.817 9.65507 14.5764C9.65507 14.3357 9.85664 14.1359 10.099 14.1359C10.3379 14.1359 10.5217 14.3357 10.5217 14.5764C10.5217 14.817 10.3379 15.0203 10.099 15.0203ZM9.08164 5.55155C9.08164 5.42636 9.17578 5.34198 9.28144 5.34198L10.8953 5.34198C11.0107 5.34198 11.0951 5.42636 11.0951 5.55155C11.0951 5.67499 11.0107 5.75312 10.8953 5.75312L9.28144 5.75312C9.17578 5.75312 9.08164 5.67499 9.08164 5.55155Z" fill="white" fill-opacity="0.25"/>
 </g>
</svg>
