<?xml version="1.0" encoding="UTF-8"?>
<!--Generator: Apple Native CoreSVG 341-->
<!DOCTYPE svg
PUBLIC "-//W3C//DTD SVG 1.1//EN"
       "http://www.w3.org/Graphics/SVG/1.1/DTD/svg11.dtd">
<svg version="1.1" xmlns="http://www.w3.org/2000/svg" xmlns:xlink="http://www.w3.org/1999/xlink" viewBox="0 0 13.6115 21.3859">
 <g>
  <rect height="21.3859" opacity="0" width="13.6115" x="0" y="0"/>
  <path d="M2.80917 21.3593L10.4832 21.3593C12.1418 21.3593 13.2502 20.2804 13.2502 18.6656L13.2502 2.69374C13.2502 1.07715 12.1418 0 10.4832 0L2.80917 0C1.12597 0 0 1.07715 0 2.69199L0 18.6674C0 20.2804 1.12597 21.3593 2.80917 21.3593ZM2.99843 6.39354C2.27675 6.39354 1.83827 5.97811 1.83827 5.3035L1.83827 2.97304C1.83827 2.30018 2.27675 1.88475 2.99843 1.88475L5.18065 1.88475C5.90233 1.88475 6.33905 2.30018 6.33905 2.97304L6.33905 5.3035C6.33905 5.97811 5.90233 6.39354 5.18065 6.39354Z" fill="white" fill-opacity="0.25"/>
 </g>
</svg>
