<?xml version="1.0" encoding="UTF-8"?>
<!--Generator: Apple Native CoreSVG 341-->
<!DOCTYPE svg
PUBLIC "-//W3C//DTD SVG 1.1//EN"
       "http://www.w3.org/Graphics/SVG/1.1/DTD/svg11.dtd">
<svg version="1.1" xmlns="http://www.w3.org/2000/svg" xmlns:xlink="http://www.w3.org/1999/xlink" viewBox="0 0 21.0085 21.3859">
 <g>
  <rect height="21.3859" opacity="0" width="21.0085" x="0" y="0"/>
  <path d="M3.1155 2.31074C2.17803 2.71235 1.57343 3.67231 1.57343 4.86132L1.57343 16.498C1.57343 17.687 2.17803 18.647 3.1155 19.0486L2.80917 19.0486C1.12597 19.0486 0 17.9635 0 16.3504L0 5.00898C0 3.3959 1.12597 2.31074 2.80917 2.31074Z" fill="white" fill-opacity="0.25"/>
  <path d="M5.22615 3.47929L5.22615 17.8801C5.22615 19.0691 5.83075 20.029 6.76822 20.4306L6.46365 20.4306C4.78045 20.4306 3.65448 19.3455 3.65448 17.7324L3.65448 3.62695C3.65448 2.01387 4.78045 0.928711 6.46365 0.928711L6.76822 0.928711C5.83075 1.33032 5.22615 2.29028 5.22615 3.47929Z" fill="white" fill-opacity="0.25"/>
  <path d="M10.2062 21.3593L17.8802 21.3593C19.5388 21.3593 20.6472 20.2804 20.6472 18.6656L20.6472 2.69374C20.6472 1.07715 19.5388 0 17.8802 0L10.2062 0C8.52478 0 7.39705 1.07715 7.39705 2.69199L7.39705 18.6674C7.39705 20.2804 8.52478 21.3593 10.2062 21.3593ZM10.5263 19.3916C9.75348 19.3916 9.31031 18.9715 9.31031 18.2271L9.31031 3.13221C9.31031 2.38788 9.75348 1.96776 10.5263 1.96776L17.5117 1.96776C18.2908 1.96776 18.7339 2.39139 18.7339 3.13397L18.7339 18.2254C18.7339 18.968 18.2908 19.3916 17.5117 19.3916Z" fill="white" fill-opacity="0.25"/>
 </g>
</svg>
