<?xml version="1.0" encoding="UTF-8"?>
<!--Generator: Apple Native CoreSVG 341-->
<!DOCTYPE svg
PUBLIC "-//W3C//DTD SVG 1.1//EN"
       "http://www.w3.org/Graphics/SVG/1.1/DTD/svg11.dtd">
<svg version="1.1" xmlns="http://www.w3.org/2000/svg" xmlns:xlink="http://www.w3.org/1999/xlink" viewBox="0 0 19.6404 23.7304">
 <g>
  <rect height="23.7304" opacity="0" width="19.6404" x="0" y="0"/>
  <path d="M14.0781 3.86601L14.0781 4.41424L12.1648 4.41424L12.1648 4.30623C12.1648 3.56365 11.7137 3.14002 10.9426 3.14002L3.95721 3.14002C3.18436 3.14002 2.73319 3.56014 2.73319 4.30448L2.73319 19.3994C2.73319 20.1437 3.18436 20.5639 3.95721 20.5639L6.86354 20.5639C6.91445 21.3364 7.18986 22.008 7.63168 22.5316L3.63085 22.5316C1.94765 22.5316 0.81992 21.4527 0.81992 19.8396L0.81992 3.86425C0.81992 2.24941 1.94765 1.17226 3.63085 1.17226L11.3111 1.17226C12.9697 1.17226 14.0781 2.24941 14.0781 3.86601ZM9.42535 4.5309C8.81427 4.67546 8.2839 4.96354 7.86617 5.36326L6.22167 5.36326C5.80214 5.36326 5.46854 5.03767 5.46854 4.61013C5.46854 4.1906 5.80389 3.86326 6.22167 3.86326L8.67635 3.86326C9.06742 3.86326 9.38626 4.15009 9.42535 4.5309Z" fill="white" fill-opacity="0.25"/>
  <path d="M10.3961 22.5492L16.1283 22.5492C17.5334 22.5492 18.4591 21.6467 18.4591 20.2808L18.4591 7.86033C18.4591 6.49803 17.5334 5.59725 16.1283 5.59725L10.3961 5.59725C8.97517 5.59725 8.03181 6.49803 8.03181 7.85681L8.03181 20.2826C8.03181 21.6467 8.97517 22.5492 10.3961 22.5492ZM10.7847 20.8267C10.1273 20.8267 9.75602 20.4652 9.75602 19.8416L9.75602 8.30661C9.75602 7.67946 10.1273 7.32146 10.7847 7.32146L15.7062 7.32146C16.3441 7.32146 16.7332 7.68474 16.7332 8.30837L16.7332 19.8398C16.7332 20.4617 16.3441 20.8267 15.7062 20.8267ZM12.1564 9.38415L14.3843 9.38415C14.7482 9.38415 15.0517 9.0904 15.0517 8.707C15.0517 8.32712 14.7482 8.0236 14.3843 8.0236L12.1564 8.0236C11.773 8.0236 11.4713 8.32712 11.4713 8.707C11.4713 9.0904 11.773 9.38415 12.1564 9.38415Z" fill="white" fill-opacity="0.25"/>
 </g>
</svg>
