<?xml version="1.0" encoding="UTF-8"?>
<!--Generator: Apple Native CoreSVG 341-->
<!DOCTYPE svg
PUBLIC "-//W3C//DTD SVG 1.1//EN"
       "http://www.w3.org/Graphics/SVG/1.1/DTD/svg11.dtd">
<svg version="1.1" xmlns="http://www.w3.org/2000/svg" xmlns:xlink="http://www.w3.org/1999/xlink" viewBox="0 0 21.7269 13.291">
 <g>
  <rect height="13.291" opacity="0" width="21.7269" x="0" y="0"/>
  <path d="M2.69824 13.2564L18.6754 13.2564C20.2885 13.2564 21.3656 12.1224 21.3656 10.4392L21.3656 2.76523C21.3656 1.10664 20.2885 0 18.6736 0L2.69999 0C1.08515 0 0 1.10664 0 2.76523L0 10.4392C0 12.1224 1.08515 13.2564 2.69824 13.2564ZM3.14022 11.3431C2.38612 11.3431 1.966 10.8937 1.966 10.1191L1.966 3.13554C1.966 2.36268 2.39139 1.91327 3.14198 1.91327L18.2316 1.91327C18.9742 1.91327 19.3996 2.36268 19.3996 3.13554L19.3996 10.1191C19.3996 10.8937 18.9795 11.3431 18.2334 11.3431ZM8.09745 10.5748L13.2762 10.5748C13.5609 10.5748 13.7623 10.3769 13.7623 10.0807C13.7623 9.78436 13.5609 9.59101 13.2762 9.59101L8.09745 9.59101C7.81444 9.59101 7.61132 9.78436 7.61132 10.0807C7.61132 10.3769 7.81444 10.5748 8.09745 10.5748ZM3.44588 8.60955C3.87342 8.60955 4.199 8.27596 4.199 7.84842L4.199 5.39198C4.199 4.97245 3.87342 4.64687 3.44588 4.64687C3.02635 4.64687 2.691 4.97421 2.691 5.39198L2.691 7.84842C2.691 8.27244 3.02635 8.60955 3.44588 8.60955Z" fill="white" fill-opacity="0.25"/>
 </g>
</svg>
