<?xml version="1.0" encoding="UTF-8"?>
<!--Generator: Apple Native CoreSVG 341-->
<!DOCTYPE svg
PUBLIC "-//W3C//DTD SVG 1.1//EN"
       "http://www.w3.org/Graphics/SVG/1.1/DTD/svg11.dtd">
<svg version="1.1" xmlns="http://www.w3.org/2000/svg" xmlns:xlink="http://www.w3.org/1999/xlink" viewBox="0 0 21.0198 21.3859">
 <g>
  <rect height="21.3859" opacity="0" width="21.0198" x="0" y="0"/>
  <path d="M5.6183 8.82864L5.6183 17.6947L14.4924 17.6947L16.6988 19.8991C16.285 20.8123 15.3788 21.3674 14.1882 21.3674L6.5142 21.3674C4.831 21.3674 3.70327 20.2902 3.70327 18.6754L3.70327 6.91534ZM9.43451 19.3769C9.43451 19.8808 9.83998 20.2881 10.3439 20.2881C10.8363 20.2881 11.2435 19.8808 11.2435 19.3769C11.2435 18.8846 10.8363 18.4791 10.3439 18.4791C9.83998 18.4791 9.43451 18.8846 9.43451 19.3769ZM16.9534 2.69374L16.9534 14.5565L15.0402 12.6443L15.0402 3.67264L6.06322 3.67264L3.92912 1.53979C4.33542 0.584738 5.27404 0 6.5142 0L14.1882 0C15.8468 0 16.9534 1.07715 16.9534 2.69374ZM8.76713 1.47851C8.52592 1.47851 8.35033 1.64433 8.35033 1.8953C8.35033 2.14804 8.52592 2.30233 8.76713 2.30233L11.8993 2.30233C12.1486 2.30233 12.3161 2.14804 12.3161 1.8953C12.3161 1.64433 12.1486 1.47851 11.8993 1.47851Z" fill="white" fill-opacity="0.25"/>
  <path d="M18.1212 19.6191C18.4247 19.9289 18.9288 19.9226 19.2208 19.6191C19.5226 19.3236 19.5243 18.831 19.2208 18.5195L2.53647 1.84492C2.23296 1.5414 1.72885 1.5334 1.4271 1.84492C1.13335 2.13691 1.13335 2.65078 1.4271 2.94453Z" fill="white" fill-opacity="0.25"/>
 </g>
</svg>
