<?xml version="1.0" encoding="UTF-8"?>
<!--Generator: Apple Native CoreSVG 341-->
<!DOCTYPE svg
PUBLIC "-//W3C//DTD SVG 1.1//EN"
       "http://www.w3.org/Graphics/SVG/1.1/DTD/svg11.dtd">
<svg version="1.1" xmlns="http://www.w3.org/2000/svg" xmlns:xlink="http://www.w3.org/1999/xlink" viewBox="0 0 27.4421 21.3859">
 <g>
  <rect height="21.3859" opacity="0" width="27.4421" x="0" y="0"/>
  <path d="M10.5795 18.6754C10.5795 20.2902 11.7055 21.3674 13.3887 21.3674L21.0627 21.3674C22.7213 21.3674 23.8296 20.2902 23.8296 18.6736L23.8296 2.69374C23.8296 1.07715 22.7213 0 21.0627 0L13.3887 0C11.7055 0 10.5795 1.07715 10.5795 2.69199ZM12.4927 17.6947L12.4927 3.67264L21.9164 3.67264L21.9164 17.6947ZM17.2183 20.2881C16.7162 20.2881 16.309 19.8808 16.309 19.3769C16.309 18.8846 16.7162 18.4791 17.2183 18.4791C17.7107 18.4791 18.1179 18.8846 18.1179 19.3769C18.1179 19.8808 17.7107 20.2881 17.2183 20.2881Z" fill="white" fill-opacity="0.25"/>
  <path d="M4.63476 4.28925L4.63476 9.34959C4.63476 10.1267 5.43496 10.4603 6.01249 9.94666L8.89882 7.40721C9.291 7.06561 9.29276 6.56972 8.89882 6.22812L6.01249 3.67714C5.45547 3.17597 4.63476 3.47129 4.63476 4.28925ZM0.884761 7.69666L6.4748 7.69666C6.96503 7.69666 7.35155 7.31014 7.35155 6.81991C7.35155 6.33144 6.96503 5.93515 6.4748 5.93515L0.884761 5.93515C0.394529 5.93515 0 6.33144 0 6.81991C0 7.31014 0.394529 7.69666 0.884761 7.69666Z" fill="white" fill-opacity="0.25"/>
 </g>
</svg>
