<?xml version="1.0" encoding="UTF-8"?>
<!--Generator: Apple Native CoreSVG 341-->
<!DOCTYPE svg
PUBLIC "-//W3C//DTD SVG 1.1//EN"
       "http://www.w3.org/Graphics/SVG/1.1/DTD/svg11.dtd">
<svg version="1.1" xmlns="http://www.w3.org/2000/svg" xmlns:xlink="http://www.w3.org/1999/xlink" viewBox="0 0 20.9917 21.3859">
 <g>
  <rect height="21.3859" opacity="0" width="20.9917" x="0" y="0"/>
  <path d="M5.60424 8.81459L5.60424 18.2271C5.60424 18.9715 6.05365 19.3916 6.82826 19.3916L13.8118 19.3916C14.5811 19.3916 15.0299 18.9719 15.0337 18.2356L16.6919 19.8922C16.2777 20.8042 15.3719 21.3593 14.1822 21.3593L6.50014 21.3593C4.81694 21.3593 3.68921 20.2804 3.68921 18.6674L3.68921 6.90129ZM12.9179 18.1371C12.9179 18.4334 12.7148 18.6312 12.43 18.6312L8.21459 18.6312C7.93158 18.6312 7.72846 18.4334 7.72846 18.1371C7.72846 17.8391 7.93158 17.6475 8.21459 17.6475L12.43 17.6475C12.7148 17.6475 12.9179 17.8391 12.9179 18.1371ZM16.9474 2.69374L16.9474 14.5504L15.0341 12.6383L15.0341 3.13397C15.0341 2.39139 14.5847 1.96776 13.8118 1.96776L6.82826 1.96776C6.05365 1.96776 5.60424 2.38788 5.60424 3.13221L5.60424 3.21393L3.91951 1.53019C4.32778 0.580743 5.26422 0 6.50014 0L14.1822 0C15.8407 0 16.9474 1.07715 16.9474 2.69374ZM12.3005 3.43787C12.3005 3.86541 11.9669 4.19099 11.5554 4.19099L9.09896 4.19099C8.67143 4.19099 8.33783 3.86541 8.33783 3.43787C8.33783 3.01834 8.67318 2.691 9.09896 2.691L11.5554 2.691C11.9634 2.691 12.3005 3.01834 12.3005 3.43787Z" fill="white" fill-opacity="0.25"/>
  <path d="M18.123 19.6191C18.4247 19.9289 18.9288 19.9226 19.2208 19.6191C19.5226 19.3236 19.5243 18.831 19.2208 18.5195L2.53647 1.84492C2.23296 1.5414 1.73061 1.5334 1.4271 1.84492C1.13335 2.13691 1.13335 2.65078 1.4271 2.94453Z" fill="white" fill-opacity="0.25"/>
 </g>
</svg>
