<?xml version="1.0" encoding="UTF-8"?>
<!--Generator: Apple Native CoreSVG 341-->
<!DOCTYPE svg
PUBLIC "-//W3C//DTD SVG 1.1//EN"
       "http://www.w3.org/Graphics/SVG/1.1/DTD/svg11.dtd">
<svg version="1.1" xmlns="http://www.w3.org/2000/svg" xmlns:xlink="http://www.w3.org/1999/xlink" viewBox="0 0 20.5381 20.1848">
 <g>
  <rect height="20.1848" opacity="0" width="20.5381" x="0" y="0"/>
  <path d="M14.223 17.7551L15.8088 17.7551L15.8088 7.93534C15.8088 6.53437 14.848 5.60214 13.4096 5.60214L6.7873 5.60214C5.333 5.60214 4.35995 6.53437 4.35995 7.93358L4.35995 17.7551L5.94569 17.7551L5.94569 8.74042L14.223 8.74042ZM8.39277 7.22362C8.39277 7.008 8.52851 6.87577 8.73261 6.87577L11.4441 6.87577C11.6465 6.87577 11.784 7.008 11.784 7.22362C11.784 7.43749 11.6465 7.56971 11.4441 7.56971L8.73261 7.56971C8.52851 7.56971 8.39277 7.43749 8.39277 7.22362ZM10.0875 20.175C15.6576 20.175 20.1767 15.6559 20.1767 10.0875C20.1767 4.51914 15.6576 0 10.0875 0C4.51914 0 0 4.51914 0 10.0875C0 15.6559 4.51914 20.175 10.0875 20.175ZM10.0875 18.1879C5.60839 18.1879 1.9871 14.5666 1.9871 10.0875C1.9871 5.60839 5.60839 1.9871 10.0875 1.9871C14.5666 1.9871 18.1897 5.60839 18.1897 10.0875C18.1897 14.5666 14.5666 18.1879 10.0875 18.1879Z" fill="white" fill-opacity="0.25"/>
 </g>
</svg>
