<?xml version="1.0" encoding="UTF-8"?>
<!--Generator: Apple Native CoreSVG 341-->
<!DOCTYPE svg
PUBLIC "-//W3C//DTD SVG 1.1//EN"
       "http://www.w3.org/Graphics/SVG/1.1/DTD/svg11.dtd">
<svg version="1.1" xmlns="http://www.w3.org/2000/svg" xmlns:xlink="http://www.w3.org/1999/xlink" viewBox="0 0 34.7705 21.3859">
 <g>
  <rect height="21.3859" opacity="0" width="34.7705" x="0" y="0"/>
  <path d="M13.3887 21.3593L21.0627 21.3593C22.7213 21.3593 23.8296 20.2804 23.8296 18.6656L23.8296 2.69374C23.8296 1.07715 22.7213 0 21.0627 0L13.3887 0C11.7072 0 10.5795 1.07715 10.5795 2.69199L10.5795 18.6674C10.5795 20.2804 11.7072 21.3593 13.3887 21.3593ZM13.7088 19.3916C12.9359 19.3916 12.4927 18.9715 12.4927 18.2271L12.4927 3.13221C12.4927 2.38788 12.9359 1.96776 13.7088 1.96776L20.6941 1.96776C21.4732 1.96776 21.9164 2.39139 21.9164 3.13397L21.9164 18.2254C21.9164 18.968 21.4732 19.3916 20.6941 19.3916ZM15.1049 18.6312L19.3123 18.6312C19.597 18.6312 19.8082 18.4334 19.8082 18.1371C19.8082 17.8391 19.597 17.6475 19.3123 17.6475L15.1049 17.6475C14.8201 17.6475 14.6107 17.8391 14.6107 18.1371C14.6107 18.4334 14.8201 18.6312 15.1049 18.6312ZM15.9812 4.19099L18.4359 4.19099C18.8554 4.19099 19.181 3.86541 19.181 3.43787C19.181 3.01834 18.8537 2.691 18.4359 2.691L15.9812 2.691C15.5554 2.691 15.2281 3.01834 15.2281 3.43787C15.2281 3.86541 15.5537 4.19099 15.9812 4.19099Z" fill="white" fill-opacity="0.25"/>
  <path d="M29.7744 4.28925C29.7744 3.47129 28.9537 3.17597 28.3949 3.67714L25.5103 6.22812C25.1164 6.56972 25.1164 7.06561 25.5103 7.40721L28.3949 9.94666C28.9742 10.4603 29.7744 10.1267 29.7744 9.34959ZM33.5244 7.69666C34.0146 7.69666 34.4091 7.31014 34.4091 6.81991C34.4091 6.33144 34.0146 5.93515 33.5244 5.93515L27.9343 5.93515C27.4441 5.93515 27.0576 6.33144 27.0576 6.81991C27.0576 7.31014 27.4441 7.69666 27.9343 7.69666Z" fill="white" fill-opacity="0.25"/>
  <path d="M4.63476 4.28925L4.63476 9.34959C4.63476 10.1267 5.43496 10.4603 6.01425 9.94666L8.90057 7.40721C9.28475 7.06561 9.29276 6.56972 8.90057 6.22812L6.01425 3.67714C5.45547 3.17597 4.63476 3.47129 4.63476 4.28925ZM0.876753 7.69666L6.46855 7.69666C6.95702 7.69666 7.35331 7.31014 7.35331 6.81991C7.35331 6.33144 6.95702 5.93515 6.46855 5.93515L0.876753 5.93515C0.386521 5.93515 0 6.33144 0 6.81991C0 7.31014 0.386521 7.69666 0.876753 7.69666Z" fill="white" fill-opacity="0.25"/>
 </g>
</svg>
