<?xml version="1.0" encoding="UTF-8"?>
<!--Generator: Apple Native CoreSVG 341-->
<!DOCTYPE svg
PUBLIC "-//W3C//DTD SVG 1.1//EN"
       "http://www.w3.org/Graphics/SVG/1.1/DTD/svg11.dtd">
<svg version="1.1" xmlns="http://www.w3.org/2000/svg" xmlns:xlink="http://www.w3.org/1999/xlink" viewBox="0 0 20.5381 20.1848">
 <g>
  <rect height="20.1848" opacity="0" width="20.5381" x="0" y="0"/>
  <path d="M20.1767 10.0875C20.1767 15.6559 15.6576 20.175 10.0875 20.175C4.51914 20.175 0 15.6559 0 10.0875C0 4.51914 4.51914 0 10.0875 0C15.6576 0 20.1767 4.51914 20.1767 10.0875ZM1.9871 10.0875C1.9871 14.5666 5.60839 18.1879 10.0875 18.1879C14.5666 18.1879 18.1897 14.5666 18.1897 10.0875C18.1897 5.60839 14.5666 1.9871 10.0875 1.9871C5.60839 1.9871 1.9871 5.60839 1.9871 10.0875Z" fill="white" fill-opacity="0.25"/>
  <path d="M7.40546 9.07636L7.40546 14.1484L12.4775 14.1484L13.5697 15.2406C13.6041 15.2744 13.64 15.3057 13.6776 15.3339C13.4396 15.8693 12.9063 16.2004 12.2086 16.2004L7.96816 16.2004C7.00761 16.2004 6.35703 15.5728 6.35703 14.6514L6.35703 8.02792ZM9.60273 15.0785C9.60273 15.3502 9.82734 15.573 10.099 15.573C10.3592 15.573 10.574 15.3502 10.574 15.0785C10.574 14.8068 10.3592 14.584 10.099 14.584C9.82734 14.584 9.60273 14.8068 9.60273 15.0785ZM13.818 5.52363L13.818 12.1341L12.7713 11.0884L12.7713 6.02655L7.7047 6.02655L6.63104 4.9539C6.58921 4.91135 6.54518 4.87259 6.4987 4.83898C6.73771 4.30481 7.27138 3.9746 7.96816 3.9746L12.2086 3.9746C13.1691 3.9746 13.818 4.60214 13.818 5.52363ZM9.19277 4.81054C9.05781 4.81054 8.96191 4.89491 8.96191 5.03964C8.96191 5.1746 9.05781 5.2705 9.19277 5.2705L10.992 5.2705C11.1287 5.2705 11.2131 5.1746 11.2131 5.03964C11.2131 4.89491 11.1287 4.81054 10.992 4.81054Z" fill="white" fill-opacity="0.25"/>
  <path d="M14.065 14.7355C14.2486 14.9174 14.568 14.9271 14.7516 14.7355C14.9449 14.5439 14.9449 14.2406 14.7516 14.0473L6.14549 5.43319C5.94413 5.23983 5.63905 5.23983 5.44745 5.43319C5.25409 5.62479 5.25409 5.93612 5.44745 6.11971Z" fill="white" fill-opacity="0.25"/>
 </g>
</svg>
