<?xml version="1.0" encoding="UTF-8"?>
<!--Generator: Apple Native CoreSVG 341-->
<!DOCTYPE svg
PUBLIC "-//W3C//DTD SVG 1.1//EN"
       "http://www.w3.org/Graphics/SVG/1.1/DTD/svg11.dtd">
<svg version="1.1" xmlns="http://www.w3.org/2000/svg" xmlns:xlink="http://www.w3.org/1999/xlink" viewBox="0 0 13.6115 21.3859">
 <g>
  <rect height="21.3859" opacity="0" width="13.6115" x="0" y="0"/>
  <path d="M2.80917 21.3593L10.4832 21.3593C12.1418 21.3593 13.2502 20.2804 13.2502 18.6656L13.2502 2.69374C13.2502 1.07715 12.1418 0 10.4832 0L2.80917 0C1.12597 0 0 1.07715 0 2.69199L0 18.6674C0 20.2804 1.12597 21.3593 2.80917 21.3593ZM3.13729 18.1016C2.35643 18.1016 1.91327 17.6814 1.91327 16.9371L1.91327 3.13221C1.91327 2.38788 2.35643 1.96776 3.13729 1.96776L10.1226 1.96776C10.8937 1.96776 11.3369 2.39139 11.3369 3.13397L11.3369 16.9754C11.3369 17.726 10.8937 18.1016 10.1226 18.1016ZM5.05565 18.3314L8.20252 18.3314L8.20252 17.7607C8.20252 17.341 7.92655 17.0473 7.50858 17.0473L5.7576 17.0473C5.33163 17.0473 5.05565 17.341 5.05565 17.7607Z" fill="white" fill-opacity="0.25"/>
 </g>
</svg>
