<?xml version="1.0" encoding="UTF-8"?>
<!--Generator: Apple Native CoreSVG 341-->
<!DOCTYPE svg
PUBLIC "-//W3C//DTD SVG 1.1//EN"
       "http://www.w3.org/Graphics/SVG/1.1/DTD/svg11.dtd">
<svg version="1.1" xmlns="http://www.w3.org/2000/svg" xmlns:xlink="http://www.w3.org/1999/xlink" viewBox="0 0 32.8205 21.3859">
 <g>
  <rect height="21.3859" opacity="0" width="32.8205" x="0" y="0"/>
  <path d="M3.86796 17.3625C4.1998 16.9793 4.09687 16.4869 3.72597 16.0672C2.45429 14.656 1.74296 12.7613 1.74296 10.6881C1.74296 8.61659 2.45253 6.7201 3.72597 5.31072C4.09863 4.891 4.20332 4.39862 3.86796 4.01542C3.52734 3.60917 2.92949 3.59432 2.49863 4.06249C0.910938 5.77635 0 8.1535 0 10.6881C0 13.2262 0.886329 15.5795 2.49863 17.3154C2.93301 17.7818 3.5291 17.7625 3.86796 17.3625ZM28.5912 17.3625C28.93 17.7625 29.5261 17.7818 29.9685 17.3154C31.5826 15.5795 32.4591 13.2262 32.4591 10.6881C32.4591 8.1535 31.558 5.77635 29.9685 4.06249C29.5314 3.59432 28.9335 3.60917 28.5912 4.01542C28.2576 4.39862 28.3605 4.891 28.7332 5.31072C30.0084 6.72186 30.7162 8.61659 30.7162 10.6881C30.7162 12.7613 30.0048 14.656 28.7332 16.0672C28.364 16.4869 28.2593 16.9793 28.5912 17.3625Z" fill="white" fill-opacity="0.25"/>
  <path d="M6.71659 14.5635C7.03964 14.1838 6.9162 13.7127 6.59316 13.2734C6.05292 12.5902 5.76796 11.6527 5.76796 10.6881C5.76796 9.72342 6.05292 8.77616 6.59316 8.0992C6.91444 7.6617 7.03964 7.19237 6.71659 6.81092C6.37323 6.40116 5.73105 6.39413 5.33476 6.87225C4.49746 7.88827 4.025 9.24022 4.025 10.6881C4.025 12.1359 4.49746 13.4879 5.33476 14.5004C5.73105 14.9803 6.37323 14.9652 6.71659 14.5635ZM25.7425 14.5635C26.0859 14.9652 26.7281 14.9803 27.1244 14.5004C27.9634 13.4879 28.4421 12.1359 28.4421 10.6881C28.4421 9.24022 27.9634 7.88827 27.1244 6.87225C26.7281 6.39413 26.0859 6.40116 25.7425 6.81092C25.4195 7.19237 25.5527 7.6617 25.866 8.0992C26.4062 8.77616 26.6992 9.72342 26.6992 10.6881C26.6992 11.6527 26.4062 12.5902 25.866 13.2734C25.5509 13.7127 25.4195 14.1838 25.7425 14.5635Z" fill="white" fill-opacity="0.25"/>
  <path d="M12.4168 21.3593L20.0908 21.3593C21.7494 21.3593 22.8578 20.2804 22.8578 18.6656L22.8578 2.69374C22.8578 1.07715 21.7494 0 20.0908 0L12.4168 0C10.7336 0 9.60761 1.07715 9.60761 2.69199L9.60761 18.6674C9.60761 20.2804 10.7336 21.3593 12.4168 21.3593ZM12.7449 19.3916C11.964 19.3916 11.5209 18.9715 11.5209 18.2271L11.5209 3.13221C11.5209 2.38788 11.964 1.96776 12.7449 1.96776L14.0213 1.96776C14.1793 1.96776 14.2592 2.04764 14.2592 2.19588L14.2592 2.44862C14.2592 2.87635 14.5431 3.16209 14.9629 3.16209L17.5185 3.16209C17.9383 3.16209 18.2142 2.87635 18.2142 2.44862L18.2142 2.19588C18.2142 2.04764 18.2941 1.96776 18.4504 1.96776L19.7302 1.96776C20.5013 1.96776 20.9445 2.39139 20.9445 3.13397L20.9445 18.2254C20.9445 18.968 20.5013 19.3916 19.7302 19.3916ZM14.133 18.6312L18.3484 18.6312C18.6332 18.6312 18.8345 18.4334 18.8345 18.1371C18.8345 17.8391 18.6332 17.6475 18.3484 17.6475L14.133 17.6475C13.8482 17.6475 13.6371 17.8391 13.6371 18.1371C13.6371 18.4334 13.8482 18.6312 14.133 18.6312Z" fill="white" fill-opacity="0.25"/>
 </g>
</svg>
