<?xml version="1.0" encoding="UTF-8"?>
<!--Generator: Apple Native CoreSVG 341-->
<!DOCTYPE svg
PUBLIC "-//W3C//DTD SVG 1.1//EN"
       "http://www.w3.org/Graphics/SVG/1.1/DTD/svg11.dtd">
<svg version="1.1" xmlns="http://www.w3.org/2000/svg" xmlns:xlink="http://www.w3.org/1999/xlink" viewBox="0 0 20.5381 20.1848">
 <g>
  <rect height="20.1848" opacity="0" width="20.5381" x="0" y="0"/>
  <path d="M10.0875 20.175C15.6576 20.175 20.1767 15.6559 20.1767 10.0875C20.1767 4.51914 15.6576 0 10.0875 0C4.51914 0 0 4.51914 0 10.0875C0 15.6559 4.51914 20.175 10.0875 20.175ZM10.0875 18.1879C5.60839 18.1879 1.9871 14.5666 1.9871 10.0875C1.9871 5.60839 5.60839 1.9871 10.0875 1.9871C14.5666 1.9871 18.1897 5.60839 18.1897 10.0875C18.1897 14.5666 14.5666 18.1879 10.0875 18.1879Z" fill="white" fill-opacity="0.25"/>
  <path d="M7.96816 16.2004L12.2006 16.2004C13.1611 16.2004 13.818 15.5728 13.818 14.6434L13.818 5.52363C13.818 4.59238 13.1611 3.9746 12.2006 3.9746L7.96816 3.9746C7.01562 3.9746 6.35703 4.59238 6.35703 5.52363L6.35703 14.6434C6.35703 15.5728 7.01562 16.2004 7.96816 16.2004ZM8.10566 15.1098C7.6498 15.1098 7.39745 14.8734 7.39745 14.4416L7.39745 5.72362C7.39745 5.29354 7.6498 5.05721 8.10566 5.05721L12.0728 5.05721C12.527 5.05721 12.7793 5.2953 12.7793 5.72714L12.7793 14.4398C12.7793 14.8717 12.527 15.1098 12.0728 15.1098ZM8.88261 14.6846L11.2941 14.6846C11.4602 14.6846 11.5809 14.5754 11.5809 14.4094C11.5809 14.2301 11.4602 14.1129 11.2941 14.1129L8.88261 14.1129C8.7166 14.1129 8.59589 14.2301 8.59589 14.4094C8.59589 14.5754 8.7166 14.6846 8.88261 14.6846ZM9.39042 6.36405L10.7801 6.36405C11.0215 6.36405 11.2088 6.1785 11.2088 5.93885C11.2088 5.70546 11.0197 5.51815 10.7801 5.51815L9.39042 5.51815C9.15078 5.51815 8.96171 5.70546 8.96171 5.93885C8.96171 6.1785 9.14902 6.36405 9.39042 6.36405Z" fill="white" fill-opacity="0.25"/>
 </g>
</svg>
