<?xml version="1.0" encoding="UTF-8"?>
<!--Generator: Apple Native CoreSVG 341-->
<!DOCTYPE svg
PUBLIC "-//W3C//DTD SVG 1.1//EN"
       "http://www.w3.org/Graphics/SVG/1.1/DTD/svg11.dtd">
<svg version="1.1" xmlns="http://www.w3.org/2000/svg" xmlns:xlink="http://www.w3.org/1999/xlink" viewBox="0 0 13.6115 21.3859">
 <g>
  <rect height="21.3859" opacity="0" width="13.6115" x="0" y="0"/>
  <path d="M2.80917 21.3593L10.4832 21.3593C12.1418 21.3593 13.2502 20.2804 13.2502 18.6656L13.2502 2.69374C13.2502 1.07715 12.1418 0 10.4832 0L2.80917 0C1.12597 0 0 1.07715 0 2.69199L0 18.6674C0 20.2804 1.12597 21.3593 2.80917 21.3593ZM3.13729 19.3916C2.35643 19.3916 1.91327 18.9715 1.91327 18.2271L1.91327 3.13221C1.91327 2.38788 2.35643 1.96776 3.13729 1.96776L10.1226 1.96776C10.8937 1.96776 11.3369 2.39139 11.3369 3.13397L11.3369 18.2254C11.3369 18.968 10.8937 19.3916 10.1226 19.3916ZM4.52538 18.6312L8.7408 18.6312C9.02557 18.6312 9.22694 18.4334 9.22694 18.1371C9.22694 17.8391 9.02557 17.6475 8.7408 17.6475L4.52538 17.6475C4.24061 17.6475 4.02948 17.8391 4.02948 18.1371C4.02948 18.4334 4.24061 18.6312 4.52538 18.6312ZM5.40175 4.19099L7.85643 4.19099C8.27596 4.19099 8.60154 3.86541 8.60154 3.43787C8.60154 3.01834 8.2742 2.691 7.85643 2.691L5.40175 2.691C4.97597 2.691 4.64862 3.01834 4.64862 3.43787C4.64862 3.86541 4.97421 4.19099 5.40175 4.19099Z" fill="white" fill-opacity="0.25"/>
 </g>
</svg>
