<?xml version="1.0" encoding="UTF-8"?>
<!--Generator: Apple Native CoreSVG 341-->
<!DOCTYPE svg
PUBLIC "-//W3C//DTD SVG 1.1//EN"
       "http://www.w3.org/Graphics/SVG/1.1/DTD/svg11.dtd">
<svg version="1.1" xmlns="http://www.w3.org/2000/svg" xmlns:xlink="http://www.w3.org/1999/xlink" viewBox="0 0 21.0085 21.8074">
 <g>
  <rect height="21.8074" opacity="0" width="21.0085" x="0" y="0"/>
  <path d="M1.57343 2.75507L1.57343 19.0258C1.57343 20.2095 2.17136 21.1648 3.09987 21.5701L2.80917 21.5701C1.12597 21.5701 0 20.4912 0 18.8781L0 2.90273C0 1.28789 1.12597 0.21074 2.80917 0.21074L3.09987 0.21074C2.17136 0.616064 1.57343 1.57132 1.57343 2.75507Z" fill="white" fill-opacity="0.25"/>
  <path d="M5.22615 2.75507L5.22615 19.0258C5.22615 20.2095 5.82408 21.1648 6.75259 21.5701L6.46365 21.5701C4.78045 21.5701 3.65448 20.4912 3.65448 18.8781L3.65448 2.90273C3.65448 1.28789 4.78045 0.21074 6.46365 0.21074L6.75259 0.21074C5.82408 0.616064 5.22615 1.57132 5.22615 2.75507Z" fill="white" fill-opacity="0.25"/>
  <path d="M10.2062 21.5701L17.8802 21.5701C19.5388 21.5701 20.6472 20.4912 20.6472 18.8763L20.6472 2.90448C20.6472 1.28789 19.5388 0.21074 17.8802 0.21074L10.2062 0.21074C8.52478 0.21074 7.39705 1.28789 7.39705 2.90273L7.39705 18.8781C7.39705 20.4912 8.52478 21.5701 10.2062 21.5701ZM10.5263 19.6023C9.75348 19.6023 9.31031 19.1822 9.31031 18.4379L9.31031 3.34295C9.31031 2.59862 9.75348 2.1785 10.5263 2.1785L11.8125 2.1785C11.9687 2.1785 12.0486 2.25838 12.0486 2.40662L12.0486 2.65936C12.0486 3.08709 12.3246 3.37283 12.7523 3.37283L15.3 3.37283C15.7197 3.37283 16.0037 3.08709 16.0037 2.65936L16.0037 2.40662C16.0037 2.25838 16.0836 2.1785 16.2336 2.1785L17.5117 2.1785C18.2908 2.1785 18.7339 2.60213 18.7339 3.34471L18.7339 18.4361C18.7339 19.1787 18.2908 19.6023 17.5117 19.6023ZM11.9144 18.842L16.1298 18.842C16.4146 18.842 16.6257 18.6441 16.6257 18.3478C16.6257 18.0498 16.4146 17.8582 16.1298 17.8582L11.9144 17.8582C11.6297 17.8582 11.4283 18.0498 11.4283 18.3478C11.4283 18.6441 11.6297 18.842 11.9144 18.842Z" fill="white" fill-opacity="0.25"/>
 </g>
</svg>
