<?xml version="1.0" encoding="UTF-8"?>
<!--Generator: Apple Native CoreSVG 341-->
<!DOCTYPE svg
PUBLIC "-//W3C//DTD SVG 1.1//EN"
       "http://www.w3.org/Graphics/SVG/1.1/DTD/svg11.dtd">
<svg version="1.1" xmlns="http://www.w3.org/2000/svg" xmlns:xlink="http://www.w3.org/1999/xlink" viewBox="0 0 21.5685 23.7269">
 <g>
  <rect height="23.7269" opacity="0" width="21.5685" x="0" y="0"/>
  <path d="M15.0422 3.86425L15.0422 4.41248L13.1289 4.41248L13.1289 4.30448C13.1289 3.5619 12.6777 3.13826 11.9066 3.13826L4.92128 3.13826C4.14842 3.13826 3.69725 3.55838 3.69725 4.30272L3.69725 19.3976C3.69725 20.142 4.14842 20.5621 4.92128 20.5621L8.72948 20.5621C8.75625 21.3013 9.0053 21.9875 9.44393 22.5299L4.59491 22.5299C2.91171 22.5299 1.78398 21.4509 1.78398 19.8379L1.78398 3.86249C1.78398 2.24765 2.91171 1.17051 4.59491 1.17051L12.2752 1.17051C13.9338 1.17051 15.0422 2.24765 15.0422 3.86425ZM8.72264 19.8017L6.30936 19.8017C6.0246 19.8017 5.82323 19.6039 5.82323 19.3076C5.82323 19.0096 6.0246 18.818 6.30936 18.818L8.72264 18.818ZM10.3935 4.60838C10.3935 4.69328 10.3804 4.77416 10.3555 4.84902C10.0975 4.9878 9.86723 5.16059 9.66606 5.36026C9.65771 5.36136 9.64908 5.3615 9.64041 5.3615L7.18573 5.3615C6.7662 5.3615 6.43261 5.03591 6.43261 4.60838C6.43261 4.18885 6.76796 3.8615 7.18573 3.8615L9.64041 3.8615C10.0582 3.8615 10.3935 4.18885 10.3935 4.60838Z" fill="white" fill-opacity="0.25"/>
  <path d="M9.90388 20.4088C9.90388 21.6884 10.7824 22.5457 12.1287 22.5457L18.1941 22.5457C19.513 22.5457 20.3855 21.6884 20.3855 20.407L20.3855 7.72439C20.3855 6.45721 19.513 5.59549 18.1941 5.59549L12.1287 5.59549C10.7824 5.59549 9.90388 6.45721 9.90388 7.72439ZM11.6966 19.3119L11.6966 8.80798L18.5883 8.80798L18.5883 19.3119ZM15.1611 21.6746C14.7414 21.6746 14.4166 21.34 14.4166 20.9301C14.4166 20.5299 14.7414 20.2033 15.1611 20.2033C15.5675 20.2033 15.8843 20.5299 15.8843 20.9301C15.8843 21.34 15.5675 21.6746 15.1611 21.6746ZM15.1611 7.71267C14.8691 7.71267 14.6615 7.48103 14.6615 7.18552C14.6615 6.90955 14.8691 6.70193 15.1611 6.70193C15.4371 6.70193 15.6527 6.90955 15.6527 7.18552C15.6527 7.48103 15.4371 7.71267 15.1611 7.71267Z" fill="white" fill-opacity="0.25"/>
 </g>
</svg>
