<?xml version="1.0" encoding="UTF-8"?>
<!--Generator: Apple Native CoreSVG 341-->
<!DOCTYPE svg
PUBLIC "-//W3C//DTD SVG 1.1//EN"
       "http://www.w3.org/Graphics/SVG/1.1/DTD/svg11.dtd">
<svg version="1.1" xmlns="http://www.w3.org/2000/svg" xmlns:xlink="http://www.w3.org/1999/xlink" viewBox="0 0 20.5381 20.1848">
 <g>
  <rect height="20.1848" opacity="0" width="20.5381" x="0" y="0"/>
  <path d="M20.1767 10.0973C20.1767 15.6656 15.6576 20.1848 10.0875 20.1848C4.52715 20.1848 0 15.6656 0 10.0973C0 4.53691 4.52715 0.00976562 10.0875 0.00976562C15.6576 0.00976562 20.1767 4.53691 20.1767 10.0973ZM8.1164 4.38378C7.21796 4.38378 6.60019 4.9705 6.60019 5.84765L6.60019 14.3469C6.60019 15.216 7.21796 15.8107 8.1164 15.8107L12.0586 15.8107C12.9605 15.8107 13.5783 15.216 13.5783 14.3469L13.5783 5.84765C13.5783 4.9705 12.9605 4.38378 12.0586 4.38378ZM9.01835 5.51718L9.01835 5.64139C9.01835 5.87577 9.16308 6.04452 9.3957 6.04452L10.7828 6.04452C11.0137 6.04452 11.1584 5.87577 11.1584 5.64139L11.1584 5.51718C11.1584 5.44257 11.1975 5.4035 11.2703 5.4035L11.9424 5.4035C12.3592 5.4035 12.5955 5.63182 12.5955 6.02811L12.5955 14.1584C12.5955 14.5547 12.3592 14.7928 11.9424 14.7928L8.23613 14.7928C7.81757 14.7928 7.58124 14.5582 7.58124 14.1602L7.58124 6.02636C7.58124 5.63007 7.81757 5.4035 8.23613 5.4035L8.89843 5.4035C8.99531 5.4035 9.01835 5.45057 9.01835 5.51718ZM8.96874 13.8482C8.80624 13.8482 8.69531 13.9592 8.69531 14.1217C8.69531 14.2877 8.80624 14.3951 8.96874 14.3951L11.224 14.3951C11.3785 14.3951 11.4814 14.2877 11.4814 14.1217C11.4814 13.9592 11.3785 13.8482 11.224 13.8482ZM3.708 7.22245C3.00546 7.99511 2.62714 9.02089 2.62714 10.0973C2.62714 11.1816 3.00546 12.2074 3.708 12.9738C3.90859 13.1691 4.1748 13.1691 4.31327 12.9818C4.45351 12.8221 4.4162 12.5984 4.25292 12.3979C3.69061 11.7689 3.39042 10.9678 3.39042 10.0973C3.39042 9.22675 3.69061 8.42734 4.25292 7.79667C4.4162 7.59608 4.45351 7.38046 4.31327 7.21269C4.1748 7.02538 3.90859 7.02538 3.708 7.22245ZM15.8342 7.21269C15.6939 7.38046 15.7312 7.59608 15.9025 7.79667C16.4568 8.42734 16.765 9.22675 16.765 10.0973C16.765 10.9678 16.4568 11.7689 15.9025 12.3979C15.7312 12.5984 15.6939 12.8221 15.8342 12.9818C15.9824 13.1691 16.2469 13.1691 16.4395 12.9738C17.142 12.2074 17.5283 11.1816 17.5283 10.0973C17.5283 9.02089 17.142 7.99511 16.4395 7.22245C16.2469 7.02538 15.9824 7.02538 15.8342 7.21269ZM5.10839 8.43652C4.74159 8.8912 4.53554 9.47734 4.53554 10.0973C4.53554 10.7252 4.74159 11.3033 5.10839 11.7678C5.28417 11.9816 5.56991 11.9852 5.72968 11.7891C5.86991 11.6213 5.82636 11.4242 5.66835 11.2103C5.44003 10.9092 5.31835 10.5254 5.31835 10.0973C5.31835 9.66913 5.44003 9.27734 5.66835 8.98417C5.82636 8.77206 5.86991 8.57323 5.72968 8.40546C5.56991 8.20937 5.28417 8.22089 5.10839 8.43652ZM14.4178 8.40546C14.2775 8.57323 14.3211 8.77206 14.4791 8.98417C14.7074 9.27734 14.8371 9.66913 14.8371 10.0973C14.8371 10.5254 14.7074 10.9092 14.4791 11.2103C14.3211 11.4242 14.2775 11.6213 14.4178 11.7891C14.5775 11.9852 14.8713 11.9816 15.0391 11.7678C15.4059 11.3033 15.6199 10.7252 15.6199 10.0973C15.6199 9.47734 15.4059 8.8912 15.0391 8.43652C14.8713 8.22089 14.5775 8.20937 14.4178 8.40546Z" fill="white" fill-opacity="0.25"/>
 </g>
</svg>
