<?xml version="1.0" encoding="UTF-8"?>
<!--Generator: Apple Native CoreSVG 341-->
<!DOCTYPE svg
PUBLIC "-//W3C//DTD SVG 1.1//EN"
       "http://www.w3.org/Graphics/SVG/1.1/DTD/svg11.dtd">
<svg version="1.1" xmlns="http://www.w3.org/2000/svg" xmlns:xlink="http://www.w3.org/1999/xlink" viewBox="0 0 21.0085 21.8074">
 <g>
  <rect height="21.8074" opacity="0" width="21.0085" x="0" y="0"/>
  <path d="M1.57343 2.75507L1.57343 19.0258C1.57343 20.2095 2.17136 21.1648 3.09987 21.5701L2.80917 21.5701C1.12597 21.5701 0 20.4912 0 18.8781L0 2.90273C0 1.28789 1.12597 0.21074 2.80917 0.21074L3.09987 0.21074C2.17136 0.616064 1.57343 1.57132 1.57343 2.75507Z" fill="white" fill-opacity="0.25"/>
  <path d="M5.22615 2.75507L5.22615 19.0258C5.22615 20.2095 5.82408 21.1648 6.75259 21.5701L6.46365 21.5701C4.78045 21.5701 3.65448 20.4912 3.65448 18.8781L3.65448 2.90273C3.65448 1.28789 4.78045 0.21074 6.46365 0.21074L6.75259 0.21074C5.82408 0.616064 5.22615 1.57132 5.22615 2.75507Z" fill="white" fill-opacity="0.25"/>
  <path d="M7.39705 18.8861C7.39705 20.5009 8.52478 21.5781 10.2062 21.5781L17.8802 21.5781C19.5388 21.5781 20.6472 20.5009 20.6472 18.8844L20.6472 2.90448C20.6472 1.28789 19.5388 0.21074 17.8802 0.21074L10.2062 0.21074C8.52478 0.21074 7.39705 1.28789 7.39705 2.90273ZM9.31031 17.9055L9.31031 3.88338L18.7339 3.88338L18.7339 17.9055ZM14.0359 20.4988C13.5257 20.4988 13.1185 20.0916 13.1185 19.5877C13.1185 19.0953 13.5257 18.6898 14.0359 18.6898C14.53 18.6898 14.9355 19.0953 14.9355 19.5877C14.9355 20.0916 14.53 20.4988 14.0359 20.4988ZM12.0423 2.10604C12.0423 1.85507 12.2197 1.68925 12.4609 1.68925L15.5931 1.68925C15.8343 1.68925 16.0099 1.85507 16.0099 2.10604C16.0099 2.35878 15.8343 2.51307 15.5931 2.51307L12.4609 2.51307C12.2197 2.51307 12.0423 2.35878 12.0423 2.10604Z" fill="white" fill-opacity="0.25"/>
 </g>
</svg>
