<?xml version="1.0" encoding="UTF-8"?>
<!--Generator: Apple Native CoreSVG 341-->
<!DOCTYPE svg
PUBLIC "-//W3C//DTD SVG 1.1//EN"
       "http://www.w3.org/Graphics/SVG/1.1/DTD/svg11.dtd">
<svg version="1.1" xmlns="http://www.w3.org/2000/svg" xmlns:xlink="http://www.w3.org/1999/xlink" viewBox="0 0 20.5381 20.1848">
 <g>
  <rect height="20.1848" opacity="0" width="20.5381" x="0" y="0"/>
  <path d="M10.0875 20.175C15.6576 20.175 20.1767 15.6559 20.1767 10.0875C20.1767 4.51914 15.6576 0 10.0875 0C4.51914 0 0 4.51914 0 10.0875C0 15.6559 4.51914 20.175 10.0875 20.175ZM10.0875 18.1879C5.60839 18.1879 1.9871 14.5666 1.9871 10.0875C1.9871 5.60839 5.60839 1.9871 10.0875 1.9871C14.5666 1.9871 18.1897 5.60839 18.1897 10.0875C18.1897 14.5666 14.5666 18.1879 10.0875 18.1879Z" fill="white" fill-opacity="0.25"/>
  <path d="M4.5162 12.8684C4.65468 12.7041 4.61913 12.5 4.45936 12.3109C3.91659 11.7033 3.62967 10.9252 3.62967 10.0875C3.62967 9.2498 3.91659 8.47167 4.45936 7.86405C4.61913 7.67323 4.65468 7.46288 4.5162 7.30487C4.38749 7.12733 4.12479 7.12733 3.93749 7.31464C3.258 8.05448 2.8912 9.03769 2.8912 10.0875C2.8912 11.1275 3.258 12.1125 3.93749 12.8604C4.12479 13.0459 4.38749 13.0459 4.5162 12.8684ZM15.6152 12.8684C15.752 13.0459 16.0129 13.0459 16.1939 12.8604C16.8734 12.1125 17.2482 11.1275 17.2482 10.0875C17.2482 9.03769 16.8734 8.05448 16.1939 7.31464C16.0129 7.12733 15.752 7.12733 15.6152 7.30487C15.4768 7.46288 15.5123 7.67323 15.6801 7.86405C16.2148 8.47167 16.5098 9.2498 16.5098 10.0875C16.5098 10.9252 16.2148 11.7033 15.6801 12.3109C15.5123 12.5 15.4768 12.7041 15.6152 12.8684Z" fill="white" fill-opacity="0.25"/>
  <path d="M5.87851 11.7217C6.01523 11.5557 5.97167 11.3684 5.82519 11.166C5.59862 10.8764 5.48671 10.5023 5.48671 10.0875C5.48671 9.67089 5.59862 9.29062 5.82519 9.00898C5.97167 8.80663 6.01523 8.61757 5.87851 8.45331C5.72851 8.26874 5.45429 8.27226 5.28827 8.4746C4.93476 8.92577 4.73046 9.48085 4.73046 10.0875C4.73046 10.6844 4.93476 11.2492 5.28827 11.6906C5.45429 11.8947 5.72851 11.9062 5.87851 11.7217ZM14.2529 11.7217C14.4029 11.9062 14.6852 11.8947 14.8414 11.6906C15.1967 11.2492 15.409 10.6844 15.409 10.0875C15.409 9.48085 15.1967 8.92577 14.8414 8.4746C14.6852 8.27226 14.4029 8.26874 14.2529 8.45331C14.1162 8.61757 14.1598 8.80663 14.3062 9.00898C14.5328 9.29062 14.6527 9.67089 14.6527 10.0875C14.6527 10.5023 14.5328 10.8764 14.3062 11.166C14.1598 11.3684 14.1162 11.5557 14.2529 11.7217Z" fill="white" fill-opacity="0.25"/>
  <path d="M8.18105 15.5883L11.9797 15.5883C12.8436 15.5883 13.4365 15.0184 13.4365 14.1838L13.4365 5.98319C13.4365 5.14862 12.8436 4.5787 11.9797 4.5787L8.18105 4.5787C7.31542 4.5787 6.72421 5.14862 6.72421 5.98319L6.72421 14.1838C6.72421 15.0184 7.31542 15.5883 8.18105 15.5883ZM8.29726 14.6119C7.88847 14.6119 7.6619 14.3871 7.6619 14.0023L7.6619 6.16288C7.6619 5.77811 7.88847 5.55506 8.29726 5.55506L8.93476 5.55506C9.02538 5.55506 9.04667 5.59237 9.04667 5.66698L9.04667 5.78768C9.04667 6.01229 9.18964 6.16327 9.41074 6.16327L10.75 6.16327C10.9693 6.16327 11.1123 6.01229 11.1123 5.78768L11.1123 5.66698C11.1123 5.59237 11.1434 5.55506 11.218 5.55506L11.8635 5.55506C12.2705 5.55506 12.4971 5.78163 12.4971 6.16464L12.4971 14.0006C12.4971 14.3854 12.2705 14.6119 11.8635 14.6119ZM8.99882 14.2293L11.1699 14.2293C11.3227 14.2293 11.4238 14.1316 11.4238 13.9754C11.4238 13.8129 11.3227 13.7055 11.1699 13.7055L8.99882 13.7055C8.84433 13.7055 8.73691 13.8129 8.73691 13.9754C8.73691 14.1316 8.84433 14.2293 8.99882 14.2293Z" fill="white" fill-opacity="0.25"/>
 </g>
</svg>
