<?xml version="1.0" encoding="UTF-8"?>
<!--Generator: Apple Native CoreSVG 341-->
<!DOCTYPE svg
PUBLIC "-//W3C//DTD SVG 1.1//EN"
       "http://www.w3.org/Graphics/SVG/1.1/DTD/svg11.dtd">
<svg version="1.1" xmlns="http://www.w3.org/2000/svg" xmlns:xlink="http://www.w3.org/1999/xlink" viewBox="0 0 20.5381 20.1848">
 <g>
  <rect height="20.1848" opacity="0" width="20.5381" x="0" y="0"/>
  <path d="M20.1767 10.0973C20.1767 15.6656 15.6576 20.1848 10.0875 20.1848C4.52715 20.1848 0 15.6656 0 10.0973C0 4.53691 4.52715 0.00976562 10.0875 0.00976562C15.6576 0.00976562 20.1767 4.53691 20.1767 10.0973ZM7.88398 3.7416C6.88535 3.7416 6.20996 4.38769 6.20996 5.36327L6.20996 14.8312C6.20996 15.7988 6.88535 16.4529 7.88398 16.4529L12.283 16.4529C13.2816 16.4529 13.965 15.7988 13.965 14.8312L13.965 5.36327C13.965 4.38769 13.2816 3.7416 12.283 3.7416ZM8.88339 5.0078L8.88339 5.15155C8.88339 5.41698 9.04765 5.57948 9.29355 5.57948L10.8734 5.57948C11.1193 5.57948 11.2916 5.41698 11.2916 5.15155L11.2916 5.0078C11.2916 4.92167 11.3324 4.88261 11.4168 4.88261L12.1535 4.88261C12.6174 4.88261 12.8812 5.13847 12.8812 5.58007L12.8812 14.6145C12.8812 15.0561 12.6174 15.3119 12.1535 15.3119L8.02324 15.3119C7.5496 15.3119 7.29374 15.0578 7.29374 14.6162L7.29374 5.57831C7.29374 5.13671 7.5496 4.88261 8.02324 4.88261L8.7582 4.88261C8.84257 4.88261 8.88339 4.92167 8.88339 5.0078ZM8.83476 14.2707C8.66699 14.2707 8.53652 14.3897 8.53652 14.5787C8.53652 14.7482 8.66699 14.8672 8.83476 14.8672L11.342 14.8672C11.508 14.8672 11.6402 14.7482 11.6402 14.5787C11.6402 14.3897 11.508 14.2707 11.342 14.2707Z" fill="white" fill-opacity="0.25"/>
 </g>
</svg>
