<?xml version="1.0" encoding="UTF-8"?>
<!--Generator: Apple Native CoreSVG 341-->
<!DOCTYPE svg
PUBLIC "-//W3C//DTD SVG 1.1//EN"
       "http://www.w3.org/Graphics/SVG/1.1/DTD/svg11.dtd">
<svg version="1.1" xmlns="http://www.w3.org/2000/svg" xmlns:xlink="http://www.w3.org/1999/xlink" viewBox="0 0 20.5381 20.1848">
 <g>
  <rect height="20.1848" opacity="0" width="20.5381" x="0" y="0"/>
  <path d="M20.1767 10.0973C20.1767 15.6656 15.6576 20.1848 10.0875 20.1848C4.52715 20.1848 0 15.6656 0 10.0973C0 4.53691 4.52715 0.00976562 10.0875 0.00976562C15.6576 0.00976562 20.1767 4.53691 20.1767 10.0973ZM8.13495 4.39003C7.233 4.39003 6.61699 4.96874 6.61699 5.84589L6.61699 14.3504C6.61699 15.2195 7.233 15.8045 8.13495 15.8045L12.0771 15.8045C12.9791 15.8045 13.5969 15.2195 13.5969 14.3504L13.5969 5.84589C13.5969 4.96874 12.9791 4.39003 12.0771 4.39003ZM12.6158 6.02636L12.6158 14.1602C12.6158 14.5547 12.3795 14.783 11.9609 14.783L8.25468 14.783C7.83261 14.783 7.5998 14.5582 7.5998 14.1637L7.5998 6.0246C7.5998 5.63007 7.83261 5.41151 8.25468 5.41151L11.9609 5.41151C12.3795 5.41151 12.6158 5.63182 12.6158 6.02636ZM8.9873 13.8482C8.8248 13.8482 8.71386 13.9592 8.71386 14.1234C8.71386 14.2814 8.8248 14.3951 8.9873 14.3951L11.2426 14.3951C11.3971 14.3951 11.4982 14.2814 11.4982 14.1234C11.4982 13.9592 11.3971 13.8482 11.2426 13.8482ZM3.72655 7.22245C3.02226 7.99511 2.64218 9.02089 2.64218 10.0973C2.64218 11.1816 3.02226 12.2074 3.72655 12.9738C3.92538 13.1709 4.18983 13.1709 4.33007 12.9818C4.4703 12.8221 4.43476 12.602 4.27148 12.3979C3.70741 11.7707 3.40897 10.9678 3.40897 10.0973C3.40897 9.22675 3.70741 8.42382 4.27148 7.79667C4.43476 7.59433 4.4703 7.38046 4.33007 7.21269C4.18983 7.02362 3.92538 7.02362 3.72655 7.22245ZM15.8545 7.21269C15.7143 7.38046 15.7498 7.59433 15.9211 7.79667C16.4771 8.42382 16.7836 9.22675 16.7836 10.0973C16.7836 10.9678 16.4771 11.7707 15.9211 12.3979C15.7498 12.602 15.7143 12.8221 15.8545 12.9818C16.0027 13.1709 16.2672 13.1709 16.458 12.9738C17.1623 12.2074 17.5504 11.1816 17.5504 10.0973C17.5504 9.02089 17.1623 7.99511 16.458 7.22245C16.2672 7.02362 16.0027 7.02362 15.8545 7.21269ZM5.12519 8.43652C4.75839 8.8912 4.55234 9.47734 4.55234 10.0973C4.55234 10.7252 4.75839 11.3033 5.12519 11.7678C5.30097 11.9816 5.58671 11.9852 5.74648 11.7926C5.88495 11.6248 5.84316 11.4242 5.68515 11.2103C5.45683 10.9109 5.33691 10.5254 5.33691 10.0973C5.33691 9.66913 5.45683 9.27558 5.68515 8.98417C5.84316 8.77206 5.88495 8.57148 5.74648 8.4037C5.58671 8.20937 5.30097 8.22089 5.12519 8.43652ZM14.4381 8.4037C14.2996 8.57148 14.3414 8.77206 14.4994 8.98417C14.7277 9.27558 14.8557 9.66913 14.8557 10.0973C14.8557 10.5254 14.7277 10.9109 14.4994 11.2103C14.3414 11.4242 14.2996 11.6248 14.4381 11.7926C14.5978 11.9852 14.8916 11.9816 15.0594 11.7678C15.4262 11.3033 15.6402 10.7252 15.6402 10.0973C15.6402 9.47734 15.4262 8.8912 15.0594 8.43652C14.8916 8.22089 14.5978 8.20937 14.4381 8.4037ZM9.44453 5.83593C9.21816 5.83593 9.05663 6.01171 9.05663 6.23358C9.05663 6.45546 9.21816 6.63124 9.44453 6.63124L10.7498 6.63124C10.9762 6.63124 11.1457 6.45546 11.1457 6.23358C11.1457 6.01171 10.9762 5.83593 10.7498 5.83593Z" fill="white" fill-opacity="0.25"/>
 </g>
</svg>
