<?xml version="1.0" encoding="UTF-8"?>
<!--Generator: Apple Native CoreSVG 341-->
<!DOCTYPE svg
PUBLIC "-//W3C//DTD SVG 1.1//EN"
       "http://www.w3.org/Graphics/SVG/1.1/DTD/svg11.dtd">
<svg version="1.1" xmlns="http://www.w3.org/2000/svg" xmlns:xlink="http://www.w3.org/1999/xlink" viewBox="0 0 35.8152 25.0976">
 <g>
  <rect height="25.0976" opacity="0" width="35.8152" x="0" y="0"/>
  <path d="M24.3511 4.5496L24.3511 11.5179C23.7119 11.524 23.0706 11.5426 22.4379 11.582L22.4379 4.98983C22.4379 4.24725 21.9965 3.82361 21.2236 3.82361L14.24 3.82361C13.4574 3.82361 13.016 4.24373 13.016 4.98807L13.016 20.083C13.016 20.8273 13.4574 21.2474 14.24 21.2474L14.5313 21.2474C14.817 21.9924 15.222 22.6576 15.723 23.2152L13.9119 23.2152C12.2287 23.2152 11.101 22.1363 11.101 20.5232L11.101 4.54784C11.101 2.933 12.2287 1.85586 13.9119 1.85586L21.5859 1.85586C23.2445 1.85586 24.3511 2.933 24.3511 4.5496ZM19.7043 5.29373C19.7043 5.72127 19.3787 6.04685 18.9592 6.04685L16.5027 6.04685C16.0752 6.04685 15.7496 5.72127 15.7496 5.29373C15.7496 4.8742 16.0769 4.54686 16.5027 4.54686L18.9592 4.54686C19.3752 4.54686 19.7043 4.8742 19.7043 5.29373Z" fill="white" fill-opacity="0.25"/>
  <path d="M24.9037 21.6C26.0505 21.6 27.306 23.7105 29.958 23.7105C32.5222 23.7105 34.4361 21.4185 34.4361 18.4043C34.4361 13.4377 30.048 12.8924 24.9037 12.8924C19.7771 12.8924 15.389 13.4474 15.389 18.4043C15.389 21.4185 17.2869 23.7105 19.8672 23.7105C22.5093 23.7105 23.7488 21.6 24.9037 21.6ZM24.9037 19.8926C22.7252 19.8926 21.9037 21.9818 19.8584 21.9818C18.148 21.9818 17.1125 20.6758 17.1125 18.4043C17.1125 15.0324 19.85 14.6176 24.9037 14.6176C29.9751 14.6176 32.7109 15.0244 32.7109 18.4043C32.7109 20.6758 31.6673 21.9818 29.965 21.9818C27.9134 21.9818 27.0822 19.8926 24.9037 19.8926Z" fill="white" fill-opacity="0.25"/>
 </g>
</svg>
