<?xml version="1.0" encoding="UTF-8"?>
<!--Generator: Apple Native CoreSVG 341-->
<!DOCTYPE svg
PUBLIC "-//W3C//DTD SVG 1.1//EN"
       "http://www.w3.org/Graphics/SVG/1.1/DTD/svg11.dtd">
<svg version="1.1" xmlns="http://www.w3.org/2000/svg" xmlns:xlink="http://www.w3.org/1999/xlink" viewBox="0 0 19.6404 23.7304">
 <g>
  <rect height="23.7304" opacity="0" width="19.6404" x="0" y="0"/>
  <path d="M14.0781 3.86601L14.0781 4.41424L10.3961 4.41424C9.7217 4.41424 9.10847 4.56644 8.59067 4.84491L2.73319 4.84491L2.73319 18.867L6.85057 18.867L6.85057 20.2826C6.85057 21.1768 7.13944 21.9523 7.63915 22.5396L3.63085 22.5396C1.94765 22.5396 0.81992 21.4625 0.81992 19.8476L0.81992 3.86425C0.81992 2.24941 1.94765 1.17226 3.63085 1.17226L11.3111 1.17226C12.9697 1.17226 14.0781 2.24941 14.0781 3.86601ZM5.88378 2.65077C5.64257 2.65077 5.47499 2.81659 5.47499 3.06757C5.47499 3.3203 5.64257 3.4746 5.88378 3.4746L9.024 3.4746C9.26521 3.4746 9.43279 3.3203 9.43279 3.06757C9.43279 2.81659 9.26521 2.65077 9.024 2.65077Z" fill="white" fill-opacity="0.25"/>
  <path d="M10.3961 22.5492L16.1283 22.5492C17.5334 22.5492 18.4591 21.6467 18.4591 20.2808L18.4591 7.86033C18.4591 6.49803 17.5334 5.59725 16.1283 5.59725L10.3961 5.59725C8.97517 5.59725 8.03181 6.49803 8.03181 7.85681L8.03181 20.2826C8.03181 21.6467 8.97517 22.5492 10.3961 22.5492ZM11.7041 7.20408C11.7041 6.99314 11.8556 6.84334 12.0648 6.84334L14.4633 6.84334C14.6724 6.84334 14.816 6.99314 14.816 7.20408C14.816 7.42302 14.6724 7.5533 14.4633 7.5533L12.0648 7.5533C11.8556 7.5533 11.7041 7.42302 11.7041 7.20408ZM9.55095 19.6513L9.55095 8.58962L16.9656 8.58962L16.9656 19.6513Z" fill="white" fill-opacity="0.25"/>
 </g>
</svg>
