<?xml version="1.0" encoding="UTF-8"?>
<!--Generator: Apple Native CoreSVG 341-->
<!DOCTYPE svg
PUBLIC "-//W3C//DTD SVG 1.1//EN"
       "http://www.w3.org/Graphics/SVG/1.1/DTD/svg11.dtd">
<svg version="1.1" xmlns="http://www.w3.org/2000/svg" xmlns:xlink="http://www.w3.org/1999/xlink" viewBox="0 0 21.7349 20.7112">
 <g>
  <rect height="20.7112" opacity="0" width="21.7349" x="0" y="0"/>
  <path d="M3.67088 6.18399L3.67088 15.0718L12.5667 15.0718L14.4817 16.9851L2.69023 16.9851C1.07715 16.9851 0 15.8511 0 14.1679L0 6.49389C0 5.30354 0.554816 4.39658 1.46705 3.98214ZM21.3736 6.49389L21.3736 14.1679C21.3736 15.402 20.7903 16.3408 19.8417 16.7517L17.6947 14.6049L17.6947 5.64193L8.73078 5.64193L6.81555 3.72691L18.6736 3.72691C20.2885 3.72691 21.3736 4.8353 21.3736 6.49389ZM1.48652 8.78275L1.48652 11.923C1.48652 12.1642 1.64433 12.3318 1.8953 12.3318C2.14628 12.3318 2.31034 12.1642 2.31034 11.923L2.31034 8.78275C2.31034 8.54154 2.14628 8.37397 1.8953 8.37397C1.64433 8.37397 1.48652 8.54154 1.48652 8.78275ZM18.4773 10.3462C18.4773 10.8501 18.8846 11.2556 19.3769 11.2556C19.8871 11.2556 20.2863 10.8501 20.2863 10.3462C20.2863 9.84584 19.8871 9.44662 19.3769 9.44662C18.8846 9.44662 18.4773 9.84584 18.4773 10.3462Z" fill="white" fill-opacity="0.25"/>
  <path d="M18.4832 19.2818C18.7867 19.5915 19.2828 19.5853 19.5828 19.2818C19.8765 18.9863 19.8863 18.4937 19.5828 18.1822L2.89043 1.50757C2.58691 1.20405 2.09082 1.19604 1.78105 1.50757C1.4873 1.79956 1.4873 2.31342 1.78105 2.60717Z" fill="white" fill-opacity="0.25"/>
 </g>
</svg>
