<?xml version="1.0" encoding="UTF-8"?>
<!--Generator: Apple Native CoreSVG 341-->
<!DOCTYPE svg
PUBLIC "-//W3C//DTD SVG 1.1//EN"
       "http://www.w3.org/Graphics/SVG/1.1/DTD/svg11.dtd">
<svg version="1.1" xmlns="http://www.w3.org/2000/svg" xmlns:xlink="http://www.w3.org/1999/xlink" viewBox="0 0 21.7269 20.7112">
 <g>
  <rect height="20.7112" opacity="0" width="21.7269" x="0" y="0"/>
  <path d="M3.11095 5.62456C2.37942 5.63617 1.966 6.08374 1.966 6.84564L1.966 13.8292C1.966 14.6038 2.38612 15.0533 3.14022 15.0533L12.5481 15.0533L14.4631 16.9665L2.69824 16.9665C1.08515 16.9665 0 15.8325 0 14.1493L0 6.47534C0 5.29203 0.552343 4.38966 1.45727 3.97237ZM21.3656 6.47534L21.3656 14.1493C21.3656 15.3886 20.7817 16.3301 19.8286 16.7386L18.1431 15.0533L18.2334 15.0533C18.9795 15.0533 19.3996 14.6038 19.3996 13.8292L19.3996 6.84564C19.3996 6.07279 18.9742 5.62338 18.2316 5.62338L8.71222 5.62338L6.79875 3.71011L18.6736 3.71011C20.2885 3.71011 21.3656 4.81675 21.3656 6.47534ZM11.7791 14.2849L8.09745 14.2849C7.81444 14.2849 7.61132 14.087 7.61132 13.7908C7.61132 13.4945 7.81444 13.3011 8.09745 13.3011L10.7944 13.3011ZM4.199 9.10209L4.199 11.5585C4.199 11.9861 3.87342 12.3197 3.44588 12.3197C3.02635 12.3197 2.691 11.9826 2.691 11.5585L2.691 9.10209C2.691 8.68432 3.02635 8.35697 3.44588 8.35697C3.87342 8.35697 4.199 8.68256 4.199 9.10209Z" fill="white" fill-opacity="0.25"/>
  <path d="M18.4832 19.2818C18.7867 19.5915 19.2828 19.5853 19.5828 19.2818C19.8765 18.9863 19.8863 18.4937 19.5828 18.1822L2.89043 1.50757C2.58691 1.20405 2.09082 1.19604 1.78105 1.50757C1.4873 1.79956 1.4873 2.31342 1.78105 2.60717Z" fill="white" fill-opacity="0.25"/>
 </g>
</svg>
