<?xml version="1.0" encoding="UTF-8"?>
<!--Generator: Apple Native CoreSVG 341-->
<!DOCTYPE svg
PUBLIC "-//W3C//DTD SVG 1.1//EN"
       "http://www.w3.org/Graphics/SVG/1.1/DTD/svg11.dtd">
<svg version="1.1" xmlns="http://www.w3.org/2000/svg" xmlns:xlink="http://www.w3.org/1999/xlink" viewBox="0 0 20.5381 20.1848">
 <g>
  <rect height="20.1848" opacity="0" width="20.5381" x="0" y="0"/>
  <path d="M20.1767 10.0973C20.1767 15.6656 15.6576 20.1848 10.0875 20.1848C4.52715 20.1848 0 15.6656 0 10.0973C0 4.53691 4.52715 0.00976562 10.0875 0.00976562C15.6576 0.00976562 20.1767 4.53691 20.1767 10.0973ZM7.89199 3.7416C6.90136 3.7416 6.21796 4.38593 6.21796 5.36152L6.21796 14.833C6.21796 15.8006 6.90136 16.4529 7.89199 16.4529L12.2928 16.4529C13.2914 16.4529 13.9748 15.8006 13.9748 14.833L13.9748 5.36152C13.9748 4.38593 13.2914 3.7416 12.2928 3.7416ZM12.891 5.58007L12.891 14.6145C12.891 15.0578 12.6289 15.3137 12.1633 15.3137L8.03124 15.3137C7.56386 15.3137 7.30175 15.0596 7.30175 14.6162L7.30175 5.57831C7.30175 5.13495 7.56386 4.88085 8.03124 4.88085L12.1633 4.88085C12.6289 4.88085 12.891 5.13671 12.891 5.58007ZM8.84277 14.2707C8.67499 14.2707 8.54453 14.3914 8.54453 14.5787C8.54453 14.7482 8.67499 14.8672 8.84277 14.8672L11.35 14.8672C11.5178 14.8672 11.6482 14.7482 11.6482 14.5787C11.6482 14.3914 11.5178 14.2707 11.35 14.2707ZM9.37363 5.35507C9.12246 5.35507 8.92187 5.5539 8.92187 5.79882C8.92187 6.04823 9.1207 6.23905 9.37363 6.23905L10.8129 6.23905C11.0658 6.23905 11.2646 6.04823 11.2646 5.79882C11.2646 5.5539 11.0641 5.35507 10.8129 5.35507Z" fill="white" fill-opacity="0.25"/>
 </g>
</svg>
