<?xml version="1.0" encoding="UTF-8"?>
<!--Generator: Apple Native CoreSVG 341-->
<!DOCTYPE svg
PUBLIC "-//W3C//DTD SVG 1.1//EN"
       "http://www.w3.org/Graphics/SVG/1.1/DTD/svg11.dtd">
<svg version="1.1" xmlns="http://www.w3.org/2000/svg" xmlns:xlink="http://www.w3.org/1999/xlink" viewBox="0 0 20.5381 20.1848">
 <g>
  <rect height="20.1848" opacity="0" width="20.5381" x="0" y="0"/>
  <path d="M20.1767 10.0973C20.1767 15.6656 15.6576 20.1848 10.0875 20.1848C4.52715 20.1848 0 15.6656 0 10.0973C0 4.53691 4.52715 0.00976562 10.0875 0.00976562C15.6576 0.00976562 20.1767 4.53691 20.1767 10.0973ZM6.20996 14.849C6.20996 15.8006 6.88359 16.4529 7.88398 16.4529L12.2928 16.4529C13.0182 16.4529 13.5731 16.1087 13.8208 15.5544C13.78 15.5242 13.7413 15.4901 13.7045 15.4533L12.5697 14.3195L7.30175 14.3195L7.30175 9.05629L6.20996 7.96547ZM10.5971 15.2814C10.5971 15.5664 10.3725 15.799 10.099 15.799C9.81406 15.799 9.57968 15.5664 9.57968 15.2814C9.57968 15.0062 9.81406 14.7656 10.099 14.7656C10.3725 14.7656 10.5971 15.0062 10.5971 15.2814ZM5.2498 5.26308C5.05644 5.45819 5.06269 5.78632 5.2498 5.98143L14.2148 14.935C14.4002 15.1283 14.7363 15.1283 14.9332 14.935C15.1266 14.7301 15.1283 14.4215 14.9332 14.2166L5.97968 5.26308C5.7828 5.05819 5.45468 5.05995 5.2498 5.26308ZM7.88398 3.75136C7.16138 3.75136 6.60927 4.08662 6.36003 4.63562C6.40757 4.67 6.4529 4.7095 6.49628 4.75273L7.62655 5.883L12.875 5.883L12.875 11.1314L13.9668 12.2232L13.9668 5.35351C13.9668 4.39394 13.2914 3.75136 12.2928 3.75136ZM11.2627 4.858C11.2627 4.99296 11.1668 5.09863 11.0283 5.09863L9.15644 5.09863C9.01972 5.09863 8.91406 4.99296 8.91406 4.858C8.91406 4.70175 9.01972 4.61562 9.15644 4.61562L11.0283 4.61562C11.1668 4.61562 11.2627 4.70175 11.2627 4.858Z" fill="white" fill-opacity="0.25"/>
 </g>
</svg>
