<?xml version="1.0" encoding="UTF-8"?>
<!--Generator: Apple Native CoreSVG 341-->
<!DOCTYPE svg
PUBLIC "-//W3C//DTD SVG 1.1//EN"
       "http://www.w3.org/Graphics/SVG/1.1/DTD/svg11.dtd">
<svg version="1.1" xmlns="http://www.w3.org/2000/svg" xmlns:xlink="http://www.w3.org/1999/xlink" viewBox="0 0 21.7349 13.291">
 <g>
  <rect height="13.291" opacity="0" width="21.7349" x="0" y="0"/>
  <path d="M21.3736 10.4392L21.3736 2.76523C21.3736 1.10664 20.2965 0 18.6816 0L2.70976 0C1.09316 0 0 1.10664 0 2.76523L0 10.4392C0 12.1224 1.09316 13.2564 2.70624 13.2564L18.6834 13.2564C20.2965 13.2564 21.3736 12.1224 21.3736 10.4392ZM19.4076 10.1191C19.4076 10.8937 18.9875 11.3431 18.2414 11.3431L3.14823 11.3431C2.39588 11.3431 1.97577 10.8937 1.97577 10.1191L1.97577 8.83475C1.97577 8.68475 2.06366 8.59686 2.2119 8.59686L2.46463 8.59686C2.8826 8.59686 3.17811 8.32088 3.17811 7.90291L3.17811 5.34549C3.17811 4.92577 2.8826 4.64979 2.46463 4.64979L2.2119 4.64979C2.06366 4.64979 1.97577 4.5619 1.97577 4.41366L1.97577 3.13554C1.97577 2.36268 2.3994 1.91327 3.14999 1.91327L18.2396 1.91327C18.984 1.91327 19.4076 2.36268 19.4076 3.13554ZM8.10721 10.5748L13.2842 10.5748C13.5689 10.5748 13.7703 10.3769 13.7703 10.0807C13.7703 9.78436 13.5689 9.59101 13.2842 9.59101L8.10721 9.59101C7.82245 9.59101 7.61932 9.78436 7.61932 10.0807C7.61932 10.3769 7.82245 10.5748 8.10721 10.5748Z" fill="white" fill-opacity="0.25"/>
 </g>
</svg>
