<?xml version="1.0" encoding="UTF-8"?>
<!--Generator: Apple Native CoreSVG 341-->
<!DOCTYPE svg
PUBLIC "-//W3C//DTD SVG 1.1//EN"
       "http://www.w3.org/Graphics/SVG/1.1/DTD/svg11.dtd">
<svg version="1.1" xmlns="http://www.w3.org/2000/svg" xmlns:xlink="http://www.w3.org/1999/xlink" viewBox="0 0 21.7349 13.2539">
 <g>
  <rect height="13.2539" opacity="0" width="21.7349" x="0" y="0"/>
  <path d="M18.6754 13.2502C20.2885 13.2502 21.3736 12.1224 21.3736 10.441L21.3736 2.76699C21.3736 1.1084 20.2885 0 18.6736 0L2.69199 0C1.07715 0 0 1.1084 0 2.76699L0 10.441C0 12.1224 1.07715 13.2502 2.69023 13.2502ZM17.6947 11.3369L3.67088 11.3369L3.67088 1.91327L17.6947 1.91327ZM20.2863 6.61932C20.2863 7.12147 19.8871 7.52869 19.3769 7.52869C18.8846 7.52869 18.4773 7.12147 18.4773 6.61932C18.4773 6.11717 18.8846 5.71971 19.3769 5.71971C19.8871 5.71971 20.2863 6.11717 20.2863 6.61932ZM1.8953 8.60486C1.64433 8.60486 1.48652 8.43553 1.48652 8.19432L1.48652 5.05409C1.48652 4.81288 1.64433 4.6453 1.8953 4.6453C2.14628 4.6453 2.31034 4.81288 2.31034 5.05409L2.31034 8.19432C2.31034 8.43553 2.14628 8.60486 1.8953 8.60486Z" fill="white" fill-opacity="0.25"/>
 </g>
</svg>
