<?xml version="1.0" encoding="UTF-8"?>
<!--Generator: Apple Native CoreSVG 341-->
<!DOCTYPE svg
PUBLIC "-//W3C//DTD SVG 1.1//EN"
       "http://www.w3.org/Graphics/SVG/1.1/DTD/svg11.dtd">
<svg version="1.1" xmlns="http://www.w3.org/2000/svg" xmlns:xlink="http://www.w3.org/1999/xlink" viewBox="0 0 18.6107 21.3859">
 <g>
  <rect height="21.3859" opacity="0" width="18.6107" x="0" y="0"/>
  <path d="M13.8396 12.6191L15.7529 14.5342L15.7529 2.69374C15.7529 1.07715 14.6445 0 12.9859 0L5.31191 0C4.1375 0 3.24375 0.499024 2.87402 1.41192L2.80391 1.57539L4.42831 3.20155L4.43886 3.03007C4.46171 2.33846 4.89081 1.96776 5.63202 1.96776L12.6174 1.96776C13.3885 1.96776 13.8396 2.39139 13.8396 3.13397ZM7.89218 4.25506L10.3469 4.25506C10.7664 4.25506 11.092 3.92947 11.092 3.50193C11.092 3.0824 10.7646 2.75506 10.3469 2.75506L7.89218 2.75506C7.4664 2.75506 7.13105 3.0824 7.13105 3.50193C7.13105 3.92947 7.46464 4.25506 7.89218 4.25506ZM5.31191 21.3593L12.9859 21.3593C14.0949 21.3593 14.924 20.8806 15.3303 20.0324C15.3551 19.98 15.3879 19.9134 15.4127 19.8629L13.8168 18.2314C13.8133 18.2928 13.8098 18.3461 13.8062 18.3994C13.7461 19.0422 13.316 19.3916 12.6174 19.3916L5.63202 19.3916C4.85917 19.3916 4.416 18.9715 4.416 18.2271L4.416 8.85818L2.50274 6.94492L2.50274 18.6674C2.50274 20.2804 3.62871 21.3593 5.31191 21.3593ZM7.02011 18.6312L11.2355 18.6312C11.5203 18.6312 11.7297 18.4334 11.7297 18.1371C11.7297 17.8391 11.5203 17.6475 11.2355 17.6475L7.02011 17.6475C6.73534 17.6475 6.53222 17.8391 6.53222 18.1371C6.53222 18.4334 6.73534 18.6312 7.02011 18.6312Z" fill="white" fill-opacity="0.25"/>
  <path d="M16.9162 19.6191C17.2179 19.9289 17.722 19.9226 18.014 19.6191C18.3158 19.3236 18.3176 18.831 18.014 18.5195L1.32969 1.84492C1.02617 1.5414 0.531835 1.5334 0.220312 1.84492C-0.0734374 2.13691-0.0734374 2.65078 0.220312 2.94453Z" fill="white" fill-opacity="0.25"/>
 </g>
</svg>
