<?xml version="1.0" encoding="UTF-8"?>
<!--Generator: Apple Native CoreSVG 341-->
<!DOCTYPE svg
PUBLIC "-//W3C//DTD SVG 1.1//EN"
       "http://www.w3.org/Graphics/SVG/1.1/DTD/svg11.dtd">
<svg version="1.1" xmlns="http://www.w3.org/2000/svg" xmlns:xlink="http://www.w3.org/1999/xlink" viewBox="0 0 20.5381 20.1848">
 <g>
  <rect height="20.1848" opacity="0" width="20.5381" x="0" y="0"/>
  <path d="M20.1767 10.0875C20.1767 15.6559 15.6576 20.175 10.0875 20.175C4.51914 20.175 0 15.6559 0 10.0875C0 4.51914 4.51914 0 10.0875 0C15.6576 0 20.1767 4.51914 20.1767 10.0875ZM1.9871 10.0875C1.9871 14.5666 5.60839 18.1879 10.0875 18.1879C14.5666 18.1879 18.1897 14.5666 18.1897 10.0875C18.1897 5.60839 14.5666 1.9871 10.0875 1.9871C5.60839 1.9871 1.9871 5.60839 1.9871 10.0875Z" fill="white" fill-opacity="0.25"/>
  <path d="M7.38944 9.06034L7.38944 14.4416C7.38944 14.8734 7.64179 15.1098 8.09765 15.1098L12.0648 15.1098C12.5181 15.1098 12.7704 14.8725 12.7712 14.4421L13.5697 15.2406C13.6016 15.272 13.6348 15.3012 13.6694 15.3279C13.4296 15.8681 12.8911 16.2004 12.1908 16.2004L7.96015 16.2004C7.00761 16.2004 6.34902 15.5728 6.34902 14.6434L6.34902 8.01991ZM11.5728 14.4094C11.5728 14.5754 11.4521 14.6846 11.2861 14.6846L8.87285 14.6846C8.70859 14.6846 8.58788 14.5754 8.58788 14.4094C8.58788 14.2301 8.70859 14.1129 8.87285 14.1129L11.2861 14.1129C11.4521 14.1129 11.5728 14.2301 11.5728 14.4094ZM13.81 5.52363L13.81 12.1261L12.7713 11.0884L12.7713 5.72714C12.7713 5.2953 12.5189 5.05721 12.0648 5.05721L11.3627 5.05721C11.2783 5.05721 11.2393 5.09628 11.2393 5.18241L11.2393 5.31464C11.2393 5.56053 11.0768 5.72928 10.8326 5.72928L9.32636 5.72928C9.07597 5.72928 8.91972 5.56053 8.91972 5.31464L8.91972 5.18241C8.91972 5.09628 8.89042 5.05721 8.79804 5.05721L8.09765 5.05721C7.646 5.05721 7.39413 5.28919 7.38988 5.71203L6.63104 4.9539C6.58727 4.90938 6.54109 4.869 6.4923 4.83417C6.7333 4.29942 7.26945 3.9746 7.96015 3.9746L12.1908 3.9746C13.1531 3.9746 13.81 4.59238 13.81 5.52363Z" fill="white" fill-opacity="0.25"/>
  <path d="M14.065 14.7355C14.2486 14.9174 14.568 14.9271 14.7516 14.7355C14.9449 14.5439 14.9449 14.2406 14.7516 14.0473L6.14549 5.43319C5.94413 5.23983 5.63905 5.23983 5.44745 5.43319C5.25409 5.62479 5.25409 5.93612 5.44745 6.11971Z" fill="white" fill-opacity="0.25"/>
 </g>
</svg>
