<?xml version="1.0" encoding="UTF-8"?>
<!--Generator: Apple Native CoreSVG 341-->
<!DOCTYPE svg
PUBLIC "-//W3C//DTD SVG 1.1//EN"
       "http://www.w3.org/Graphics/SVG/1.1/DTD/svg11.dtd">
<svg version="1.1" xmlns="http://www.w3.org/2000/svg" xmlns:xlink="http://www.w3.org/1999/xlink" viewBox="0 0 20.5381 20.1848">
 <g>
  <rect height="20.1848" opacity="0" width="20.5381" x="0" y="0"/>
  <path d="M20.1767 10.0875C20.1767 15.6559 15.6576 20.175 10.0875 20.175C4.51914 20.175 0 15.6559 0 10.0875C0 4.51914 4.51914 0 10.0875 0C15.6576 0 20.1767 4.51914 20.1767 10.0875ZM1.9871 10.0875C1.9871 14.5666 5.60839 18.1879 10.0875 18.1879C14.5666 18.1879 18.1897 14.5666 18.1897 10.0875C18.1897 5.60839 14.5666 1.9871 10.0875 1.9871C5.60839 1.9871 1.9871 5.60839 1.9871 10.0875Z" fill="white" fill-opacity="0.25"/>
  <path d="M7.39745 9.06835L7.39745 14.4416C7.39745 14.8734 7.6498 15.1098 8.10566 15.1098L12.0728 15.1098C12.5234 15.1098 12.7753 14.8754 12.7789 14.4498L13.5697 15.2406C13.6034 15.2737 13.6386 15.3045 13.6754 15.3323C13.4348 15.8699 12.8976 16.2004 12.2006 16.2004L7.96816 16.2004C7.01562 16.2004 6.35703 15.5728 6.35703 14.6434L6.35703 8.02792ZM11.5809 14.4094C11.5809 14.5754 11.4602 14.6846 11.2941 14.6846L8.88261 14.6846C8.7166 14.6846 8.59589 14.5754 8.59589 14.4094C8.59589 14.2301 8.7166 14.1129 8.88261 14.1129L11.2941 14.1129C11.4602 14.1129 11.5809 14.2301 11.5809 14.4094ZM13.818 5.52363L13.818 12.1341L12.7793 11.0964L12.7793 5.72714C12.7793 5.2953 12.527 5.05721 12.0728 5.05721L8.10566 5.05721C7.65121 5.05721 7.39902 5.29208 7.3976 5.71974L6.63104 4.9539C6.58906 4.9112 6.54487 4.87232 6.49823 4.83862C6.73831 4.30125 7.27552 3.9746 7.96816 3.9746L12.2006 3.9746C13.1611 3.9746 13.818 4.59238 13.818 5.52363ZM11.2088 5.93885C11.2088 6.1785 11.0215 6.36405 10.7801 6.36405L9.39042 6.36405C9.14902 6.36405 8.96171 6.1785 8.96171 5.93885C8.96171 5.70546 9.15078 5.51815 9.39042 5.51815L10.7801 5.51815C11.0197 5.51815 11.2088 5.70546 11.2088 5.93885Z" fill="white" fill-opacity="0.25"/>
  <path d="M14.065 14.7355C14.2486 14.9174 14.568 14.9271 14.7516 14.7355C14.9449 14.5439 14.9449 14.2406 14.7516 14.0473L6.14549 5.43319C5.94413 5.23983 5.63905 5.23983 5.44745 5.43319C5.25409 5.62479 5.25409 5.93612 5.44745 6.11971Z" fill="white" fill-opacity="0.25"/>
 </g>
</svg>
