<?xml version="1.0" encoding="UTF-8"?>
<!--Generator: Apple Native CoreSVG 341-->
<!DOCTYPE svg
PUBLIC "-//W3C//DTD SVG 1.1//EN"
       "http://www.w3.org/Graphics/SVG/1.1/DTD/svg11.dtd">
<svg version="1.1" xmlns="http://www.w3.org/2000/svg" xmlns:xlink="http://www.w3.org/1999/xlink" viewBox="0 0 35.8152 25.0976">
 <g>
  <rect height="25.0976" opacity="0" width="35.8152" x="0" y="0"/>
  <path d="M24.3511 4.5496L24.3511 11.5179C23.7119 11.524 23.0706 11.5426 22.4379 11.582L22.4379 5.5285L13.016 5.5285L13.016 19.5506L14.0879 19.5506C14.2856 20.9901 14.8683 22.2635 15.7306 23.2232L13.9119 23.2232C12.2287 23.2232 11.101 22.1461 11.101 20.5312L11.101 4.54784C11.101 2.933 12.2287 1.85586 13.9119 1.85586L21.5859 1.85586C23.2445 1.85586 24.3511 2.933 24.3511 4.5496ZM17.1152 3.67753C17.1152 4.02265 17.3965 4.3039 17.7416 4.3039C18.0769 4.3039 18.3484 4.02265 18.3484 3.67753C18.3484 3.34218 18.0769 3.0707 17.7416 3.0707C17.3965 3.0707 17.1152 3.34218 17.1152 3.67753Z" fill="white" fill-opacity="0.25"/>
  <path d="M24.9037 21.6C26.0505 21.6 27.306 23.7105 29.958 23.7105C32.5222 23.7105 34.4361 21.4185 34.4361 18.4043C34.4361 13.4377 30.048 12.8924 24.9037 12.8924C19.7771 12.8924 15.389 13.4474 15.389 18.4043C15.389 21.4185 17.2869 23.7105 19.8672 23.7105C22.5093 23.7105 23.7488 21.6 24.9037 21.6ZM24.9037 19.8926C22.7252 19.8926 21.9037 21.9818 19.8584 21.9818C18.148 21.9818 17.1125 20.6758 17.1125 18.4043C17.1125 15.0324 19.85 14.6176 24.9037 14.6176C29.9751 14.6176 32.7109 15.0244 32.7109 18.4043C32.7109 20.6758 31.6673 21.9818 29.965 21.9818C27.9134 21.9818 27.0822 19.8926 24.9037 19.8926Z" fill="white" fill-opacity="0.25"/>
 </g>
</svg>
