<?xml version="1.0" encoding="UTF-8"?>
<!--Generator: Apple Native CoreSVG 341-->
<!DOCTYPE svg
PUBLIC "-//W3C//DTD SVG 1.1//EN"
       "http://www.w3.org/Graphics/SVG/1.1/DTD/svg11.dtd">
<svg version="1.1" xmlns="http://www.w3.org/2000/svg" xmlns:xlink="http://www.w3.org/1999/xlink" viewBox="0 0 14.0642 20.0027">
 <g>
  <rect height="20.0027" opacity="0" width="14.0642" x="0" y="0"/>
  <path d="M0 17.3019C0 18.915 1.12597 19.9922 2.80917 19.9922L10.9279 19.9922C12.5865 19.9922 13.7029 18.915 13.7029 17.3002L13.7029 2.69199C13.7029 1.07715 12.5865 0 10.9279 0L2.80917 0C1.12597 0 0 1.07715 0 2.69023ZM1.89921 7.58554L1.89921 3.07069C1.89921 2.3246 2.34237 1.90448 3.12323 1.90448L10.5814 1.90448C11.3525 1.90448 11.8037 2.32987 11.8037 3.07245L11.8037 7.58378C11.8037 8.33437 11.3525 8.75976 10.5814 8.75976L3.12323 8.75976C2.34237 8.75976 1.89921 8.33964 1.89921 7.58554ZM6.85546 17.9502C4.74687 17.9502 3.02695 16.2498 3.02695 14.1394C3.02695 12.0211 4.74687 10.3207 6.85546 10.3207C8.95604 10.3207 10.676 12.0211 10.676 14.1394C10.676 16.2498 8.95604 17.9502 6.85546 17.9502ZM6.85546 16.4291C5.57968 16.4291 4.54804 15.3992 4.54804 14.1394C4.54804 12.8734 5.57968 11.8435 6.85546 11.8435C8.12323 11.8435 9.14686 12.8734 9.14686 14.1394C9.14686 15.3992 8.12323 16.4291 6.85546 16.4291Z" fill="white" fill-opacity="0.25"/>
 </g>
</svg>
