<?xml version="1.0" encoding="UTF-8"?>
<!--Generator: Apple Native CoreSVG 341-->
<!DOCTYPE svg
PUBLIC "-//W3C//DTD SVG 1.1//EN"
       "http://www.w3.org/Graphics/SVG/1.1/DTD/svg11.dtd">
<svg version="1.1" xmlns="http://www.w3.org/2000/svg" xmlns:xlink="http://www.w3.org/1999/xlink" viewBox="0 0 14.8783 13.5355">
 <g>
  <rect height="13.5355" opacity="0" width="14.8783" x="0" y="0"/>
  <path d="M0 11.0088C0 12.5455 0.947458 13.532 2.39804 13.532L12.1189 13.532C13.5695 13.532 14.517 12.5455 14.517 11.0088L14.517 2.52499C14.517 0.988278 13.5455 0 12.1189 0L2.39804 0C0.947458 0 0 0.988278 0 2.52499ZM1.966 10.6887L1.966 2.84511C1.966 2.26678 2.3035 1.91503 2.84627 1.91503L11.6707 1.91503C12.2054 1.91503 12.551 2.26678 12.551 2.88553L12.551 10.6887C12.551 11.267 12.2054 11.6187 11.6707 11.6187L2.84627 11.6187C2.3035 11.6187 1.966 11.267 1.966 10.6887ZM7.25584 10.5959C9.36854 10.5959 11.0888 8.87733 11.0888 6.76288C11.0888 4.64842 9.36854 2.92987 7.25584 2.92987C5.14315 2.92987 3.42811 4.64842 3.42811 6.76288C3.42811 8.87733 5.14315 10.5959 7.25584 10.5959ZM7.25936 9.12968C5.93826 9.12968 4.8908 8.08222 4.8908 6.76288C4.8908 5.44178 5.93826 4.39607 7.25936 4.39607C8.5787 4.39607 9.62616 5.44178 9.62616 6.76288C9.62616 8.08222 8.5787 9.12968 7.25936 9.12968Z" fill="white" fill-opacity="0.25"/>
 </g>
</svg>
