<?xml version="1.0" encoding="UTF-8"?>
<!--Generator: Apple Native CoreSVG 341-->
<!DOCTYPE svg
PUBLIC "-//W3C//DTD SVG 1.1//EN"
       "http://www.w3.org/Graphics/SVG/1.1/DTD/svg11.dtd">
<svg version="1.1" xmlns="http://www.w3.org/2000/svg" xmlns:xlink="http://www.w3.org/1999/xlink" viewBox="0 0 13.6115 21.3859">
 <g>
  <rect height="21.3859" opacity="0" width="13.6115" x="0" y="0"/>
  <path d="M0 18.6754C0 20.2902 1.12597 21.3674 2.80917 21.3674L10.4832 21.3674C12.1418 21.3674 13.2502 20.2902 13.2502 18.6736L13.2502 2.69374C13.2502 1.07715 12.1418 0 10.4832 0L2.80917 0C1.12597 0 0 1.07715 0 2.69199ZM1.91327 17.6947L1.91327 3.67264L11.3369 3.67264L11.3369 17.6947ZM6.63885 20.2881C6.13671 20.2881 5.72948 19.8808 5.72948 19.3769C5.72948 18.8846 6.13671 18.4791 6.63885 18.4791C7.13123 18.4791 7.53846 18.8846 7.53846 19.3769C7.53846 19.8808 7.13123 20.2881 6.63885 20.2881ZM6.63885 2.44804C6.29374 2.44804 6.01425 2.16679 6.01425 1.82167C6.01425 1.48632 6.29374 1.21484 6.63885 1.21484C6.9742 1.21484 7.24569 1.48632 7.24569 1.82167C7.24569 2.16679 6.9742 2.44804 6.63885 2.44804Z" fill="white" fill-opacity="0.25"/>
 </g>
</svg>
