<?xml version="1.0" encoding="UTF-8"?>
<!--Generator: Apple Native CoreSVG 341-->
<!DOCTYPE svg
PUBLIC "-//W3C//DTD SVG 1.1//EN"
       "http://www.w3.org/Graphics/SVG/1.1/DTD/svg11.dtd">
<svg version="1.1" xmlns="http://www.w3.org/2000/svg" xmlns:xlink="http://www.w3.org/1999/xlink" viewBox="0 0 17.7972 13.6992">
 <g>
  <rect height="13.6992" opacity="0" width="17.7972" x="0" y="0"/>
  <path d="M0 11.1724C0 12.7092 0.947458 13.6957 2.39804 13.6957L15.0379 13.6957C16.4884 13.6957 17.4359 12.7092 17.4359 11.1724L17.4359 2.52499C17.4359 0.988278 16.4884 0 15.0379 0L2.39804 0C0.947458 0 0 0.988278 0 2.52499ZM1.966 10.8523L1.966 2.84511C1.966 2.26678 2.3035 1.91327 2.84627 1.91327L14.5959 1.91327C15.1324 1.91327 15.4681 2.26678 15.4681 2.88553L15.4681 10.8523C15.4681 11.4306 15.1324 11.7824 14.5959 11.7824L2.84627 11.7824C2.3035 11.7824 1.966 11.4306 1.966 10.8523ZM10.3892 10.6777C12.5099 10.6777 14.2222 8.95916 14.2222 6.84471C14.2222 4.73026 12.5099 3.01171 10.3892 3.01171C8.27655 3.01171 6.56952 4.73026 6.56952 6.84471C6.56952 8.95916 8.27655 10.6777 10.3892 10.6777ZM10.3928 9.21152C9.07166 9.21152 8.0322 8.16405 8.0322 6.84471C8.0322 5.52361 9.07166 4.47791 10.3928 4.47791C11.7201 4.47791 12.7596 5.52361 12.7596 6.84471C12.7596 8.16405 11.7201 9.21152 10.3928 9.21152Z" fill="white" fill-opacity="0.25"/>
 </g>
</svg>
