<?xml version="1.0" encoding="UTF-8"?>
<!--Generator: Apple Native CoreSVG 341-->
<!DOCTYPE svg
PUBLIC "-//W3C//DTD SVG 1.1//EN"
       "http://www.w3.org/Graphics/SVG/1.1/DTD/svg11.dtd">
<svg version="1.1" xmlns="http://www.w3.org/2000/svg" xmlns:xlink="http://www.w3.org/1999/xlink" viewBox="0 0 11.4131 21.3859">
 <g>
  <rect height="21.3859" opacity="0" width="11.4131" x="0" y="0"/>
  <path d="M2.80917 21.3674L8.28474 21.3674C9.97537 21.3674 11.0517 20.3142 11.0517 18.6736L11.0517 2.69374C11.0517 1.05312 9.97537 0 8.28474 0L2.80917 0C1.09394 0 0 1.05312 0 2.69199L0 18.6754C0 20.3142 1.09394 21.3674 2.80917 21.3674ZM3.13729 19.3996C2.36444 19.3996 1.91327 18.9715 1.91327 18.2351L1.91327 3.13221C1.91327 2.39588 2.36444 1.96776 3.13729 1.96776L7.9242 1.96776C8.68729 1.96776 9.13846 2.3994 9.13846 3.13397L9.13846 18.2334C9.13846 18.968 8.68729 19.3996 7.9242 19.3996Z" fill="white" fill-opacity="0.25"/>
 </g>
</svg>
