<?xml version="1.0" encoding="UTF-8"?>
<!--Generator: Apple Native CoreSVG 341-->
<!DOCTYPE svg
PUBLIC "-//W3C//DTD SVG 1.1//EN"
       "http://www.w3.org/Graphics/SVG/1.1/DTD/svg11.dtd">
<svg version="1.1" xmlns="http://www.w3.org/2000/svg" xmlns:xlink="http://www.w3.org/1999/xlink" viewBox="0 0 20.6441 24.3671">
 <g>
  <rect height="24.3671" opacity="0" width="20.6441" x="0" y="0"/>
  <path d="M13.658 4.18436L13.658 6.03104L12.6125 6.03104C12.3082 6.03104 12.0152 6.07902 11.7447 6.17483L11.7447 5.16326L2.31307 5.16326L2.31307 19.1853L8.05319 19.1853C8.32523 20.4344 9.07485 21.2477 9.89431 21.7132C9.97127 21.7556 9.98533 21.7714 10.0181 21.8824L10.2937 22.7002C10.3115 22.7544 10.3306 22.8074 10.352 22.858L3.21073 22.858C1.52753 22.858 0.399799 21.7808 0.399799 20.166L0.399799 4.1826C0.399799 2.56776 1.52753 1.49062 3.21073 1.49062L10.891 1.49062C12.5496 1.49062 13.658 2.56776 13.658 4.18436ZM6.12928 20.8676C6.12928 21.3715 6.5365 21.7787 7.03865 21.7787C7.5408 21.7787 7.93826 21.3715 7.93826 20.8676C7.93826 20.3752 7.5408 19.9697 7.03865 19.9697C6.5365 19.9697 6.12928 20.3752 6.12928 20.8676ZM6.42205 3.31229C6.42205 3.65741 6.69354 3.93866 7.03865 3.93866C7.38201 3.93866 7.64724 3.65741 7.64724 3.31229C7.64724 2.97694 7.38201 2.70546 7.03865 2.70546C6.69354 2.70546 6.42205 2.97694 6.42205 3.31229Z" fill="white" fill-opacity="0.25"/>
  <path d="M12.6125 22.98L15.957 22.98C16.4103 22.98 16.791 22.7929 16.9693 22.2656L17.2449 21.4478C17.3886 21.0181 17.6015 20.7359 18.0027 20.5132C18.7455 20.1 19.257 19.334 19.257 18.1283L19.257 12.2699C19.257 11.0642 18.7535 10.3142 18.0027 9.88494C17.6015 9.65427 17.3886 9.38006 17.2449 8.95037L16.9693 8.11658C16.807 7.60525 16.4103 7.41014 15.957 7.41014L12.6125 7.41014C12.1609 7.41014 11.7705 7.60525 11.6082 8.11658L11.3246 8.95037C11.1773 9.40935 10.9467 9.67732 10.5668 9.88494C9.83201 10.2982 9.32048 11.0642 9.32048 12.2699L9.32048 18.1283C9.32048 19.3322 9.824 20.092 10.5668 20.5132C10.9617 20.7359 11.1888 21.0101 11.3246 21.4478L11.6082 22.2656C11.7785 22.7929 12.1609 22.98 12.6125 22.98ZM12.2254 19.4244C11.2496 19.4244 10.6822 18.8472 10.6822 17.8386L10.6822 12.5515C10.6822 11.5429 11.2496 10.964 12.2254 10.964L16.3539 10.964C17.3359 10.964 17.897 11.5447 17.897 12.5515L17.897 17.8386C17.897 18.8455 17.3359 19.4244 16.3539 19.4244ZM18.9017 14.7181L19.3177 14.7181C19.7222 14.7181 19.9962 14.4201 19.9962 13.9845L19.9962 13.0082C19.9962 12.5744 19.7222 12.2906 19.3177 12.2906L18.9017 12.2906Z" fill="white" fill-opacity="0.25"/>
 </g>
</svg>
