<?xml version="1.0" encoding="UTF-8"?>
<!--Generator: Apple Native CoreSVG 341-->
<!DOCTYPE svg
PUBLIC "-//W3C//DTD SVG 1.1//EN"
       "http://www.w3.org/Graphics/SVG/1.1/DTD/svg11.dtd">
<svg version="1.1" xmlns="http://www.w3.org/2000/svg" xmlns:xlink="http://www.w3.org/1999/xlink" viewBox="0 0 25.2865 19.1234">
 <g>
  <rect height="19.1234" opacity="0" width="25.2865" x="0" y="0"/>
  <path d="M21.8076 7.59316C23.74 8.40097 24.9252 10.2363 24.9252 12.3152C24.9252 15.0957 22.5344 17.3242 19.4973 17.3242L6.00429 17.3242C2.59238 17.3242 0 14.8488 0 11.881C0 9.4455 1.38398 7.43593 3.61562 7.04219C3.70664 4.29199 6.31152 2.44824 8.78066 3.1127C10.0053 1.34571 11.948 0 14.5523 0C18.6361 0 21.8201 3.18144 21.8076 7.59316ZM12.1742 8.68906L7.70428 8.68906C7.58104 8.68906 7.47206 8.72714 7.35936 8.83359L6.59042 9.62011C6.49647 9.72382 6.48495 9.90194 6.59569 10.0225L8.04315 11.4682C8.16718 11.6019 8.34256 11.5949 8.47635 11.4664L9.3205 10.6195L10.4959 11.8092C10.6021 11.9314 10.7891 11.9252 10.9211 11.7932L12.0869 10.6469C12.6568 12.0281 13.7162 12.7937 14.9621 12.7937C16.6152 12.7937 17.9514 11.4656 17.9514 9.80722C17.9514 8.14081 16.6152 6.8162 14.9621 6.8162C13.7217 6.8162 12.6322 7.53906 12.1742 8.68906ZM16.4947 9.79921C16.4947 10.3 16.0756 10.7049 15.5828 10.7049C15.0678 10.7049 14.6727 10.3 14.6727 9.79921C14.6727 9.30194 15.0678 8.89706 15.5828 8.89706C16.0756 8.89706 16.4947 9.29218 16.4947 9.79921Z" fill="white" fill-opacity="0.25"/>
 </g>
</svg>
