<?xml version="1.0" encoding="UTF-8"?>
<!--Generator: Apple Native CoreSVG 341-->
<!DOCTYPE svg
PUBLIC "-//W3C//DTD SVG 1.1//EN"
       "http://www.w3.org/Graphics/SVG/1.1/DTD/svg11.dtd">
<svg version="1.1" xmlns="http://www.w3.org/2000/svg" xmlns:xlink="http://www.w3.org/1999/xlink" viewBox="0 0 25.2865 19.1164">
 <g>
  <rect height="19.1164" opacity="0" width="25.2865" x="0" y="0"/>
  <path d="M19.4973 17.326C22.5344 17.326 24.9252 15.0957 24.9252 12.3152C24.9252 10.2363 23.74 8.40273 21.8076 7.59316C21.8201 3.18144 18.6361 0 14.5523 0C11.948 0 10.0053 1.34746 8.78066 3.1127C6.31152 2.44824 3.70664 4.29199 3.61562 7.04394C1.38398 7.43593 0 9.44726 0 11.881C0 14.8488 2.59238 17.326 6.00429 17.326ZM19.499 15.4127L6.00781 15.4127C3.66991 15.4127 1.93436 13.7818 1.93436 11.881C1.93436 9.93671 3.13709 8.47538 5.1371 8.47538C5.27909 8.47538 5.33495 8.40175 5.33143 8.266C5.27343 5.34432 7.36933 4.37128 9.45741 5.03085C9.57811 5.06815 9.6535 5.03886 9.71561 4.92792C10.6787 3.23143 12.1039 1.91327 14.54 1.91327C17.6289 1.91327 19.8088 4.35565 19.9643 7.20155C19.9953 7.71405 19.959 8.28182 19.9129 8.75311C19.9014 8.88885 19.9537 8.95897 20.0814 8.98651C21.8553 9.33319 22.9908 10.5863 22.9908 12.3152C22.9908 14.035 21.4684 15.4127 19.499 15.4127Z" fill="white" fill-opacity="0.25"/>
  <path d="M8.54921 13.0943C9.61816 14.1553 11.1238 14.1553 12.2025 13.0943L14.1453 11.1498C15.216 10.0889 15.2062 8.57695 14.1435 7.50624C13.8351 7.18984 13.493 7.01308 13.2211 6.92519L12.6658 7.47245C12.5699 7.57636 12.45 7.70604 12.3221 7.88378C12.6988 7.83124 13.0588 7.97694 13.3627 8.28886C14.0004 8.91855 14.0102 9.7996 13.3564 10.4471L11.4963 12.3152C10.8586 12.9529 9.96152 12.9512 9.33007 12.3197C8.69061 11.6723 8.69413 10.7867 9.33007 10.1473L10.0723 9.40331C9.92597 8.96464 9.91211 8.43046 10.1225 7.87577L8.54921 9.44277C7.48827 10.5037 7.48652 12.0236 8.54921 13.0943ZM16.8047 4.85038C15.7402 3.77792 14.2203 3.77792 13.1514 4.84062L11.2068 6.78339C10.1459 7.84609 10.1539 9.36601 11.2148 10.435C11.525 10.7531 11.8832 10.9281 12.1293 11.016L12.6926 10.4643C12.8463 10.2865 12.8844 10.2289 12.974 10.093C12.6293 10.0957 12.2756 9.94023 11.9894 9.6541C11.35 9.01464 11.3402 8.14335 11.9957 7.49589L13.8541 5.62772C14.5016 4.98202 15.3906 4.98554 16.0203 5.62147C16.6535 6.26894 16.6615 7.158 16.0238 7.7957L15.2799 8.52363C15.4262 8.97832 15.44 9.5125 15.2297 10.0672L16.8029 8.49218C17.8621 7.42148 17.8559 5.90956 16.8047 4.85038Z" fill="white" fill-opacity="0.25"/>
 </g>
</svg>
