<?xml version="1.0" encoding="UTF-8"?>
<!--Generator: Apple Native CoreSVG 341-->
<!DOCTYPE svg
PUBLIC "-//W3C//DTD SVG 1.1//EN"
       "http://www.w3.org/Graphics/SVG/1.1/DTD/svg11.dtd">
<svg version="1.1" xmlns="http://www.w3.org/2000/svg" xmlns:xlink="http://www.w3.org/1999/xlink" viewBox="0 0 25.2865 19.1234">
 <g>
  <rect height="19.1234" opacity="0" width="25.2865" x="0" y="0"/>
  <path d="M21.8076 7.59316C23.74 8.40097 24.9252 10.2363 24.9252 12.3152C24.9252 15.0957 22.5344 17.3242 19.4973 17.3242L6.00429 17.3242C2.59238 17.3242 0 14.8488 0 11.881C0 9.4455 1.38398 7.43593 3.61562 7.04219C3.70664 4.29199 6.31152 2.44824 8.78066 3.1127C10.0053 1.34571 11.948 0 14.5523 0C18.6361 0 21.8201 3.18144 21.8076 7.59316ZM12.6728 7.45175C12.5832 7.55116 12.4535 7.69061 12.3238 7.8621C12.7059 7.81757 13.0516 7.96503 13.375 8.27245C14.0393 8.89667 14.033 9.80956 13.3768 10.4738L11.4734 12.3771C10.8234 13.0271 9.92206 13.0156 9.27206 12.3754C8.6123 11.7219 8.62558 10.824 9.27206 10.174L10.0195 9.42303C9.86797 8.96932 9.85058 8.4326 10.0662 7.8621L8.47011 9.45194C7.38808 10.534 7.38808 12.0838 8.47011 13.1693C9.56191 14.2531 11.1055 14.2531 12.1973 13.1693L14.1787 11.1959C15.2687 10.1139 15.2918 8.53925 14.1769 7.4705C13.8633 7.16659 13.5193 6.97206 13.2439 6.89042ZM13.1584 4.76191L11.1787 6.74335C10.0949 7.82538 10.0799 9.40175 11.1867 10.4687C11.5084 10.7726 11.8603 10.9689 12.1197 11.0488L12.6908 10.4893C12.8445 10.3098 12.8844 10.2504 12.9758 10.1109C12.6275 10.1074 12.2881 9.9582 11.9807 9.66679C11.3146 9.04257 11.3289 8.12343 11.9869 7.46542L13.8822 5.57011C14.5402 4.9121 15.4336 4.92714 16.0818 5.56561C16.7434 6.21386 16.7353 7.12323 16.0836 7.76523L15.3344 8.5082C15.4877 8.96992 15.5051 9.51015 15.2894 10.0789L16.8838 8.48104C17.9676 7.39726 17.9596 5.84745 16.8873 4.77343C15.7937 3.67812 14.2519 3.67812 13.1584 4.76191Z" fill="white" fill-opacity="0.25"/>
 </g>
</svg>
