<?xml version="1.0" encoding="UTF-8"?>
<!--Generator: Apple Native CoreSVG 341-->
<!DOCTYPE svg
PUBLIC "-//W3C//DTD SVG 1.1//EN"
       "http://www.w3.org/Graphics/SVG/1.1/DTD/svg11.dtd">
<svg version="1.1" xmlns="http://www.w3.org/2000/svg" xmlns:xlink="http://www.w3.org/1999/xlink" viewBox="0 0 22.2836 21.9406">
 <g>
  <rect height="21.9406" opacity="0" width="22.2836" x="0" y="0"/>
  <path d="M10.9611 1.03828C11.2549 1.03828 11.4803 0.812889 11.4803 0.51914C11.4803 0.22539 11.2549 0 10.9611 0C10.6674 0 10.442 0.22539 10.442 0.51914C10.442 0.812889 10.6674 1.03828 10.9611 1.03828ZM12.7756 1.2043C13.0711 1.2043 13.3045 0.970897 13.3045 0.685155C13.3045 0.389648 13.0711 0.158008 12.7756 0.158008C12.4898 0.158008 12.2564 0.389648 12.2564 0.685155C12.2564 0.970897 12.4898 1.2043 12.7756 1.2043ZM14.5314 1.66855C14.8269 1.66855 15.0523 1.44492 15.0523 1.14941C15.0523 0.855663 14.8269 0.630273 14.5314 0.630273C14.2377 0.630273 14.0123 0.855663 14.0123 1.14941C14.0123 1.44492 14.2377 1.66855 14.5314 1.66855ZM16.1879 2.45508C16.4736 2.45508 16.707 2.22168 16.707 1.93594C16.707 1.64219 16.4736 1.40879 16.1879 1.40879C15.8941 1.40879 15.6607 1.64219 15.6607 1.93594C15.6607 2.22168 15.8941 2.45508 16.1879 2.45508ZM17.6783 3.49101C17.9738 3.49101 18.1975 3.26562 18.1975 2.97187C18.1975 2.67637 17.9738 2.45273 17.6783 2.45273C17.3846 2.45273 17.1592 2.67637 17.1592 2.97187C17.1592 3.26562 17.3846 3.49101 17.6783 3.49101ZM18.9699 4.78437C19.2557 4.78437 19.4891 4.55273 19.4891 4.26523C19.4891 3.97148 19.2557 3.73808 18.9699 3.73808C18.6744 3.73808 18.441 3.97148 18.441 4.26523C18.441 4.55273 18.6744 4.78437 18.9699 4.78437ZM20.0121 6.28105C20.3076 6.28105 20.5312 6.04941 20.5312 5.76191C20.5312 5.46816 20.3076 5.23476 20.0121 5.23476C19.7184 5.23476 19.493 5.46816 19.493 5.76191C19.493 6.04941 19.7184 6.28105 20.0121 6.28105ZM20.7764 7.92949C21.0701 7.92949 21.3035 7.69609 21.3035 7.40234C21.3035 7.1166 21.0701 6.8832 20.7764 6.8832C20.4906 6.8832 20.2572 7.1166 20.2572 7.40234C20.2572 7.69609 20.4906 7.92949 20.7764 7.92949ZM21.2486 9.67734C21.5344 9.67734 21.7678 9.45195 21.7678 9.1582C21.7678 8.86445 21.5344 8.63906 21.2486 8.63906C20.9531 8.63906 20.7197 8.86445 20.7197 9.1582C20.7197 9.45195 20.9531 9.67734 21.2486 9.67734ZM21.4031 11.4846C21.6889 11.4846 21.9223 11.2592 21.9223 10.9654C21.9223 10.6717 21.6889 10.4463 21.4031 10.4463C21.1094 10.4463 20.876 10.6717 20.876 10.9654C20.876 11.2592 21.1094 11.4846 21.4031 11.4846ZM21.2486 13.2918C21.5344 13.2918 21.7678 13.0664 21.7678 12.7726C21.7678 12.4771 21.5344 12.2535 21.2486 12.2535C20.9531 12.2535 20.7197 12.4771 20.7197 12.7726C20.7197 13.0664 20.9531 13.2918 21.2486 13.2918ZM20.7764 15.0476C21.0701 15.0476 21.3035 14.8142 21.3035 14.5205C21.3035 14.233 21.0701 14.0014 20.7764 14.0014C20.4906 14.0014 20.2572 14.233 20.2572 14.5205C20.2572 14.8142 20.4906 15.0476 20.7764 15.0476ZM20.0121 16.6863C20.3076 16.6863 20.5312 16.4627 20.5312 16.1672C20.5312 15.8734 20.3076 15.648 20.0121 15.648C19.7184 15.648 19.493 15.8734 19.493 16.1672C19.493 16.4627 19.7184 16.6863 20.0121 16.6863ZM18.9699 18.183C19.2557 18.183 19.4891 17.9594 19.4891 17.6639C19.4891 17.3701 19.2557 17.1447 18.9699 17.1447C18.6744 17.1447 18.441 17.3701 18.441 17.6639C18.441 17.9594 18.6744 18.183 18.9699 18.183ZM17.6783 19.4781C17.9738 19.4781 18.1975 19.2447 18.1975 18.959C18.1975 18.6652 17.9738 18.4318 17.6783 18.4318C17.3846 18.4318 17.1592 18.6652 17.1592 18.959C17.1592 19.2447 17.3846 19.4781 17.6783 19.4781ZM16.1879 20.5141C16.4736 20.5141 16.707 20.2887 16.707 19.9949C16.707 19.6994 16.4736 19.4758 16.1879 19.4758C15.8941 19.4758 15.6607 19.6994 15.6607 19.9949C15.6607 20.2887 15.8941 20.5141 16.1879 20.5141ZM14.5314 21.2988C14.8269 21.2988 15.0523 21.0672 15.0523 20.7797C15.0523 20.4859 14.8269 20.2525 14.5314 20.2525C14.2377 20.2525 14.0123 20.4859 14.0123 20.7797C14.0123 21.0672 14.2377 21.2988 14.5314 21.2988ZM12.7756 21.7648C13.0711 21.7648 13.3045 21.5394 13.3045 21.2457C13.3045 20.9519 13.0711 20.7266 12.7756 20.7266C12.4898 20.7266 12.2564 20.9519 12.2564 21.2457C12.2564 21.5394 12.4898 21.7648 12.7756 21.7648ZM10.9611 21.9308C11.2549 21.9308 11.4803 21.6975 11.4803 21.4117C11.4803 21.1162 11.2549 20.8846 10.9611 20.8846C10.6674 20.8846 10.442 21.1162 10.442 21.4117C10.442 21.6975 10.6674 21.9308 10.9611 21.9308ZM9.14668 21.7648C9.43242 21.7648 9.66582 21.5394 9.66582 21.2457C9.66582 20.9519 9.43242 20.7266 9.14668 20.7266C8.85117 20.7266 8.61953 20.9519 8.61953 21.2457C8.61953 21.5394 8.85117 21.7648 9.14668 21.7648ZM7.39082 21.2988C7.68457 21.2988 7.90996 21.0672 7.90996 20.7797C7.90996 20.4859 7.68457 20.2525 7.39082 20.2525C7.09531 20.2525 6.86992 20.4859 6.86992 20.7797C6.86992 21.0672 7.09531 21.2988 7.39082 21.2988ZM5.73437 20.5141C6.02812 20.5141 6.26152 20.2887 6.26152 19.9949C6.26152 19.6994 6.02812 19.4758 5.73437 19.4758C5.44863 19.4758 5.21523 19.6994 5.21523 19.9949C5.21523 20.2887 5.44863 20.5141 5.73437 20.5141ZM4.24394 19.4781C4.53769 19.4781 4.76308 19.2447 4.76308 18.959C4.76308 18.6652 4.53769 18.4318 4.24394 18.4318C3.94844 18.4318 3.7248 18.6652 3.7248 18.959C3.7248 19.2447 3.94844 19.4781 4.24394 19.4781ZM2.95234 18.183C3.24785 18.183 3.48125 17.9594 3.48125 17.6639C3.48125 17.3701 3.24785 17.1447 2.95234 17.1447C2.6666 17.1447 2.4332 17.3701 2.4332 17.6639C2.4332 17.9594 2.6666 18.183 2.95234 18.183ZM1.91015 16.6863C2.2039 16.6863 2.42929 16.4627 2.42929 16.1672C2.42929 15.8734 2.2039 15.648 1.91015 15.648C1.61465 15.648 1.39102 15.8734 1.39102 16.1672C1.39102 16.4627 1.61465 16.6863 1.91015 16.6863ZM1.1459 15.0476C1.43164 15.0476 1.66504 14.8142 1.66504 14.5205C1.66504 14.233 1.43164 14.0014 1.1459 14.0014C0.852148 14.0014 0.61875 14.233 0.61875 14.5205C0.61875 14.8142 0.852148 15.0476 1.1459 15.0476ZM0.673632 13.2918C0.969139 13.2918 1.20254 13.0664 1.20254 12.7726C1.20254 12.4771 0.969139 12.2535 0.673632 12.2535C0.38789 12.2535 0.154492 12.4771 0.154492 12.7726C0.154492 13.0664 0.38789 13.2918 0.673632 13.2918ZM0.51914 11.4846C0.812889 11.4846 1.04629 11.2592 1.04629 10.9654C1.04629 10.6717 0.812889 10.4463 0.51914 10.4463C0.233398 10.4463 0 10.6717 0 10.9654C0 11.2592 0.233398 11.4846 0.51914 11.4846ZM0.673632 9.67734C0.969139 9.67734 1.20254 9.45195 1.20254 9.1582C1.20254 8.86445 0.969139 8.63906 0.673632 8.63906C0.38789 8.63906 0.154492 8.86445 0.154492 9.1582C0.154492 9.45195 0.38789 9.67734 0.673632 9.67734ZM1.1459 7.92949C1.43164 7.92949 1.66504 7.69609 1.66504 7.40234C1.66504 7.1166 1.43164 6.8832 1.1459 6.8832C0.852148 6.8832 0.61875 7.1166 0.61875 7.40234C0.61875 7.69609 0.852148 7.92949 1.1459 7.92949ZM1.91015 6.28105C2.2039 6.28105 2.42929 6.04941 2.42929 5.76191C2.42929 5.46816 2.2039 5.23476 1.91015 5.23476C1.61465 5.23476 1.39102 5.46816 1.39102 5.76191C1.39102 6.04941 1.61465 6.28105 1.91015 6.28105ZM2.95234 4.78437C3.24785 4.78437 3.48125 4.55273 3.48125 4.26523C3.48125 3.97148 3.24785 3.73808 2.95234 3.73808C2.6666 3.73808 2.4332 3.97148 2.4332 4.26523C2.4332 4.55273 2.6666 4.78437 2.95234 4.78437ZM4.24394 3.49101C4.53769 3.49101 4.76308 3.26562 4.76308 2.97187C4.76308 2.67637 4.53769 2.45273 4.24394 2.45273C3.94844 2.45273 3.7248 2.67637 3.7248 2.97187C3.7248 3.26562 3.94844 3.49101 4.24394 3.49101ZM5.73437 2.45508C6.02812 2.45508 6.26152 2.22168 6.26152 1.93594C6.26152 1.64219 6.02812 1.40879 5.73437 1.40879C5.44863 1.40879 5.21523 1.64219 5.21523 1.93594C5.21523 2.22168 5.44863 2.45508 5.73437 2.45508ZM7.39082 1.66855C7.68457 1.66855 7.90996 1.44492 7.90996 1.14941C7.90996 0.855663 7.68457 0.630273 7.39082 0.630273C7.09531 0.630273 6.86992 0.855663 6.86992 1.14941C6.86992 1.44492 7.09531 1.66855 7.39082 1.66855ZM9.14668 1.2043C9.43242 1.2043 9.66582 0.970897 9.66582 0.685155C9.66582 0.389648 9.43242 0.158008 9.14668 0.158008C8.85117 0.158008 8.61953 0.389648 8.61953 0.685155C8.61953 0.970897 8.85117 1.2043 9.14668 1.2043Z" fill="white" fill-opacity="0.25"/>
  <path d="M10.9611 18.9605C15.3781 18.9605 18.9607 15.3939 18.9607 10.9689C18.9607 6.57324 15.3603 2.96933 10.9611 2.96933C6.52812 2.96933 2.96152 6.54394 2.96152 10.9689C2.96152 15.4152 6.51484 18.9605 10.9611 18.9605ZM10.9611 17.9025C7.09394 17.9025 4.02753 14.8361 4.02753 10.9689C4.02753 7.13105 7.12324 4.0371 10.9611 4.0371C14.7875 4.0371 17.8947 7.14433 17.8947 10.9689C17.8947 14.8068 14.799 17.9025 10.9611 17.9025Z" fill="white" fill-opacity="0.25"/>
  <path d="M10.9611 15.1006C13.2439 15.1006 15.075 13.2598 15.075 10.985C15.075 8.71367 13.2324 6.87109 10.9611 6.87109C8.68008 6.87109 6.84726 8.7039 6.84726 10.985C6.84726 13.2678 8.67031 15.1006 10.9611 15.1006ZM10.9611 13.0896C9.79511 13.0896 8.85644 12.1527 8.85644 10.985C8.85644 9.81894 9.79511 8.88202 10.9611 8.88202C12.1174 8.88202 13.0658 9.83046 13.0658 10.985C13.0658 12.1527 12.1271 13.0896 10.9611 13.0896Z" fill="white" fill-opacity="0.25"/>
 </g>
</svg>
