<?xml version="1.0" encoding="UTF-8"?>
<!--Generator: Apple Native CoreSVG 341-->
<!DOCTYPE svg
PUBLIC "-//W3C//DTD SVG 1.1//EN"
       "http://www.w3.org/Graphics/SVG/1.1/DTD/svg11.dtd">
<svg version="1.1" xmlns="http://www.w3.org/2000/svg" xmlns:xlink="http://www.w3.org/1999/xlink" viewBox="0 0 22.5641 22.2007">
 <g>
  <rect height="22.2007" opacity="0" width="22.5641" x="0" y="0"/>
  <path d="M11.6042 21.5418C11.6042 21.8275 11.3708 22.0609 11.0851 22.0609C10.7896 22.0609 10.558 21.8275 10.558 21.5418C10.558 21.2463 10.7896 21.0146 11.0851 21.0146C11.3708 21.0146 11.6042 21.2463 11.6042 21.5418ZM9.78803 21.3757C9.78803 21.6695 9.55639 21.8949 9.26088 21.8949C8.97514 21.8949 8.74174 21.6695 8.74174 21.3757C8.74174 21.082 8.97514 20.8566 9.26088 20.8566C9.55639 20.8566 9.78803 21.082 9.78803 21.3757ZM13.4187 21.3757C13.4187 21.6695 13.1853 21.8949 12.8996 21.8949C12.6058 21.8949 12.3804 21.6695 12.3804 21.3757C12.3804 21.082 12.6058 20.8566 12.8996 20.8566C13.1853 20.8566 13.4187 21.082 13.4187 21.3757ZM8.03217 20.9097C8.03217 21.1972 7.80053 21.4289 7.50502 21.4289C7.21928 21.4289 6.98588 21.1972 6.98588 20.9097C6.98588 20.616 7.21928 20.3826 7.50502 20.3826C7.80053 20.3826 8.03217 20.616 8.03217 20.9097ZM15.1746 20.9097C15.1746 21.1972 14.9412 21.4289 14.6554 21.4289C14.3617 21.4289 14.1283 21.1972 14.1283 20.9097C14.1283 20.616 14.3617 20.3826 14.6554 20.3826C14.9412 20.3826 15.1746 20.616 15.1746 20.9097ZM6.37748 20.125C6.37748 20.4187 6.14409 20.6441 5.85834 20.6441C5.56284 20.6441 5.33745 20.4187 5.33745 20.125C5.33745 19.8295 5.56284 19.6058 5.85834 19.6058C6.14409 19.6058 6.37748 19.8295 6.37748 20.125ZM16.831 20.125C16.831 20.4187 16.5976 20.6441 16.3038 20.6441C16.0181 20.6441 15.7847 20.4187 15.7847 20.125C15.7847 19.8295 16.0181 19.6058 16.3038 19.6058C16.5976 19.6058 16.831 19.8295 16.831 20.125ZM4.88706 19.089C4.88706 19.3748 4.65366 19.6082 4.36616 19.6082C4.07241 19.6082 3.83901 19.3748 3.83901 19.089C3.83901 18.7953 4.07241 18.5619 4.36616 18.5619C4.65366 18.5619 4.88706 18.7953 4.88706 19.089ZM3.59545 17.7939C3.59545 18.0894 3.37006 18.3131 3.07631 18.3131C2.78256 18.3131 2.55717 18.0894 2.55717 17.7939C2.55717 17.5002 2.78256 17.2748 3.07631 17.2748C3.37006 17.2748 3.59545 17.5002 3.59545 17.7939ZM2.55327 16.2972C2.55327 16.5927 2.31987 16.8164 2.03237 16.8164C1.73862 16.8164 1.50522 16.5927 1.50522 16.2972C1.50522 16.0035 1.73862 15.7781 2.03237 15.7781C2.31987 15.7781 2.55327 16.0035 2.55327 16.2972ZM20.6552 16.2972C20.6552 16.5927 20.4218 16.8164 20.1281 16.8164C19.8423 16.8164 19.6089 16.5927 19.6089 16.2972C19.6089 16.0035 19.8423 15.7781 20.1281 15.7781C20.4218 15.7781 20.6552 16.0035 20.6552 16.2972ZM1.781 14.6506C1.781 14.9443 1.55561 15.1777 1.26186 15.1777C0.966355 15.1777 0.742722 14.9443 0.742722 14.6506C0.742722 14.3631 0.966355 14.1314 1.26186 14.1314C1.55561 14.1314 1.781 14.3631 1.781 14.6506ZM21.4195 14.6506C21.4195 14.9443 21.1941 15.1777 20.9003 15.1777C20.6048 15.1777 20.3812 14.9443 20.3812 14.6506C20.3812 14.3631 20.6048 14.1314 20.9003 14.1314C21.1941 14.1314 21.4195 14.3631 21.4195 14.6506ZM21.882 12.9027C21.882 13.1965 21.6583 13.4218 21.3628 13.4218C21.0771 13.4218 20.8437 13.1965 20.8437 12.9027C20.8437 12.6072 21.0771 12.3836 21.3628 12.3836C21.6583 12.3836 21.882 12.6072 21.882 12.9027ZM1.31674 12.9027C1.31674 13.1965 1.09135 13.4218 0.797604 13.4218C0.503855 13.4218 0.278465 13.1965 0.278465 12.9027C0.278465 12.6072 0.503855 12.3836 0.797604 12.3836C1.09135 12.3836 1.31674 12.6072 1.31674 12.9027ZM22.0462 11.0955C22.0462 11.3892 21.8128 11.6146 21.5191 11.6146C21.2316 11.6146 20.9999 11.3892 20.9999 11.0955C20.9999 10.8017 21.2316 10.5763 21.5191 10.5763C21.8128 10.5763 22.0462 10.8017 22.0462 11.0955ZM1.16225 11.0955C1.16225 11.3892 0.936862 11.6146 0.643112 11.6146C0.347605 11.6146 0.123972 11.3892 0.123972 11.0955C0.123972 10.8017 0.347605 10.5763 0.643112 10.5763C0.936862 10.5763 1.16225 10.8017 1.16225 11.0955ZM21.882 9.28825C21.882 9.582 21.6583 9.80739 21.3628 9.80739C21.0771 9.80739 20.8437 9.582 20.8437 9.28825C20.8437 8.9945 21.0771 8.76911 21.3628 8.76911C21.6583 8.76911 21.882 8.9945 21.882 9.28825ZM1.31674 9.28825C1.31674 9.582 1.09135 9.80739 0.797604 9.80739C0.503855 9.80739 0.278465 9.582 0.278465 9.28825C0.278465 8.9945 0.503855 8.76911 0.797604 8.76911C1.09135 8.76911 1.31674 8.9945 1.31674 9.28825ZM21.4195 7.5324C21.4195 7.82615 21.1941 8.05954 20.9003 8.05954C20.6048 8.05954 20.3812 7.82615 20.3812 7.5324C20.3812 7.24665 20.6048 7.01326 20.9003 7.01326C21.1941 7.01326 21.4195 7.24665 21.4195 7.5324ZM1.781 7.5324C1.781 7.82615 1.55561 8.05954 1.26186 8.05954C0.966355 8.05954 0.742722 7.82615 0.742722 7.5324C0.742722 7.24665 0.966355 7.01326 1.26186 7.01326C1.55561 7.01326 1.781 7.24665 1.781 7.5324ZM20.6552 5.89197C20.6552 6.17947 20.4218 6.41111 20.1281 6.41111C19.8423 6.41111 19.6089 6.17947 19.6089 5.89197C19.6089 5.59822 19.8423 5.36482 20.1281 5.36482C20.4218 5.36482 20.6552 5.59822 20.6552 5.89197ZM2.55327 5.89197C2.55327 6.17947 2.31987 6.41111 2.03237 6.41111C1.73862 6.41111 1.50522 6.17947 1.50522 5.89197C1.50522 5.59822 1.73862 5.36482 2.03237 5.36482C2.31987 5.36482 2.55327 5.59822 2.55327 5.89197ZM19.6113 4.39529C19.6113 4.68279 19.3796 4.91443 19.0841 4.91443C18.7984 4.91443 18.565 4.68279 18.565 4.39529C18.565 4.10154 18.7984 3.86814 19.0841 3.86814C19.3796 3.86814 19.6113 4.10154 19.6113 4.39529ZM18.3214 3.10193C18.3214 3.39568 18.088 3.62107 17.7943 3.62107C17.5085 3.62107 17.2751 3.39568 17.2751 3.10193C17.2751 2.80642 17.5085 2.58279 17.7943 2.58279C18.088 2.58279 18.3214 2.80642 18.3214 3.10193ZM6.37748 2.06599C6.37748 2.35173 6.14409 2.58513 5.85834 2.58513C5.56284 2.58513 5.33745 2.35173 5.33745 2.06599C5.33745 1.77224 5.56284 1.53884 5.85834 1.53884C6.14409 1.53884 6.37748 1.77224 6.37748 2.06599ZM16.831 2.06599C16.831 2.35173 16.5976 2.58513 16.3038 2.58513C16.0181 2.58513 15.7847 2.35173 15.7847 2.06599C15.7847 1.77224 16.0181 1.53884 16.3038 1.53884C16.5976 1.53884 16.831 1.77224 16.831 2.06599ZM15.1746 1.27947C15.1746 1.57498 14.9412 1.79861 14.6554 1.79861C14.3617 1.79861 14.1283 1.57498 14.1283 1.27947C14.1283 0.985719 14.3617 0.760329 14.6554 0.760329C14.9412 0.760329 15.1746 0.985719 15.1746 1.27947ZM8.03217 1.27947C8.03217 1.57498 7.80053 1.79861 7.50502 1.79861C7.21928 1.79861 6.98588 1.57498 6.98588 1.27947C6.98588 0.985719 7.21928 0.760329 7.50502 0.760329C7.80053 0.760329 8.03217 0.985719 8.03217 1.27947ZM13.4187 0.815211C13.4187 1.10095 13.1853 1.33435 12.8996 1.33435C12.6058 1.33435 12.3804 1.10095 12.3804 0.815211C12.3804 0.519703 12.6058 0.288063 12.8996 0.288063C13.1853 0.288063 13.4187 0.519703 13.4187 0.815211ZM9.78803 0.815211C9.78803 1.10095 9.55639 1.33435 9.26088 1.33435C8.97514 1.33435 8.74174 1.10095 8.74174 0.815211C8.74174 0.519703 8.97514 0.288063 9.26088 0.288063C9.55639 0.288063 9.78803 0.519703 9.78803 0.815211ZM11.6042 0.649195C11.6042 0.942945 11.3708 1.16833 11.0851 1.16833C10.7896 1.16833 10.558 0.942945 10.558 0.649195C10.558 0.355446 10.7896 0.130055 11.0851 0.130055C11.3708 0.130055 11.6042 0.355446 11.6042 0.649195Z" fill="white" fill-opacity="0.25"/>
  <path d="M4.98871 7.78453C4.45433 8.76815 4.15151 9.89709 4.15151 11.099C4.15151 14.9662 7.21791 18.0326 11.0851 18.0326C12.2902 18.0326 13.4211 17.7274 14.4052 17.1892L15.1755 17.9585C13.9834 18.6805 12.5828 19.0906 11.0851 19.0906C6.63081 19.0906 3.0855 15.5453 3.0855 11.099C3.0855 9.60124 3.49299 8.20091 4.21192 7.00872ZM19.0749 11.099C19.0749 12.5831 18.673 13.9707 17.965 15.1547L17.1895 14.3797C17.7131 13.4043 18.0089 12.2872 18.0089 11.099C18.0089 7.27439 14.9017 4.16716 11.0851 4.16716C9.89235 4.16716 8.77252 4.46475 7.79572 4.99086L7.01643 4.21198C8.20219 3.50219 9.59373 3.09939 11.0851 3.09939C15.4826 3.09939 19.0749 6.70329 19.0749 11.099Z" fill="white" fill-opacity="0.25"/>
  <path d="M9.13252 11.9231C9.34444 12.4368 9.75417 12.8461 10.2694 13.0586L12.2691 15.0558C11.8949 15.1701 11.4973 15.2306 11.0851 15.2306C8.79428 15.2306 6.96948 13.3978 6.96948 11.115C6.96948 10.7041 7.02895 10.3078 7.14177 9.93487ZM15.191 11.115C15.191 11.5009 15.1382 11.8744 15.0356 12.2269L12.942 10.1344C12.7442 9.7635 12.4378 9.45774 12.0673 9.26013L9.96414 7.15811C10.3191 7.05452 10.6955 7.00115 11.0851 7.00115C13.3564 7.00115 15.191 8.84372 15.191 11.115Z" fill="white" fill-opacity="0.25"/>
  <path d="M19.6787 20.7613C19.9724 21.0533 20.4845 21.0648 20.7765 20.7613C21.0783 20.4578 21.08 19.9652 20.7765 19.6617L2.53647 1.43142C2.23296 1.12791 1.73061 1.1199 1.4271 1.43142C1.13335 1.72341 1.13335 2.23728 1.4271 2.53103Z" fill="white" fill-opacity="0.25"/>
 </g>
</svg>
