<?xml version="1.0" encoding="UTF-8"?>
<!--Generator: Apple Native CoreSVG 341-->
<!DOCTYPE svg
PUBLIC "-//W3C//DTD SVG 1.1//EN"
       "http://www.w3.org/Graphics/SVG/1.1/DTD/svg11.dtd">
<svg version="1.1" xmlns="http://www.w3.org/2000/svg" xmlns:xlink="http://www.w3.org/1999/xlink" viewBox="0 0 25.2865 19.1164">
 <g>
  <rect height="19.1164" opacity="0" width="25.2865" x="0" y="0"/>
  <path d="M19.4973 17.326C22.5344 17.326 24.9252 15.0957 24.9252 12.3152C24.9252 10.2363 23.74 8.40273 21.8076 7.59316C21.8201 3.18144 18.6361 0 14.5523 0C11.948 0 10.0053 1.34746 8.78066 3.1127C6.31152 2.44824 3.70664 4.29199 3.61562 7.04394C1.38398 7.43593 0 9.44726 0 11.881C0 14.8488 2.59238 17.326 6.00429 17.326ZM19.499 15.4127L6.00781 15.4127C3.66991 15.4127 1.93436 13.7818 1.93436 11.881C1.93436 9.93671 3.13709 8.47538 5.1371 8.47538C5.27909 8.47538 5.33495 8.40175 5.33143 8.266C5.27343 5.34432 7.36933 4.37128 9.45741 5.03085C9.57811 5.06815 9.6535 5.03886 9.71561 4.92792C10.6787 3.23143 12.1039 1.91327 14.54 1.91327C17.6289 1.91327 19.8088 4.35565 19.9643 7.20155C19.9953 7.71405 19.959 8.28182 19.9129 8.75311C19.9014 8.88885 19.9537 8.95897 20.0814 8.98651C21.8553 9.33319 22.9908 10.5863 22.9908 12.3152C22.9908 14.035 21.4684 15.4127 19.499 15.4127Z" fill="white" fill-opacity="0.25"/>
  <path d="M10.2728 13.8631L14.6639 13.8631C15.2764 13.8631 15.5728 13.5488 15.5728 12.892L15.5728 9.52909C15.5728 8.93417 15.3295 8.62616 14.8375 8.57655L14.8375 7.5996C14.8375 6.00507 13.8822 4.93964 12.4617 4.93964C11.051 4.93964 10.0975 6.00507 10.0975 7.5996L10.0975 8.57831C9.60546 8.62792 9.36034 8.93417 9.36034 9.52909L9.36034 12.892C9.36034 13.5488 9.65683 13.8631 10.2728 13.8631ZM11.1201 8.56152L11.1201 7.51073C11.1201 6.56288 11.6506 5.93475 12.4617 5.93475C13.2809 5.93475 13.8148 6.56288 13.8148 7.51073L13.8148 8.56152Z" fill="white" fill-opacity="0.25"/>
 </g>
</svg>
