<?xml version="1.0" encoding="UTF-8"?>
<!--Generator: Apple Native CoreSVG 341-->
<!DOCTYPE svg
PUBLIC "-//W3C//DTD SVG 1.1//EN"
       "http://www.w3.org/Graphics/SVG/1.1/DTD/svg11.dtd">
<svg version="1.1" xmlns="http://www.w3.org/2000/svg" xmlns:xlink="http://www.w3.org/1999/xlink" viewBox="0 0 25.2865 19.1234">
 <g>
  <rect height="19.1234" opacity="0" width="25.2865" x="0" y="0"/>
  <path d="M21.8076 7.59316C23.74 8.40097 24.9252 10.2363 24.9252 12.3152C24.9252 15.0957 22.5344 17.3242 19.4973 17.3242L6.00429 17.3242C2.59238 17.3242 0 14.8488 0 11.881C0 9.4455 1.38398 7.43593 3.61562 7.04219C3.70664 4.29199 6.31152 2.44824 8.78066 3.1127C10.0053 1.34571 11.948 0 14.5523 0C18.6361 0 21.8201 3.18144 21.8076 7.59316ZM9.99999 7.54198L9.99999 8.54726C9.48671 8.60487 9.23183 8.9244 9.23183 9.53612L9.23183 13.0275C9.23183 13.7189 9.54784 14.0465 10.1807 14.0465L14.756 14.0465C15.3934 14.0465 15.6934 13.7189 15.6934 13.0275L15.6934 9.53612C15.6934 8.9244 15.4402 8.60312 14.935 8.5455L14.935 7.54198C14.935 5.87655 13.9336 4.76503 12.4617 4.76503C10.9996 4.76503 9.99999 5.87655 9.99999 7.54198ZM13.8574 7.44335L13.8574 8.5287L11.0695 8.5287L11.0695 7.44335C11.0695 6.45292 11.6275 5.80975 12.4617 5.80975C13.3021 5.80975 13.8574 6.45292 13.8574 7.44335Z" fill="white" fill-opacity="0.25"/>
 </g>
</svg>
