<?xml version="1.0" encoding="UTF-8"?>
<!--Generator: Apple Native CoreSVG 341-->
<!DOCTYPE svg
PUBLIC "-//W3C//DTD SVG 1.1//EN"
       "http://www.w3.org/Graphics/SVG/1.1/DTD/svg11.dtd">
<svg version="1.1" xmlns="http://www.w3.org/2000/svg" xmlns:xlink="http://www.w3.org/1999/xlink" viewBox="0 0 34.616 20.3894">
 <g>
  <rect height="20.3894" opacity="0" width="34.616" x="0" y="0"/>
  <path d="M26.314 4.36033L26.314 5.21307L24.4008 5.21307L24.4008 4.86131C24.4008 4.24685 24.0891 3.95017 23.4816 3.95017L18.0545 3.95017C17.8965 3.95017 17.8086 4.02205 17.8086 4.18806L17.8086 4.34119C17.8086 4.76892 17.5406 5.05466 17.1226 5.05466L13.3652 5.05466C12.941 5.05466 12.6633 4.76892 12.6633 4.34119L12.6633 4.18806C12.6633 4.02205 12.5754 3.95017 12.4334 3.95017L6.99822 3.95017C6.38279 3.95017 6.07908 4.24685 6.07908 4.86131L6.07908 15.8765L12.348 15.8765L12.348 15.9512L11.9006 15.9512C10.7267 15.9969 9.78436 16.9709 9.78436 18.165C9.78436 18.2325 9.78737 18.2994 9.79446 18.365L2.09921 18.365C1.42167 18.365 0.860348 17.8054 0.860348 17.1199C0.860348 16.4344 1.42167 15.8765 2.09921 15.8765L4.16581 15.8765L4.16581 4.36033C4.16581 2.84374 5.05624 2.0369 6.50702 2.0369L23.9728 2.0369C25.4814 2.0369 26.314 2.84374 26.314 4.36033Z" fill="white" fill-opacity="0.25"/>
  <path d="M11.0078 18.165C11.0078 18.7236 11.4599 19.174 12.0008 19.174L32.3853 19.174C32.9404 19.174 33.3925 18.7236 33.3925 18.165C33.3925 17.6064 32.9404 17.1578 32.3853 17.1578L30.8209 17.1578L30.8209 8.28181C30.8209 7.19666 30.059 6.4365 28.9756 6.4365L15.4248 6.4365C14.3414 6.4365 13.5635 7.19666 13.5635 8.28181L13.5635 17.1578L12.0008 17.1578C11.4599 17.1578 11.0078 17.6064 11.0078 18.165ZM15.2023 17.2142L15.2023 8.68981C15.2023 8.31169 15.4537 8.07184 15.8185 8.07184L28.5738 8.07184C28.9404 8.07184 29.182 8.31169 29.182 8.68981L29.182 17.2142ZM19.8457 8.07184L20.0525 8.07184C20.1635 8.07184 20.222 8.13395 20.222 8.25915L20.222 8.37419C20.222 8.69899 20.4394 8.92262 20.7705 8.92262L23.6414 8.92262C23.9662 8.92262 24.18 8.69899 24.18 8.37419L24.18 8.25915C24.18 8.13395 24.2484 8.07184 24.3593 8.07184L24.5644 8.07184L24.5644 7.2904L19.8457 7.2904Z" fill="white" fill-opacity="0.25"/>
 </g>
</svg>
