<?xml version="1.0" encoding="UTF-8"?>
<!--Generator: Apple Native CoreSVG 341-->
<!DOCTYPE svg
PUBLIC "-//W3C//DTD SVG 1.1//EN"
       "http://www.w3.org/Graphics/SVG/1.1/DTD/svg11.dtd">
<svg version="1.1" xmlns="http://www.w3.org/2000/svg" xmlns:xlink="http://www.w3.org/1999/xlink" viewBox="0 0 29.949 20.0652">
 <g>
  <rect height="20.0652" opacity="0" width="29.949" x="0" y="0"/>
  <path d="M25.8531 3.87616L23.5189 3.87616C23.3872 3.8172 23.2259 3.78807 23.0355 3.78807L6.55214 3.78807C5.9367 3.78807 5.63299 4.08475 5.63299 4.69921L5.63299 15.7144L18.4658 15.7144L18.4658 16.9953C18.4658 17.4313 18.5451 17.838 18.6928 18.2029L1.65312 18.2029C0.975586 18.2029 0.41426 17.6433 0.41426 16.9578C0.41426 16.2723 0.975586 15.7144 1.65312 15.7144L3.71973 15.7144L3.71973 4.19823C3.71973 2.68164 4.61015 1.8748 6.06093 1.8748L23.5267 1.8748C24.9243 1.8748 25.7417 2.56724 25.8531 3.87616Z" fill="white" fill-opacity="0.25"/>
  <path d="M19.8449 16.9953C19.8449 18.0062 20.5478 18.6861 21.6139 18.6861L26.4021 18.6861C27.4558 18.6861 28.1545 18.0062 28.1545 16.9935L28.1545 6.93983C28.1545 5.93514 27.4558 5.25526 26.4021 5.25526L21.6139 5.25526C20.5478 5.25526 19.8449 5.93514 19.8449 6.93983ZM21.2816 16.1279L21.2816 7.80369L26.7195 7.80369L26.7195 16.1279ZM24.0103 17.9994C23.6873 17.9994 23.4281 17.7305 23.4281 17.4154C23.4281 17.0941 23.6873 16.8332 24.0103 16.8332C24.3299 16.8332 24.5828 17.0941 24.5828 17.4154C24.5828 17.7305 24.3299 17.9994 24.0103 17.9994ZM24.0103 6.92459C23.7805 6.92459 23.6172 6.7533 23.6172 6.52166C23.6172 6.30154 23.7805 6.14002 24.0103 6.14002C24.2305 6.14002 24.3937 6.30154 24.3937 6.52166C24.3937 6.7533 24.2305 6.92459 24.0103 6.92459Z" fill="white" fill-opacity="0.25"/>
 </g>
</svg>
