<?xml version="1.0" encoding="UTF-8"?>
<!--Generator: Apple Native CoreSVG 341-->
<!DOCTYPE svg
PUBLIC "-//W3C//DTD SVG 1.1//EN"
       "http://www.w3.org/Graphics/SVG/1.1/DTD/svg11.dtd">
<svg version="1.1" xmlns="http://www.w3.org/2000/svg" xmlns:xlink="http://www.w3.org/1999/xlink" viewBox="0 0 34.616 20.2242">
 <g>
  <rect height="20.2242" opacity="0" width="34.616" x="0" y="0"/>
  <path d="M26.314 4.27772L26.314 5.04784L24.4008 5.04784L24.4008 4.77869C24.4008 4.16424 24.0891 3.86756 23.4816 3.86756L6.99822 3.86756C6.38279 3.86756 6.07908 4.16424 6.07908 4.77869L6.07908 15.7939L11.8117 15.7939C10.6791 15.8833 9.78436 16.8362 9.78436 18.0015C9.78436 18.0969 9.79036 18.1909 9.80399 18.2824L2.09921 18.2824C1.42167 18.2824 0.860348 17.7228 0.860348 17.0373C0.860348 16.3517 1.42167 15.7939 2.09921 15.7939L4.16581 15.7939L4.16581 4.27772C4.16581 2.76112 5.05624 1.95429 6.50702 1.95429L23.9728 1.95429C25.4814 1.95429 26.314 2.76112 26.314 4.27772Z" fill="white" fill-opacity="0.25"/>
  <path d="M11.0078 18.0015C11.0078 18.5601 11.4599 19.0088 12.0008 19.0088L32.3853 19.0088C32.9404 19.0088 33.3925 18.5601 33.3925 18.0015C33.3925 17.443 32.9404 16.9926 32.3853 16.9926L30.8209 16.9926L30.8209 8.11658C30.8209 7.03143 30.059 6.27127 28.9756 6.27127L15.4248 6.27127C14.3414 6.27127 13.5635 7.03143 13.5635 8.11658L13.5635 16.9926L12.0008 16.9926C11.4599 16.9926 11.0078 17.443 11.0078 18.0015ZM15.2023 17.049L15.2023 8.52458C15.2023 8.14646 15.4537 7.90837 15.8185 7.90837L28.5738 7.90837C28.9404 7.90837 29.182 8.14646 29.182 8.52458L29.182 17.049Z" fill="white" fill-opacity="0.25"/>
 </g>
</svg>
