<?xml version="1.0" encoding="UTF-8"?>
<!--Generator: Apple Native CoreSVG 341-->
<!DOCTYPE svg
PUBLIC "-//W3C//DTD SVG 1.1//EN"
       "http://www.w3.org/Graphics/SVG/1.1/DTD/svg11.dtd">
<svg version="1.1" xmlns="http://www.w3.org/2000/svg" xmlns:xlink="http://www.w3.org/1999/xlink" viewBox="0 0 33.3756 20.2457">
 <g>
  <rect height="20.2457" opacity="0" width="33.3756" x="0" y="0"/>
  <path d="M27.5812 4.28846L27.5812 4.81483L25.668 4.81483L25.668 4.78944C25.668 4.17498 25.3562 3.8783 24.7488 3.8783L8.26542 3.8783C7.64999 3.8783 7.34628 4.17498 7.34628 4.78944L7.34628 15.8047L14.5652 15.8047L14.5652 16.556C14.5652 17.212 14.6833 17.7964 14.9095 18.2931L3.36641 18.2931C2.68887 18.2931 2.12754 17.7336 2.12754 17.048C2.12754 16.3625 2.68887 15.8047 3.36641 15.8047L5.43301 15.8047L5.43301 4.28846C5.43301 2.77187 6.32344 1.96504 7.77421 1.96504L25.24 1.96504C26.7486 1.96504 27.5812 2.77187 27.5812 4.28846Z" fill="white" fill-opacity="0.25"/>
  <path d="M18.2674 18.8666L29.6654 18.8666C31.1848 18.8666 31.9965 18.0549 31.9965 16.556L31.9965 8.51873C31.9965 7.01366 31.1848 6.20194 29.6654 6.20194L18.2656 6.20194C16.7543 6.20194 15.9443 7.00565 15.9443 8.51873L15.9443 16.556C15.9443 18.0549 16.7543 18.8666 18.2674 18.8666ZM18.3492 17.2242C17.8391 17.2242 17.5885 17.0074 17.5885 16.4555L17.5885 8.60506C17.5885 8.06912 17.8391 7.83631 18.3492 7.83631L29.5836 7.83631C30.0875 7.83631 30.3541 8.06912 30.3541 8.60506L30.3541 16.4555C30.3541 17.0074 30.0875 17.2242 29.5836 17.2242ZM21.4377 16.4017L26.5049 16.4017C26.765 16.4017 26.9586 16.2295 26.9586 15.9596C26.9586 15.6861 26.765 15.5058 26.5049 15.5058L21.4377 15.5058C21.1775 15.5058 20.9822 15.6861 20.9822 15.9596C20.9822 16.2295 21.1775 16.4017 21.4377 16.4017Z" fill="white" fill-opacity="0.25"/>
 </g>
</svg>
