<?xml version="1.0" encoding="UTF-8"?>
<!--Generator: Apple Native CoreSVG 341-->
<!DOCTYPE svg
PUBLIC "-//W3C//DTD SVG 1.1//EN"
       "http://www.w3.org/Graphics/SVG/1.1/DTD/svg11.dtd">
<svg version="1.1" xmlns="http://www.w3.org/2000/svg" xmlns:xlink="http://www.w3.org/1999/xlink" viewBox="0 0 32.0826 19.9976">
 <g>
  <rect height="19.9976" opacity="0" width="32.0826" x="0" y="0"/>
  <path d="M26.9199 3.84237L24.5857 3.84237C24.454 3.78341 24.2927 3.75428 24.1023 3.75428L7.61893 3.75428C7.0035 3.75428 6.69979 4.05096 6.69979 4.66542L6.69979 15.6807L19.5326 15.6807L19.5326 16.8918C19.5326 17.3611 19.6114 17.7899 19.7597 18.1691L2.71992 18.1691C2.04238 18.1691 1.48106 17.6096 1.48106 16.924C1.48106 16.2385 2.04238 15.6807 2.71992 15.6807L4.78652 15.6807L4.78652 4.16444C4.78652 2.64785 5.67695 1.84101 7.12772 1.84101L24.5935 1.84101C25.9911 1.84101 26.8085 2.53345 26.9199 3.84237Z" fill="white" fill-opacity="0.25"/>
  <path d="M22.7148 18.7426L27.3051 18.7426C28.5037 18.7426 29.2076 18.0556 29.2076 16.89L29.2076 7.17225C29.2076 6.00662 28.5037 5.3117 27.3051 5.3117L22.7148 5.3117C21.5119 5.3117 20.7894 6.00662 20.7894 7.17049L20.7894 16.8918C20.7894 18.0556 21.5039 18.7426 22.7148 18.7426ZM22.8232 17.2822C22.4269 17.2822 22.2181 17.0672 22.2181 16.6611L22.2181 7.40115C22.2181 6.98709 22.4269 6.77205 22.8232 6.77205L27.1836 6.77205C27.5781 6.77205 27.7789 6.99236 27.7789 7.40291L27.7789 16.6594C27.7789 17.0619 27.5781 17.2822 27.1836 17.2822ZM23.6765 16.7631L26.3178 16.7631C26.5166 16.7631 26.6746 16.6246 26.6746 16.4142C26.6746 16.2199 26.5166 16.0699 26.3178 16.0699L23.6765 16.0699C23.468 16.0699 23.3322 16.2199 23.3322 16.4142C23.3322 16.6326 23.4599 16.7631 23.6765 16.7631ZM24.2252 8.17732L25.7461 8.17732C26.0123 8.17732 26.2191 7.96872 26.2191 7.70779C26.2191 7.44959 26.007 7.249 25.7461 7.249L24.2252 7.249C23.9607 7.249 23.7584 7.44959 23.7584 7.70779C23.7584 7.96872 23.959 8.17732 24.2252 8.17732Z" fill="white" fill-opacity="0.25"/>
 </g>
</svg>
