<?xml version="1.0" encoding="UTF-8"?>
<!--Generator: Apple Native CoreSVG 341-->
<!DOCTYPE svg
PUBLIC "-//W3C//DTD SVG 1.1//EN"
       "http://www.w3.org/Graphics/SVG/1.1/DTD/svg11.dtd">
<svg version="1.1" xmlns="http://www.w3.org/2000/svg" xmlns:xlink="http://www.w3.org/1999/xlink" viewBox="0 0 35.1271 19.5871">
 <g>
  <rect height="19.5871" opacity="0" width="35.1271" x="0" y="0"/>
  <path d="M28.457 3.95917L28.457 7.14755C27.8316 7.07546 27.1892 7.03426 26.5437 7.01246L26.5437 4.46014C26.5437 3.84569 26.232 3.54901 25.6246 3.54901L9.1412 3.54901C8.52577 3.54901 8.22206 3.84569 8.22206 4.46014L8.22206 15.4754L15.3462 15.4754C15.63 16.4443 16.1176 17.2955 16.7611 17.9638L4.24219 17.9638C3.56465 17.9638 3.00332 17.4043 3.00332 16.7187C3.00332 16.0332 3.56465 15.4754 4.24219 15.4754L6.30879 15.4754L6.30879 3.95917C6.30879 2.44257 7.19922 1.63574 8.64999 1.63574L26.1158 1.63574C27.6244 1.63574 28.457 2.44257 28.457 3.95917Z" fill="white" fill-opacity="0.25"/>
  <path d="M25.0783 16.2883C26.1205 16.2883 27.2588 18.2 29.6693 18.2C32.0037 18.2 33.74 16.1148 33.74 13.3793C33.74 8.85643 29.7531 8.37421 25.0783 8.37421C20.4133 8.37421 16.4184 8.86444 16.4184 13.3793C16.4184 16.1148 18.1547 18.2 20.4891 18.2C22.8996 18.2 24.0299 16.2883 25.0783 16.2883ZM25.0783 14.6898C23.0789 14.6898 22.332 16.59 20.4803 16.59C18.9484 16.59 18.023 15.4314 18.023 13.3793C18.023 10.3529 20.4852 9.98065 25.0783 9.98065C29.6812 9.98065 32.1353 10.3431 32.1353 13.3793C32.1353 15.4314 31.2099 16.59 29.6764 16.59C27.8264 16.59 27.0795 14.6898 25.0783 14.6898Z" fill="white" fill-opacity="0.25"/>
 </g>
</svg>
