<?xml version="1.0" encoding="UTF-8"?>
<!--Generator: Apple Native CoreSVG 341-->
<!DOCTYPE svg
PUBLIC "-//W3C//DTD SVG 1.1//EN"
       "http://www.w3.org/Graphics/SVG/1.1/DTD/svg11.dtd">
<svg version="1.1" xmlns="http://www.w3.org/2000/svg" xmlns:xlink="http://www.w3.org/1999/xlink" viewBox="0 0 32.6914 20.0695">
 <g>
  <rect height="20.0695" opacity="0" width="32.6914" x="0" y="0"/>
  <path d="M26.8885 4.20038L26.8885 4.3078L24.9193 4.3078C24.8052 3.95961 24.515 3.79022 24.056 3.79022L7.57264 3.79022C6.95721 3.79022 6.6535 4.0869 6.6535 4.70135L6.6535 15.7166L20.7591 15.7166C21.0035 16.6611 21.579 17.3793 22.3767 17.8445L22.4942 18.2051L2.67362 18.2051C1.99609 18.2051 1.43476 17.6455 1.43476 16.9599C1.43476 16.2744 1.99609 15.7166 2.67362 15.7166L4.74023 15.7166L4.74023 4.20038C4.74023 2.68378 5.63065 1.87695 7.08143 1.87695L24.5473 1.87695C26.0558 1.87695 26.8885 2.68378 26.8885 4.20038Z" fill="white" fill-opacity="0.25"/>
  <path d="M24.7566 18.6904L27.5441 18.6904C27.9248 18.6904 28.2416 18.5281 28.3836 18.0859L28.606 17.4002C28.7267 17.0521 28.9068 16.8142 29.2424 16.6279C29.8619 16.2855 30.2935 15.6472 30.2935 14.6394L30.2935 9.75389C30.2935 8.75409 29.8699 8.11405 29.2424 7.75741C28.9068 7.56131 28.7267 7.33944 28.606 6.98514L28.3836 6.29139C28.2496 5.85546 27.9248 5.69491 27.5441 5.69491L24.7566 5.69491C24.3742 5.69491 24.0351 5.85546 23.9056 6.29139L23.6814 6.98514C23.575 7.35897 23.3629 7.58436 23.0406 7.75741C22.4336 8.09803 22.0135 8.75409 22.0135 9.75389L22.0135 14.6394C22.0135 15.6472 22.4256 16.2758 23.0406 16.6279C23.3762 16.8142 23.575 17.0441 23.6814 17.4002L23.9056 18.0859C24.0431 18.5379 24.3742 18.6904 24.7566 18.6904ZM24.4299 15.4783C23.7185 15.4783 23.3908 15.1408 23.3908 14.3967L23.3908 9.97088C23.3908 9.24276 23.7185 8.90526 24.4299 8.90526L27.8674 8.90526C28.5902 8.90526 28.9037 9.24451 28.9037 9.97088L28.9037 14.3967C28.9037 15.139 28.5742 15.4783 27.8674 15.4783ZM29.9982 11.7978L30.3338 11.7978C30.6771 11.7978 30.8935 11.5556 30.8935 11.1847L30.8935 10.3672C30.8935 10.014 30.6771 9.77811 30.3338 9.77811L29.9982 9.77811Z" fill="white" fill-opacity="0.25"/>
 </g>
</svg>
