<?xml version="1.0" encoding="UTF-8"?>
<!--Generator: Apple Native CoreSVG 341-->
<!DOCTYPE svg
PUBLIC "-//W3C//DTD SVG 1.1//EN"
       "http://www.w3.org/Graphics/SVG/1.1/DTD/svg11.dtd">
<svg version="1.1" xmlns="http://www.w3.org/2000/svg" xmlns:xlink="http://www.w3.org/1999/xlink" viewBox="0 0 27.3777 8.87732">
 <g>
  <rect height="8.87732" opacity="0" width="27.3777" x="0" y="0"/>
  <path d="M3.13945 8.86755L23.8752 8.86755C25.9367 8.86755 27.0164 7.78787 27.0164 5.76014L27.0164 3.10742C27.0164 1.07793 25.9367 0 23.8752 0L3.13945 0C1.07968 0 0 1.07793 0 3.10742L0 5.76014C0 7.78787 1.07968 8.86755 3.13945 8.86755ZM20.8723 5.80448C20.3684 5.80448 19.9629 5.40702 19.9629 4.90311C19.9629 4.39296 20.3684 3.99374 20.8723 3.99374C21.3824 3.99374 21.7816 4.39296 21.7816 4.90311C21.7816 5.40702 21.3824 5.80448 20.8723 5.80448Z" fill="white" fill-opacity="0.25"/>
 </g>
</svg>
