<?xml version="1.0" encoding="UTF-8"?>
<!--Generator: Apple Native CoreSVG 341-->
<!DOCTYPE svg
PUBLIC "-//W3C//DTD SVG 1.1//EN"
       "http://www.w3.org/Graphics/SVG/1.1/DTD/svg11.dtd">
<svg version="1.1" xmlns="http://www.w3.org/2000/svg" xmlns:xlink="http://www.w3.org/1999/xlink" viewBox="0 0 27.3777 8.87732">
 <g>
  <rect height="8.87732" opacity="0" width="27.3777" x="0" y="0"/>
  <path d="M3.13945 8.86755L23.8752 8.86755C25.9367 8.86755 27.0164 7.78787 27.0164 5.76014L27.0164 3.10742C27.0164 1.07793 25.9367 0 23.8752 0L3.13945 0C1.07968 0 0 1.07793 0 3.10742L0 5.76014C0 7.78787 1.07968 8.86755 3.13945 8.86755ZM3.39804 6.95428C2.3326 6.95428 1.91327 6.55975 1.91327 5.66522L1.91327 3.20233C1.91327 2.3078 2.3326 1.91327 3.39804 1.91327L23.6166 1.91327C24.682 1.91327 25.1031 2.3078 25.1031 3.20233L25.1031 5.66522C25.1031 6.55975 24.682 6.95428 23.6166 6.95428ZM20.3812 5.76639C20.8666 5.76639 21.2508 5.38221 21.2508 4.90311C21.2508 4.41776 20.8666 4.03183 20.3812 4.03183C19.9021 4.03183 19.518 4.41776 19.518 4.90311C19.518 5.38221 19.9021 5.76639 20.3812 5.76639Z" fill="white" fill-opacity="0.25"/>
 </g>
</svg>
