<?xml version="1.0" encoding="UTF-8"?>
<!--Generator: Apple Native CoreSVG 341-->
<!DOCTYPE svg
PUBLIC "-//W3C//DTD SVG 1.1//EN"
       "http://www.w3.org/Graphics/SVG/1.1/DTD/svg11.dtd">
<svg version="1.1" xmlns="http://www.w3.org/2000/svg" xmlns:xlink="http://www.w3.org/1999/xlink" viewBox="0 0 26.433 11.0558">
 <g>
  <rect height="11.0558" opacity="0" width="26.433" x="0" y="0"/>
  <path d="M3.18749 11.0461L22.8922 11.0461C24.9937 11.0461 26.0717 9.95837 26.0717 7.8906L26.0717 3.15546C26.0717 1.07968 24.9937 0 22.8922 0L3.18749 0C1.07168 0 0 1.07968 0 3.15546L0 7.8906C0 9.95837 1.07168 11.0461 3.18749 11.0461ZM5.01717 5.81268L5.01717 7.24003C5.01717 7.58944 4.74315 7.86971 4.3955 7.86971C4.03983 7.86971 3.76581 7.58944 3.76581 7.24003L3.76581 5.81268C3.76581 5.46503 4.03983 5.18476 4.3955 5.18476C4.74315 5.18476 5.01717 5.46503 5.01717 5.81268ZM7.80799 5.81268L7.80799 7.24003C7.80799 7.58944 7.53397 7.86971 7.18632 7.86971C6.8369 7.86971 6.55487 7.58944 6.55487 7.24003L6.55487 5.81268C6.55487 5.46503 6.8369 5.18476 7.18632 5.18476C7.53397 5.18476 7.80799 5.46503 7.80799 5.81268ZM18.1596 7.31502C17.7133 7.31502 17.3549 6.95838 17.3549 6.52635C17.3549 6.08456 17.7133 5.72616 18.1596 5.72616C18.6014 5.72616 18.9597 6.08456 18.9597 6.52635C18.9597 6.95838 18.6014 7.31502 18.1596 7.31502ZM21.2332 7.59276C20.6539 7.59276 20.1685 7.1119 20.1685 6.52635C20.1685 5.93104 20.6539 5.45018 21.2332 5.45018C21.8267 5.45018 22.3076 5.93104 22.3076 6.52635C22.3076 7.1119 21.8267 7.59276 21.2332 7.59276Z" fill="white" fill-opacity="0.25"/>
 </g>
</svg>
