<?xml version="1.0" encoding="UTF-8"?>
<!--Generator: Apple Native CoreSVG 341-->
<!DOCTYPE svg
PUBLIC "-//W3C//DTD SVG 1.1//EN"
       "http://www.w3.org/Graphics/SVG/1.1/DTD/svg11.dtd">
<svg version="1.1" xmlns="http://www.w3.org/2000/svg" xmlns:xlink="http://www.w3.org/1999/xlink" viewBox="0 0 26.433 11.0558">
 <g>
  <rect height="11.0558" opacity="0" width="26.433" x="0" y="0"/>
  <path d="M3.18749 11.0461L22.8922 11.0461C24.9937 11.0461 26.0717 9.95837 26.0717 7.8906L26.0717 3.15546C26.0717 1.07968 24.9937 0 22.8922 0L3.18749 0C1.07168 0 0 1.07968 0 3.15546L0 7.8906C0 9.95837 1.07168 11.0461 3.18749 11.0461ZM3.29843 9.13104C2.39843 9.13104 1.91327 8.65467 1.91327 7.72986L1.91327 3.3162C1.91327 2.38163 2.39843 1.91327 3.29843 1.91327L22.7812 1.91327C23.6812 1.91327 24.1584 2.38163 24.1584 3.3162L24.1584 7.72986C24.1584 8.65467 23.6812 9.13104 22.7812 9.13104ZM5.31483 5.30702C5.31483 4.97265 5.05584 4.7039 4.72147 4.7039C4.3871 4.7039 4.12011 4.97265 4.12011 5.30702L4.12011 6.68124C4.12011 7.02362 4.3871 7.2826 4.72147 7.2826C5.05584 7.2826 5.31483 7.02362 5.31483 6.68124ZM8.00291 5.30702C8.00291 4.97265 7.74217 4.7039 7.40956 4.7039C7.07518 4.7039 6.80819 4.97265 6.80819 5.30702L6.80819 6.68124C6.80819 7.02362 7.07518 7.2826 7.40956 7.2826C7.74217 7.2826 8.00291 7.02362 8.00291 6.68124ZM17.9646 6.75272C18.3896 6.75272 18.733 6.40936 18.733 5.99237C18.733 5.56737 18.3896 5.22401 17.9646 5.22401C17.5396 5.22401 17.1963 5.56737 17.1963 5.99237C17.1963 6.40936 17.5396 6.75272 17.9646 6.75272ZM20.9205 7.01542C21.4892 7.01542 21.9533 6.55311 21.9533 5.99237C21.9533 5.42538 21.4892 4.96132 20.9205 4.96132C20.3615 4.96132 19.8974 5.42538 19.8974 5.99237C19.8974 6.55311 20.3615 7.01542 20.9205 7.01542Z" fill="white" fill-opacity="0.25"/>
 </g>
</svg>
