<?xml version="1.0" encoding="UTF-8"?>
<!--Generator: Apple Native CoreSVG 341-->
<!DOCTYPE svg
PUBLIC "-//W3C//DTD SVG 1.1//EN"
       "http://www.w3.org/Graphics/SVG/1.1/DTD/svg11.dtd">
<svg version="1.1" xmlns="http://www.w3.org/2000/svg" xmlns:xlink="http://www.w3.org/1999/xlink" viewBox="0 0 20.8394 25.9426">
 <g>
  <rect height="25.9426" opacity="0" width="20.8394" x="0" y="0"/>
  <path d="M3.20351 21.9271L17.2746 21.9271C19.3824 21.9271 20.4781 20.8394 20.4781 18.7637L20.4781 5.95898C20.4781 3.86718 19.3824 2.7875 17.2746 2.7875L3.20351 2.7875C1.08769 2.7875 0 3.86718 0 5.95898L0 18.7637C0 20.8475 1.08769 21.9271 3.20351 21.9271ZM9.10917 15.8041C8.63339 15.8041 8.3041 15.3594 7.92949 14.8312C7.475 14.1992 7.12793 13.2201 7.12793 12.2881C7.12793 10.7826 8.0875 10.0006 9.04882 10.0006C9.55566 10.0006 9.96933 10.3361 10.2853 10.3361C10.5934 10.3361 11.0594 9.98105 11.6346 9.98105C11.8609 9.98105 12.6412 10.0006 13.1693 10.7435C13.1205 10.7728 12.3367 11.2291 12.3367 12.2197C12.3367 13.3488 13.3371 13.743 13.3646 13.7643C13.3469 13.7935 13.2182 14.3199 12.8418 14.8543C12.5143 15.3185 12.1672 15.8041 11.6346 15.8041C11.1277 15.8041 10.9812 15.4978 10.3768 15.4978C9.80956 15.4978 9.5832 15.8041 9.10917 15.8041ZM10.3377 9.9207C10.2853 9.9207 10.256 9.90292 10.2365 9.88339C10.2268 9.87187 10.2268 9.81328 10.2268 9.75293C10.2268 9.35703 10.3963 8.95312 10.6227 8.70371C10.9191 8.38593 11.3754 8.14804 11.7633 8.12851C11.781 8.16757 11.781 8.21992 11.781 8.27851C11.781 8.68242 11.6133 9.06855 11.3754 9.35703C11.1277 9.67304 10.675 9.9207 10.3377 9.9207ZM2.62344 24.9646L6.37245 24.9646C6.8371 24.9646 7.20507 24.5887 7.20507 24.124C7.20507 23.6558 6.8371 23.2799 6.37245 23.2799L2.62344 23.2799C2.1668 23.2799 1.78907 23.6558 1.78907 24.124C1.78907 24.5887 2.1668 24.9646 2.62344 24.9646ZM3.65957 24.1596L5.33456 24.1596L5.33456 20.8861L3.65957 20.8861ZM14.0863 24.9646L17.8353 24.9646C18.3 24.9646 18.668 24.5887 18.668 24.124C18.668 23.6558 18.3 23.2799 17.8353 23.2799L14.0863 23.2799C13.6297 23.2799 13.2537 23.6558 13.2537 24.124C13.2537 24.5887 13.6297 24.9646 14.0863 24.9646ZM15.1225 24.1596L16.7992 24.1596L16.7992 20.8861L15.1225 20.8861ZM3.65957 3.73905L5.33456 3.73905L5.33456 0.834371C5.33456 0.377733 4.9666 0 4.50195 0C4.03555 0 3.65957 0.377733 3.65957 0.834371ZM15.1225 3.73905L16.7992 3.73905L16.7992 0.834371C16.7992 0.377733 16.4312 0 15.9666 0C15.4904 0 15.1225 0.377733 15.1225 0.834371Z" fill="white" fill-opacity="0.25"/>
 </g>
</svg>
