<?xml version="1.0" encoding="UTF-8"?>
<!--Generator: Apple Native CoreSVG 341-->
<!DOCTYPE svg
PUBLIC "-//W3C//DTD SVG 1.1//EN"
       "http://www.w3.org/Graphics/SVG/1.1/DTD/svg11.dtd">
<svg version="1.1" xmlns="http://www.w3.org/2000/svg" xmlns:xlink="http://www.w3.org/1999/xlink" viewBox="0 0 20.8394 25.9426">
 <g>
  <rect height="25.9426" opacity="0" width="20.8394" x="0" y="0"/>
  <path d="M9.15703 15.6553C9.608 15.6553 9.8246 15.3605 10.3732 15.3605C10.9547 15.3605 11.0914 15.6553 11.5832 15.6553C12.0945 15.6553 12.4266 15.183 12.7408 14.7418C13.1057 14.2305 13.2228 13.7209 13.2424 13.6898C13.2131 13.6721 12.2508 13.2975 12.2508 12.2064C12.2508 11.2557 13.0062 10.8225 13.0568 10.7932C12.5455 10.0768 11.7998 10.0555 11.5832 10.0555C11.023 10.0555 10.5801 10.399 10.2853 10.399C9.98261 10.399 9.57871 10.0768 9.09667 10.0768C8.17343 10.0768 7.25019 10.8322 7.25019 12.2766C7.25019 13.1705 7.58574 14.1133 8.01718 14.7205C8.38027 15.2238 8.69453 15.6553 9.15703 15.6553ZM10.3359 9.99687C10.66 9.99687 11.0914 9.76249 11.3275 9.458C11.5637 9.18105 11.7199 8.8082 11.7199 8.42558C11.7199 8.36699 11.7199 8.31816 11.7021 8.2791C11.3275 8.29687 10.8943 8.52499 10.6111 8.82773C10.3945 9.07363 10.2268 9.458 10.2268 9.83886C10.2268 9.89921 10.2268 9.95781 10.2365 9.96757C10.256 9.9871 10.2853 9.99687 10.3359 9.99687ZM3.20351 21.9271L17.2746 21.9271C19.3824 21.9271 20.4781 20.8394 20.4781 18.7637L20.4781 5.95898C20.4781 3.86718 19.3824 2.7875 17.2746 2.7875L3.20351 2.7875C1.08769 2.7875 0 3.86718 0 5.95898L0 18.7637C0 20.8475 1.08769 21.9271 3.20351 21.9271ZM3.31444 20.0139C2.40643 20.0139 1.91327 19.5455 1.91327 18.5949L1.91327 6.11972C1.91327 5.17089 2.40643 4.70252 3.31444 4.70252L17.1637 4.70252C18.0717 4.70252 18.5648 5.17089 18.5648 6.11972L18.5648 18.5949C18.5648 19.5455 18.0637 20.0139 17.1637 20.0139ZM2.62344 24.9646L6.37245 24.9646C6.8371 24.9646 7.20507 24.5887 7.20507 24.124C7.20507 23.6558 6.8371 23.2799 6.37245 23.2799L2.62344 23.2799C2.1668 23.2799 1.78907 23.6558 1.78907 24.124C1.78907 24.5887 2.1668 24.9646 2.62344 24.9646ZM3.65957 24.1596L5.33456 24.1596L5.33456 20.8861L3.65957 20.8861ZM14.0863 24.9646L17.8353 24.9646C18.3 24.9646 18.668 24.5887 18.668 24.124C18.668 23.6558 18.3 23.2799 17.8353 23.2799L14.0863 23.2799C13.6297 23.2799 13.2537 23.6558 13.2537 24.124C13.2537 24.5887 13.6297 24.9646 14.0863 24.9646ZM15.1225 24.1596L16.7992 24.1596L16.7992 20.8861L15.1225 20.8861ZM3.65957 3.73905L5.33456 3.73905L5.33456 0.834371C5.33456 0.377733 4.9666 0 4.50195 0C4.03555 0 3.65957 0.377733 3.65957 0.834371ZM15.1225 3.73905L16.7992 3.73905L16.7992 0.834371C16.7992 0.377733 16.4312 0 15.9666 0C15.4904 0 15.1225 0.377733 15.1225 0.834371Z" fill="white" fill-opacity="0.25"/>
 </g>
</svg>
