<?xml version="1.0" encoding="UTF-8"?>
<!--Generator: Apple Native CoreSVG 341-->
<!DOCTYPE svg
PUBLIC "-//W3C//DTD SVG 1.1//EN"
       "http://www.w3.org/Graphics/SVG/1.1/DTD/svg11.dtd">
<svg version="1.1" xmlns="http://www.w3.org/2000/svg" xmlns:xlink="http://www.w3.org/1999/xlink" viewBox="0 0 20.9221 23.4523">
 <g>
  <rect height="23.4523" opacity="0" width="20.9221" x="0" y="0"/>
  <path d="M0 21.5826C0 22.7223 0.681248 23.4523 1.75878 23.4523L3.90839 23.4523C4.56014 23.4523 5.03631 23.1074 5.21463 22.5017L5.65799 20.9445L14.9027 20.9445L15.3461 22.5017C15.5244 23.1074 16.0086 23.4523 16.6603 23.4523L18.8019 23.4523C19.8795 23.4523 20.5607 22.7223 20.5607 21.5826L20.5607 1.87421C20.5607 0.736326 19.8795 0.00625014 18.8019 0.00625014L16.6603 0.00625014C16.0086 0.00625014 15.5244 0.35117 15.3461 0.956832L14.9027 2.51406L5.65799 2.51406L5.21463 0.956832C5.03631 0.35117 4.56014 0.00625014 3.90839 0.00625014L1.75878 0.00625014C0.681248 0.00625014 0 0.736326 0 1.87421ZM9.16366 15.2051C8.68613 15.2051 8.35859 14.7603 7.98222 14.2242C7.53749 13.5904 7.18066 12.6211 7.18066 11.6891C7.18066 10.1836 8.14199 9.40156 9.10156 9.40156C9.6164 9.40156 10.0238 9.72734 10.3398 9.72734C10.6461 9.72734 11.1201 9.38027 11.6953 9.38027C11.9234 9.38027 12.6957 9.40156 13.2221 10.1445C13.1732 10.1721 12.3912 10.6283 12.3912 11.6109C12.3912 12.7498 13.3898 13.1439 13.4174 13.1555C13.4076 13.1945 13.2709 13.7191 12.8945 14.2553C12.5687 14.7098 12.2217 15.2051 11.6953 15.2051C11.1805 15.2051 11.034 14.8988 10.4295 14.8988C9.86405 14.8988 9.63769 15.2051 9.16366 15.2051ZM10.3904 9.31366C10.3398 9.31366 10.3088 9.30214 10.291 9.28437C10.2795 9.27284 10.2795 9.21249 10.2795 9.1539C10.2795 8.758 10.4588 8.35234 10.6851 8.10292C10.9736 7.78691 11.4361 7.53925 11.824 7.52949C11.8355 7.56855 11.8355 7.61913 11.8355 7.67773C11.8355 8.07538 11.6678 8.46952 11.4361 8.758C11.1805 9.07402 10.7357 9.31366 10.3904 9.31366Z" fill="white" fill-opacity="0.25"/>
 </g>
</svg>
