<?xml version="1.0" encoding="UTF-8"?>
<!--Generator: Apple Native CoreSVG 341-->
<!DOCTYPE svg
PUBLIC "-//W3C//DTD SVG 1.1//EN"
       "http://www.w3.org/Graphics/SVG/1.1/DTD/svg11.dtd">
<svg version="1.1" xmlns="http://www.w3.org/2000/svg" xmlns:xlink="http://www.w3.org/1999/xlink" viewBox="0 0 20.9221 23.4523">
 <g>
  <rect height="23.4523" opacity="0" width="20.9221" x="0" y="0"/>
  <path d="M9.20976 15.0545C9.66073 15.0545 9.87734 14.7615 10.4277 14.7615C11.0074 14.7615 11.1441 15.0545 11.6439 15.0545C12.1473 15.0545 12.481 14.576 12.7953 14.1428C13.1584 13.6314 13.2853 13.1201 13.2951 13.0828C13.2658 13.0713 12.3133 12.6984 12.3133 11.5994C12.3133 10.6549 13.0607 10.2217 13.1096 10.1941C12.5982 9.47597 11.8605 9.45644 11.6439 9.45644C11.0855 9.45644 10.6346 9.79198 10.3398 9.79198C10.0353 9.79198 9.6412 9.47597 9.15116 9.47597C8.22792 9.47597 7.30468 10.2332 7.30468 11.6758C7.30468 12.5715 7.64823 13.5045 8.06991 14.1135C8.433 14.6248 8.74902 15.0545 9.20976 15.0545ZM10.3887 9.38808C10.7207 9.38808 11.1441 9.16171 11.39 8.85722C11.6164 8.58202 11.7726 8.19941 11.7726 7.82655C11.7726 7.7662 11.7726 7.71738 11.7629 7.68007C11.39 7.68984 10.9488 7.92421 10.6719 8.2287C10.4553 8.47284 10.2795 8.85722 10.2795 9.23984C10.2795 9.29843 10.2795 9.35878 10.291 9.36855C10.3088 9.38632 10.3398 9.38808 10.3887 9.38808ZM2.13788 23.4523L3.5996 23.4523C4.47147 23.4523 5.0576 23.0303 5.28475 22.224L5.65799 20.9445L14.9027 20.9445L15.276 22.224C15.5031 23.0303 16.0973 23.4523 16.9691 23.4523L18.4309 23.4523C19.8006 23.4523 20.5607 22.6496 20.5607 21.2115L20.5607 2.24706C20.5607 0.808982 19.8006 0.00625014 18.4309 0.00625014L16.9691 0.00625014C16.0973 0.00625014 15.5031 0.426561 15.276 1.23457L14.9027 2.51406L5.65799 2.51406L5.28475 1.23457C5.0576 0.426561 4.47147 0.00625014 3.5996 0.00625014L2.13788 0.00625014C0.768161 0.00625014 0 0.808982 0 2.24706L0 21.2115C0 22.6496 0.768161 23.4523 2.13788 23.4523ZM2.35155 21.5391C2.07772 21.5391 1.91327 21.3684 1.91327 21.091L1.91327 2.36757C1.91327 2.08846 2.07772 1.91952 2.35155 1.91952L3.29042 1.91952C3.45917 1.91952 3.59609 2.02167 3.64941 2.18964L4.07851 3.68456C4.22128 4.18007 4.53749 4.42733 5.12538 4.42733L15.4434 4.42733C16.0232 4.42733 16.3394 4.18007 16.4822 3.68456L16.9113 2.18964C16.9646 2.02167 17.1016 1.91952 17.2703 1.91952L18.2092 1.91952C18.483 1.91952 18.6475 2.08846 18.6475 2.36757L18.6475 21.091C18.6475 21.3684 18.483 21.5391 18.2092 21.5391L17.2703 21.5391C17.1016 21.5391 16.9646 21.4369 16.9113 21.2689L16.4822 19.766C16.3394 19.2785 16.0232 19.0312 15.4434 19.0312L5.12538 19.0312C4.53749 19.0312 4.22128 19.2785 4.07851 19.766L3.64941 21.2689C3.59609 21.4369 3.45917 21.5391 3.29042 21.5391Z" fill="white" fill-opacity="0.25"/>
 </g>
</svg>
