<?xml version="1.0" encoding="UTF-8"?>
<!--Generator: Apple Native CoreSVG 341-->
<!DOCTYPE svg
PUBLIC "-//W3C//DTD SVG 1.1//EN"
       "http://www.w3.org/Graphics/SVG/1.1/DTD/svg11.dtd">
<svg version="1.1" xmlns="http://www.w3.org/2000/svg" xmlns:xlink="http://www.w3.org/1999/xlink" viewBox="0 0 14.8506 23.6094">
 <g>
  <rect height="23.6094" opacity="0" width="14.8506" x="0" y="0"/>
  <path d="M0 18.9441C0 21.875 2.69121 23.6094 7.24374 23.6094C11.7963 23.6094 14.4892 21.875 14.4892 18.9441L14.4892 5.05818C14.4892 3.92186 14.123 2.96697 13.4922 2.2908C13.1178 1.8037 12.6062 1.70605 12.2035 2.1121C11.6043 3.12968 9.55195 3.7455 7.24374 3.7455C4.9373 3.7455 2.87694 3.12968 2.27773 2.1121C1.875 1.70605 1.36348 1.8037 0.997074 2.2908C0.366213 2.96697 0 3.92186 0 5.05818ZM7.24374 2.57226C9.51601 2.57226 11.3596 2.00156 11.3596 1.28789C11.3596 0.588476 9.51601 0.0115234 7.24374 0.0115234C4.97324 0.0115234 3.12968 0.588476 3.12968 1.28789C3.12968 2.00156 4.97324 2.57226 7.24374 2.57226Z" fill="white" fill-opacity="0.25"/>
 </g>
</svg>
