<?xml version="1.0" encoding="UTF-8"?>
<!--Generator: Apple Native CoreSVG 341-->
<!DOCTYPE svg
PUBLIC "-//W3C//DTD SVG 1.1//EN"
       "http://www.w3.org/Graphics/SVG/1.1/DTD/svg11.dtd">
<svg version="1.1" xmlns="http://www.w3.org/2000/svg" xmlns:xlink="http://www.w3.org/1999/xlink" viewBox="0 0 24.6447 13.7652">
 <g>
  <rect height="13.7652" opacity="0" width="24.6447" x="0" y="0"/>
  <path d="M3.20351 13.656L21.0799 13.656C23.1877 13.656 24.2834 12.5701 24.2834 10.4845L24.2834 3.17148C24.2834 1.08769 23.1877 0 21.0799 0L3.20351 0C1.08769 0 0 1.07968 0 3.17148L0 10.4845C0 12.5781 1.08769 13.656 3.20351 13.656ZM3.31444 11.7428C2.40643 11.7428 1.91327 11.2664 1.91327 10.3256L1.91327 3.33222C1.91327 2.38163 2.40643 1.91327 3.31444 1.91327L20.9689 1.91327C21.8689 1.91327 22.3701 2.38163 22.3701 3.33222L22.3701 10.3256C22.3701 11.2664 21.8689 11.7428 20.9689 11.7428ZM4.12538 10.2683C4.52186 10.2568 4.83319 9.9455 4.83319 9.56679L4.83319 8.05428C4.83319 7.6578 4.51385 7.34647 4.12538 7.35624C3.73866 7.34647 3.42557 7.6578 3.42557 8.05428L3.42557 9.55702C3.42557 9.9535 3.72889 10.2568 4.12538 10.2683ZM6.55897 10.2683C6.95721 10.2568 7.25877 9.9455 7.25877 9.56679L7.25877 8.05428C7.25877 7.6578 6.94744 7.34647 6.55897 7.35624C6.17225 7.34647 5.85116 7.6578 5.85116 8.05428L5.85116 9.55702C5.85116 9.9535 6.16248 10.2568 6.55897 10.2683ZM9.13475 9.51522L12.9598 9.51522C13.3465 9.51522 13.6676 9.19413 13.6676 8.80741C13.6676 8.42069 13.3465 8.10761 12.9598 8.10761L9.13475 8.10761C8.74803 8.10761 8.42694 8.42069 8.42694 8.80741C8.42694 9.19413 8.74803 9.51522 9.13475 9.51522ZM19.7701 10.0002C20.3967 9.99042 20.9354 9.45175 20.9354 8.81718C20.9354 8.16932 20.3967 7.62265 19.7684 7.62265C19.1205 7.62265 18.5756 8.16932 18.5756 8.81718C18.5756 9.45526 19.1223 10.0099 19.7701 10.0002Z" fill="white" fill-opacity="0.25"/>
 </g>
</svg>
