<?xml version="1.0" encoding="UTF-8"?>
<!--Generator: Apple Native CoreSVG 341-->
<!DOCTYPE svg
PUBLIC "-//W3C//DTD SVG 1.1//EN"
       "http://www.w3.org/Graphics/SVG/1.1/DTD/svg11.dtd">
<svg version="1.1" xmlns="http://www.w3.org/2000/svg" xmlns:xlink="http://www.w3.org/1999/xlink" viewBox="0 0 24.6447 13.7652">
 <g>
  <rect height="13.7652" opacity="0" width="24.6447" x="0" y="0"/>
  <path d="M3.20351 13.656L21.0799 13.656C23.1877 13.656 24.2834 12.5701 24.2834 10.4845L24.2834 3.17148C24.2834 1.08769 23.1877 0 21.0799 0L3.20351 0C1.08769 0 0 1.07968 0 3.17148L0 10.4845C0 12.5781 1.08769 13.656 3.20351 13.656ZM3.75546 10.4543C3.33417 10.4445 3.01757 10.1262 3.01757 9.70487L3.01757 8.15428C3.01757 7.73123 3.34394 7.40663 3.75546 7.41639C4.16073 7.40663 4.49335 7.73123 4.49335 8.15428L4.49335 9.71463C4.49335 10.1181 4.1705 10.4445 3.75546 10.4543ZM6.31288 10.4543C5.89159 10.4445 5.56522 10.1262 5.56522 9.70487L5.56522 8.15428C5.56522 7.73123 5.90135 7.40663 6.31288 7.41639C6.71815 7.40663 7.04451 7.73123 7.04451 8.15428L7.04451 9.71463C7.04451 10.1181 6.72616 10.4445 6.31288 10.4543ZM9.01424 9.6701C8.61072 9.6701 8.27459 9.33397 8.27459 8.93045C8.27459 8.52694 8.61072 8.19881 9.01424 8.19881L12.9873 8.19881C13.389 8.19881 13.7252 8.52694 13.7252 8.93045C13.7252 9.33397 13.389 9.6701 12.9873 9.6701ZM20.1074 10.1746C19.433 10.1844 18.8598 9.60486 18.8598 8.94022C18.8598 8.2658 19.4312 7.69432 20.1039 7.69432C20.7605 7.69432 21.3223 8.2658 21.3223 8.94022C21.3223 9.60311 20.7605 10.1648 20.1074 10.1746Z" fill="white" fill-opacity="0.25"/>
 </g>
</svg>
