<?xml version="1.0" encoding="UTF-8"?>
<!--Generator: Apple Native CoreSVG 341-->
<!DOCTYPE svg
PUBLIC "-//W3C//DTD SVG 1.1//EN"
       "http://www.w3.org/Graphics/SVG/1.1/DTD/svg11.dtd">
<svg version="1.1" xmlns="http://www.w3.org/2000/svg" xmlns:xlink="http://www.w3.org/1999/xlink" viewBox="0 0 12.8718 22.7254">
 <g>
  <rect height="22.7254" opacity="0" width="12.8718" x="0" y="0"/>
  <path d="M6.25522 22.7076C9.82943 22.7076 11.9363 20.9738 12.247 17.4943C12.6048 13.3932 12.5968 9.44608 12.231 5.05761C11.9443 1.74179 9.82943 0 6.25522 0C2.681 0 0.566164 1.74179 0.279445 5.05761C-0.0863754 9.44608-0.0943833 13.3932 0.263429 17.4943C0.574172 20.9738 2.681 22.7076 6.25522 22.7076ZM6.24897 18.5215C5.94272 18.5215 5.83529 18.6812 5.58764 18.6812C5.33998 18.6812 5.18022 18.4549 4.98315 18.1762C4.74526 17.8424 4.56596 17.3453 4.56596 16.8713C4.56596 16.099 5.07104 15.7031 5.56459 15.7031C5.80424 15.7031 5.99154 15.8611 6.20014 15.8611C6.40873 15.8611 6.58627 15.7031 6.90229 15.7031C7.01147 15.7031 7.41713 15.7031 7.67455 16.0697C7.65502 16.0892 7.26088 16.3156 7.26088 16.8305C7.26088 17.4074 7.7642 17.6045 7.77572 17.624C7.77572 17.6338 7.70385 17.9107 7.50678 18.1877C7.33725 18.4336 7.15971 18.6812 6.90229 18.6812C6.6351 18.6812 6.55697 18.5215 6.24897 18.5215ZM6.16108 15.6445C6.16108 15.1084 6.54721 14.7142 6.95111 14.7142C7.031 15.1572 6.6351 15.664 6.16108 15.6445Z" fill="white" fill-opacity="0.25"/>
 </g>
</svg>
