<?xml version="1.0" encoding="UTF-8"?>
<!--Generator: Apple Native CoreSVG 341-->
<!DOCTYPE svg
PUBLIC "-//W3C//DTD SVG 1.1//EN"
       "http://www.w3.org/Graphics/SVG/1.1/DTD/svg11.dtd">
<svg version="1.1" xmlns="http://www.w3.org/2000/svg" xmlns:xlink="http://www.w3.org/1999/xlink" viewBox="0 0 12.8718 22.7254">
 <g>
  <rect height="22.7254" opacity="0" width="12.8718" x="0" y="0"/>
  <path d="M6.25522 22.7076C9.82943 22.7076 11.9363 20.9738 12.247 17.4943C12.6048 13.3932 12.5968 9.44608 12.231 5.05761C11.9443 1.74179 9.82943 0 6.25522 0C2.681 0 0.566164 1.74179 0.279445 5.05761C-0.0863754 9.44608-0.0943833 13.3932 0.263429 17.4943C0.574172 20.9738 2.681 22.7076 6.25522 22.7076ZM6.25522 20.8031C3.8099 20.8031 2.37045 19.7607 2.16791 17.4943C1.8181 13.3851 1.82611 9.43631 2.18568 5.05761C2.36244 2.94686 3.8099 1.90448 6.25522 1.90448C8.70229 1.90448 10.148 2.94686 10.3265 5.05761C10.6843 9.43631 10.6941 13.3851 10.3425 17.4943C10.14 19.7607 8.70229 20.8031 6.25522 20.8031ZM6.25522 18.4293C6.55971 18.4293 6.6183 18.5775 6.86596 18.5775C7.12787 18.5775 7.29389 18.3414 7.4519 18.115C7.63744 17.8514 7.70756 17.5957 7.70756 17.5859C7.69779 17.5762 7.20775 17.3808 7.20775 16.8224C7.20775 16.3324 7.58861 16.1256 7.61791 16.098C7.37201 15.7465 6.97963 15.7465 6.86596 15.7465C6.58725 15.7465 6.36264 15.901 6.21615 15.901C6.05365 15.901 5.84506 15.7465 5.59916 15.7465C5.13842 15.7465 4.65815 16.1371 4.65815 16.8615C4.65815 17.3303 4.83393 17.7928 5.05053 18.0973C5.23783 18.3707 5.40385 18.5775 5.63822 18.5775C5.8726 18.5775 5.97201 18.4293 6.25522 18.4293ZM6.92279 14.8232C6.54994 14.8232 6.17709 15.1943 6.17709 15.6959C6.6183 15.7234 7.00092 15.2334 6.92279 14.8232Z" fill="white" fill-opacity="0.25"/>
 </g>
</svg>
