<?xml version="1.0" encoding="UTF-8"?>
<!--Generator: Apple Native CoreSVG 341-->
<!DOCTYPE svg
PUBLIC "-//W3C//DTD SVG 1.1//EN"
       "http://www.w3.org/Graphics/SVG/1.1/DTD/svg11.dtd">
<svg version="1.1" xmlns="http://www.w3.org/2000/svg" xmlns:xlink="http://www.w3.org/1999/xlink" viewBox="0 0 14.6451 20.425">
 <g>
  <rect height="20.425" opacity="0" width="14.6451" x="0" y="0"/>
  <path d="M2.85722 20.4152L11.4705 20.4152C13.1611 20.4152 14.2838 19.3221 14.2838 17.6975L14.2838 2.71601C14.2838 1.08515 13.1611 0 11.4705 0L2.85722 0C1.14199 0 0 1.08515 0 2.71425L0 17.6992C0 19.3221 1.14199 20.4152 2.85722 20.4152ZM7.15077 16.9027C6.76581 16.9027 6.44472 16.5896 6.44472 16.2047L6.44472 14.3525C6.44472 13.9676 6.76581 13.6545 7.15077 13.6545C7.53573 13.6545 7.84882 13.9676 7.84882 14.3525L7.84882 16.2047C7.84882 16.5896 7.53573 16.9027 7.15077 16.9027ZM7.15253 12.0941C4.25058 12.0941 1.89726 9.73281 1.89726 6.83886C1.89726 3.94492 4.25058 1.5916 7.15253 1.5916C10.0385 1.5916 12.3998 3.94492 12.3998 6.83886C12.3998 9.73281 10.0385 12.0941 7.15253 12.0941ZM7.15253 10.7353C9.29433 10.7353 11.041 8.98867 11.041 6.83886C11.041 4.69081 9.29433 2.95038 7.15253 2.95038C4.99472 2.95038 3.25604 4.69081 3.25604 6.83886C3.25604 8.98867 4.99472 10.7353 7.15253 10.7353Z" fill="white" fill-opacity="0.25"/>
 </g>
</svg>
