<?xml version="1.0" encoding="UTF-8"?>
<!--Generator: Apple Native CoreSVG 341-->
<!DOCTYPE svg
PUBLIC "-//W3C//DTD SVG 1.1//EN"
       "http://www.w3.org/Graphics/SVG/1.1/DTD/svg11.dtd">
<svg version="1.1" xmlns="http://www.w3.org/2000/svg" xmlns:xlink="http://www.w3.org/1999/xlink" viewBox="0 0 14.6451 20.425">
 <g>
  <rect height="20.425" opacity="0" width="14.6451" x="0" y="0"/>
  <path d="M2.85722 20.4152L11.4705 20.4152C13.1611 20.4152 14.2838 19.3221 14.2838 17.6975L14.2838 2.71601C14.2838 1.08515 13.1611 0 11.4705 0L2.85722 0C1.14199 0 0 1.08515 0 2.71425L0 17.6992C0 19.3221 1.14199 20.4152 2.85722 20.4152ZM3.17733 18.4475C2.41249 18.4475 1.91327 17.9793 1.91327 17.259L1.91327 3.15624C1.91327 2.43592 2.41249 1.96776 3.17733 1.96776L11.1082 1.96776C11.873 1.96776 12.3705 2.43944 12.3705 3.15799L12.3705 17.2572C12.3705 17.9758 11.873 18.4475 11.1082 18.4475Z" fill="white" fill-opacity="0.25"/>
  <path d="M7.15077 16.4389C7.5287 16.4389 7.83651 16.123 7.83651 15.7451L7.83651 13.9291C7.83651 13.5494 7.5287 13.2353 7.15077 13.2353C6.77109 13.2353 6.45702 13.5494 6.45702 13.9291L6.45702 15.7451C6.45702 16.123 6.77109 16.4389 7.15077 16.4389ZM7.15253 11.7018C9.56952 11.7018 11.5443 9.73495 11.5443 7.30819C11.5443 4.87518 9.56952 2.90663 7.15253 2.90663C4.71776 2.90663 2.75096 4.87518 2.75096 7.30819C2.75096 9.73495 4.71776 11.7018 7.15253 11.7018ZM7.15253 10.3447C5.46366 10.3447 4.10799 8.98906 4.10799 7.30819C4.10799 5.61932 5.46366 4.26541 7.15253 4.26541C8.82363 4.26541 10.1873 5.62733 10.1873 7.30819C10.1873 8.98906 8.82363 10.3447 7.15253 10.3447Z" fill="white" fill-opacity="0.25"/>
 </g>
</svg>
