<?xml version="1.0" encoding="UTF-8"?>
<!--Generator: Apple Native CoreSVG 341-->
<!DOCTYPE svg
PUBLIC "-//W3C//DTD SVG 1.1//EN"
       "http://www.w3.org/Graphics/SVG/1.1/DTD/svg11.dtd">
<svg version="1.1" xmlns="http://www.w3.org/2000/svg" xmlns:xlink="http://www.w3.org/1999/xlink" viewBox="0 0 20.5381 20.1848">
 <g>
  <rect height="20.1848" opacity="0" width="20.5381" x="0" y="0"/>
  <path d="M20.1767 10.0973C20.1767 15.6656 15.6576 20.1848 10.0875 20.1848C4.52715 20.1848 0 15.6656 0 10.0973C0 4.53691 4.52715 0.00976562 10.0875 0.00976562C15.6576 0.00976562 20.1767 4.53691 20.1767 10.0973ZM4.6248 10.0973C4.6248 12.0062 5.66288 12.5186 5.66288 13.3508C5.66288 13.6998 5.55273 13.9494 5.26054 14.1963C5.04316 14.4102 5.16562 14.6541 5.49569 14.6541C6.13769 14.6541 6.80194 14.448 7.28144 14.091C8.09843 14.4641 9.04062 14.6541 10.0777 14.6541C13.2371 14.6541 15.5404 12.7406 15.5404 10.0973C15.5404 7.4539 13.2336 5.55194 10.0777 5.55194C6.92988 5.55194 4.6248 7.4539 4.6248 10.0973Z" fill="white" fill-opacity="0.25"/>
 </g>
</svg>
