<?xml version="1.0" encoding="UTF-8"?>
<!--Generator: Apple Native CoreSVG 341-->
<!DOCTYPE svg
PUBLIC "-//W3C//DTD SVG 1.1//EN"
       "http://www.w3.org/Graphics/SVG/1.1/DTD/svg11.dtd">
<svg version="1.1" xmlns="http://www.w3.org/2000/svg" xmlns:xlink="http://www.w3.org/1999/xlink" viewBox="0 0 20.5381 20.1848">
 <g>
  <rect height="20.1848" opacity="0" width="20.5381" x="0" y="0"/>
  <path d="M10.0875 20.175C15.6576 20.175 20.1767 15.6559 20.1767 10.0875C20.1767 4.51914 15.6576 0 10.0875 0C4.51914 0 0 4.51914 0 10.0875C0 15.6559 4.51914 20.175 10.0875 20.175ZM10.0875 18.1879C5.60839 18.1879 1.9871 14.5666 1.9871 10.0875C1.9871 5.60839 5.60839 1.9871 10.0875 1.9871C14.5666 1.9871 18.1897 5.60839 18.1897 10.0875C18.1897 14.5666 14.5666 18.1879 10.0875 18.1879Z" fill="white" fill-opacity="0.25"/>
  <path d="M10.0697 14.4777C13.1121 14.4777 15.3313 12.6271 15.3313 10.0875C15.3313 7.53984 13.1086 5.70702 10.0697 5.70702C7.03886 5.70702 4.81796 7.53984 4.81796 10.0875C4.81796 11.9238 5.81796 12.4148 5.81796 13.2143C5.81796 13.5598 5.70956 13.7916 5.4289 14.0332C5.22479 14.2391 5.33573 14.4777 5.65429 14.4777C6.26972 14.4777 6.91269 14.2654 7.3789 13.9279C8.16132 14.2895 9.0707 14.4777 10.0697 14.4777Z" fill="white" fill-opacity="0.25"/>
 </g>
</svg>
