<?xml version="1.0" encoding="UTF-8"?>
<!--Generator: Apple Native CoreSVG 341-->
<!DOCTYPE svg
PUBLIC "-//W3C//DTD SVG 1.1//EN"
       "http://www.w3.org/Graphics/SVG/1.1/DTD/svg11.dtd">
<svg version="1.1" xmlns="http://www.w3.org/2000/svg" xmlns:xlink="http://www.w3.org/1999/xlink" viewBox="0 0 24.2209 16.9082">
 <g>
  <rect height="16.9082" opacity="0" width="24.2209" x="0" y="0"/>
  <path d="M11.9271 16.8967C18.3191 16.8967 23.8596 12.3637 23.8596 8.44922C23.8596 4.53477 18.3191 0 11.9271 0C5.54492 0 0 4.53477 0 8.44922C0 12.3637 5.54492 16.8967 11.9271 16.8967ZM11.9271 15.1184C6.07245 15.1184 1.78807 11.0631 1.78807 8.44922C1.78807 5.82734 6.07245 1.77831 11.9271 1.77831C17.7836 1.77831 22.0893 5.82734 22.0893 8.44922C22.0893 11.0631 17.7836 15.1184 11.9271 15.1184Z" fill="white" fill-opacity="0.25"/>
  <path d="M11.9271 14.0518C15.6477 14.0518 17.4098 10.6963 17.4178 9.43691C17.4178 9.14394 17.1736 8.88379 16.8727 8.88379C16.6108 8.88379 16.3621 9.0748 16.3098 9.32949C15.8994 11.4018 14.0998 12.926 11.9271 12.926C11.0078 12.926 10.1551 12.6826 9.42851 12.1914C9.3246 12.1311 9.2332 12.1035 9.11952 12.1035C8.79726 12.1035 8.57441 12.3592 8.57441 12.6682C8.57441 12.8422 8.65253 13.0162 8.81679 13.1236C9.69785 13.724 10.777 14.0518 11.9271 14.0518ZM6.31483 8.44922C6.31483 9.59141 6.64433 10.6607 7.23593 11.5375C7.35038 11.7141 7.52616 11.7939 7.69843 11.7939C7.96659 11.7939 8.26835 11.5986 8.26835 11.2408C8.26835 11.1156 8.2373 11.0082 8.16718 10.907C7.68573 10.2195 7.44237 9.36855 7.44237 8.44922C7.44237 7.52812 7.69374 6.68691 8.16718 5.97987C8.23554 5.88222 8.26308 5.75878 8.26308 5.65136C8.26308 5.32909 8.01093 5.09648 7.69843 5.09648C7.53417 5.09648 7.35839 5.17636 7.24472 5.3371C6.64433 6.23769 6.31483 7.29726 6.31483 8.44922ZM11.9271 2.83866C10.777 2.83866 9.69785 3.1744 8.81679 3.77479C8.64452 3.88222 8.57441 4.05624 8.57441 4.23026C8.57441 4.55077 8.81054 4.81268 9.13378 4.81268C9.24472 4.81268 9.35038 4.77538 9.45605 4.70702C10.1631 4.23358 11.0176 3.96444 11.9271 3.96444C14.0998 3.96444 15.8914 5.49667 16.3178 7.56718C16.3701 7.82363 16.6108 8.01289 16.8727 8.01289C17.1816 8.01289 17.4258 7.75898 17.4258 7.46152C17.4018 6.17812 15.6316 2.83866 11.9271 2.83866Z" fill="white" fill-opacity="0.25"/>
  <path d="M11.9271 12.0453C12.818 12.0453 13.6182 11.7141 14.2213 11.2051C14.3828 11.0666 14.4574 10.9068 14.4574 10.7426C14.4574 10.4336 14.2025 10.1877 13.8963 10.1877C13.7596 10.1877 13.6229 10.2338 13.5252 10.3377C13.1344 10.7055 12.5818 10.9195 11.9725 10.9195C10.5201 10.9195 9.44706 9.78164 9.44706 8.43945C9.44706 7.35839 10.1328 6.46034 11.1037 6.11034C11.3248 6.04198 11.4828 5.81112 11.4828 5.60253C11.4828 5.27226 11.2209 5.03163 10.9199 5.03163C10.0611 5.03163 8.32128 6.47929 8.32128 8.46875C8.32128 10.4369 9.90039 12.0453 11.9271 12.0453ZM15.5055 8.44922C15.5055 6.44023 13.7736 5.03163 12.9361 5.03163C12.6254 5.03163 12.3635 5.27226 12.3635 5.60253C12.3635 5.81112 12.5215 6.04198 12.7391 6.11034C13.7037 6.46034 14.394 7.35839 14.394 8.44922C14.394 8.59843 14.3389 8.8791 14.3389 8.98926C14.3309 9.37812 14.5928 9.56367 14.908 9.56367C15.2693 9.56367 15.4141 9.3373 15.4744 9.05937C15.5055 8.88711 15.5055 8.65527 15.5055 8.44922Z" fill="white" fill-opacity="0.25"/>
  <path d="M11.9191 10.0193C12.7895 10.0193 13.491 9.31953 13.491 8.44922C13.491 7.5789 12.7895 6.87734 11.9191 6.87734C11.0488 6.87734 10.349 7.5789 10.349 8.44922C10.349 9.31953 11.0488 10.0193 11.9191 10.0193Z" fill="white" fill-opacity="0.25"/>
 </g>
</svg>
