<?xml version="1.0" encoding="UTF-8"?>
<!--Generator: Apple Native CoreSVG 341-->
<!DOCTYPE svg
PUBLIC "-//W3C//DTD SVG 1.1//EN"
       "http://www.w3.org/Graphics/SVG/1.1/DTD/svg11.dtd">
<svg version="1.1" xmlns="http://www.w3.org/2000/svg" xmlns:xlink="http://www.w3.org/1999/xlink" viewBox="0 0 24.2209 16.9082">
 <g>
  <rect height="16.9082" opacity="0" width="24.2209" x="0" y="0"/>
  <path d="M23.8596 8.44922C23.8596 12.3637 18.3191 16.8967 11.9271 16.8967C5.54492 16.8967 0 12.3637 0 8.44922C0 4.53477 5.54492 0 11.9271 0C18.3191 0 23.8596 4.53477 23.8596 8.44922ZM16.4791 9.3623C16.0475 11.5117 14.1805 13.0936 11.9271 13.0936C10.975 13.0936 10.0894 12.8387 9.33808 12.3262C9.23417 12.2676 9.133 12.2383 9.01757 12.2383C8.68378 12.2383 8.44941 12.5037 8.44941 12.826C8.44941 13.0098 8.52753 13.1856 8.70156 13.3045C9.61894 13.9279 10.7309 14.2654 11.9271 14.2654C15.7922 14.2654 17.6234 10.7867 17.6315 9.47148C17.6315 9.16699 17.3775 8.89531 17.0633 8.89531C16.7899 8.89531 16.5297 9.09434 16.4791 9.3623ZM8.18652 8.46875C8.18652 10.5158 9.82324 12.1818 11.9271 12.1818C12.8525 12.1818 13.6855 11.8391 14.31 11.3105C14.483 11.1686 14.5611 10.9973 14.5611 10.8313C14.5611 10.5125 14.293 10.2533 13.9752 10.2533C13.827 10.2533 13.6885 10.2994 13.5828 10.4051C13.1805 10.7844 12.6049 11.01 11.9725 11.01C10.4758 11.01 9.35839 9.82598 9.35839 8.43945C9.35839 7.31406 10.0672 6.38495 11.0789 6.02167C11.3035 5.95331 11.4713 5.71093 11.4713 5.49081C11.4713 5.14902 11.1978 4.89511 10.8853 4.89511C9.99375 4.89511 8.18652 6.40038 8.18652 8.46875ZM7.06386 5.21386C6.44218 6.14902 6.10292 7.25293 6.10292 8.44922C6.10292 9.6375 6.44218 10.7477 7.05507 11.659C7.18105 11.8391 7.35859 11.9189 7.54062 11.9189C7.82206 11.9189 8.13359 11.7219 8.13359 11.3428C8.13359 11.2176 8.10429 11.1084 8.03241 10.9975C7.52968 10.2852 7.27655 9.40137 7.27655 8.44922C7.27655 7.49531 7.53769 6.62128 8.03241 5.88945C8.10077 5.78202 8.13007 5.65859 8.13007 5.54765C8.13007 5.20585 7.8664 4.97148 7.54062 4.97148C7.36659 4.97148 7.18905 5.05136 7.06386 5.21386ZM10.2914 8.44922C10.2914 9.3541 11.016 10.0787 11.9191 10.0787C12.824 10.0787 13.5584 9.3541 13.5584 8.44922C13.5584 7.54433 12.824 6.81796 11.9191 6.81796C11.016 6.81796 10.2914 7.54433 10.2914 8.44922ZM12.375 5.49081C12.375 5.71093 12.5428 5.95331 12.7719 6.02167C13.7729 6.38495 14.4764 7.31406 14.4764 8.44922C14.4764 8.60019 14.4293 8.89238 14.4293 9.0123C14.4213 9.41445 14.693 9.60801 15.0197 9.60801C15.4023 9.60801 15.5506 9.37187 15.6109 9.08242C15.642 8.90039 15.642 8.66504 15.642 8.44922C15.642 6.36132 13.8428 4.89511 12.9787 4.89511C12.6484 4.89511 12.375 5.14902 12.375 5.49081ZM8.70156 3.59394C8.51953 3.71288 8.44941 3.88866 8.44941 4.07245C8.44941 4.40624 8.69531 4.67968 9.03183 4.67968C9.14453 4.67968 9.26796 4.63886 9.36738 4.57226C10.0975 4.07753 10.9848 3.79686 11.9271 3.79686C14.1805 3.79686 16.0395 5.38671 16.4871 7.53437C16.5377 7.80234 16.7899 8.00312 17.0633 8.00312C17.3856 8.00312 17.6395 7.73769 17.6395 7.42695C17.6154 6.08769 15.7762 2.62323 11.9271 2.62323C10.7309 2.62323 9.61894 2.9705 8.70156 3.59394Z" fill="white" fill-opacity="0.25"/>
 </g>
</svg>
