<?xml version="1.0" encoding="UTF-8"?>
<!--Generator: Apple Native CoreSVG 341-->
<!DOCTYPE svg
PUBLIC "-//W3C//DTD SVG 1.1//EN"
       "http://www.w3.org/Graphics/SVG/1.1/DTD/svg11.dtd">
<svg version="1.1" xmlns="http://www.w3.org/2000/svg" xmlns:xlink="http://www.w3.org/1999/xlink" viewBox="0 0 13.1016 18.5422">
 <g>
  <rect height="18.5422" opacity="0" width="13.1016" x="0" y="0"/>
  <path d="M0.918677 18.5404C1.47082 18.5404 1.73586 18.2523 1.83156 17.7887L3.81437 8.07148L2.61282 8.94511L10.1054 8.94511L8.90559 8.07148L10.8989 17.7887C10.9982 18.2523 11.2597 18.5404 11.8136 18.5404C12.5751 18.5404 12.8454 17.991 12.7064 17.3635L10.8327 8.28281C10.6892 7.59726 10.1154 7.08301 9.44406 7.08301L3.28215 7.08301C2.61262 7.08301 2.03704 7.59726 1.897 8.28105L0.0339165 17.3635C-0.103387 17.991 0.173174 18.5404 0.918677 18.5404ZM2.90735 8.04453L9.82062 8.04453L7.28176 0.677928C7.12648 0.248437 6.82492 0 6.37512 0C5.90578 0 5.58547 0.248437 5.43821 0.677928Z" fill="white" fill-opacity="0.25"/>
 </g>
</svg>
