<?xml version="1.0" encoding="UTF-8"?>
<!--Generator: Apple Native CoreSVG 341-->
<!DOCTYPE svg
PUBLIC "-//W3C//DTD SVG 1.1//EN"
       "http://www.w3.org/Graphics/SVG/1.1/DTD/svg11.dtd">
<svg version="1.1" xmlns="http://www.w3.org/2000/svg" xmlns:xlink="http://www.w3.org/1999/xlink" viewBox="0 0 20.5381 20.1848">
 <g>
  <rect height="20.1848" opacity="0" width="20.5381" x="0" y="0"/>
  <path d="M20.1767 10.0875C20.1767 15.6559 15.6576 20.175 10.0875 20.175C4.51914 20.175 0 15.6559 0 10.0875C0 4.51914 4.51914 0 10.0875 0C15.6576 0 20.1767 4.51914 20.1767 10.0875ZM1.9871 10.0875C1.9871 12.8602 3.37482 15.3043 5.49668 16.7615L5.33614 17.4711C5.24493 17.8621 5.52676 18.2574 5.91328 18.3266C6.31308 18.4037 6.69257 18.1635 6.78203 17.7672L6.84036 17.5079C7.83249 17.9467 8.93142 18.1879 10.0875 18.1879C11.2476 18.1879 12.3502 17.945 13.3451 17.503L13.4045 17.7672C13.4807 18.1139 13.8392 18.3654 14.1834 18.3346C14.5326 18.3064 14.9496 17.9102 14.8504 17.4711L14.688 16.7546C16.8054 15.297 18.1897 12.8561 18.1897 10.0875C18.1897 5.60839 14.5666 1.9871 10.0875 1.9871C5.60839 1.9871 1.9871 5.60839 1.9871 10.0875Z" fill="white" fill-opacity="0.25"/>
  <path d="M9.40175 5.6539L7.4877 11.2291L12.7068 11.2291L10.7848 5.6539C10.5506 4.98222 9.63593 4.98222 9.40175 5.6539ZM14.1834 18.3346C14.5326 18.3064 14.9496 17.9102 14.8504 17.4711L13.4668 11.365C13.3445 10.8258 12.9187 10.4268 12.3937 10.4268L7.79277 10.4268C7.27754 10.4268 6.84023 10.8258 6.71973 11.3553L5.33614 17.4711C5.24493 17.8621 5.52676 18.2574 5.91328 18.3266C6.31308 18.4037 6.69257 18.1635 6.78203 17.7672L8.16542 11.618L7.76426 11.8535L12.4303 11.8535L12.0211 11.618L13.4045 17.7672C13.4807 18.1139 13.8392 18.3654 14.1834 18.3346Z" fill="white" fill-opacity="0.25"/>
 </g>
</svg>
