<?xml version="1.0" encoding="UTF-8"?>
<!--Generator: Apple Native CoreSVG 341-->
<!DOCTYPE svg
PUBLIC "-//W3C//DTD SVG 1.1//EN"
       "http://www.w3.org/Graphics/SVG/1.1/DTD/svg11.dtd">
<svg version="1.1" xmlns="http://www.w3.org/2000/svg" xmlns:xlink="http://www.w3.org/1999/xlink" viewBox="0 0 20.5381 20.1848">
 <g>
  <rect height="20.1848" opacity="0" width="20.5381" x="0" y="0"/>
  <path d="M20.1767 10.0875C20.1767 15.6478 15.6576 20.175 10.0875 20.175C4.52715 20.175 0 15.6478 0 10.0875C0 4.51914 4.52715 0 10.0875 0C15.6576 0 20.1767 4.51914 20.1767 10.0875ZM9.40175 5.6539L7.77363 10.4285L7.71757 10.4285C7.23418 10.4701 6.82695 10.8541 6.71973 11.3553L5.62227 16.2893C5.37598 17.3303 6.82206 17.6125 7.04257 16.6606L8.10019 11.8535L12.0926 11.8535L13.1484 16.6606C13.3574 17.6072 14.8123 17.3355 14.5723 16.2893L13.4668 11.365C13.356 10.8541 12.9603 10.4701 12.4689 10.4285L12.4129 10.4285L10.7848 5.6539C10.5488 4.98222 9.63593 4.97422 9.40175 5.6539Z" fill="white" fill-opacity="0.25"/>
 </g>
</svg>
