<?xml version="1.0" encoding="UTF-8"?>
<!--Generator: Apple Native CoreSVG 341-->
<!DOCTYPE svg
PUBLIC "-//W3C//DTD SVG 1.1//EN"
       "http://www.w3.org/Graphics/SVG/1.1/DTD/svg11.dtd">
<svg version="1.1" xmlns="http://www.w3.org/2000/svg" xmlns:xlink="http://www.w3.org/1999/xlink" viewBox="0 0 21.5655 23.1301">
 <g>
  <rect height="23.1301" opacity="0" width="21.5655" x="0" y="0"/>
  <path d="M4.70402 23.1301L16.4939 23.1301C17.4806 23.1301 18.0751 22.6527 18.0751 21.8809C18.0751 19.6027 15.1919 16.466 10.5941 16.466C6.00422 16.466 3.12101 19.6027 3.12101 21.8809C3.12101 22.6527 3.71554 23.1301 4.70402 23.1301ZM10.6021 14.89C12.5318 14.89 14.1751 13.1732 14.1751 10.9547C14.1751 8.77422 12.5202 7.12598 10.6021 7.12598C8.68566 7.12598 7.01926 8.80801 7.02902 10.9707C7.02902 13.1732 8.67238 14.89 10.6021 14.89Z" fill="white" fill-opacity="0.25"/>
  <path d="M1.19758 15.1695C1.37863 15.5857 1.83742 15.883 2.36008 15.883C4.05812 15.883 5.11164 13.8297 5.11164 10.9725C5.11164 8.11348 4.05812 6.06191 2.36008 6.06191C1.83742 6.06191 1.37863 6.34941 1.19758 6.77539C1.09387 7.03593 1.36789 7.29394 1.60187 7.1955C1.77687 7.13418 1.86555 7.09961 2.12492 7.09961C3.1675 7.09961 3.92395 8.8834 3.92395 10.9725C3.92395 13.058 3.1675 14.8436 2.12492 14.8436C1.86555 14.8436 1.77687 14.8027 1.60187 14.7396C1.36789 14.6492 1.09387 14.909 1.19758 15.1695ZM20.0066 15.166C20.1103 14.9072 19.8362 14.6475 19.6023 14.7379C19.4193 14.801 19.3386 14.8418 19.0792 14.8418C18.0366 14.8418 17.2802 13.0562 17.2802 10.9707C17.2802 8.88164 18.0366 7.09785 19.0792 7.09785C19.3386 7.09785 19.4193 7.13242 19.6023 7.19375C19.8362 7.29218 20.1103 7.03418 20.0066 6.77363C19.8255 6.34766 19.3667 6.06016 18.8441 6.06016C17.146 6.06016 16.0925 8.11348 16.0925 10.9707C16.0925 13.8279 17.146 15.8812 18.8441 15.8812C19.3667 15.8812 19.8255 15.584 20.0066 15.166ZM14.7991 1.28652C14.5386 1.18281 14.2806 1.44883 14.3773 1.69082C14.4323 1.86582 14.4749 1.9625 14.4749 2.21387C14.4749 3.25645 12.6894 4.00488 10.6021 4.00488C8.51652 4.00488 6.72922 3.25645 6.72922 2.21387C6.72922 1.9625 6.76379 1.86582 6.82687 1.69082C6.92355 1.44883 6.66554 1.18281 6.405 1.28652C5.98879 1.45957 5.69152 1.92637 5.69152 2.44902C5.69152 4.15508 7.74484 5.20058 10.6021 5.20058C13.4593 5.20058 15.5126 4.15508 15.5126 2.44902C15.5126 1.92637 15.2171 1.45957 14.7991 1.28652Z" fill="white" fill-opacity="0.25"/>
  <path d="M0.106171 13.7258C0.298749 13.9396 0.590741 14.0896 0.91828 14.0896C1.91691 14.0896 2.6716 12.8299 2.6716 10.9725C2.6716 9.10351 1.91691 7.85527 0.91828 7.85527C0.590741 7.85527 0.298749 8.00351 0.106171 8.21738C-0.145781 8.5039 0.0928901 8.86035 0.382732 8.76816C0.492889 8.7246 0.567498 8.70683 0.654608 8.70683C1.23918 8.70683 1.69836 9.73086 1.69836 10.9725C1.69836 12.2141 1.23918 13.2381 0.654608 13.2381C0.567498 13.2381 0.492889 13.2203 0.382732 13.175C0.0928901 13.0828-0.145781 13.433 0.106171 13.7258ZM21.098 13.7223C21.3499 13.4295 21.1112 13.0793 20.8214 13.1715C20.7112 13.2168 20.6366 13.2363 20.5495 13.2363C19.9667 13.2363 19.4995 12.2105 19.4995 10.9707C19.4995 9.7291 19.9667 8.70507 20.5495 8.70507C20.6366 8.70507 20.7112 8.72285 20.8214 8.76816C21.1112 8.85859 21.3499 8.50214 21.098 8.21562C20.9054 8 20.6134 7.85351 20.2859 7.85351C19.289 7.85351 18.5325 9.10176 18.5325 10.9707C18.5325 12.8264 19.289 14.0879 20.2859 14.0879C20.6134 14.0879 20.9054 13.9379 21.098 13.7223ZM13.3571 0.195116C13.0706-0.0488281 12.7142 0.181835 12.8046 0.463669C12.8499 0.581834 12.8677 0.656443 12.8677 0.735545C12.8677 1.32637 11.8437 1.79356 10.6021 1.79356C9.36222 1.79356 8.33644 1.32637 8.33644 0.735545C8.33644 0.656443 8.35597 0.581834 8.39953 0.463669C8.48995 0.181835 8.13351-0.0488281 7.84699 0.195116C7.63488 0.395702 7.48488 0.679686 7.48488 1.00722C7.48488 2.0041 8.73488 2.75254 10.6021 2.75254C12.4675 2.75254 13.7193 2.0041 13.7193 1.00722C13.7193 0.679686 13.5693 0.395702 13.3571 0.195116Z" fill="white" fill-opacity="0.25"/>
 </g>
</svg>
