<?xml version="1.0" encoding="UTF-8"?>
<!--Generator: Apple Native CoreSVG 341-->
<!DOCTYPE svg
PUBLIC "-//W3C//DTD SVG 1.1//EN"
       "http://www.w3.org/Graphics/SVG/1.1/DTD/svg11.dtd">
<svg version="1.1" xmlns="http://www.w3.org/2000/svg" xmlns:xlink="http://www.w3.org/1999/xlink" viewBox="0 0 23.7298 23.9541">
 <g>
  <rect height="23.9541" opacity="0" width="23.7298" x="0" y="0"/>
  <path d="M11.272 13.4577C13.2488 13.8846 15.1705 12.4325 15.3693 10.0634C15.5859 7.70125 13.9597 5.63035 11.9998 5.22293C10.0408 4.79598 8.12887 6.17625 7.91227 8.50984C7.7152 10.8542 9.31832 13.0503 11.272 13.4577ZM5.20582 21.2676L17.483 23.8848C18.5257 24.1182 19.1921 23.7501 19.264 22.9514C19.4726 20.5014 16.7642 16.4969 11.9607 15.4761C7.15641 14.4614 3.87282 17.1831 3.66422 19.6108C3.59235 20.4255 4.18512 21.0475 5.20582 21.2676Z" fill="white" fill-opacity="0.25"/>
  <path d="M1.31168 13.8706C1.50426 14.3356 2.02164 14.6559 2.59664 14.6559C4.47223 14.6559 5.62691 12.3878 5.62691 9.24031C5.62691 6.09285 4.47223 3.82469 2.59664 3.82469C2.02164 3.82469 1.50426 4.15125 1.31168 4.61004C1.20446 4.89539 1.49528 5.1862 1.76031 5.08601C1.9611 5.01316 2.06129 4.97058 2.33844 4.97058C3.48668 4.97058 4.32301 6.93992 4.32301 9.24031C4.32301 11.5407 3.48668 13.51 2.33844 13.51C2.06129 13.51 1.9611 13.4657 1.76031 13.3946C1.49528 13.3024 1.20446 13.5852 1.31168 13.8706ZM22.0488 13.8671C22.1658 13.5835 21.867 13.3007 21.6082 13.3928C21.4074 13.4639 21.3072 13.5065 21.03 13.5065C19.8818 13.5065 19.0472 11.5389 19.0472 9.23855C19.0472 6.93816 19.8818 4.96882 21.03 4.96882C21.3072 4.96882 21.4074 5.0114 21.6082 5.08425C21.867 5.18445 22.1658 4.89363 22.0488 4.60828C21.8642 4.14949 21.3468 3.82293 20.7718 3.82293C18.8963 3.82293 17.7353 6.09109 17.7353 9.23855C17.7353 12.3843 18.8963 14.6542 20.7718 14.6542C21.3468 14.6542 21.8642 14.3339 22.0488 13.8671Z" fill="white" fill-opacity="0.25"/>
  <path d="M0.116369 12.2751C0.32672 12.5102 0.641759 12.678 1.00836 12.678C2.11441 12.678 2.93746 11.2913 2.93746 9.24031C2.93746 7.18757 2.11441 5.80261 1.00836 5.80261C0.641759 5.80261 0.32672 5.97039 0.116369 6.20554C-0.15863 6.52312 0.0995722 6.91413 0.415976 6.81218C0.535898 6.76687 0.618516 6.74734 0.715391 6.74734C1.36305 6.74734 1.87731 7.86902 1.87731 9.24031C1.87731 10.6196 1.36305 11.7413 0.715391 11.7413C0.618516 11.7413 0.535898 11.7218 0.415976 11.6684C0.0995722 11.5665-0.15863 11.9575 0.116369 12.2751ZM23.2441 12.2733C23.5271 11.9557 23.2689 11.5647 22.9525 11.6667C22.8246 11.72 22.75 11.7378 22.6531 11.7378C22.0054 11.7378 21.4929 10.6178 21.4929 9.23855C21.4929 7.86726 22.0054 6.74558 22.6531 6.74558C22.75 6.74558 22.8246 6.76511 22.9525 6.80866C23.2689 6.91237 23.5271 6.52136 23.2441 6.20378C23.0418 5.96863 22.7267 5.80085 22.3601 5.80085C21.2541 5.80085 20.4328 7.18582 20.4328 9.23855C20.4328 11.2895 21.2541 12.6762 22.3601 12.6762C22.7267 12.6762 23.0418 12.5085 23.2441 12.2733Z" fill="white" fill-opacity="0.25"/>
 </g>
</svg>
