<?xml version="1.0" encoding="UTF-8"?>
<!--Generator: Apple Native CoreSVG 341-->
<!DOCTYPE svg
PUBLIC "-//W3C//DTD SVG 1.1//EN"
       "http://www.w3.org/Graphics/SVG/1.1/DTD/svg11.dtd">
<svg version="1.1" xmlns="http://www.w3.org/2000/svg" xmlns:xlink="http://www.w3.org/1999/xlink" viewBox="0 0 25.2865 19.1234">
 <g>
  <rect height="19.1234" opacity="0" width="25.2865" x="0" y="0"/>
  <path d="M21.8076 7.59316C23.74 8.40097 24.9252 10.2363 24.9252 12.3152C24.9252 15.0957 22.5344 17.3242 19.4973 17.3242L6.00429 17.3242C2.59238 17.3242 0 14.8488 0 11.881C0 9.4455 1.38398 7.43593 3.61562 7.04219C3.70664 4.29199 6.31152 2.44824 8.78066 3.1127C10.0053 1.34571 11.948 0 14.5523 0C18.6361 0 21.8201 3.18144 21.8076 7.59316ZM7.63495 15.3268L18.5326 15.3268C17.775 13.757 15.9064 12.1064 13.0838 12.1064C10.2594 12.1064 8.39081 13.757 7.63495 15.3268ZM10.4732 8.08202C10.4812 9.62968 11.632 10.9234 13.0838 10.9394C14.5275 10.9555 15.6926 9.63319 15.6926 8.08202C15.6926 6.56092 14.5258 5.2992 13.0838 5.2992C11.6338 5.2992 10.4732 6.56092 10.4732 8.08202Z" fill="white" fill-opacity="0.25"/>
 </g>
</svg>
