<?xml version="1.0" encoding="UTF-8"?>
<!--Generator: Apple Native CoreSVG 341-->
<!DOCTYPE svg
PUBLIC "-//W3C//DTD SVG 1.1//EN"
       "http://www.w3.org/Graphics/SVG/1.1/DTD/svg11.dtd">
<svg version="1.1" xmlns="http://www.w3.org/2000/svg" xmlns:xlink="http://www.w3.org/1999/xlink" viewBox="0 0 23.7298 21.3363">
 <g>
  <rect height="21.3363" opacity="0" width="23.7298" x="0" y="0"/>
  <path d="M5.17847 21.3363L18.182 21.3363C19.2716 21.3363 19.9265 20.8164 19.9265 19.9611C19.9265 17.4486 16.7406 13.9932 11.6802 13.9932C6.61363 13.9932 3.42594 17.4486 3.42594 19.9611C3.42594 20.8164 4.08258 21.3363 5.17847 21.3363ZM11.6802 12.2592C13.815 12.2592 15.6199 10.3586 15.6199 7.91367C15.6199 5.52011 13.8035 3.69082 11.6802 3.69082C9.565 3.69082 7.73883 5.55214 7.75035 7.92968C7.75211 10.3586 9.55348 12.2592 11.6802 12.2592Z" fill="white" fill-opacity="0.25"/>
  <path d="M1.31168 12.5617C1.50426 13.0268 2.02164 13.3471 2.59664 13.3471C4.47223 13.3471 5.62691 11.0789 5.62691 7.93144C5.62691 4.78398 4.47223 2.51582 2.59664 2.51582C2.02164 2.51582 1.50426 2.84238 1.31168 3.30117C1.20446 3.58652 1.49528 3.87734 1.76031 3.77714C1.9611 3.70429 2.06129 3.66171 2.33844 3.66171C3.48668 3.66171 4.32301 5.63105 4.32301 7.93144C4.32301 10.2318 3.48668 12.2012 2.33844 12.2012C2.06129 12.2012 1.9611 12.1568 1.76031 12.0857C1.49528 11.9936 1.20446 12.2764 1.31168 12.5617ZM22.0488 12.5582C22.1658 12.2746 21.867 11.9918 21.6082 12.084C21.4074 12.1551 21.3072 12.1977 21.03 12.1977C19.8818 12.1977 19.0472 10.2301 19.0472 7.92968C19.0472 5.62929 19.8818 3.65996 21.03 3.65996C21.3072 3.65996 21.4074 3.70253 21.6082 3.77539C21.867 3.87558 22.1658 3.58476 22.0488 3.29941C21.8642 2.84062 21.3468 2.51406 20.7718 2.51406C18.8963 2.51406 17.7353 4.78223 17.7353 7.92968C17.7353 11.0754 18.8963 13.3453 20.7718 13.3453C21.3468 13.3453 21.8642 13.025 22.0488 12.5582Z" fill="white" fill-opacity="0.25"/>
  <path d="M0.116369 10.9662C0.32672 11.2014 0.641759 11.3691 1.00836 11.3691C2.11441 11.3691 2.93746 9.98242 2.93746 7.93144C2.93746 5.87871 2.11441 4.49375 1.00836 4.49375C0.641759 4.49375 0.32672 4.66152 0.116369 4.89667C-0.15863 5.21425 0.0995722 5.60527 0.415976 5.50331C0.535898 5.458 0.618516 5.43847 0.715391 5.43847C1.36305 5.43847 1.87731 6.56015 1.87731 7.93144C1.87731 9.31074 1.36305 10.4324 0.715391 10.4324C0.618516 10.4324 0.535898 10.4129 0.415976 10.3596C0.0995722 10.2576-0.15863 10.6486 0.116369 10.9662ZM23.2441 10.9645C23.5271 10.6469 23.2689 10.2559 22.9525 10.3578C22.8246 10.4111 22.75 10.4289 22.6531 10.4289C22.0054 10.4289 21.4929 9.30898 21.4929 7.92968C21.4929 6.55839 22.0054 5.43671 22.6531 5.43671C22.75 5.43671 22.8246 5.45624 22.9525 5.4998C23.2689 5.60351 23.5271 5.21249 23.2441 4.89492C23.0418 4.65976 22.7267 4.49199 22.3601 4.49199C21.2541 4.49199 20.4328 5.87695 20.4328 7.92968C20.4328 9.98066 21.2541 11.3674 22.3601 11.3674C22.7267 11.3674 23.0418 11.1996 23.2441 10.9645Z" fill="white" fill-opacity="0.25"/>
 </g>
</svg>
