<?xml version="1.0" encoding="UTF-8"?>
<!--Generator: Apple Native CoreSVG 341-->
<!DOCTYPE svg
PUBLIC "-//W3C//DTD SVG 1.1//EN"
       "http://www.w3.org/Graphics/SVG/1.1/DTD/svg11.dtd">
<svg version="1.1" xmlns="http://www.w3.org/2000/svg" xmlns:xlink="http://www.w3.org/1999/xlink" viewBox="0 0 21.5655 25.9574">
 <g>
  <rect height="25.9574" opacity="0" width="21.5655" x="0" y="0"/>
  <path d="M10.2995 16.2336C12.1282 16.6242 13.9071 15.2935 14.0927 13.084C14.2978 10.8992 12.7868 8.98437 10.9696 8.61152C9.15871 8.21738 7.38957 9.48593 7.19426 11.6422C7.00871 13.8269 8.49035 15.851 10.2995 16.2336ZM4.67941 23.4637L16.0511 25.8955C17.0132 26.1076 17.6318 25.7642 17.6956 25.025C17.9007 22.7603 15.3909 19.0547 10.9403 18.1047C6.47922 17.1734 3.44211 19.6787 3.2548 21.9336C3.18293 22.6844 3.73761 23.2666 4.67941 23.4637Z" fill="white" fill-opacity="0.25"/>
  <path d="M1.19758 16.5832C1.37863 16.9994 1.83742 17.2967 2.36008 17.2967C4.05812 17.2967 5.11164 15.2433 5.11164 12.3861C5.11164 9.52714 4.05812 7.47558 2.36008 7.47558C1.83742 7.47558 1.37863 7.76308 1.19758 8.18906C1.09387 8.4496 1.36789 8.70761 1.60187 8.60917C1.77687 8.54784 1.86555 8.51327 2.12492 8.51327C3.1675 8.51327 3.92395 10.2971 3.92395 12.3861C3.92395 14.4717 3.1675 16.2572 2.12492 16.2572C1.86555 16.2572 1.77687 16.2164 1.60187 16.1533C1.36789 16.0629 1.09387 16.3226 1.19758 16.5832ZM20.0066 16.5797C20.1103 16.3209 19.8362 16.0611 19.6023 16.1516C19.4193 16.2146 19.3386 16.2555 19.0792 16.2555C18.0366 16.2555 17.2802 14.4699 17.2802 12.3844C17.2802 10.2953 18.0366 8.51151 19.0792 8.51151C19.3386 8.51151 19.4193 8.54608 19.6023 8.60741C19.8362 8.70585 20.1103 8.44784 20.0066 8.1873C19.8255 7.76132 19.3667 7.47382 18.8441 7.47382C17.146 7.47382 16.0925 9.52714 16.0925 12.3844C16.0925 15.2416 17.146 17.2949 18.8441 17.2949C19.3667 17.2949 19.8255 16.9976 20.0066 16.5797ZM14.7991 2.70019C14.5386 2.59648 14.2806 2.86249 14.3773 3.10448C14.4323 3.27948 14.4749 3.37616 14.4749 3.62753C14.4749 4.67011 12.6894 5.41855 10.6021 5.41855C8.51652 5.41855 6.72922 4.67011 6.72922 3.62753C6.72922 3.37616 6.76379 3.27948 6.82687 3.10448C6.92355 2.86249 6.66554 2.59648 6.405 2.70019C5.98879 2.87324 5.69152 3.34003 5.69152 3.86269C5.69152 5.56874 7.74484 6.61425 10.6021 6.61425C13.4593 6.61425 15.5126 5.56874 15.5126 3.86269C15.5126 3.34003 15.2171 2.87324 14.7991 2.70019Z" fill="white" fill-opacity="0.25"/>
  <path d="M0.106171 15.1394C0.298749 15.3533 0.590741 15.5033 0.91828 15.5033C1.91691 15.5033 2.6716 14.2435 2.6716 12.3861C2.6716 10.5172 1.91691 9.26894 0.91828 9.26894C0.590741 9.26894 0.298749 9.41718 0.106171 9.63104C-0.145781 9.91757 0.0928901 10.274 0.382732 10.1818C0.492889 10.1383 0.567498 10.1205 0.654608 10.1205C1.23918 10.1205 1.69836 11.1445 1.69836 12.3861C1.69836 13.6277 1.23918 14.6518 0.654608 14.6518C0.567498 14.6518 0.492889 14.634 0.382732 14.5887C0.0928901 14.4965-0.145781 14.8467 0.106171 15.1394ZM21.098 15.1359C21.3499 14.8432 21.1112 14.493 20.8214 14.5852C20.7112 14.6305 20.6366 14.65 20.5495 14.65C19.9667 14.65 19.4995 13.6242 19.4995 12.3844C19.4995 11.1428 19.9667 10.1187 20.5495 10.1187C20.6366 10.1187 20.7112 10.1365 20.8214 10.1818C21.1112 10.2723 21.3499 9.91581 21.098 9.62929C20.9054 9.41366 20.6134 9.26718 20.2859 9.26718C19.289 9.26718 18.5325 10.5154 18.5325 12.3844C18.5325 14.24 19.289 15.5016 20.2859 15.5016C20.6134 15.5016 20.9054 15.3516 21.098 15.1359ZM13.3571 1.60878C13.0706 1.36484 12.7142 1.5955 12.8046 1.87733C12.8499 1.9955 12.8677 2.07011 12.8677 2.14921C12.8677 2.74003 11.8437 3.20722 10.6021 3.20722C9.36222 3.20722 8.33644 2.74003 8.33644 2.14921C8.33644 2.07011 8.35597 1.9955 8.39953 1.87733C8.48995 1.5955 8.13351 1.36484 7.84699 1.60878C7.63488 1.80937 7.48488 2.09335 7.48488 2.42089C7.48488 3.41776 8.73488 4.1662 10.6021 4.1662C12.4675 4.1662 13.7193 3.41776 13.7193 2.42089C13.7193 2.09335 13.5693 1.80937 13.3571 1.60878Z" fill="white" fill-opacity="0.25"/>
 </g>
</svg>
