<?xml version="1.0" encoding="UTF-8"?>
<!--Generator: Apple Native CoreSVG 341-->
<!DOCTYPE svg
PUBLIC "-//W3C//DTD SVG 1.1//EN"
       "http://www.w3.org/Graphics/SVG/1.1/DTD/svg11.dtd">
<svg version="1.1" xmlns="http://www.w3.org/2000/svg" xmlns:xlink="http://www.w3.org/1999/xlink" viewBox="0 0 18.9638 19.1808">
 <g>
  <rect height="19.1808" opacity="0" width="18.9638" x="0" y="0"/>
  <path d="M5.53398 19.1808L13.0668 19.1808C15.8988 19.1808 17.6502 17.4002 17.6502 14.5158L17.6502 4.68456C17.6502 1.80195 15.8988 0.0275391 13.0668 0.0275391L5.53398 0.0275391C2.70371 0.0275391 0.952343 1.80195 0.952343 4.68456L0.952343 14.5158C0.952343 17.4002 2.70371 19.1808 5.53398 19.1808ZM5.47792 17.3709C3.77733 17.3709 2.76581 16.3328 2.76581 14.5719L2.76581 4.66679C2.76581 2.91561 3.77733 1.87929 5.47792 1.87929L13.1246 1.87929C14.8314 1.87929 15.8367 2.91561 15.8367 4.66679L15.8367 14.5719C15.8367 16.3328 14.8314 17.3709 13.1246 17.3709ZM17.3971 8.62538L17.8787 8.62538C18.5388 8.62538 18.9638 8.17108 18.9638 7.45858L18.9638 5.82597C18.9638 5.10097 18.5388 4.64316 17.8787 4.64316L17.3971 4.64316Z" fill="white" fill-opacity="0.25"/>
  <path d="M4.06073 14.7023C4.06073 15.5494 4.54823 16.0662 5.35097 16.0662L13.2578 16.0662C14.0525 16.0662 14.54 15.5494 14.54 14.7023L14.54 12.9098C14.54 12.0644 14.0525 11.5379 13.2578 11.5379L5.35097 11.5379C4.54823 11.5379 4.06073 12.0644 4.06073 12.9098ZM5.25721 14.5594L5.25721 13.0545C5.25721 12.8615 5.37284 12.7344 5.56581 12.7344L13.0412 12.7344C13.2359 12.7344 13.3435 12.8615 13.3435 13.0545L13.3435 14.5594C13.3435 14.7523 13.2359 14.8715 13.0412 14.8715L5.56581 14.8715C5.37284 14.8715 5.25721 14.7523 5.25721 14.5594Z" fill="white" fill-opacity="0.25"/>
 </g>
</svg>
