<?xml version="1.0" encoding="UTF-8"?>
<!--Generator: Apple Native CoreSVG 341-->
<!DOCTYPE svg
PUBLIC "-//W3C//DTD SVG 1.1//EN"
       "http://www.w3.org/Graphics/SVG/1.1/DTD/svg11.dtd">
<svg version="1.1" xmlns="http://www.w3.org/2000/svg" xmlns:xlink="http://www.w3.org/1999/xlink" viewBox="0 0 18.9638 19.1808">
 <g>
  <rect height="19.1808" opacity="0" width="18.9638" x="0" y="0"/>
  <path d="M5.53398 19.1808L13.0668 19.1808C15.8988 19.1808 17.6502 17.4002 17.6502 14.5158L17.6502 4.68456C17.6502 1.80195 15.8988 0.0275391 13.0668 0.0275391L5.53398 0.0275391C2.70371 0.0275391 0.952343 1.80195 0.952343 4.68456L0.952343 14.5158C0.952343 17.4002 2.70371 19.1808 5.53398 19.1808ZM5.47792 17.3709C3.77733 17.3709 2.76581 16.3328 2.76581 14.5719L2.76581 4.66679C2.76581 2.91561 3.77733 1.87929 5.47792 1.87929L13.1246 1.87929C14.8314 1.87929 15.8367 2.91561 15.8367 4.66679L15.8367 14.5719C15.8367 16.3328 14.8314 17.3709 13.1246 17.3709ZM17.3971 8.62538L17.8787 8.62538C18.5388 8.62538 18.9638 8.17108 18.9638 7.45858L18.9638 5.82597C18.9638 5.10097 18.5388 4.64316 17.8787 4.64316L17.3971 4.64316Z" fill="white" fill-opacity="0.25"/>
  <path d="M4.06073 6.29237C4.06073 7.13768 4.54823 7.65624 5.35097 7.65624L13.2578 7.65624C14.0525 7.65624 14.54 7.13768 14.54 6.29237L14.54 4.4998C14.54 3.65273 14.0525 3.12792 13.2578 3.12792L5.35097 3.12792C4.54823 3.12792 4.06073 3.65273 4.06073 4.4998ZM5.25721 6.14765L5.25721 4.64276C5.25721 4.44979 5.37284 4.32264 5.56581 4.32264L13.0412 4.32264C13.2359 4.32264 13.3435 4.44979 13.3435 4.64276L13.3435 6.14765C13.3435 6.34238 13.2359 6.45976 13.0412 6.45976L5.56581 6.45976C5.37284 6.45976 5.25721 6.34238 5.25721 6.14765Z" fill="white" fill-opacity="0.25"/>
 </g>
</svg>
