<?xml version="1.0" encoding="UTF-8"?>
<!--Generator: Apple Native CoreSVG 341-->
<!DOCTYPE svg
PUBLIC "-//W3C//DTD SVG 1.1//EN"
       "http://www.w3.org/Graphics/SVG/1.1/DTD/svg11.dtd">
<svg version="1.1" xmlns="http://www.w3.org/2000/svg" xmlns:xlink="http://www.w3.org/1999/xlink" viewBox="0 0 23.459 20.8304">
 <g>
  <rect height="20.8304" opacity="0" width="23.459" x="0" y="0"/>
  <path d="M23.0976 9.64061C23.0976 15.2224 18.2355 19.2847 11.5439 19.2847C9.34277 19.2847 7.35351 18.8826 5.64296 18.1058C4.61249 18.8471 3.21621 19.2847 1.84746 19.2847C1.13437 19.2847 0.86836 18.7359 1.35176 18.2996C1.94297 17.7527 2.17656 17.2599 2.17656 16.5017C2.17656 14.7642 0 13.6709 0 9.64061C0 4.04375 4.86914 0 11.5439 0C18.2187 0 23.0976 4.04375 23.0976 9.64061ZM10.6334 5.93964L10.6334 8.71406L7.85897 8.71406C7.29843 8.71406 6.89315 9.10683 6.89315 9.68065C6.89315 10.2385 7.29843 10.6232 7.85897 10.6232L10.6334 10.6232L10.6334 13.4057C10.6334 13.9582 11.0262 14.3635 11.576 14.3635C12.1498 14.3635 12.5426 13.9662 12.5426 13.4057L12.5426 10.6232L15.325 10.6232C15.8775 10.6232 16.2828 10.2385 16.2828 9.68065C16.2828 9.10683 15.8855 8.71406 15.325 8.71406L12.5426 8.71406L12.5426 5.93964C12.5426 5.37108 12.1498 4.97382 11.576 4.97382C11.0262 4.97382 10.6334 5.37909 10.6334 5.93964Z" fill="white" fill-opacity="0.25"/>
 </g>
</svg>
