<?xml version="1.0" encoding="UTF-8"?>
<!--Generator: Apple Native CoreSVG 341-->
<!DOCTYPE svg
PUBLIC "-//W3C//DTD SVG 1.1//EN"
       "http://www.w3.org/Graphics/SVG/1.1/DTD/svg11.dtd">
<svg version="1.1" xmlns="http://www.w3.org/2000/svg" xmlns:xlink="http://www.w3.org/1999/xlink" viewBox="0 0 25.2949 16.0871">
 <g>
  <rect height="16.0871" opacity="0" width="25.2949" x="0" y="0"/>
  <path d="M17.9586 3.23007L17.9586 12.8393C17.9586 14.8953 16.7445 16.0773 14.6551 16.0773L4.36367 16.0773C2.27247 16.0773 1.06016 14.9498 1.06016 12.8937L1.06016 3.23183C1.06016 1.18203 2.3463 0 4.36367 0L14.7369 0C16.8264 0 17.9586 1.18203 17.9586 3.23007ZM25.2949 2.92363L25.2949 13.1976C25.2949 14.0459 24.7582 14.6166 23.9631 14.6166C23.5588 14.6166 23.1348 14.3959 22.7412 14.0537L19.3781 11.1533L19.3781 4.95996L22.7412 2.06757C23.1365 1.72539 23.557 1.50469 23.9631 1.50469C24.7582 1.50469 25.2949 2.07539 25.2949 2.92363ZM8.13087 11.7391C8.13087 12.3111 8.61524 12.7496 9.20762 12.7496C9.79649 12.7496 10.2871 12.3191 10.2871 11.7391C10.2871 11.1625 9.80449 10.7205 9.20762 10.7205C8.60723 10.7205 8.13087 11.159 8.13087 11.7391ZM6.57794 4.93105C6.51856 5.08984 6.48751 5.25136 6.48751 5.42343C6.48751 5.86523 6.84063 6.14784 7.25762 6.14784C7.79805 6.14784 7.92285 5.86288 8.20527 5.53769C8.50449 5.08808 8.89649 4.83202 9.43868 4.83202C10.1703 4.83202 10.6442 5.23827 10.6442 5.85605C10.6442 6.43007 10.2535 6.72929 9.48185 7.26211C8.82931 7.7291 8.34982 8.19707 8.34982 9.02422C8.34982 9.05801 8.34982 9.09805 8.34982 9.12559C8.34982 9.6543 8.65821 9.92832 9.22989 9.92832C9.73457 9.92832 10.0529 9.63281 10.0898 9.24941C10.0916 9.22187 10.0934 9.18105 10.0951 9.14551C10.1197 8.66308 10.4443 8.35586 11.0467 7.96582C11.9537 7.37285 12.541 6.8375 12.541 5.7666C12.541 4.23085 11.1537 3.35879 9.51211 3.35879C7.93106 3.35879 6.88477 4.07012 6.57794 4.93105Z" fill="white" fill-opacity="0.25"/>
 </g>
</svg>
