<?xml version="1.0" encoding="UTF-8"?>
<!--Generator: Apple Native CoreSVG 341-->
<!DOCTYPE svg
PUBLIC "-//W3C//DTD SVG 1.1//EN"
       "http://www.w3.org/Graphics/SVG/1.1/DTD/svg11.dtd">
<svg version="1.1" xmlns="http://www.w3.org/2000/svg" xmlns:xlink="http://www.w3.org/1999/xlink" viewBox="0 0 25.5059 16.3246">
 <g>
  <rect height="16.3246" opacity="0" width="25.5059" x="0" y="0"/>
  <path d="M4.99258 16.3148L15.152 16.3148C17.6455 16.3148 19.0994 14.893 19.0994 12.4363L19.0994 3.86875C19.0994 1.42187 17.6455 0 15.152 0L4.99258 0C2.58712 0 1.04513 1.42187 1.04513 3.87226L1.04513 12.4961C1.04513 14.9492 2.49727 16.3148 4.99258 16.3148ZM5.31172 14.573C3.77519 14.573 2.9039 13.757 2.9039 12.1643L2.9039 4.15058C2.9039 2.5287 3.77519 1.73202 5.31172 1.73202L14.8328 1.73202C16.3596 1.73202 17.2389 2.54804 17.2389 4.15058L17.2389 12.1643C17.2389 13.757 16.3508 14.573 14.8275 14.573ZM18.7764 5.37558L18.7764 7.44901L23.3598 3.69549C23.4424 3.63065 23.4992 3.58534 23.5836 3.58534C23.692 3.58534 23.7426 3.6742 23.7426 3.80389L23.7426 12.5566C23.7426 12.6846 23.692 12.7672 23.5836 12.7672C23.4992 12.7672 23.4424 12.7201 23.3598 12.6633L18.7764 8.91152L18.7764 10.9752L22.6256 14.2445C23.0795 14.623 23.5479 14.8828 24.0062 14.8828C24.9008 14.8828 25.5059 14.234 25.5059 13.2766L25.5059 3.08398C25.5059 2.1248 24.9008 1.47597 24.0062 1.47597C23.5461 1.47597 23.0795 1.73574 22.6256 2.11425Z" fill="white" fill-opacity="0.25"/>
  <path d="M9.79942 9.98418C10.2811 9.98418 10.5844 9.70195 10.6178 9.33359C10.6195 9.30605 10.6213 9.26523 10.623 9.22793C10.6459 8.76855 10.9555 8.47109 11.5383 8.09257C12.4152 7.52441 12.9732 7.01035 12.9732 5.97753C12.9732 4.50292 11.6471 3.6707 10.0701 3.6707C8.5502 3.6707 7.54551 4.35722 7.2502 5.18183C7.19258 5.3371 7.1713 5.48886 7.1713 5.65566C7.1713 6.07617 7.50489 6.34198 7.89981 6.34198C8.41543 6.34198 8.53672 6.0703 8.80762 5.76288C9.09531 5.32655 9.47754 5.06874 9.99844 5.06874C10.7123 5.06874 11.1666 5.46522 11.1666 6.06523C11.1666 6.61796 10.7973 6.90566 10.0504 7.42519C9.42267 7.87089 8.95821 8.32382 8.95821 9.11992C8.95821 9.15371 8.95821 9.19551 8.95821 9.22129C8.95821 9.72695 9.25782 9.98418 9.79942 9.98418ZM9.77715 12.6912C10.3412 12.6912 10.815 12.2855 10.815 11.7223C10.815 11.1723 10.3492 10.7533 9.77715 10.7533C9.20684 10.7533 8.74727 11.1705 8.74727 11.7223C8.74727 12.2758 9.21485 12.6912 9.77715 12.6912Z" fill="white" fill-opacity="0.25"/>
 </g>
</svg>
