<?xml version="1.0" encoding="UTF-8"?>
<!--Generator: Apple Native CoreSVG 341-->
<!DOCTYPE svg
PUBLIC "-//W3C//DTD SVG 1.1//EN"
       "http://www.w3.org/Graphics/SVG/1.1/DTD/svg11.dtd">
<svg version="1.1" xmlns="http://www.w3.org/2000/svg" xmlns:xlink="http://www.w3.org/1999/xlink" viewBox="0 0 23.5648 20.9441">
 <g>
  <rect height="20.9441" opacity="0" width="23.5648" x="0" y="0"/>
  <path d="M11.6 19.4707C18.2996 19.4707 23.2035 15.3683 23.2035 9.7287C23.2035 4.06777 18.2828 0 11.6 0C4.90918 0 0 4.06777 0 9.7287C0 11.7183 0.586326 13.3701 1.47988 14.7066C1.93535 15.4025 2.13652 15.9074 2.13652 16.3781C2.13652 16.9308 1.975 17.3508 1.49941 17.7748C0.738476 18.4308 1.14238 19.4707 2.1668 19.4707C3.42968 19.4707 4.80996 19.049 5.83867 18.3416C7.51718 19.0765 9.47265 19.4707 11.6 19.4707ZM11.6 17.5768C9.74882 17.5768 8.09296 17.2305 6.68573 16.6045C6.02733 16.3135 5.53944 16.3828 4.93144 16.7186C4.57479 16.9418 4.16385 17.1295 3.72381 17.2352C3.89374 16.918 4.00585 16.5906 4.00585 16.1637C4.00585 15.4305 3.71053 14.6236 3.08729 13.6896C2.31483 12.5726 1.89217 11.2133 1.89217 9.7287C1.89217 5.20487 5.89296 1.89217 11.6 1.89217C17.3123 1.89217 21.3096 5.20663 21.3096 9.7287C21.3096 14.2525 17.3123 17.5768 11.6 17.5768Z" fill="white" fill-opacity="0.25"/>
  <path d="M11.3871 11.6799C11.9193 11.6799 12.2598 11.3639 12.2844 10.9689C12.2861 10.9299 12.2879 10.881 12.2914 10.8535C12.3178 10.3373 12.6646 10.0043 13.3025 9.58847C14.2691 8.95995 14.8902 8.39257 14.8902 7.26386C14.8902 5.64101 13.4256 4.70937 11.6934 4.70937C10.0189 4.70937 8.88554 5.47851 8.5787 6.39277C8.52109 6.5578 8.48827 6.72109 8.48827 6.89941C8.48827 7.3705 8.85292 7.66112 9.25526 7.66112C9.61015 7.66112 9.84686 7.50663 10.0385 7.25292L10.1914 7.05018C10.5226 6.52069 10.991 6.2326 11.5723 6.2326C12.374 6.2326 12.901 6.70174 12.901 7.36132C12.901 7.98319 12.4926 8.28612 11.6596 8.86073C10.9697 9.34374 10.4617 9.8455 10.4617 10.7322C10.4617 10.766 10.4617 10.8078 10.4617 10.8416C10.4617 11.3934 10.7879 11.6799 11.3871 11.6799ZM11.3648 14.6674C11.991 14.6674 12.5057 14.2129 12.5057 13.5955C12.5057 12.9816 11.999 12.5236 11.3648 12.5236C10.7387 12.5236 10.2268 12.9879 10.2268 13.5955C10.2268 14.2031 10.7467 14.6674 11.3648 14.6674Z" fill="white" fill-opacity="0.25"/>
 </g>
</svg>
