<?xml version="1.0" encoding="UTF-8"?>
<!--Generator: Apple Native CoreSVG 341-->
<!DOCTYPE svg
PUBLIC "-//W3C//DTD SVG 1.1//EN"
       "http://www.w3.org/Graphics/SVG/1.1/DTD/svg11.dtd">
<svg version="1.1" xmlns="http://www.w3.org/2000/svg" xmlns:xlink="http://www.w3.org/1999/xlink" viewBox="0 0 23.459 20.8304">
 <g>
  <rect height="20.8304" opacity="0" width="23.459" x="0" y="0"/>
  <path d="M23.0976 9.64061C23.0976 15.2224 18.2355 19.2847 11.5439 19.2847C9.34277 19.2847 7.35351 18.8826 5.64296 18.1058C4.61249 18.8471 3.21621 19.2847 1.84746 19.2847C1.13437 19.2847 0.86836 18.7359 1.35176 18.2996C1.94297 17.7527 2.17656 17.2599 2.17656 16.5017C2.17656 14.7642 0 13.6709 0 9.64061C0 4.04375 4.86914 0 11.5439 0C18.2187 0 23.0976 4.04375 23.0976 9.64061ZM10.1506 13.7043C10.1506 14.3402 10.6971 14.8178 11.3435 14.8178C11.9998 14.8178 12.5392 14.3482 12.5392 13.7043C12.5392 13.0621 12.0078 12.581 11.3435 12.581C10.6891 12.581 10.1506 13.0684 10.1506 13.7043ZM8.4414 6.20741C8.38378 6.37597 8.34121 6.54902 8.34121 6.74062C8.34121 7.22675 8.7289 7.53417 9.15155 7.53417C9.51972 7.53417 9.76971 7.36991 9.97284 7.11093L10.1258 6.89842C10.4766 6.34764 10.9564 6.05955 11.559 6.05955C12.3803 6.05955 12.9285 6.54022 12.9285 7.22108C12.9285 7.86425 12.5051 8.17694 11.6393 8.7746C10.9246 9.28066 10.3936 9.79745 10.3936 10.7232C10.3936 10.757 10.3936 10.7971 10.3936 10.8326C10.3936 11.4092 10.7365 11.7107 11.3676 11.7107C11.9246 11.7107 12.2801 11.3832 12.3064 10.9652C12.3099 10.9244 12.3117 10.8756 12.3135 10.848C12.3433 10.3123 12.7053 9.96601 13.3644 9.53866C14.3691 8.88534 15.0213 8.29491 15.0213 7.11835C15.0213 5.4246 13.4937 4.46113 11.6853 4.46113C9.94003 4.46113 8.76503 5.25507 8.4414 6.20741Z" fill="white" fill-opacity="0.25"/>
 </g>
</svg>
