<?xml version="1.0" encoding="UTF-8"?>
<!--Generator: Apple Native CoreSVG 341-->
<!DOCTYPE svg
PUBLIC "-//W3C//DTD SVG 1.1//EN"
       "http://www.w3.org/Graphics/SVG/1.1/DTD/svg11.dtd">
<svg version="1.1" xmlns="http://www.w3.org/2000/svg" xmlns:xlink="http://www.w3.org/1999/xlink" viewBox="0 0 20.5381 20.1848">
 <g>
  <rect height="20.1848" opacity="0" width="20.5381" x="0" y="0"/>
  <path d="M10.0875 20.175C15.6576 20.175 20.1767 15.6559 20.1767 10.0875C20.1767 4.51914 15.6576 0 10.0875 0C4.51914 0 0 4.51914 0 10.0875C0 15.6559 4.51914 20.175 10.0875 20.175ZM10.0875 18.1879C5.60839 18.1879 1.9871 14.5666 1.9871 10.0875C1.9871 5.60839 5.60839 1.9871 10.0875 1.9871C14.5666 1.9871 18.1897 5.60839 18.1897 10.0875C18.1897 14.5666 14.5666 18.1879 10.0875 18.1879Z" fill="white" fill-opacity="0.25"/>
  <path d="M6.13104 14.9373L11.6258 12.333C11.9541 12.1732 12.1812 11.9461 12.341 11.6258L14.9355 6.14257C15.2568 5.43632 14.7467 4.89413 14.0227 5.23944L8.54921 7.83398C8.22715 7.97773 8.00976 8.19336 7.84199 8.54121L5.22968 14.0342C4.91015 14.7227 5.44784 15.2568 6.13104 14.9373ZM10.0875 11.3344C9.40058 11.3344 8.8539 10.7797 8.8539 10.099C8.8539 9.41562 9.40058 8.85742 10.0875 8.85742C10.7727 8.85742 11.3291 9.41562 11.3291 10.099C11.3291 10.7797 10.7727 11.3344 10.0875 11.3344Z" fill="white" fill-opacity="0.25"/>
 </g>
</svg>
