<?xml version="1.0" encoding="UTF-8"?>
<!--Generator: Apple Native CoreSVG 341-->
<!DOCTYPE svg
PUBLIC "-//W3C//DTD SVG 1.1//EN"
       "http://www.w3.org/Graphics/SVG/1.1/DTD/svg11.dtd">
<svg version="1.1" xmlns="http://www.w3.org/2000/svg" xmlns:xlink="http://www.w3.org/1999/xlink" viewBox="0 0 20.5381 20.1848">
 <g>
  <rect height="20.1848" opacity="0" width="20.5381" x="0" y="0"/>
  <path d="M20.1767 10.0875C20.1767 15.6478 15.6576 20.175 10.0875 20.175C4.52715 20.175 0 15.6478 0 10.0875C0 4.51914 4.52715 0 10.0875 0C15.6576 0 20.1767 4.51914 20.1767 10.0875ZM14.1805 5.04804L8.49433 7.74101C8.15722 7.89629 7.93008 8.12343 7.75703 8.48632L5.04628 14.192C4.72148 14.9088 5.27773 15.4695 5.99726 15.1367L11.6967 12.4242C12.04 12.2689 12.2769 12.024 12.4402 11.6887L15.1332 5.99276C15.4775 5.2582 14.9408 4.69745 14.1805 5.04804ZM11.3885 10.099C11.3885 10.8143 10.8072 11.3973 10.0955 11.3973C9.39004 11.3973 8.81054 10.8143 8.81054 10.099C8.81054 9.38906 9.39004 8.81406 10.0955 8.81406C10.8072 8.81406 11.3885 9.38906 11.3885 10.099Z" fill="white" fill-opacity="0.25"/>
 </g>
</svg>
