<?xml version="1.0" encoding="UTF-8"?>
<!--Generator: Apple Native CoreSVG 341-->
<!DOCTYPE svg
PUBLIC "-//W3C//DTD SVG 1.1//EN"
       "http://www.w3.org/Graphics/SVG/1.1/DTD/svg11.dtd">
<svg version="1.1" xmlns="http://www.w3.org/2000/svg" xmlns:xlink="http://www.w3.org/1999/xlink" viewBox="0 0 20.5381 20.1848">
 <g>
  <rect height="20.1848" opacity="0" width="20.5381" x="0" y="0"/>
  <path d="M20.1767 10.0973C20.1767 15.6656 15.6576 20.1848 10.0875 20.1848C4.52715 20.1848 0 15.6656 0 10.0973C0 4.53691 4.52715 0.00976562 10.0875 0.00976562C15.6576 0.00976562 20.1767 4.53691 20.1767 10.0973ZM6.86523 14.4873C6.86523 14.8725 7.14921 15.0943 7.62851 15.0943L13.3758 15.0943C13.8603 15.0943 14.1408 14.8725 14.1408 14.4873C14.1408 13.3809 12.7389 11.8455 10.5021 11.8455C8.26269 11.8455 6.86523 13.3809 6.86523 14.4873ZM4.32792 10.376C3.84394 10.376 3.58827 10.6334 3.58827 11.1121L3.58827 12.2174C3.58827 12.6978 3.84394 12.957 4.32792 12.957L5.40214 12.957C5.89413 12.957 6.15956 12.6978 6.15956 12.2174L6.15956 11.1121C6.15956 10.6334 5.89413 10.376 5.40214 10.376ZM14.2934 7.39452C13.8031 7.39452 13.5439 7.65019 13.5439 8.12441L13.5439 11.207C13.5439 11.6893 13.8031 11.9529 14.2934 11.9529L15.8684 11.9529C16.3523 11.9529 16.608 11.6893 16.608 11.207L16.608 8.12441C16.608 7.65019 16.3523 7.39452 15.8684 7.39452ZM8.76367 9.1666C8.76542 10.2428 9.56191 11.0738 10.5021 11.0738C11.4379 11.0738 12.2406 10.2428 12.2406 9.1666C12.2406 8.10898 11.4379 7.30468 10.5021 7.30468C9.56367 7.30468 8.76015 8.11698 8.76367 9.1666ZM5.73691 5.09491C5.25116 5.09491 4.98749 5.34882 4.98749 5.84257L4.98749 8.41288C4.98749 8.8871 5.25116 9.14453 5.73691 9.14453L7.99687 9.14453C8.01015 7.76308 9.02929 6.63378 10.3396 6.53613L10.3396 5.84257C10.3396 5.34882 10.076 5.09491 9.58222 5.09491Z" fill="white" fill-opacity="0.25"/>
 </g>
</svg>
