<?xml version="1.0" encoding="UTF-8"?>
<!--Generator: Apple Native CoreSVG 341-->
<!DOCTYPE svg
PUBLIC "-//W3C//DTD SVG 1.1//EN"
       "http://www.w3.org/Graphics/SVG/1.1/DTD/svg11.dtd">
<svg version="1.1" xmlns="http://www.w3.org/2000/svg" xmlns:xlink="http://www.w3.org/1999/xlink" viewBox="0 0 20.5381 20.1848">
 <g>
  <rect height="20.1848" opacity="0" width="20.5381" x="0" y="0"/>
  <path d="M10.0875 20.175C15.6576 20.175 20.1767 15.6559 20.1767 10.0875C20.1767 4.51914 15.6576 0 10.0875 0C4.51914 0 0 4.51914 0 10.0875C0 15.6559 4.51914 20.175 10.0875 20.175ZM10.0875 18.1879C5.60839 18.1879 1.9871 14.5666 1.9871 10.0875C1.9871 5.60839 5.60839 1.9871 10.0875 1.9871C14.5666 1.9871 18.1897 5.60839 18.1897 10.0875C18.1897 14.5666 14.5666 18.1879 10.0875 18.1879Z" fill="white" fill-opacity="0.25"/>
  <path d="M5.90351 9.16933L8.08105 9.16933C8.09433 7.8455 9.07714 6.7623 10.3299 6.6664L10.3299 5.98788C10.3299 5.52519 10.076 5.26503 9.60527 5.26503L5.90351 5.26503C5.43905 5.26503 5.18691 5.52519 5.18691 5.98788L5.18691 8.4705C5.18691 8.92343 5.43905 9.16933 5.90351 9.16933ZM14.1285 11.8625L15.6459 11.8625C16.1068 11.8625 16.359 11.6201 16.359 11.1494L16.359 8.1873C16.359 7.73261 16.1068 7.48847 15.6459 7.48847L14.1285 7.48847C13.6596 7.48847 13.4119 7.73261 13.4119 8.1873L13.4119 11.1494C13.4119 11.6201 13.6596 11.8625 14.1285 11.8625ZM4.55214 12.8365L5.58827 12.8365C6.05722 12.8365 6.31288 12.5826 6.31288 12.1234L6.31288 11.066C6.31288 10.5971 6.05722 10.3529 5.58827 10.3529L4.55214 10.3529C4.08944 10.3529 3.8373 10.5891 3.8373 11.066L3.8373 12.1234C3.8373 12.5826 4.08944 12.8365 4.55214 12.8365ZM10.4906 11.026C11.3883 11.026 12.1582 10.2295 12.1582 9.1914C12.1582 8.17636 11.3883 7.39062 10.4906 7.39062C9.58671 7.39062 8.80976 8.18437 8.81152 9.1914C8.81503 10.2295 9.5832 11.026 10.4906 11.026ZM7.72069 14.8949L13.2508 14.8949C13.7186 14.8949 13.9875 14.6686 13.9875 14.3127C13.9875 13.2346 12.6334 11.7648 10.4906 11.7648C8.33359 11.7648 6.99198 13.2346 6.99198 14.3127C6.99198 14.6686 7.26269 14.8949 7.72069 14.8949Z" fill="white" fill-opacity="0.25"/>
 </g>
</svg>
