<?xml version="1.0" encoding="UTF-8"?>
<!--Generator: Apple Native CoreSVG 341-->
<!DOCTYPE svg
PUBLIC "-//W3C//DTD SVG 1.1//EN"
       "http://www.w3.org/Graphics/SVG/1.1/DTD/svg11.dtd">
<svg version="1.1" xmlns="http://www.w3.org/2000/svg" xmlns:xlink="http://www.w3.org/1999/xlink" viewBox="0 0 24.781 18.7328">
 <g>
  <rect height="18.7328" opacity="0" width="24.781" x="0" y="0"/>
  <path d="M4.82363 11.2682L4.82363 13.3353C4.82363 14.241 4.3373 14.7176 3.42012 14.7176L1.40352 14.7176C0.486327 14.7176 0 14.241 0 13.3353L0 11.2682C0 10.3607 0.486327 9.89218 1.40352 9.89218L3.42012 9.89218C4.3373 9.89218 4.82363 10.3687 4.82363 11.2682Z" fill="white" fill-opacity="0.25"/>
  <path d="M12.6572 1.37422L12.6572 2.72262C10.3173 2.88519 8.32288 4.91636 8.29372 7.57187L4.04687 7.57187C3.12968 7.57187 2.64336 7.10508 2.64336 6.19765L2.64336 1.37422C2.64336 0.474804 3.12968 0 4.04687 0L11.2457 0C12.1709 0 12.6572 0.474804 12.6572 1.37422Z" fill="white" fill-opacity="0.25"/>
  <path d="M24.4197 5.67324L24.4197 11.4545C24.4197 12.3539 23.9334 12.8287 23.0082 12.8287L20.0693 12.8287C19.1539 12.8287 18.6676 12.3539 18.6676 11.4545L18.6676 5.67324C18.6676 4.77383 19.1539 4.29902 20.0693 4.29902L23.0082 4.29902C23.9334 4.29902 24.4197 4.77383 24.4197 5.67324Z" fill="white" fill-opacity="0.25"/>
  <path d="M12.9697 11.2041C14.7236 11.2041 16.2195 9.64003 16.2195 7.61953C16.2195 5.63886 14.7219 4.12734 12.9697 4.12734C11.2158 4.12734 9.71015 5.66464 9.71015 7.63554C9.71015 9.64003 11.2141 11.2041 12.9697 11.2041ZM7.5957 18.7115L18.334 18.7115C19.2391 18.7115 19.7848 18.2848 19.7848 17.5732C19.7848 15.4932 17.1502 12.6326 12.9697 12.6326C8.77949 12.6326 6.14492 15.4932 6.14492 17.5732C6.14492 18.2848 6.69062 18.7115 7.5957 18.7115Z" fill="white" fill-opacity="0.25"/>
 </g>
</svg>
