<?xml version="1.0" encoding="UTF-8"?>
<!--Generator: Apple Native CoreSVG 341-->
<!DOCTYPE svg
PUBLIC "-//W3C//DTD SVG 1.1//EN"
       "http://www.w3.org/Graphics/SVG/1.1/DTD/svg11.dtd">
<svg version="1.1" xmlns="http://www.w3.org/2000/svg" xmlns:xlink="http://www.w3.org/1999/xlink" viewBox="0 0 29.8332 25.2277">
 <g>
  <rect height="25.2277" opacity="0" width="29.8332" x="0" y="0"/>
  <path d="M29.4719 19.7109C29.4719 20.233 29.0473 20.6433 28.5252 20.6433C28.0146 20.6433 27.6061 20.233 27.6061 19.7109C27.6061 12.0105 21.8242 5.74039 14.7328 5.74039C13.2732 5.74039 11.8699 6.00541 10.567 6.50602L9.13366 5.07022C10.8588 4.2967 12.7508 3.87283 14.7328 3.87283C22.8471 3.87283 29.4719 10.9912 29.4719 19.7109ZM7.0174 8.55651C3.8866 11.096 1.86581 15.1529 1.86581 19.7109C1.86581 20.233 1.45097 20.6433 0.938666 20.6433C0.418357 20.6433 0 20.233 0 19.7109C0 14.6483 2.22834 10.1255 5.69581 7.23391Z" fill="white" fill-opacity="0.25"/>
  <path d="M10.4891 12.0309C7.97511 13.5933 6.41561 16.5214 6.41561 19.7189C6.41561 20.2312 5.98925 20.6398 5.47695 20.6398C4.95488 20.6398 4.53828 20.2312 4.53828 19.7189C4.53828 16.0454 6.30775 12.6409 9.14807 10.6888ZM24.9416 19.7189C24.9416 20.0417 24.7758 20.3233 24.5244 20.4873L23.0257 18.986C22.8115 16.081 21.3118 13.4776 18.9848 12.035C19.1134 11.5939 19.1824 11.1241 19.1824 10.6357C19.1824 10.4161 19.1679 10.2005 19.135 9.99172C22.6725 11.7465 24.9416 15.5604 24.9416 19.7189Z" fill="white" fill-opacity="0.25"/>
  <path d="M19.2748 20.8232L9.84433 20.8232C8.96855 20.8232 8.4371 20.4062 8.4371 19.7009C8.4371 17.94 10.4171 15.6225 13.6461 15.1902ZM17.7971 10.6357C17.7971 11.5298 17.4811 12.3294 16.9708 12.9208L12.4901 8.43239C13.0514 7.76842 13.8599 7.35837 14.7408 7.35837C16.3713 7.35837 17.7971 8.78375 17.7971 10.6357Z" fill="white" fill-opacity="0.25"/>
  <path d="M23.9476 23.7935C24.2511 24.097 24.7552 24.0953 25.0472 23.7918C25.3392 23.49 25.3508 23.0037 25.0472 22.6921L6.31288 3.95154C6.00136 3.64002 5.51327 3.64002 5.20351 3.95154C4.90976 4.24529 4.90976 4.75115 5.20351 5.05115Z" fill="white" fill-opacity="0.25"/>
 </g>
</svg>
