<?xml version="1.0" encoding="UTF-8"?>
<!--Generator: Apple Native CoreSVG 341-->
<!DOCTYPE svg
PUBLIC "-//W3C//DTD SVG 1.1//EN"
       "http://www.w3.org/Graphics/SVG/1.1/DTD/svg11.dtd">
<svg version="1.1" xmlns="http://www.w3.org/2000/svg" xmlns:xlink="http://www.w3.org/1999/xlink" viewBox="0 0 24.781 23.8513">
 <g>
  <rect height="23.8513" opacity="0" width="24.781" x="0" y="0"/>
  <path d="M4.82363 13.8274L4.82363 15.8946C4.82363 16.8003 4.3373 17.2768 3.42012 17.2768L1.40352 17.2768C0.486327 17.2768 0 16.8003 0 15.8946L0 13.8274C0 12.92 0.486327 12.4514 1.40352 12.4514L3.42012 12.4514C4.3373 12.4514 4.82363 12.928 4.82363 13.8274Z" fill="white" fill-opacity="0.25"/>
  <path d="M7.42839 10.1311L4.04687 10.1311C3.12968 10.1311 2.64336 9.66433 2.64336 8.75691L2.64336 5.345ZM12.6572 3.93347L12.6572 5.28188C11.5015 5.36217 10.4301 5.89828 9.63931 6.74162L5.46168 2.55925L11.2457 2.55925C12.1709 2.55925 12.6572 3.03406 12.6572 3.93347Z" fill="white" fill-opacity="0.25"/>
  <path d="M24.4197 8.23249L24.4197 14.0137C24.4197 14.9132 23.9334 15.388 23.0082 15.388L20.0693 15.388C19.1539 15.388 18.6676 14.9132 18.6676 14.0137L18.6676 8.23249C18.6676 7.33308 19.1539 6.85827 20.0693 6.85827L23.0082 6.85827C23.9334 6.85827 24.4197 7.33308 24.4197 8.23249Z" fill="white" fill-opacity="0.25"/>
  <path d="M18.5553 21.2605C18.4848 21.2677 18.4107 21.2708 18.334 21.2708L7.5957 21.2708C6.69062 21.2708 6.14492 20.844 6.14492 20.1325C6.14492 18.1307 8.58486 15.4061 12.5076 15.2115ZM16.2195 10.1788C16.2195 11.0892 15.9158 11.9069 15.4199 12.5287L10.6434 7.74683C11.2407 7.08865 12.0728 6.68659 12.9697 6.68659C14.7219 6.68659 16.2195 8.19812 16.2195 10.1788Z" fill="white" fill-opacity="0.25"/>
  <path d="M21.4199 22.4282C21.7217 22.7317 22.2258 22.7299 22.5195 22.4264C22.8115 22.1149 22.8213 21.6383 22.5195 21.3268L2.85293 1.64597C2.5414 1.33445 2.05332 1.34246 1.7418 1.64597C1.4498 1.93972 1.4498 2.45359 1.7418 2.74558Z" fill="white" fill-opacity="0.25"/>
 </g>
</svg>
