<?xml version="1.0" encoding="UTF-8"?>
<!--Generator: Apple Native CoreSVG 341-->
<!DOCTYPE svg
PUBLIC "-//W3C//DTD SVG 1.1//EN"
       "http://www.w3.org/Graphics/SVG/1.1/DTD/svg11.dtd">
<svg version="1.1" xmlns="http://www.w3.org/2000/svg" xmlns:xlink="http://www.w3.org/1999/xlink" viewBox="0 0 29.8332 17.482">
 <g>
  <rect height="17.482" opacity="0" width="29.8332" x="0" y="0"/>
  <path d="M29.4719 15.8381C29.4719 16.3601 29.0473 16.7705 28.5252 16.7705C28.0146 16.7705 27.6061 16.3601 27.6061 15.8381C27.6061 8.13769 21.8242 1.86757 14.7328 1.86757C7.63339 1.86757 1.86581 8.13769 1.86581 15.8381C1.86581 16.3601 1.45097 16.7705 0.938666 16.7705C0.418357 16.7705 0 16.3601 0 15.8381C0 7.11836 6.61054 0 14.7328 0C22.8471 0 29.4719 7.11836 29.4719 15.8381Z" fill="white" fill-opacity="0.25"/>
  <path d="M10.2975 6.78066C10.2975 7.26069 10.3644 7.72301 10.4901 8.15742C7.97552 9.71971 6.41561 12.6481 6.41561 15.8461C6.41561 16.3584 5.98925 16.767 5.47695 16.767C4.95488 16.767 4.53828 16.3584 4.53828 15.8461C4.53828 11.6782 6.81609 7.85655 10.3492 6.10662C10.3133 6.32523 10.2975 6.55089 10.2975 6.78066ZM24.9416 15.8461C24.9416 16.3584 24.524 16.767 24.01 16.767C23.4977 16.767 23.0562 16.3584 23.0562 15.8461C23.0562 12.6512 21.5062 9.72533 18.9848 8.16214C19.1134 7.72111 19.1824 7.25129 19.1824 6.76288C19.1824 6.54326 19.1679 6.32768 19.135 6.11889C22.6725 7.87371 24.9416 11.6876 24.9416 15.8461Z" fill="white" fill-opacity="0.25"/>
  <path d="M14.7408 10.1166C16.3891 10.1166 17.7971 8.65019 17.7971 6.76288C17.7971 4.91093 16.3713 3.48554 14.7408 3.48554C13.0846 3.48554 11.6846 4.93495 11.6846 6.7789C11.6846 8.65019 13.0828 10.1166 14.7408 10.1166ZM9.84433 16.9504L19.6195 16.9504C20.4873 16.9504 21.0348 16.5334 21.0348 15.8281C21.0348 13.875 18.591 11.2373 14.7408 11.2373C10.8728 11.2373 8.4371 13.875 8.4371 15.8281C8.4371 16.5334 8.96855 16.9504 9.84433 16.9504Z" fill="white" fill-opacity="0.25"/>
 </g>
</svg>
