<?xml version="1.0" encoding="UTF-8"?>
<!--Generator: Apple Native CoreSVG 341-->
<!DOCTYPE svg
PUBLIC "-//W3C//DTD SVG 1.1//EN"
       "http://www.w3.org/Graphics/SVG/1.1/DTD/svg11.dtd">
<svg version="1.1" xmlns="http://www.w3.org/2000/svg" xmlns:xlink="http://www.w3.org/1999/xlink" viewBox="0 0 20.5381 20.1848">
 <g>
  <rect height="20.1848" opacity="0" width="20.5381" x="0" y="0"/>
  <path d="M10.0875 20.175C15.6576 20.175 20.1767 15.6559 20.1767 10.0875C20.1767 4.51914 15.6576 0 10.0875 0C4.51914 0 0 4.51914 0 10.0875C0 15.6559 4.51914 20.175 10.0875 20.175ZM10.0875 18.1879C5.60839 18.1879 1.9871 14.5666 1.9871 10.0875C1.9871 5.60839 5.60839 1.9871 10.0875 1.9871C14.5666 1.9871 18.1897 5.60839 18.1897 10.0875C18.1897 14.5666 14.5666 18.1879 10.0875 18.1879Z" fill="white" fill-opacity="0.25"/>
  <path d="M9.33007 6.03515C9.72343 5.64179 9.7332 5.04511 9.33984 4.66152C8.97226 4.27792 8.35781 4.24687 7.96445 4.61269C7.91562 4.68905 6.48163 6.04491 5.68339 6.93105C4.95526 7.71953 4.60097 8.7371 4.66581 9.77773C4.73241 10.8637 5.24296 11.8635 6.09804 12.5934C6.78261 13.19 7.68476 13.4875 8.58867 13.4875C9.53164 13.4875 10.4551 13.1803 11.1574 12.5268C11.668 12.0863 12.2451 11.4586 12.2611 11.4488C12.6287 11.0439 12.5994 10.4295 12.2141 10.0752C11.8207 9.6916 11.1947 9.71914 10.8387 10.1223C10.8209 10.1223 10.3103 10.6994 9.85839 11.0928C9.12851 11.7383 7.96445 11.6326 7.35976 11.1318C6.91757 10.7287 6.66542 10.2199 6.62636 9.67031C6.57929 9.14199 6.77284 8.64121 7.12714 8.25761C7.86855 7.41054 9.3123 6.04491 9.33007 6.03515ZM10.8387 14.3168C10.4435 14.7102 10.4338 15.3148 10.8209 15.6904C11.1947 16.0855 11.8012 16.1131 12.1963 15.7473C12.2611 15.6709 13.6853 14.307 14.4836 13.4209C15.2055 12.6404 15.5598 11.6326 15.5029 10.576C15.4363 9.49804 14.9258 8.48847 14.0902 7.7666C13.3781 7.16191 12.484 6.87245 11.5721 6.87245C10.6273 6.87245 9.72343 7.17968 9.00331 7.82519C8.49277 8.26562 7.91562 8.89335 7.90761 8.91113C7.53202 9.32402 7.55956 9.94023 7.95468 10.2848C8.34804 10.6603 8.97226 10.6426 9.33007 10.2492C9.33984 10.2297 9.85839 9.64277 10.3103 9.26718C11.0322 8.61367 12.1963 8.7371 12.801 9.22812C13.2432 9.63125 13.5016 10.132 13.5326 10.6994C13.5877 11.218 13.3879 11.7187 13.0336 12.1219C12.3002 12.9494 10.8484 14.307 10.8387 14.3168Z" fill="white" fill-opacity="0.25"/>
 </g>
</svg>
