<?xml version="1.0" encoding="UTF-8"?>
<!--Generator: Apple Native CoreSVG 341-->
<!DOCTYPE svg
PUBLIC "-//W3C//DTD SVG 1.1//EN"
       "http://www.w3.org/Graphics/SVG/1.1/DTD/svg11.dtd">
<svg version="1.1" xmlns="http://www.w3.org/2000/svg" xmlns:xlink="http://www.w3.org/1999/xlink" viewBox="0 0 20.5381 20.1848">
 <g>
  <rect height="20.1848" opacity="0" width="20.5381" x="0" y="0"/>
  <path d="M20.1767 10.0973C20.1767 15.6656 15.6576 20.1848 10.0875 20.1848C4.52715 20.1848 0 15.6656 0 10.0973C0 4.53691 4.52715 0.00976562 10.0875 0.00976562C15.6576 0.00976562 20.1767 4.53691 20.1767 10.0973ZM8.96699 7.74902C8.43163 8.21074 7.83144 8.86152 7.82343 8.87304C7.43456 9.29921 7.46386 9.94023 7.8705 10.298C8.2789 10.6932 8.92617 10.6674 9.30351 10.259C9.31503 10.2492 9.84863 9.62949 10.3201 9.24062C11.0685 8.56406 12.2805 8.68925 12.9064 9.20156C13.3637 9.61972 13.6353 10.1498 13.6664 10.7322C13.7215 11.2658 13.5199 11.7879 13.1523 12.2061C12.3844 13.0682 10.875 14.4754 10.8652 14.4932C10.4568 14.9078 10.4471 15.5275 10.8439 15.9244C11.2426 16.3328 11.8721 16.3523 12.2805 15.975C12.3453 15.8951 13.8289 14.4754 14.6537 13.5707C15.4084 12.7477 15.776 11.7018 15.7174 10.5973C15.641 9.483 15.1154 8.4291 14.2453 7.68066C13.5084 7.06093 12.5779 6.75019 11.6314 6.75019C10.6504 6.75019 9.7039 7.0707 8.96699 7.74902ZM7.88027 4.40449C7.83144 4.48437 6.33808 5.89785 5.51327 6.81054C4.75234 7.63359 4.38476 8.68925 4.4496 9.78222C4.52773 10.8982 5.05156 11.9344 5.94296 12.7006C6.65058 13.3186 7.59081 13.6293 8.52929 13.6293C9.50859 13.6293 10.4666 13.3088 11.1937 12.6305C11.7291 12.1705 12.3293 11.518 12.3453 11.5082C12.7244 11.09 12.6969 10.4508 12.2982 10.0832C11.8898 9.68632 11.2426 9.70761 10.8652 10.132C10.8439 10.132 10.3201 10.7322 9.84863 11.1389C9.09042 11.8172 7.88027 11.7018 7.25253 11.1797C6.79531 10.7615 6.53163 10.2297 6.49433 9.65878C6.44726 9.11542 6.64081 8.59335 7.00839 8.19472C7.78437 7.31308 9.28398 5.89785 9.30351 5.88007C9.7039 5.47343 9.72167 4.85195 9.31503 4.45683C8.92617 4.0662 8.28867 4.02714 7.88027 4.40449Z" fill="white" fill-opacity="0.25"/>
 </g>
</svg>
