<?xml version="1.0" encoding="UTF-8"?>
<!--Generator: Apple Native CoreSVG 341-->
<!DOCTYPE svg
PUBLIC "-//W3C//DTD SVG 1.1//EN"
       "http://www.w3.org/Graphics/SVG/1.1/DTD/svg11.dtd">
<svg version="1.1" xmlns="http://www.w3.org/2000/svg" xmlns:xlink="http://www.w3.org/1999/xlink" viewBox="0 0 20.5461 20.2043">
 <g>
  <rect height="20.2043" opacity="0" width="20.5461" x="0" y="0"/>
  <path d="M10.0875 20.1848C15.6576 20.1848 20.1848 15.6656 20.1848 10.0973C20.1848 4.5289 15.6576 0 10.0875 0C4.51914 0 0 4.5289 0 10.0973C0 15.6656 4.51914 20.1848 10.0875 20.1848ZM10.0875 18.1897C5.61815 18.1897 1.87323 14.5684 1.87323 10.0973C1.87323 5.62616 5.61815 1.99686 10.0875 1.99686C14.5586 1.99686 18.3533 5.83964 18.3533 10.0973C18.3533 14.3309 14.5586 18.1897 10.0875 18.1897ZM4.93359 15.2529C7.52246 15.2529 9.62617 13.8861 11.4928 12.3414L10.1213 11.0434C8.59395 12.3318 6.89219 13.4215 4.93359 13.4215C3.07499 13.4215 1.87323 12.0748 1.87323 10.0973C1.87323 8.06991 3.01893 6.77303 4.93359 6.77303C7.01875 6.77303 8.77305 8.37089 10.7437 10.2422C12.7779 12.2035 14.5984 13.8865 16.8301 13.8865C18.7484 13.8865 20.1848 12.3445 20.1848 10.0973C20.1848 8.2373 18.6951 6.8043 16.7795 6.8043C15.5102 6.8043 14.3141 7.50645 13.0336 8.54825L14.4131 9.85957C15.4848 8.97636 16.1205 8.63573 16.7865 8.63573C17.702 8.63573 18.3516 9.29159 18.3516 10.2035C18.3516 11.2951 17.6779 12.0551 16.7145 12.0551C15.3387 12.0551 13.9793 10.8363 12.1664 9.07051C10.0252 6.98614 7.7664 4.9416 4.93359 4.9416C2.04004 4.9416 0 7.06601 0 10.0973C0 13.0289 2.12988 15.2529 4.93359 15.2529Z" fill="white" fill-opacity="0.25"/>
 </g>
</svg>
