<?xml version="1.0" encoding="UTF-8"?>
<!--Generator: Apple Native CoreSVG 341-->
<!DOCTYPE svg
PUBLIC "-//W3C//DTD SVG 1.1//EN"
       "http://www.w3.org/Graphics/SVG/1.1/DTD/svg11.dtd">
<svg version="1.1" xmlns="http://www.w3.org/2000/svg" xmlns:xlink="http://www.w3.org/1999/xlink" viewBox="0 0 20.3037 22.3345">
 <g>
  <rect height="22.3345" opacity="0" width="20.3037" x="0" y="0"/>
  <path d="M10.5285 20.1723C10.1732 20.3784 9.76913 20.3784 9.42187 20.1723L2.44725 16.1403C2.116 15.9422 1.9162 15.619 1.90018 15.2469L1.90018 15.0471L3.87753 13.2668C4.28769 12.8975 4.7078 12.7217 5.15956 12.7217C5.6328 12.7217 6.0998 12.909 6.51796 13.2864L8.37089 14.952L12.8935 10.9106C13.349 10.5057 13.8453 10.3139 14.3967 10.3139C14.9268 10.3139 15.4603 10.5235 15.8963 10.9301L18.0484 12.9411L18.0484 15.1909C18.0484 15.587 17.8504 15.9342 17.5031 16.1403ZM6.76093 11.2125C5.43827 11.2125 4.35175 10.126 4.35175 8.80336C4.35175 7.49047 5.43827 6.40219 6.76093 6.40219C8.07382 6.40219 9.15233 7.49047 9.15233 8.80336C9.15233 10.126 8.07382 11.2125 6.76093 11.2125ZM1.1959 17.6088L8.77754 21.9936C9.53339 22.4354 10.409 22.4354 11.1728 21.9936L18.7465 17.6088C19.4988 17.1803 19.9424 16.4112 19.9424 15.5391L19.9424 6.78559C19.9424 5.91352 19.4988 5.14438 18.7465 4.70786L11.1728 0.337353C10.409-0.112451 9.53339-0.112451 8.77754 0.337353L1.1959 4.70786C0.443553 5.14438 0 5.91352 0 6.78559L0 15.5391C0 16.4112 0.443553 17.1803 1.1959 17.6088Z" fill="white" fill-opacity="0.25"/>
 </g>
</svg>
