<?xml version="1.0" encoding="UTF-8"?>
<!--Generator: Apple Native CoreSVG 341-->
<!DOCTYPE svg
PUBLIC "-//W3C//DTD SVG 1.1//EN"
       "http://www.w3.org/Graphics/SVG/1.1/DTD/svg11.dtd">
<svg version="1.1" xmlns="http://www.w3.org/2000/svg" xmlns:xlink="http://www.w3.org/1999/xlink" viewBox="0 0 22.4275 22.3345">
 <g>
  <rect height="22.3345" opacity="0" width="22.4275" x="0" y="0"/>
  <path d="M3.35065 6.29279C3.09757 6.50154 2.95721 6.80038 2.95721 7.13383L2.95721 15.1909C2.95721 15.1919 2.95721 15.1929 2.95731 15.1939L5.09823 13.2846C5.50038 12.9233 5.90449 12.7475 6.34648 12.7475C6.81171 12.7475 7.25644 12.9331 7.6746 13.3024L9.47597 14.9262L10.8005 13.7398L16.5551 19.4921L12.2299 21.9936C11.466 22.4354 10.5984 22.4354 9.83281 21.9936L2.26093 17.6088C1.50859 17.1803 1.06504 16.4112 1.06504 15.5391L1.06504 6.78559C1.06504 6.03465 1.39393 5.36004 1.96633 4.909ZM12.2299 0.337353L19.8115 4.70786C20.5558 5.14438 21.0074 5.91352 21.0074 6.78559L21.0074 15.5391C21.0074 16.2972 20.6661 16.9776 20.0876 17.4237L13.7556 11.0929L13.8768 10.9844C14.3242 10.5875 14.8045 10.4038 15.3478 10.4038C15.8699 10.4038 16.3777 10.6053 16.8057 11.004L19.1135 13.165L19.1135 7.13383C19.1135 6.73773 18.9074 6.39047 18.5602 6.18441L11.5855 2.15238C11.2383 1.94457 10.8342 1.94457 10.4789 2.15238L6.88905 4.22768L5.4996 2.8385L9.83281 0.337353C10.5984-0.112451 11.466-0.112451 12.2299 0.337353ZM8.3386 11.2788C8.20337 11.3057 8.06354 11.3188 7.92089 11.3188C6.63026 11.3188 5.57753 10.2661 5.57753 8.97543C5.57753 8.8332 5.59051 8.69366 5.61733 8.55858Z" fill="white" fill-opacity="0.25"/>
  <path d="M19.5408 20.7813C19.8426 21.083 20.3467 21.0768 20.6404 20.7733C20.9404 20.4635 20.9422 19.9772 20.6404 19.6737L2.53515 1.56391C2.23339 1.26216 1.72929 1.26216 1.42578 1.56391C1.12578 1.86567 1.12578 2.37153 1.42578 2.66352Z" fill="white" fill-opacity="0.25"/>
 </g>
</svg>
