<?xml version="1.0" encoding="UTF-8"?>
<!--Generator: Apple Native CoreSVG 341-->
<!DOCTYPE svg
PUBLIC "-//W3C//DTD SVG 1.1//EN"
       "http://www.w3.org/Graphics/SVG/1.1/DTD/svg11.dtd">
<svg version="1.1" xmlns="http://www.w3.org/2000/svg" xmlns:xlink="http://www.w3.org/1999/xlink" viewBox="0 0 22.4275 22.3345">
 <g>
  <rect height="22.3345" opacity="0" width="22.4275" x="0" y="0"/>
  <path d="M5.44782 8.38914C5.42136 8.52341 5.40878 8.66208 5.40878 8.80336C5.40878 10.126 6.4953 11.2125 7.81796 11.2125C7.95966 11.2125 8.09863 11.1999 8.23307 11.1733L10.7956 13.7348L9.43593 14.952L7.583 13.2864C7.15683 12.909 6.69784 12.7217 6.2246 12.7217C5.77284 12.7217 5.35273 12.8975 4.94257 13.2668L2.96522 15.0471L2.96522 15.2469C2.98124 15.619 3.17128 15.9422 3.50428 16.1403L10.4789 20.1723C10.8262 20.3784 11.2383 20.3784 11.5855 20.1723L15.1653 18.1028L16.5551 19.4921L12.2299 21.9936C11.466 22.4354 10.5984 22.4354 9.83281 21.9936L2.26093 17.6088C1.50859 17.1803 1.06504 16.4112 1.06504 15.5391L1.06504 6.78559C1.06504 6.03465 1.39393 5.36004 1.96633 4.909ZM12.2299 0.337353L19.8115 4.70786C20.5558 5.14438 21.0074 5.91352 21.0074 6.78559L21.0074 15.5391C21.0074 16.2972 20.6661 16.9776 20.0876 17.4237L18.7037 16.0401C18.9636 15.8309 19.1135 15.5287 19.1135 15.1909L19.1135 12.9411L16.9533 10.9301C16.5174 10.5235 15.9918 10.3139 15.4617 10.3139C14.9023 10.3139 14.406 10.5057 13.9506 10.9106L13.7515 11.0888L5.4996 2.8385L9.83281 0.337353C10.5984-0.112451 11.466-0.112451 12.2299 0.337353Z" fill="white" fill-opacity="0.25"/>
  <path d="M19.5408 20.7813C19.8426 21.083 20.3467 21.0768 20.6404 20.7733C20.9404 20.4635 20.9422 19.9772 20.6404 19.6737L2.53515 1.56391C2.23339 1.26216 1.72929 1.26216 1.42578 1.56391C1.12578 1.86567 1.12578 2.37153 1.42578 2.66352Z" fill="white" fill-opacity="0.25"/>
 </g>
</svg>
