<?xml version="1.0" encoding="UTF-8"?>
<!--Generator: Apple Native CoreSVG 341-->
<!DOCTYPE svg
PUBLIC "-//W3C//DTD SVG 1.1//EN"
       "http://www.w3.org/Graphics/SVG/1.1/DTD/svg11.dtd">
<svg version="1.1" xmlns="http://www.w3.org/2000/svg" xmlns:xlink="http://www.w3.org/1999/xlink" viewBox="0 0 24.0558 22.5712">
 <g>
  <rect height="22.5712" opacity="0" width="24.0558" x="0" y="0"/>
  <path d="M10.0865 0.480711L13.8092 2.62992C13.7415 2.66005 13.6751 2.69508 13.6098 2.73383L12.0436 3.63816L9.4873 2.1559C9.16757 1.97914 8.82656 1.97914 8.51659 2.1559L2.23632 5.79281C1.9246 5.97309 1.75409 6.27504 1.75409 6.62406L1.75409 13.8748C1.75409 14.2159 1.9246 14.5338 2.23632 14.7141L5.71839 16.7243C5.80336 17.4002 6.19153 17.9782 6.78808 18.326L9.88767 20.1195C9.24501 20.4136 8.52554 20.3781 7.90937 20.0182L1.08769 16.0729C0.400975 15.6834 0 14.9897 0 14.1868L0 6.31215C0 5.50922 0.400975 4.81548 1.08769 4.41802L7.90937 0.480711C8.58984 0.0752433 9.39628 0.0734855 10.0865 0.480711Z" fill="white" fill-opacity="0.25"/>
  <path d="M6.78808 18.326L13.6098 22.2731C14.2902 22.6705 15.0949 22.6705 15.7869 22.2731L22.6051 18.326C23.2775 17.9303 23.6945 17.2366 23.6945 16.4399L23.6945 8.55726C23.6945 7.76234 23.2855 7.0686 22.6051 6.67289L15.7869 2.73383C15.0949 2.33012 14.2902 2.33012 13.6098 2.73383L6.78808 6.67289C6.10136 7.0686 5.70038 7.76234 5.70038 8.55726L5.70038 16.4399C5.70038 17.2366 6.10937 17.9303 6.78808 18.326ZM7.45447 16.128L7.45447 8.87894C7.45447 8.52816 7.62498 8.22621 7.93494 8.04593L14.217 4.41077C14.5269 4.23226 14.868 4.23226 15.1877 4.41077L21.46 8.04593C21.7619 8.22621 21.9404 8.52816 21.9404 8.87894L21.9404 16.128C21.9404 16.461 21.7717 16.7807 21.46 16.961L15.1877 20.5881C14.868 20.7666 14.5269 20.7666 14.209 20.5881L7.93494 16.961C7.61697 16.7807 7.45447 16.461 7.45447 16.128ZM6.53847 16.8926L14.6359 21.4756L22.8644 16.7289L22.8644 15.1008L19.9142 12.3352C19.5236 11.9676 19.0406 11.7936 18.5754 11.7936C18.0986 11.7936 17.6512 11.9579 17.2445 12.3254L13.2912 15.8588L11.6879 14.4073C11.3168 14.069 10.9066 13.887 10.4822 13.887C10.0633 13.887 9.70448 14.0672 9.33514 14.3975ZM12.0051 12.5766C13.1732 12.5766 14.1426 11.6153 14.1426 10.4453C14.1426 9.27719 13.1732 8.30609 12.0051 8.30609C10.8289 8.30609 9.87557 9.27719 9.87557 10.4453C9.87557 11.6153 10.8289 12.5766 12.0051 12.5766Z" fill="white" fill-opacity="0.25"/>
 </g>
</svg>
