<?xml version="1.0" encoding="UTF-8"?>
<!--Generator: Apple Native CoreSVG 341-->
<!DOCTYPE svg
PUBLIC "-//W3C//DTD SVG 1.1//EN"
       "http://www.w3.org/Graphics/SVG/1.1/DTD/svg11.dtd">
<svg version="1.1" xmlns="http://www.w3.org/2000/svg" xmlns:xlink="http://www.w3.org/1999/xlink" viewBox="0 0 26.0193 25.2467">
 <g>
  <rect height="25.2467" opacity="0" width="26.0193" x="0" y="0"/>
  <path d="M11.042 1.81845L13.3758 3.16617L7.07089 6.81611C5.94609 7.47255 5.30878 8.62665 5.30878 9.87899L5.30878 17.7536C5.30878 18.3982 5.47388 18.9961 5.76677 19.51L2.06719 17.3688C1.38848 16.9829 0.987501 16.2954 0.987501 15.5005L0.987501 7.62587C0.987501 6.8372 1.38848 6.15322 2.06719 5.75576L8.88711 1.81845C9.56933 1.41924 10.358 1.41924 11.042 1.81845Z" fill="white" fill-opacity="0.25"/>
  <path d="M7.76757 19.6237L14.5875 23.569C15.2697 23.9682 16.0584 23.9682 16.7424 23.569L23.5605 19.6237C24.241 19.236 24.6322 18.5423 24.6322 17.7536L24.6322 9.87899C24.6322 9.08407 24.241 8.40634 23.5605 8.01064L16.7424 4.07157C16.0584 3.67411 15.2697 3.67411 14.5875 4.07157L7.76757 8.01064C7.08886 8.40634 6.68788 9.08407 6.68788 9.87899L6.68788 17.7536C6.68788 18.5423 7.08886 19.236 7.76757 19.6237ZM12.9027 13.8085C11.7105 13.8085 10.7394 12.8311 10.7394 11.6434C10.7394 10.4593 11.7105 9.48016 12.9027 9.48016C14.0869 9.48016 15.0562 10.4593 15.0562 11.6434C15.0562 12.8311 14.0869 13.8085 12.9027 13.8085ZM16.1672 21.9259C15.8492 22.1124 15.4824 22.1124 15.1724 21.9259L8.89041 18.2987C8.58846 18.1184 8.41619 17.8227 8.40819 17.4977L8.40819 17.3183L10.183 15.7112C10.5523 15.3809 10.9289 15.2167 11.3381 15.2167C11.7625 15.2167 12.1824 15.3907 12.5615 15.729L14.2289 17.2304L18.2978 13.5974C18.7125 13.2298 19.1439 13.0575 19.6447 13.0575C20.126 13.0575 20.6107 13.2413 20.9996 13.6071L22.9359 15.4235L22.9359 17.4417C22.9359 17.7907 22.7512 18.1104 22.4394 18.2987Z" fill="white" fill-opacity="0.25"/>
 </g>
</svg>
