<?xml version="1.0" encoding="UTF-8"?>
<!--Generator: Apple Native CoreSVG 341-->
<!DOCTYPE svg
PUBLIC "-//W3C//DTD SVG 1.1//EN"
       "http://www.w3.org/Graphics/SVG/1.1/DTD/svg11.dtd">
<svg version="1.1" xmlns="http://www.w3.org/2000/svg" xmlns:xlink="http://www.w3.org/1999/xlink" viewBox="0 0 20.3037 22.3345">
 <g>
  <rect height="22.3345" opacity="0" width="20.3037" x="0" y="0"/>
  <path d="M0.950778 16.0407L9.90488 21.103L19.0058 15.845L19.0058 14.0616L15.7486 11.004C15.3207 10.6053 14.8049 10.4038 14.2828 10.4038C13.7475 10.4038 13.2672 10.5875 12.8197 10.9844L8.41093 14.9262L6.60956 13.3024C6.19941 12.9331 5.74667 12.7475 5.28144 12.7475C4.83945 12.7475 4.43534 12.9233 4.0332 13.2846ZM6.86385 11.3188C8.14471 11.3188 9.19745 10.2661 9.19745 8.97543C9.19745 7.69457 8.14471 6.63207 6.86385 6.63207C5.57323 6.63207 4.5205 7.69457 4.5205 8.97543C4.5205 10.2661 5.57323 11.3188 6.86385 11.3188ZM1.1959 17.6088L8.77754 21.9936C9.53339 22.4354 10.409 22.4354 11.1728 21.9936L18.7465 17.6088C19.4988 17.1803 19.9424 16.4112 19.9424 15.5391L19.9424 6.78559C19.9424 5.91352 19.4988 5.14438 18.7465 4.70786L11.1728 0.337353C10.409-0.112451 9.53339-0.112451 8.77754 0.337353L1.1959 4.70786C0.443553 5.14438 0 5.91352 0 6.78559L0 15.5391C0 16.4112 0.443553 17.1803 1.1959 17.6088ZM1.89217 15.1909L1.89217 7.13383C1.89217 6.73773 2.09999 6.39047 2.44725 6.18441L9.42187 2.15238C9.76913 1.94457 10.1732 1.94457 10.5205 2.15238L17.5031 6.18441C17.8504 6.39047 18.0484 6.73773 18.0484 7.13383L18.0484 15.1909C18.0484 15.587 17.8504 15.9342 17.5031 16.1403L10.5285 20.1723C10.1732 20.3784 9.76913 20.3784 9.42187 20.1723L2.44725 16.1403C2.09999 15.9342 1.89217 15.587 1.89217 15.1909Z" fill="white" fill-opacity="0.25"/>
 </g>
</svg>
