<?xml version="1.0" encoding="UTF-8"?>
<!--Generator: Apple Native CoreSVG 341-->
<!DOCTYPE svg
PUBLIC "-//W3C//DTD SVG 1.1//EN"
       "http://www.w3.org/Graphics/SVG/1.1/DTD/svg11.dtd">
<svg version="1.1" xmlns="http://www.w3.org/2000/svg" xmlns:xlink="http://www.w3.org/1999/xlink" viewBox="0 0 22.3994 19.7613">
 <g>
  <rect height="19.7613" opacity="0" width="22.3994" x="0" y="0"/>
  <path d="M20.5389 11.1584C20.5389 9.59706 20.0631 7.41347 18.7885 5.21836C19.3849 6.76464 19.7728 8.50527 19.7728 10.2246C19.7728 15.9596 15.1234 19.0867 9.57753 19.0867C9.17187 19.0867 8.78222 19.0689 8.40761 19.0379C9.35117 19.3476 10.6924 19.5367 11.8951 19.5367C15.6303 19.5367 16.6635 17.7961 18.8293 17.7961C20.64 17.7961 21.3537 19.0103 21.6324 19.4861C21.7123 19.6344 21.8508 19.7355 21.9324 19.4471C21.9812 19.2367 22.0381 18.958 22.0381 18.6224C22.0381 17.6674 21.7416 15.8486 20.151 13.8523C20.4998 12.8777 20.5389 11.7957 20.5389 11.1584ZM15.024 1.04121C16.7629 3.22832 17.9168 6.02168 17.9168 8.83456C17.9168 13.792 14.2678 17.2795 9.0707 17.2795C6.00214 17.2795 3.25937 15.8584 1.62969 14.7453C3.8248 17.0807 7.05312 18.5816 9.59706 18.5816C14.8465 18.5816 19.2775 14.9947 19.2775 9.64941C19.2775 6.27109 17.6576 3.18926 15.024 1.04121ZM17.291 8.42714C17.291 5.17754 15.7998 2.10547 13.5248 0C14.6459 1.58086 16.1469 3.99433 16.1469 7.33183C16.1469 8.54609 15.8193 9.87577 15.5504 10.5406C12.6203 8.84433 7.01406 4.17363 4.77812 1.78945C6.57734 4.55175 8.70585 7.05312 11.0687 9.67695C7.89101 7.66289 4.92988 5.41543 2.17558 2.95137C4.81894 6.78593 8.1582 10.5637 12.5715 14.1293C11.3066 14.8332 10.016 15.3826 7.78984 15.3826C5.09765 15.3826 1.79746 14.0805 0 12.6203C2.10547 14.9148 5.26718 16.6537 8.64374 16.6537C13.2478 16.6537 17.291 13.8523 17.291 8.42714Z" fill="white" fill-opacity="0.25"/>
 </g>
</svg>
