<?xml version="1.0" encoding="UTF-8"?>
<!--Generator: Apple Native CoreSVG 341-->
<!DOCTYPE svg
PUBLIC "-//W3C//DTD SVG 1.1//EN"
       "http://www.w3.org/Graphics/SVG/1.1/DTD/svg11.dtd">
<svg version="1.1" xmlns="http://www.w3.org/2000/svg" xmlns:xlink="http://www.w3.org/1999/xlink" viewBox="0 0 22.6666 18.6394">
 <g>
  <rect height="18.6394" opacity="0" width="22.6666" x="0" y="0"/>
  <path d="M2.41738 13.4004L4.23847 13.4004C4.93261 13.4004 5.33202 13.0062 5.33202 12.2988L5.33202 10.4662C5.33202 9.76054 4.93261 9.3664 4.23847 9.3664L2.41738 9.3664C1.70996 9.3664 1.30254 9.76054 1.30254 10.4662L1.30254 12.2988C1.30254 13.0062 1.70996 13.4004 2.41738 13.4004ZM7.63867 13.4004L9.46776 13.4004C10.1619 13.4004 10.5631 13.0062 10.5631 12.2988L10.5631 10.4662C10.5631 9.76054 10.1619 9.3664 9.46776 9.3664L7.63867 9.3664C6.93124 9.3664 6.51581 9.76054 6.51581 10.4662L6.51581 12.2988C6.51581 13.0062 6.93124 13.4004 7.63867 13.4004ZM12.8582 13.4004L14.6695 13.4004C15.3752 13.4004 15.7924 13.0062 15.7924 12.2988L15.7924 10.4662C15.7924 9.76054 15.3752 9.3664 14.6695 9.3664L12.8582 9.3664C12.1525 9.3664 11.7549 9.76054 11.7549 10.4662L11.7549 12.2988C11.7549 13.0062 12.1525 13.4004 12.8582 13.4004ZM18.068 13.4004L19.8908 13.4004C20.5965 13.4004 21.0234 13.0062 21.0234 12.2988L21.0234 10.4662C21.0234 9.76054 20.5965 9.3664 19.8908 9.3664L18.068 9.3664C17.3738 9.3664 16.9762 9.76054 16.9762 10.4662L16.9762 12.2988C16.9762 13.0062 17.3738 13.4004 18.068 13.4004ZM2.38808 18.6297L4.21894 18.6297C4.92284 18.6297 5.33202 18.2355 5.33202 17.5281L5.33202 15.6857C5.33202 14.9898 4.92284 14.5824 4.21894 14.5824L2.38808 14.5824C1.70019 14.5824 1.30254 14.9898 1.30254 15.6857L1.30254 17.5281C1.30254 18.2355 1.70019 18.6297 2.38808 18.6297ZM7.61562 18.6297L14.7023 18.6297C15.4142 18.6297 15.8021 18.2355 15.8021 17.5281L15.8021 15.6857C15.8021 14.9898 15.4142 14.5824 14.7023 14.5824L7.61562 14.5824C6.91171 14.5824 6.51581 14.9898 6.51581 15.6857L6.51581 17.5281C6.51581 18.2355 6.91171 18.6297 7.61562 18.6297ZM18.107 18.6297L19.9299 18.6297C20.6355 18.6297 21.0234 18.2355 21.0234 17.5281L21.0234 15.6857C21.0234 14.9898 20.6355 14.5824 19.9299 14.5824L18.107 14.5824C17.3951 14.5824 16.9859 14.9898 16.9859 15.6857L16.9859 17.5281C16.9859 18.2355 17.3951 18.6297 18.107 18.6297ZM11.1486 0C7.37363 0 3.26582 0.688475 1.25508 2.74902C0.4625 3.54961 0 4.55078 0 5.78222C0 6.71523 0.295311 7.96874 1.36171 8.04081C1.61484 8.10488 1.87148 8.07558 2.18769 8.03027L4.95019 7.56777C5.91328 7.40976 6.36152 7.05117 6.6207 6.11738L7.08496 4.46992C7.17109 4.13964 7.27656 4.01367 7.66289 3.87246C8.42792 3.59726 9.64785 3.44375 11.1486 3.4455C12.6557 3.44726 13.8676 3.59726 14.6344 3.87246C15.0207 4.01367 15.1324 4.13964 15.2203 4.46992L15.6828 6.11738C15.942 7.05117 16.3902 7.40976 17.3551 7.56777L20.1176 8.03027C20.4338 8.07558 20.6824 8.10488 20.9435 8.04081C22.0019 7.96874 22.3053 6.71523 22.3053 5.78222C22.3053 4.55078 21.8348 3.54961 21.0502 2.74902C19.0297 0.688475 14.9219 0 11.1486 0Z" fill="white" fill-opacity="0.25"/>
 </g>
</svg>
