<?xml version="1.0" encoding="UTF-8"?>
<!--Generator: Apple Native CoreSVG 341-->
<!DOCTYPE svg
PUBLIC "-//W3C//DTD SVG 1.1//EN"
       "http://www.w3.org/Graphics/SVG/1.1/DTD/svg11.dtd">
<svg version="1.1" xmlns="http://www.w3.org/2000/svg" xmlns:xlink="http://www.w3.org/1999/xlink" viewBox="0 0 20.5381 20.1848">
 <g>
  <rect height="20.1848" opacity="0" width="20.5381" x="0" y="0"/>
  <path d="M10.0875 20.175C15.6576 20.175 20.1767 15.6559 20.1767 10.0875C20.1767 4.51914 15.6576 0 10.0875 0C4.51914 0 0 4.51914 0 10.0875C0 15.6559 4.51914 20.175 10.0875 20.175ZM10.0875 18.1879C5.60839 18.1879 1.9871 14.5666 1.9871 10.0875C1.9871 5.60839 5.60839 1.9871 10.0875 1.9871C14.5666 1.9871 18.1897 5.60839 18.1897 10.0875C18.1897 14.5666 14.5666 18.1879 10.0875 18.1879Z" fill="white" fill-opacity="0.25"/>
  <path d="M5.91152 13.1197C7.23456 14.4508 8.83027 15.4631 10.1223 15.4631C10.7252 15.4631 11.2437 15.2242 11.5883 14.8326C11.9213 14.4703 12.0357 14.1889 12.0357 13.9402C12.0357 13.7484 11.9168 13.5779 11.6228 13.3684L10.5146 12.5799C10.2367 12.3801 10.1213 12.3428 9.94902 12.3428C9.80605 12.3428 9.69238 12.3721 9.46152 12.5035L8.73691 12.8969C8.65077 12.9422 8.61171 12.9537 8.54511 12.9537C8.46074 12.9537 8.41191 12.9324 8.32402 12.8934C7.97324 12.7326 7.48573 12.3588 7.05507 11.9299C6.63417 11.4992 6.31093 11.0543 6.11913 10.724C6.10761 10.6752 6.08007 10.6006 6.08007 10.5242C6.08007 10.4674 6.10585 10.4168 6.14491 10.3564L6.56405 9.63183C6.67773 9.42402 6.71679 9.32812 6.71679 9.16562C6.71679 8.98534 6.66796 8.79706 6.48593 8.55468L5.7205 7.49179C5.51093 7.19609 5.32987 7.00956 5.09101 7.00956C4.7873 7.00956 4.43124 7.24667 4.16308 7.4953C3.78124 7.85937 3.58144 8.3664 3.58144 8.93027C3.58144 10.2303 4.57597 11.7904 5.91152 13.1197ZM8.26718 9.03945L9.0662 9.03945C9.38593 9.03945 9.55996 8.85116 9.55996 8.54394L9.55996 7.74491C9.55996 7.41991 9.38593 7.26718 9.0662 7.26718L8.26718 7.26718C7.95995 7.26718 7.77792 7.41991 7.77792 7.74491L7.77792 8.54394C7.77792 8.85116 7.95995 9.03945 8.26718 9.03945ZM10.592 9.03945L11.399 9.03945C11.7045 9.03945 11.8705 8.85116 11.8705 8.54394L11.8705 7.74491C11.8705 7.41991 11.7045 7.26718 11.399 7.26718L10.592 7.26718C10.275 7.26718 10.0867 7.41991 10.0867 7.74491L10.0867 8.54394C10.0867 8.85116 10.275 9.03945 10.592 9.03945ZM12.891 9.03945L13.6963 9.03945C14.0053 9.03945 14.1936 8.85116 14.1936 8.54394L14.1936 7.74491C14.1936 7.41991 14.0053 7.26718 13.6963 7.26718L12.891 7.26718C12.5855 7.26718 12.4098 7.41991 12.4098 7.74491L12.4098 8.54394C12.4098 8.85116 12.5855 9.03945 12.891 9.03945ZM15.2061 9.03945L16.0131 9.03945C16.3443 9.03945 16.5219 8.85116 16.5219 8.54394L16.5219 7.74491C16.5219 7.41991 16.3443 7.26718 16.0131 7.26718L15.2061 7.26718C14.9006 7.26718 14.7301 7.41991 14.7301 7.74491L14.7301 8.54394C14.7301 8.85116 14.9006 9.03945 15.2061 9.03945ZM8.25742 11.3545L9.05644 11.3545C9.38593 11.3545 9.55996 11.184 9.55996 10.859L9.55996 10.0582C9.55996 9.74648 9.38593 9.58046 9.05644 9.58046L8.25742 9.58046C7.94218 9.58046 7.77792 9.74648 7.77792 10.0582L7.77792 10.859C7.77792 11.184 7.94218 11.3545 8.25742 11.3545ZM10.5805 11.3545L13.7176 11.3545C14.0311 11.3545 14.2033 11.184 14.2033 10.859L14.2033 10.0582C14.2033 9.74648 14.0311 9.58046 13.7176 9.58046L10.5805 9.58046C10.2652 9.58046 10.0867 9.74648 10.0867 10.0582L10.0867 10.859C10.0867 11.184 10.2652 11.3545 10.5805 11.3545ZM15.2193 11.3545L16.0309 11.3545C16.3559 11.3545 16.5219 11.184 16.5219 10.859L16.5219 10.0582C16.5219 9.74648 16.3559 9.58046 16.0309 9.58046L15.2193 9.58046C14.9184 9.58046 14.7381 9.74648 14.7381 10.0582L14.7381 10.859C14.7381 11.184 14.9184 11.3545 15.2193 11.3545Z" fill="white" fill-opacity="0.25"/>
 </g>
</svg>
