<?xml version="1.0" encoding="UTF-8"?>
<!--Generator: Apple Native CoreSVG 341-->
<!DOCTYPE svg
PUBLIC "-//W3C//DTD SVG 1.1//EN"
       "http://www.w3.org/Graphics/SVG/1.1/DTD/svg11.dtd">
<svg version="1.1" xmlns="http://www.w3.org/2000/svg" xmlns:xlink="http://www.w3.org/1999/xlink" viewBox="0 0 28.7578 18.5418">
 <g>
  <rect height="18.5418" opacity="0" width="28.7578" x="0" y="0"/>
  <path d="M10.6428 4.4166L12.3486 4.4166C13.0144 4.4166 13.381 4.0375 13.381 3.37793L13.381 1.66054C13.381 0.989451 13.0144 0.618358 12.3486 0.618358L10.6428 0.618358C9.98144 0.618358 9.58906 0.989451 9.58906 1.66054L9.58906 3.37793C9.58906 4.0375 9.98144 4.4166 10.6428 4.4166ZM15.5609 4.4166L17.2766 4.4166C17.9344 4.4166 18.3125 4.0375 18.3125 3.37793L18.3125 1.66054C18.3125 0.989451 17.9344 0.618358 17.2766 0.618358L15.5609 0.618358C14.8916 0.618358 14.4992 0.989451 14.4992 1.66054L14.4992 3.37793C14.4992 4.0375 14.8916 4.4166 15.5609 4.4166ZM20.4728 4.4166L22.1769 4.4166C22.84 4.4166 23.2226 4.0375 23.2226 3.37793L23.2226 1.66054C23.2226 0.989451 22.84 0.618358 22.1769 0.618358L20.4728 0.618358C19.8053 0.618358 19.4307 0.989451 19.4307 1.66054L19.4307 3.37793C19.4307 4.0375 19.8053 4.4166 20.4728 4.4166ZM25.375 4.4166L27.0969 4.4166C27.7582 4.4166 28.1523 4.0375 28.1523 3.37793L28.1523 1.66054C28.1523 0.989451 27.7582 0.618358 27.0969 0.618358L25.375 0.618358C24.7252 0.618358 24.3603 0.989451 24.3603 1.66054L24.3603 3.37793C24.3603 4.0375 24.7252 4.4166 25.375 4.4166ZM10.6232 9.33828L12.3353 9.33828C13.0047 9.33828 13.381 8.97343 13.381 8.29609L13.381 6.5707C13.381 5.91113 13.0047 5.53476 12.3353 5.53476L10.6232 5.53476C9.96367 5.53476 9.58906 5.91113 9.58906 6.5707L9.58906 8.29609C9.58906 8.97343 9.96367 9.33828 10.6232 9.33828ZM15.5334 9.33828L22.208 9.33828C22.8756 9.33828 23.2422 8.97343 23.2422 8.29609L23.2422 6.5707C23.2422 5.91113 22.8756 5.53476 22.208 5.53476L15.5334 5.53476C14.8738 5.53476 14.4992 5.91113 14.4992 6.5707L14.4992 8.29609C14.4992 8.97343 14.8738 9.33828 15.5334 9.33828ZM25.4141 9.33828L27.1279 9.33828C27.7973 9.33828 28.1523 8.97343 28.1523 8.29609L28.1523 6.5707C28.1523 5.91113 27.7973 5.53476 27.1279 5.53476L25.4141 5.53476C24.7465 5.53476 24.3701 5.91113 24.3701 6.5707L24.3701 8.29609C24.3701 8.97343 24.7465 9.33828 25.4141 9.33828ZM5.07636 13.3793C8.00292 16.3058 11.4967 18.5303 14.3096 18.5303C15.6295 18.5303 16.7816 18.0039 17.5379 17.1615C18.2613 16.3484 18.5301 15.7316 18.5301 15.1955C18.5301 14.7748 18.2629 14.3904 17.6176 13.9324L15.1926 12.1935C14.5881 11.7666 14.3191 11.6885 13.9623 11.6885C13.6543 11.6885 13.3969 11.7471 12.8767 12.0275L11.2984 12.8939C11.1094 13.0031 11.0197 13.0226 10.8892 13.0226C10.7002 13.0226 10.5732 12.9738 10.3842 12.8922C9.61991 12.5451 8.56093 11.7143 7.62538 10.7725C6.68359 9.8289 5.95742 8.87636 5.57226 8.11933C5.52343 8.01992 5.46484 7.86542 5.46484 7.7039C5.46484 7.57519 5.52968 7.46074 5.60957 7.32226L6.53457 5.73066C6.78222 5.2957 6.86386 5.05605 6.86386 4.71699C6.86386 4.33261 6.73515 3.91543 6.35703 3.38906L4.69629 1.06523C4.2205 0.398633 3.84258 0 3.29844 0C2.63359 0 1.83828 0.508593 1.26133 1.06426C0.436718 1.85957 0 2.97265 0 4.22246C0 7.05136 2.17383 10.4785 5.07636 13.3793Z" fill="white" fill-opacity="0.25"/>
 </g>
</svg>
