<?xml version="1.0" encoding="UTF-8"?>
<!--Generator: Apple Native CoreSVG 341-->
<!DOCTYPE svg
PUBLIC "-//W3C//DTD SVG 1.1//EN"
       "http://www.w3.org/Graphics/SVG/1.1/DTD/svg11.dtd">
<svg version="1.1" xmlns="http://www.w3.org/2000/svg" xmlns:xlink="http://www.w3.org/1999/xlink" viewBox="0 0 20.5381 20.1848">
 <g>
  <rect height="20.1848" opacity="0" width="20.5381" x="0" y="0"/>
  <path d="M10.0875 20.175C15.6576 20.175 20.1767 15.6559 20.1767 10.0875C20.1767 4.51914 15.6576 0 10.0875 0C4.51914 0 0 4.51914 0 10.0875C0 15.6559 4.51914 20.175 10.0875 20.175ZM10.0875 18.1879C5.60839 18.1879 1.9871 14.5666 1.9871 10.0875C1.9871 5.60839 5.60839 1.9871 10.0875 1.9871C14.5666 1.9871 18.1897 5.60839 18.1897 10.0875C18.1897 14.5666 14.5666 18.1879 10.0875 18.1879Z" fill="white" fill-opacity="0.25"/>
  <path d="M10.0883 5.22538C8.18066 5.22538 6.09199 5.57597 5.06816 6.63183C4.65976 7.0207 4.43241 7.53652 4.43241 8.15996C4.43241 8.63105 4.57616 9.25976 5.10507 9.2998C5.233 9.33984 5.37069 9.32206 5.53593 9.30429L6.93886 9.06542C7.42988 8.9873 7.65273 8.81152 7.78769 8.33827L8.01855 7.48495C8.07363 7.3287 8.11972 7.26034 8.32226 7.1955C8.70488 7.05253 9.32656 6.97265 10.0883 6.97441C10.85 6.97441 11.4717 7.05253 11.8543 7.1955C12.0648 7.26034 12.1029 7.3287 12.158 7.48495L12.3889 8.33827C12.5238 8.81152 12.7467 8.9873 13.2377 9.06542L14.6406 9.30429C14.8023 9.32206 14.9418 9.33984 15.0715 9.2998C15.5986 9.25976 15.7441 8.63105 15.7441 8.15996C15.7441 7.53652 15.5168 7.0207 15.1084 6.63183C14.0846 5.57597 12.0039 5.22538 10.0883 5.22538ZM5.65038 12.2514L6.57362 12.2514C6.92968 12.2514 7.12499 12.0596 7.12499 11.692L7.12499 10.7687C7.12499 10.4207 6.92968 10.2111 6.57362 10.2111L5.65038 10.2111C5.29433 10.2111 5.08925 10.4207 5.08925 10.7687L5.08925 11.692C5.08925 12.0596 5.29433 12.2514 5.65038 12.2514ZM8.31327 12.2514L9.23476 12.2514C9.58281 12.2514 9.78613 12.0596 9.78613 11.692L9.78613 10.7687C9.78613 10.4207 9.58281 10.2111 9.23476 10.2111L8.31327 10.2111C7.94745 10.2111 7.73437 10.4207 7.73437 10.7687L7.73437 11.692C7.73437 12.0596 7.94745 12.2514 8.31327 12.2514ZM10.9504 12.2514L11.8781 12.2514C12.2279 12.2514 12.4393 12.0596 12.4393 11.692L12.4393 10.7687C12.4393 10.4207 12.2279 10.2111 11.8781 10.2111L10.9504 10.2111C10.6006 10.2111 10.3875 10.4207 10.3875 10.7687L10.3875 11.692C10.3875 12.0596 10.6006 12.2514 10.9504 12.2514ZM13.592 12.2514L14.5232 12.2514C14.8891 12.2514 15.0924 12.0596 15.0924 11.692L15.0924 10.7687C15.0924 10.4207 14.8891 10.2111 14.5232 10.2111L13.592 10.2111C13.2537 10.2111 13.0406 10.4207 13.0406 10.7687L13.0406 11.692C13.0406 12.0596 13.2537 12.2514 13.592 12.2514ZM5.63261 14.9205L6.56386 14.9205C6.92968 14.9205 7.12499 14.7127 7.12499 14.3531L7.12499 13.4219C7.12499 13.0738 6.92968 12.8607 6.56386 12.8607L5.63261 12.8607C5.28456 12.8607 5.08925 13.0738 5.08925 13.4219L5.08925 14.3531C5.08925 14.7127 5.28456 14.9205 5.63261 14.9205ZM8.29374 14.9205L11.8914 14.9205C12.2457 14.9205 12.4473 14.7127 12.4473 14.3531L12.4473 13.4219C12.4473 13.0738 12.2457 12.8607 11.8914 12.8607L8.29374 12.8607C7.93593 12.8607 7.73437 13.0738 7.73437 13.4219L7.73437 14.3531C7.73437 14.7127 7.93593 14.9205 8.29374 14.9205ZM13.6195 14.9205L14.5428 14.9205C14.8988 14.9205 15.0924 14.7127 15.0924 14.3531L15.0924 13.4219C15.0924 13.0738 14.8988 12.8607 14.5428 12.8607L13.6195 12.8607C13.2617 12.8607 13.0521 13.0738 13.0521 13.4219L13.0521 14.3531C13.0521 14.7127 13.2617 14.9205 13.6195 14.9205Z" fill="white" fill-opacity="0.25"/>
 </g>
</svg>
