<?xml version="1.0" encoding="UTF-8"?>
<!--Generator: Apple Native CoreSVG 341-->
<!DOCTYPE svg
PUBLIC "-//W3C//DTD SVG 1.1//EN"
       "http://www.w3.org/Graphics/SVG/1.1/DTD/svg11.dtd">
<svg version="1.1" xmlns="http://www.w3.org/2000/svg" xmlns:xlink="http://www.w3.org/1999/xlink" viewBox="0 0 20.5381 20.1848">
 <g>
  <rect height="20.1848" opacity="0" width="20.5381" x="0" y="0"/>
  <path d="M20.1767 10.0973C20.1767 15.6656 15.6576 20.1848 10.0875 20.1848C4.52715 20.1848 0 15.6656 0 10.0973C0 4.53691 4.52715 0.00976562 10.0875 0.00976562C15.6576 0.00976562 20.1767 4.53691 20.1767 10.0973ZM5.4705 12.9857C5.10292 12.9857 4.90409 13.1943 4.90409 13.5717L4.90409 14.5232C4.90409 14.9041 5.10292 15.1137 5.4705 15.1137L6.43984 15.1137C6.81894 15.1137 7.01601 14.9041 7.01601 14.5232L7.01601 13.5717C7.01601 13.1943 6.81894 12.9857 6.43984 12.9857ZM8.23085 12.9857C7.86152 12.9857 7.64843 13.1943 7.64843 13.5717L7.64843 14.5232C7.64843 14.9041 7.86152 15.1137 8.23085 15.1137L11.9721 15.1137C12.3396 15.1137 12.5527 14.9041 12.5527 14.5232L12.5527 13.5717C12.5527 13.1943 12.3396 12.9857 11.9721 12.9857ZM13.7613 12.9857C13.3902 12.9857 13.1789 13.1943 13.1789 13.5717L13.1789 14.5232C13.1789 14.9041 13.3902 15.1137 13.7613 15.1137L14.7227 15.1137C15.092 15.1137 15.2971 14.9041 15.2971 14.5232L15.2971 13.5717C15.2971 13.1943 15.092 12.9857 14.7227 12.9857ZM5.48827 10.2307C5.11093 10.2307 4.90409 10.442 4.90409 10.8033L4.90409 11.7709C4.90409 12.1437 5.11093 12.3453 5.48827 12.3453L6.45136 12.3453C6.81894 12.3453 7.01601 12.1437 7.01601 11.7709L7.01601 10.8033C7.01601 10.442 6.81894 10.2307 6.45136 10.2307ZM8.24863 10.2307C7.87128 10.2307 7.64843 10.442 7.64843 10.8033L7.64843 11.7709C7.64843 12.1437 7.87128 12.3453 8.24863 12.3453L9.20995 12.3453C9.56952 12.3453 9.78437 12.1437 9.78437 11.7709L9.78437 10.8033C9.78437 10.442 9.56952 10.2307 9.20995 10.2307ZM10.993 10.2307C10.6316 10.2307 10.4088 10.442 10.4088 10.8033L10.4088 11.7709C10.4088 12.1437 10.6316 12.3453 10.993 12.3453L11.9605 12.3453C12.3219 12.3453 12.5447 12.1437 12.5447 11.7709L12.5447 10.8033C12.5447 10.442 12.3219 10.2307 11.9605 10.2307ZM13.7338 10.2307C13.3822 10.2307 13.1611 10.442 13.1611 10.8033L13.1611 11.7709C13.1611 12.1437 13.3822 12.3453 13.7338 12.3453L14.7014 12.3453C15.0822 12.3453 15.2971 12.1437 15.2971 11.7709L15.2971 10.8033C15.2971 10.442 15.0822 10.2307 14.7014 10.2307ZM4.88124 6.50781C4.45156 6.92148 4.2207 7.45859 4.2207 8.10507C4.2207 8.5912 4.36796 9.24472 4.91991 9.28476C5.05136 9.3248 5.19882 9.31503 5.36406 9.28925L6.82636 9.04687C7.33242 8.96074 7.56503 8.77519 7.70175 8.28691L7.94238 7.39902C7.99921 7.233 8.05507 7.16113 8.25937 7.09628C8.65527 6.95156 9.308 6.86367 10.0963 6.86542C10.8846 6.86542 11.5373 6.95156 11.9332 7.09628C12.1455 7.16113 12.1934 7.233 12.2502 7.39902L12.4908 8.28691C12.6275 8.77519 12.8602 8.96074 13.368 9.04687L14.8285 9.28925C14.992 9.31503 15.1394 9.3248 15.2727 9.28476C15.8246 9.24472 15.9719 8.5912 15.9719 8.10507C15.9719 7.45859 15.741 6.92148 15.3113 6.50781C14.2512 5.41562 12.0863 5.05351 10.0963 5.05351C8.11425 5.05351 5.9414 5.41562 4.88124 6.50781Z" fill="white" fill-opacity="0.25"/>
 </g>
</svg>
