<?xml version="1.0" encoding="UTF-8"?>
<!--Generator: Apple Native CoreSVG 341-->
<!DOCTYPE svg
PUBLIC "-//W3C//DTD SVG 1.1//EN"
       "http://www.w3.org/Graphics/SVG/1.1/DTD/svg11.dtd">
<svg version="1.1" xmlns="http://www.w3.org/2000/svg" xmlns:xlink="http://www.w3.org/1999/xlink" viewBox="0 0 20.5381 20.1848">
 <g>
  <rect height="20.1848" opacity="0" width="20.5381" x="0" y="0"/>
  <path d="M20.1767 10.0973C20.1767 15.6656 15.6576 20.1848 10.0875 20.1848C4.52715 20.1848 0 15.6656 0 10.0973C0 4.53691 4.52715 0.00976562 10.0875 0.00976562C15.6576 0.00976562 20.1767 4.53691 20.1767 10.0973ZM3.94335 7.36152C3.54999 7.74511 3.33866 8.26894 3.33866 8.8621C3.33866 10.2037 4.36952 11.8232 5.76445 13.2102C7.1371 14.5828 8.79218 15.6475 10.1303 15.6475C10.758 15.6475 11.2978 15.3891 11.6557 14.9922C12.0002 14.6006 12.1182 14.3236 12.1182 14.0572C12.1182 13.8557 11.9975 13.6816 11.6902 13.4605L10.5377 12.6393C10.2562 12.4377 10.131 12.3986 9.95703 12.3986C9.80429 12.3986 9.68886 12.4297 9.44648 12.5611L8.69882 12.9678C8.60292 13.0228 8.56386 13.0406 8.4955 13.0406C8.40937 13.0406 8.36054 13.0131 8.26288 12.9643C7.90058 12.8018 7.39804 12.4146 6.94609 11.9662C6.51191 11.5205 6.17714 11.0623 5.97206 10.7125C5.9623 10.6619 5.93476 10.5855 5.93476 10.5189C5.93476 10.4506 5.96054 10.392 5.9996 10.3316L6.44003 9.58046C6.55546 9.36288 6.59628 9.26699 6.59628 9.09296C6.59628 8.91093 6.54394 8.72089 6.35214 8.45898L5.56191 7.358C5.34257 7.04902 5.158 6.86249 4.90937 6.86249C4.59238 6.86249 4.22304 7.10312 3.94335 7.36152ZM8.19628 9.5291C7.86952 9.5291 7.70175 9.69687 7.70175 10.0281L7.70175 10.8652C7.70175 11.1937 7.86952 11.366 8.19628 11.366L9.02812 11.366C9.37265 11.366 9.54843 11.1937 9.54843 10.8652L9.54843 10.0281C9.54843 9.69687 9.37265 9.5291 9.02812 9.5291ZM10.6115 9.5291C10.2848 9.5291 10.0947 9.69687 10.0947 10.0281L10.0947 10.8652C10.0947 11.1937 10.2848 11.366 10.6115 11.366L13.8691 11.366C14.1959 11.366 14.3664 11.1937 14.3664 10.8652L14.3664 10.0281C14.3664 9.69687 14.1959 9.5291 13.8691 9.5291ZM15.4285 9.5291C15.116 9.5291 14.9242 9.69687 14.9242 10.0281L14.9242 10.8652C14.9242 11.1937 15.116 11.366 15.4285 11.366L16.2684 11.366C16.6129 11.366 16.7807 11.1937 16.7807 10.8652L16.7807 10.0281C16.7807 9.69687 16.6129 9.5291 16.2684 9.5291ZM8.20605 7.12187C7.88554 7.12187 7.70175 7.29238 7.70175 7.6289L7.70175 8.44824C7.70175 8.76699 7.88554 8.96503 8.20605 8.96503L9.03964 8.96503C9.37265 8.96503 9.54843 8.76699 9.54843 8.44824L9.54843 7.6289C9.54843 7.29238 9.37265 7.12187 9.03964 7.12187ZM10.623 7.12187C10.2945 7.12187 10.0947 7.29238 10.0947 7.6289L10.0947 8.44824C10.0947 8.76699 10.2945 8.96503 10.623 8.96503L11.4566 8.96503C11.7736 8.96503 11.9494 8.76699 11.9494 8.44824L11.9494 7.6289C11.9494 7.29238 11.7736 7.12187 11.4566 7.12187ZM13.0045 7.12187C12.691 7.12187 12.5135 7.29238 12.5135 7.6289L12.5135 8.44824C12.5135 8.76699 12.691 8.96503 13.0045 8.96503L13.8478 8.96503C14.1666 8.96503 14.3566 8.76699 14.3566 8.44824L14.3566 7.6289C14.3566 7.29238 14.1666 7.12187 13.8478 7.12187ZM15.4152 7.12187C15.0982 7.12187 14.9162 7.29238 14.9162 7.6289L14.9162 8.44824C14.9162 8.76699 15.0982 8.96503 15.4152 8.96503L16.2488 8.96503C16.5916 8.96503 16.7807 8.76699 16.7807 8.44824L16.7807 7.6289C16.7807 7.29238 16.5916 7.12187 16.2488 7.12187Z" fill="white" fill-opacity="0.25"/>
 </g>
</svg>
