<?xml version="1.0" encoding="UTF-8"?>
<!--Generator: Apple Native CoreSVG 341-->
<!DOCTYPE svg
PUBLIC "-//W3C//DTD SVG 1.1//EN"
       "http://www.w3.org/Graphics/SVG/1.1/DTD/svg11.dtd">
<svg version="1.1" xmlns="http://www.w3.org/2000/svg" xmlns:xlink="http://www.w3.org/1999/xlink" viewBox="0 0 23.4491 20.717">
 <g>
  <rect height="20.717" opacity="0" width="23.4491" x="0" y="0"/>
  <path d="M17.6217 13.989L17.6217 19.8423C17.6217 20.6853 18.4309 20.963 19.1151 20.4812L23.0586 17.6769C23.5832 17.304 23.5752 16.5433 23.0586 16.1767L19.1151 13.3368C18.3918 12.8194 17.6217 13.1212 17.6217 13.989ZM19.027 17.8958C19.5758 17.8958 20.0307 17.4507 20.0307 16.9001C20.0307 16.3513 19.5758 15.8964 19.027 15.8964L8.35354 15.8964C4.76975 15.8964 2.88264 13.9978 2.88264 10.5817L2.88264 3.77511C2.88264 3.22804 2.43401 2.77941 1.88694 2.77941C1.33987 2.77941 0.883233 3.22804 0.883233 3.77511L0.883233 10.5622C0.883233 15.2534 3.49905 17.8958 8.35354 17.8958Z" fill="white" fill-opacity="0.25"/>
  <path d="M7.93283 4.63858L18.7869 4.63858C19.3242 4.63858 19.7418 4.21124 19.7418 3.67569C19.7418 3.13839 19.3242 2.72081 18.7869 2.72081L7.93283 2.72081C7.39553 2.72081 6.96995 3.13839 6.96995 3.67569C6.96995 4.21124 7.39553 4.63858 7.93283 4.63858ZM7.93283 10.5468L13.7985 10.5468C14.334 10.5468 14.7613 10.1194 14.7613 9.58389C14.7613 9.04659 14.334 8.62902 13.7985 8.62902L7.93283 8.62902C7.39553 8.62902 6.96995 9.04659 6.96995 9.58389C6.96995 10.1194 7.39553 10.5468 7.93283 10.5468Z" fill="white" fill-opacity="0.25"/>
 </g>
</svg>
