<?xml version="1.0" encoding="UTF-8"?>
<!--Generator: Apple Native CoreSVG 341-->
<!DOCTYPE svg
PUBLIC "-//W3C//DTD SVG 1.1//EN"
       "http://www.w3.org/Graphics/SVG/1.1/DTD/svg11.dtd">
<svg version="1.1" xmlns="http://www.w3.org/2000/svg" xmlns:xlink="http://www.w3.org/1999/xlink" viewBox="0 0 23.4491 22.8447">
 <g>
  <rect height="22.8447" opacity="0" width="23.4491" x="0" y="0"/>
  <path d="M17.6217 16.1175L17.6217 21.9708C17.6217 22.8138 18.4309 23.0897 19.1151 22.6097L23.0586 19.8036C23.5832 19.4325 23.5752 18.6798 23.0586 18.3052L19.1151 15.4653C18.3918 14.9462 17.6217 15.2497 17.6217 16.1175ZM19.0692 20.0243C19.618 20.0243 20.0729 19.5774 20.0729 19.0286C20.0729 18.4798 19.618 18.0249 19.0692 18.0249L8.35354 18.0249C4.76975 18.0249 2.88264 16.1263 2.88264 12.7103L2.88264 3.77335C2.88264 3.22628 2.43401 2.76964 1.88694 2.76964C1.33987 2.76964 0.883233 3.22628 0.883233 3.77335L0.883233 12.689C0.883233 17.3819 3.49905 20.0243 8.35354 20.0243Z" fill="white" fill-opacity="0.25"/>
  <path d="M7.67677 4.62373L18.7869 4.62373C19.3172 4.62373 19.7313 4.20167 19.7313 3.67139C19.7313 3.14112 19.3172 2.72706 18.7869 2.72706L7.67677 2.72706C7.1465 2.72706 6.73244 3.14112 6.73244 3.67139C6.73244 4.20167 7.1465 4.62373 7.67677 4.62373ZM7.67677 9.44073L18.7869 9.44073C19.3172 9.44073 19.7313 9.02667 19.7313 8.49639C19.7313 7.96612 19.3172 7.54406 18.7869 7.54406L7.67677 7.54406C7.1465 7.54406 6.73244 7.96612 6.73244 8.49639C6.73244 9.02667 7.1465 9.44073 7.67677 9.44073ZM7.67677 14.2657L13.7985 14.2657C14.3287 14.2657 14.7508 13.8437 14.7508 13.3134C14.7508 12.7831 14.3287 12.3691 13.7985 12.3691L7.67677 12.3691C7.1465 12.3691 6.73244 12.7831 6.73244 13.3134C6.73244 13.8437 7.1465 14.2657 7.67677 14.2657Z" fill="white" fill-opacity="0.25"/>
 </g>
</svg>
