<?xml version="1.0" encoding="UTF-8"?>
<!--Generator: Apple Native CoreSVG 341-->
<!DOCTYPE svg
PUBLIC "-//W3C//DTD SVG 1.1//EN"
       "http://www.w3.org/Graphics/SVG/1.1/DTD/svg11.dtd">
<svg version="1.1" xmlns="http://www.w3.org/2000/svg" xmlns:xlink="http://www.w3.org/1999/xlink" viewBox="0 0 22.1937 21.491">
 <g>
  <rect height="21.491" opacity="0" width="22.1937" x="0" y="0"/>
  <path d="M1.19979 14.1187C1.5076 14.0221 1.65838 13.7027 1.57674 13.3443C1.32909 12.3439 1.18612 11.343 1.22967 9.97753C1.23768 9.60038 1.02479 9.37519 0.707214 9.34687C0.305261 9.31054 0.0597553 9.56074 0.0287007 9.91093C-0.0556745 11.032 0.0374894 12.3135 0.421864 13.6832C0.526551 14.0434 0.868933 14.2252 1.19979 14.1187ZM0.752526 8.19999C1.07967 8.32324 1.45682 8.16992 1.60233 7.78125C3.16581 3.45351 6.8869 1.19921 10.7826 1.19921C12.5139 1.19921 13.8599 1.5455 15.0308 2.18847C15.4068 2.39609 15.8008 2.39609 15.9613 2.04219C16.1228 1.6916 15.9541 1.43984 15.666 1.25898C14.1605 0.33125 12.6566 0 10.7826 0C6.24198 0 2.23983 2.43437 0.437684 7.20195C0.245106 7.70605 0.434168 8.09003 0.752526 8.19999ZM21.2742 11.8328C21.6183 11.8328 21.8623 11.5525 21.8312 11.1826C21.4058 7.15527 20.0814 4.65429 17.8045 2.62539C17.5072 2.3539 17.1285 2.42851 16.9396 2.65371C16.7295 2.88339 16.7258 3.23554 17.0328 3.51679C18.9918 5.37343 20.3478 7.69765 20.6746 11.2092C20.7172 11.5631 20.9371 11.8328 21.2742 11.8328Z" fill="white" fill-opacity="0.25"/>
  <path d="M2.29218 16.9631C2.49706 17.2433 2.90331 17.3117 3.19784 17.0598C3.91327 16.4553 4.27889 15.4789 4.27889 14.4459C4.27889 13.0807 3.68768 12.3848 3.68768 10.7121C3.68768 6.85937 6.88182 3.66523 10.7346 3.66523C15.3572 3.66523 18.3551 7.45683 18.3631 13.0752C18.3631 15.2898 17.9947 16.8346 17.6387 17.7057C17.5012 18.0295 17.6254 18.3834 17.9074 18.5307C18.209 18.6672 18.6232 18.5502 18.7492 18.2016C19.1283 17.1787 19.5623 15.4619 19.5623 13.0654C19.5623 6.74277 16.073 2.46777 10.7346 2.46777C6.2201 2.46777 2.48847 6.20566 2.48847 10.7121C2.48847 12.3295 3.10096 13.4223 3.11073 14.4361C3.11073 15.1019 2.86307 15.7226 2.41815 16.1213C2.16444 16.3465 2.11835 16.7156 2.29218 16.9631Z" fill="white" fill-opacity="0.25"/>
  <path d="M6.79217 13.3529C6.54452 12.6871 6.16522 11.8666 6.16522 10.7601C6.16522 8.17304 8.19549 6.14101 10.7826 6.14101C11.7699 6.14101 12.0771 6.24492 12.9287 6.64902C13.256 6.79628 13.5558 6.70136 13.6756 6.46015C13.8361 6.16035 13.751 5.79668 13.3926 5.58906C12.7357 5.20117 11.7758 4.93379 10.7826 4.93379C7.53377 4.93379 4.95624 7.51308 4.95624 10.7601C4.95624 11.973 5.28475 12.9937 5.61425 13.8115C5.75975 14.1654 6.09139 14.3287 6.46932 14.1734C6.78866 14.0475 6.90838 13.7051 6.79217 13.3529Z" fill="white" fill-opacity="0.25"/>
  <path d="M4.67948 18.8094C5.43026 18.426 6.40955 17.1512 6.69178 16.1471C6.78221 15.842 6.63416 15.4836 6.31034 15.3771C6.00878 15.2707 5.68944 15.4525 5.56971 15.7932C5.30428 16.6314 4.85409 17.2584 4.14198 17.7449C3.77811 18.0014 3.70819 18.3234 3.82616 18.5814C3.95741 18.8607 4.30506 18.9992 4.67948 18.8094ZM14.5199 8.00859C15.4496 9.39081 15.9166 11.2687 15.9166 13.5893C15.9166 16.0678 15.233 18.4131 14.1633 19.7394C13.9664 19.9984 13.9539 20.3603 14.1863 20.5892C14.4453 20.8269 14.8791 20.8101 15.092 20.5236C16.308 18.8824 17.0963 16.2781 17.0963 13.5502C17.0963 10.5156 16.4474 8.79472 15.5728 7.36816C15.359 7.03105 14.9838 6.92285 14.6857 7.08164C14.3691 7.25195 14.2847 7.6537 14.5199 8.00859Z" fill="white" fill-opacity="0.25"/>
  <path d="M6.75662 20.1107C8.3828 18.8023 9.28104 16.7146 9.27127 14.4023C9.26151 12.6537 8.63924 11.5787 8.63924 10.643C8.63924 9.4248 9.49783 8.61679 10.7586 8.61679C12.6537 8.61679 13.3201 10.7484 13.3857 13.4871C13.4771 16.5129 12.3912 19.1279 10.9195 20.415C10.664 20.6279 10.6099 20.9605 10.7803 21.2275C10.9851 21.5176 11.4029 21.5717 11.6779 21.3144C13.247 19.8891 14.5291 16.7648 14.5113 13.4037C14.4998 9.9625 13.493 7.41933 10.7586 7.41933C8.88417 7.41933 7.46131 8.6707 7.46131 10.5383C7.46131 11.6664 8.05253 13.0379 8.06405 14.4023C8.07381 16.3465 7.34764 18.0865 6.00975 19.1705C5.72674 19.4029 5.68065 19.7418 5.86249 20.0123C6.08514 20.3219 6.47186 20.3529 6.75662 20.1107Z" fill="white" fill-opacity="0.25"/>
  <path d="M9.07342 20.9008C9.85194 20.3353 10.7756 19.0894 11.1678 17.8482C11.259 17.5824 11.182 17.1965 10.8484 17.0838C10.4848 16.9543 10.1805 17.1379 10.0697 17.434C9.59452 18.6582 9.00741 19.4121 8.34432 19.9357C8.07909 20.1504 8.00721 20.5025 8.18729 20.7793C8.35936 21.0721 8.77362 21.1217 9.07342 20.9008ZM11.7666 15.4392C12.033 14.0893 11.9291 12.4051 11.4471 10.9156C11.3148 10.5279 11.0035 10.3559 10.6726 10.4623C10.3596 10.5652 10.1732 10.8605 10.2859 11.2252C10.7316 12.657 10.808 14.0271 10.5887 15.2734C10.5283 15.598 10.6666 15.9076 11.0347 15.9617C11.3771 16.0238 11.6965 15.8172 11.7666 15.4392Z" fill="white" fill-opacity="0.25"/>
 </g>
</svg>
