<?xml version="1.0" encoding="UTF-8"?>
<!--Generator: Apple Native CoreSVG 341-->
<!DOCTYPE svg
PUBLIC "-//W3C//DTD SVG 1.1//EN"
       "http://www.w3.org/Graphics/SVG/1.1/DTD/svg11.dtd">
<svg version="1.1" xmlns="http://www.w3.org/2000/svg" xmlns:xlink="http://www.w3.org/1999/xlink" viewBox="0 0 31.6527 22.6312">
 <g>
  <rect height="22.6312" opacity="0" width="31.6527" x="0" y="0"/>
  <path d="M18.1078 4.11152L18.1078 4.88067L17.4045 4.88067C16.9788 4.88067 16.5807 4.92155 16.2156 5.00524L16.2156 4.28339C16.2156 2.66483 15.2822 1.791 13.7322 1.791L4.37558 1.791C2.82733 1.791 1.89217 2.66483 1.89217 4.28339L1.89217 9.82011C1.89217 11.4484 2.83534 12.3143 4.37558 12.3143L5.42558 12.3143C5.89823 12.3143 6.25663 12.5988 6.25663 13.1791L6.25663 15.6445L9.33612 12.8602C9.75917 12.4727 10.114 12.3143 10.6748 12.3143L13.224 12.3143L13.224 14.0955L10.6373 14.0955L7.3826 16.8867C6.74744 17.4349 6.29862 17.739 5.7744 17.739C5.00214 17.739 4.5457 17.1867 4.5457 16.3408L4.5457 14.0955L4.11367 14.0955C1.64492 14.0955 0 12.5945 0 10.0535L0 4.11152C0 1.53359 1.67129 0 4.17871 0L13.9291 0C16.4365 0 18.1078 1.53359 18.1078 4.11152Z" fill="white" fill-opacity="0.25"/>
  <path d="M10.2174 3.77342L12.4273 9.80684C12.6297 10.3721 12.3518 10.9738 11.6719 10.9738C11.2445 10.9738 10.9883 10.7353 10.8383 10.2584L10.3428 8.82616L7.65272 8.82616L7.15545 10.2584C7.01522 10.7353 6.75096 10.9738 6.32186 10.9738C5.64999 10.9738 5.36581 10.3721 5.5664 9.80684L7.77012 3.77342C7.98105 3.17362 8.39336 2.86249 8.98359 2.86249C9.59686 2.86249 10.0082 3.17889 10.2174 3.77342ZM8.05487 7.51074L9.93086 7.51074L8.99286 4.63608Z" fill="white" fill-opacity="0.25"/>
  <path d="M31.2914 8.99219L31.2914 14.9342C31.2914 17.4672 29.6482 18.9762 27.1777 18.9762L26.7799 18.9762L26.7799 21.2215C26.7799 22.0674 26.3314 22.618 25.5592 22.618C25.0349 22.618 24.5861 22.3156 23.951 21.7656L20.6865 18.9762L17.4045 18.9762C14.7975 18.9762 13.224 17.4752 13.224 14.9342L13.224 8.99219C13.224 6.41426 14.7975 4.88067 17.4045 4.88067L27.1127 4.88067C29.6201 4.88067 31.2914 6.41426 31.2914 8.99219ZM19.0949 9.68672C18.6646 9.68672 18.3506 9.983 18.3506 10.3822C18.3506 10.7894 18.6682 11.0955 19.0949 11.0955L19.8178 11.0955C20.0832 12.035 20.5707 12.9273 21.2332 13.6803C20.5902 14.0986 19.8381 14.4121 18.9599 14.6269C18.5492 14.7184 18.3035 15.1096 18.3887 15.5266C18.5031 15.9418 18.9183 16.1369 19.3664 16.0144C20.4361 15.7801 21.4357 15.3309 22.3262 14.6818C23.1723 15.3176 24.1719 15.7703 25.1635 16.0047C25.6754 16.1271 26.1021 15.9596 26.2148 15.5301C26.3328 15.0785 26.1146 14.7184 25.6631 14.6269C24.7955 14.4271 24.0478 14.1119 23.3818 13.6803C24.0541 12.9469 24.5336 12.0643 24.7973 11.0955L25.5281 11.0955C25.9549 11.0955 26.2724 10.7894 26.2724 10.3822C26.2724 9.983 25.9566 9.68672 25.5281 9.68672ZM22.3262 12.7852C21.8793 12.2842 21.523 11.7076 21.3037 11.0955L23.3193 11.0955C23.1035 11.6996 22.765 12.2762 22.3262 12.7852ZM21.3074 7.02148C20.9473 7.1918 20.792 7.62031 20.9783 8.00625L21.4435 8.98203C21.6156 9.36172 22.0424 9.51074 22.4088 9.35371C22.7965 9.1541 22.9535 8.73183 22.7672 8.35742L22.2922 7.38789C22.1006 6.98691 21.6801 6.81387 21.3074 7.02148Z" fill="white" fill-opacity="0.25"/>
 </g>
</svg>
