<?xml version="1.0" encoding="UTF-8"?>
<!--Generator: Apple Native CoreSVG 341-->
<!DOCTYPE svg
PUBLIC "-//W3C//DTD SVG 1.1//EN"
       "http://www.w3.org/Graphics/SVG/1.1/DTD/svg11.dtd">
<svg version="1.1" xmlns="http://www.w3.org/2000/svg" xmlns:xlink="http://www.w3.org/1999/xlink" viewBox="0 0 22.2363 21.8605">
 <g>
  <rect height="21.8605" opacity="0" width="22.2363" x="0" y="0"/>
  <path d="M21.875 5.83047L21.875 13.4041C21.875 16.3023 20.2281 17.983 17.2898 17.983L10.8412 17.983L7.26835 21.2162C6.78124 21.6652 6.46991 21.8605 6.0662 21.8605C5.47792 21.8605 5.1373 21.4426 5.1373 20.8002L5.1373 17.983L4.52363 17.983C1.6873 17.983 0 16.3103 0 13.4041L0 5.83047C0 2.92422 1.64687 1.24356 4.58515 1.24356L17.2898 1.24356C20.2281 1.24356 21.875 2.93223 21.875 5.83047ZM6.86132 5.61542C5.86561 5.61542 5.2246 6.19863 5.2246 7.21855L5.2246 12.0379C5.2246 13.0498 5.83358 13.6182 6.86132 13.6182L11.9955 13.6182C13.0295 13.6182 13.6287 13.0252 13.6287 12.015L13.6287 7.21855C13.6287 6.19863 13.0793 5.61542 12.0355 5.61542ZM16.0191 6.62909L14.2004 8.19023L14.2004 11.0609L16.0191 12.6158C16.224 12.7879 16.4299 12.8898 16.625 12.8898C17.0209 12.8898 17.2853 12.6066 17.2853 12.1779L17.2853 7.06347C17.2853 6.64453 17.0209 6.36933 16.625 6.36933C16.4299 6.36933 16.2098 6.47304 16.0191 6.62909Z" fill="white" fill-opacity="0.25"/>
 </g>
</svg>
