<?xml version="1.0" encoding="UTF-8"?>
<!--Generator: Apple Native CoreSVG 341-->
<!DOCTYPE svg
PUBLIC "-//W3C//DTD SVG 1.1//EN"
       "http://www.w3.org/Graphics/SVG/1.1/DTD/svg11.dtd">
<svg version="1.1" xmlns="http://www.w3.org/2000/svg" xmlns:xlink="http://www.w3.org/1999/xlink" viewBox="0 0 20.5381 20.1848">
 <g>
  <rect height="20.1848" opacity="0" width="20.5381" x="0" y="0"/>
  <path d="M20.1767 10.0973C20.1767 15.6656 15.6576 20.1848 10.0875 20.1848C4.52715 20.1848 0 15.6656 0 10.0973C0 4.53691 4.52715 0.00976562 10.0875 0.00976562C15.6576 0.00976562 20.1767 4.53691 20.1767 10.0973ZM5.2498 5.26308C5.05644 5.45819 5.06269 5.78632 5.2498 5.98143L14.2148 14.935C14.4002 15.1283 14.7363 15.1283 14.9332 14.935C15.1266 14.7301 15.1283 14.4215 14.9332 14.2166L5.97968 5.26308C5.7828 5.05819 5.45468 5.05995 5.2498 5.26308ZM4.3746 7.70566L4.3746 12.533C4.3746 13.5387 4.97558 14.1053 6.00956 14.1053L11.1437 14.1053C11.5326 14.1053 11.8588 14.0219 12.1145 13.8648L4.79232 6.5491C4.52352 6.82029 4.3746 7.21181 4.3746 7.70566ZM15.1691 7.12597L13.3424 8.6791L13.3424 11.5498L15.1691 13.1029C15.366 13.275 15.5799 13.3769 15.7732 13.3769C16.1629 13.3769 16.4256 13.1035 16.4256 12.6668L16.4256 7.55859C16.4256 7.13163 16.1629 6.8582 15.7732 6.8582C15.5799 6.8582 15.3518 6.96015 15.1691 7.12597ZM7.84784 6.10429L12.7707 11.0271L12.7707 7.70566C12.7707 6.68749 12.2293 6.10429 11.1855 6.10429Z" fill="white" fill-opacity="0.25"/>
 </g>
</svg>
