<?xml version="1.0" encoding="UTF-8"?>
<!--Generator: Apple Native CoreSVG 341-->
<!DOCTYPE svg
PUBLIC "-//W3C//DTD SVG 1.1//EN"
       "http://www.w3.org/Graphics/SVG/1.1/DTD/svg11.dtd">
<svg version="1.1" xmlns="http://www.w3.org/2000/svg" xmlns:xlink="http://www.w3.org/1999/xlink" viewBox="0 0 18.5894 18.2316">
 <g>
  <rect height="18.2316" opacity="0" width="18.5894" x="0" y="0"/>
  <path d="M3.20351 18.2281L15.0246 18.2281C17.1404 18.2281 18.2281 17.1502 18.2281 15.0646L18.2281 3.17148C18.2281 1.08769 17.1404 0 15.0246 0L3.20351 0C1.0957 0 0 1.08769 0 3.17148L0 15.0646C0 17.1502 1.0957 18.2281 3.20351 18.2281ZM3.31444 16.3148C2.40643 16.3148 1.91327 15.8465 1.91327 14.8977L1.91327 3.34023C1.91327 2.39139 2.40643 1.91503 3.31444 1.91503L14.9137 1.91503C15.8137 1.91503 16.3148 2.39139 16.3148 3.34023L16.3148 14.8977C16.3148 15.8465 15.8137 16.3148 14.9137 16.3148Z" fill="white" fill-opacity="0.25"/>
  <path d="M5.17304 12.9754L10.1246 12.9754C11.1205 12.9754 11.6967 12.4072 11.6967 11.4334L11.6967 6.80976C11.6967 5.83593 11.1623 5.27577 10.1646 5.27577L5.17304 5.27577C4.21718 5.27577 3.60097 5.83593 3.60097 6.80976L3.60097 11.4545C3.60097 12.4301 4.18515 12.9754 5.17304 12.9754ZM12.2436 10.5148L14.01 12.0014C14.1936 12.1619 14.3879 12.2701 14.5795 12.2701C14.9621 12.2701 15.2133 12.0002 15.2133 11.5848L15.2133 6.6662C15.2133 6.26054 14.9621 5.99062 14.5795 5.99062C14.3879 5.99062 14.1873 6.09882 14.01 6.25136L12.2436 7.74414Z" fill="white" fill-opacity="0.25"/>
 </g>
</svg>
