<?xml version="1.0" encoding="UTF-8"?>
<!--Generator: Apple Native CoreSVG 341-->
<!DOCTYPE svg
PUBLIC "-//W3C//DTD SVG 1.1//EN"
       "http://www.w3.org/Graphics/SVG/1.1/DTD/svg11.dtd">
<svg version="1.1" xmlns="http://www.w3.org/2000/svg" xmlns:xlink="http://www.w3.org/1999/xlink" viewBox="0 0 18.5894 18.2316">
 <g>
  <rect height="18.2316" opacity="0" width="18.5894" x="0" y="0"/>
  <path d="M18.2281 3.17148L18.2281 15.0646C18.2281 17.1502 17.1404 18.2281 15.0246 18.2281L3.20351 18.2281C1.0957 18.2281 0 17.1502 0 15.0646L0 3.17148C0 1.08769 1.0957 0 3.20351 0L15.0246 0C17.1404 0 18.2281 1.08769 18.2281 3.17148ZM5.0621 5.1162C4.06815 5.1162 3.42538 5.70116 3.42538 6.71933L3.42538 11.5387C3.42538 12.5523 4.03437 13.1189 5.0621 13.1189L10.1963 13.1189C11.2303 13.1189 11.8295 12.5277 11.8295 11.5158L11.8295 6.71933C11.8295 5.70116 11.2801 5.1162 10.2363 5.1162ZM14.2199 6.13163L12.4012 7.69101L12.4012 10.5635L14.2199 12.1166C14.4168 12.2887 14.6307 12.3906 14.8258 12.3906C15.2137 12.3906 15.4861 12.1092 15.4861 11.6805L15.4861 6.56425C15.4861 6.14531 15.2137 5.87187 14.8258 5.87187C14.6307 5.87187 14.4025 5.97382 14.2199 6.13163Z" fill="white" fill-opacity="0.25"/>
 </g>
</svg>
