<?xml version="1.0" encoding="UTF-8"?>
<!--Generator: Apple Native CoreSVG 341-->
<!DOCTYPE svg
PUBLIC "-//W3C//DTD SVG 1.1//EN"
       "http://www.w3.org/Graphics/SVG/1.1/DTD/svg11.dtd">
<svg version="1.1" xmlns="http://www.w3.org/2000/svg" xmlns:xlink="http://www.w3.org/1999/xlink" viewBox="0 0 22.2363 21.7609">
 <g>
  <rect height="21.7609" opacity="0" width="22.2363" x="0" y="0"/>
  <path d="M6.2871 21.7609C6.83065 21.7609 7.23475 21.4947 7.91131 20.9006L11.2541 17.9412L17.2898 17.9412C20.2281 17.9412 21.875 16.2525 21.875 13.3543L21.875 5.78066C21.875 2.88242 20.2281 1.19375 17.2898 1.19375L4.58515 1.19375C1.64687 1.19375 0 2.87441 0 5.78066L0 13.3543C0 16.2605 1.6873 17.9412 4.52363 17.9412L5.04863 17.9412L5.04863 20.3484C5.04863 21.2111 5.50156 21.7609 6.2871 21.7609ZM6.76131 19.61L6.76131 16.8219C6.76131 16.2488 6.51581 16.0279 5.96737 16.0279L4.63964 16.0279C2.79354 16.0279 1.91327 15.0889 1.91327 13.2936L1.91327 5.83339C1.91327 4.03808 2.79354 3.10702 4.63964 3.10702L17.2353 3.10702C19.0734 3.10702 19.9617 4.03808 19.9617 5.83339L19.9617 13.2936C19.9617 15.0889 19.0734 16.0279 17.2353 16.0279L11.1515 16.0279C10.5572 16.0279 10.275 16.1236 9.86171 16.5414Z" fill="white" fill-opacity="0.25"/>
  <path d="M6.9996 13.4328L11.9512 13.4328C12.9488 13.4328 13.525 12.8646 13.525 11.8908L13.525 7.26718C13.525 6.29335 12.9889 5.7332 11.993 5.7332L6.9996 5.7332C6.0455 5.7332 5.42753 6.29335 5.42753 7.26718L5.42753 11.9119C5.42753 12.8875 6.01171 13.4328 6.9996 13.4328ZM14.0719 10.9723L15.8285 12.4588C16.0219 12.6176 16.2162 12.7258 16.4078 12.7258C16.7824 12.7258 17.0416 12.4576 17.0416 12.0502L17.0416 7.12363C17.0416 6.71796 16.7824 6.44804 16.4078 6.44804C16.2162 6.44804 16.0156 6.55624 15.8285 6.70878L14.0719 8.20957Z" fill="white" fill-opacity="0.25"/>
 </g>
</svg>
