<?xml version="1.0" encoding="UTF-8"?>
<!--Generator: Apple Native CoreSVG 341-->
<!DOCTYPE svg
PUBLIC "-//W3C//DTD SVG 1.1//EN"
       "http://www.w3.org/Graphics/SVG/1.1/DTD/svg11.dtd">
<svg version="1.1" xmlns="http://www.w3.org/2000/svg" xmlns:xlink="http://www.w3.org/1999/xlink" viewBox="0 0 28.8506 23.499">
 <g>
  <rect height="23.499" opacity="0" width="28.8506" x="0" y="0"/>
  <path d="M4.58058 7.61272C4.57688 7.65225 4.57626 7.69472 4.57626 7.73777L4.57626 15.7514C4.57626 17.3442 5.44755 18.1602 6.98408 18.1602L15.1408 18.1602L16.8825 19.8999C16.8641 19.9019 16.8442 19.902 16.8243 19.902L6.66494 19.902C4.16963 19.902 2.71748 18.5364 2.71748 16.0833L2.71748 7.45945C2.71748 6.91207 2.79443 6.41601 2.94475 5.97886ZM20.7718 7.45594L20.7718 8.68907L24.298 5.70144C24.7519 5.32293 25.2185 5.06317 25.6786 5.06317C26.5731 5.06317 27.1782 5.71199 27.1782 6.67117L27.1782 16.8637C27.1782 17.8212 26.5731 18.47 25.6786 18.47C25.2202 18.47 24.7519 18.2102 24.298 17.8317L20.7718 14.8368L20.7718 16.0235C20.7718 16.5763 20.6981 17.0767 20.5518 17.5172L18.9069 15.8731C18.9106 15.8346 18.9112 15.7933 18.9112 15.7514L18.9112 7.73777C18.9112 6.13523 18.0319 5.31921 16.5052 5.31921L8.34759 5.31921L6.61651 3.58901C6.63194 3.58726 6.64842 3.58719 6.66494 3.58719L16.8243 3.58719C19.3179 3.58719 20.7718 5.00906 20.7718 7.45594ZM25.0321 7.28268L20.7718 10.7716L20.7718 12.7631L25.0321 16.2505C25.1147 16.3073 25.1716 16.3544 25.256 16.3544C25.3644 16.3544 25.4149 16.2718 25.4149 16.1438L25.4149 7.39108C25.4149 7.26139 25.3644 7.17253 25.256 7.17253C25.1716 7.17253 25.1147 7.21784 25.0321 7.28268Z" fill="white" fill-opacity="0.25"/>
  <path d="M20.7878 21.8764C21.0913 22.1782 21.5937 22.18 21.8874 21.8764C22.1874 21.5747 22.1909 21.0804 21.8874 20.7768L2.6917 1.59265C2.38994 1.28914 1.89385 1.28914 1.58232 1.59265C1.29033 1.8864 1.29033 2.40027 1.58232 2.69226Z" fill="white" fill-opacity="0.25"/>
 </g>
</svg>
