<?xml version="1.0" encoding="UTF-8"?>
<!--Generator: Apple Native CoreSVG 341-->
<!DOCTYPE svg
PUBLIC "-//W3C//DTD SVG 1.1//EN"
       "http://www.w3.org/Graphics/SVG/1.1/DTD/svg11.dtd">
<svg version="1.1" xmlns="http://www.w3.org/2000/svg" xmlns:xlink="http://www.w3.org/1999/xlink" viewBox="0 0 20.5381 20.1848">
 <g>
  <rect height="20.1848" opacity="0" width="20.5381" x="0" y="0"/>
  <path d="M10.0875 20.175C15.6576 20.175 20.1767 15.6559 20.1767 10.0875C20.1767 4.51914 15.6576 0 10.0875 0C4.51914 0 0 4.51914 0 10.0875C0 15.6559 4.51914 20.175 10.0875 20.175ZM10.0875 18.1879C5.60839 18.1879 1.9871 14.5666 1.9871 10.0875C1.9871 5.60839 5.60839 1.9871 10.0875 1.9871C14.5666 1.9871 18.1897 5.60839 18.1897 10.0875C18.1897 14.5666 14.5666 18.1879 10.0875 18.1879Z" fill="white" fill-opacity="0.25"/>
  <path d="M6.13358 13.952L11.0852 13.952C12.0811 13.952 12.6572 13.3838 12.6572 12.41L12.6572 7.78632C12.6572 6.81249 12.1228 6.25234 11.127 6.25234L6.13358 6.25234C5.17772 6.25234 4.56151 6.81249 4.56151 7.78632L4.56151 12.4311C4.56151 13.4066 5.14569 13.952 6.13358 13.952ZM13.2041 11.4914L14.9625 12.9779C15.1541 13.1385 15.3484 13.2467 15.54 13.2467C15.9227 13.2467 16.1738 12.9768 16.1738 12.5613L16.1738 7.64277C16.1738 7.2371 15.9227 6.96718 15.54 6.96718C15.3484 6.96718 15.1479 7.07538 14.9625 7.22792L13.2041 8.7207Z" fill="white" fill-opacity="0.25"/>
 </g>
</svg>
