<?xml version="1.0" encoding="UTF-8"?>
<!--Generator: Apple Native CoreSVG 341-->
<!DOCTYPE svg
PUBLIC "-//W3C//DTD SVG 1.1//EN"
       "http://www.w3.org/Graphics/SVG/1.1/DTD/svg11.dtd">
<svg version="1.1" xmlns="http://www.w3.org/2000/svg" xmlns:xlink="http://www.w3.org/1999/xlink" viewBox="0 0 20.5381 20.1848">
 <g>
  <rect height="20.1848" opacity="0" width="20.5381" x="0" y="0"/>
  <path d="M20.1767 10.0875C20.1767 15.6559 15.6576 20.175 10.0875 20.175C4.51914 20.175 0 15.6559 0 10.0875C0 4.51914 4.51914 0 10.0875 0C15.6576 0 20.1767 4.51914 20.1767 10.0875ZM1.9871 10.0875C1.9871 14.5666 5.60839 18.1879 10.0875 18.1879C14.5666 18.1879 18.1897 14.5666 18.1897 10.0875C18.1897 5.60839 14.5666 1.9871 10.0875 1.9871C5.60839 1.9871 1.9871 5.60839 1.9871 10.0875Z" fill="white" fill-opacity="0.25"/>
  <path d="M12.0378 13.7087C11.7886 13.868 11.4679 13.952 11.0852 13.952L6.13358 13.952C5.14569 13.952 4.56151 13.4066 4.56151 12.4311L4.56151 7.78632C4.56151 7.30118 4.71444 6.91871 4.98627 6.65717ZM16.1738 7.64277L16.1738 12.5613C16.1738 12.9768 15.9227 13.2467 15.54 13.2467C15.3484 13.2467 15.1541 13.1385 14.9625 12.9779L13.2041 11.4914L13.2041 8.7207L14.9625 7.22792C15.1479 7.07538 15.3484 6.96718 15.54 6.96718C15.9227 6.96718 16.1738 7.2371 16.1738 7.64277ZM12.6572 7.78632L12.6572 10.9745L7.93069 6.25234L11.127 6.25234C12.1228 6.25234 12.6572 6.81249 12.6572 7.78632Z" fill="white" fill-opacity="0.25"/>
  <path d="M14.065 14.7355C14.2486 14.9174 14.568 14.9271 14.7516 14.7355C14.9449 14.5439 14.9449 14.2406 14.7516 14.0473L6.14549 5.43319C5.94413 5.23983 5.63905 5.23983 5.44745 5.43319C5.25409 5.62479 5.25409 5.93612 5.44745 6.11971Z" fill="white" fill-opacity="0.25"/>
 </g>
</svg>
