<?xml version="1.0" encoding="UTF-8"?>
<!--Generator: Apple Native CoreSVG 341-->
<!DOCTYPE svg
PUBLIC "-//W3C//DTD SVG 1.1//EN"
       "http://www.w3.org/Graphics/SVG/1.1/DTD/svg11.dtd">
<svg version="1.1" xmlns="http://www.w3.org/2000/svg" xmlns:xlink="http://www.w3.org/1999/xlink" viewBox="0 0 25.2949 16.0871">
 <g>
  <rect height="16.0871" opacity="0" width="25.2949" x="0" y="0"/>
  <path d="M4.36367 16.0773L14.6551 16.0773C16.7445 16.0773 17.9586 14.8953 17.9586 12.8393L17.9586 3.23007C17.9586 1.18203 16.8264 0 14.7369 0L4.36367 0C2.3463 0 1.06016 1.18203 1.06016 3.23183L1.06016 12.8937C1.06016 14.9498 2.27247 16.0773 4.36367 16.0773ZM19.3781 11.1533L22.7412 14.0537C23.1348 14.3959 23.5588 14.6166 23.9631 14.6166C24.7582 14.6166 25.2949 14.0459 25.2949 13.1976L25.2949 2.92363C25.2949 2.07539 24.7582 1.50469 23.9631 1.50469C23.557 1.50469 23.1365 1.72539 22.7412 2.06757L19.3781 4.95996Z" fill="white" fill-opacity="0.25"/>
 </g>
</svg>
