<?xml version="1.0" encoding="UTF-8"?>
<!--Generator: Apple Native CoreSVG 341-->
<!DOCTYPE svg
PUBLIC "-//W3C//DTD SVG 1.1//EN"
       "http://www.w3.org/Graphics/SVG/1.1/DTD/svg11.dtd">
<svg version="1.1" xmlns="http://www.w3.org/2000/svg" xmlns:xlink="http://www.w3.org/1999/xlink" viewBox="0 0 29.7565 23.499">
 <g>
  <rect height="23.499" opacity="0" width="29.7565" x="0" y="0"/>
  <path d="M16.7644 19.7833L6.59448 19.7833C4.50327 19.7833 3.29097 18.6557 3.29097 16.5997L3.29097 6.93777C3.29097 6.73786 3.3032 6.5462 3.33072 6.36567ZM27.5257 6.62957L27.5257 16.9036C27.5257 17.7518 26.989 18.3225 26.1939 18.3225C25.7896 18.3225 25.3656 18.1018 24.972 17.7596L21.6089 14.8592L21.6089 8.6659L24.972 5.77351C25.3673 5.43133 25.7878 5.21063 26.1939 5.21063C26.989 5.21063 27.5257 5.78133 27.5257 6.62957ZM20.1894 6.93601L20.1894 16.5452C20.1894 16.745 20.1779 16.9366 20.1519 17.1171L6.73394 3.70594L16.9677 3.70594C19.0572 3.70594 20.1894 4.88797 20.1894 6.93601Z" fill="white" fill-opacity="0.25"/>
  <path d="M20.7882 21.8764C21.09 22.1782 21.5941 22.18 21.8878 21.8764C22.1878 21.5747 22.1896 21.0804 21.8878 20.7768L2.69214 1.59265C2.38862 1.28914 1.89429 1.28914 1.58276 1.59265C1.28901 1.8864 1.28901 2.40027 1.58276 2.69226Z" fill="white" fill-opacity="0.25"/>
 </g>
</svg>
