<?xml version="1.0" encoding="UTF-8"?>
<!--Generator: Apple Native CoreSVG 341-->
<!DOCTYPE svg
PUBLIC "-//W3C//DTD SVG 1.1//EN"
       "http://www.w3.org/Graphics/SVG/1.1/DTD/svg11.dtd">
<svg version="1.1" xmlns="http://www.w3.org/2000/svg" xmlns:xlink="http://www.w3.org/1999/xlink" viewBox="0 0 38.3375 16.2617">
 <g>
  <rect height="16.2617" opacity="0" width="38.3375" x="0" y="0"/>
  <path d="M33.2654 8.08593C33.2654 12.5234 30.489 15.8722 26.7572 15.8722C22.8933 15.8722 20.9693 12.6328 18.9881 12.6328C16.9988 12.6328 15.0828 15.8722 11.2109 15.8722C8.20773 15.8722 5.81557 13.6941 5.00463 10.5219L6.89862 10.5219C7.53712 12.7042 9.08724 13.9924 11.1986 13.9924C14.65 13.9924 15.9066 10.76 18.9881 10.76C22.0695 10.76 23.3279 13.9924 26.7695 13.9924C29.5853 13.9924 31.3926 11.7143 31.3926 8.08593C31.3926 2.41737 26.6609 1.87108 18.9881 1.87108C12.3633 1.87108 7.93247 2.28343 6.84766 6.0371L4.91921 6.0371C6.04809 0.620402 11.9491 0 18.9881 0C26.8384 0 33.2654 0.763673 33.2654 8.08593Z" fill="white" fill-opacity="0.25"/>
  <path d="M9.77245 5.21347C9.77245 5.43515 9.86288 5.6578 10.0332 5.81835L11.2619 6.94843L12.8363 8.26894L11.2619 9.58143L10.0332 10.7195C9.86288 10.8801 9.77245 11.0947 9.77245 11.3066C9.77245 11.7369 10.0918 12.0951 10.5281 12.0951C10.764 12.0951 10.9344 12.0002 11.0931 11.8396L13.8933 8.93377C14.1053 8.70682 14.1859 8.49589 14.1859 8.26894C14.1859 8.03398 14.1053 7.83105 13.8933 7.60585L11.0931 4.69023C10.9344 4.52968 10.764 4.44453 10.5281 4.44453C10.0918 4.44453 9.77245 4.78671 9.77245 5.21347ZM1.41934 8.26894C1.41934 8.75038 1.81035 9.14413 2.27499 9.14413L10.4365 9.14413L13.1857 8.99178C13.5822 8.96522 13.9051 8.66893 13.9051 8.26894C13.9051 7.87069 13.5822 7.57265 13.1857 7.54609L10.4365 7.38574L2.27499 7.38574C1.81035 7.38574 1.41934 7.78749 1.41934 8.26894Z" fill="white" fill-opacity="0.25"/>
 </g>
</svg>
