<?xml version="1.0" encoding="UTF-8"?>
<!--Generator: Apple Native CoreSVG 341-->
<!DOCTYPE svg
PUBLIC "-//W3C//DTD SVG 1.1//EN"
       "http://www.w3.org/Graphics/SVG/1.1/DTD/svg11.dtd">
<svg version="1.1" xmlns="http://www.w3.org/2000/svg" xmlns:xlink="http://www.w3.org/1999/xlink" viewBox="0 0 20.5381 20.1848">
 <g>
  <rect height="20.1848" opacity="0" width="20.5381" x="0" y="0"/>
  <path d="M20.1767 10.0875C20.1767 15.6559 15.6576 20.175 10.0875 20.175C4.51914 20.175 0 15.6559 0 10.0875C0 4.51914 4.51914 0 10.0875 0C15.6576 0 20.1767 4.51914 20.1767 10.0875ZM1.9871 10.0875C1.9871 14.5666 5.60839 18.1879 10.0875 18.1879C14.5666 18.1879 18.1897 14.5666 18.1897 10.0875C18.1897 5.60839 14.5666 1.9871 10.0875 1.9871C5.60839 1.9871 1.9871 5.60839 1.9871 10.0875Z" fill="white" fill-opacity="0.25"/>
  <path d="M6.20215 7.87304C5.26225 8.21844 4.76112 8.8635 4.76112 10.0519C4.76112 11.6262 5.47987 12.5225 6.65976 12.5225C7.8301 12.5225 8.43857 11.4717 9.49843 11.1693L11.07 12.7409C10.6895 12.4726 10.3751 12.2529 10.0795 12.2529C9.33241 12.2529 8.44355 13.6924 6.65976 13.6924C4.90351 13.6924 3.60272 12.0924 3.60272 10.0519C3.60272 8.4603 4.26583 7.53752 5.34109 7.01199ZM16.558 10.0519C16.558 11.4678 15.9309 12.6716 14.9594 13.2745L14.1134 12.4293C14.9251 12.1625 15.3996 11.331 15.3996 10.0519C15.3996 7.71561 13.4629 7.47929 10.0795 7.47929C9.76121 7.47929 9.45573 7.48138 9.16783 7.48832L8.05742 6.37895C8.69536 6.32612 9.37655 6.31113 10.0795 6.31113C13.5906 6.31113 16.558 6.68495 16.558 10.0519Z" fill="white" fill-opacity="0.25"/>
  <path d="M14.065 14.7355C14.2486 14.9174 14.568 14.9271 14.7516 14.7355C14.9449 14.5439 14.9449 14.2406 14.7516 14.0473L6.14549 5.43319C5.94413 5.23983 5.63905 5.23983 5.44745 5.43319C5.25409 5.62479 5.25409 5.93612 5.44745 6.11971Z" fill="white" fill-opacity="0.25"/>
 </g>
</svg>
