<?xml version="1.0" encoding="UTF-8"?>
<!--Generator: Apple Native CoreSVG 341-->
<!DOCTYPE svg
PUBLIC "-//W3C//DTD SVG 1.1//EN"
       "http://www.w3.org/Graphics/SVG/1.1/DTD/svg11.dtd">
<svg version="1.1" xmlns="http://www.w3.org/2000/svg" xmlns:xlink="http://www.w3.org/1999/xlink" viewBox="0 0 20.5381 20.1848">
 <g>
  <rect height="20.1848" opacity="0" width="20.5381" x="0" y="0"/>
  <path d="M20.1767 10.0875C20.1767 15.6478 15.6576 20.175 10.0875 20.175C4.52715 20.175 0 15.6478 0 10.0875C0 4.51914 4.52715 0 10.0875 0C15.6576 0 20.1767 4.51914 20.1767 10.0875ZM5.2498 5.24355C5.05644 5.44843 5.06269 5.77655 5.2498 5.9619L14.2148 14.9234C14.4002 15.1105 14.7363 15.1186 14.9332 14.9234C15.1266 14.7203 15.1283 14.402 14.9332 14.2068L5.97968 5.24355C5.7828 5.04843 5.45468 5.05019 5.2498 5.24355ZM3.35995 10.0519C3.35995 12.1748 4.7121 13.8359 6.53749 13.8359C8.39218 13.8359 9.31562 12.3389 10.0875 12.3389C10.3853 12.3389 10.7024 12.5561 11.084 12.8254L9.46603 11.2089C8.3739 11.5293 7.74793 12.6111 6.53749 12.6111C5.31503 12.6111 4.57323 11.682 4.57323 10.0519C4.57323 8.8276 5.08853 8.16102 6.05691 7.8028L5.15521 6.9019C4.04544 7.44843 3.35995 8.40548 3.35995 10.0519ZM7.99237 6.23772L9.15714 7.40144C9.45107 7.39447 9.76283 7.39237 10.0875 7.39237C13.6012 7.39237 15.6018 7.63847 15.6018 10.0519C15.6018 11.3759 15.1124 12.2374 14.2746 12.5143L15.1607 13.3996C16.1675 12.7723 16.8168 11.523 16.8168 10.0519C16.8168 6.55292 13.7289 6.16757 10.0875 6.16757C9.36008 6.16757 8.65416 6.18303 7.99237 6.23772Z" fill="white" fill-opacity="0.25"/>
 </g>
</svg>
