<?xml version="1.0" encoding="UTF-8"?>
<!--Generator: Apple Native CoreSVG 341-->
<!DOCTYPE svg
PUBLIC "-//W3C//DTD SVG 1.1//EN"
       "http://www.w3.org/Graphics/SVG/1.1/DTD/svg11.dtd">
<svg version="1.1" xmlns="http://www.w3.org/2000/svg" xmlns:xlink="http://www.w3.org/1999/xlink" viewBox="0 0 20.5381 20.1848">
 <g>
  <rect height="20.1848" opacity="0" width="20.5381" x="0" y="0"/>
  <path d="M10.0875 20.175C15.6576 20.175 20.1767 15.6559 20.1767 10.0875C20.1767 4.51914 15.6576 0 10.0875 0C4.51914 0 0 4.51914 0 10.0875C0 15.6559 4.51914 20.175 10.0875 20.175ZM10.0875 18.1879C5.60839 18.1879 1.9871 14.5666 1.9871 10.0875C1.9871 5.60839 5.60839 1.9871 10.0875 1.9871C14.5666 1.9871 18.1897 5.60839 18.1897 10.0875C18.1897 14.5666 14.5666 18.1879 10.0875 18.1879Z" fill="white" fill-opacity="0.25"/>
  <path d="M10.0795 12.2529C10.8363 12.2529 11.7154 13.6924 13.4992 13.6924C15.2555 13.6924 16.558 12.0924 16.558 10.0519C16.558 6.68495 13.5906 6.31113 10.0795 6.31113C6.57011 6.31113 3.60272 6.68495 3.60272 10.0519C3.60272 12.0924 4.90351 13.6924 6.65976 13.6924C8.44355 13.6924 9.33241 12.2529 10.0795 12.2529ZM10.0795 11.0848C8.6289 11.0848 8.02871 12.5225 6.65976 12.5225C5.47987 12.5225 4.76112 11.6262 4.76112 10.0519C4.76112 7.71561 6.69784 7.47929 10.0795 7.47929C13.4629 7.47929 15.3996 7.71561 15.3996 10.0519C15.3996 11.6262 14.6809 12.5225 13.4992 12.5225C12.132 12.5225 11.5381 11.0848 10.0795 11.0848Z" fill="white" fill-opacity="0.25"/>
 </g>
</svg>
