<?xml version="1.0" encoding="UTF-8"?>
<!--Generator: Apple Native CoreSVG 341-->
<!DOCTYPE svg
PUBLIC "-//W3C//DTD SVG 1.1//EN"
       "http://www.w3.org/Graphics/SVG/1.1/DTD/svg11.dtd">
<svg version="1.1" xmlns="http://www.w3.org/2000/svg" xmlns:xlink="http://www.w3.org/1999/xlink" viewBox="0 0 28.924 23.8755">
 <g>
  <rect height="23.8755" opacity="0" width="28.924" x="0" y="0"/>
  <path d="M5.94383 6.41214C3.32978 7.18304 1.87284 8.75179 1.87284 11.8928C1.87284 15.5211 3.68007 17.7993 6.49589 17.7993C9.87543 17.7993 11.1442 14.6968 14.1038 14.5787L17.7986 18.2764C16.4275 17.4015 15.3649 16.4397 14.2853 16.4397C12.2961 16.4397 10.3721 19.6791 6.5082 19.6791C2.77636 19.6791 0 16.3303 0 11.8928C0 8.09062 1.73891 6.0564 4.52124 4.9884ZM28.5627 11.8928C28.5627 15.3593 26.8684 18.1615 24.3439 19.2134L22.8597 17.7285C25.2186 17.341 26.6898 15.1665 26.6898 11.8928C26.6898 6.22427 21.9582 5.67798 14.2853 5.67798C13.07 5.67798 11.9285 5.69186 10.8773 5.74135L9.14302 4.00638C10.7363 3.84802 12.4731 3.8069 14.2853 3.8069C22.1277 3.8069 28.5627 4.57057 28.5627 11.8928Z" fill="white" fill-opacity="0.25"/>
  <path d="M23.665 22.4414C23.9685 22.753 24.4726 22.7477 24.7646 22.4397C25.0681 22.1362 25.0761 21.6498 24.7726 21.3401L4.88788 1.44732C4.58612 1.14381 4.09003 1.14381 3.77851 1.44732C3.48651 1.74732 3.48651 2.25318 3.77851 2.54693Z" fill="white" fill-opacity="0.25"/>
 </g>
</svg>
