<?xml version="1.0" encoding="UTF-8"?>
<!--Generator: Apple Native CoreSVG 341-->
<!DOCTYPE svg
PUBLIC "-//W3C//DTD SVG 1.1//EN"
       "http://www.w3.org/Graphics/SVG/1.1/DTD/svg11.dtd">
<svg version="1.1" xmlns="http://www.w3.org/2000/svg" xmlns:xlink="http://www.w3.org/1999/xlink" viewBox="0 0 35.4988 16.2617">
 <g>
  <rect height="16.2617" opacity="0" width="35.4988" x="0" y="0"/>
  <path d="M0.85566 9.14413C0.391014 9.14413 0 8.75038 0 8.26894C0 7.78749 0.391014 7.38574 0.85566 7.38574L9.12929 7.39374L10.4029 7.45937L9.85058 6.96445L8.61386 5.82636C8.44354 5.67558 8.35311 5.45116 8.35311 5.23124C8.35311 4.80273 8.67245 4.45253 9.10878 4.45253C9.34471 4.45253 9.51678 4.5412 9.67381 4.69824L12.474 7.60585C12.6859 7.83105 12.7666 8.03398 12.7666 8.26894C12.7666 8.49589 12.6859 8.70682 12.474 8.93377L9.67381 11.8316C9.51502 11.9922 9.34471 12.0853 9.10878 12.0853C8.67245 12.0853 8.35311 11.7271 8.35311 11.2969C8.35311 11.0867 8.44354 10.8641 8.61386 10.7115L9.85058 9.57343L10.4029 9.0785L9.12929 9.14413ZM17.5687 12.6328C19.55 12.6328 21.474 15.8722 25.3379 15.8722C29.0697 15.8722 31.8461 12.5234 31.8461 8.08593C31.8461 0.763673 25.4191 0 17.5687 0C9.71835 0 3.2834 0.77168 3.2834 8.08593C3.2834 12.5234 6.06777 15.8722 9.79159 15.8722C13.6635 15.8722 15.5795 12.6328 17.5687 12.6328Z" fill="white" fill-opacity="0.25"/>
 </g>
</svg>
