<?xml version="1.0" encoding="UTF-8"?>
<!--Generator: Apple Native CoreSVG 341-->
<!DOCTYPE svg
PUBLIC "-//W3C//DTD SVG 1.1//EN"
       "http://www.w3.org/Graphics/SVG/1.1/DTD/svg11.dtd">
<svg version="1.1" xmlns="http://www.w3.org/2000/svg" xmlns:xlink="http://www.w3.org/1999/xlink" viewBox="0 0 20.5381 20.1848">
 <g>
  <rect height="20.1848" opacity="0" width="20.5381" x="0" y="0"/>
  <path d="M20.1767 10.0875C20.1767 15.6478 15.6576 20.175 10.0875 20.175C4.52715 20.175 0 15.6478 0 10.0875C0 4.51914 4.52715 0 10.0875 0C15.6576 0 20.1767 4.51914 20.1767 10.0875ZM3.35995 10.0519C3.35995 12.1748 4.7121 13.8359 6.53749 13.8359C8.39218 13.8359 9.31562 12.3389 10.0875 12.3389C10.8691 12.3389 11.7846 13.8359 13.6393 13.8359C15.4646 13.8359 16.8168 12.1748 16.8168 10.0519C16.8168 6.55292 13.7289 6.16757 10.0875 6.16757C6.45585 6.16757 3.35995 6.55292 3.35995 10.0519ZM15.6018 10.0519C15.6018 11.682 14.86 12.6111 13.6393 12.6111C12.2144 12.6111 11.6072 11.1158 10.0875 11.1158C8.57578 11.1158 7.96054 12.6111 6.53749 12.6111C5.31503 12.6111 4.57323 11.682 4.57323 10.0519C4.57323 7.63847 6.57558 7.39237 10.0875 7.39237C13.6012 7.39237 15.6018 7.63847 15.6018 10.0519Z" fill="white" fill-opacity="0.25"/>
 </g>
</svg>
