<?xml version="1.0" encoding="UTF-8"?>
<!--Generator: Apple Native CoreSVG 341-->
<!DOCTYPE svg
PUBLIC "-//W3C//DTD SVG 1.1//EN"
       "http://www.w3.org/Graphics/SVG/1.1/DTD/svg11.dtd">
<svg version="1.1" xmlns="http://www.w3.org/2000/svg" xmlns:xlink="http://www.w3.org/1999/xlink" viewBox="0 0 28.924 16.2617">
 <g>
  <rect height="16.2617" opacity="0" width="28.924" x="0" y="0"/>
  <path d="M28.5627 8.08593C28.5627 12.5234 25.7863 15.8722 22.0545 15.8722C18.1906 15.8722 16.2666 12.6328 14.2853 12.6328C12.2961 12.6328 10.3721 15.8722 6.5082 15.8722C2.77636 15.8722 0 12.5234 0 8.08593C0 0.77168 6.43495 0 14.2853 0C22.1277 0 28.5627 0.763673 28.5627 8.08593ZM1.87284 8.08593C1.87284 11.7143 3.68007 13.9924 6.49589 13.9924C9.9455 13.9924 11.1959 10.76 14.2853 10.76C17.3668 10.76 18.6154 13.9924 22.0668 13.9924C24.8826 13.9924 26.6898 11.7143 26.6898 8.08593C26.6898 2.41737 21.9582 1.87108 14.2853 1.87108C6.60448 1.87108 1.87284 2.42538 1.87284 8.08593Z" fill="white" fill-opacity="0.25"/>
 </g>
</svg>
