<?xml version="1.0" encoding="UTF-8"?>
<!--Generator: Apple Native CoreSVG 341-->
<!DOCTYPE svg
PUBLIC "-//W3C//DTD SVG 1.1//EN"
       "http://www.w3.org/Graphics/SVG/1.1/DTD/svg11.dtd">
<svg version="1.1" xmlns="http://www.w3.org/2000/svg" xmlns:xlink="http://www.w3.org/1999/xlink" viewBox="0 0 30.5291 23.0418">
 <g>
  <rect height="23.0418" opacity="0" width="30.5291" x="0" y="0"/>
  <path d="M25.1771 11.516C25.1771 17.0844 20.658 21.6035 15.0879 21.6035C13.7165 21.6035 12.4088 21.3294 11.2177 20.8306C11.6696 20.3256 12.0389 19.7468 12.3094 19.1183C13.1726 19.4437 14.1098 19.6164 15.0879 19.6164C19.567 19.6164 23.19 15.9951 23.19 11.516C23.19 7.0369 19.567 3.41561 15.0879 3.41561C11.0394 3.41561 7.69172 6.37407 7.09523 10.2536C6.87124 10.228 6.6435 10.2156 6.41308 10.2156C5.95336 10.2156 5.50407 10.2652 5.07131 10.3619C5.63993 5.33555 9.91036 1.42852 15.0879 1.42852C20.658 1.42852 25.1771 5.94765 25.1771 11.516ZM20.0639 8.40468C20.0639 8.66484 19.9031 8.88242 19.6527 8.95253C19.3455 9.04843 17.1559 9.29706 16.8859 9.34589C16.6098 9.40273 16.4535 9.63359 16.4535 9.96035C16.4535 10.4611 16.4535 12.0541 16.5609 12.784C16.6746 13.5041 17.5199 16.9732 17.551 17.126C17.6549 17.4998 17.4338 17.8266 17.0582 17.8266C16.7883 17.8266 16.5965 17.6818 16.5023 17.3195C16.3398 16.6172 15.7191 14.2145 15.5514 13.6391C15.4164 13.2164 15.3107 13.0717 15.0799 13.0717C14.841 13.0717 14.7371 13.2164 14.6199 13.6391C14.4264 14.2162 13.8252 16.6172 13.6574 17.3195C13.5535 17.6818 13.3715 17.8266 13.1033 17.8266C12.9496 17.8266 12.8205 17.7719 12.7293 17.681C12.7954 17.3389 12.8262 16.986 12.8262 16.6269C12.8262 16.507 12.8228 16.3878 12.808 16.2715C13.0733 15.1566 13.5102 13.2904 13.5926 12.784C13.7178 12.0541 13.7293 10.4611 13.7178 9.96035C13.7062 9.63359 13.5437 9.40273 13.2738 9.34589C12.9959 9.29706 10.8143 9.04667 10.5008 8.95253C10.2566 8.88417 10.0959 8.66484 10.0959 8.40468C10.0959 8.05839 10.3445 7.85859 10.5869 7.85859C10.6793 7.85859 10.7592 7.88437 10.8453 7.89589C11.7768 8.04062 13.7178 8.26972 15.0799 8.26972C16.4535 8.26972 18.3848 8.04062 19.3082 7.89589C19.3926 7.88437 19.4805 7.85859 19.5666 7.85859C19.8055 7.85859 20.0639 8.05839 20.0639 8.40468ZM16.3301 6.3873C16.3301 7.06835 15.7725 7.63573 15.0799 7.63573C14.3891 7.63573 13.8314 7.06835 13.8314 6.3873C13.8314 5.69648 14.3891 5.13886 15.0799 5.13886C15.7725 5.13886 16.3301 5.69648 16.3301 6.3873Z" fill="white" fill-opacity="0.25"/>
  <path d="M11.4391 16.6269C11.4391 19.3752 9.13906 21.6547 6.41308 21.6547C3.66132 21.6547 1.38711 19.3912 1.38711 16.6269C1.38711 13.8769 3.66132 11.6027 6.41308 11.6027C9.17285 11.6027 11.4391 13.8689 11.4391 16.6269ZM5.87969 14.5131L4.81406 15.5291C4.78926 15.5459 4.7582 15.5654 4.72988 15.5654L4.03086 15.5654C3.65644 15.5654 3.45859 15.7588 3.45859 16.159L3.45859 17.0984C3.45859 17.4906 3.65644 17.6902 4.03086 17.6902L4.72988 17.6902C4.7582 17.6902 4.78926 17.7035 4.81406 17.7283L5.87441 18.7363C6.01016 18.8508 6.11836 18.9031 6.24609 18.9031C6.43945 18.9031 6.58398 18.7621 6.58398 18.5732L6.58398 14.6727C6.58398 14.4775 6.43945 14.3445 6.24609 14.3445C6.11836 14.3445 6.01367 14.3969 5.87969 14.5131ZM8.48242 14.7451C8.32011 14.8498 8.29257 15.0609 8.40878 15.233C8.67168 15.6236 8.8164 16.1084 8.8164 16.6225C8.8164 17.1428 8.66367 17.6338 8.41679 18.0262C8.30859 18.184 8.32011 18.3951 8.47441 18.5043C8.62343 18.5975 8.81953 18.5629 8.93847 18.4174C9.28027 17.9266 9.46406 17.29 9.46406 16.6225C9.46406 15.9531 9.28027 15.3184 8.93046 14.8338C8.81152 14.6865 8.63144 14.6617 8.48242 14.7451ZM7.43359 15.426C7.26855 15.5191 7.24375 15.7508 7.37148 15.9156C7.48691 16.0914 7.55976 16.3543 7.55976 16.6207C7.55976 16.8996 7.49492 17.1385 7.37148 17.3303C7.24375 17.5066 7.26855 17.7027 7.42558 17.8137C7.57285 17.9228 7.76718 17.8883 7.87636 17.7303C8.09472 17.4383 8.22519 17.0344 8.22519 16.6207C8.22519 16.2115 8.09472 15.8094 7.88437 15.5156C7.77519 15.3656 7.58886 15.3328 7.43359 15.426Z" fill="white" fill-opacity="0.25"/>
 </g>
</svg>
