<?xml version="1.0" encoding="UTF-8"?>
<!--Generator: Apple Native CoreSVG 341-->
<!DOCTYPE svg
PUBLIC "-//W3C//DTD SVG 1.1//EN"
       "http://www.w3.org/Graphics/SVG/1.1/DTD/svg11.dtd">
<svg version="1.1" xmlns="http://www.w3.org/2000/svg" xmlns:xlink="http://www.w3.org/1999/xlink" viewBox="0 0 18.9638 19.1808">
 <g>
  <rect height="19.1808" opacity="0" width="18.9638" x="0" y="0"/>
  <path d="M5.53398 19.1808L13.0668 19.1808C15.8988 19.1808 17.6502 17.4002 17.6502 14.5158L17.6502 4.68456C17.6502 1.80195 15.8988 0.0275391 13.0668 0.0275391L5.53398 0.0275391C2.70371 0.0275391 0.952343 1.80195 0.952343 4.68456L0.952343 14.5158C0.952343 17.4002 2.70371 19.1808 5.53398 19.1808ZM5.47792 17.3709C3.77733 17.3709 2.76581 16.3328 2.76581 14.5719L2.76581 4.66679C2.76581 2.91561 3.77733 1.87929 5.47792 1.87929L13.1246 1.87929C14.8314 1.87929 15.8367 2.91561 15.8367 4.66679L15.8367 14.5719C15.8367 16.3328 14.8314 17.3709 13.1246 17.3709ZM17.3971 8.62538L17.8787 8.62538C18.5388 8.62538 18.9638 8.17108 18.9638 7.45858L18.9638 5.82597C18.9638 5.10097 18.5388 4.64316 17.8787 4.64316L17.3971 4.64316Z" fill="white" fill-opacity="0.25"/>
  <path d="M8.16308 10.3627C8.67851 10.7965 9.20702 10.801 9.6994 10.3627L13.6662 6.89491C14.0305 6.56874 14.0146 6.04198 13.6855 5.70409C13.3742 5.38398 12.8768 5.34355 12.4877 5.68651L8.92323 8.78379L6.7992 6.97421C6.46053 6.68339 5.92225 6.73574 5.6164 7.08593C5.30253 7.43886 5.36464 7.98417 5.72284 8.29452Z" fill="white" fill-opacity="0.25"/>
 </g>
</svg>
