<?xml version="1.0" encoding="UTF-8"?>
<!--Generator: Apple Native CoreSVG 341-->
<!DOCTYPE svg
PUBLIC "-//W3C//DTD SVG 1.1//EN"
       "http://www.w3.org/Graphics/SVG/1.1/DTD/svg11.dtd">
<svg version="1.1" xmlns="http://www.w3.org/2000/svg" xmlns:xlink="http://www.w3.org/1999/xlink" viewBox="0 0 25.2865 19.1234">
 <g>
  <rect height="19.1234" opacity="0" width="25.2865" x="0" y="0"/>
  <path d="M21.8076 7.59316C23.74 8.40097 24.9252 10.2363 24.9252 12.3152C24.9252 15.0957 22.5344 17.3242 19.4973 17.3242L6.00429 17.3242C2.59238 17.3242 0 14.8488 0 11.881C0 9.4455 1.38398 7.43593 3.61562 7.04219C3.70664 4.29199 6.31152 2.44824 8.78066 3.1127C10.0053 1.34571 11.948 0 14.5523 0C18.6361 0 21.8201 3.18144 21.8076 7.59316ZM14.8809 6.51874L12.4627 8.92719L10.0478 6.51874C9.89003 6.35917 9.69139 6.28202 9.46718 6.28202C8.99901 6.28202 8.63456 6.63847 8.63456 7.09862C8.63456 7.31678 8.71698 7.52694 8.87304 7.68299L11.2873 10.0979L8.87304 12.5025C8.71698 12.6648 8.63456 12.8607 8.63456 13.0852C8.63456 13.5471 8.99901 13.9195 9.46718 13.9195C9.6994 13.9195 9.90604 13.8264 10.0656 13.6748L12.4627 11.2738L14.8631 13.6748C15.0227 13.8264 15.2213 13.9195 15.4695 13.9195C15.9297 13.9195 16.2941 13.5471 16.2941 13.0852C16.2941 12.8607 16.2037 12.6648 16.0476 12.5025L13.6366 10.098L16.0476 7.68299C16.2037 7.52694 16.2941 7.31678 16.2941 7.09862C16.2941 6.63847 15.9297 6.28202 15.4695 6.28202C15.2293 6.28202 15.0387 6.35917 14.8809 6.51874Z" fill="white" fill-opacity="0.25"/>
 </g>
</svg>
