<?xml version="1.0" encoding="UTF-8"?>
<!--Generator: Apple Native CoreSVG 341-->
<!DOCTYPE svg
PUBLIC "-//W3C//DTD SVG 1.1//EN"
       "http://www.w3.org/Graphics/SVG/1.1/DTD/svg11.dtd">
<svg version="1.1" xmlns="http://www.w3.org/2000/svg" xmlns:xlink="http://www.w3.org/1999/xlink" viewBox="0 0 25.2865 19.1164">
 <g>
  <rect height="19.1164" opacity="0" width="25.2865" x="0" y="0"/>
  <path d="M19.4973 17.326C22.5344 17.326 24.9252 15.0957 24.9252 12.3152C24.9252 10.2363 23.74 8.40273 21.8076 7.59316C21.8201 3.18144 18.6361 0 14.5523 0C11.948 0 10.0053 1.34746 8.78066 3.1127C6.31152 2.44824 3.70664 4.29199 3.61562 7.04394C1.38398 7.43593 0 9.44726 0 11.881C0 14.8488 2.59238 17.326 6.00429 17.326ZM19.499 15.4127L6.00781 15.4127C3.66991 15.4127 1.93436 13.7818 1.93436 11.881C1.93436 9.93671 3.13709 8.47538 5.1371 8.47538C5.27909 8.47538 5.33495 8.40175 5.33143 8.266C5.27343 5.34432 7.36933 4.37128 9.45741 5.03085C9.57811 5.06815 9.6535 5.03886 9.71561 4.92792C10.6787 3.23143 12.1039 1.91327 14.54 1.91327C17.6289 1.91327 19.8088 4.35565 19.9643 7.20155C19.9953 7.71405 19.959 8.28182 19.9129 8.75311C19.9014 8.88885 19.9537 8.95897 20.0814 8.98651C21.8553 9.33319 22.9908 10.5863 22.9908 12.3152C22.9908 14.035 21.4684 15.4127 19.499 15.4127Z" fill="white" fill-opacity="0.25"/>
  <path d="M10.2734 13.342L15.7185 7.88885C15.8613 7.74608 15.9402 7.56698 15.9402 7.36561C15.9402 6.94354 15.6121 6.62519 15.1936 6.62519C14.9861 6.62519 14.8105 6.69081 14.666 6.84335L9.20312 12.2822C9.06034 12.433 8.98319 12.6023 8.98319 12.8135C8.98319 13.2258 9.30956 13.5619 9.72987 13.5619C9.95155 13.5619 10.1289 13.4785 10.2734 13.342ZM14.658 13.342C14.7945 13.4785 14.9701 13.5619 15.1936 13.5619C15.6121 13.5619 15.9402 13.2258 15.9402 12.8135C15.9402 12.6023 15.8613 12.433 15.7185 12.2822L10.2574 6.84335C10.1129 6.69081 9.94354 6.62519 9.72987 6.62519C9.30956 6.62519 8.98319 6.94354 8.98319 7.36561C8.98319 7.56698 9.06034 7.74608 9.20312 7.88885Z" fill="white" fill-opacity="0.25"/>
 </g>
</svg>
