<?xml version="1.0" encoding="UTF-8"?>
<!--Generator: Apple Native CoreSVG 341-->
<!DOCTYPE svg
PUBLIC "-//W3C//DTD SVG 1.1//EN"
       "http://www.w3.org/Graphics/SVG/1.1/DTD/svg11.dtd">
<svg version="1.1" xmlns="http://www.w3.org/2000/svg" xmlns:xlink="http://www.w3.org/1999/xlink" viewBox="0 0 23.6541 17.2203">
 <g>
  <rect height="17.2203" opacity="0" width="23.6541" x="0" y="0"/>
  <path d="M3.20351 17.2203L20.0893 17.2203C22.1988 17.2203 23.2928 16.1424 23.2928 14.0488L23.2928 8.0494C23.2928 6.65878 22.9381 5.66406 22.1187 4.84648L18.8572 1.49336C17.873 0.485154 17.0529 0.0582016 15.7682 0.0582016L7.52636 0.0582016C6.24785 0.0582016 5.42148 0.485154 4.44355 1.49336L1.17402 4.84648C0.350389 5.68164 0 6.63417 0 8.0494L0 14.0488C0 16.1424 1.0957 17.2203 3.20351 17.2203ZM3.28984 15.3475C2.38886 15.3475 1.88866 14.865 1.88866 13.9303L1.88866 9.31678C1.88866 8.71385 2.16913 8.42537 2.75604 8.42537L20.5367 8.42537C21.1236 8.42537 21.4041 8.71385 21.4041 9.31678L21.4041 13.9303C21.4041 14.865 20.9057 15.3475 20.0029 15.3475ZM2.5912 6.78613C2.25643 6.78613 2.16229 6.48066 2.3621 6.26933L5.94608 2.48905C6.49355 1.9078 6.89159 1.69745 7.63085 1.69745L15.6637 1.69745C16.4012 1.69745 16.8072 1.9078 17.3484 2.48905L20.9387 6.26933C21.1305 6.48066 21.0443 6.78613 20.7016 6.78613ZM4.22675 14.416C4.54081 14.416 4.8203 14.1703 4.8203 13.8465L4.8203 9.96522C4.8203 9.6494 4.54081 9.38768 4.22675 9.38768C3.90116 9.38768 3.64745 9.6494 3.64745 9.96522L3.64745 13.8465C3.64745 14.1703 3.90116 14.416 4.22675 14.416ZM6.49179 14.416C6.81386 14.416 7.08534 14.1703 7.08534 13.8465L7.08534 9.96522C7.08534 9.6494 6.81386 9.38768 6.49179 9.38768C6.1662 9.38768 5.9205 9.6494 5.9205 9.96522L5.9205 13.8465C5.9205 14.1703 6.1662 14.416 6.49179 14.416ZM8.75683 14.416C9.08065 14.416 9.35038 14.1703 9.35038 13.8465L9.35038 9.96522C9.35038 9.6494 9.08065 9.38768 8.75683 9.38768C8.43124 9.38768 8.18554 9.6494 8.18554 9.96522L8.18554 13.8465C8.18554 14.1703 8.43124 14.416 8.75683 14.416ZM11.6676 10.765C12.0512 10.765 12.3646 10.4515 12.3646 10.0599C12.3646 9.68436 12.0512 9.36912 11.6676 9.36912C11.284 9.36912 10.9687 9.68436 10.9687 10.0599C10.9687 10.4515 11.284 10.765 11.6676 10.765ZM11.6676 12.5918C12.0512 12.5918 12.3646 12.2765 12.3646 11.893C12.3646 11.5094 12.0512 11.1941 11.6676 11.1941C11.284 11.1941 10.9687 11.5094 10.9687 11.893C10.9687 12.2765 11.284 12.5918 11.6676 12.5918ZM11.6676 14.415C12.0512 14.415 12.3646 14.0998 12.3646 13.7162C12.3646 13.3326 12.0512 13.0271 11.6676 13.0271C11.284 13.0271 10.9687 13.3326 10.9687 13.7162C10.9687 14.0998 11.284 14.415 11.6676 14.415ZM14.4576 14.416C14.7797 14.416 15.0494 14.1703 15.0494 13.8465L15.0494 9.96522C15.0494 9.6494 14.7797 9.38768 14.4576 9.38768C14.132 9.38768 13.8863 9.6494 13.8863 9.96522L13.8863 13.8465C13.8863 14.1703 14.132 14.416 14.4576 14.416ZM16.7227 14.416C17.0447 14.416 17.3225 14.1703 17.3225 13.8465L17.3225 9.96522C17.3225 9.6494 17.0447 9.38768 16.7227 9.38768C16.4051 9.38768 16.1514 9.6494 16.1514 9.96522L16.1514 13.8465C16.1514 14.1703 16.4051 14.416 16.7227 14.416ZM18.9957 14.416C19.3098 14.416 19.5875 14.1703 19.5875 13.8465L19.5875 9.96522C19.5875 9.6494 19.3098 9.38768 18.9957 9.38768C18.6701 9.38768 18.4164 9.6494 18.4164 9.96522L18.4164 13.8465C18.4164 14.1703 18.6701 14.416 18.9957 14.416Z" fill="white" fill-opacity="0.25"/>
 </g>
</svg>
