<?xml version="1.0" encoding="UTF-8"?>
<!--Generator: Apple Native CoreSVG 341-->
<!DOCTYPE svg
PUBLIC "-//W3C//DTD SVG 1.1//EN"
       "http://www.w3.org/Graphics/SVG/1.1/DTD/svg11.dtd">
<svg version="1.1" xmlns="http://www.w3.org/2000/svg" xmlns:xlink="http://www.w3.org/1999/xlink" viewBox="0 0 23.6541 14.5523">
 <g>
  <rect height="14.5523" opacity="0" width="23.6541" x="0" y="0"/>
  <path d="M3.20351 14.5523L20.0893 14.5523C22.1707 14.5523 23.2928 13.4463 23.2928 11.3808L23.2928 8.0037C23.2928 6.61484 22.9381 5.62012 22.1187 4.79277L18.9803 1.56445C17.9205 0.486912 17.1707 0.00625014 15.7682 0.00625014L7.52636 0.00625014C6.13184 0.00625014 5.37402 0.486912 4.32051 1.56445L1.17402 4.79277C0.350389 5.63594 0 6.59023 0 8.0037L0 11.3808C0 13.4463 1.12207 14.5523 3.20351 14.5523ZM3.28984 12.6795C2.39413 12.6795 1.88866 12.19 1.88866 11.2623L1.88866 9.26483C1.88866 8.66991 2.16913 8.38143 2.75604 8.38143L20.5367 8.38143C21.1236 8.38143 21.4041 8.66991 21.4041 9.26483L21.4041 11.2623C21.4041 12.19 20.8986 12.6795 20.0029 12.6795ZM2.5912 6.73417C2.25643 6.73417 2.16229 6.42695 2.3621 6.22538L5.94608 2.4371C6.49355 1.86386 6.89159 1.65351 7.63085 1.65351L15.6637 1.65351C16.4012 1.65351 16.7992 1.86386 17.3484 2.4371L20.9387 6.22538C21.1305 6.42695 21.0443 6.73417 20.7016 6.73417ZM4.01464 11.4533C4.53222 11.4533 4.96815 11.0236 4.96815 10.4998C4.96815 9.98221 4.53222 9.55428 4.01464 9.55428C3.49081 9.55428 3.06288 9.98221 3.06288 10.4998C3.06288 11.0236 3.49081 11.4533 4.01464 11.4533ZM6.62792 11.7568C6.95175 11.7568 7.22948 11.5031 7.22948 11.1855L7.22948 9.87811C7.22948 9.55604 6.95175 9.30233 6.62792 9.30233C6.31034 9.30233 6.05663 9.55604 6.05663 9.87811L6.05663 11.1855C6.05663 11.5031 6.31034 11.7568 6.62792 11.7568ZM8.52226 11.7568C8.84608 11.7568 9.12382 11.5031 9.12382 11.1855L9.12382 9.87811C9.12382 9.55604 8.84608 9.30233 8.52226 9.30233C8.20644 9.30233 7.95273 9.55604 7.95273 9.87811L7.95273 11.1855C7.95273 11.5031 8.20644 11.7568 8.52226 11.7568ZM10.5644 11.099C10.8902 11.099 11.1557 10.8336 11.1557 10.4998C11.1557 10.1723 10.8902 9.90858 10.5644 9.90858C10.2369 9.90858 9.97148 10.1723 9.97148 10.4998C9.97148 10.8336 10.2369 11.099 10.5644 11.099ZM12.6129 11.7568C12.9269 11.7568 13.1807 11.5031 13.1807 11.1855L13.1807 9.87811C13.1807 9.55604 12.9269 9.30233 12.6129 9.30233C12.2873 9.30233 12.0096 9.55604 12.0096 9.87811L12.0096 11.1855C12.0096 11.5031 12.2873 11.7568 12.6129 11.7568ZM14.5072 11.7568C14.831 11.7568 15.0767 11.5031 15.0767 11.1855L15.0767 9.87811C15.0767 9.55604 14.831 9.30233 14.5072 9.30233C14.1834 9.30233 13.9119 9.55604 13.9119 9.87811L13.9119 11.1855C13.9119 11.5031 14.1834 11.7568 14.5072 11.7568ZM16.766 11.1191L19.7182 11.1191C20.0455 11.1191 20.2957 10.8449 20.2957 10.5176C20.2957 10.1965 20.0455 9.94803 19.7182 9.94803L16.766 9.94803C16.4449 9.94803 16.1947 10.1965 16.1947 10.5176C16.1947 10.8449 16.4449 11.1191 16.766 11.1191Z" fill="white" fill-opacity="0.25"/>
 </g>
</svg>
